G04 #@! TF.GenerationSoftware,KiCad,Pcbnew,(6.0.2-0)*
G04 #@! TF.CreationDate,2022-03-06T15:41:21+00:00*
G04 #@! TF.ProjectId,SofleKeyboardTopPlate,536f666c-654b-4657-9962-6f617264546f,rev?*
G04 #@! TF.SameCoordinates,Original*
G04 #@! TF.FileFunction,Legend,Bot*
G04 #@! TF.FilePolarity,Positive*
%FSLAX46Y46*%
G04 Gerber Fmt 4.6, Leading zero omitted, Abs format (unit mm)*
G04 Created by KiCad (PCBNEW (6.0.2-0)) date 2022-03-06 15:41:21*
%MOMM*%
%LPD*%
G01*
G04 APERTURE LIST*
%ADD10C,0.200000*%
G04 APERTURE END LIST*
D10*
X110768285Y-114685761D02*
X110625428Y-114733380D01*
X110387333Y-114733380D01*
X110292095Y-114685761D01*
X110244476Y-114638142D01*
X110196857Y-114542904D01*
X110196857Y-114447666D01*
X110244476Y-114352428D01*
X110292095Y-114304809D01*
X110387333Y-114257190D01*
X110577809Y-114209571D01*
X110673047Y-114161952D01*
X110720666Y-114114333D01*
X110768285Y-114019095D01*
X110768285Y-113923857D01*
X110720666Y-113828619D01*
X110673047Y-113781000D01*
X110577809Y-113733380D01*
X110339714Y-113733380D01*
X110196857Y-113781000D01*
X109625428Y-114733380D02*
X109720666Y-114685761D01*
X109768285Y-114638142D01*
X109815904Y-114542904D01*
X109815904Y-114257190D01*
X109768285Y-114161952D01*
X109720666Y-114114333D01*
X109625428Y-114066714D01*
X109482571Y-114066714D01*
X109387333Y-114114333D01*
X109339714Y-114161952D01*
X109292095Y-114257190D01*
X109292095Y-114542904D01*
X109339714Y-114638142D01*
X109387333Y-114685761D01*
X109482571Y-114733380D01*
X109625428Y-114733380D01*
X109006380Y-114066714D02*
X108625428Y-114066714D01*
X108863523Y-114733380D02*
X108863523Y-113876238D01*
X108815904Y-113781000D01*
X108720666Y-113733380D01*
X108625428Y-113733380D01*
X108149238Y-114733380D02*
X108244476Y-114685761D01*
X108292095Y-114590523D01*
X108292095Y-113733380D01*
X107387333Y-114685761D02*
X107482571Y-114733380D01*
X107673047Y-114733380D01*
X107768285Y-114685761D01*
X107815904Y-114590523D01*
X107815904Y-114209571D01*
X107768285Y-114114333D01*
X107673047Y-114066714D01*
X107482571Y-114066714D01*
X107387333Y-114114333D01*
X107339714Y-114209571D01*
X107339714Y-114304809D01*
X107815904Y-114400047D01*
X106196857Y-114685761D02*
X106054000Y-114733380D01*
X105815904Y-114733380D01*
X105720666Y-114685761D01*
X105673047Y-114638142D01*
X105625428Y-114542904D01*
X105625428Y-114447666D01*
X105673047Y-114352428D01*
X105720666Y-114304809D01*
X105815904Y-114257190D01*
X106006380Y-114209571D01*
X106101619Y-114161952D01*
X106149238Y-114114333D01*
X106196857Y-114019095D01*
X106196857Y-113923857D01*
X106149238Y-113828619D01*
X106101619Y-113781000D01*
X106006380Y-113733380D01*
X105768285Y-113733380D01*
X105625428Y-113781000D01*
X105054000Y-114733380D02*
X105149238Y-114685761D01*
X105196857Y-114638142D01*
X105244476Y-114542904D01*
X105244476Y-114257190D01*
X105196857Y-114161952D01*
X105149238Y-114114333D01*
X105054000Y-114066714D01*
X104911142Y-114066714D01*
X104815904Y-114114333D01*
X104768285Y-114161952D01*
X104720666Y-114257190D01*
X104720666Y-114542904D01*
X104768285Y-114638142D01*
X104815904Y-114685761D01*
X104911142Y-114733380D01*
X105054000Y-114733380D01*
X103863523Y-114066714D02*
X103863523Y-114733380D01*
X104292095Y-114066714D02*
X104292095Y-114590523D01*
X104244476Y-114685761D01*
X104149238Y-114733380D01*
X104006380Y-114733380D01*
X103911142Y-114685761D01*
X103863523Y-114638142D01*
X103530190Y-114066714D02*
X103149238Y-114066714D01*
X103387333Y-114733380D02*
X103387333Y-113876238D01*
X103339714Y-113781000D01*
X103244476Y-113733380D01*
X103149238Y-113733380D01*
X102958761Y-114066714D02*
X102577809Y-114066714D01*
X102815904Y-114733380D02*
X102815904Y-113876238D01*
X102768285Y-113781000D01*
X102673047Y-113733380D01*
X102577809Y-113733380D01*
X102101619Y-114733380D02*
X102196857Y-114685761D01*
X102244476Y-114590523D01*
X102244476Y-113733380D01*
X101339714Y-114685761D02*
X101434952Y-114733380D01*
X101625428Y-114733380D01*
X101720666Y-114685761D01*
X101768285Y-114590523D01*
X101768285Y-114209571D01*
X101720666Y-114114333D01*
X101625428Y-114066714D01*
X101434952Y-114066714D01*
X101339714Y-114114333D01*
X101292095Y-114209571D01*
X101292095Y-114304809D01*
X101768285Y-114400047D01*
X101434952Y-113685761D02*
X101577809Y-113828619D01*
X100101619Y-114352428D02*
X99339714Y-114352428D01*
X97815904Y-113733380D02*
X97815904Y-114447666D01*
X97863523Y-114590523D01*
X97958761Y-114685761D01*
X98101619Y-114733380D01*
X98196857Y-114733380D01*
X96006380Y-114638142D02*
X96054000Y-114685761D01*
X96196857Y-114733380D01*
X96292095Y-114733380D01*
X96434952Y-114685761D01*
X96530190Y-114590523D01*
X96577809Y-114495285D01*
X96625428Y-114304809D01*
X96625428Y-114161952D01*
X96577809Y-113971476D01*
X96530190Y-113876238D01*
X96434952Y-113781000D01*
X96292095Y-113733380D01*
X96196857Y-113733380D01*
X96054000Y-113781000D01*
X96006380Y-113828619D01*
X95434952Y-114733380D02*
X95530190Y-114685761D01*
X95577809Y-114590523D01*
X95577809Y-113733380D01*
X95054000Y-114733380D02*
X95054000Y-114066714D01*
X95054000Y-113733380D02*
X95101619Y-113781000D01*
X95054000Y-113828619D01*
X95006380Y-113781000D01*
X95054000Y-113733380D01*
X95054000Y-113828619D01*
X94577809Y-114733380D02*
X94577809Y-114066714D01*
X94577809Y-114161952D02*
X94530190Y-114114333D01*
X94434952Y-114066714D01*
X94292095Y-114066714D01*
X94196857Y-114114333D01*
X94149238Y-114209571D01*
X94149238Y-114733380D01*
X94149238Y-114209571D02*
X94101619Y-114114333D01*
X94006380Y-114066714D01*
X93863523Y-114066714D01*
X93768285Y-114114333D01*
X93720666Y-114209571D01*
X93720666Y-114733380D01*
X92863523Y-114685761D02*
X92958761Y-114733380D01*
X93149238Y-114733380D01*
X93244476Y-114685761D01*
X93292095Y-114590523D01*
X93292095Y-114209571D01*
X93244476Y-114114333D01*
X93149238Y-114066714D01*
X92958761Y-114066714D01*
X92863523Y-114114333D01*
X92815904Y-114209571D01*
X92815904Y-114304809D01*
X93292095Y-114400047D01*
X92387333Y-114066714D02*
X92387333Y-114733380D01*
X92387333Y-114161952D02*
X92339714Y-114114333D01*
X92244476Y-114066714D01*
X92101619Y-114066714D01*
X92006380Y-114114333D01*
X91958761Y-114209571D01*
X91958761Y-114733380D01*
X91625428Y-114066714D02*
X91244476Y-114066714D01*
X91482571Y-113733380D02*
X91482571Y-114590523D01*
X91434952Y-114685761D01*
X91339714Y-114733380D01*
X91244476Y-114733380D01*
M02*
