G04 #@! TF.GenerationSoftware,KiCad,Pcbnew,(6.0.2-0)*
G04 #@! TF.CreationDate,2022-03-06T15:41:21+00:00*
G04 #@! TF.ProjectId,SofleKeyboardTopPlate,536f666c-654b-4657-9962-6f617264546f,rev?*
G04 #@! TF.SameCoordinates,Original*
G04 #@! TF.FileFunction,Profile,NP*
%FSLAX46Y46*%
G04 Gerber Fmt 4.6, Leading zero omitted, Abs format (unit mm)*
G04 Created by KiCad (PCBNEW (6.0.2-0)) date 2022-03-06 15:41:21*
%MOMM*%
%LPD*%
G01*
G04 APERTURE LIST*
G04 #@! TA.AperFunction,Profile*
%ADD10C,0.150000*%
G04 #@! TD*
G04 #@! TA.AperFunction,Profile*
%ADD11C,0.100000*%
G04 #@! TD*
G04 APERTURE END LIST*
D10*
X223686000Y-123049000D02*
X223686000Y-129049000D01*
X223686000Y-137049000D02*
X209686000Y-137049000D01*
X222686000Y-124049000D02*
X222686000Y-129049000D01*
X209686000Y-123049000D02*
X223686000Y-123049000D01*
X223686000Y-131549000D02*
X223686000Y-137049000D01*
X210686000Y-131549000D02*
X210686000Y-136049000D01*
X210686000Y-136049000D02*
X222686000Y-136049000D01*
X222686000Y-136049000D02*
X222686000Y-131549000D01*
X210686000Y-131549000D02*
G75*
G03*
X209686000Y-131549000I-500000J0D01*
G01*
X209686000Y-129049000D02*
G75*
G03*
X210686000Y-129049000I500000J0D01*
G01*
X209686000Y-129049000D02*
X209686000Y-123049000D01*
X209686000Y-137049000D02*
X209686000Y-131549000D01*
X210686000Y-124049000D02*
X222686000Y-124049000D01*
X210686000Y-129049000D02*
X210686000Y-124049000D01*
X222686000Y-129049000D02*
G75*
G03*
X223686000Y-129049000I500000J0D01*
G01*
X223686000Y-131549000D02*
G75*
G03*
X222686000Y-131549000I-500000J0D01*
G01*
X166595000Y-115735000D02*
X166595000Y-121735000D01*
X166595000Y-129735000D02*
X152595000Y-129735000D01*
X165595000Y-116735000D02*
X165595000Y-121735000D01*
X152595000Y-115735000D02*
X166595000Y-115735000D01*
X166595000Y-124235000D02*
X166595000Y-129735000D01*
X153595000Y-124235000D02*
X153595000Y-128735000D01*
X153595000Y-128735000D02*
X165595000Y-128735000D01*
X165595000Y-128735000D02*
X165595000Y-124235000D01*
X153595000Y-124235000D02*
G75*
G03*
X152595000Y-124235000I-500000J0D01*
G01*
X152595000Y-121735000D02*
G75*
G03*
X153595000Y-121735000I500000J0D01*
G01*
X152595000Y-121735000D02*
X152595000Y-115735000D01*
X152595000Y-129735000D02*
X152595000Y-124235000D01*
X153595000Y-116735000D02*
X165595000Y-116735000D01*
X153595000Y-121735000D02*
X153595000Y-116735000D01*
X165595000Y-121735000D02*
G75*
G03*
X166595000Y-121735000I500000J0D01*
G01*
X166595000Y-124235000D02*
G75*
G03*
X165595000Y-124235000I-500000J0D01*
G01*
X147495000Y-118145000D02*
X147495000Y-124145000D01*
X147495000Y-132145000D02*
X133495000Y-132145000D01*
X146495000Y-119145000D02*
X146495000Y-124145000D01*
X133495000Y-118145000D02*
X147495000Y-118145000D01*
X147495000Y-126645000D02*
X147495000Y-132145000D01*
X134495000Y-126645000D02*
X134495000Y-131145000D01*
X134495000Y-131145000D02*
X146495000Y-131145000D01*
X146495000Y-131145000D02*
X146495000Y-126645000D01*
X134495000Y-126645000D02*
G75*
G03*
X133495000Y-126645000I-500000J0D01*
G01*
X133495000Y-124145000D02*
G75*
G03*
X134495000Y-124145000I500000J0D01*
G01*
X133495000Y-124145000D02*
X133495000Y-118145000D01*
X133495000Y-132145000D02*
X133495000Y-126645000D01*
X134495000Y-119145000D02*
X146495000Y-119145000D01*
X134495000Y-124145000D02*
X134495000Y-119145000D01*
X146495000Y-124145000D02*
G75*
G03*
X147495000Y-124145000I500000J0D01*
G01*
X147495000Y-126645000D02*
G75*
G03*
X146495000Y-126645000I-500000J0D01*
G01*
X134495000Y-112045000D02*
X146495000Y-112045000D01*
X146495000Y-112045000D02*
X146495000Y-107545000D01*
X134495000Y-107545000D02*
G75*
G03*
X133495000Y-107545000I-500000J0D01*
G01*
X133495000Y-105045000D02*
G75*
G03*
X134495000Y-105045000I500000J0D01*
G01*
X147495000Y-107545000D02*
X147495000Y-113045000D01*
X134495000Y-100045000D02*
X146495000Y-100045000D01*
X134495000Y-105045000D02*
X134495000Y-100045000D01*
X147495000Y-99045000D02*
X147495000Y-105045000D01*
X147495000Y-113045000D02*
X133495000Y-113045000D01*
X146495000Y-100045000D02*
X146495000Y-105045000D01*
X133495000Y-99045000D02*
X147495000Y-99045000D01*
X146495000Y-105045000D02*
G75*
G03*
X147495000Y-105045000I500000J0D01*
G01*
X147495000Y-107545000D02*
G75*
G03*
X146495000Y-107545000I-500000J0D01*
G01*
X134495000Y-107545000D02*
X134495000Y-112045000D01*
X153595000Y-102545000D02*
X153595000Y-97545000D01*
X127495000Y-107545000D02*
G75*
G03*
X128495000Y-107545000I500000J0D01*
G01*
X128495000Y-110045000D02*
G75*
G03*
X127495000Y-110045000I-500000J0D01*
G01*
X209695000Y-103945000D02*
X223695000Y-103945000D01*
X222695000Y-109945000D02*
G75*
G03*
X223695000Y-109945000I500000J0D01*
G01*
X223695000Y-112445000D02*
G75*
G03*
X222695000Y-112445000I-500000J0D01*
G01*
X210695000Y-112445000D02*
X210695000Y-116945000D01*
X210695000Y-116945000D02*
X222695000Y-116945000D01*
X222695000Y-116945000D02*
X222695000Y-112445000D01*
X210695000Y-112445000D02*
G75*
G03*
X209695000Y-112445000I-500000J0D01*
G01*
X209695000Y-109945000D02*
G75*
G03*
X210695000Y-109945000I500000J0D01*
G01*
X209695000Y-109945000D02*
X209695000Y-103945000D01*
X209695000Y-117945000D02*
X209695000Y-112445000D01*
X210695000Y-104945000D02*
X222695000Y-104945000D01*
X210695000Y-109945000D02*
X210695000Y-104945000D01*
X223695000Y-117945000D02*
X209695000Y-117945000D01*
X222695000Y-104945000D02*
X222695000Y-109945000D01*
X165595000Y-97545000D02*
X165595000Y-102545000D01*
X152595000Y-96545000D02*
X166595000Y-96545000D01*
X166595000Y-105045000D02*
X166595000Y-110545000D01*
X166595000Y-110545000D02*
X152595000Y-110545000D01*
X133495000Y-105045000D02*
X133495000Y-99045000D01*
X133495000Y-113045000D02*
X133495000Y-107545000D01*
X223695000Y-103945000D02*
X223695000Y-109945000D01*
X223695000Y-112445000D02*
X223695000Y-117945000D01*
X185595000Y-99085000D02*
X185595000Y-105085000D01*
X171595000Y-99085000D02*
X185595000Y-99085000D01*
X172595000Y-105085000D02*
X172595000Y-100085000D01*
X185595000Y-113085000D02*
X171595000Y-113085000D01*
X184595000Y-100085000D02*
X184595000Y-105085000D01*
X184595000Y-105085000D02*
G75*
G03*
X185595000Y-105085000I500000J0D01*
G01*
X185595000Y-107585000D02*
G75*
G03*
X184595000Y-107585000I-500000J0D01*
G01*
X172595000Y-107585000D02*
X172595000Y-112085000D01*
X172595000Y-112085000D02*
X184595000Y-112085000D01*
X184595000Y-112085000D02*
X184595000Y-107585000D01*
X185595000Y-107585000D02*
X185595000Y-113085000D01*
X172595000Y-107585000D02*
G75*
G03*
X171595000Y-107585000I-500000J0D01*
G01*
X171595000Y-105085000D02*
G75*
G03*
X172595000Y-105085000I500000J0D01*
G01*
X171595000Y-105085000D02*
X171595000Y-99085000D01*
X171595000Y-113085000D02*
X171595000Y-107585000D01*
X172595000Y-100085000D02*
X184595000Y-100085000D01*
X153595000Y-97545000D02*
X165595000Y-97545000D01*
X204695000Y-103945000D02*
X204695000Y-109945000D01*
X165595000Y-102545000D02*
G75*
G03*
X166595000Y-102545000I500000J0D01*
G01*
X166595000Y-105045000D02*
G75*
G03*
X165595000Y-105045000I-500000J0D01*
G01*
X153595000Y-105045000D02*
X153595000Y-109545000D01*
X153595000Y-109545000D02*
X165595000Y-109545000D01*
X165595000Y-109545000D02*
X165595000Y-105045000D01*
X153595000Y-105045000D02*
G75*
G03*
X152595000Y-105045000I-500000J0D01*
G01*
X152595000Y-102545000D02*
G75*
G03*
X153595000Y-102545000I500000J0D01*
G01*
X152595000Y-102545000D02*
X152595000Y-96545000D01*
X152595000Y-110545000D02*
X152595000Y-105045000D01*
X190695000Y-103945000D02*
X204695000Y-103945000D01*
X204695000Y-112445000D02*
X204695000Y-117945000D01*
X166595000Y-96545000D02*
X166595000Y-102545000D01*
X115495000Y-110045000D02*
X115495000Y-114545000D01*
X203695000Y-109945000D02*
G75*
G03*
X204695000Y-109945000I500000J0D01*
G01*
X204695000Y-112445000D02*
G75*
G03*
X203695000Y-112445000I-500000J0D01*
G01*
X191695000Y-112445000D02*
X191695000Y-116945000D01*
X191695000Y-116945000D02*
X203695000Y-116945000D01*
X203695000Y-116945000D02*
X203695000Y-112445000D01*
X191695000Y-112445000D02*
G75*
G03*
X190695000Y-112445000I-500000J0D01*
G01*
X190695000Y-109945000D02*
G75*
G03*
X191695000Y-109945000I500000J0D01*
G01*
X190695000Y-109945000D02*
X190695000Y-103945000D01*
X190695000Y-117945000D02*
X190695000Y-112445000D01*
X191695000Y-104945000D02*
X203695000Y-104945000D01*
X191695000Y-109945000D02*
X191695000Y-104945000D01*
X204695000Y-117945000D02*
X190695000Y-117945000D01*
X203695000Y-104945000D02*
X203695000Y-109945000D01*
X115495000Y-114545000D02*
X127495000Y-114545000D01*
X127495000Y-114545000D02*
X127495000Y-110045000D01*
X115495000Y-110045000D02*
G75*
G03*
X114495000Y-110045000I-500000J0D01*
G01*
X114495000Y-107545000D02*
G75*
G03*
X115495000Y-107545000I500000J0D01*
G01*
X114495000Y-107545000D02*
X114495000Y-101545000D01*
X114495000Y-115545000D02*
X114495000Y-110045000D01*
X115495000Y-102545000D02*
X127495000Y-102545000D01*
X115495000Y-107545000D02*
X115495000Y-102545000D01*
X128495000Y-115545000D02*
X114495000Y-115545000D01*
X127495000Y-102545000D02*
X127495000Y-107545000D01*
X114495000Y-101545000D02*
X128495000Y-101545000D01*
X128495000Y-110045000D02*
X128495000Y-115545000D01*
X128495000Y-101545000D02*
X128495000Y-107545000D01*
X134495000Y-93045000D02*
X146495000Y-93045000D01*
X146495000Y-93045000D02*
X146495000Y-88545000D01*
X134495000Y-88545000D02*
G75*
G03*
X133495000Y-88545000I-500000J0D01*
G01*
X133495000Y-86045000D02*
G75*
G03*
X134495000Y-86045000I500000J0D01*
G01*
X147495000Y-88545000D02*
X147495000Y-94045000D01*
X134495000Y-81045000D02*
X146495000Y-81045000D01*
X134495000Y-86045000D02*
X134495000Y-81045000D01*
X147495000Y-80045000D02*
X147495000Y-86045000D01*
X147495000Y-94045000D02*
X133495000Y-94045000D01*
X146495000Y-81045000D02*
X146495000Y-86045000D01*
X133495000Y-80045000D02*
X147495000Y-80045000D01*
X146495000Y-86045000D02*
G75*
G03*
X147495000Y-86045000I500000J0D01*
G01*
X147495000Y-88545000D02*
G75*
G03*
X146495000Y-88545000I-500000J0D01*
G01*
X134495000Y-88545000D02*
X134495000Y-93045000D01*
X153595000Y-83545000D02*
X153595000Y-78545000D01*
X127495000Y-88545000D02*
G75*
G03*
X128495000Y-88545000I500000J0D01*
G01*
X128495000Y-91045000D02*
G75*
G03*
X127495000Y-91045000I-500000J0D01*
G01*
X209695000Y-84945000D02*
X223695000Y-84945000D01*
X222695000Y-90945000D02*
G75*
G03*
X223695000Y-90945000I500000J0D01*
G01*
X223695000Y-93445000D02*
G75*
G03*
X222695000Y-93445000I-500000J0D01*
G01*
X210695000Y-93445000D02*
X210695000Y-97945000D01*
X210695000Y-97945000D02*
X222695000Y-97945000D01*
X222695000Y-97945000D02*
X222695000Y-93445000D01*
X210695000Y-93445000D02*
G75*
G03*
X209695000Y-93445000I-500000J0D01*
G01*
X209695000Y-90945000D02*
G75*
G03*
X210695000Y-90945000I500000J0D01*
G01*
X209695000Y-90945000D02*
X209695000Y-84945000D01*
X209695000Y-98945000D02*
X209695000Y-93445000D01*
X210695000Y-85945000D02*
X222695000Y-85945000D01*
X210695000Y-90945000D02*
X210695000Y-85945000D01*
X223695000Y-98945000D02*
X209695000Y-98945000D01*
X222695000Y-85945000D02*
X222695000Y-90945000D01*
X165595000Y-78545000D02*
X165595000Y-83545000D01*
X152595000Y-77545000D02*
X166595000Y-77545000D01*
X166595000Y-86045000D02*
X166595000Y-91545000D01*
X166595000Y-91545000D02*
X152595000Y-91545000D01*
X133495000Y-86045000D02*
X133495000Y-80045000D01*
X133495000Y-94045000D02*
X133495000Y-88545000D01*
X223695000Y-84945000D02*
X223695000Y-90945000D01*
X223695000Y-93445000D02*
X223695000Y-98945000D01*
X185595000Y-80085000D02*
X185595000Y-86085000D01*
X171595000Y-80085000D02*
X185595000Y-80085000D01*
X172595000Y-86085000D02*
X172595000Y-81085000D01*
X185595000Y-94085000D02*
X171595000Y-94085000D01*
X184595000Y-81085000D02*
X184595000Y-86085000D01*
X184595000Y-86085000D02*
G75*
G03*
X185595000Y-86085000I500000J0D01*
G01*
X185595000Y-88585000D02*
G75*
G03*
X184595000Y-88585000I-500000J0D01*
G01*
X172595000Y-88585000D02*
X172595000Y-93085000D01*
X172595000Y-93085000D02*
X184595000Y-93085000D01*
X184595000Y-93085000D02*
X184595000Y-88585000D01*
X185595000Y-88585000D02*
X185595000Y-94085000D01*
X172595000Y-88585000D02*
G75*
G03*
X171595000Y-88585000I-500000J0D01*
G01*
X171595000Y-86085000D02*
G75*
G03*
X172595000Y-86085000I500000J0D01*
G01*
X171595000Y-86085000D02*
X171595000Y-80085000D01*
X171595000Y-94085000D02*
X171595000Y-88585000D01*
X172595000Y-81085000D02*
X184595000Y-81085000D01*
X153595000Y-78545000D02*
X165595000Y-78545000D01*
X204695000Y-84945000D02*
X204695000Y-90945000D01*
X165595000Y-83545000D02*
G75*
G03*
X166595000Y-83545000I500000J0D01*
G01*
X166595000Y-86045000D02*
G75*
G03*
X165595000Y-86045000I-500000J0D01*
G01*
X153595000Y-86045000D02*
X153595000Y-90545000D01*
X153595000Y-90545000D02*
X165595000Y-90545000D01*
X165595000Y-90545000D02*
X165595000Y-86045000D01*
X153595000Y-86045000D02*
G75*
G03*
X152595000Y-86045000I-500000J0D01*
G01*
X152595000Y-83545000D02*
G75*
G03*
X153595000Y-83545000I500000J0D01*
G01*
X152595000Y-83545000D02*
X152595000Y-77545000D01*
X152595000Y-91545000D02*
X152595000Y-86045000D01*
X190695000Y-84945000D02*
X204695000Y-84945000D01*
X204695000Y-93445000D02*
X204695000Y-98945000D01*
X166595000Y-77545000D02*
X166595000Y-83545000D01*
X115495000Y-91045000D02*
X115495000Y-95545000D01*
X203695000Y-90945000D02*
G75*
G03*
X204695000Y-90945000I500000J0D01*
G01*
X204695000Y-93445000D02*
G75*
G03*
X203695000Y-93445000I-500000J0D01*
G01*
X191695000Y-93445000D02*
X191695000Y-97945000D01*
X191695000Y-97945000D02*
X203695000Y-97945000D01*
X203695000Y-97945000D02*
X203695000Y-93445000D01*
X191695000Y-93445000D02*
G75*
G03*
X190695000Y-93445000I-500000J0D01*
G01*
X190695000Y-90945000D02*
G75*
G03*
X191695000Y-90945000I500000J0D01*
G01*
X190695000Y-90945000D02*
X190695000Y-84945000D01*
X190695000Y-98945000D02*
X190695000Y-93445000D01*
X191695000Y-85945000D02*
X203695000Y-85945000D01*
X191695000Y-90945000D02*
X191695000Y-85945000D01*
X204695000Y-98945000D02*
X190695000Y-98945000D01*
X203695000Y-85945000D02*
X203695000Y-90945000D01*
X115495000Y-95545000D02*
X127495000Y-95545000D01*
X127495000Y-95545000D02*
X127495000Y-91045000D01*
X115495000Y-91045000D02*
G75*
G03*
X114495000Y-91045000I-500000J0D01*
G01*
X114495000Y-88545000D02*
G75*
G03*
X115495000Y-88545000I500000J0D01*
G01*
X114495000Y-88545000D02*
X114495000Y-82545000D01*
X114495000Y-96545000D02*
X114495000Y-91045000D01*
X115495000Y-83545000D02*
X127495000Y-83545000D01*
X115495000Y-88545000D02*
X115495000Y-83545000D01*
X128495000Y-96545000D02*
X114495000Y-96545000D01*
X127495000Y-83545000D02*
X127495000Y-88545000D01*
X114495000Y-82545000D02*
X128495000Y-82545000D01*
X128495000Y-91045000D02*
X128495000Y-96545000D01*
X128495000Y-82545000D02*
X128495000Y-88545000D01*
X134495000Y-74045000D02*
X146495000Y-74045000D01*
X146495000Y-74045000D02*
X146495000Y-69545000D01*
X134495000Y-69545000D02*
G75*
G03*
X133495000Y-69545000I-500000J0D01*
G01*
X133495000Y-67045000D02*
G75*
G03*
X134495000Y-67045000I500000J0D01*
G01*
X147495000Y-69545000D02*
X147495000Y-75045000D01*
X134495000Y-62045000D02*
X146495000Y-62045000D01*
X134495000Y-67045000D02*
X134495000Y-62045000D01*
X147495000Y-61045000D02*
X147495000Y-67045000D01*
X147495000Y-75045000D02*
X133495000Y-75045000D01*
X146495000Y-62045000D02*
X146495000Y-67045000D01*
X133495000Y-61045000D02*
X147495000Y-61045000D01*
X146495000Y-67045000D02*
G75*
G03*
X147495000Y-67045000I500000J0D01*
G01*
X147495000Y-69545000D02*
G75*
G03*
X146495000Y-69545000I-500000J0D01*
G01*
X134495000Y-69545000D02*
X134495000Y-74045000D01*
X153595000Y-64545000D02*
X153595000Y-59545000D01*
X127495000Y-69545000D02*
G75*
G03*
X128495000Y-69545000I500000J0D01*
G01*
X128495000Y-72045000D02*
G75*
G03*
X127495000Y-72045000I-500000J0D01*
G01*
X209695000Y-65945000D02*
X223695000Y-65945000D01*
X222695000Y-71945000D02*
G75*
G03*
X223695000Y-71945000I500000J0D01*
G01*
X223695000Y-74445000D02*
G75*
G03*
X222695000Y-74445000I-500000J0D01*
G01*
X210695000Y-74445000D02*
X210695000Y-78945000D01*
X210695000Y-78945000D02*
X222695000Y-78945000D01*
X222695000Y-78945000D02*
X222695000Y-74445000D01*
X210695000Y-74445000D02*
G75*
G03*
X209695000Y-74445000I-500000J0D01*
G01*
X209695000Y-71945000D02*
G75*
G03*
X210695000Y-71945000I500000J0D01*
G01*
X209695000Y-71945000D02*
X209695000Y-65945000D01*
X209695000Y-79945000D02*
X209695000Y-74445000D01*
X210695000Y-66945000D02*
X222695000Y-66945000D01*
X210695000Y-71945000D02*
X210695000Y-66945000D01*
X223695000Y-79945000D02*
X209695000Y-79945000D01*
X222695000Y-66945000D02*
X222695000Y-71945000D01*
X165595000Y-59545000D02*
X165595000Y-64545000D01*
X152595000Y-58545000D02*
X166595000Y-58545000D01*
X166595000Y-67045000D02*
X166595000Y-72545000D01*
X166595000Y-72545000D02*
X152595000Y-72545000D01*
X133495000Y-67045000D02*
X133495000Y-61045000D01*
X133495000Y-75045000D02*
X133495000Y-69545000D01*
X223695000Y-65945000D02*
X223695000Y-71945000D01*
X223695000Y-74445000D02*
X223695000Y-79945000D01*
X185595000Y-61085000D02*
X185595000Y-67085000D01*
X171595000Y-61085000D02*
X185595000Y-61085000D01*
X172595000Y-67085000D02*
X172595000Y-62085000D01*
X185595000Y-75085000D02*
X171595000Y-75085000D01*
X184595000Y-62085000D02*
X184595000Y-67085000D01*
X184595000Y-67085000D02*
G75*
G03*
X185595000Y-67085000I500000J0D01*
G01*
X185595000Y-69585000D02*
G75*
G03*
X184595000Y-69585000I-500000J0D01*
G01*
X172595000Y-69585000D02*
X172595000Y-74085000D01*
X172595000Y-74085000D02*
X184595000Y-74085000D01*
X184595000Y-74085000D02*
X184595000Y-69585000D01*
X185595000Y-69585000D02*
X185595000Y-75085000D01*
X172595000Y-69585000D02*
G75*
G03*
X171595000Y-69585000I-500000J0D01*
G01*
X171595000Y-67085000D02*
G75*
G03*
X172595000Y-67085000I500000J0D01*
G01*
X171595000Y-67085000D02*
X171595000Y-61085000D01*
X171595000Y-75085000D02*
X171595000Y-69585000D01*
X172595000Y-62085000D02*
X184595000Y-62085000D01*
X153595000Y-59545000D02*
X165595000Y-59545000D01*
X204695000Y-65945000D02*
X204695000Y-71945000D01*
X165595000Y-64545000D02*
G75*
G03*
X166595000Y-64545000I500000J0D01*
G01*
X166595000Y-67045000D02*
G75*
G03*
X165595000Y-67045000I-500000J0D01*
G01*
X153595000Y-67045000D02*
X153595000Y-71545000D01*
X153595000Y-71545000D02*
X165595000Y-71545000D01*
X165595000Y-71545000D02*
X165595000Y-67045000D01*
X153595000Y-67045000D02*
G75*
G03*
X152595000Y-67045000I-500000J0D01*
G01*
X152595000Y-64545000D02*
G75*
G03*
X153595000Y-64545000I500000J0D01*
G01*
X152595000Y-64545000D02*
X152595000Y-58545000D01*
X152595000Y-72545000D02*
X152595000Y-67045000D01*
X190695000Y-65945000D02*
X204695000Y-65945000D01*
X204695000Y-74445000D02*
X204695000Y-79945000D01*
X166595000Y-58545000D02*
X166595000Y-64545000D01*
X115495000Y-72045000D02*
X115495000Y-76545000D01*
X203695000Y-71945000D02*
G75*
G03*
X204695000Y-71945000I500000J0D01*
G01*
X204695000Y-74445000D02*
G75*
G03*
X203695000Y-74445000I-500000J0D01*
G01*
X191695000Y-74445000D02*
X191695000Y-78945000D01*
X191695000Y-78945000D02*
X203695000Y-78945000D01*
X203695000Y-78945000D02*
X203695000Y-74445000D01*
X191695000Y-74445000D02*
G75*
G03*
X190695000Y-74445000I-500000J0D01*
G01*
X190695000Y-71945000D02*
G75*
G03*
X191695000Y-71945000I500000J0D01*
G01*
X190695000Y-71945000D02*
X190695000Y-65945000D01*
X190695000Y-79945000D02*
X190695000Y-74445000D01*
X191695000Y-66945000D02*
X203695000Y-66945000D01*
X191695000Y-71945000D02*
X191695000Y-66945000D01*
X204695000Y-79945000D02*
X190695000Y-79945000D01*
X203695000Y-66945000D02*
X203695000Y-71945000D01*
X115495000Y-76545000D02*
X127495000Y-76545000D01*
X127495000Y-76545000D02*
X127495000Y-72045000D01*
X115495000Y-72045000D02*
G75*
G03*
X114495000Y-72045000I-500000J0D01*
G01*
X114495000Y-69545000D02*
G75*
G03*
X115495000Y-69545000I500000J0D01*
G01*
X114495000Y-69545000D02*
X114495000Y-63545000D01*
X114495000Y-77545000D02*
X114495000Y-72045000D01*
X115495000Y-64545000D02*
X127495000Y-64545000D01*
X115495000Y-69545000D02*
X115495000Y-64545000D01*
X128495000Y-77545000D02*
X114495000Y-77545000D01*
X127495000Y-64545000D02*
X127495000Y-69545000D01*
X114495000Y-63545000D02*
X128495000Y-63545000D01*
X128495000Y-72045000D02*
X128495000Y-77545000D01*
X128495000Y-63545000D02*
X128495000Y-69545000D01*
X222695000Y-52845000D02*
G75*
G03*
X223695000Y-52845000I500000J0D01*
G01*
X223695000Y-55345000D02*
G75*
G03*
X222695000Y-55345000I-500000J0D01*
G01*
X210695000Y-55345000D02*
X210695000Y-59845000D01*
X210695000Y-59845000D02*
X222695000Y-59845000D01*
X222695000Y-59845000D02*
X222695000Y-55345000D01*
X210695000Y-55345000D02*
G75*
G03*
X209695000Y-55345000I-500000J0D01*
G01*
X209695000Y-52845000D02*
G75*
G03*
X210695000Y-52845000I500000J0D01*
G01*
X209695000Y-52845000D02*
X209695000Y-46845000D01*
X209695000Y-60845000D02*
X209695000Y-55345000D01*
X210695000Y-47845000D02*
X222695000Y-47845000D01*
X210695000Y-52845000D02*
X210695000Y-47845000D01*
X223695000Y-60845000D02*
X209695000Y-60845000D01*
X222695000Y-47845000D02*
X222695000Y-52845000D01*
X209695000Y-46845000D02*
X223695000Y-46845000D01*
X223695000Y-55345000D02*
X223695000Y-60845000D01*
X223695000Y-46845000D02*
X223695000Y-52845000D01*
X203695000Y-52845000D02*
G75*
G03*
X204695000Y-52845000I500000J0D01*
G01*
X204695000Y-55345000D02*
G75*
G03*
X203695000Y-55345000I-500000J0D01*
G01*
X191695000Y-55345000D02*
X191695000Y-59845000D01*
X191695000Y-59845000D02*
X203695000Y-59845000D01*
X203695000Y-59845000D02*
X203695000Y-55345000D01*
X191695000Y-55345000D02*
G75*
G03*
X190695000Y-55345000I-500000J0D01*
G01*
X190695000Y-52845000D02*
G75*
G03*
X191695000Y-52845000I500000J0D01*
G01*
X190695000Y-52845000D02*
X190695000Y-46845000D01*
X190695000Y-60845000D02*
X190695000Y-55345000D01*
X191695000Y-47845000D02*
X203695000Y-47845000D01*
X191695000Y-52845000D02*
X191695000Y-47845000D01*
X204695000Y-60845000D02*
X190695000Y-60845000D01*
X203695000Y-47845000D02*
X203695000Y-52845000D01*
X190695000Y-46845000D02*
X204695000Y-46845000D01*
X204695000Y-55345000D02*
X204695000Y-60845000D01*
X204695000Y-46845000D02*
X204695000Y-52845000D01*
X184595000Y-47985000D02*
G75*
G03*
X185595000Y-47985000I500000J0D01*
G01*
X185595000Y-50485000D02*
G75*
G03*
X184595000Y-50485000I-500000J0D01*
G01*
X172595000Y-50485000D02*
X172595000Y-54985000D01*
X172595000Y-54985000D02*
X184595000Y-54985000D01*
X184595000Y-54985000D02*
X184595000Y-50485000D01*
X172595000Y-50485000D02*
G75*
G03*
X171595000Y-50485000I-500000J0D01*
G01*
X171595000Y-47985000D02*
G75*
G03*
X172595000Y-47985000I500000J0D01*
G01*
X171595000Y-47985000D02*
X171595000Y-41985000D01*
X171595000Y-55985000D02*
X171595000Y-50485000D01*
X172595000Y-42985000D02*
X184595000Y-42985000D01*
X172595000Y-47985000D02*
X172595000Y-42985000D01*
X185595000Y-55985000D02*
X171595000Y-55985000D01*
X184595000Y-42985000D02*
X184595000Y-47985000D01*
X171595000Y-41985000D02*
X185595000Y-41985000D01*
X185595000Y-50485000D02*
X185595000Y-55985000D01*
X185595000Y-41985000D02*
X185595000Y-47985000D01*
X165595000Y-45445000D02*
G75*
G03*
X166595000Y-45445000I500000J0D01*
G01*
X166595000Y-47945000D02*
G75*
G03*
X165595000Y-47945000I-500000J0D01*
G01*
X153595000Y-47945000D02*
X153595000Y-52445000D01*
X153595000Y-52445000D02*
X165595000Y-52445000D01*
X165595000Y-52445000D02*
X165595000Y-47945000D01*
X153595000Y-47945000D02*
G75*
G03*
X152595000Y-47945000I-500000J0D01*
G01*
X152595000Y-45445000D02*
G75*
G03*
X153595000Y-45445000I500000J0D01*
G01*
X152595000Y-45445000D02*
X152595000Y-39445000D01*
X152595000Y-53445000D02*
X152595000Y-47945000D01*
X153595000Y-40445000D02*
X165595000Y-40445000D01*
X153595000Y-45445000D02*
X153595000Y-40445000D01*
X166595000Y-53445000D02*
X152595000Y-53445000D01*
X165595000Y-40445000D02*
X165595000Y-45445000D01*
X152595000Y-39445000D02*
X166595000Y-39445000D01*
X166595000Y-47945000D02*
X166595000Y-53445000D01*
X166595000Y-39445000D02*
X166595000Y-45445000D01*
X146495000Y-47945000D02*
G75*
G03*
X147495000Y-47945000I500000J0D01*
G01*
X147495000Y-50445000D02*
G75*
G03*
X146495000Y-50445000I-500000J0D01*
G01*
X134495000Y-50445000D02*
X134495000Y-54945000D01*
X134495000Y-54945000D02*
X146495000Y-54945000D01*
X146495000Y-54945000D02*
X146495000Y-50445000D01*
X134495000Y-50445000D02*
G75*
G03*
X133495000Y-50445000I-500000J0D01*
G01*
X133495000Y-47945000D02*
G75*
G03*
X134495000Y-47945000I500000J0D01*
G01*
X133495000Y-47945000D02*
X133495000Y-41945000D01*
X133495000Y-55945000D02*
X133495000Y-50445000D01*
X134495000Y-42945000D02*
X146495000Y-42945000D01*
X134495000Y-47945000D02*
X134495000Y-42945000D01*
X147495000Y-55945000D02*
X133495000Y-55945000D01*
X146495000Y-42945000D02*
X146495000Y-47945000D01*
X133495000Y-41945000D02*
X147495000Y-41945000D01*
X147495000Y-50445000D02*
X147495000Y-55945000D01*
X147495000Y-41945000D02*
X147495000Y-47945000D01*
X107267178Y-137407178D02*
X95142822Y-144407178D01*
X100267178Y-125282822D02*
X107267178Y-137407178D01*
X95142822Y-144407178D02*
X88142822Y-132282822D01*
X88142822Y-132282822D02*
X100267178Y-125282822D01*
X108795000Y-111945000D02*
X108795000Y-105945000D01*
D11*
X226278881Y-45442807D02*
X226365281Y-45623672D01*
X93545000Y-147645000D02*
X83295000Y-129845000D01*
X171945000Y-36445000D02*
X225470441Y-44890146D01*
X89270257Y-115845000D02*
X89195000Y-116495000D01*
X94345000Y-148095000D02*
X94895000Y-148195000D01*
X83145000Y-129345000D02*
X83095000Y-128745000D01*
X93895000Y-147945000D02*
X94345000Y-148095000D01*
X225672111Y-44941776D02*
X225856871Y-45026466D01*
X89195000Y-116495000D02*
X88995000Y-117095000D01*
X83095000Y-128745000D02*
X83095000Y-128345000D01*
X93545000Y-147645000D02*
X93895000Y-147945000D01*
X225470441Y-44890146D02*
X225672111Y-44941776D01*
X226419381Y-45819571D02*
X226438181Y-46026902D01*
X83195000Y-127845000D02*
X88995000Y-117095000D01*
X226365281Y-45623672D02*
X226419381Y-45819571D01*
X149995000Y-36445000D02*
X113395000Y-37900000D01*
X139149128Y-135445000D02*
X188495000Y-135445000D01*
X83295000Y-129845000D02*
X83145000Y-129345000D01*
X83095000Y-128345000D02*
X83195000Y-127845000D01*
X139149128Y-135445000D02*
X94895000Y-148195000D01*
X226021621Y-45140600D02*
X226163321Y-45280582D01*
X149995000Y-36445000D02*
X171945000Y-36445000D01*
X226163321Y-45280582D02*
X226278881Y-45442807D01*
X89270257Y-115845000D02*
X89300000Y-98800000D01*
X225856871Y-45026466D02*
X226021621Y-45140600D01*
X225865741Y-139704819D02*
X207105300Y-139704820D01*
X225865741Y-139704819D02*
G75*
G03*
X226439802Y-139135974I5080J568958D01*
G01*
X226438181Y-46026902D02*
X226439802Y-139135974D01*
X207105300Y-139704820D02*
X188495000Y-135445000D01*
D10*
X110021786Y-124895253D02*
X123544747Y-121271786D01*
X127168214Y-134794747D02*
X113645253Y-138418214D01*
X112695000Y-38100000D02*
X112995000Y-38000000D01*
X128495000Y-52945000D02*
G75*
G03*
X127495000Y-52945000I-500000J0D01*
G01*
X127495000Y-50445000D02*
G75*
G03*
X128495000Y-50445000I500000J0D01*
G01*
X90300000Y-97800000D02*
X110995000Y-97800000D01*
X112095000Y-38700000D02*
X112295000Y-38400000D01*
X114495000Y-44445000D02*
X128495000Y-44445000D01*
X111995000Y-39045000D02*
X112095000Y-38700000D01*
X108795000Y-105945000D02*
X108795000Y-99945000D01*
X93195000Y-111945000D02*
X108795000Y-111945000D01*
X112995000Y-38000000D02*
X113395000Y-37900000D01*
X127495000Y-45445000D02*
X127495000Y-50445000D01*
X90300000Y-97800000D02*
G75*
G03*
X89300000Y-98800000I-1J-999999D01*
G01*
X110995000Y-97800000D02*
G75*
G03*
X111995000Y-96800000I1J999999D01*
G01*
X128495000Y-58445000D02*
X114495000Y-58445000D01*
X115495000Y-50445000D02*
X115495000Y-45445000D01*
X93195000Y-99945000D02*
X93195000Y-111945000D01*
X115495000Y-45445000D02*
X127495000Y-45445000D01*
X114495000Y-58445000D02*
X114495000Y-52945000D01*
X114495000Y-50445000D02*
X114495000Y-44445000D01*
X114495000Y-50445000D02*
G75*
G03*
X115495000Y-50445000I500000J0D01*
G01*
X115495000Y-52945000D02*
G75*
G03*
X114495000Y-52945000I-500000J0D01*
G01*
X127495000Y-57445000D02*
X127495000Y-52945000D01*
X113645253Y-138418214D02*
X110021786Y-124895253D01*
X115495000Y-52945000D02*
X115495000Y-57445000D01*
X128495000Y-44445000D02*
X128495000Y-50445000D01*
X128495000Y-52945000D02*
X128495000Y-58445000D01*
X112295000Y-38400000D02*
X112495000Y-38200000D01*
X108795000Y-99945000D02*
X93195000Y-99945000D01*
X111995000Y-96800000D02*
X111995000Y-39045000D01*
X123544747Y-121271786D02*
X127168214Y-134794747D01*
X112495000Y-38200000D02*
X112695000Y-38100000D01*
X115495000Y-57445000D02*
X127495000Y-57445000D01*
M02*
