%FSLAX45Y45*%
G04 Gerber Fmt 4.5, Leading zero omitted, Abs format (unit mm)*
G04 Created by KiCad (PCBNEW (6.0.2-0)) date 2022-03-06 15:41:22*
%MOMM*%
%LPD*%
G01*
G04 APERTURE LIST*
%TA.AperFunction,Profile*%
%ADD10C,0.150000*%
%TD*%
%TA.AperFunction,Profile*%
%ADD11C,0.100000*%
%TD*%
%ADD12C,0.200000*%
G04 APERTURE END LIST*
D10*
X22368600Y-12304900D02*
X22368600Y-12904900D01*
X22368600Y-13704900D02*
X20968600Y-13704900D01*
X22268600Y-12404900D02*
X22268600Y-12904900D01*
X20968600Y-12304900D02*
X22368600Y-12304900D01*
X22368600Y-13154900D02*
X22368600Y-13704900D01*
X21068600Y-13154900D02*
X21068600Y-13604900D01*
X21068600Y-13604900D02*
X22268600Y-13604900D01*
X22268600Y-13604900D02*
X22268600Y-13154900D01*
X21068600Y-13154900D02*
G75*
G03*
X20968600Y-13154900I-50000J0D01*
G01*
X20968600Y-12904900D02*
G75*
G03*
X21068600Y-12904900I50000J0D01*
G01*
X20968600Y-12904900D02*
X20968600Y-12304900D01*
X20968600Y-13704900D02*
X20968600Y-13154900D01*
X21068600Y-12404900D02*
X22268600Y-12404900D01*
X21068600Y-12904900D02*
X21068600Y-12404900D01*
X22268600Y-12904900D02*
G75*
G03*
X22368600Y-12904900I50000J0D01*
G01*
X22368600Y-13154900D02*
G75*
G03*
X22268600Y-13154900I-50000J0D01*
G01*
X16659500Y-11573500D02*
X16659500Y-12173500D01*
X16659500Y-12973500D02*
X15259500Y-12973500D01*
X16559500Y-11673500D02*
X16559500Y-12173500D01*
X15259500Y-11573500D02*
X16659500Y-11573500D01*
X16659500Y-12423500D02*
X16659500Y-12973500D01*
X15359500Y-12423500D02*
X15359500Y-12873500D01*
X15359500Y-12873500D02*
X16559500Y-12873500D01*
X16559500Y-12873500D02*
X16559500Y-12423500D01*
X15359500Y-12423500D02*
G75*
G03*
X15259500Y-12423500I-50000J0D01*
G01*
X15259500Y-12173500D02*
G75*
G03*
X15359500Y-12173500I50000J0D01*
G01*
X15259500Y-12173500D02*
X15259500Y-11573500D01*
X15259500Y-12973500D02*
X15259500Y-12423500D01*
X15359500Y-11673500D02*
X16559500Y-11673500D01*
X15359500Y-12173500D02*
X15359500Y-11673500D01*
X16559500Y-12173500D02*
G75*
G03*
X16659500Y-12173500I50000J0D01*
G01*
X16659500Y-12423500D02*
G75*
G03*
X16559500Y-12423500I-50000J0D01*
G01*
X14749500Y-11814500D02*
X14749500Y-12414500D01*
X14749500Y-13214500D02*
X13349500Y-13214500D01*
X14649500Y-11914500D02*
X14649500Y-12414500D01*
X13349500Y-11814500D02*
X14749500Y-11814500D01*
X14749500Y-12664500D02*
X14749500Y-13214500D01*
X13449500Y-12664500D02*
X13449500Y-13114500D01*
X13449500Y-13114500D02*
X14649500Y-13114500D01*
X14649500Y-13114500D02*
X14649500Y-12664500D01*
X13449500Y-12664500D02*
G75*
G03*
X13349500Y-12664500I-50000J0D01*
G01*
X13349500Y-12414500D02*
G75*
G03*
X13449500Y-12414500I50000J0D01*
G01*
X13349500Y-12414500D02*
X13349500Y-11814500D01*
X13349500Y-13214500D02*
X13349500Y-12664500D01*
X13449500Y-11914500D02*
X14649500Y-11914500D01*
X13449500Y-12414500D02*
X13449500Y-11914500D01*
X14649500Y-12414500D02*
G75*
G03*
X14749500Y-12414500I50000J0D01*
G01*
X14749500Y-12664500D02*
G75*
G03*
X14649500Y-12664500I-50000J0D01*
G01*
X13449500Y-11204500D02*
X14649500Y-11204500D01*
X14649500Y-11204500D02*
X14649500Y-10754500D01*
X13449500Y-10754500D02*
G75*
G03*
X13349500Y-10754500I-50000J0D01*
G01*
X13349500Y-10504500D02*
G75*
G03*
X13449500Y-10504500I50000J0D01*
G01*
X14749500Y-10754500D02*
X14749500Y-11304500D01*
X13449500Y-10004500D02*
X14649500Y-10004500D01*
X13449500Y-10504500D02*
X13449500Y-10004500D01*
X14749500Y-9904500D02*
X14749500Y-10504500D01*
X14749500Y-11304500D02*
X13349500Y-11304500D01*
X14649500Y-10004500D02*
X14649500Y-10504500D01*
X13349500Y-9904500D02*
X14749500Y-9904500D01*
X14649500Y-10504500D02*
G75*
G03*
X14749500Y-10504500I50000J0D01*
G01*
X14749500Y-10754500D02*
G75*
G03*
X14649500Y-10754500I-50000J0D01*
G01*
X13449500Y-10754500D02*
X13449500Y-11204500D01*
X15359500Y-10254500D02*
X15359500Y-9754500D01*
X12749500Y-10754500D02*
G75*
G03*
X12849500Y-10754500I50000J0D01*
G01*
X12849500Y-11004500D02*
G75*
G03*
X12749500Y-11004500I-50000J0D01*
G01*
X20969500Y-10394500D02*
X22369500Y-10394500D01*
X22269500Y-10994500D02*
G75*
G03*
X22369500Y-10994500I50000J0D01*
G01*
X22369500Y-11244500D02*
G75*
G03*
X22269500Y-11244500I-50000J0D01*
G01*
X21069500Y-11244500D02*
X21069500Y-11694500D01*
X21069500Y-11694500D02*
X22269500Y-11694500D01*
X22269500Y-11694500D02*
X22269500Y-11244500D01*
X21069500Y-11244500D02*
G75*
G03*
X20969500Y-11244500I-50000J0D01*
G01*
X20969500Y-10994500D02*
G75*
G03*
X21069500Y-10994500I50000J0D01*
G01*
X20969500Y-10994500D02*
X20969500Y-10394500D01*
X20969500Y-11794500D02*
X20969500Y-11244500D01*
X21069500Y-10494500D02*
X22269500Y-10494500D01*
X21069500Y-10994500D02*
X21069500Y-10494500D01*
X22369500Y-11794500D02*
X20969500Y-11794500D01*
X22269500Y-10494500D02*
X22269500Y-10994500D01*
X16559500Y-9754500D02*
X16559500Y-10254500D01*
X15259500Y-9654500D02*
X16659500Y-9654500D01*
X16659500Y-10504500D02*
X16659500Y-11054500D01*
X16659500Y-11054500D02*
X15259500Y-11054500D01*
X13349500Y-10504500D02*
X13349500Y-9904500D01*
X13349500Y-11304500D02*
X13349500Y-10754500D01*
X22369500Y-10394500D02*
X22369500Y-10994500D01*
X22369500Y-11244500D02*
X22369500Y-11794500D01*
X18559500Y-9908500D02*
X18559500Y-10508500D01*
X17159500Y-9908500D02*
X18559500Y-9908500D01*
X17259500Y-10508500D02*
X17259500Y-10008500D01*
X18559500Y-11308500D02*
X17159500Y-11308500D01*
X18459500Y-10008500D02*
X18459500Y-10508500D01*
X18459500Y-10508500D02*
G75*
G03*
X18559500Y-10508500I50000J0D01*
G01*
X18559500Y-10758500D02*
G75*
G03*
X18459500Y-10758500I-50000J0D01*
G01*
X17259500Y-10758500D02*
X17259500Y-11208500D01*
X17259500Y-11208500D02*
X18459500Y-11208500D01*
X18459500Y-11208500D02*
X18459500Y-10758500D01*
X18559500Y-10758500D02*
X18559500Y-11308500D01*
X17259500Y-10758500D02*
G75*
G03*
X17159500Y-10758500I-50000J0D01*
G01*
X17159500Y-10508500D02*
G75*
G03*
X17259500Y-10508500I50000J0D01*
G01*
X17159500Y-10508500D02*
X17159500Y-9908500D01*
X17159500Y-11308500D02*
X17159500Y-10758500D01*
X17259500Y-10008500D02*
X18459500Y-10008500D01*
X15359500Y-9754500D02*
X16559500Y-9754500D01*
X20469500Y-10394500D02*
X20469500Y-10994500D01*
X16559500Y-10254500D02*
G75*
G03*
X16659500Y-10254500I50000J0D01*
G01*
X16659500Y-10504500D02*
G75*
G03*
X16559500Y-10504500I-50000J0D01*
G01*
X15359500Y-10504500D02*
X15359500Y-10954500D01*
X15359500Y-10954500D02*
X16559500Y-10954500D01*
X16559500Y-10954500D02*
X16559500Y-10504500D01*
X15359500Y-10504500D02*
G75*
G03*
X15259500Y-10504500I-50000J0D01*
G01*
X15259500Y-10254500D02*
G75*
G03*
X15359500Y-10254500I50000J0D01*
G01*
X15259500Y-10254500D02*
X15259500Y-9654500D01*
X15259500Y-11054500D02*
X15259500Y-10504500D01*
X19069500Y-10394500D02*
X20469500Y-10394500D01*
X20469500Y-11244500D02*
X20469500Y-11794500D01*
X16659500Y-9654500D02*
X16659500Y-10254500D01*
X11549500Y-11004500D02*
X11549500Y-11454500D01*
X20369500Y-10994500D02*
G75*
G03*
X20469500Y-10994500I50000J0D01*
G01*
X20469500Y-11244500D02*
G75*
G03*
X20369500Y-11244500I-50000J0D01*
G01*
X19169500Y-11244500D02*
X19169500Y-11694500D01*
X19169500Y-11694500D02*
X20369500Y-11694500D01*
X20369500Y-11694500D02*
X20369500Y-11244500D01*
X19169500Y-11244500D02*
G75*
G03*
X19069500Y-11244500I-50000J0D01*
G01*
X19069500Y-10994500D02*
G75*
G03*
X19169500Y-10994500I50000J0D01*
G01*
X19069500Y-10994500D02*
X19069500Y-10394500D01*
X19069500Y-11794500D02*
X19069500Y-11244500D01*
X19169500Y-10494500D02*
X20369500Y-10494500D01*
X19169500Y-10994500D02*
X19169500Y-10494500D01*
X20469500Y-11794500D02*
X19069500Y-11794500D01*
X20369500Y-10494500D02*
X20369500Y-10994500D01*
X11549500Y-11454500D02*
X12749500Y-11454500D01*
X12749500Y-11454500D02*
X12749500Y-11004500D01*
X11549500Y-11004500D02*
G75*
G03*
X11449500Y-11004500I-50000J0D01*
G01*
X11449500Y-10754500D02*
G75*
G03*
X11549500Y-10754500I50000J0D01*
G01*
X11449500Y-10754500D02*
X11449500Y-10154500D01*
X11449500Y-11554500D02*
X11449500Y-11004500D01*
X11549500Y-10254500D02*
X12749500Y-10254500D01*
X11549500Y-10754500D02*
X11549500Y-10254500D01*
X12849500Y-11554500D02*
X11449500Y-11554500D01*
X12749500Y-10254500D02*
X12749500Y-10754500D01*
X11449500Y-10154500D02*
X12849500Y-10154500D01*
X12849500Y-11004500D02*
X12849500Y-11554500D01*
X12849500Y-10154500D02*
X12849500Y-10754500D01*
X13449500Y-9304500D02*
X14649500Y-9304500D01*
X14649500Y-9304500D02*
X14649500Y-8854500D01*
X13449500Y-8854500D02*
G75*
G03*
X13349500Y-8854500I-50000J0D01*
G01*
X13349500Y-8604500D02*
G75*
G03*
X13449500Y-8604500I50000J0D01*
G01*
X14749500Y-8854500D02*
X14749500Y-9404500D01*
X13449500Y-8104500D02*
X14649500Y-8104500D01*
X13449500Y-8604500D02*
X13449500Y-8104500D01*
X14749500Y-8004500D02*
X14749500Y-8604500D01*
X14749500Y-9404500D02*
X13349500Y-9404500D01*
X14649500Y-8104500D02*
X14649500Y-8604500D01*
X13349500Y-8004500D02*
X14749500Y-8004500D01*
X14649500Y-8604500D02*
G75*
G03*
X14749500Y-8604500I50000J0D01*
G01*
X14749500Y-8854500D02*
G75*
G03*
X14649500Y-8854500I-50000J0D01*
G01*
X13449500Y-8854500D02*
X13449500Y-9304500D01*
X15359500Y-8354500D02*
X15359500Y-7854500D01*
X12749500Y-8854500D02*
G75*
G03*
X12849500Y-8854500I50000J0D01*
G01*
X12849500Y-9104500D02*
G75*
G03*
X12749500Y-9104500I-50000J0D01*
G01*
X20969500Y-8494500D02*
X22369500Y-8494500D01*
X22269500Y-9094500D02*
G75*
G03*
X22369500Y-9094500I50000J0D01*
G01*
X22369500Y-9344500D02*
G75*
G03*
X22269500Y-9344500I-50000J0D01*
G01*
X21069500Y-9344500D02*
X21069500Y-9794500D01*
X21069500Y-9794500D02*
X22269500Y-9794500D01*
X22269500Y-9794500D02*
X22269500Y-9344500D01*
X21069500Y-9344500D02*
G75*
G03*
X20969500Y-9344500I-50000J0D01*
G01*
X20969500Y-9094500D02*
G75*
G03*
X21069500Y-9094500I50000J0D01*
G01*
X20969500Y-9094500D02*
X20969500Y-8494500D01*
X20969500Y-9894500D02*
X20969500Y-9344500D01*
X21069500Y-8594500D02*
X22269500Y-8594500D01*
X21069500Y-9094500D02*
X21069500Y-8594500D01*
X22369500Y-9894500D02*
X20969500Y-9894500D01*
X22269500Y-8594500D02*
X22269500Y-9094500D01*
X16559500Y-7854500D02*
X16559500Y-8354500D01*
X15259500Y-7754500D02*
X16659500Y-7754500D01*
X16659500Y-8604500D02*
X16659500Y-9154500D01*
X16659500Y-9154500D02*
X15259500Y-9154500D01*
X13349500Y-8604500D02*
X13349500Y-8004500D01*
X13349500Y-9404500D02*
X13349500Y-8854500D01*
X22369500Y-8494500D02*
X22369500Y-9094500D01*
X22369500Y-9344500D02*
X22369500Y-9894500D01*
X18559500Y-8008500D02*
X18559500Y-8608500D01*
X17159500Y-8008500D02*
X18559500Y-8008500D01*
X17259500Y-8608500D02*
X17259500Y-8108500D01*
X18559500Y-9408500D02*
X17159500Y-9408500D01*
X18459500Y-8108500D02*
X18459500Y-8608500D01*
X18459500Y-8608500D02*
G75*
G03*
X18559500Y-8608500I50000J0D01*
G01*
X18559500Y-8858500D02*
G75*
G03*
X18459500Y-8858500I-50000J0D01*
G01*
X17259500Y-8858500D02*
X17259500Y-9308500D01*
X17259500Y-9308500D02*
X18459500Y-9308500D01*
X18459500Y-9308500D02*
X18459500Y-8858500D01*
X18559500Y-8858500D02*
X18559500Y-9408500D01*
X17259500Y-8858500D02*
G75*
G03*
X17159500Y-8858500I-50000J0D01*
G01*
X17159500Y-8608500D02*
G75*
G03*
X17259500Y-8608500I50000J0D01*
G01*
X17159500Y-8608500D02*
X17159500Y-8008500D01*
X17159500Y-9408500D02*
X17159500Y-8858500D01*
X17259500Y-8108500D02*
X18459500Y-8108500D01*
X15359500Y-7854500D02*
X16559500Y-7854500D01*
X20469500Y-8494500D02*
X20469500Y-9094500D01*
X16559500Y-8354500D02*
G75*
G03*
X16659500Y-8354500I50000J0D01*
G01*
X16659500Y-8604500D02*
G75*
G03*
X16559500Y-8604500I-50000J0D01*
G01*
X15359500Y-8604500D02*
X15359500Y-9054500D01*
X15359500Y-9054500D02*
X16559500Y-9054500D01*
X16559500Y-9054500D02*
X16559500Y-8604500D01*
X15359500Y-8604500D02*
G75*
G03*
X15259500Y-8604500I-50000J0D01*
G01*
X15259500Y-8354500D02*
G75*
G03*
X15359500Y-8354500I50000J0D01*
G01*
X15259500Y-8354500D02*
X15259500Y-7754500D01*
X15259500Y-9154500D02*
X15259500Y-8604500D01*
X19069500Y-8494500D02*
X20469500Y-8494500D01*
X20469500Y-9344500D02*
X20469500Y-9894500D01*
X16659500Y-7754500D02*
X16659500Y-8354500D01*
X11549500Y-9104500D02*
X11549500Y-9554500D01*
X20369500Y-9094500D02*
G75*
G03*
X20469500Y-9094500I50000J0D01*
G01*
X20469500Y-9344500D02*
G75*
G03*
X20369500Y-9344500I-50000J0D01*
G01*
X19169500Y-9344500D02*
X19169500Y-9794500D01*
X19169500Y-9794500D02*
X20369500Y-9794500D01*
X20369500Y-9794500D02*
X20369500Y-9344500D01*
X19169500Y-9344500D02*
G75*
G03*
X19069500Y-9344500I-50000J0D01*
G01*
X19069500Y-9094500D02*
G75*
G03*
X19169500Y-9094500I50000J0D01*
G01*
X19069500Y-9094500D02*
X19069500Y-8494500D01*
X19069500Y-9894500D02*
X19069500Y-9344500D01*
X19169500Y-8594500D02*
X20369500Y-8594500D01*
X19169500Y-9094500D02*
X19169500Y-8594500D01*
X20469500Y-9894500D02*
X19069500Y-9894500D01*
X20369500Y-8594500D02*
X20369500Y-9094500D01*
X11549500Y-9554500D02*
X12749500Y-9554500D01*
X12749500Y-9554500D02*
X12749500Y-9104500D01*
X11549500Y-9104500D02*
G75*
G03*
X11449500Y-9104500I-50000J0D01*
G01*
X11449500Y-8854500D02*
G75*
G03*
X11549500Y-8854500I50000J0D01*
G01*
X11449500Y-8854500D02*
X11449500Y-8254500D01*
X11449500Y-9654500D02*
X11449500Y-9104500D01*
X11549500Y-8354500D02*
X12749500Y-8354500D01*
X11549500Y-8854500D02*
X11549500Y-8354500D01*
X12849500Y-9654500D02*
X11449500Y-9654500D01*
X12749500Y-8354500D02*
X12749500Y-8854500D01*
X11449500Y-8254500D02*
X12849500Y-8254500D01*
X12849500Y-9104500D02*
X12849500Y-9654500D01*
X12849500Y-8254500D02*
X12849500Y-8854500D01*
X13449500Y-7404500D02*
X14649500Y-7404500D01*
X14649500Y-7404500D02*
X14649500Y-6954500D01*
X13449500Y-6954500D02*
G75*
G03*
X13349500Y-6954500I-50000J0D01*
G01*
X13349500Y-6704500D02*
G75*
G03*
X13449500Y-6704500I50000J0D01*
G01*
X14749500Y-6954500D02*
X14749500Y-7504500D01*
X13449500Y-6204500D02*
X14649500Y-6204500D01*
X13449500Y-6704500D02*
X13449500Y-6204500D01*
X14749500Y-6104500D02*
X14749500Y-6704500D01*
X14749500Y-7504500D02*
X13349500Y-7504500D01*
X14649500Y-6204500D02*
X14649500Y-6704500D01*
X13349500Y-6104500D02*
X14749500Y-6104500D01*
X14649500Y-6704500D02*
G75*
G03*
X14749500Y-6704500I50000J0D01*
G01*
X14749500Y-6954500D02*
G75*
G03*
X14649500Y-6954500I-50000J0D01*
G01*
X13449500Y-6954500D02*
X13449500Y-7404500D01*
X15359500Y-6454500D02*
X15359500Y-5954500D01*
X12749500Y-6954500D02*
G75*
G03*
X12849500Y-6954500I50000J0D01*
G01*
X12849500Y-7204500D02*
G75*
G03*
X12749500Y-7204500I-50000J0D01*
G01*
X20969500Y-6594500D02*
X22369500Y-6594500D01*
X22269500Y-7194500D02*
G75*
G03*
X22369500Y-7194500I50000J0D01*
G01*
X22369500Y-7444500D02*
G75*
G03*
X22269500Y-7444500I-50000J0D01*
G01*
X21069500Y-7444500D02*
X21069500Y-7894500D01*
X21069500Y-7894500D02*
X22269500Y-7894500D01*
X22269500Y-7894500D02*
X22269500Y-7444500D01*
X21069500Y-7444500D02*
G75*
G03*
X20969500Y-7444500I-50000J0D01*
G01*
X20969500Y-7194500D02*
G75*
G03*
X21069500Y-7194500I50000J0D01*
G01*
X20969500Y-7194500D02*
X20969500Y-6594500D01*
X20969500Y-7994500D02*
X20969500Y-7444500D01*
X21069500Y-6694500D02*
X22269500Y-6694500D01*
X21069500Y-7194500D02*
X21069500Y-6694500D01*
X22369500Y-7994500D02*
X20969500Y-7994500D01*
X22269500Y-6694500D02*
X22269500Y-7194500D01*
X16559500Y-5954500D02*
X16559500Y-6454500D01*
X15259500Y-5854500D02*
X16659500Y-5854500D01*
X16659500Y-6704500D02*
X16659500Y-7254500D01*
X16659500Y-7254500D02*
X15259500Y-7254500D01*
X13349500Y-6704500D02*
X13349500Y-6104500D01*
X13349500Y-7504500D02*
X13349500Y-6954500D01*
X22369500Y-6594500D02*
X22369500Y-7194500D01*
X22369500Y-7444500D02*
X22369500Y-7994500D01*
X18559500Y-6108500D02*
X18559500Y-6708500D01*
X17159500Y-6108500D02*
X18559500Y-6108500D01*
X17259500Y-6708500D02*
X17259500Y-6208500D01*
X18559500Y-7508500D02*
X17159500Y-7508500D01*
X18459500Y-6208500D02*
X18459500Y-6708500D01*
X18459500Y-6708500D02*
G75*
G03*
X18559500Y-6708500I50000J0D01*
G01*
X18559500Y-6958500D02*
G75*
G03*
X18459500Y-6958500I-50000J0D01*
G01*
X17259500Y-6958500D02*
X17259500Y-7408500D01*
X17259500Y-7408500D02*
X18459500Y-7408500D01*
X18459500Y-7408500D02*
X18459500Y-6958500D01*
X18559500Y-6958500D02*
X18559500Y-7508500D01*
X17259500Y-6958500D02*
G75*
G03*
X17159500Y-6958500I-50000J0D01*
G01*
X17159500Y-6708500D02*
G75*
G03*
X17259500Y-6708500I50000J0D01*
G01*
X17159500Y-6708500D02*
X17159500Y-6108500D01*
X17159500Y-7508500D02*
X17159500Y-6958500D01*
X17259500Y-6208500D02*
X18459500Y-6208500D01*
X15359500Y-5954500D02*
X16559500Y-5954500D01*
X20469500Y-6594500D02*
X20469500Y-7194500D01*
X16559500Y-6454500D02*
G75*
G03*
X16659500Y-6454500I50000J0D01*
G01*
X16659500Y-6704500D02*
G75*
G03*
X16559500Y-6704500I-50000J0D01*
G01*
X15359500Y-6704500D02*
X15359500Y-7154500D01*
X15359500Y-7154500D02*
X16559500Y-7154500D01*
X16559500Y-7154500D02*
X16559500Y-6704500D01*
X15359500Y-6704500D02*
G75*
G03*
X15259500Y-6704500I-50000J0D01*
G01*
X15259500Y-6454500D02*
G75*
G03*
X15359500Y-6454500I50000J0D01*
G01*
X15259500Y-6454500D02*
X15259500Y-5854500D01*
X15259500Y-7254500D02*
X15259500Y-6704500D01*
X19069500Y-6594500D02*
X20469500Y-6594500D01*
X20469500Y-7444500D02*
X20469500Y-7994500D01*
X16659500Y-5854500D02*
X16659500Y-6454500D01*
X11549500Y-7204500D02*
X11549500Y-7654500D01*
X20369500Y-7194500D02*
G75*
G03*
X20469500Y-7194500I50000J0D01*
G01*
X20469500Y-7444500D02*
G75*
G03*
X20369500Y-7444500I-50000J0D01*
G01*
X19169500Y-7444500D02*
X19169500Y-7894500D01*
X19169500Y-7894500D02*
X20369500Y-7894500D01*
X20369500Y-7894500D02*
X20369500Y-7444500D01*
X19169500Y-7444500D02*
G75*
G03*
X19069500Y-7444500I-50000J0D01*
G01*
X19069500Y-7194500D02*
G75*
G03*
X19169500Y-7194500I50000J0D01*
G01*
X19069500Y-7194500D02*
X19069500Y-6594500D01*
X19069500Y-7994500D02*
X19069500Y-7444500D01*
X19169500Y-6694500D02*
X20369500Y-6694500D01*
X19169500Y-7194500D02*
X19169500Y-6694500D01*
X20469500Y-7994500D02*
X19069500Y-7994500D01*
X20369500Y-6694500D02*
X20369500Y-7194500D01*
X11549500Y-7654500D02*
X12749500Y-7654500D01*
X12749500Y-7654500D02*
X12749500Y-7204500D01*
X11549500Y-7204500D02*
G75*
G03*
X11449500Y-7204500I-50000J0D01*
G01*
X11449500Y-6954500D02*
G75*
G03*
X11549500Y-6954500I50000J0D01*
G01*
X11449500Y-6954500D02*
X11449500Y-6354500D01*
X11449500Y-7754500D02*
X11449500Y-7204500D01*
X11549500Y-6454500D02*
X12749500Y-6454500D01*
X11549500Y-6954500D02*
X11549500Y-6454500D01*
X12849500Y-7754500D02*
X11449500Y-7754500D01*
X12749500Y-6454500D02*
X12749500Y-6954500D01*
X11449500Y-6354500D02*
X12849500Y-6354500D01*
X12849500Y-7204500D02*
X12849500Y-7754500D01*
X12849500Y-6354500D02*
X12849500Y-6954500D01*
X22269500Y-5284500D02*
G75*
G03*
X22369500Y-5284500I50000J0D01*
G01*
X22369500Y-5534500D02*
G75*
G03*
X22269500Y-5534500I-50000J0D01*
G01*
X21069500Y-5534500D02*
X21069500Y-5984500D01*
X21069500Y-5984500D02*
X22269500Y-5984500D01*
X22269500Y-5984500D02*
X22269500Y-5534500D01*
X21069500Y-5534500D02*
G75*
G03*
X20969500Y-5534500I-50000J0D01*
G01*
X20969500Y-5284500D02*
G75*
G03*
X21069500Y-5284500I50000J0D01*
G01*
X20969500Y-5284500D02*
X20969500Y-4684500D01*
X20969500Y-6084500D02*
X20969500Y-5534500D01*
X21069500Y-4784500D02*
X22269500Y-4784500D01*
X21069500Y-5284500D02*
X21069500Y-4784500D01*
X22369500Y-6084500D02*
X20969500Y-6084500D01*
X22269500Y-4784500D02*
X22269500Y-5284500D01*
X20969500Y-4684500D02*
X22369500Y-4684500D01*
X22369500Y-5534500D02*
X22369500Y-6084500D01*
X22369500Y-4684500D02*
X22369500Y-5284500D01*
X20369500Y-5284500D02*
G75*
G03*
X20469500Y-5284500I50000J0D01*
G01*
X20469500Y-5534500D02*
G75*
G03*
X20369500Y-5534500I-50000J0D01*
G01*
X19169500Y-5534500D02*
X19169500Y-5984500D01*
X19169500Y-5984500D02*
X20369500Y-5984500D01*
X20369500Y-5984500D02*
X20369500Y-5534500D01*
X19169500Y-5534500D02*
G75*
G03*
X19069500Y-5534500I-50000J0D01*
G01*
X19069500Y-5284500D02*
G75*
G03*
X19169500Y-5284500I50000J0D01*
G01*
X19069500Y-5284500D02*
X19069500Y-4684500D01*
X19069500Y-6084500D02*
X19069500Y-5534500D01*
X19169500Y-4784500D02*
X20369500Y-4784500D01*
X19169500Y-5284500D02*
X19169500Y-4784500D01*
X20469500Y-6084500D02*
X19069500Y-6084500D01*
X20369500Y-4784500D02*
X20369500Y-5284500D01*
X19069500Y-4684500D02*
X20469500Y-4684500D01*
X20469500Y-5534500D02*
X20469500Y-6084500D01*
X20469500Y-4684500D02*
X20469500Y-5284500D01*
X18459500Y-4798500D02*
G75*
G03*
X18559500Y-4798500I50000J0D01*
G01*
X18559500Y-5048500D02*
G75*
G03*
X18459500Y-5048500I-50000J0D01*
G01*
X17259500Y-5048500D02*
X17259500Y-5498500D01*
X17259500Y-5498500D02*
X18459500Y-5498500D01*
X18459500Y-5498500D02*
X18459500Y-5048500D01*
X17259500Y-5048500D02*
G75*
G03*
X17159500Y-5048500I-50000J0D01*
G01*
X17159500Y-4798500D02*
G75*
G03*
X17259500Y-4798500I50000J0D01*
G01*
X17159500Y-4798500D02*
X17159500Y-4198500D01*
X17159500Y-5598500D02*
X17159500Y-5048500D01*
X17259500Y-4298500D02*
X18459500Y-4298500D01*
X17259500Y-4798500D02*
X17259500Y-4298500D01*
X18559500Y-5598500D02*
X17159500Y-5598500D01*
X18459500Y-4298500D02*
X18459500Y-4798500D01*
X17159500Y-4198500D02*
X18559500Y-4198500D01*
X18559500Y-5048500D02*
X18559500Y-5598500D01*
X18559500Y-4198500D02*
X18559500Y-4798500D01*
X16559500Y-4544500D02*
G75*
G03*
X16659500Y-4544500I50000J0D01*
G01*
X16659500Y-4794500D02*
G75*
G03*
X16559500Y-4794500I-50000J0D01*
G01*
X15359500Y-4794500D02*
X15359500Y-5244500D01*
X15359500Y-5244500D02*
X16559500Y-5244500D01*
X16559500Y-5244500D02*
X16559500Y-4794500D01*
X15359500Y-4794500D02*
G75*
G03*
X15259500Y-4794500I-50000J0D01*
G01*
X15259500Y-4544500D02*
G75*
G03*
X15359500Y-4544500I50000J0D01*
G01*
X15259500Y-4544500D02*
X15259500Y-3944500D01*
X15259500Y-5344500D02*
X15259500Y-4794500D01*
X15359500Y-4044500D02*
X16559500Y-4044500D01*
X15359500Y-4544500D02*
X15359500Y-4044500D01*
X16659500Y-5344500D02*
X15259500Y-5344500D01*
X16559500Y-4044500D02*
X16559500Y-4544500D01*
X15259500Y-3944500D02*
X16659500Y-3944500D01*
X16659500Y-4794500D02*
X16659500Y-5344500D01*
X16659500Y-3944500D02*
X16659500Y-4544500D01*
X14649500Y-4794500D02*
G75*
G03*
X14749500Y-4794500I50000J0D01*
G01*
X14749500Y-5044500D02*
G75*
G03*
X14649500Y-5044500I-50000J0D01*
G01*
X13449500Y-5044500D02*
X13449500Y-5494500D01*
X13449500Y-5494500D02*
X14649500Y-5494500D01*
X14649500Y-5494500D02*
X14649500Y-5044500D01*
X13449500Y-5044500D02*
G75*
G03*
X13349500Y-5044500I-50000J0D01*
G01*
X13349500Y-4794500D02*
G75*
G03*
X13449500Y-4794500I50000J0D01*
G01*
X13349500Y-4794500D02*
X13349500Y-4194500D01*
X13349500Y-5594500D02*
X13349500Y-5044500D01*
X13449500Y-4294500D02*
X14649500Y-4294500D01*
X13449500Y-4794500D02*
X13449500Y-4294500D01*
X14749500Y-5594500D02*
X13349500Y-5594500D01*
X14649500Y-4294500D02*
X14649500Y-4794500D01*
X13349500Y-4194500D02*
X14749500Y-4194500D01*
X14749500Y-5044500D02*
X14749500Y-5594500D01*
X14749500Y-4194500D02*
X14749500Y-4794500D01*
X10726718Y-13740718D02*
X9514282Y-14440718D01*
X10026718Y-12528282D02*
X10726718Y-13740718D01*
X9514282Y-14440718D02*
X8814282Y-13228282D01*
X8814282Y-13228282D02*
X10026718Y-12528282D01*
X10879500Y-11194500D02*
X10879500Y-10594500D01*
D11*
X22627888Y-4544281D02*
X22636528Y-4562367D01*
X9354500Y-14764500D02*
X8329500Y-12984500D01*
X17194500Y-3644500D02*
X22547044Y-4489015D01*
X8927026Y-11584500D02*
X8919500Y-11649500D01*
X9434500Y-14809500D02*
X9489500Y-14819500D01*
X8314500Y-12934500D02*
X8309500Y-12874500D01*
X9389500Y-14794500D02*
X9434500Y-14809500D01*
X22567211Y-4494178D02*
X22585687Y-4502647D01*
X8919500Y-11649500D02*
X8899500Y-11709500D01*
X8309500Y-12874500D02*
X8309500Y-12834500D01*
X9354500Y-14764500D02*
X9389500Y-14794500D01*
X22547044Y-4489015D02*
X22567211Y-4494178D01*
X22641938Y-4581957D02*
X22643818Y-4602690D01*
X8319500Y-12784500D02*
X8899500Y-11709500D01*
X22636528Y-4562367D02*
X22641938Y-4581957D01*
X14999500Y-3644500D02*
X11339500Y-3790000D01*
X13914913Y-13544500D02*
X18849500Y-13544500D01*
X8329500Y-12984500D02*
X8314500Y-12934500D01*
X8309500Y-12834500D02*
X8319500Y-12784500D01*
X13914913Y-13544500D02*
X9489500Y-14819500D01*
X22602162Y-4514060D02*
X22616332Y-4528058D01*
X14999500Y-3644500D02*
X17194500Y-3644500D01*
X22616332Y-4528058D02*
X22627888Y-4544281D01*
X8927026Y-11584500D02*
X8930000Y-9880000D01*
X22585687Y-4502647D02*
X22602162Y-4514060D01*
X22586574Y-13970482D02*
X20710530Y-13970482D01*
X22586574Y-13970482D02*
G75*
G03*
X22643980Y-13913597I508J56896D01*
G01*
X22643818Y-4602690D02*
X22643980Y-13913597D01*
X20710530Y-13970482D02*
X18849500Y-13544500D01*
D10*
X11002179Y-12489525D02*
X12354475Y-12127179D01*
X12716821Y-13479475D02*
X11364525Y-13841821D01*
X11269500Y-3810000D02*
X11299500Y-3800000D01*
X12849500Y-5294500D02*
G75*
G03*
X12749500Y-5294500I-50000J0D01*
G01*
X12749500Y-5044500D02*
G75*
G03*
X12849500Y-5044500I50000J0D01*
G01*
X9030000Y-9780000D02*
X11099500Y-9780000D01*
X11209500Y-3870000D02*
X11229500Y-3840000D01*
X11449500Y-4444500D02*
X12849500Y-4444500D01*
X11199500Y-3904500D02*
X11209500Y-3870000D01*
X10879500Y-10594500D02*
X10879500Y-9994500D01*
X9319500Y-11194500D02*
X10879500Y-11194500D01*
X11299500Y-3800000D02*
X11339500Y-3790000D01*
X12749500Y-4544500D02*
X12749500Y-5044500D01*
X9030000Y-9780000D02*
G75*
G03*
X8930000Y-9880000I0J-100000D01*
G01*
X11099500Y-9780000D02*
G75*
G03*
X11199500Y-9680000I0J100000D01*
G01*
X12849500Y-5844500D02*
X11449500Y-5844500D01*
X11549500Y-5044500D02*
X11549500Y-4544500D01*
X9319500Y-9994500D02*
X9319500Y-11194500D01*
X11549500Y-4544500D02*
X12749500Y-4544500D01*
X11449500Y-5844500D02*
X11449500Y-5294500D01*
X11449500Y-5044500D02*
X11449500Y-4444500D01*
X11449500Y-5044500D02*
G75*
G03*
X11549500Y-5044500I50000J0D01*
G01*
X11549500Y-5294500D02*
G75*
G03*
X11449500Y-5294500I-50000J0D01*
G01*
X12749500Y-5744500D02*
X12749500Y-5294500D01*
X11364525Y-13841821D02*
X11002179Y-12489525D01*
X11549500Y-5294500D02*
X11549500Y-5744500D01*
X12849500Y-4444500D02*
X12849500Y-5044500D01*
X12849500Y-5294500D02*
X12849500Y-5844500D01*
X11229500Y-3840000D02*
X11249500Y-3820000D01*
X10879500Y-9994500D02*
X9319500Y-9994500D01*
X11199500Y-9680000D02*
X11199500Y-3904500D01*
X12354475Y-12127179D02*
X12716821Y-13479475D01*
X11249500Y-3820000D02*
X11269500Y-3810000D01*
X11549500Y-5744500D02*
X12749500Y-5744500D01*
D12*
X8562119Y-15134976D02*
X8562119Y-14934976D01*
X8609738Y-14934976D01*
X8638310Y-14944500D01*
X8657357Y-14963548D01*
X8666881Y-14982595D01*
X8676405Y-15020690D01*
X8676405Y-15049262D01*
X8666881Y-15087357D01*
X8657357Y-15106405D01*
X8638310Y-15125452D01*
X8609738Y-15134976D01*
X8562119Y-15134976D01*
X8762119Y-15134976D02*
X8762119Y-15001643D01*
X8762119Y-15039738D02*
X8771643Y-15020690D01*
X8781167Y-15011167D01*
X8800214Y-15001643D01*
X8819262Y-15001643D01*
X8885929Y-15134976D02*
X8885929Y-15001643D01*
X8885929Y-14934976D02*
X8876405Y-14944500D01*
X8885929Y-14954024D01*
X8895452Y-14944500D01*
X8885929Y-14934976D01*
X8885929Y-14954024D01*
X9009738Y-15134976D02*
X8990690Y-15125452D01*
X8981167Y-15106405D01*
X8981167Y-14934976D01*
X9114500Y-15134976D02*
X9095452Y-15125452D01*
X9085929Y-15106405D01*
X9085929Y-14934976D01*
X9343071Y-15134976D02*
X9343071Y-14934976D01*
X9409738Y-15077833D01*
X9476405Y-14934976D01*
X9476405Y-15134976D01*
X9657357Y-15134976D02*
X9657357Y-15030214D01*
X9647833Y-15011167D01*
X9628786Y-15001643D01*
X9590690Y-15001643D01*
X9571643Y-15011167D01*
X9657357Y-15125452D02*
X9638310Y-15134976D01*
X9590690Y-15134976D01*
X9571643Y-15125452D01*
X9562119Y-15106405D01*
X9562119Y-15087357D01*
X9571643Y-15068309D01*
X9590690Y-15058786D01*
X9638310Y-15058786D01*
X9657357Y-15049262D01*
X9752595Y-15001643D02*
X9752595Y-15201643D01*
X9752595Y-15011167D02*
X9771643Y-15001643D01*
X9809738Y-15001643D01*
X9828786Y-15011167D01*
X9838310Y-15020690D01*
X9847833Y-15039738D01*
X9847833Y-15096881D01*
X9838310Y-15115928D01*
X9828786Y-15125452D01*
X9809738Y-15134976D01*
X9771643Y-15134976D01*
X9752595Y-15125452D01*
X9933548Y-15115928D02*
X9943071Y-15125452D01*
X9933548Y-15134976D01*
X9924024Y-15125452D01*
X9933548Y-15115928D01*
X9933548Y-15134976D01*
X9933548Y-15011167D02*
X9943071Y-15020690D01*
X9933548Y-15030214D01*
X9924024Y-15020690D01*
X9933548Y-15011167D01*
X9933548Y-15030214D01*
M02*
