G04 #@! TF.GenerationSoftware,KiCad,Pcbnew,(6.0.2-0)*
G04 #@! TF.CreationDate,2022-03-06T15:41:21+00:00*
G04 #@! TF.ProjectId,SofleKeyboardTopPlate,536f666c-654b-4657-9962-6f617264546f,rev?*
G04 #@! TF.SameCoordinates,Original*
G04 #@! TF.FileFunction,Soldermask,Bot*
G04 #@! TF.FilePolarity,Negative*
%FSLAX46Y46*%
G04 Gerber Fmt 4.6, Leading zero omitted, Abs format (unit mm)*
G04 Created by KiCad (PCBNEW (6.0.2-0)) date 2022-03-06 15:41:21*
%MOMM*%
%LPD*%
G01*
G04 APERTURE LIST*
%ADD10C,0.010000*%
%ADD11C,5.100000*%
G04 APERTURE END LIST*
D10*
X94893682Y-115454032D02*
X94865434Y-115498878D01*
X94865434Y-115498878D02*
X94834394Y-115568368D01*
X94834394Y-115568368D02*
X94820722Y-115603363D01*
X94820722Y-115603363D02*
X94798156Y-115659544D01*
X94798156Y-115659544D02*
X94777259Y-115705842D01*
X94777259Y-115705842D02*
X94760261Y-115737691D01*
X94760261Y-115737691D02*
X94749388Y-115750526D01*
X94749388Y-115750526D02*
X94748875Y-115750595D01*
X94748875Y-115750595D02*
X94737487Y-115762147D01*
X94737487Y-115762147D02*
X94733008Y-115793160D01*
X94733008Y-115793160D02*
X94733000Y-115794792D01*
X94733000Y-115794792D02*
X94728003Y-115836612D01*
X94728003Y-115836612D02*
X94715730Y-115881809D01*
X94715730Y-115881809D02*
X94713292Y-115888243D01*
X94713292Y-115888243D02*
X94704920Y-115912436D01*
X94704920Y-115912436D02*
X94700574Y-115937074D01*
X94700574Y-115937074D02*
X94700222Y-115968171D01*
X94700222Y-115968171D02*
X94703835Y-116011743D01*
X94703835Y-116011743D02*
X94711384Y-116073805D01*
X94711384Y-116073805D02*
X94712342Y-116081171D01*
X94712342Y-116081171D02*
X94731102Y-116224841D01*
X94731102Y-116224841D02*
X94590128Y-116409995D01*
X94590128Y-116409995D02*
X94545145Y-116469074D01*
X94545145Y-116469074D02*
X94505675Y-116520909D01*
X94505675Y-116520909D02*
X94474213Y-116562224D01*
X94474213Y-116562224D02*
X94453252Y-116589744D01*
X94453252Y-116589744D02*
X94445326Y-116600143D01*
X94445326Y-116600143D02*
X94431296Y-116600137D01*
X94431296Y-116600137D02*
X94399396Y-116593278D01*
X94399396Y-116593278D02*
X94355616Y-116581427D01*
X94355616Y-116581427D02*
X94305942Y-116566447D01*
X94305942Y-116566447D02*
X94256363Y-116550200D01*
X94256363Y-116550200D02*
X94212868Y-116534549D01*
X94212868Y-116534549D02*
X94181444Y-116521356D01*
X94181444Y-116521356D02*
X94169624Y-116514398D01*
X94169624Y-116514398D02*
X94148898Y-116488792D01*
X94148898Y-116488792D02*
X94124151Y-116447920D01*
X94124151Y-116447920D02*
X94099154Y-116399484D01*
X94099154Y-116399484D02*
X94077676Y-116351187D01*
X94077676Y-116351187D02*
X94063489Y-116310730D01*
X94063489Y-116310730D02*
X94059900Y-116290268D01*
X94059900Y-116290268D02*
X94051739Y-116261887D01*
X94051739Y-116261887D02*
X94032361Y-116248151D01*
X94032361Y-116248151D02*
X94009426Y-116253704D01*
X94009426Y-116253704D02*
X94005390Y-116257230D01*
X94005390Y-116257230D02*
X93997289Y-116275419D01*
X93997289Y-116275419D02*
X94006244Y-116296844D01*
X94006244Y-116296844D02*
X94015510Y-116324125D01*
X94015510Y-116324125D02*
X94021078Y-116364532D01*
X94021078Y-116364532D02*
X94021800Y-116384571D01*
X94021800Y-116384571D02*
X94018054Y-116428386D01*
X94018054Y-116428386D02*
X94005299Y-116452353D01*
X94005299Y-116452353D02*
X93981268Y-116456956D01*
X93981268Y-116456956D02*
X93943689Y-116442678D01*
X93943689Y-116442678D02*
X93893155Y-116411918D01*
X93893155Y-116411918D02*
X93848450Y-116382694D01*
X93848450Y-116382694D02*
X93819994Y-116366692D01*
X93819994Y-116366692D02*
X93803243Y-116362548D01*
X93803243Y-116362548D02*
X93793653Y-116368898D01*
X93793653Y-116368898D02*
X93788168Y-116380396D01*
X93788168Y-116380396D02*
X93786387Y-116408223D01*
X93786387Y-116408223D02*
X93805657Y-116422436D01*
X93805657Y-116422436D02*
X93818283Y-116423700D01*
X93818283Y-116423700D02*
X93840777Y-116433822D01*
X93840777Y-116433822D02*
X93868193Y-116459034D01*
X93868193Y-116459034D02*
X93894304Y-116491604D01*
X93894304Y-116491604D02*
X93912882Y-116523800D01*
X93912882Y-116523800D02*
X93917828Y-116547289D01*
X93917828Y-116547289D02*
X93904425Y-116565955D01*
X93904425Y-116565955D02*
X93876210Y-116586072D01*
X93876210Y-116586072D02*
X93841608Y-116603490D01*
X93841608Y-116603490D02*
X93809045Y-116614061D01*
X93809045Y-116614061D02*
X93786945Y-116613635D01*
X93786945Y-116613635D02*
X93785285Y-116612560D01*
X93785285Y-116612560D02*
X93763412Y-116606743D01*
X93763412Y-116606743D02*
X93740731Y-116614223D01*
X93740731Y-116614223D02*
X93729903Y-116630685D01*
X93729903Y-116630685D02*
X93729895Y-116631433D01*
X93729895Y-116631433D02*
X93738263Y-116661269D01*
X93738263Y-116661269D02*
X93759293Y-116671722D01*
X93759293Y-116671722D02*
X93778050Y-116666311D01*
X93778050Y-116666311D02*
X93810059Y-116656136D01*
X93810059Y-116656136D02*
X93850843Y-116651960D01*
X93850843Y-116651960D02*
X93891957Y-116653474D01*
X93891957Y-116653474D02*
X93924955Y-116660373D01*
X93924955Y-116660373D02*
X93941352Y-116672245D01*
X93941352Y-116672245D02*
X93937176Y-116691525D01*
X93937176Y-116691525D02*
X93919006Y-116719735D01*
X93919006Y-116719735D02*
X93892855Y-116750156D01*
X93892855Y-116750156D02*
X93864735Y-116776069D01*
X93864735Y-116776069D02*
X93840659Y-116790755D01*
X93840659Y-116790755D02*
X93834190Y-116792000D01*
X93834190Y-116792000D02*
X93821499Y-116800785D01*
X93821499Y-116800785D02*
X93821030Y-116820531D01*
X93821030Y-116820531D02*
X93830536Y-116841321D01*
X93830536Y-116841321D02*
X93847772Y-116853239D01*
X93847772Y-116853239D02*
X93848076Y-116853299D01*
X93848076Y-116853299D02*
X93870276Y-116847040D01*
X93870276Y-116847040D02*
X93877713Y-116832805D01*
X93877713Y-116832805D02*
X93891838Y-116816503D01*
X93891838Y-116816503D02*
X93923698Y-116794374D01*
X93923698Y-116794374D02*
X93967227Y-116769464D01*
X93967227Y-116769464D02*
X94016362Y-116744819D01*
X94016362Y-116744819D02*
X94065037Y-116723484D01*
X94065037Y-116723484D02*
X94107187Y-116708507D01*
X94107187Y-116708507D02*
X94136304Y-116702933D01*
X94136304Y-116702933D02*
X94159951Y-116704720D01*
X94159951Y-116704720D02*
X94203189Y-116709741D01*
X94203189Y-116709741D02*
X94260515Y-116717294D01*
X94260515Y-116717294D02*
X94326427Y-116726677D01*
X94326427Y-116726677D02*
X94349206Y-116730069D01*
X94349206Y-116730069D02*
X94413814Y-116739436D01*
X94413814Y-116739436D02*
X94468812Y-116746728D01*
X94468812Y-116746728D02*
X94509656Y-116751395D01*
X94509656Y-116751395D02*
X94531802Y-116752888D01*
X94531802Y-116752888D02*
X94534418Y-116752461D01*
X94534418Y-116752461D02*
X94542150Y-116740453D01*
X94542150Y-116740453D02*
X94560703Y-116710898D01*
X94560703Y-116710898D02*
X94587541Y-116667852D01*
X94587541Y-116667852D02*
X94620132Y-116615373D01*
X94620132Y-116615373D02*
X94630967Y-116597887D01*
X94630967Y-116597887D02*
X94664719Y-116544209D01*
X94664719Y-116544209D02*
X94693652Y-116499739D01*
X94693652Y-116499739D02*
X94715250Y-116468227D01*
X94715250Y-116468227D02*
X94726996Y-116453425D01*
X94726996Y-116453425D02*
X94728282Y-116452847D01*
X94728282Y-116452847D02*
X94728779Y-116466252D01*
X94728779Y-116466252D02*
X94727775Y-116501575D01*
X94727775Y-116501575D02*
X94725431Y-116555393D01*
X94725431Y-116555393D02*
X94721908Y-116624278D01*
X94721908Y-116624278D02*
X94717370Y-116704805D01*
X94717370Y-116704805D02*
X94712805Y-116780310D01*
X94712805Y-116780310D02*
X94692707Y-117103150D01*
X94692707Y-117103150D02*
X94820765Y-117348899D01*
X94820765Y-117348899D02*
X94857854Y-117421453D01*
X94857854Y-117421453D02*
X94889926Y-117486857D01*
X94889926Y-117486857D02*
X94915395Y-117541654D01*
X94915395Y-117541654D02*
X94932679Y-117582389D01*
X94932679Y-117582389D02*
X94940192Y-117605605D01*
X94940192Y-117605605D02*
X94940086Y-117609249D01*
X94940086Y-117609249D02*
X94930350Y-117623371D01*
X94930350Y-117623371D02*
X94907897Y-117654880D01*
X94907897Y-117654880D02*
X94874981Y-117700643D01*
X94874981Y-117700643D02*
X94833858Y-117757531D01*
X94833858Y-117757531D02*
X94786783Y-117822410D01*
X94786783Y-117822410D02*
X94762070Y-117856386D01*
X94762070Y-117856386D02*
X94713262Y-117923707D01*
X94713262Y-117923707D02*
X94669707Y-117984305D01*
X94669707Y-117984305D02*
X94633569Y-118035125D01*
X94633569Y-118035125D02*
X94607013Y-118073114D01*
X94607013Y-118073114D02*
X94592203Y-118095217D01*
X94592203Y-118095217D02*
X94589872Y-118099381D01*
X94589872Y-118099381D02*
X94598814Y-118109580D01*
X94598814Y-118109580D02*
X94625480Y-118132363D01*
X94625480Y-118132363D02*
X94666993Y-118165460D01*
X94666993Y-118165460D02*
X94720475Y-118206601D01*
X94720475Y-118206601D02*
X94783047Y-118253513D01*
X94783047Y-118253513D02*
X94815550Y-118277476D01*
X94815550Y-118277476D02*
X94881842Y-118326368D01*
X94881842Y-118326368D02*
X94940882Y-118370442D01*
X94940882Y-118370442D02*
X94989696Y-118407436D01*
X94989696Y-118407436D02*
X95025314Y-118435088D01*
X95025314Y-118435088D02*
X95044763Y-118451136D01*
X95044763Y-118451136D02*
X95047476Y-118454032D01*
X95047476Y-118454032D02*
X95040229Y-118467292D01*
X95040229Y-118467292D02*
X95016520Y-118488562D01*
X95016520Y-118488562D02*
X94982225Y-118513763D01*
X94982225Y-118513763D02*
X94943223Y-118538821D01*
X94943223Y-118538821D02*
X94905392Y-118559657D01*
X94905392Y-118559657D02*
X94879050Y-118570839D01*
X94879050Y-118570839D02*
X94833164Y-118579922D01*
X94833164Y-118579922D02*
X94767106Y-118584321D01*
X94767106Y-118584321D02*
X94701250Y-118584175D01*
X94701250Y-118584175D02*
X94640093Y-118581721D01*
X94640093Y-118581721D02*
X94598724Y-118577641D01*
X94598724Y-118577641D02*
X94571538Y-118570895D01*
X94571538Y-118570895D02*
X94552930Y-118560443D01*
X94552930Y-118560443D02*
X94547285Y-118555604D01*
X94547285Y-118555604D02*
X94526698Y-118539050D01*
X94526698Y-118539050D02*
X94512432Y-118540003D01*
X94512432Y-118540003D02*
X94498929Y-118551885D01*
X94498929Y-118551885D02*
X94484905Y-118575517D01*
X94484905Y-118575517D02*
X94484620Y-118591726D01*
X94484620Y-118591726D02*
X94490957Y-118611187D01*
X94490957Y-118611187D02*
X94491700Y-118615488D01*
X94491700Y-118615488D02*
X94502769Y-118619205D01*
X94502769Y-118619205D02*
X94529469Y-118620798D01*
X94529469Y-118620798D02*
X94530223Y-118620800D01*
X94530223Y-118620800D02*
X94563523Y-118626577D01*
X94563523Y-118626577D02*
X94606650Y-118641359D01*
X94606650Y-118641359D02*
X94632607Y-118653161D01*
X94632607Y-118653161D02*
X94669477Y-118673540D01*
X94669477Y-118673540D02*
X94687957Y-118690044D01*
X94687957Y-118690044D02*
X94693187Y-118708357D01*
X94693187Y-118708357D02*
X94692510Y-118719379D01*
X94692510Y-118719379D02*
X94684345Y-118742615D01*
X94684345Y-118742615D02*
X94662546Y-118764699D01*
X94662546Y-118764699D02*
X94622248Y-118790414D01*
X94622248Y-118790414D02*
X94617502Y-118793095D01*
X94617502Y-118793095D02*
X94574605Y-118815607D01*
X94574605Y-118815607D02*
X94535828Y-118833330D01*
X94535828Y-118833330D02*
X94514128Y-118841067D01*
X94514128Y-118841067D02*
X94483914Y-118857217D01*
X94483914Y-118857217D02*
X94471520Y-118881960D01*
X94471520Y-118881960D02*
X94480336Y-118908159D01*
X94480336Y-118908159D02*
X94505264Y-118923852D01*
X94505264Y-118923852D02*
X94531412Y-118921340D01*
X94531412Y-118921340D02*
X94548396Y-118901630D01*
X94548396Y-118901630D02*
X94548420Y-118901557D01*
X94548420Y-118901557D02*
X94560561Y-118885989D01*
X94560561Y-118885989D02*
X94588766Y-118873518D01*
X94588766Y-118873518D02*
X94637650Y-118862119D01*
X94637650Y-118862119D02*
X94638811Y-118861899D01*
X94638811Y-118861899D02*
X94683800Y-118854096D01*
X94683800Y-118854096D02*
X94710854Y-118852285D01*
X94710854Y-118852285D02*
X94726851Y-118857023D01*
X94726851Y-118857023D02*
X94738666Y-118868867D01*
X94738666Y-118868867D02*
X94739582Y-118870067D01*
X94739582Y-118870067D02*
X94751588Y-118889540D01*
X94751588Y-118889540D02*
X94756914Y-118911828D01*
X94756914Y-118911828D02*
X94756224Y-118944397D01*
X94756224Y-118944397D02*
X94750471Y-118992609D01*
X94750471Y-118992609D02*
X94741295Y-119033200D01*
X94741295Y-119033200D02*
X94726566Y-119053337D01*
X94726566Y-119053337D02*
X94718693Y-119056700D01*
X94718693Y-119056700D02*
X94702346Y-119066329D01*
X94702346Y-119066329D02*
X94703827Y-119087066D01*
X94703827Y-119087066D02*
X94705780Y-119092693D01*
X94705780Y-119092693D02*
X94724482Y-119119723D01*
X94724482Y-119119723D02*
X94748416Y-119127086D01*
X94748416Y-119127086D02*
X94769892Y-119114570D01*
X94769892Y-119114570D02*
X94779142Y-119094699D01*
X94779142Y-119094699D02*
X94789467Y-119062443D01*
X94789467Y-119062443D02*
X94806004Y-119019388D01*
X94806004Y-119019388D02*
X94816801Y-118993925D01*
X94816801Y-118993925D02*
X94838506Y-118952148D01*
X94838506Y-118952148D02*
X94859600Y-118929869D01*
X94859600Y-118929869D02*
X94878093Y-118922674D01*
X94878093Y-118922674D02*
X94896062Y-118921182D01*
X94896062Y-118921182D02*
X94908576Y-118928440D01*
X94908576Y-118928440D02*
X94919448Y-118949456D01*
X94919448Y-118949456D02*
X94932491Y-118989235D01*
X94932491Y-118989235D02*
X94934923Y-118997305D01*
X94934923Y-118997305D02*
X94946485Y-119043116D01*
X94946485Y-119043116D02*
X94952604Y-119082470D01*
X94952604Y-119082470D02*
X94952219Y-119104780D01*
X94952219Y-119104780D02*
X94954364Y-119132634D01*
X94954364Y-119132634D02*
X94972007Y-119149417D01*
X94972007Y-119149417D02*
X94996559Y-119152110D01*
X94996559Y-119152110D02*
X95019427Y-119137697D01*
X95019427Y-119137697D02*
X95024387Y-119130133D01*
X95024387Y-119130133D02*
X95029642Y-119105782D01*
X95029642Y-119105782D02*
X95017148Y-119089370D01*
X95017148Y-119089370D02*
X95008189Y-119078222D01*
X95008189Y-119078222D02*
X95003115Y-119059795D01*
X95003115Y-119059795D02*
X95001549Y-119029159D01*
X95001549Y-119029159D02*
X95003114Y-118981383D01*
X95003114Y-118981383D02*
X95005631Y-118938811D01*
X95005631Y-118938811D02*
X95009137Y-118888646D01*
X95009137Y-118888646D02*
X95013783Y-118848358D01*
X95013783Y-118848358D02*
X95021652Y-118813756D01*
X95021652Y-118813756D02*
X95034827Y-118780648D01*
X95034827Y-118780648D02*
X95055389Y-118744843D01*
X95055389Y-118744843D02*
X95085422Y-118702149D01*
X95085422Y-118702149D02*
X95127009Y-118648374D01*
X95127009Y-118648374D02*
X95182233Y-118579327D01*
X95182233Y-118579327D02*
X95187522Y-118572744D01*
X95187522Y-118572744D02*
X95219207Y-118534556D01*
X95219207Y-118534556D02*
X95243419Y-118505072D01*
X95243419Y-118505072D02*
X95258940Y-118481175D01*
X95258940Y-118481175D02*
X95264555Y-118459746D01*
X95264555Y-118459746D02*
X95259048Y-118437667D01*
X95259048Y-118437667D02*
X95241202Y-118411818D01*
X95241202Y-118411818D02*
X95209802Y-118379081D01*
X95209802Y-118379081D02*
X95163632Y-118336338D01*
X95163632Y-118336338D02*
X95101475Y-118280471D01*
X95101475Y-118280471D02*
X95058352Y-118241490D01*
X95058352Y-118241490D02*
X94882054Y-118081215D01*
X94882054Y-118081215D02*
X94987117Y-117982707D01*
X94987117Y-117982707D02*
X95029554Y-117943541D01*
X95029554Y-117943541D02*
X95065210Y-117911801D01*
X95065210Y-117911801D02*
X95090078Y-117890976D01*
X95090078Y-117890976D02*
X95099916Y-117884448D01*
X95099916Y-117884448D02*
X95109460Y-117894630D01*
X95109460Y-117894630D02*
X95129102Y-117921920D01*
X95129102Y-117921920D02*
X95155673Y-117961764D01*
X95155673Y-117961764D02*
X95177034Y-117995224D01*
X95177034Y-117995224D02*
X95236092Y-118078294D01*
X95236092Y-118078294D02*
X95310742Y-118166610D01*
X95310742Y-118166610D02*
X95394314Y-118253183D01*
X95394314Y-118253183D02*
X95480140Y-118331026D01*
X95480140Y-118331026D02*
X95547686Y-118383560D01*
X95547686Y-118383560D02*
X95617406Y-118427960D01*
X95617406Y-118427960D02*
X95700824Y-118473371D01*
X95700824Y-118473371D02*
X95789379Y-118515697D01*
X95789379Y-118515697D02*
X95874512Y-118550837D01*
X95874512Y-118550837D02*
X95945850Y-118574214D01*
X95945850Y-118574214D02*
X96031598Y-118592799D01*
X96031598Y-118592799D02*
X96128428Y-118606921D01*
X96128428Y-118606921D02*
X96226482Y-118615588D01*
X96226482Y-118615588D02*
X96315897Y-118617808D01*
X96315897Y-118617808D02*
X96359133Y-118615816D01*
X96359133Y-118615816D02*
X96511028Y-118590813D01*
X96511028Y-118590813D02*
X96657582Y-118542030D01*
X96657582Y-118542030D02*
X96796703Y-118470877D01*
X96796703Y-118470877D02*
X96926298Y-118378765D01*
X96926298Y-118378765D02*
X97044276Y-118267106D01*
X97044276Y-118267106D02*
X97148546Y-118137309D01*
X97148546Y-118137309D02*
X97208517Y-118042950D01*
X97208517Y-118042950D02*
X97237790Y-117992150D01*
X97237790Y-117992150D02*
X97202554Y-118036600D01*
X97202554Y-118036600D02*
X97159556Y-118086400D01*
X97159556Y-118086400D02*
X97104239Y-118144071D01*
X97104239Y-118144071D02*
X97042225Y-118204340D01*
X97042225Y-118204340D02*
X96979138Y-118261931D01*
X96979138Y-118261931D02*
X96920601Y-118311569D01*
X96920601Y-118311569D02*
X96872237Y-118347981D01*
X96872237Y-118347981D02*
X96866600Y-118351721D01*
X96866600Y-118351721D02*
X96740176Y-118420651D01*
X96740176Y-118420651D02*
X96607029Y-118468911D01*
X96607029Y-118468911D02*
X96470949Y-118495852D01*
X96470949Y-118495852D02*
X96335726Y-118500823D01*
X96335726Y-118500823D02*
X96205149Y-118483173D01*
X96205149Y-118483173D02*
X96164045Y-118472369D01*
X96164045Y-118472369D02*
X96084275Y-118443860D01*
X96084275Y-118443860D02*
X95994007Y-118403771D01*
X95994007Y-118403771D02*
X95902416Y-118356592D01*
X95902416Y-118356592D02*
X95818675Y-118306812D01*
X95818675Y-118306812D02*
X95798663Y-118293550D01*
X95798663Y-118293550D02*
X95730204Y-118243689D01*
X95730204Y-118243689D02*
X95668883Y-118191145D01*
X95668883Y-118191145D02*
X95611659Y-118132288D01*
X95611659Y-118132288D02*
X95555488Y-118063490D01*
X95555488Y-118063490D02*
X95497330Y-117981122D01*
X95497330Y-117981122D02*
X95434141Y-117881556D01*
X95434141Y-117881556D02*
X95386846Y-117802344D01*
X95386846Y-117802344D02*
X95312800Y-117676039D01*
X95312800Y-117676039D02*
X95432475Y-117564936D01*
X95432475Y-117564936D02*
X95477251Y-117524694D01*
X95477251Y-117524694D02*
X95514949Y-117493325D01*
X95514949Y-117493325D02*
X95542049Y-117473572D01*
X95542049Y-117473572D02*
X95555033Y-117468175D01*
X95555033Y-117468175D02*
X95555612Y-117468991D01*
X95555612Y-117468991D02*
X95558064Y-117486795D01*
X95558064Y-117486795D02*
X95562286Y-117524592D01*
X95562286Y-117524592D02*
X95567716Y-117577084D01*
X95567716Y-117577084D02*
X95573788Y-117638971D01*
X95573788Y-117638971D02*
X95574662Y-117648129D01*
X95574662Y-117648129D02*
X95590250Y-117812109D01*
X95590250Y-117812109D02*
X95794052Y-117615576D01*
X95794052Y-117615576D02*
X95863065Y-117549500D01*
X95863065Y-117549500D02*
X95917106Y-117499121D01*
X95917106Y-117499121D02*
X95959080Y-117462089D01*
X95959080Y-117462089D02*
X95991893Y-117436058D01*
X95991893Y-117436058D02*
X96018450Y-117418680D01*
X96018450Y-117418680D02*
X96041657Y-117407608D01*
X96041657Y-117407608D02*
X96058249Y-117402132D01*
X96058249Y-117402132D02*
X96103900Y-117394084D01*
X96103900Y-117394084D02*
X96160441Y-117390868D01*
X96160441Y-117390868D02*
X96220859Y-117392064D01*
X96220859Y-117392064D02*
X96278143Y-117397253D01*
X96278143Y-117397253D02*
X96325281Y-117406016D01*
X96325281Y-117406016D02*
X96355263Y-117417934D01*
X96355263Y-117417934D02*
X96357931Y-117420043D01*
X96357931Y-117420043D02*
X96378564Y-117432646D01*
X96378564Y-117432646D02*
X96399041Y-117425093D01*
X96399041Y-117425093D02*
X96402144Y-117422883D01*
X96402144Y-117422883D02*
X96419869Y-117398751D01*
X96419869Y-117398751D02*
X96417059Y-117374377D01*
X96417059Y-117374377D02*
X96396259Y-117358520D01*
X96396259Y-117358520D02*
X96382849Y-117356509D01*
X96382849Y-117356509D02*
X96352992Y-117351155D01*
X96352992Y-117351155D02*
X96312757Y-117338243D01*
X96312757Y-117338243D02*
X96270521Y-117321207D01*
X96270521Y-117321207D02*
X96234660Y-117303477D01*
X96234660Y-117303477D02*
X96213549Y-117288486D01*
X96213549Y-117288486D02*
X96212079Y-117286536D01*
X96212079Y-117286536D02*
X96206706Y-117256468D01*
X96206706Y-117256468D02*
X96226487Y-117224683D01*
X96226487Y-117224683D02*
X96271246Y-117191400D01*
X96271246Y-117191400D02*
X96297846Y-117176828D01*
X96297846Y-117176828D02*
X96341133Y-117155441D01*
X96341133Y-117155441D02*
X96377810Y-117138466D01*
X96377810Y-117138466D02*
X96399875Y-117129602D01*
X96399875Y-117129602D02*
X96418089Y-117113337D01*
X96418089Y-117113337D02*
X96420620Y-117086868D01*
X96420620Y-117086868D02*
X96406860Y-117061239D01*
X96406860Y-117061239D02*
X96381202Y-117046845D01*
X96381202Y-117046845D02*
X96360284Y-117055471D01*
X96360284Y-117055471D02*
X96352715Y-117069935D01*
X96352715Y-117069935D02*
X96337035Y-117087818D01*
X96337035Y-117087818D02*
X96300346Y-117104069D01*
X96300346Y-117104069D02*
X96266134Y-117113859D01*
X96266134Y-117113859D02*
X96222794Y-117124226D01*
X96222794Y-117124226D02*
X96196505Y-117127600D01*
X96196505Y-117127600D02*
X96179810Y-117123658D01*
X96179810Y-117123658D02*
X96165251Y-117112075D01*
X96165251Y-117112075D02*
X96162477Y-117109347D01*
X96162477Y-117109347D02*
X96145729Y-117077710D01*
X96145729Y-117077710D02*
X96139282Y-117033250D01*
X96139282Y-117033250D02*
X96142785Y-116986065D01*
X96142785Y-116986065D02*
X96155888Y-116946249D01*
X96155888Y-116946249D02*
X96168713Y-116929664D01*
X96168713Y-116929664D02*
X96190731Y-116900124D01*
X96190731Y-116900124D02*
X96188593Y-116871306D01*
X96188593Y-116871306D02*
X96179730Y-116859509D01*
X96179730Y-116859509D02*
X96157197Y-116850544D01*
X96157197Y-116850544D02*
X96132720Y-116856461D01*
X96132720Y-116856461D02*
X96118057Y-116873549D01*
X96118057Y-116873549D02*
X96117302Y-116879206D01*
X96117302Y-116879206D02*
X96112439Y-116900947D01*
X96112439Y-116900947D02*
X96099716Y-116937628D01*
X96099716Y-116937628D02*
X96082726Y-116979325D01*
X96082726Y-116979325D02*
X96062687Y-117022297D01*
X96062687Y-117022297D02*
X96046789Y-117046435D01*
X96046789Y-117046435D02*
X96030673Y-117056838D01*
X96030673Y-117056838D02*
X96014885Y-117058700D01*
X96014885Y-117058700D02*
X95995593Y-117056006D01*
X95995593Y-117056006D02*
X95981971Y-117044183D01*
X95981971Y-117044183D02*
X95969837Y-117017615D01*
X95969837Y-117017615D02*
X95958835Y-116983438D01*
X95958835Y-116983438D02*
X95947711Y-116938956D01*
X95947711Y-116938956D02*
X95942255Y-116900878D01*
X95942255Y-116900878D02*
X95942978Y-116881672D01*
X95942978Y-116881672D02*
X95940173Y-116854694D01*
X95940173Y-116854694D02*
X95921489Y-116838385D01*
X95921489Y-116838385D02*
X95895696Y-116837270D01*
X95895696Y-116837270D02*
X95877942Y-116848115D01*
X95877942Y-116848115D02*
X95864497Y-116868616D01*
X95864497Y-116868616D02*
X95871492Y-116891045D01*
X95871492Y-116891045D02*
X95873074Y-116893632D01*
X95873074Y-116893632D02*
X95881015Y-116920301D01*
X95881015Y-116920301D02*
X95886323Y-116968609D01*
X95886323Y-116968609D02*
X95888631Y-117034894D01*
X95888631Y-117034894D02*
X95888700Y-117050131D01*
X95888700Y-117050131D02*
X95888700Y-117181608D01*
X95888700Y-117181608D02*
X95790542Y-117317758D01*
X95790542Y-117317758D02*
X95754737Y-117367889D01*
X95754737Y-117367889D02*
X95727930Y-117403877D01*
X95727930Y-117403877D02*
X95708377Y-117424241D01*
X95708377Y-117424241D02*
X95694338Y-117427498D01*
X95694338Y-117427498D02*
X95684070Y-117412168D01*
X95684070Y-117412168D02*
X95675831Y-117376767D01*
X95675831Y-117376767D02*
X95667880Y-117319814D01*
X95667880Y-117319814D02*
X95658474Y-117239826D01*
X95658474Y-117239826D02*
X95653977Y-117201575D01*
X95653977Y-117201575D02*
X95645573Y-117134901D01*
X95645573Y-117134901D02*
X95637524Y-117078172D01*
X95637524Y-117078172D02*
X95630513Y-117035697D01*
X95630513Y-117035697D02*
X95625224Y-117011783D01*
X95625224Y-117011783D02*
X95623292Y-117008104D01*
X95623292Y-117008104D02*
X95611972Y-117016297D01*
X95611972Y-117016297D02*
X95584830Y-117039038D01*
X95584830Y-117039038D02*
X95544816Y-117073761D01*
X95544816Y-117073761D02*
X95494878Y-117117903D01*
X95494878Y-117117903D02*
X95437965Y-117168897D01*
X95437965Y-117168897D02*
X95426185Y-117179530D01*
X95426185Y-117179530D02*
X95368615Y-117231288D01*
X95368615Y-117231288D02*
X95317808Y-117276453D01*
X95317808Y-117276453D02*
X95276619Y-117312530D01*
X95276619Y-117312530D02*
X95247903Y-117337023D01*
X95247903Y-117337023D02*
X95234515Y-117347436D01*
X95234515Y-117347436D02*
X95233917Y-117347601D01*
X95233917Y-117347601D02*
X95233669Y-117334505D01*
X95233669Y-117334505D02*
X95234909Y-117300703D01*
X95234909Y-117300703D02*
X95237419Y-117250832D01*
X95237419Y-117250832D02*
X95240982Y-117189527D01*
X95240982Y-117189527D02*
X95242411Y-117166650D01*
X95242411Y-117166650D02*
X95245971Y-117098195D01*
X95245971Y-117098195D02*
X95247378Y-117033160D01*
X95247378Y-117033160D02*
X95246458Y-116965824D01*
X95246458Y-116965824D02*
X95243035Y-116890471D01*
X95243035Y-116890471D02*
X95236936Y-116801382D01*
X95236936Y-116801382D02*
X95227984Y-116692839D01*
X95227984Y-116692839D02*
X95227899Y-116691862D01*
X95227899Y-116691862D02*
X95220780Y-116607940D01*
X95220780Y-116607940D02*
X95214745Y-116532878D01*
X95214745Y-116532878D02*
X95210052Y-116470233D01*
X95210052Y-116470233D02*
X95206960Y-116423560D01*
X95206960Y-116423560D02*
X95205727Y-116396417D01*
X95205727Y-116396417D02*
X95206012Y-116390954D01*
X95206012Y-116390954D02*
X95217911Y-116395274D01*
X95217911Y-116395274D02*
X95247534Y-116409906D01*
X95247534Y-116409906D02*
X95290527Y-116432606D01*
X95290527Y-116432606D02*
X95342535Y-116461130D01*
X95342535Y-116461130D02*
X95347083Y-116463667D01*
X95347083Y-116463667D02*
X95399551Y-116492523D01*
X95399551Y-116492523D02*
X95443275Y-116515695D01*
X95443275Y-116515695D02*
X95473931Y-116530956D01*
X95473931Y-116530956D02*
X95487197Y-116536078D01*
X95487197Y-116536078D02*
X95487384Y-116535975D01*
X95487384Y-116535975D02*
X95507673Y-116510222D01*
X95507673Y-116510222D02*
X95539600Y-116472131D01*
X95539600Y-116472131D02*
X95579851Y-116425416D01*
X95579851Y-116425416D02*
X95625114Y-116373791D01*
X95625114Y-116373791D02*
X95672074Y-116320970D01*
X95672074Y-116320970D02*
X95717420Y-116270667D01*
X95717420Y-116270667D02*
X95757837Y-116226596D01*
X95757837Y-116226596D02*
X95790012Y-116192470D01*
X95790012Y-116192470D02*
X95810633Y-116172004D01*
X95810633Y-116172004D02*
X95815628Y-116168026D01*
X95815628Y-116168026D02*
X95858934Y-116148180D01*
X95858934Y-116148180D02*
X95909328Y-116130003D01*
X95909328Y-116130003D02*
X95959920Y-116115384D01*
X95959920Y-116115384D02*
X96003821Y-116106210D01*
X96003821Y-116106210D02*
X96034143Y-116104370D01*
X96034143Y-116104370D02*
X96041142Y-116106222D01*
X96041142Y-116106222D02*
X96066121Y-116108383D01*
X96066121Y-116108383D02*
X96084990Y-116093098D01*
X96084990Y-116093098D02*
X96089323Y-116068218D01*
X96089323Y-116068218D02*
X96087724Y-116062834D01*
X96087724Y-116062834D02*
X96078761Y-116053451D01*
X96078761Y-116053451D02*
X96057816Y-116049194D01*
X96057816Y-116049194D02*
X96019833Y-116049504D01*
X96019833Y-116049504D02*
X95986626Y-116051660D01*
X95986626Y-116051660D02*
X95938423Y-116054864D01*
X95938423Y-116054864D02*
X95909705Y-116054548D01*
X95909705Y-116054548D02*
X95894653Y-116049407D01*
X95894653Y-116049407D02*
X95887447Y-116038136D01*
X95887447Y-116038136D02*
X95884706Y-116028797D01*
X95884706Y-116028797D02*
X95883787Y-116000641D01*
X95883787Y-116000641D02*
X95897215Y-115969205D01*
X95897215Y-115969205D02*
X95927369Y-115930287D01*
X95927369Y-115930287D02*
X95959694Y-115896352D01*
X95959694Y-115896352D02*
X95988510Y-115860940D01*
X95988510Y-115860940D02*
X95997254Y-115833914D01*
X95997254Y-115833914D02*
X95985760Y-115817707D01*
X95985760Y-115817707D02*
X95965299Y-115814100D01*
X95965299Y-115814100D02*
X95943594Y-115822952D01*
X95943594Y-115822952D02*
X95939478Y-115836325D01*
X95939478Y-115836325D02*
X95928728Y-115857368D01*
X95928728Y-115857368D02*
X95901809Y-115881479D01*
X95901809Y-115881479D02*
X95866663Y-115903735D01*
X95866663Y-115903735D02*
X95831235Y-115919215D01*
X95831235Y-115919215D02*
X95803464Y-115923000D01*
X95803464Y-115923000D02*
X95800673Y-115922326D01*
X95800673Y-115922326D02*
X95780541Y-115904677D01*
X95780541Y-115904677D02*
X95763212Y-115871074D01*
X95763212Y-115871074D02*
X95751625Y-115830960D01*
X95751625Y-115830960D02*
X95748722Y-115793780D01*
X95748722Y-115793780D02*
X95754225Y-115773141D01*
X95754225Y-115773141D02*
X95760240Y-115748657D01*
X95760240Y-115748657D02*
X95752711Y-115736530D01*
X95752711Y-115736530D02*
X95729824Y-115726958D01*
X95729824Y-115726958D02*
X95709085Y-115736782D01*
X95709085Y-115736782D02*
X95699517Y-115760944D01*
X95699517Y-115760944D02*
X95699663Y-115766273D01*
X95699663Y-115766273D02*
X95700747Y-115795843D01*
X95700747Y-115795843D02*
X95700672Y-115838178D01*
X95700672Y-115838178D02*
X95700176Y-115860243D01*
X95700176Y-115860243D02*
X95697076Y-115900675D01*
X95697076Y-115900675D02*
X95689331Y-115922301D01*
X95689331Y-115922301D02*
X95674545Y-115931617D01*
X95674545Y-115931617D02*
X95673767Y-115931826D01*
X95673767Y-115931826D02*
X95651212Y-115926149D01*
X95651212Y-115926149D02*
X95623007Y-115903866D01*
X95623007Y-115903866D02*
X95594873Y-115871085D01*
X95594873Y-115871085D02*
X95572534Y-115833913D01*
X95572534Y-115833913D02*
X95565565Y-115816350D01*
X95565565Y-115816350D02*
X95550069Y-115793779D01*
X95550069Y-115793779D02*
X95528964Y-115791134D01*
X95528964Y-115791134D02*
X95505547Y-115802634D01*
X95505547Y-115802634D02*
X95497679Y-115822096D01*
X95497679Y-115822096D02*
X95507457Y-115840056D01*
X95507457Y-115840056D02*
X95517070Y-115844792D01*
X95517070Y-115844792D02*
X95531615Y-115859956D01*
X95531615Y-115859956D02*
X95549483Y-115893496D01*
X95549483Y-115893496D02*
X95568371Y-115939017D01*
X95568371Y-115939017D02*
X95585975Y-115990127D01*
X95585975Y-115990127D02*
X95599991Y-116040432D01*
X95599991Y-116040432D02*
X95608115Y-116083538D01*
X95608115Y-116083538D02*
X95609248Y-116100606D01*
X95609248Y-116100606D02*
X95601347Y-116132520D01*
X95601347Y-116132520D02*
X95578771Y-116180604D01*
X95578771Y-116180604D02*
X95543112Y-116241517D01*
X95543112Y-116241517D02*
X95538770Y-116248371D01*
X95538770Y-116248371D02*
X95468345Y-116358792D01*
X95468345Y-116358792D02*
X95332448Y-116287703D01*
X95332448Y-116287703D02*
X95278962Y-116259472D01*
X95278962Y-116259472D02*
X95233738Y-116235129D01*
X95233738Y-116235129D02*
X95201536Y-116217270D01*
X95201536Y-116217270D02*
X95187119Y-116208489D01*
X95187119Y-116208489D02*
X95187111Y-116208482D01*
X95187111Y-116208482D02*
X95184221Y-116193248D01*
X95184221Y-116193248D02*
X95183666Y-116158246D01*
X95183666Y-116158246D02*
X95185395Y-116108997D01*
X95185395Y-116108997D02*
X95188489Y-116061748D01*
X95188489Y-116061748D02*
X95192900Y-115997974D01*
X95192900Y-115997974D02*
X95194095Y-115953072D01*
X95194095Y-115953072D02*
X95191653Y-115920671D01*
X95191653Y-115920671D02*
X95185156Y-115894398D01*
X95185156Y-115894398D02*
X95175982Y-115871798D01*
X95175982Y-115871798D02*
X95161004Y-115829579D01*
X95161004Y-115829579D02*
X95152856Y-115788687D01*
X95152856Y-115788687D02*
X95152379Y-115780106D01*
X95152379Y-115780106D02*
X95146030Y-115746906D01*
X95146030Y-115746906D02*
X95132070Y-115735656D01*
X95132070Y-115735656D02*
X95118731Y-115722905D01*
X95118731Y-115722905D02*
X95098123Y-115691243D01*
X95098123Y-115691243D02*
X95072912Y-115645136D01*
X95072912Y-115645136D02*
X95049984Y-115598200D01*
X95049984Y-115598200D02*
X95011293Y-115520369D01*
X95011293Y-115520369D02*
X94977944Y-115467000D01*
X94977944Y-115467000D02*
X94948310Y-115438130D01*
X94948310Y-115438130D02*
X94920765Y-115433795D01*
X94920765Y-115433795D02*
X94893682Y-115454032D01*
X94893682Y-115454032D02*
X94893682Y-115454032D01*
G36*
X94948310Y-115438130D02*
G01*
X94977944Y-115467000D01*
X95011293Y-115520369D01*
X95049984Y-115598200D01*
X95072912Y-115645136D01*
X95098123Y-115691243D01*
X95118731Y-115722905D01*
X95132070Y-115735656D01*
X95146030Y-115746906D01*
X95152379Y-115780106D01*
X95152856Y-115788687D01*
X95161004Y-115829579D01*
X95175982Y-115871798D01*
X95185156Y-115894398D01*
X95191653Y-115920671D01*
X95194095Y-115953072D01*
X95192900Y-115997974D01*
X95188489Y-116061748D01*
X95185395Y-116108997D01*
X95183666Y-116158246D01*
X95184221Y-116193248D01*
X95187111Y-116208482D01*
X95187119Y-116208489D01*
X95201536Y-116217270D01*
X95233738Y-116235129D01*
X95278962Y-116259472D01*
X95332448Y-116287703D01*
X95468345Y-116358792D01*
X95538770Y-116248371D01*
X95543112Y-116241517D01*
X95578771Y-116180604D01*
X95601347Y-116132520D01*
X95609248Y-116100606D01*
X95608115Y-116083538D01*
X95599991Y-116040432D01*
X95585975Y-115990127D01*
X95568371Y-115939017D01*
X95549483Y-115893496D01*
X95531615Y-115859956D01*
X95517070Y-115844792D01*
X95507457Y-115840056D01*
X95497679Y-115822096D01*
X95505547Y-115802634D01*
X95528964Y-115791134D01*
X95550069Y-115793779D01*
X95565565Y-115816350D01*
X95572534Y-115833913D01*
X95594873Y-115871085D01*
X95623007Y-115903866D01*
X95651212Y-115926149D01*
X95673767Y-115931826D01*
X95674545Y-115931617D01*
X95689331Y-115922301D01*
X95697076Y-115900675D01*
X95700176Y-115860243D01*
X95700672Y-115838178D01*
X95700747Y-115795843D01*
X95699663Y-115766273D01*
X95699517Y-115760944D01*
X95709085Y-115736782D01*
X95729824Y-115726958D01*
X95752711Y-115736530D01*
X95760240Y-115748657D01*
X95754225Y-115773141D01*
X95748722Y-115793780D01*
X95751625Y-115830960D01*
X95763212Y-115871074D01*
X95780541Y-115904677D01*
X95800673Y-115922326D01*
X95803464Y-115923000D01*
X95831235Y-115919215D01*
X95866663Y-115903735D01*
X95901809Y-115881479D01*
X95928728Y-115857368D01*
X95939478Y-115836325D01*
X95943594Y-115822952D01*
X95965299Y-115814100D01*
X95985760Y-115817707D01*
X95997254Y-115833914D01*
X95988510Y-115860940D01*
X95959694Y-115896352D01*
X95927369Y-115930287D01*
X95897215Y-115969205D01*
X95883787Y-116000641D01*
X95884706Y-116028797D01*
X95887447Y-116038136D01*
X95894653Y-116049407D01*
X95909705Y-116054548D01*
X95938423Y-116054864D01*
X95986626Y-116051660D01*
X96019833Y-116049504D01*
X96057816Y-116049194D01*
X96078761Y-116053451D01*
X96087724Y-116062834D01*
X96089323Y-116068218D01*
X96084990Y-116093098D01*
X96066121Y-116108383D01*
X96041142Y-116106222D01*
X96034143Y-116104370D01*
X96003821Y-116106210D01*
X95959920Y-116115384D01*
X95909328Y-116130003D01*
X95858934Y-116148180D01*
X95815628Y-116168026D01*
X95810633Y-116172004D01*
X95790012Y-116192470D01*
X95757837Y-116226596D01*
X95717420Y-116270667D01*
X95672074Y-116320970D01*
X95625114Y-116373791D01*
X95579851Y-116425416D01*
X95539600Y-116472131D01*
X95507673Y-116510222D01*
X95487384Y-116535975D01*
X95487197Y-116536078D01*
X95473931Y-116530956D01*
X95443275Y-116515695D01*
X95399551Y-116492523D01*
X95347083Y-116463667D01*
X95342535Y-116461130D01*
X95290527Y-116432606D01*
X95247534Y-116409906D01*
X95217911Y-116395274D01*
X95206012Y-116390954D01*
X95205727Y-116396417D01*
X95206960Y-116423560D01*
X95210052Y-116470233D01*
X95214745Y-116532878D01*
X95220780Y-116607940D01*
X95227899Y-116691862D01*
X95227984Y-116692839D01*
X95236936Y-116801382D01*
X95243035Y-116890471D01*
X95246458Y-116965824D01*
X95247378Y-117033160D01*
X95245971Y-117098195D01*
X95242411Y-117166650D01*
X95240982Y-117189527D01*
X95237419Y-117250832D01*
X95234909Y-117300703D01*
X95233669Y-117334505D01*
X95233917Y-117347601D01*
X95234515Y-117347436D01*
X95247903Y-117337023D01*
X95276619Y-117312530D01*
X95317808Y-117276453D01*
X95368615Y-117231288D01*
X95426185Y-117179530D01*
X95437965Y-117168897D01*
X95494878Y-117117903D01*
X95544816Y-117073761D01*
X95584830Y-117039038D01*
X95611972Y-117016297D01*
X95623292Y-117008104D01*
X95625224Y-117011783D01*
X95630513Y-117035697D01*
X95637524Y-117078172D01*
X95645573Y-117134901D01*
X95653977Y-117201575D01*
X95658474Y-117239826D01*
X95667880Y-117319814D01*
X95675831Y-117376767D01*
X95684070Y-117412168D01*
X95694338Y-117427498D01*
X95708377Y-117424241D01*
X95727930Y-117403877D01*
X95754737Y-117367889D01*
X95790542Y-117317758D01*
X95888700Y-117181608D01*
X95888700Y-117050131D01*
X95888631Y-117034894D01*
X95886323Y-116968609D01*
X95881015Y-116920301D01*
X95873074Y-116893632D01*
X95871492Y-116891045D01*
X95864497Y-116868616D01*
X95877942Y-116848115D01*
X95895696Y-116837270D01*
X95921489Y-116838385D01*
X95940173Y-116854694D01*
X95942978Y-116881672D01*
X95942255Y-116900878D01*
X95947711Y-116938956D01*
X95958835Y-116983438D01*
X95969837Y-117017615D01*
X95981971Y-117044183D01*
X95995593Y-117056006D01*
X96014885Y-117058700D01*
X96030673Y-117056838D01*
X96046789Y-117046435D01*
X96062687Y-117022297D01*
X96082726Y-116979325D01*
X96099716Y-116937628D01*
X96112439Y-116900947D01*
X96117302Y-116879206D01*
X96118057Y-116873549D01*
X96132720Y-116856461D01*
X96157197Y-116850544D01*
X96179730Y-116859509D01*
X96188593Y-116871306D01*
X96190731Y-116900124D01*
X96168713Y-116929664D01*
X96155888Y-116946249D01*
X96142785Y-116986065D01*
X96139282Y-117033250D01*
X96145729Y-117077710D01*
X96162477Y-117109347D01*
X96165251Y-117112075D01*
X96179810Y-117123658D01*
X96196505Y-117127600D01*
X96222794Y-117124226D01*
X96266134Y-117113859D01*
X96300346Y-117104069D01*
X96337035Y-117087818D01*
X96352715Y-117069935D01*
X96360284Y-117055471D01*
X96381202Y-117046845D01*
X96406860Y-117061239D01*
X96420620Y-117086868D01*
X96418089Y-117113337D01*
X96399875Y-117129602D01*
X96377810Y-117138466D01*
X96341133Y-117155441D01*
X96297846Y-117176828D01*
X96271246Y-117191400D01*
X96226487Y-117224683D01*
X96206706Y-117256468D01*
X96212079Y-117286536D01*
X96213549Y-117288486D01*
X96234660Y-117303477D01*
X96270521Y-117321207D01*
X96312757Y-117338243D01*
X96352992Y-117351155D01*
X96382849Y-117356509D01*
X96396259Y-117358520D01*
X96417059Y-117374377D01*
X96419869Y-117398751D01*
X96402144Y-117422883D01*
X96399041Y-117425093D01*
X96378564Y-117432646D01*
X96357931Y-117420043D01*
X96355263Y-117417934D01*
X96325281Y-117406016D01*
X96278143Y-117397253D01*
X96220859Y-117392064D01*
X96160441Y-117390868D01*
X96103900Y-117394084D01*
X96058249Y-117402132D01*
X96041657Y-117407608D01*
X96018450Y-117418680D01*
X95991893Y-117436058D01*
X95959080Y-117462089D01*
X95917106Y-117499121D01*
X95863065Y-117549500D01*
X95794052Y-117615576D01*
X95590250Y-117812109D01*
X95574662Y-117648129D01*
X95573788Y-117638971D01*
X95567716Y-117577084D01*
X95562286Y-117524592D01*
X95558064Y-117486795D01*
X95555612Y-117468991D01*
X95555033Y-117468175D01*
X95542049Y-117473572D01*
X95514949Y-117493325D01*
X95477251Y-117524694D01*
X95432475Y-117564936D01*
X95312800Y-117676039D01*
X95386846Y-117802344D01*
X95434141Y-117881556D01*
X95497330Y-117981122D01*
X95555488Y-118063490D01*
X95611659Y-118132288D01*
X95668883Y-118191145D01*
X95730204Y-118243689D01*
X95798663Y-118293550D01*
X95818675Y-118306812D01*
X95902416Y-118356592D01*
X95994007Y-118403771D01*
X96084275Y-118443860D01*
X96164045Y-118472369D01*
X96205149Y-118483173D01*
X96335726Y-118500823D01*
X96470949Y-118495852D01*
X96607029Y-118468911D01*
X96740176Y-118420651D01*
X96866600Y-118351721D01*
X96872237Y-118347981D01*
X96920601Y-118311569D01*
X96979138Y-118261931D01*
X97042225Y-118204340D01*
X97104239Y-118144071D01*
X97159556Y-118086400D01*
X97202554Y-118036600D01*
X97237790Y-117992150D01*
X97208517Y-118042950D01*
X97148546Y-118137309D01*
X97044276Y-118267106D01*
X96926298Y-118378765D01*
X96796703Y-118470877D01*
X96657582Y-118542030D01*
X96511028Y-118590813D01*
X96359133Y-118615816D01*
X96315897Y-118617808D01*
X96226482Y-118615588D01*
X96128428Y-118606921D01*
X96031598Y-118592799D01*
X95945850Y-118574214D01*
X95874512Y-118550837D01*
X95789379Y-118515697D01*
X95700824Y-118473371D01*
X95617406Y-118427960D01*
X95547686Y-118383560D01*
X95480140Y-118331026D01*
X95394314Y-118253183D01*
X95310742Y-118166610D01*
X95236092Y-118078294D01*
X95177034Y-117995224D01*
X95155673Y-117961764D01*
X95129102Y-117921920D01*
X95109460Y-117894630D01*
X95099916Y-117884448D01*
X95090078Y-117890976D01*
X95065210Y-117911801D01*
X95029554Y-117943541D01*
X94987117Y-117982707D01*
X94882054Y-118081215D01*
X95058352Y-118241490D01*
X95101475Y-118280471D01*
X95163632Y-118336338D01*
X95209802Y-118379081D01*
X95241202Y-118411818D01*
X95259048Y-118437667D01*
X95264555Y-118459746D01*
X95258940Y-118481175D01*
X95243419Y-118505072D01*
X95219207Y-118534556D01*
X95187522Y-118572744D01*
X95182233Y-118579327D01*
X95127009Y-118648374D01*
X95085422Y-118702149D01*
X95055389Y-118744843D01*
X95034827Y-118780648D01*
X95021652Y-118813756D01*
X95013783Y-118848358D01*
X95009137Y-118888646D01*
X95005631Y-118938811D01*
X95003114Y-118981383D01*
X95001549Y-119029159D01*
X95003115Y-119059795D01*
X95008189Y-119078222D01*
X95017148Y-119089370D01*
X95029642Y-119105782D01*
X95024387Y-119130133D01*
X95019427Y-119137697D01*
X94996559Y-119152110D01*
X94972007Y-119149417D01*
X94954364Y-119132634D01*
X94952219Y-119104780D01*
X94952604Y-119082470D01*
X94946485Y-119043116D01*
X94934923Y-118997305D01*
X94932491Y-118989235D01*
X94919448Y-118949456D01*
X94908576Y-118928440D01*
X94896062Y-118921182D01*
X94878093Y-118922674D01*
X94859600Y-118929869D01*
X94838506Y-118952148D01*
X94816801Y-118993925D01*
X94806004Y-119019388D01*
X94789467Y-119062443D01*
X94779142Y-119094699D01*
X94769892Y-119114570D01*
X94748416Y-119127086D01*
X94724482Y-119119723D01*
X94705780Y-119092693D01*
X94703827Y-119087066D01*
X94702346Y-119066329D01*
X94718693Y-119056700D01*
X94726566Y-119053337D01*
X94741295Y-119033200D01*
X94750471Y-118992609D01*
X94756224Y-118944397D01*
X94756914Y-118911828D01*
X94751588Y-118889540D01*
X94739582Y-118870067D01*
X94738666Y-118868867D01*
X94726851Y-118857023D01*
X94710854Y-118852285D01*
X94683800Y-118854096D01*
X94638811Y-118861899D01*
X94637650Y-118862119D01*
X94588766Y-118873518D01*
X94560561Y-118885989D01*
X94548420Y-118901557D01*
X94548396Y-118901630D01*
X94531412Y-118921340D01*
X94505264Y-118923852D01*
X94480336Y-118908159D01*
X94471520Y-118881960D01*
X94483914Y-118857217D01*
X94514128Y-118841067D01*
X94535828Y-118833330D01*
X94574605Y-118815607D01*
X94617502Y-118793095D01*
X94622248Y-118790414D01*
X94662546Y-118764699D01*
X94684345Y-118742615D01*
X94692510Y-118719379D01*
X94693187Y-118708357D01*
X94687957Y-118690044D01*
X94669477Y-118673540D01*
X94632607Y-118653161D01*
X94606650Y-118641359D01*
X94563523Y-118626577D01*
X94530223Y-118620800D01*
X94529469Y-118620798D01*
X94502769Y-118619205D01*
X94491700Y-118615488D01*
X94490957Y-118611187D01*
X94484620Y-118591726D01*
X94484905Y-118575517D01*
X94498929Y-118551885D01*
X94512432Y-118540003D01*
X94526698Y-118539050D01*
X94547285Y-118555604D01*
X94552930Y-118560443D01*
X94571538Y-118570895D01*
X94598724Y-118577641D01*
X94640093Y-118581721D01*
X94701250Y-118584175D01*
X94767106Y-118584321D01*
X94833164Y-118579922D01*
X94879050Y-118570839D01*
X94905392Y-118559657D01*
X94943223Y-118538821D01*
X94982225Y-118513763D01*
X95016520Y-118488562D01*
X95040229Y-118467292D01*
X95047476Y-118454032D01*
X95044763Y-118451136D01*
X95025314Y-118435088D01*
X94989696Y-118407436D01*
X94940882Y-118370442D01*
X94881842Y-118326368D01*
X94815550Y-118277476D01*
X94783047Y-118253513D01*
X94720475Y-118206601D01*
X94666993Y-118165460D01*
X94625480Y-118132363D01*
X94598814Y-118109580D01*
X94589872Y-118099381D01*
X94592203Y-118095217D01*
X94607013Y-118073114D01*
X94633569Y-118035125D01*
X94669707Y-117984305D01*
X94713262Y-117923707D01*
X94762070Y-117856386D01*
X94786783Y-117822410D01*
X94833858Y-117757531D01*
X94874981Y-117700643D01*
X94907897Y-117654880D01*
X94930350Y-117623371D01*
X94940086Y-117609249D01*
X94940192Y-117605605D01*
X94932679Y-117582389D01*
X94915395Y-117541654D01*
X94889926Y-117486857D01*
X94857854Y-117421453D01*
X94820765Y-117348899D01*
X94692707Y-117103150D01*
X94712805Y-116780310D01*
X94717370Y-116704805D01*
X94721908Y-116624278D01*
X94725431Y-116555393D01*
X94727775Y-116501575D01*
X94728779Y-116466252D01*
X94728282Y-116452847D01*
X94726996Y-116453425D01*
X94715250Y-116468227D01*
X94693652Y-116499739D01*
X94664719Y-116544209D01*
X94630967Y-116597887D01*
X94620132Y-116615373D01*
X94587541Y-116667852D01*
X94560703Y-116710898D01*
X94542150Y-116740453D01*
X94534418Y-116752461D01*
X94531802Y-116752888D01*
X94509656Y-116751395D01*
X94468812Y-116746728D01*
X94413814Y-116739436D01*
X94349206Y-116730069D01*
X94326427Y-116726677D01*
X94260515Y-116717294D01*
X94203189Y-116709741D01*
X94159951Y-116704720D01*
X94136304Y-116702933D01*
X94107187Y-116708507D01*
X94065037Y-116723484D01*
X94016362Y-116744819D01*
X93967227Y-116769464D01*
X93923698Y-116794374D01*
X93891838Y-116816503D01*
X93877713Y-116832805D01*
X93870276Y-116847040D01*
X93848076Y-116853299D01*
X93847772Y-116853239D01*
X93830536Y-116841321D01*
X93821030Y-116820531D01*
X93821499Y-116800785D01*
X93834190Y-116792000D01*
X93840659Y-116790755D01*
X93864735Y-116776069D01*
X93892855Y-116750156D01*
X93919006Y-116719735D01*
X93937176Y-116691525D01*
X93941352Y-116672245D01*
X93924955Y-116660373D01*
X93891957Y-116653474D01*
X93850843Y-116651960D01*
X93810059Y-116656136D01*
X93778050Y-116666311D01*
X93759293Y-116671722D01*
X93738263Y-116661269D01*
X93729895Y-116631433D01*
X93729903Y-116630685D01*
X93740731Y-116614223D01*
X93763412Y-116606743D01*
X93785285Y-116612560D01*
X93786945Y-116613635D01*
X93809045Y-116614061D01*
X93841608Y-116603490D01*
X93876210Y-116586072D01*
X93904425Y-116565955D01*
X93917828Y-116547289D01*
X93912882Y-116523800D01*
X93894304Y-116491604D01*
X93868193Y-116459034D01*
X93840777Y-116433822D01*
X93818283Y-116423700D01*
X93805657Y-116422436D01*
X93786387Y-116408223D01*
X93788168Y-116380396D01*
X93793653Y-116368898D01*
X93803243Y-116362548D01*
X93819994Y-116366692D01*
X93848450Y-116382694D01*
X93893155Y-116411918D01*
X93943689Y-116442678D01*
X93981268Y-116456956D01*
X94005299Y-116452353D01*
X94018054Y-116428386D01*
X94021800Y-116384571D01*
X94021078Y-116364532D01*
X94015510Y-116324125D01*
X94006244Y-116296844D01*
X93997289Y-116275419D01*
X94005390Y-116257230D01*
X94009426Y-116253704D01*
X94032361Y-116248151D01*
X94051739Y-116261887D01*
X94059900Y-116290268D01*
X94063489Y-116310730D01*
X94077676Y-116351187D01*
X94099154Y-116399484D01*
X94124151Y-116447920D01*
X94148898Y-116488792D01*
X94169624Y-116514398D01*
X94181444Y-116521356D01*
X94212868Y-116534549D01*
X94256363Y-116550200D01*
X94305942Y-116566447D01*
X94355616Y-116581427D01*
X94399396Y-116593278D01*
X94431296Y-116600137D01*
X94445326Y-116600143D01*
X94453252Y-116589744D01*
X94474213Y-116562224D01*
X94505675Y-116520909D01*
X94545145Y-116469074D01*
X94590128Y-116409995D01*
X94731102Y-116224841D01*
X94712342Y-116081171D01*
X94711384Y-116073805D01*
X94703835Y-116011743D01*
X94700222Y-115968171D01*
X94700574Y-115937074D01*
X94704920Y-115912436D01*
X94713292Y-115888243D01*
X94715730Y-115881809D01*
X94728003Y-115836612D01*
X94733000Y-115794792D01*
X94733008Y-115793160D01*
X94737487Y-115762147D01*
X94748875Y-115750595D01*
X94749388Y-115750526D01*
X94760261Y-115737691D01*
X94777259Y-115705842D01*
X94798156Y-115659544D01*
X94820722Y-115603363D01*
X94834394Y-115568368D01*
X94865434Y-115498878D01*
X94893682Y-115454032D01*
X94920765Y-115433795D01*
X94948310Y-115438130D01*
G37*
X94948310Y-115438130D02*
X94977944Y-115467000D01*
X95011293Y-115520369D01*
X95049984Y-115598200D01*
X95072912Y-115645136D01*
X95098123Y-115691243D01*
X95118731Y-115722905D01*
X95132070Y-115735656D01*
X95146030Y-115746906D01*
X95152379Y-115780106D01*
X95152856Y-115788687D01*
X95161004Y-115829579D01*
X95175982Y-115871798D01*
X95185156Y-115894398D01*
X95191653Y-115920671D01*
X95194095Y-115953072D01*
X95192900Y-115997974D01*
X95188489Y-116061748D01*
X95185395Y-116108997D01*
X95183666Y-116158246D01*
X95184221Y-116193248D01*
X95187111Y-116208482D01*
X95187119Y-116208489D01*
X95201536Y-116217270D01*
X95233738Y-116235129D01*
X95278962Y-116259472D01*
X95332448Y-116287703D01*
X95468345Y-116358792D01*
X95538770Y-116248371D01*
X95543112Y-116241517D01*
X95578771Y-116180604D01*
X95601347Y-116132520D01*
X95609248Y-116100606D01*
X95608115Y-116083538D01*
X95599991Y-116040432D01*
X95585975Y-115990127D01*
X95568371Y-115939017D01*
X95549483Y-115893496D01*
X95531615Y-115859956D01*
X95517070Y-115844792D01*
X95507457Y-115840056D01*
X95497679Y-115822096D01*
X95505547Y-115802634D01*
X95528964Y-115791134D01*
X95550069Y-115793779D01*
X95565565Y-115816350D01*
X95572534Y-115833913D01*
X95594873Y-115871085D01*
X95623007Y-115903866D01*
X95651212Y-115926149D01*
X95673767Y-115931826D01*
X95674545Y-115931617D01*
X95689331Y-115922301D01*
X95697076Y-115900675D01*
X95700176Y-115860243D01*
X95700672Y-115838178D01*
X95700747Y-115795843D01*
X95699663Y-115766273D01*
X95699517Y-115760944D01*
X95709085Y-115736782D01*
X95729824Y-115726958D01*
X95752711Y-115736530D01*
X95760240Y-115748657D01*
X95754225Y-115773141D01*
X95748722Y-115793780D01*
X95751625Y-115830960D01*
X95763212Y-115871074D01*
X95780541Y-115904677D01*
X95800673Y-115922326D01*
X95803464Y-115923000D01*
X95831235Y-115919215D01*
X95866663Y-115903735D01*
X95901809Y-115881479D01*
X95928728Y-115857368D01*
X95939478Y-115836325D01*
X95943594Y-115822952D01*
X95965299Y-115814100D01*
X95985760Y-115817707D01*
X95997254Y-115833914D01*
X95988510Y-115860940D01*
X95959694Y-115896352D01*
X95927369Y-115930287D01*
X95897215Y-115969205D01*
X95883787Y-116000641D01*
X95884706Y-116028797D01*
X95887447Y-116038136D01*
X95894653Y-116049407D01*
X95909705Y-116054548D01*
X95938423Y-116054864D01*
X95986626Y-116051660D01*
X96019833Y-116049504D01*
X96057816Y-116049194D01*
X96078761Y-116053451D01*
X96087724Y-116062834D01*
X96089323Y-116068218D01*
X96084990Y-116093098D01*
X96066121Y-116108383D01*
X96041142Y-116106222D01*
X96034143Y-116104370D01*
X96003821Y-116106210D01*
X95959920Y-116115384D01*
X95909328Y-116130003D01*
X95858934Y-116148180D01*
X95815628Y-116168026D01*
X95810633Y-116172004D01*
X95790012Y-116192470D01*
X95757837Y-116226596D01*
X95717420Y-116270667D01*
X95672074Y-116320970D01*
X95625114Y-116373791D01*
X95579851Y-116425416D01*
X95539600Y-116472131D01*
X95507673Y-116510222D01*
X95487384Y-116535975D01*
X95487197Y-116536078D01*
X95473931Y-116530956D01*
X95443275Y-116515695D01*
X95399551Y-116492523D01*
X95347083Y-116463667D01*
X95342535Y-116461130D01*
X95290527Y-116432606D01*
X95247534Y-116409906D01*
X95217911Y-116395274D01*
X95206012Y-116390954D01*
X95205727Y-116396417D01*
X95206960Y-116423560D01*
X95210052Y-116470233D01*
X95214745Y-116532878D01*
X95220780Y-116607940D01*
X95227899Y-116691862D01*
X95227984Y-116692839D01*
X95236936Y-116801382D01*
X95243035Y-116890471D01*
X95246458Y-116965824D01*
X95247378Y-117033160D01*
X95245971Y-117098195D01*
X95242411Y-117166650D01*
X95240982Y-117189527D01*
X95237419Y-117250832D01*
X95234909Y-117300703D01*
X95233669Y-117334505D01*
X95233917Y-117347601D01*
X95234515Y-117347436D01*
X95247903Y-117337023D01*
X95276619Y-117312530D01*
X95317808Y-117276453D01*
X95368615Y-117231288D01*
X95426185Y-117179530D01*
X95437965Y-117168897D01*
X95494878Y-117117903D01*
X95544816Y-117073761D01*
X95584830Y-117039038D01*
X95611972Y-117016297D01*
X95623292Y-117008104D01*
X95625224Y-117011783D01*
X95630513Y-117035697D01*
X95637524Y-117078172D01*
X95645573Y-117134901D01*
X95653977Y-117201575D01*
X95658474Y-117239826D01*
X95667880Y-117319814D01*
X95675831Y-117376767D01*
X95684070Y-117412168D01*
X95694338Y-117427498D01*
X95708377Y-117424241D01*
X95727930Y-117403877D01*
X95754737Y-117367889D01*
X95790542Y-117317758D01*
X95888700Y-117181608D01*
X95888700Y-117050131D01*
X95888631Y-117034894D01*
X95886323Y-116968609D01*
X95881015Y-116920301D01*
X95873074Y-116893632D01*
X95871492Y-116891045D01*
X95864497Y-116868616D01*
X95877942Y-116848115D01*
X95895696Y-116837270D01*
X95921489Y-116838385D01*
X95940173Y-116854694D01*
X95942978Y-116881672D01*
X95942255Y-116900878D01*
X95947711Y-116938956D01*
X95958835Y-116983438D01*
X95969837Y-117017615D01*
X95981971Y-117044183D01*
X95995593Y-117056006D01*
X96014885Y-117058700D01*
X96030673Y-117056838D01*
X96046789Y-117046435D01*
X96062687Y-117022297D01*
X96082726Y-116979325D01*
X96099716Y-116937628D01*
X96112439Y-116900947D01*
X96117302Y-116879206D01*
X96118057Y-116873549D01*
X96132720Y-116856461D01*
X96157197Y-116850544D01*
X96179730Y-116859509D01*
X96188593Y-116871306D01*
X96190731Y-116900124D01*
X96168713Y-116929664D01*
X96155888Y-116946249D01*
X96142785Y-116986065D01*
X96139282Y-117033250D01*
X96145729Y-117077710D01*
X96162477Y-117109347D01*
X96165251Y-117112075D01*
X96179810Y-117123658D01*
X96196505Y-117127600D01*
X96222794Y-117124226D01*
X96266134Y-117113859D01*
X96300346Y-117104069D01*
X96337035Y-117087818D01*
X96352715Y-117069935D01*
X96360284Y-117055471D01*
X96381202Y-117046845D01*
X96406860Y-117061239D01*
X96420620Y-117086868D01*
X96418089Y-117113337D01*
X96399875Y-117129602D01*
X96377810Y-117138466D01*
X96341133Y-117155441D01*
X96297846Y-117176828D01*
X96271246Y-117191400D01*
X96226487Y-117224683D01*
X96206706Y-117256468D01*
X96212079Y-117286536D01*
X96213549Y-117288486D01*
X96234660Y-117303477D01*
X96270521Y-117321207D01*
X96312757Y-117338243D01*
X96352992Y-117351155D01*
X96382849Y-117356509D01*
X96396259Y-117358520D01*
X96417059Y-117374377D01*
X96419869Y-117398751D01*
X96402144Y-117422883D01*
X96399041Y-117425093D01*
X96378564Y-117432646D01*
X96357931Y-117420043D01*
X96355263Y-117417934D01*
X96325281Y-117406016D01*
X96278143Y-117397253D01*
X96220859Y-117392064D01*
X96160441Y-117390868D01*
X96103900Y-117394084D01*
X96058249Y-117402132D01*
X96041657Y-117407608D01*
X96018450Y-117418680D01*
X95991893Y-117436058D01*
X95959080Y-117462089D01*
X95917106Y-117499121D01*
X95863065Y-117549500D01*
X95794052Y-117615576D01*
X95590250Y-117812109D01*
X95574662Y-117648129D01*
X95573788Y-117638971D01*
X95567716Y-117577084D01*
X95562286Y-117524592D01*
X95558064Y-117486795D01*
X95555612Y-117468991D01*
X95555033Y-117468175D01*
X95542049Y-117473572D01*
X95514949Y-117493325D01*
X95477251Y-117524694D01*
X95432475Y-117564936D01*
X95312800Y-117676039D01*
X95386846Y-117802344D01*
X95434141Y-117881556D01*
X95497330Y-117981122D01*
X95555488Y-118063490D01*
X95611659Y-118132288D01*
X95668883Y-118191145D01*
X95730204Y-118243689D01*
X95798663Y-118293550D01*
X95818675Y-118306812D01*
X95902416Y-118356592D01*
X95994007Y-118403771D01*
X96084275Y-118443860D01*
X96164045Y-118472369D01*
X96205149Y-118483173D01*
X96335726Y-118500823D01*
X96470949Y-118495852D01*
X96607029Y-118468911D01*
X96740176Y-118420651D01*
X96866600Y-118351721D01*
X96872237Y-118347981D01*
X96920601Y-118311569D01*
X96979138Y-118261931D01*
X97042225Y-118204340D01*
X97104239Y-118144071D01*
X97159556Y-118086400D01*
X97202554Y-118036600D01*
X97237790Y-117992150D01*
X97208517Y-118042950D01*
X97148546Y-118137309D01*
X97044276Y-118267106D01*
X96926298Y-118378765D01*
X96796703Y-118470877D01*
X96657582Y-118542030D01*
X96511028Y-118590813D01*
X96359133Y-118615816D01*
X96315897Y-118617808D01*
X96226482Y-118615588D01*
X96128428Y-118606921D01*
X96031598Y-118592799D01*
X95945850Y-118574214D01*
X95874512Y-118550837D01*
X95789379Y-118515697D01*
X95700824Y-118473371D01*
X95617406Y-118427960D01*
X95547686Y-118383560D01*
X95480140Y-118331026D01*
X95394314Y-118253183D01*
X95310742Y-118166610D01*
X95236092Y-118078294D01*
X95177034Y-117995224D01*
X95155673Y-117961764D01*
X95129102Y-117921920D01*
X95109460Y-117894630D01*
X95099916Y-117884448D01*
X95090078Y-117890976D01*
X95065210Y-117911801D01*
X95029554Y-117943541D01*
X94987117Y-117982707D01*
X94882054Y-118081215D01*
X95058352Y-118241490D01*
X95101475Y-118280471D01*
X95163632Y-118336338D01*
X95209802Y-118379081D01*
X95241202Y-118411818D01*
X95259048Y-118437667D01*
X95264555Y-118459746D01*
X95258940Y-118481175D01*
X95243419Y-118505072D01*
X95219207Y-118534556D01*
X95187522Y-118572744D01*
X95182233Y-118579327D01*
X95127009Y-118648374D01*
X95085422Y-118702149D01*
X95055389Y-118744843D01*
X95034827Y-118780648D01*
X95021652Y-118813756D01*
X95013783Y-118848358D01*
X95009137Y-118888646D01*
X95005631Y-118938811D01*
X95003114Y-118981383D01*
X95001549Y-119029159D01*
X95003115Y-119059795D01*
X95008189Y-119078222D01*
X95017148Y-119089370D01*
X95029642Y-119105782D01*
X95024387Y-119130133D01*
X95019427Y-119137697D01*
X94996559Y-119152110D01*
X94972007Y-119149417D01*
X94954364Y-119132634D01*
X94952219Y-119104780D01*
X94952604Y-119082470D01*
X94946485Y-119043116D01*
X94934923Y-118997305D01*
X94932491Y-118989235D01*
X94919448Y-118949456D01*
X94908576Y-118928440D01*
X94896062Y-118921182D01*
X94878093Y-118922674D01*
X94859600Y-118929869D01*
X94838506Y-118952148D01*
X94816801Y-118993925D01*
X94806004Y-119019388D01*
X94789467Y-119062443D01*
X94779142Y-119094699D01*
X94769892Y-119114570D01*
X94748416Y-119127086D01*
X94724482Y-119119723D01*
X94705780Y-119092693D01*
X94703827Y-119087066D01*
X94702346Y-119066329D01*
X94718693Y-119056700D01*
X94726566Y-119053337D01*
X94741295Y-119033200D01*
X94750471Y-118992609D01*
X94756224Y-118944397D01*
X94756914Y-118911828D01*
X94751588Y-118889540D01*
X94739582Y-118870067D01*
X94738666Y-118868867D01*
X94726851Y-118857023D01*
X94710854Y-118852285D01*
X94683800Y-118854096D01*
X94638811Y-118861899D01*
X94637650Y-118862119D01*
X94588766Y-118873518D01*
X94560561Y-118885989D01*
X94548420Y-118901557D01*
X94548396Y-118901630D01*
X94531412Y-118921340D01*
X94505264Y-118923852D01*
X94480336Y-118908159D01*
X94471520Y-118881960D01*
X94483914Y-118857217D01*
X94514128Y-118841067D01*
X94535828Y-118833330D01*
X94574605Y-118815607D01*
X94617502Y-118793095D01*
X94622248Y-118790414D01*
X94662546Y-118764699D01*
X94684345Y-118742615D01*
X94692510Y-118719379D01*
X94693187Y-118708357D01*
X94687957Y-118690044D01*
X94669477Y-118673540D01*
X94632607Y-118653161D01*
X94606650Y-118641359D01*
X94563523Y-118626577D01*
X94530223Y-118620800D01*
X94529469Y-118620798D01*
X94502769Y-118619205D01*
X94491700Y-118615488D01*
X94490957Y-118611187D01*
X94484620Y-118591726D01*
X94484905Y-118575517D01*
X94498929Y-118551885D01*
X94512432Y-118540003D01*
X94526698Y-118539050D01*
X94547285Y-118555604D01*
X94552930Y-118560443D01*
X94571538Y-118570895D01*
X94598724Y-118577641D01*
X94640093Y-118581721D01*
X94701250Y-118584175D01*
X94767106Y-118584321D01*
X94833164Y-118579922D01*
X94879050Y-118570839D01*
X94905392Y-118559657D01*
X94943223Y-118538821D01*
X94982225Y-118513763D01*
X95016520Y-118488562D01*
X95040229Y-118467292D01*
X95047476Y-118454032D01*
X95044763Y-118451136D01*
X95025314Y-118435088D01*
X94989696Y-118407436D01*
X94940882Y-118370442D01*
X94881842Y-118326368D01*
X94815550Y-118277476D01*
X94783047Y-118253513D01*
X94720475Y-118206601D01*
X94666993Y-118165460D01*
X94625480Y-118132363D01*
X94598814Y-118109580D01*
X94589872Y-118099381D01*
X94592203Y-118095217D01*
X94607013Y-118073114D01*
X94633569Y-118035125D01*
X94669707Y-117984305D01*
X94713262Y-117923707D01*
X94762070Y-117856386D01*
X94786783Y-117822410D01*
X94833858Y-117757531D01*
X94874981Y-117700643D01*
X94907897Y-117654880D01*
X94930350Y-117623371D01*
X94940086Y-117609249D01*
X94940192Y-117605605D01*
X94932679Y-117582389D01*
X94915395Y-117541654D01*
X94889926Y-117486857D01*
X94857854Y-117421453D01*
X94820765Y-117348899D01*
X94692707Y-117103150D01*
X94712805Y-116780310D01*
X94717370Y-116704805D01*
X94721908Y-116624278D01*
X94725431Y-116555393D01*
X94727775Y-116501575D01*
X94728779Y-116466252D01*
X94728282Y-116452847D01*
X94726996Y-116453425D01*
X94715250Y-116468227D01*
X94693652Y-116499739D01*
X94664719Y-116544209D01*
X94630967Y-116597887D01*
X94620132Y-116615373D01*
X94587541Y-116667852D01*
X94560703Y-116710898D01*
X94542150Y-116740453D01*
X94534418Y-116752461D01*
X94531802Y-116752888D01*
X94509656Y-116751395D01*
X94468812Y-116746728D01*
X94413814Y-116739436D01*
X94349206Y-116730069D01*
X94326427Y-116726677D01*
X94260515Y-116717294D01*
X94203189Y-116709741D01*
X94159951Y-116704720D01*
X94136304Y-116702933D01*
X94107187Y-116708507D01*
X94065037Y-116723484D01*
X94016362Y-116744819D01*
X93967227Y-116769464D01*
X93923698Y-116794374D01*
X93891838Y-116816503D01*
X93877713Y-116832805D01*
X93870276Y-116847040D01*
X93848076Y-116853299D01*
X93847772Y-116853239D01*
X93830536Y-116841321D01*
X93821030Y-116820531D01*
X93821499Y-116800785D01*
X93834190Y-116792000D01*
X93840659Y-116790755D01*
X93864735Y-116776069D01*
X93892855Y-116750156D01*
X93919006Y-116719735D01*
X93937176Y-116691525D01*
X93941352Y-116672245D01*
X93924955Y-116660373D01*
X93891957Y-116653474D01*
X93850843Y-116651960D01*
X93810059Y-116656136D01*
X93778050Y-116666311D01*
X93759293Y-116671722D01*
X93738263Y-116661269D01*
X93729895Y-116631433D01*
X93729903Y-116630685D01*
X93740731Y-116614223D01*
X93763412Y-116606743D01*
X93785285Y-116612560D01*
X93786945Y-116613635D01*
X93809045Y-116614061D01*
X93841608Y-116603490D01*
X93876210Y-116586072D01*
X93904425Y-116565955D01*
X93917828Y-116547289D01*
X93912882Y-116523800D01*
X93894304Y-116491604D01*
X93868193Y-116459034D01*
X93840777Y-116433822D01*
X93818283Y-116423700D01*
X93805657Y-116422436D01*
X93786387Y-116408223D01*
X93788168Y-116380396D01*
X93793653Y-116368898D01*
X93803243Y-116362548D01*
X93819994Y-116366692D01*
X93848450Y-116382694D01*
X93893155Y-116411918D01*
X93943689Y-116442678D01*
X93981268Y-116456956D01*
X94005299Y-116452353D01*
X94018054Y-116428386D01*
X94021800Y-116384571D01*
X94021078Y-116364532D01*
X94015510Y-116324125D01*
X94006244Y-116296844D01*
X93997289Y-116275419D01*
X94005390Y-116257230D01*
X94009426Y-116253704D01*
X94032361Y-116248151D01*
X94051739Y-116261887D01*
X94059900Y-116290268D01*
X94063489Y-116310730D01*
X94077676Y-116351187D01*
X94099154Y-116399484D01*
X94124151Y-116447920D01*
X94148898Y-116488792D01*
X94169624Y-116514398D01*
X94181444Y-116521356D01*
X94212868Y-116534549D01*
X94256363Y-116550200D01*
X94305942Y-116566447D01*
X94355616Y-116581427D01*
X94399396Y-116593278D01*
X94431296Y-116600137D01*
X94445326Y-116600143D01*
X94453252Y-116589744D01*
X94474213Y-116562224D01*
X94505675Y-116520909D01*
X94545145Y-116469074D01*
X94590128Y-116409995D01*
X94731102Y-116224841D01*
X94712342Y-116081171D01*
X94711384Y-116073805D01*
X94703835Y-116011743D01*
X94700222Y-115968171D01*
X94700574Y-115937074D01*
X94704920Y-115912436D01*
X94713292Y-115888243D01*
X94715730Y-115881809D01*
X94728003Y-115836612D01*
X94733000Y-115794792D01*
X94733008Y-115793160D01*
X94737487Y-115762147D01*
X94748875Y-115750595D01*
X94749388Y-115750526D01*
X94760261Y-115737691D01*
X94777259Y-115705842D01*
X94798156Y-115659544D01*
X94820722Y-115603363D01*
X94834394Y-115568368D01*
X94865434Y-115498878D01*
X94893682Y-115454032D01*
X94920765Y-115433795D01*
X94948310Y-115438130D01*
X199541682Y-131282032D02*
X199513434Y-131326878D01*
X199513434Y-131326878D02*
X199482394Y-131396368D01*
X199482394Y-131396368D02*
X199468722Y-131431363D01*
X199468722Y-131431363D02*
X199446156Y-131487544D01*
X199446156Y-131487544D02*
X199425259Y-131533842D01*
X199425259Y-131533842D02*
X199408261Y-131565691D01*
X199408261Y-131565691D02*
X199397388Y-131578526D01*
X199397388Y-131578526D02*
X199396875Y-131578595D01*
X199396875Y-131578595D02*
X199385487Y-131590147D01*
X199385487Y-131590147D02*
X199381008Y-131621160D01*
X199381008Y-131621160D02*
X199381000Y-131622792D01*
X199381000Y-131622792D02*
X199376003Y-131664612D01*
X199376003Y-131664612D02*
X199363730Y-131709809D01*
X199363730Y-131709809D02*
X199361292Y-131716243D01*
X199361292Y-131716243D02*
X199352920Y-131740436D01*
X199352920Y-131740436D02*
X199348574Y-131765074D01*
X199348574Y-131765074D02*
X199348222Y-131796171D01*
X199348222Y-131796171D02*
X199351835Y-131839743D01*
X199351835Y-131839743D02*
X199359384Y-131901805D01*
X199359384Y-131901805D02*
X199360342Y-131909171D01*
X199360342Y-131909171D02*
X199379102Y-132052841D01*
X199379102Y-132052841D02*
X199238128Y-132237995D01*
X199238128Y-132237995D02*
X199193145Y-132297074D01*
X199193145Y-132297074D02*
X199153675Y-132348909D01*
X199153675Y-132348909D02*
X199122213Y-132390224D01*
X199122213Y-132390224D02*
X199101252Y-132417744D01*
X199101252Y-132417744D02*
X199093326Y-132428143D01*
X199093326Y-132428143D02*
X199079296Y-132428137D01*
X199079296Y-132428137D02*
X199047396Y-132421278D01*
X199047396Y-132421278D02*
X199003616Y-132409427D01*
X199003616Y-132409427D02*
X198953942Y-132394447D01*
X198953942Y-132394447D02*
X198904363Y-132378200D01*
X198904363Y-132378200D02*
X198860868Y-132362549D01*
X198860868Y-132362549D02*
X198829444Y-132349356D01*
X198829444Y-132349356D02*
X198817624Y-132342398D01*
X198817624Y-132342398D02*
X198796898Y-132316792D01*
X198796898Y-132316792D02*
X198772151Y-132275920D01*
X198772151Y-132275920D02*
X198747154Y-132227484D01*
X198747154Y-132227484D02*
X198725676Y-132179187D01*
X198725676Y-132179187D02*
X198711489Y-132138730D01*
X198711489Y-132138730D02*
X198707900Y-132118268D01*
X198707900Y-132118268D02*
X198699739Y-132089887D01*
X198699739Y-132089887D02*
X198680361Y-132076151D01*
X198680361Y-132076151D02*
X198657426Y-132081704D01*
X198657426Y-132081704D02*
X198653390Y-132085230D01*
X198653390Y-132085230D02*
X198645289Y-132103419D01*
X198645289Y-132103419D02*
X198654244Y-132124844D01*
X198654244Y-132124844D02*
X198663510Y-132152125D01*
X198663510Y-132152125D02*
X198669078Y-132192532D01*
X198669078Y-132192532D02*
X198669800Y-132212571D01*
X198669800Y-132212571D02*
X198666054Y-132256386D01*
X198666054Y-132256386D02*
X198653299Y-132280353D01*
X198653299Y-132280353D02*
X198629268Y-132284956D01*
X198629268Y-132284956D02*
X198591689Y-132270678D01*
X198591689Y-132270678D02*
X198541155Y-132239918D01*
X198541155Y-132239918D02*
X198496450Y-132210694D01*
X198496450Y-132210694D02*
X198467994Y-132194692D01*
X198467994Y-132194692D02*
X198451243Y-132190548D01*
X198451243Y-132190548D02*
X198441653Y-132196898D01*
X198441653Y-132196898D02*
X198436168Y-132208396D01*
X198436168Y-132208396D02*
X198434387Y-132236223D01*
X198434387Y-132236223D02*
X198453657Y-132250436D01*
X198453657Y-132250436D02*
X198466283Y-132251700D01*
X198466283Y-132251700D02*
X198488777Y-132261822D01*
X198488777Y-132261822D02*
X198516193Y-132287034D01*
X198516193Y-132287034D02*
X198542304Y-132319604D01*
X198542304Y-132319604D02*
X198560882Y-132351800D01*
X198560882Y-132351800D02*
X198565828Y-132375289D01*
X198565828Y-132375289D02*
X198552425Y-132393955D01*
X198552425Y-132393955D02*
X198524210Y-132414072D01*
X198524210Y-132414072D02*
X198489608Y-132431490D01*
X198489608Y-132431490D02*
X198457045Y-132442061D01*
X198457045Y-132442061D02*
X198434945Y-132441635D01*
X198434945Y-132441635D02*
X198433285Y-132440560D01*
X198433285Y-132440560D02*
X198411412Y-132434743D01*
X198411412Y-132434743D02*
X198388731Y-132442223D01*
X198388731Y-132442223D02*
X198377903Y-132458685D01*
X198377903Y-132458685D02*
X198377895Y-132459433D01*
X198377895Y-132459433D02*
X198386263Y-132489269D01*
X198386263Y-132489269D02*
X198407293Y-132499722D01*
X198407293Y-132499722D02*
X198426050Y-132494311D01*
X198426050Y-132494311D02*
X198458059Y-132484136D01*
X198458059Y-132484136D02*
X198498843Y-132479960D01*
X198498843Y-132479960D02*
X198539957Y-132481474D01*
X198539957Y-132481474D02*
X198572955Y-132488373D01*
X198572955Y-132488373D02*
X198589352Y-132500245D01*
X198589352Y-132500245D02*
X198585176Y-132519525D01*
X198585176Y-132519525D02*
X198567006Y-132547735D01*
X198567006Y-132547735D02*
X198540855Y-132578156D01*
X198540855Y-132578156D02*
X198512735Y-132604069D01*
X198512735Y-132604069D02*
X198488659Y-132618755D01*
X198488659Y-132618755D02*
X198482190Y-132620000D01*
X198482190Y-132620000D02*
X198469499Y-132628785D01*
X198469499Y-132628785D02*
X198469030Y-132648531D01*
X198469030Y-132648531D02*
X198478536Y-132669321D01*
X198478536Y-132669321D02*
X198495772Y-132681239D01*
X198495772Y-132681239D02*
X198496076Y-132681299D01*
X198496076Y-132681299D02*
X198518276Y-132675040D01*
X198518276Y-132675040D02*
X198525713Y-132660805D01*
X198525713Y-132660805D02*
X198539838Y-132644503D01*
X198539838Y-132644503D02*
X198571698Y-132622374D01*
X198571698Y-132622374D02*
X198615227Y-132597464D01*
X198615227Y-132597464D02*
X198664362Y-132572819D01*
X198664362Y-132572819D02*
X198713037Y-132551484D01*
X198713037Y-132551484D02*
X198755187Y-132536507D01*
X198755187Y-132536507D02*
X198784304Y-132530933D01*
X198784304Y-132530933D02*
X198807951Y-132532720D01*
X198807951Y-132532720D02*
X198851189Y-132537741D01*
X198851189Y-132537741D02*
X198908515Y-132545294D01*
X198908515Y-132545294D02*
X198974427Y-132554677D01*
X198974427Y-132554677D02*
X198997206Y-132558069D01*
X198997206Y-132558069D02*
X199061814Y-132567436D01*
X199061814Y-132567436D02*
X199116812Y-132574728D01*
X199116812Y-132574728D02*
X199157656Y-132579395D01*
X199157656Y-132579395D02*
X199179802Y-132580888D01*
X199179802Y-132580888D02*
X199182418Y-132580461D01*
X199182418Y-132580461D02*
X199190150Y-132568453D01*
X199190150Y-132568453D02*
X199208703Y-132538898D01*
X199208703Y-132538898D02*
X199235541Y-132495852D01*
X199235541Y-132495852D02*
X199268132Y-132443373D01*
X199268132Y-132443373D02*
X199278967Y-132425887D01*
X199278967Y-132425887D02*
X199312719Y-132372209D01*
X199312719Y-132372209D02*
X199341652Y-132327739D01*
X199341652Y-132327739D02*
X199363250Y-132296227D01*
X199363250Y-132296227D02*
X199374996Y-132281425D01*
X199374996Y-132281425D02*
X199376282Y-132280847D01*
X199376282Y-132280847D02*
X199376779Y-132294252D01*
X199376779Y-132294252D02*
X199375775Y-132329575D01*
X199375775Y-132329575D02*
X199373431Y-132383393D01*
X199373431Y-132383393D02*
X199369908Y-132452278D01*
X199369908Y-132452278D02*
X199365370Y-132532805D01*
X199365370Y-132532805D02*
X199360805Y-132608310D01*
X199360805Y-132608310D02*
X199340707Y-132931150D01*
X199340707Y-132931150D02*
X199468765Y-133176899D01*
X199468765Y-133176899D02*
X199505854Y-133249453D01*
X199505854Y-133249453D02*
X199537926Y-133314857D01*
X199537926Y-133314857D02*
X199563395Y-133369654D01*
X199563395Y-133369654D02*
X199580679Y-133410389D01*
X199580679Y-133410389D02*
X199588192Y-133433605D01*
X199588192Y-133433605D02*
X199588086Y-133437249D01*
X199588086Y-133437249D02*
X199578350Y-133451371D01*
X199578350Y-133451371D02*
X199555897Y-133482880D01*
X199555897Y-133482880D02*
X199522981Y-133528643D01*
X199522981Y-133528643D02*
X199481858Y-133585531D01*
X199481858Y-133585531D02*
X199434783Y-133650410D01*
X199434783Y-133650410D02*
X199410070Y-133684386D01*
X199410070Y-133684386D02*
X199361262Y-133751707D01*
X199361262Y-133751707D02*
X199317707Y-133812305D01*
X199317707Y-133812305D02*
X199281569Y-133863125D01*
X199281569Y-133863125D02*
X199255013Y-133901114D01*
X199255013Y-133901114D02*
X199240203Y-133923217D01*
X199240203Y-133923217D02*
X199237872Y-133927381D01*
X199237872Y-133927381D02*
X199246814Y-133937580D01*
X199246814Y-133937580D02*
X199273480Y-133960363D01*
X199273480Y-133960363D02*
X199314993Y-133993460D01*
X199314993Y-133993460D02*
X199368475Y-134034601D01*
X199368475Y-134034601D02*
X199431047Y-134081513D01*
X199431047Y-134081513D02*
X199463550Y-134105476D01*
X199463550Y-134105476D02*
X199529842Y-134154368D01*
X199529842Y-134154368D02*
X199588882Y-134198442D01*
X199588882Y-134198442D02*
X199637696Y-134235436D01*
X199637696Y-134235436D02*
X199673314Y-134263088D01*
X199673314Y-134263088D02*
X199692763Y-134279136D01*
X199692763Y-134279136D02*
X199695476Y-134282032D01*
X199695476Y-134282032D02*
X199688229Y-134295292D01*
X199688229Y-134295292D02*
X199664520Y-134316562D01*
X199664520Y-134316562D02*
X199630225Y-134341763D01*
X199630225Y-134341763D02*
X199591223Y-134366821D01*
X199591223Y-134366821D02*
X199553392Y-134387657D01*
X199553392Y-134387657D02*
X199527050Y-134398839D01*
X199527050Y-134398839D02*
X199481164Y-134407922D01*
X199481164Y-134407922D02*
X199415106Y-134412321D01*
X199415106Y-134412321D02*
X199349250Y-134412175D01*
X199349250Y-134412175D02*
X199288093Y-134409721D01*
X199288093Y-134409721D02*
X199246724Y-134405641D01*
X199246724Y-134405641D02*
X199219538Y-134398895D01*
X199219538Y-134398895D02*
X199200930Y-134388443D01*
X199200930Y-134388443D02*
X199195285Y-134383604D01*
X199195285Y-134383604D02*
X199174698Y-134367050D01*
X199174698Y-134367050D02*
X199160432Y-134368003D01*
X199160432Y-134368003D02*
X199146929Y-134379885D01*
X199146929Y-134379885D02*
X199132905Y-134403517D01*
X199132905Y-134403517D02*
X199132620Y-134419726D01*
X199132620Y-134419726D02*
X199138957Y-134439187D01*
X199138957Y-134439187D02*
X199139700Y-134443488D01*
X199139700Y-134443488D02*
X199150769Y-134447205D01*
X199150769Y-134447205D02*
X199177469Y-134448798D01*
X199177469Y-134448798D02*
X199178223Y-134448800D01*
X199178223Y-134448800D02*
X199211523Y-134454577D01*
X199211523Y-134454577D02*
X199254650Y-134469359D01*
X199254650Y-134469359D02*
X199280607Y-134481161D01*
X199280607Y-134481161D02*
X199317477Y-134501540D01*
X199317477Y-134501540D02*
X199335957Y-134518044D01*
X199335957Y-134518044D02*
X199341187Y-134536357D01*
X199341187Y-134536357D02*
X199340510Y-134547379D01*
X199340510Y-134547379D02*
X199332345Y-134570615D01*
X199332345Y-134570615D02*
X199310546Y-134592699D01*
X199310546Y-134592699D02*
X199270248Y-134618414D01*
X199270248Y-134618414D02*
X199265502Y-134621095D01*
X199265502Y-134621095D02*
X199222605Y-134643607D01*
X199222605Y-134643607D02*
X199183828Y-134661330D01*
X199183828Y-134661330D02*
X199162128Y-134669067D01*
X199162128Y-134669067D02*
X199131914Y-134685217D01*
X199131914Y-134685217D02*
X199119520Y-134709960D01*
X199119520Y-134709960D02*
X199128336Y-134736159D01*
X199128336Y-134736159D02*
X199153264Y-134751852D01*
X199153264Y-134751852D02*
X199179412Y-134749340D01*
X199179412Y-134749340D02*
X199196396Y-134729630D01*
X199196396Y-134729630D02*
X199196420Y-134729557D01*
X199196420Y-134729557D02*
X199208561Y-134713989D01*
X199208561Y-134713989D02*
X199236766Y-134701518D01*
X199236766Y-134701518D02*
X199285650Y-134690119D01*
X199285650Y-134690119D02*
X199286811Y-134689899D01*
X199286811Y-134689899D02*
X199331800Y-134682096D01*
X199331800Y-134682096D02*
X199358854Y-134680285D01*
X199358854Y-134680285D02*
X199374851Y-134685023D01*
X199374851Y-134685023D02*
X199386666Y-134696867D01*
X199386666Y-134696867D02*
X199387582Y-134698067D01*
X199387582Y-134698067D02*
X199399588Y-134717540D01*
X199399588Y-134717540D02*
X199404914Y-134739828D01*
X199404914Y-134739828D02*
X199404224Y-134772397D01*
X199404224Y-134772397D02*
X199398471Y-134820609D01*
X199398471Y-134820609D02*
X199389295Y-134861200D01*
X199389295Y-134861200D02*
X199374566Y-134881337D01*
X199374566Y-134881337D02*
X199366693Y-134884700D01*
X199366693Y-134884700D02*
X199350346Y-134894329D01*
X199350346Y-134894329D02*
X199351827Y-134915066D01*
X199351827Y-134915066D02*
X199353780Y-134920693D01*
X199353780Y-134920693D02*
X199372482Y-134947723D01*
X199372482Y-134947723D02*
X199396416Y-134955086D01*
X199396416Y-134955086D02*
X199417892Y-134942570D01*
X199417892Y-134942570D02*
X199427142Y-134922699D01*
X199427142Y-134922699D02*
X199437467Y-134890443D01*
X199437467Y-134890443D02*
X199454004Y-134847388D01*
X199454004Y-134847388D02*
X199464801Y-134821925D01*
X199464801Y-134821925D02*
X199486506Y-134780148D01*
X199486506Y-134780148D02*
X199507600Y-134757869D01*
X199507600Y-134757869D02*
X199526093Y-134750674D01*
X199526093Y-134750674D02*
X199544062Y-134749182D01*
X199544062Y-134749182D02*
X199556576Y-134756440D01*
X199556576Y-134756440D02*
X199567448Y-134777456D01*
X199567448Y-134777456D02*
X199580491Y-134817235D01*
X199580491Y-134817235D02*
X199582923Y-134825305D01*
X199582923Y-134825305D02*
X199594485Y-134871116D01*
X199594485Y-134871116D02*
X199600604Y-134910470D01*
X199600604Y-134910470D02*
X199600219Y-134932780D01*
X199600219Y-134932780D02*
X199602364Y-134960634D01*
X199602364Y-134960634D02*
X199620007Y-134977417D01*
X199620007Y-134977417D02*
X199644559Y-134980110D01*
X199644559Y-134980110D02*
X199667427Y-134965697D01*
X199667427Y-134965697D02*
X199672387Y-134958133D01*
X199672387Y-134958133D02*
X199677642Y-134933782D01*
X199677642Y-134933782D02*
X199665148Y-134917370D01*
X199665148Y-134917370D02*
X199656189Y-134906222D01*
X199656189Y-134906222D02*
X199651115Y-134887795D01*
X199651115Y-134887795D02*
X199649549Y-134857159D01*
X199649549Y-134857159D02*
X199651114Y-134809383D01*
X199651114Y-134809383D02*
X199653631Y-134766811D01*
X199653631Y-134766811D02*
X199657137Y-134716646D01*
X199657137Y-134716646D02*
X199661783Y-134676358D01*
X199661783Y-134676358D02*
X199669652Y-134641756D01*
X199669652Y-134641756D02*
X199682827Y-134608648D01*
X199682827Y-134608648D02*
X199703389Y-134572843D01*
X199703389Y-134572843D02*
X199733422Y-134530149D01*
X199733422Y-134530149D02*
X199775009Y-134476374D01*
X199775009Y-134476374D02*
X199830233Y-134407327D01*
X199830233Y-134407327D02*
X199835522Y-134400744D01*
X199835522Y-134400744D02*
X199867207Y-134362556D01*
X199867207Y-134362556D02*
X199891419Y-134333072D01*
X199891419Y-134333072D02*
X199906940Y-134309175D01*
X199906940Y-134309175D02*
X199912555Y-134287746D01*
X199912555Y-134287746D02*
X199907048Y-134265667D01*
X199907048Y-134265667D02*
X199889202Y-134239818D01*
X199889202Y-134239818D02*
X199857802Y-134207081D01*
X199857802Y-134207081D02*
X199811632Y-134164338D01*
X199811632Y-134164338D02*
X199749475Y-134108471D01*
X199749475Y-134108471D02*
X199706352Y-134069490D01*
X199706352Y-134069490D02*
X199530054Y-133909215D01*
X199530054Y-133909215D02*
X199635117Y-133810707D01*
X199635117Y-133810707D02*
X199677554Y-133771541D01*
X199677554Y-133771541D02*
X199713210Y-133739801D01*
X199713210Y-133739801D02*
X199738078Y-133718976D01*
X199738078Y-133718976D02*
X199747916Y-133712448D01*
X199747916Y-133712448D02*
X199757460Y-133722630D01*
X199757460Y-133722630D02*
X199777102Y-133749920D01*
X199777102Y-133749920D02*
X199803673Y-133789764D01*
X199803673Y-133789764D02*
X199825034Y-133823224D01*
X199825034Y-133823224D02*
X199884092Y-133906294D01*
X199884092Y-133906294D02*
X199958742Y-133994610D01*
X199958742Y-133994610D02*
X200042314Y-134081183D01*
X200042314Y-134081183D02*
X200128140Y-134159026D01*
X200128140Y-134159026D02*
X200195686Y-134211560D01*
X200195686Y-134211560D02*
X200265406Y-134255960D01*
X200265406Y-134255960D02*
X200348824Y-134301371D01*
X200348824Y-134301371D02*
X200437379Y-134343697D01*
X200437379Y-134343697D02*
X200522512Y-134378837D01*
X200522512Y-134378837D02*
X200593850Y-134402214D01*
X200593850Y-134402214D02*
X200679598Y-134420799D01*
X200679598Y-134420799D02*
X200776428Y-134434921D01*
X200776428Y-134434921D02*
X200874482Y-134443588D01*
X200874482Y-134443588D02*
X200963897Y-134445808D01*
X200963897Y-134445808D02*
X201007133Y-134443816D01*
X201007133Y-134443816D02*
X201159028Y-134418813D01*
X201159028Y-134418813D02*
X201305582Y-134370030D01*
X201305582Y-134370030D02*
X201444703Y-134298877D01*
X201444703Y-134298877D02*
X201574298Y-134206765D01*
X201574298Y-134206765D02*
X201692276Y-134095106D01*
X201692276Y-134095106D02*
X201796546Y-133965309D01*
X201796546Y-133965309D02*
X201856517Y-133870950D01*
X201856517Y-133870950D02*
X201885790Y-133820150D01*
X201885790Y-133820150D02*
X201850554Y-133864600D01*
X201850554Y-133864600D02*
X201807556Y-133914400D01*
X201807556Y-133914400D02*
X201752239Y-133972071D01*
X201752239Y-133972071D02*
X201690225Y-134032340D01*
X201690225Y-134032340D02*
X201627138Y-134089931D01*
X201627138Y-134089931D02*
X201568601Y-134139569D01*
X201568601Y-134139569D02*
X201520237Y-134175981D01*
X201520237Y-134175981D02*
X201514600Y-134179721D01*
X201514600Y-134179721D02*
X201388176Y-134248651D01*
X201388176Y-134248651D02*
X201255029Y-134296911D01*
X201255029Y-134296911D02*
X201118949Y-134323852D01*
X201118949Y-134323852D02*
X200983726Y-134328823D01*
X200983726Y-134328823D02*
X200853149Y-134311173D01*
X200853149Y-134311173D02*
X200812045Y-134300369D01*
X200812045Y-134300369D02*
X200732275Y-134271860D01*
X200732275Y-134271860D02*
X200642007Y-134231771D01*
X200642007Y-134231771D02*
X200550416Y-134184592D01*
X200550416Y-134184592D02*
X200466675Y-134134812D01*
X200466675Y-134134812D02*
X200446663Y-134121550D01*
X200446663Y-134121550D02*
X200378204Y-134071689D01*
X200378204Y-134071689D02*
X200316883Y-134019145D01*
X200316883Y-134019145D02*
X200259659Y-133960288D01*
X200259659Y-133960288D02*
X200203488Y-133891490D01*
X200203488Y-133891490D02*
X200145330Y-133809122D01*
X200145330Y-133809122D02*
X200082141Y-133709556D01*
X200082141Y-133709556D02*
X200034846Y-133630344D01*
X200034846Y-133630344D02*
X199960800Y-133504039D01*
X199960800Y-133504039D02*
X200080475Y-133392936D01*
X200080475Y-133392936D02*
X200125251Y-133352694D01*
X200125251Y-133352694D02*
X200162949Y-133321325D01*
X200162949Y-133321325D02*
X200190049Y-133301572D01*
X200190049Y-133301572D02*
X200203033Y-133296175D01*
X200203033Y-133296175D02*
X200203612Y-133296991D01*
X200203612Y-133296991D02*
X200206064Y-133314795D01*
X200206064Y-133314795D02*
X200210286Y-133352592D01*
X200210286Y-133352592D02*
X200215716Y-133405084D01*
X200215716Y-133405084D02*
X200221788Y-133466971D01*
X200221788Y-133466971D02*
X200222662Y-133476129D01*
X200222662Y-133476129D02*
X200238250Y-133640109D01*
X200238250Y-133640109D02*
X200442052Y-133443576D01*
X200442052Y-133443576D02*
X200511065Y-133377500D01*
X200511065Y-133377500D02*
X200565106Y-133327121D01*
X200565106Y-133327121D02*
X200607080Y-133290089D01*
X200607080Y-133290089D02*
X200639893Y-133264058D01*
X200639893Y-133264058D02*
X200666450Y-133246680D01*
X200666450Y-133246680D02*
X200689657Y-133235608D01*
X200689657Y-133235608D02*
X200706249Y-133230132D01*
X200706249Y-133230132D02*
X200751900Y-133222084D01*
X200751900Y-133222084D02*
X200808441Y-133218868D01*
X200808441Y-133218868D02*
X200868859Y-133220064D01*
X200868859Y-133220064D02*
X200926143Y-133225253D01*
X200926143Y-133225253D02*
X200973281Y-133234016D01*
X200973281Y-133234016D02*
X201003263Y-133245934D01*
X201003263Y-133245934D02*
X201005931Y-133248043D01*
X201005931Y-133248043D02*
X201026564Y-133260646D01*
X201026564Y-133260646D02*
X201047041Y-133253093D01*
X201047041Y-133253093D02*
X201050144Y-133250883D01*
X201050144Y-133250883D02*
X201067869Y-133226751D01*
X201067869Y-133226751D02*
X201065059Y-133202377D01*
X201065059Y-133202377D02*
X201044259Y-133186520D01*
X201044259Y-133186520D02*
X201030849Y-133184509D01*
X201030849Y-133184509D02*
X201000992Y-133179155D01*
X201000992Y-133179155D02*
X200960757Y-133166243D01*
X200960757Y-133166243D02*
X200918521Y-133149207D01*
X200918521Y-133149207D02*
X200882660Y-133131477D01*
X200882660Y-133131477D02*
X200861549Y-133116486D01*
X200861549Y-133116486D02*
X200860079Y-133114536D01*
X200860079Y-133114536D02*
X200854706Y-133084468D01*
X200854706Y-133084468D02*
X200874487Y-133052683D01*
X200874487Y-133052683D02*
X200919246Y-133019400D01*
X200919246Y-133019400D02*
X200945846Y-133004828D01*
X200945846Y-133004828D02*
X200989133Y-132983441D01*
X200989133Y-132983441D02*
X201025810Y-132966466D01*
X201025810Y-132966466D02*
X201047875Y-132957602D01*
X201047875Y-132957602D02*
X201066089Y-132941337D01*
X201066089Y-132941337D02*
X201068620Y-132914868D01*
X201068620Y-132914868D02*
X201054860Y-132889239D01*
X201054860Y-132889239D02*
X201029202Y-132874845D01*
X201029202Y-132874845D02*
X201008284Y-132883471D01*
X201008284Y-132883471D02*
X201000715Y-132897935D01*
X201000715Y-132897935D02*
X200985035Y-132915818D01*
X200985035Y-132915818D02*
X200948346Y-132932069D01*
X200948346Y-132932069D02*
X200914134Y-132941859D01*
X200914134Y-132941859D02*
X200870794Y-132952226D01*
X200870794Y-132952226D02*
X200844505Y-132955600D01*
X200844505Y-132955600D02*
X200827810Y-132951658D01*
X200827810Y-132951658D02*
X200813251Y-132940075D01*
X200813251Y-132940075D02*
X200810477Y-132937347D01*
X200810477Y-132937347D02*
X200793729Y-132905710D01*
X200793729Y-132905710D02*
X200787282Y-132861250D01*
X200787282Y-132861250D02*
X200790785Y-132814065D01*
X200790785Y-132814065D02*
X200803888Y-132774249D01*
X200803888Y-132774249D02*
X200816713Y-132757664D01*
X200816713Y-132757664D02*
X200838731Y-132728124D01*
X200838731Y-132728124D02*
X200836593Y-132699306D01*
X200836593Y-132699306D02*
X200827730Y-132687509D01*
X200827730Y-132687509D02*
X200805197Y-132678544D01*
X200805197Y-132678544D02*
X200780720Y-132684461D01*
X200780720Y-132684461D02*
X200766057Y-132701549D01*
X200766057Y-132701549D02*
X200765302Y-132707206D01*
X200765302Y-132707206D02*
X200760439Y-132728947D01*
X200760439Y-132728947D02*
X200747716Y-132765628D01*
X200747716Y-132765628D02*
X200730726Y-132807325D01*
X200730726Y-132807325D02*
X200710687Y-132850297D01*
X200710687Y-132850297D02*
X200694789Y-132874435D01*
X200694789Y-132874435D02*
X200678673Y-132884838D01*
X200678673Y-132884838D02*
X200662885Y-132886700D01*
X200662885Y-132886700D02*
X200643593Y-132884006D01*
X200643593Y-132884006D02*
X200629971Y-132872183D01*
X200629971Y-132872183D02*
X200617837Y-132845615D01*
X200617837Y-132845615D02*
X200606835Y-132811438D01*
X200606835Y-132811438D02*
X200595711Y-132766956D01*
X200595711Y-132766956D02*
X200590255Y-132728878D01*
X200590255Y-132728878D02*
X200590978Y-132709672D01*
X200590978Y-132709672D02*
X200588173Y-132682694D01*
X200588173Y-132682694D02*
X200569489Y-132666385D01*
X200569489Y-132666385D02*
X200543696Y-132665270D01*
X200543696Y-132665270D02*
X200525942Y-132676115D01*
X200525942Y-132676115D02*
X200512497Y-132696616D01*
X200512497Y-132696616D02*
X200519492Y-132719045D01*
X200519492Y-132719045D02*
X200521074Y-132721632D01*
X200521074Y-132721632D02*
X200529015Y-132748301D01*
X200529015Y-132748301D02*
X200534323Y-132796609D01*
X200534323Y-132796609D02*
X200536631Y-132862894D01*
X200536631Y-132862894D02*
X200536700Y-132878131D01*
X200536700Y-132878131D02*
X200536700Y-133009608D01*
X200536700Y-133009608D02*
X200438542Y-133145758D01*
X200438542Y-133145758D02*
X200402737Y-133195889D01*
X200402737Y-133195889D02*
X200375930Y-133231877D01*
X200375930Y-133231877D02*
X200356377Y-133252241D01*
X200356377Y-133252241D02*
X200342338Y-133255498D01*
X200342338Y-133255498D02*
X200332070Y-133240168D01*
X200332070Y-133240168D02*
X200323831Y-133204767D01*
X200323831Y-133204767D02*
X200315880Y-133147814D01*
X200315880Y-133147814D02*
X200306474Y-133067826D01*
X200306474Y-133067826D02*
X200301977Y-133029575D01*
X200301977Y-133029575D02*
X200293573Y-132962901D01*
X200293573Y-132962901D02*
X200285524Y-132906172D01*
X200285524Y-132906172D02*
X200278513Y-132863697D01*
X200278513Y-132863697D02*
X200273224Y-132839783D01*
X200273224Y-132839783D02*
X200271292Y-132836104D01*
X200271292Y-132836104D02*
X200259972Y-132844297D01*
X200259972Y-132844297D02*
X200232830Y-132867038D01*
X200232830Y-132867038D02*
X200192816Y-132901761D01*
X200192816Y-132901761D02*
X200142878Y-132945903D01*
X200142878Y-132945903D02*
X200085965Y-132996897D01*
X200085965Y-132996897D02*
X200074185Y-133007530D01*
X200074185Y-133007530D02*
X200016615Y-133059288D01*
X200016615Y-133059288D02*
X199965808Y-133104453D01*
X199965808Y-133104453D02*
X199924619Y-133140530D01*
X199924619Y-133140530D02*
X199895903Y-133165023D01*
X199895903Y-133165023D02*
X199882515Y-133175436D01*
X199882515Y-133175436D02*
X199881917Y-133175601D01*
X199881917Y-133175601D02*
X199881669Y-133162505D01*
X199881669Y-133162505D02*
X199882909Y-133128703D01*
X199882909Y-133128703D02*
X199885419Y-133078832D01*
X199885419Y-133078832D02*
X199888982Y-133017527D01*
X199888982Y-133017527D02*
X199890411Y-132994650D01*
X199890411Y-132994650D02*
X199893971Y-132926195D01*
X199893971Y-132926195D02*
X199895378Y-132861160D01*
X199895378Y-132861160D02*
X199894458Y-132793824D01*
X199894458Y-132793824D02*
X199891035Y-132718471D01*
X199891035Y-132718471D02*
X199884936Y-132629382D01*
X199884936Y-132629382D02*
X199875984Y-132520839D01*
X199875984Y-132520839D02*
X199875899Y-132519862D01*
X199875899Y-132519862D02*
X199868780Y-132435940D01*
X199868780Y-132435940D02*
X199862745Y-132360878D01*
X199862745Y-132360878D02*
X199858052Y-132298233D01*
X199858052Y-132298233D02*
X199854960Y-132251560D01*
X199854960Y-132251560D02*
X199853727Y-132224417D01*
X199853727Y-132224417D02*
X199854012Y-132218954D01*
X199854012Y-132218954D02*
X199865911Y-132223274D01*
X199865911Y-132223274D02*
X199895534Y-132237906D01*
X199895534Y-132237906D02*
X199938527Y-132260606D01*
X199938527Y-132260606D02*
X199990535Y-132289130D01*
X199990535Y-132289130D02*
X199995083Y-132291667D01*
X199995083Y-132291667D02*
X200047551Y-132320523D01*
X200047551Y-132320523D02*
X200091275Y-132343695D01*
X200091275Y-132343695D02*
X200121931Y-132358956D01*
X200121931Y-132358956D02*
X200135197Y-132364078D01*
X200135197Y-132364078D02*
X200135384Y-132363975D01*
X200135384Y-132363975D02*
X200155673Y-132338222D01*
X200155673Y-132338222D02*
X200187600Y-132300131D01*
X200187600Y-132300131D02*
X200227851Y-132253416D01*
X200227851Y-132253416D02*
X200273114Y-132201791D01*
X200273114Y-132201791D02*
X200320074Y-132148970D01*
X200320074Y-132148970D02*
X200365420Y-132098667D01*
X200365420Y-132098667D02*
X200405837Y-132054596D01*
X200405837Y-132054596D02*
X200438012Y-132020470D01*
X200438012Y-132020470D02*
X200458633Y-132000004D01*
X200458633Y-132000004D02*
X200463628Y-131996026D01*
X200463628Y-131996026D02*
X200506934Y-131976180D01*
X200506934Y-131976180D02*
X200557328Y-131958003D01*
X200557328Y-131958003D02*
X200607920Y-131943384D01*
X200607920Y-131943384D02*
X200651821Y-131934210D01*
X200651821Y-131934210D02*
X200682143Y-131932370D01*
X200682143Y-131932370D02*
X200689142Y-131934222D01*
X200689142Y-131934222D02*
X200714121Y-131936383D01*
X200714121Y-131936383D02*
X200732990Y-131921098D01*
X200732990Y-131921098D02*
X200737323Y-131896218D01*
X200737323Y-131896218D02*
X200735724Y-131890834D01*
X200735724Y-131890834D02*
X200726761Y-131881451D01*
X200726761Y-131881451D02*
X200705816Y-131877194D01*
X200705816Y-131877194D02*
X200667833Y-131877504D01*
X200667833Y-131877504D02*
X200634626Y-131879660D01*
X200634626Y-131879660D02*
X200586423Y-131882864D01*
X200586423Y-131882864D02*
X200557705Y-131882548D01*
X200557705Y-131882548D02*
X200542653Y-131877407D01*
X200542653Y-131877407D02*
X200535447Y-131866136D01*
X200535447Y-131866136D02*
X200532706Y-131856797D01*
X200532706Y-131856797D02*
X200531787Y-131828641D01*
X200531787Y-131828641D02*
X200545215Y-131797205D01*
X200545215Y-131797205D02*
X200575369Y-131758287D01*
X200575369Y-131758287D02*
X200607694Y-131724352D01*
X200607694Y-131724352D02*
X200636510Y-131688940D01*
X200636510Y-131688940D02*
X200645254Y-131661914D01*
X200645254Y-131661914D02*
X200633760Y-131645707D01*
X200633760Y-131645707D02*
X200613299Y-131642100D01*
X200613299Y-131642100D02*
X200591594Y-131650952D01*
X200591594Y-131650952D02*
X200587478Y-131664325D01*
X200587478Y-131664325D02*
X200576728Y-131685368D01*
X200576728Y-131685368D02*
X200549809Y-131709479D01*
X200549809Y-131709479D02*
X200514663Y-131731735D01*
X200514663Y-131731735D02*
X200479235Y-131747215D01*
X200479235Y-131747215D02*
X200451464Y-131751000D01*
X200451464Y-131751000D02*
X200448673Y-131750326D01*
X200448673Y-131750326D02*
X200428541Y-131732677D01*
X200428541Y-131732677D02*
X200411212Y-131699074D01*
X200411212Y-131699074D02*
X200399625Y-131658960D01*
X200399625Y-131658960D02*
X200396722Y-131621780D01*
X200396722Y-131621780D02*
X200402225Y-131601141D01*
X200402225Y-131601141D02*
X200408240Y-131576657D01*
X200408240Y-131576657D02*
X200400711Y-131564530D01*
X200400711Y-131564530D02*
X200377824Y-131554958D01*
X200377824Y-131554958D02*
X200357085Y-131564782D01*
X200357085Y-131564782D02*
X200347517Y-131588944D01*
X200347517Y-131588944D02*
X200347663Y-131594273D01*
X200347663Y-131594273D02*
X200348747Y-131623843D01*
X200348747Y-131623843D02*
X200348672Y-131666178D01*
X200348672Y-131666178D02*
X200348176Y-131688243D01*
X200348176Y-131688243D02*
X200345076Y-131728675D01*
X200345076Y-131728675D02*
X200337331Y-131750301D01*
X200337331Y-131750301D02*
X200322545Y-131759617D01*
X200322545Y-131759617D02*
X200321767Y-131759826D01*
X200321767Y-131759826D02*
X200299212Y-131754149D01*
X200299212Y-131754149D02*
X200271007Y-131731866D01*
X200271007Y-131731866D02*
X200242873Y-131699085D01*
X200242873Y-131699085D02*
X200220534Y-131661913D01*
X200220534Y-131661913D02*
X200213565Y-131644350D01*
X200213565Y-131644350D02*
X200198069Y-131621779D01*
X200198069Y-131621779D02*
X200176964Y-131619134D01*
X200176964Y-131619134D02*
X200153547Y-131630634D01*
X200153547Y-131630634D02*
X200145679Y-131650096D01*
X200145679Y-131650096D02*
X200155457Y-131668056D01*
X200155457Y-131668056D02*
X200165070Y-131672792D01*
X200165070Y-131672792D02*
X200179615Y-131687956D01*
X200179615Y-131687956D02*
X200197483Y-131721496D01*
X200197483Y-131721496D02*
X200216371Y-131767017D01*
X200216371Y-131767017D02*
X200233975Y-131818127D01*
X200233975Y-131818127D02*
X200247991Y-131868432D01*
X200247991Y-131868432D02*
X200256115Y-131911538D01*
X200256115Y-131911538D02*
X200257248Y-131928606D01*
X200257248Y-131928606D02*
X200249347Y-131960520D01*
X200249347Y-131960520D02*
X200226771Y-132008604D01*
X200226771Y-132008604D02*
X200191112Y-132069517D01*
X200191112Y-132069517D02*
X200186770Y-132076371D01*
X200186770Y-132076371D02*
X200116345Y-132186792D01*
X200116345Y-132186792D02*
X199980448Y-132115703D01*
X199980448Y-132115703D02*
X199926962Y-132087472D01*
X199926962Y-132087472D02*
X199881738Y-132063129D01*
X199881738Y-132063129D02*
X199849536Y-132045270D01*
X199849536Y-132045270D02*
X199835119Y-132036489D01*
X199835119Y-132036489D02*
X199835111Y-132036482D01*
X199835111Y-132036482D02*
X199832221Y-132021248D01*
X199832221Y-132021248D02*
X199831666Y-131986246D01*
X199831666Y-131986246D02*
X199833395Y-131936997D01*
X199833395Y-131936997D02*
X199836489Y-131889748D01*
X199836489Y-131889748D02*
X199840900Y-131825974D01*
X199840900Y-131825974D02*
X199842095Y-131781072D01*
X199842095Y-131781072D02*
X199839653Y-131748671D01*
X199839653Y-131748671D02*
X199833156Y-131722398D01*
X199833156Y-131722398D02*
X199823982Y-131699798D01*
X199823982Y-131699798D02*
X199809004Y-131657579D01*
X199809004Y-131657579D02*
X199800856Y-131616687D01*
X199800856Y-131616687D02*
X199800379Y-131608106D01*
X199800379Y-131608106D02*
X199794030Y-131574906D01*
X199794030Y-131574906D02*
X199780070Y-131563656D01*
X199780070Y-131563656D02*
X199766731Y-131550905D01*
X199766731Y-131550905D02*
X199746123Y-131519243D01*
X199746123Y-131519243D02*
X199720912Y-131473136D01*
X199720912Y-131473136D02*
X199697984Y-131426200D01*
X199697984Y-131426200D02*
X199659293Y-131348369D01*
X199659293Y-131348369D02*
X199625944Y-131295000D01*
X199625944Y-131295000D02*
X199596310Y-131266130D01*
X199596310Y-131266130D02*
X199568765Y-131261795D01*
X199568765Y-131261795D02*
X199541682Y-131282032D01*
X199541682Y-131282032D02*
X199541682Y-131282032D01*
G36*
X199596310Y-131266130D02*
G01*
X199625944Y-131295000D01*
X199659293Y-131348369D01*
X199697984Y-131426200D01*
X199720912Y-131473136D01*
X199746123Y-131519243D01*
X199766731Y-131550905D01*
X199780070Y-131563656D01*
X199794030Y-131574906D01*
X199800379Y-131608106D01*
X199800856Y-131616687D01*
X199809004Y-131657579D01*
X199823982Y-131699798D01*
X199833156Y-131722398D01*
X199839653Y-131748671D01*
X199842095Y-131781072D01*
X199840900Y-131825974D01*
X199836489Y-131889748D01*
X199833395Y-131936997D01*
X199831666Y-131986246D01*
X199832221Y-132021248D01*
X199835111Y-132036482D01*
X199835119Y-132036489D01*
X199849536Y-132045270D01*
X199881738Y-132063129D01*
X199926962Y-132087472D01*
X199980448Y-132115703D01*
X200116345Y-132186792D01*
X200186770Y-132076371D01*
X200191112Y-132069517D01*
X200226771Y-132008604D01*
X200249347Y-131960520D01*
X200257248Y-131928606D01*
X200256115Y-131911538D01*
X200247991Y-131868432D01*
X200233975Y-131818127D01*
X200216371Y-131767017D01*
X200197483Y-131721496D01*
X200179615Y-131687956D01*
X200165070Y-131672792D01*
X200155457Y-131668056D01*
X200145679Y-131650096D01*
X200153547Y-131630634D01*
X200176964Y-131619134D01*
X200198069Y-131621779D01*
X200213565Y-131644350D01*
X200220534Y-131661913D01*
X200242873Y-131699085D01*
X200271007Y-131731866D01*
X200299212Y-131754149D01*
X200321767Y-131759826D01*
X200322545Y-131759617D01*
X200337331Y-131750301D01*
X200345076Y-131728675D01*
X200348176Y-131688243D01*
X200348672Y-131666178D01*
X200348747Y-131623843D01*
X200347663Y-131594273D01*
X200347517Y-131588944D01*
X200357085Y-131564782D01*
X200377824Y-131554958D01*
X200400711Y-131564530D01*
X200408240Y-131576657D01*
X200402225Y-131601141D01*
X200396722Y-131621780D01*
X200399625Y-131658960D01*
X200411212Y-131699074D01*
X200428541Y-131732677D01*
X200448673Y-131750326D01*
X200451464Y-131751000D01*
X200479235Y-131747215D01*
X200514663Y-131731735D01*
X200549809Y-131709479D01*
X200576728Y-131685368D01*
X200587478Y-131664325D01*
X200591594Y-131650952D01*
X200613299Y-131642100D01*
X200633760Y-131645707D01*
X200645254Y-131661914D01*
X200636510Y-131688940D01*
X200607694Y-131724352D01*
X200575369Y-131758287D01*
X200545215Y-131797205D01*
X200531787Y-131828641D01*
X200532706Y-131856797D01*
X200535447Y-131866136D01*
X200542653Y-131877407D01*
X200557705Y-131882548D01*
X200586423Y-131882864D01*
X200634626Y-131879660D01*
X200667833Y-131877504D01*
X200705816Y-131877194D01*
X200726761Y-131881451D01*
X200735724Y-131890834D01*
X200737323Y-131896218D01*
X200732990Y-131921098D01*
X200714121Y-131936383D01*
X200689142Y-131934222D01*
X200682143Y-131932370D01*
X200651821Y-131934210D01*
X200607920Y-131943384D01*
X200557328Y-131958003D01*
X200506934Y-131976180D01*
X200463628Y-131996026D01*
X200458633Y-132000004D01*
X200438012Y-132020470D01*
X200405837Y-132054596D01*
X200365420Y-132098667D01*
X200320074Y-132148970D01*
X200273114Y-132201791D01*
X200227851Y-132253416D01*
X200187600Y-132300131D01*
X200155673Y-132338222D01*
X200135384Y-132363975D01*
X200135197Y-132364078D01*
X200121931Y-132358956D01*
X200091275Y-132343695D01*
X200047551Y-132320523D01*
X199995083Y-132291667D01*
X199990535Y-132289130D01*
X199938527Y-132260606D01*
X199895534Y-132237906D01*
X199865911Y-132223274D01*
X199854012Y-132218954D01*
X199853727Y-132224417D01*
X199854960Y-132251560D01*
X199858052Y-132298233D01*
X199862745Y-132360878D01*
X199868780Y-132435940D01*
X199875899Y-132519862D01*
X199875984Y-132520839D01*
X199884936Y-132629382D01*
X199891035Y-132718471D01*
X199894458Y-132793824D01*
X199895378Y-132861160D01*
X199893971Y-132926195D01*
X199890411Y-132994650D01*
X199888982Y-133017527D01*
X199885419Y-133078832D01*
X199882909Y-133128703D01*
X199881669Y-133162505D01*
X199881917Y-133175601D01*
X199882515Y-133175436D01*
X199895903Y-133165023D01*
X199924619Y-133140530D01*
X199965808Y-133104453D01*
X200016615Y-133059288D01*
X200074185Y-133007530D01*
X200085965Y-132996897D01*
X200142878Y-132945903D01*
X200192816Y-132901761D01*
X200232830Y-132867038D01*
X200259972Y-132844297D01*
X200271292Y-132836104D01*
X200273224Y-132839783D01*
X200278513Y-132863697D01*
X200285524Y-132906172D01*
X200293573Y-132962901D01*
X200301977Y-133029575D01*
X200306474Y-133067826D01*
X200315880Y-133147814D01*
X200323831Y-133204767D01*
X200332070Y-133240168D01*
X200342338Y-133255498D01*
X200356377Y-133252241D01*
X200375930Y-133231877D01*
X200402737Y-133195889D01*
X200438542Y-133145758D01*
X200536700Y-133009608D01*
X200536700Y-132878131D01*
X200536631Y-132862894D01*
X200534323Y-132796609D01*
X200529015Y-132748301D01*
X200521074Y-132721632D01*
X200519492Y-132719045D01*
X200512497Y-132696616D01*
X200525942Y-132676115D01*
X200543696Y-132665270D01*
X200569489Y-132666385D01*
X200588173Y-132682694D01*
X200590978Y-132709672D01*
X200590255Y-132728878D01*
X200595711Y-132766956D01*
X200606835Y-132811438D01*
X200617837Y-132845615D01*
X200629971Y-132872183D01*
X200643593Y-132884006D01*
X200662885Y-132886700D01*
X200678673Y-132884838D01*
X200694789Y-132874435D01*
X200710687Y-132850297D01*
X200730726Y-132807325D01*
X200747716Y-132765628D01*
X200760439Y-132728947D01*
X200765302Y-132707206D01*
X200766057Y-132701549D01*
X200780720Y-132684461D01*
X200805197Y-132678544D01*
X200827730Y-132687509D01*
X200836593Y-132699306D01*
X200838731Y-132728124D01*
X200816713Y-132757664D01*
X200803888Y-132774249D01*
X200790785Y-132814065D01*
X200787282Y-132861250D01*
X200793729Y-132905710D01*
X200810477Y-132937347D01*
X200813251Y-132940075D01*
X200827810Y-132951658D01*
X200844505Y-132955600D01*
X200870794Y-132952226D01*
X200914134Y-132941859D01*
X200948346Y-132932069D01*
X200985035Y-132915818D01*
X201000715Y-132897935D01*
X201008284Y-132883471D01*
X201029202Y-132874845D01*
X201054860Y-132889239D01*
X201068620Y-132914868D01*
X201066089Y-132941337D01*
X201047875Y-132957602D01*
X201025810Y-132966466D01*
X200989133Y-132983441D01*
X200945846Y-133004828D01*
X200919246Y-133019400D01*
X200874487Y-133052683D01*
X200854706Y-133084468D01*
X200860079Y-133114536D01*
X200861549Y-133116486D01*
X200882660Y-133131477D01*
X200918521Y-133149207D01*
X200960757Y-133166243D01*
X201000992Y-133179155D01*
X201030849Y-133184509D01*
X201044259Y-133186520D01*
X201065059Y-133202377D01*
X201067869Y-133226751D01*
X201050144Y-133250883D01*
X201047041Y-133253093D01*
X201026564Y-133260646D01*
X201005931Y-133248043D01*
X201003263Y-133245934D01*
X200973281Y-133234016D01*
X200926143Y-133225253D01*
X200868859Y-133220064D01*
X200808441Y-133218868D01*
X200751900Y-133222084D01*
X200706249Y-133230132D01*
X200689657Y-133235608D01*
X200666450Y-133246680D01*
X200639893Y-133264058D01*
X200607080Y-133290089D01*
X200565106Y-133327121D01*
X200511065Y-133377500D01*
X200442052Y-133443576D01*
X200238250Y-133640109D01*
X200222662Y-133476129D01*
X200221788Y-133466971D01*
X200215716Y-133405084D01*
X200210286Y-133352592D01*
X200206064Y-133314795D01*
X200203612Y-133296991D01*
X200203033Y-133296175D01*
X200190049Y-133301572D01*
X200162949Y-133321325D01*
X200125251Y-133352694D01*
X200080475Y-133392936D01*
X199960800Y-133504039D01*
X200034846Y-133630344D01*
X200082141Y-133709556D01*
X200145330Y-133809122D01*
X200203488Y-133891490D01*
X200259659Y-133960288D01*
X200316883Y-134019145D01*
X200378204Y-134071689D01*
X200446663Y-134121550D01*
X200466675Y-134134812D01*
X200550416Y-134184592D01*
X200642007Y-134231771D01*
X200732275Y-134271860D01*
X200812045Y-134300369D01*
X200853149Y-134311173D01*
X200983726Y-134328823D01*
X201118949Y-134323852D01*
X201255029Y-134296911D01*
X201388176Y-134248651D01*
X201514600Y-134179721D01*
X201520237Y-134175981D01*
X201568601Y-134139569D01*
X201627138Y-134089931D01*
X201690225Y-134032340D01*
X201752239Y-133972071D01*
X201807556Y-133914400D01*
X201850554Y-133864600D01*
X201885790Y-133820150D01*
X201856517Y-133870950D01*
X201796546Y-133965309D01*
X201692276Y-134095106D01*
X201574298Y-134206765D01*
X201444703Y-134298877D01*
X201305582Y-134370030D01*
X201159028Y-134418813D01*
X201007133Y-134443816D01*
X200963897Y-134445808D01*
X200874482Y-134443588D01*
X200776428Y-134434921D01*
X200679598Y-134420799D01*
X200593850Y-134402214D01*
X200522512Y-134378837D01*
X200437379Y-134343697D01*
X200348824Y-134301371D01*
X200265406Y-134255960D01*
X200195686Y-134211560D01*
X200128140Y-134159026D01*
X200042314Y-134081183D01*
X199958742Y-133994610D01*
X199884092Y-133906294D01*
X199825034Y-133823224D01*
X199803673Y-133789764D01*
X199777102Y-133749920D01*
X199757460Y-133722630D01*
X199747916Y-133712448D01*
X199738078Y-133718976D01*
X199713210Y-133739801D01*
X199677554Y-133771541D01*
X199635117Y-133810707D01*
X199530054Y-133909215D01*
X199706352Y-134069490D01*
X199749475Y-134108471D01*
X199811632Y-134164338D01*
X199857802Y-134207081D01*
X199889202Y-134239818D01*
X199907048Y-134265667D01*
X199912555Y-134287746D01*
X199906940Y-134309175D01*
X199891419Y-134333072D01*
X199867207Y-134362556D01*
X199835522Y-134400744D01*
X199830233Y-134407327D01*
X199775009Y-134476374D01*
X199733422Y-134530149D01*
X199703389Y-134572843D01*
X199682827Y-134608648D01*
X199669652Y-134641756D01*
X199661783Y-134676358D01*
X199657137Y-134716646D01*
X199653631Y-134766811D01*
X199651114Y-134809383D01*
X199649549Y-134857159D01*
X199651115Y-134887795D01*
X199656189Y-134906222D01*
X199665148Y-134917370D01*
X199677642Y-134933782D01*
X199672387Y-134958133D01*
X199667427Y-134965697D01*
X199644559Y-134980110D01*
X199620007Y-134977417D01*
X199602364Y-134960634D01*
X199600219Y-134932780D01*
X199600604Y-134910470D01*
X199594485Y-134871116D01*
X199582923Y-134825305D01*
X199580491Y-134817235D01*
X199567448Y-134777456D01*
X199556576Y-134756440D01*
X199544062Y-134749182D01*
X199526093Y-134750674D01*
X199507600Y-134757869D01*
X199486506Y-134780148D01*
X199464801Y-134821925D01*
X199454004Y-134847388D01*
X199437467Y-134890443D01*
X199427142Y-134922699D01*
X199417892Y-134942570D01*
X199396416Y-134955086D01*
X199372482Y-134947723D01*
X199353780Y-134920693D01*
X199351827Y-134915066D01*
X199350346Y-134894329D01*
X199366693Y-134884700D01*
X199374566Y-134881337D01*
X199389295Y-134861200D01*
X199398471Y-134820609D01*
X199404224Y-134772397D01*
X199404914Y-134739828D01*
X199399588Y-134717540D01*
X199387582Y-134698067D01*
X199386666Y-134696867D01*
X199374851Y-134685023D01*
X199358854Y-134680285D01*
X199331800Y-134682096D01*
X199286811Y-134689899D01*
X199285650Y-134690119D01*
X199236766Y-134701518D01*
X199208561Y-134713989D01*
X199196420Y-134729557D01*
X199196396Y-134729630D01*
X199179412Y-134749340D01*
X199153264Y-134751852D01*
X199128336Y-134736159D01*
X199119520Y-134709960D01*
X199131914Y-134685217D01*
X199162128Y-134669067D01*
X199183828Y-134661330D01*
X199222605Y-134643607D01*
X199265502Y-134621095D01*
X199270248Y-134618414D01*
X199310546Y-134592699D01*
X199332345Y-134570615D01*
X199340510Y-134547379D01*
X199341187Y-134536357D01*
X199335957Y-134518044D01*
X199317477Y-134501540D01*
X199280607Y-134481161D01*
X199254650Y-134469359D01*
X199211523Y-134454577D01*
X199178223Y-134448800D01*
X199177469Y-134448798D01*
X199150769Y-134447205D01*
X199139700Y-134443488D01*
X199138957Y-134439187D01*
X199132620Y-134419726D01*
X199132905Y-134403517D01*
X199146929Y-134379885D01*
X199160432Y-134368003D01*
X199174698Y-134367050D01*
X199195285Y-134383604D01*
X199200930Y-134388443D01*
X199219538Y-134398895D01*
X199246724Y-134405641D01*
X199288093Y-134409721D01*
X199349250Y-134412175D01*
X199415106Y-134412321D01*
X199481164Y-134407922D01*
X199527050Y-134398839D01*
X199553392Y-134387657D01*
X199591223Y-134366821D01*
X199630225Y-134341763D01*
X199664520Y-134316562D01*
X199688229Y-134295292D01*
X199695476Y-134282032D01*
X199692763Y-134279136D01*
X199673314Y-134263088D01*
X199637696Y-134235436D01*
X199588882Y-134198442D01*
X199529842Y-134154368D01*
X199463550Y-134105476D01*
X199431047Y-134081513D01*
X199368475Y-134034601D01*
X199314993Y-133993460D01*
X199273480Y-133960363D01*
X199246814Y-133937580D01*
X199237872Y-133927381D01*
X199240203Y-133923217D01*
X199255013Y-133901114D01*
X199281569Y-133863125D01*
X199317707Y-133812305D01*
X199361262Y-133751707D01*
X199410070Y-133684386D01*
X199434783Y-133650410D01*
X199481858Y-133585531D01*
X199522981Y-133528643D01*
X199555897Y-133482880D01*
X199578350Y-133451371D01*
X199588086Y-133437249D01*
X199588192Y-133433605D01*
X199580679Y-133410389D01*
X199563395Y-133369654D01*
X199537926Y-133314857D01*
X199505854Y-133249453D01*
X199468765Y-133176899D01*
X199340707Y-132931150D01*
X199360805Y-132608310D01*
X199365370Y-132532805D01*
X199369908Y-132452278D01*
X199373431Y-132383393D01*
X199375775Y-132329575D01*
X199376779Y-132294252D01*
X199376282Y-132280847D01*
X199374996Y-132281425D01*
X199363250Y-132296227D01*
X199341652Y-132327739D01*
X199312719Y-132372209D01*
X199278967Y-132425887D01*
X199268132Y-132443373D01*
X199235541Y-132495852D01*
X199208703Y-132538898D01*
X199190150Y-132568453D01*
X199182418Y-132580461D01*
X199179802Y-132580888D01*
X199157656Y-132579395D01*
X199116812Y-132574728D01*
X199061814Y-132567436D01*
X198997206Y-132558069D01*
X198974427Y-132554677D01*
X198908515Y-132545294D01*
X198851189Y-132537741D01*
X198807951Y-132532720D01*
X198784304Y-132530933D01*
X198755187Y-132536507D01*
X198713037Y-132551484D01*
X198664362Y-132572819D01*
X198615227Y-132597464D01*
X198571698Y-132622374D01*
X198539838Y-132644503D01*
X198525713Y-132660805D01*
X198518276Y-132675040D01*
X198496076Y-132681299D01*
X198495772Y-132681239D01*
X198478536Y-132669321D01*
X198469030Y-132648531D01*
X198469499Y-132628785D01*
X198482190Y-132620000D01*
X198488659Y-132618755D01*
X198512735Y-132604069D01*
X198540855Y-132578156D01*
X198567006Y-132547735D01*
X198585176Y-132519525D01*
X198589352Y-132500245D01*
X198572955Y-132488373D01*
X198539957Y-132481474D01*
X198498843Y-132479960D01*
X198458059Y-132484136D01*
X198426050Y-132494311D01*
X198407293Y-132499722D01*
X198386263Y-132489269D01*
X198377895Y-132459433D01*
X198377903Y-132458685D01*
X198388731Y-132442223D01*
X198411412Y-132434743D01*
X198433285Y-132440560D01*
X198434945Y-132441635D01*
X198457045Y-132442061D01*
X198489608Y-132431490D01*
X198524210Y-132414072D01*
X198552425Y-132393955D01*
X198565828Y-132375289D01*
X198560882Y-132351800D01*
X198542304Y-132319604D01*
X198516193Y-132287034D01*
X198488777Y-132261822D01*
X198466283Y-132251700D01*
X198453657Y-132250436D01*
X198434387Y-132236223D01*
X198436168Y-132208396D01*
X198441653Y-132196898D01*
X198451243Y-132190548D01*
X198467994Y-132194692D01*
X198496450Y-132210694D01*
X198541155Y-132239918D01*
X198591689Y-132270678D01*
X198629268Y-132284956D01*
X198653299Y-132280353D01*
X198666054Y-132256386D01*
X198669800Y-132212571D01*
X198669078Y-132192532D01*
X198663510Y-132152125D01*
X198654244Y-132124844D01*
X198645289Y-132103419D01*
X198653390Y-132085230D01*
X198657426Y-132081704D01*
X198680361Y-132076151D01*
X198699739Y-132089887D01*
X198707900Y-132118268D01*
X198711489Y-132138730D01*
X198725676Y-132179187D01*
X198747154Y-132227484D01*
X198772151Y-132275920D01*
X198796898Y-132316792D01*
X198817624Y-132342398D01*
X198829444Y-132349356D01*
X198860868Y-132362549D01*
X198904363Y-132378200D01*
X198953942Y-132394447D01*
X199003616Y-132409427D01*
X199047396Y-132421278D01*
X199079296Y-132428137D01*
X199093326Y-132428143D01*
X199101252Y-132417744D01*
X199122213Y-132390224D01*
X199153675Y-132348909D01*
X199193145Y-132297074D01*
X199238128Y-132237995D01*
X199379102Y-132052841D01*
X199360342Y-131909171D01*
X199359384Y-131901805D01*
X199351835Y-131839743D01*
X199348222Y-131796171D01*
X199348574Y-131765074D01*
X199352920Y-131740436D01*
X199361292Y-131716243D01*
X199363730Y-131709809D01*
X199376003Y-131664612D01*
X199381000Y-131622792D01*
X199381008Y-131621160D01*
X199385487Y-131590147D01*
X199396875Y-131578595D01*
X199397388Y-131578526D01*
X199408261Y-131565691D01*
X199425259Y-131533842D01*
X199446156Y-131487544D01*
X199468722Y-131431363D01*
X199482394Y-131396368D01*
X199513434Y-131326878D01*
X199541682Y-131282032D01*
X199568765Y-131261795D01*
X199596310Y-131266130D01*
G37*
X199596310Y-131266130D02*
X199625944Y-131295000D01*
X199659293Y-131348369D01*
X199697984Y-131426200D01*
X199720912Y-131473136D01*
X199746123Y-131519243D01*
X199766731Y-131550905D01*
X199780070Y-131563656D01*
X199794030Y-131574906D01*
X199800379Y-131608106D01*
X199800856Y-131616687D01*
X199809004Y-131657579D01*
X199823982Y-131699798D01*
X199833156Y-131722398D01*
X199839653Y-131748671D01*
X199842095Y-131781072D01*
X199840900Y-131825974D01*
X199836489Y-131889748D01*
X199833395Y-131936997D01*
X199831666Y-131986246D01*
X199832221Y-132021248D01*
X199835111Y-132036482D01*
X199835119Y-132036489D01*
X199849536Y-132045270D01*
X199881738Y-132063129D01*
X199926962Y-132087472D01*
X199980448Y-132115703D01*
X200116345Y-132186792D01*
X200186770Y-132076371D01*
X200191112Y-132069517D01*
X200226771Y-132008604D01*
X200249347Y-131960520D01*
X200257248Y-131928606D01*
X200256115Y-131911538D01*
X200247991Y-131868432D01*
X200233975Y-131818127D01*
X200216371Y-131767017D01*
X200197483Y-131721496D01*
X200179615Y-131687956D01*
X200165070Y-131672792D01*
X200155457Y-131668056D01*
X200145679Y-131650096D01*
X200153547Y-131630634D01*
X200176964Y-131619134D01*
X200198069Y-131621779D01*
X200213565Y-131644350D01*
X200220534Y-131661913D01*
X200242873Y-131699085D01*
X200271007Y-131731866D01*
X200299212Y-131754149D01*
X200321767Y-131759826D01*
X200322545Y-131759617D01*
X200337331Y-131750301D01*
X200345076Y-131728675D01*
X200348176Y-131688243D01*
X200348672Y-131666178D01*
X200348747Y-131623843D01*
X200347663Y-131594273D01*
X200347517Y-131588944D01*
X200357085Y-131564782D01*
X200377824Y-131554958D01*
X200400711Y-131564530D01*
X200408240Y-131576657D01*
X200402225Y-131601141D01*
X200396722Y-131621780D01*
X200399625Y-131658960D01*
X200411212Y-131699074D01*
X200428541Y-131732677D01*
X200448673Y-131750326D01*
X200451464Y-131751000D01*
X200479235Y-131747215D01*
X200514663Y-131731735D01*
X200549809Y-131709479D01*
X200576728Y-131685368D01*
X200587478Y-131664325D01*
X200591594Y-131650952D01*
X200613299Y-131642100D01*
X200633760Y-131645707D01*
X200645254Y-131661914D01*
X200636510Y-131688940D01*
X200607694Y-131724352D01*
X200575369Y-131758287D01*
X200545215Y-131797205D01*
X200531787Y-131828641D01*
X200532706Y-131856797D01*
X200535447Y-131866136D01*
X200542653Y-131877407D01*
X200557705Y-131882548D01*
X200586423Y-131882864D01*
X200634626Y-131879660D01*
X200667833Y-131877504D01*
X200705816Y-131877194D01*
X200726761Y-131881451D01*
X200735724Y-131890834D01*
X200737323Y-131896218D01*
X200732990Y-131921098D01*
X200714121Y-131936383D01*
X200689142Y-131934222D01*
X200682143Y-131932370D01*
X200651821Y-131934210D01*
X200607920Y-131943384D01*
X200557328Y-131958003D01*
X200506934Y-131976180D01*
X200463628Y-131996026D01*
X200458633Y-132000004D01*
X200438012Y-132020470D01*
X200405837Y-132054596D01*
X200365420Y-132098667D01*
X200320074Y-132148970D01*
X200273114Y-132201791D01*
X200227851Y-132253416D01*
X200187600Y-132300131D01*
X200155673Y-132338222D01*
X200135384Y-132363975D01*
X200135197Y-132364078D01*
X200121931Y-132358956D01*
X200091275Y-132343695D01*
X200047551Y-132320523D01*
X199995083Y-132291667D01*
X199990535Y-132289130D01*
X199938527Y-132260606D01*
X199895534Y-132237906D01*
X199865911Y-132223274D01*
X199854012Y-132218954D01*
X199853727Y-132224417D01*
X199854960Y-132251560D01*
X199858052Y-132298233D01*
X199862745Y-132360878D01*
X199868780Y-132435940D01*
X199875899Y-132519862D01*
X199875984Y-132520839D01*
X199884936Y-132629382D01*
X199891035Y-132718471D01*
X199894458Y-132793824D01*
X199895378Y-132861160D01*
X199893971Y-132926195D01*
X199890411Y-132994650D01*
X199888982Y-133017527D01*
X199885419Y-133078832D01*
X199882909Y-133128703D01*
X199881669Y-133162505D01*
X199881917Y-133175601D01*
X199882515Y-133175436D01*
X199895903Y-133165023D01*
X199924619Y-133140530D01*
X199965808Y-133104453D01*
X200016615Y-133059288D01*
X200074185Y-133007530D01*
X200085965Y-132996897D01*
X200142878Y-132945903D01*
X200192816Y-132901761D01*
X200232830Y-132867038D01*
X200259972Y-132844297D01*
X200271292Y-132836104D01*
X200273224Y-132839783D01*
X200278513Y-132863697D01*
X200285524Y-132906172D01*
X200293573Y-132962901D01*
X200301977Y-133029575D01*
X200306474Y-133067826D01*
X200315880Y-133147814D01*
X200323831Y-133204767D01*
X200332070Y-133240168D01*
X200342338Y-133255498D01*
X200356377Y-133252241D01*
X200375930Y-133231877D01*
X200402737Y-133195889D01*
X200438542Y-133145758D01*
X200536700Y-133009608D01*
X200536700Y-132878131D01*
X200536631Y-132862894D01*
X200534323Y-132796609D01*
X200529015Y-132748301D01*
X200521074Y-132721632D01*
X200519492Y-132719045D01*
X200512497Y-132696616D01*
X200525942Y-132676115D01*
X200543696Y-132665270D01*
X200569489Y-132666385D01*
X200588173Y-132682694D01*
X200590978Y-132709672D01*
X200590255Y-132728878D01*
X200595711Y-132766956D01*
X200606835Y-132811438D01*
X200617837Y-132845615D01*
X200629971Y-132872183D01*
X200643593Y-132884006D01*
X200662885Y-132886700D01*
X200678673Y-132884838D01*
X200694789Y-132874435D01*
X200710687Y-132850297D01*
X200730726Y-132807325D01*
X200747716Y-132765628D01*
X200760439Y-132728947D01*
X200765302Y-132707206D01*
X200766057Y-132701549D01*
X200780720Y-132684461D01*
X200805197Y-132678544D01*
X200827730Y-132687509D01*
X200836593Y-132699306D01*
X200838731Y-132728124D01*
X200816713Y-132757664D01*
X200803888Y-132774249D01*
X200790785Y-132814065D01*
X200787282Y-132861250D01*
X200793729Y-132905710D01*
X200810477Y-132937347D01*
X200813251Y-132940075D01*
X200827810Y-132951658D01*
X200844505Y-132955600D01*
X200870794Y-132952226D01*
X200914134Y-132941859D01*
X200948346Y-132932069D01*
X200985035Y-132915818D01*
X201000715Y-132897935D01*
X201008284Y-132883471D01*
X201029202Y-132874845D01*
X201054860Y-132889239D01*
X201068620Y-132914868D01*
X201066089Y-132941337D01*
X201047875Y-132957602D01*
X201025810Y-132966466D01*
X200989133Y-132983441D01*
X200945846Y-133004828D01*
X200919246Y-133019400D01*
X200874487Y-133052683D01*
X200854706Y-133084468D01*
X200860079Y-133114536D01*
X200861549Y-133116486D01*
X200882660Y-133131477D01*
X200918521Y-133149207D01*
X200960757Y-133166243D01*
X201000992Y-133179155D01*
X201030849Y-133184509D01*
X201044259Y-133186520D01*
X201065059Y-133202377D01*
X201067869Y-133226751D01*
X201050144Y-133250883D01*
X201047041Y-133253093D01*
X201026564Y-133260646D01*
X201005931Y-133248043D01*
X201003263Y-133245934D01*
X200973281Y-133234016D01*
X200926143Y-133225253D01*
X200868859Y-133220064D01*
X200808441Y-133218868D01*
X200751900Y-133222084D01*
X200706249Y-133230132D01*
X200689657Y-133235608D01*
X200666450Y-133246680D01*
X200639893Y-133264058D01*
X200607080Y-133290089D01*
X200565106Y-133327121D01*
X200511065Y-133377500D01*
X200442052Y-133443576D01*
X200238250Y-133640109D01*
X200222662Y-133476129D01*
X200221788Y-133466971D01*
X200215716Y-133405084D01*
X200210286Y-133352592D01*
X200206064Y-133314795D01*
X200203612Y-133296991D01*
X200203033Y-133296175D01*
X200190049Y-133301572D01*
X200162949Y-133321325D01*
X200125251Y-133352694D01*
X200080475Y-133392936D01*
X199960800Y-133504039D01*
X200034846Y-133630344D01*
X200082141Y-133709556D01*
X200145330Y-133809122D01*
X200203488Y-133891490D01*
X200259659Y-133960288D01*
X200316883Y-134019145D01*
X200378204Y-134071689D01*
X200446663Y-134121550D01*
X200466675Y-134134812D01*
X200550416Y-134184592D01*
X200642007Y-134231771D01*
X200732275Y-134271860D01*
X200812045Y-134300369D01*
X200853149Y-134311173D01*
X200983726Y-134328823D01*
X201118949Y-134323852D01*
X201255029Y-134296911D01*
X201388176Y-134248651D01*
X201514600Y-134179721D01*
X201520237Y-134175981D01*
X201568601Y-134139569D01*
X201627138Y-134089931D01*
X201690225Y-134032340D01*
X201752239Y-133972071D01*
X201807556Y-133914400D01*
X201850554Y-133864600D01*
X201885790Y-133820150D01*
X201856517Y-133870950D01*
X201796546Y-133965309D01*
X201692276Y-134095106D01*
X201574298Y-134206765D01*
X201444703Y-134298877D01*
X201305582Y-134370030D01*
X201159028Y-134418813D01*
X201007133Y-134443816D01*
X200963897Y-134445808D01*
X200874482Y-134443588D01*
X200776428Y-134434921D01*
X200679598Y-134420799D01*
X200593850Y-134402214D01*
X200522512Y-134378837D01*
X200437379Y-134343697D01*
X200348824Y-134301371D01*
X200265406Y-134255960D01*
X200195686Y-134211560D01*
X200128140Y-134159026D01*
X200042314Y-134081183D01*
X199958742Y-133994610D01*
X199884092Y-133906294D01*
X199825034Y-133823224D01*
X199803673Y-133789764D01*
X199777102Y-133749920D01*
X199757460Y-133722630D01*
X199747916Y-133712448D01*
X199738078Y-133718976D01*
X199713210Y-133739801D01*
X199677554Y-133771541D01*
X199635117Y-133810707D01*
X199530054Y-133909215D01*
X199706352Y-134069490D01*
X199749475Y-134108471D01*
X199811632Y-134164338D01*
X199857802Y-134207081D01*
X199889202Y-134239818D01*
X199907048Y-134265667D01*
X199912555Y-134287746D01*
X199906940Y-134309175D01*
X199891419Y-134333072D01*
X199867207Y-134362556D01*
X199835522Y-134400744D01*
X199830233Y-134407327D01*
X199775009Y-134476374D01*
X199733422Y-134530149D01*
X199703389Y-134572843D01*
X199682827Y-134608648D01*
X199669652Y-134641756D01*
X199661783Y-134676358D01*
X199657137Y-134716646D01*
X199653631Y-134766811D01*
X199651114Y-134809383D01*
X199649549Y-134857159D01*
X199651115Y-134887795D01*
X199656189Y-134906222D01*
X199665148Y-134917370D01*
X199677642Y-134933782D01*
X199672387Y-134958133D01*
X199667427Y-134965697D01*
X199644559Y-134980110D01*
X199620007Y-134977417D01*
X199602364Y-134960634D01*
X199600219Y-134932780D01*
X199600604Y-134910470D01*
X199594485Y-134871116D01*
X199582923Y-134825305D01*
X199580491Y-134817235D01*
X199567448Y-134777456D01*
X199556576Y-134756440D01*
X199544062Y-134749182D01*
X199526093Y-134750674D01*
X199507600Y-134757869D01*
X199486506Y-134780148D01*
X199464801Y-134821925D01*
X199454004Y-134847388D01*
X199437467Y-134890443D01*
X199427142Y-134922699D01*
X199417892Y-134942570D01*
X199396416Y-134955086D01*
X199372482Y-134947723D01*
X199353780Y-134920693D01*
X199351827Y-134915066D01*
X199350346Y-134894329D01*
X199366693Y-134884700D01*
X199374566Y-134881337D01*
X199389295Y-134861200D01*
X199398471Y-134820609D01*
X199404224Y-134772397D01*
X199404914Y-134739828D01*
X199399588Y-134717540D01*
X199387582Y-134698067D01*
X199386666Y-134696867D01*
X199374851Y-134685023D01*
X199358854Y-134680285D01*
X199331800Y-134682096D01*
X199286811Y-134689899D01*
X199285650Y-134690119D01*
X199236766Y-134701518D01*
X199208561Y-134713989D01*
X199196420Y-134729557D01*
X199196396Y-134729630D01*
X199179412Y-134749340D01*
X199153264Y-134751852D01*
X199128336Y-134736159D01*
X199119520Y-134709960D01*
X199131914Y-134685217D01*
X199162128Y-134669067D01*
X199183828Y-134661330D01*
X199222605Y-134643607D01*
X199265502Y-134621095D01*
X199270248Y-134618414D01*
X199310546Y-134592699D01*
X199332345Y-134570615D01*
X199340510Y-134547379D01*
X199341187Y-134536357D01*
X199335957Y-134518044D01*
X199317477Y-134501540D01*
X199280607Y-134481161D01*
X199254650Y-134469359D01*
X199211523Y-134454577D01*
X199178223Y-134448800D01*
X199177469Y-134448798D01*
X199150769Y-134447205D01*
X199139700Y-134443488D01*
X199138957Y-134439187D01*
X199132620Y-134419726D01*
X199132905Y-134403517D01*
X199146929Y-134379885D01*
X199160432Y-134368003D01*
X199174698Y-134367050D01*
X199195285Y-134383604D01*
X199200930Y-134388443D01*
X199219538Y-134398895D01*
X199246724Y-134405641D01*
X199288093Y-134409721D01*
X199349250Y-134412175D01*
X199415106Y-134412321D01*
X199481164Y-134407922D01*
X199527050Y-134398839D01*
X199553392Y-134387657D01*
X199591223Y-134366821D01*
X199630225Y-134341763D01*
X199664520Y-134316562D01*
X199688229Y-134295292D01*
X199695476Y-134282032D01*
X199692763Y-134279136D01*
X199673314Y-134263088D01*
X199637696Y-134235436D01*
X199588882Y-134198442D01*
X199529842Y-134154368D01*
X199463550Y-134105476D01*
X199431047Y-134081513D01*
X199368475Y-134034601D01*
X199314993Y-133993460D01*
X199273480Y-133960363D01*
X199246814Y-133937580D01*
X199237872Y-133927381D01*
X199240203Y-133923217D01*
X199255013Y-133901114D01*
X199281569Y-133863125D01*
X199317707Y-133812305D01*
X199361262Y-133751707D01*
X199410070Y-133684386D01*
X199434783Y-133650410D01*
X199481858Y-133585531D01*
X199522981Y-133528643D01*
X199555897Y-133482880D01*
X199578350Y-133451371D01*
X199588086Y-133437249D01*
X199588192Y-133433605D01*
X199580679Y-133410389D01*
X199563395Y-133369654D01*
X199537926Y-133314857D01*
X199505854Y-133249453D01*
X199468765Y-133176899D01*
X199340707Y-132931150D01*
X199360805Y-132608310D01*
X199365370Y-132532805D01*
X199369908Y-132452278D01*
X199373431Y-132383393D01*
X199375775Y-132329575D01*
X199376779Y-132294252D01*
X199376282Y-132280847D01*
X199374996Y-132281425D01*
X199363250Y-132296227D01*
X199341652Y-132327739D01*
X199312719Y-132372209D01*
X199278967Y-132425887D01*
X199268132Y-132443373D01*
X199235541Y-132495852D01*
X199208703Y-132538898D01*
X199190150Y-132568453D01*
X199182418Y-132580461D01*
X199179802Y-132580888D01*
X199157656Y-132579395D01*
X199116812Y-132574728D01*
X199061814Y-132567436D01*
X198997206Y-132558069D01*
X198974427Y-132554677D01*
X198908515Y-132545294D01*
X198851189Y-132537741D01*
X198807951Y-132532720D01*
X198784304Y-132530933D01*
X198755187Y-132536507D01*
X198713037Y-132551484D01*
X198664362Y-132572819D01*
X198615227Y-132597464D01*
X198571698Y-132622374D01*
X198539838Y-132644503D01*
X198525713Y-132660805D01*
X198518276Y-132675040D01*
X198496076Y-132681299D01*
X198495772Y-132681239D01*
X198478536Y-132669321D01*
X198469030Y-132648531D01*
X198469499Y-132628785D01*
X198482190Y-132620000D01*
X198488659Y-132618755D01*
X198512735Y-132604069D01*
X198540855Y-132578156D01*
X198567006Y-132547735D01*
X198585176Y-132519525D01*
X198589352Y-132500245D01*
X198572955Y-132488373D01*
X198539957Y-132481474D01*
X198498843Y-132479960D01*
X198458059Y-132484136D01*
X198426050Y-132494311D01*
X198407293Y-132499722D01*
X198386263Y-132489269D01*
X198377895Y-132459433D01*
X198377903Y-132458685D01*
X198388731Y-132442223D01*
X198411412Y-132434743D01*
X198433285Y-132440560D01*
X198434945Y-132441635D01*
X198457045Y-132442061D01*
X198489608Y-132431490D01*
X198524210Y-132414072D01*
X198552425Y-132393955D01*
X198565828Y-132375289D01*
X198560882Y-132351800D01*
X198542304Y-132319604D01*
X198516193Y-132287034D01*
X198488777Y-132261822D01*
X198466283Y-132251700D01*
X198453657Y-132250436D01*
X198434387Y-132236223D01*
X198436168Y-132208396D01*
X198441653Y-132196898D01*
X198451243Y-132190548D01*
X198467994Y-132194692D01*
X198496450Y-132210694D01*
X198541155Y-132239918D01*
X198591689Y-132270678D01*
X198629268Y-132284956D01*
X198653299Y-132280353D01*
X198666054Y-132256386D01*
X198669800Y-132212571D01*
X198669078Y-132192532D01*
X198663510Y-132152125D01*
X198654244Y-132124844D01*
X198645289Y-132103419D01*
X198653390Y-132085230D01*
X198657426Y-132081704D01*
X198680361Y-132076151D01*
X198699739Y-132089887D01*
X198707900Y-132118268D01*
X198711489Y-132138730D01*
X198725676Y-132179187D01*
X198747154Y-132227484D01*
X198772151Y-132275920D01*
X198796898Y-132316792D01*
X198817624Y-132342398D01*
X198829444Y-132349356D01*
X198860868Y-132362549D01*
X198904363Y-132378200D01*
X198953942Y-132394447D01*
X199003616Y-132409427D01*
X199047396Y-132421278D01*
X199079296Y-132428137D01*
X199093326Y-132428143D01*
X199101252Y-132417744D01*
X199122213Y-132390224D01*
X199153675Y-132348909D01*
X199193145Y-132297074D01*
X199238128Y-132237995D01*
X199379102Y-132052841D01*
X199360342Y-131909171D01*
X199359384Y-131901805D01*
X199351835Y-131839743D01*
X199348222Y-131796171D01*
X199348574Y-131765074D01*
X199352920Y-131740436D01*
X199361292Y-131716243D01*
X199363730Y-131709809D01*
X199376003Y-131664612D01*
X199381000Y-131622792D01*
X199381008Y-131621160D01*
X199385487Y-131590147D01*
X199396875Y-131578595D01*
X199397388Y-131578526D01*
X199408261Y-131565691D01*
X199425259Y-131533842D01*
X199446156Y-131487544D01*
X199468722Y-131431363D01*
X199482394Y-131396368D01*
X199513434Y-131326878D01*
X199541682Y-131282032D01*
X199568765Y-131261795D01*
X199596310Y-131266130D01*
D11*
X206995000Y-62945000D03*
X130995000Y-58445000D03*
X206995000Y-101445000D03*
X130995000Y-98945000D03*
X103995000Y-120445000D03*
M02*
