G04 #@! TF.GenerationSoftware,KiCad,Pcbnew,(6.0.2-0)*
G04 #@! TF.CreationDate,2022-03-06T15:41:21+00:00*
G04 #@! TF.ProjectId,SofleKeyboardTopPlate,536f666c-654b-4657-9962-6f617264546f,rev?*
G04 #@! TF.SameCoordinates,Original*
G04 #@! TF.FileFunction,Legend,Top*
G04 #@! TF.FilePolarity,Positive*
%FSLAX46Y46*%
G04 Gerber Fmt 4.6, Leading zero omitted, Abs format (unit mm)*
G04 Created by KiCad (PCBNEW (6.0.2-0)) date 2022-03-06 15:41:21*
%MOMM*%
%LPD*%
G01*
G04 APERTURE LIST*
%ADD10C,0.200000*%
G04 APERTURE END LIST*
D10*
X91280714Y-114704761D02*
X91423571Y-114752380D01*
X91661666Y-114752380D01*
X91756904Y-114704761D01*
X91804523Y-114657142D01*
X91852142Y-114561904D01*
X91852142Y-114466666D01*
X91804523Y-114371428D01*
X91756904Y-114323809D01*
X91661666Y-114276190D01*
X91471190Y-114228571D01*
X91375952Y-114180952D01*
X91328333Y-114133333D01*
X91280714Y-114038095D01*
X91280714Y-113942857D01*
X91328333Y-113847619D01*
X91375952Y-113800000D01*
X91471190Y-113752380D01*
X91709285Y-113752380D01*
X91852142Y-113800000D01*
X92423571Y-114752380D02*
X92328333Y-114704761D01*
X92280714Y-114657142D01*
X92233095Y-114561904D01*
X92233095Y-114276190D01*
X92280714Y-114180952D01*
X92328333Y-114133333D01*
X92423571Y-114085714D01*
X92566428Y-114085714D01*
X92661666Y-114133333D01*
X92709285Y-114180952D01*
X92756904Y-114276190D01*
X92756904Y-114561904D01*
X92709285Y-114657142D01*
X92661666Y-114704761D01*
X92566428Y-114752380D01*
X92423571Y-114752380D01*
X93042619Y-114085714D02*
X93423571Y-114085714D01*
X93185476Y-114752380D02*
X93185476Y-113895238D01*
X93233095Y-113800000D01*
X93328333Y-113752380D01*
X93423571Y-113752380D01*
X93899761Y-114752380D02*
X93804523Y-114704761D01*
X93756904Y-114609523D01*
X93756904Y-113752380D01*
X94661666Y-114704761D02*
X94566428Y-114752380D01*
X94375952Y-114752380D01*
X94280714Y-114704761D01*
X94233095Y-114609523D01*
X94233095Y-114228571D01*
X94280714Y-114133333D01*
X94375952Y-114085714D01*
X94566428Y-114085714D01*
X94661666Y-114133333D01*
X94709285Y-114228571D01*
X94709285Y-114323809D01*
X94233095Y-114419047D01*
X95852142Y-114704761D02*
X95995000Y-114752380D01*
X96233095Y-114752380D01*
X96328333Y-114704761D01*
X96375952Y-114657142D01*
X96423571Y-114561904D01*
X96423571Y-114466666D01*
X96375952Y-114371428D01*
X96328333Y-114323809D01*
X96233095Y-114276190D01*
X96042619Y-114228571D01*
X95947380Y-114180952D01*
X95899761Y-114133333D01*
X95852142Y-114038095D01*
X95852142Y-113942857D01*
X95899761Y-113847619D01*
X95947380Y-113800000D01*
X96042619Y-113752380D01*
X96280714Y-113752380D01*
X96423571Y-113800000D01*
X96995000Y-114752380D02*
X96899761Y-114704761D01*
X96852142Y-114657142D01*
X96804523Y-114561904D01*
X96804523Y-114276190D01*
X96852142Y-114180952D01*
X96899761Y-114133333D01*
X96995000Y-114085714D01*
X97137857Y-114085714D01*
X97233095Y-114133333D01*
X97280714Y-114180952D01*
X97328333Y-114276190D01*
X97328333Y-114561904D01*
X97280714Y-114657142D01*
X97233095Y-114704761D01*
X97137857Y-114752380D01*
X96995000Y-114752380D01*
X98185476Y-114085714D02*
X98185476Y-114752380D01*
X97756904Y-114085714D02*
X97756904Y-114609523D01*
X97804523Y-114704761D01*
X97899761Y-114752380D01*
X98042619Y-114752380D01*
X98137857Y-114704761D01*
X98185476Y-114657142D01*
X98518809Y-114085714D02*
X98899761Y-114085714D01*
X98661666Y-114752380D02*
X98661666Y-113895238D01*
X98709285Y-113800000D01*
X98804523Y-113752380D01*
X98899761Y-113752380D01*
X99090238Y-114085714D02*
X99471190Y-114085714D01*
X99233095Y-114752380D02*
X99233095Y-113895238D01*
X99280714Y-113800000D01*
X99375952Y-113752380D01*
X99471190Y-113752380D01*
X99947380Y-114752380D02*
X99852142Y-114704761D01*
X99804523Y-114609523D01*
X99804523Y-113752380D01*
X100709285Y-114704761D02*
X100614047Y-114752380D01*
X100423571Y-114752380D01*
X100328333Y-114704761D01*
X100280714Y-114609523D01*
X100280714Y-114228571D01*
X100328333Y-114133333D01*
X100423571Y-114085714D01*
X100614047Y-114085714D01*
X100709285Y-114133333D01*
X100756904Y-114228571D01*
X100756904Y-114323809D01*
X100280714Y-114419047D01*
X100614047Y-113704761D02*
X100471190Y-113847619D01*
X101947380Y-114371428D02*
X102709285Y-114371428D01*
X104233095Y-113752380D02*
X104233095Y-114466666D01*
X104185476Y-114609523D01*
X104090238Y-114704761D01*
X103947380Y-114752380D01*
X103852142Y-114752380D01*
X106042619Y-114657142D02*
X105994999Y-114704761D01*
X105852142Y-114752380D01*
X105756904Y-114752380D01*
X105614047Y-114704761D01*
X105518809Y-114609523D01*
X105471190Y-114514285D01*
X105423571Y-114323809D01*
X105423571Y-114180952D01*
X105471190Y-113990476D01*
X105518809Y-113895238D01*
X105614047Y-113800000D01*
X105756904Y-113752380D01*
X105852142Y-113752380D01*
X105994999Y-113800000D01*
X106042619Y-113847619D01*
X106614047Y-114752380D02*
X106518809Y-114704761D01*
X106471190Y-114609523D01*
X106471190Y-113752380D01*
X106995000Y-114752380D02*
X106995000Y-114085714D01*
X106995000Y-113752380D02*
X106947380Y-113800000D01*
X106995000Y-113847619D01*
X107042619Y-113800000D01*
X106995000Y-113752380D01*
X106995000Y-113847619D01*
X107471190Y-114752380D02*
X107471190Y-114085714D01*
X107471190Y-114180952D02*
X107518809Y-114133333D01*
X107614047Y-114085714D01*
X107756904Y-114085714D01*
X107852142Y-114133333D01*
X107899761Y-114228571D01*
X107899761Y-114752380D01*
X107899761Y-114228571D02*
X107947380Y-114133333D01*
X108042619Y-114085714D01*
X108185476Y-114085714D01*
X108280714Y-114133333D01*
X108328333Y-114228571D01*
X108328333Y-114752380D01*
X109185476Y-114704761D02*
X109090238Y-114752380D01*
X108899761Y-114752380D01*
X108804523Y-114704761D01*
X108756904Y-114609523D01*
X108756904Y-114228571D01*
X108804523Y-114133333D01*
X108899761Y-114085714D01*
X109090238Y-114085714D01*
X109185476Y-114133333D01*
X109233095Y-114228571D01*
X109233095Y-114323809D01*
X108756904Y-114419047D01*
X109661666Y-114085714D02*
X109661666Y-114752380D01*
X109661666Y-114180952D02*
X109709285Y-114133333D01*
X109804523Y-114085714D01*
X109947380Y-114085714D01*
X110042619Y-114133333D01*
X110090238Y-114228571D01*
X110090238Y-114752380D01*
X110423571Y-114085714D02*
X110804523Y-114085714D01*
X110566428Y-113752380D02*
X110566428Y-114609523D01*
X110614047Y-114704761D01*
X110709285Y-114752380D01*
X110804523Y-114752380D01*
M02*
