G04 #@! TF.GenerationSoftware,KiCad,Pcbnew,(6.0.2-0)*
G04 #@! TF.CreationDate,2022-02-19T09:24:15+00:00*
G04 #@! TF.ProjectId,SofleKeyboardTopPlate,536f666c-654b-4657-9962-6f617264546f,rev?*
G04 #@! TF.SameCoordinates,Original*
G04 #@! TF.FileFunction,Profile,NP*
%FSLAX46Y46*%
G04 Gerber Fmt 4.6, Leading zero omitted, Abs format (unit mm)*
G04 Created by KiCad (PCBNEW (6.0.2-0)) date 2022-02-19 09:24:15*
%MOMM*%
%LPD*%
G01*
G04 APERTURE LIST*
G04 #@! TA.AperFunction,Profile*
%ADD10C,0.150000*%
G04 #@! TD*
G04 #@! TA.AperFunction,Profile*
%ADD11C,0.100000*%
G04 #@! TD*
G04 #@! TA.AperFunction,Profile*
%ADD12C,0.050000*%
G04 #@! TD*
G04 APERTURE END LIST*
D10*
X107267178Y-137407178D02*
X95142822Y-144407178D01*
X100267178Y-125282822D02*
X107267178Y-137407178D01*
X95142822Y-144407178D02*
X88142822Y-132282822D01*
X88142822Y-132282822D02*
X100267178Y-125282822D01*
D11*
X226278881Y-45442807D02*
X226365281Y-45623672D01*
X93545000Y-147645000D02*
X83295000Y-129845000D01*
X171945000Y-36445000D02*
X225470441Y-44890146D01*
X89270257Y-115845000D02*
X89195000Y-116495000D01*
X94345000Y-148095000D02*
X94895000Y-148195000D01*
X83145000Y-129345000D02*
X83095000Y-128745000D01*
X93895000Y-147945000D02*
X94345000Y-148095000D01*
X225672111Y-44941776D02*
X225856871Y-45026466D01*
X89195000Y-116495000D02*
X88995000Y-117095000D01*
X83095000Y-128745000D02*
X83095000Y-128345000D01*
X93545000Y-147645000D02*
X93895000Y-147945000D01*
X225470441Y-44890146D02*
X225672111Y-44941776D01*
X226419381Y-45819571D02*
X226438181Y-46026902D01*
X83195000Y-127845000D02*
X88995000Y-117095000D01*
X226365281Y-45623672D02*
X226419381Y-45819571D01*
X149995000Y-36445000D02*
X113395000Y-37900000D01*
X139149128Y-135445000D02*
X188495000Y-135445000D01*
X83295000Y-129845000D02*
X83145000Y-129345000D01*
X83095000Y-128345000D02*
X83195000Y-127845000D01*
X139149128Y-135445000D02*
X94895000Y-148195000D01*
X226021621Y-45140600D02*
X226163321Y-45280582D01*
X149995000Y-36445000D02*
X171945000Y-36445000D01*
X226163321Y-45280582D02*
X226278881Y-45442807D01*
X89275178Y-112000822D02*
X89300000Y-98800000D01*
X225856871Y-45026466D02*
X226021621Y-45140600D01*
X225865741Y-139704819D02*
X207105300Y-139704820D01*
X225865741Y-139704819D02*
G75*
G03*
X226439802Y-139135974I5080J568958D01*
G01*
X226438181Y-46026902D02*
X226439802Y-139135974D01*
D10*
X209686000Y-137049000D02*
X209686000Y-123049000D01*
X209686000Y-123049000D02*
X223686000Y-123049000D01*
X223686000Y-137049000D02*
X209686000Y-137049000D01*
D11*
X207105300Y-139704820D02*
X188495000Y-135445000D01*
D10*
X223686000Y-123049000D02*
X223686000Y-137049000D01*
X128495000Y-82545000D02*
X128495000Y-96545000D01*
X204695000Y-84945000D02*
X204695000Y-98945000D01*
X166595000Y-91635000D02*
X152595000Y-91635000D01*
X209695000Y-46845000D02*
X223695000Y-46845000D01*
X209745000Y-117945000D02*
X209745000Y-103945000D01*
X171595000Y-74985000D02*
X171595000Y-60985000D01*
X152595000Y-115735000D02*
X166595000Y-115735000D01*
X147495000Y-99145000D02*
X147495000Y-113145000D01*
D11*
X110204928Y-97800000D02*
G75*
G03*
X109411178Y-98108822I-12J-1174449D01*
G01*
D10*
X209695000Y-65745000D02*
X223695000Y-65745000D01*
D11*
X112095000Y-38700000D02*
X112295000Y-38400000D01*
D10*
X223745000Y-103945000D02*
X223745000Y-117945000D01*
X190695000Y-103945000D02*
X204695000Y-103945000D01*
D11*
X110995000Y-97800000D02*
G75*
G03*
X111995000Y-96800000I-3J1000003D01*
G01*
D10*
X127168214Y-134794747D02*
X113645253Y-138418214D01*
D11*
X90300000Y-97800000D02*
X107093428Y-97800000D01*
D10*
X185595000Y-60985000D02*
X185595000Y-74985000D01*
D11*
X97885928Y-112836822D02*
G75*
G03*
X97885928Y-114360822I0J-762000D01*
G01*
D10*
X133495000Y-118145000D02*
X147495000Y-118145000D01*
X223745000Y-117945000D02*
X209745000Y-117945000D01*
X147495000Y-132145000D02*
X133495000Y-132145000D01*
X123544747Y-121271786D02*
X127168214Y-134794747D01*
X185595000Y-99145000D02*
X185595000Y-113145000D01*
X147495000Y-41945000D02*
X147495000Y-55945000D01*
X190695000Y-117945000D02*
X190695000Y-103945000D01*
X152595000Y-39445000D02*
X166595000Y-39445000D01*
X114495000Y-115545000D02*
X114495000Y-101545000D01*
X171595000Y-80045000D02*
X185595000Y-80045000D01*
D11*
X92393178Y-114360822D02*
G75*
G03*
X92393178Y-112836822I0J762000D01*
G01*
D10*
X171595000Y-94045000D02*
X171595000Y-80045000D01*
X133495000Y-113145000D02*
X133495000Y-99145000D01*
X166595000Y-53445000D02*
X152595000Y-53445000D01*
X152595000Y-129735000D02*
X152595000Y-115735000D01*
D11*
X89270257Y-115845000D02*
X89267178Y-115202909D01*
D10*
X204695000Y-103945000D02*
X204695000Y-117945000D01*
D11*
X111995000Y-39045000D02*
X112095000Y-38700000D01*
D10*
X171595000Y-113145000D02*
X171595000Y-99145000D01*
D11*
X102807178Y-112836822D02*
X105347178Y-112836822D01*
D10*
X223695000Y-79745000D02*
X209695000Y-79745000D01*
X190695000Y-79745000D02*
X190695000Y-65745000D01*
X114495000Y-58445000D02*
X114495000Y-44445000D01*
X204695000Y-46845000D02*
X204695000Y-60845000D01*
X133495000Y-99145000D02*
X147495000Y-99145000D01*
X185595000Y-80045000D02*
X185595000Y-94045000D01*
D11*
X105347178Y-114360822D02*
G75*
G03*
X105347178Y-112836822I0J762000D01*
G01*
D10*
X133495000Y-75045000D02*
X133495000Y-61045000D01*
X204695000Y-98945000D02*
X190695000Y-98945000D01*
X110021786Y-124895253D02*
X123544747Y-121271786D01*
X171595000Y-60985000D02*
X185595000Y-60985000D01*
X166595000Y-96635000D02*
X166595000Y-110635000D01*
D11*
X107887178Y-98108822D02*
G75*
G03*
X107093428Y-97800000I-793762J-865688D01*
G01*
X107887178Y-98108822D02*
G75*
G03*
X109411178Y-98108822I762000J454851D01*
G01*
D10*
X128495000Y-77545000D02*
X114495000Y-77545000D01*
X128495000Y-115545000D02*
X114495000Y-115545000D01*
X185595000Y-113145000D02*
X171595000Y-113145000D01*
X223695000Y-84945000D02*
X223695000Y-98945000D01*
X209695000Y-98945000D02*
X209695000Y-84945000D01*
X166595000Y-129735000D02*
X152595000Y-129735000D01*
X223695000Y-65745000D02*
X223695000Y-79745000D01*
X223695000Y-98945000D02*
X209695000Y-98945000D01*
X133495000Y-80045000D02*
X147495000Y-80045000D01*
X147495000Y-61045000D02*
X147495000Y-75045000D01*
D11*
X90300000Y-97800000D02*
G75*
G03*
X89300000Y-98800000I3J-1000003D01*
G01*
D10*
X133495000Y-61045000D02*
X147495000Y-61045000D01*
X223695000Y-60845000D02*
X209695000Y-60845000D01*
D11*
X112295000Y-38400000D02*
X112495000Y-38200000D01*
D10*
X190695000Y-98945000D02*
X190695000Y-84945000D01*
X171595000Y-99145000D02*
X185595000Y-99145000D01*
X209695000Y-84945000D02*
X223695000Y-84945000D01*
X166595000Y-110635000D02*
X152595000Y-110635000D01*
X152595000Y-91635000D02*
X152595000Y-77635000D01*
X128495000Y-58445000D02*
X114495000Y-58445000D01*
D11*
X90107178Y-114360822D02*
G75*
G03*
X89267178Y-115202909I-1J-840002D01*
G01*
D10*
X147495000Y-75045000D02*
X133495000Y-75045000D01*
X128495000Y-101545000D02*
X128495000Y-115545000D01*
X147495000Y-118145000D02*
X147495000Y-132145000D01*
D11*
X105347178Y-114360822D02*
X102807178Y-114360822D01*
D10*
X152595000Y-77635000D02*
X166595000Y-77635000D01*
D11*
X112695000Y-38100000D02*
X112995000Y-38000000D01*
D10*
X190695000Y-65745000D02*
X204695000Y-65745000D01*
X171595000Y-41985000D02*
X185595000Y-41985000D01*
X128495000Y-96545000D02*
X114495000Y-96545000D01*
X152595000Y-110635000D02*
X152595000Y-96635000D01*
X166595000Y-77635000D02*
X166595000Y-91635000D01*
X128495000Y-63545000D02*
X128495000Y-77545000D01*
X133495000Y-41945000D02*
X147495000Y-41945000D01*
X147495000Y-94045000D02*
X133495000Y-94045000D01*
X114495000Y-101545000D02*
X128495000Y-101545000D01*
X152595000Y-96635000D02*
X166595000Y-96635000D01*
X152595000Y-53445000D02*
X152595000Y-39445000D01*
X147495000Y-55945000D02*
X133495000Y-55945000D01*
X204695000Y-60845000D02*
X190695000Y-60845000D01*
D11*
X102807178Y-114360822D02*
X97885928Y-114360822D01*
D10*
X128495000Y-44445000D02*
X128495000Y-58445000D01*
X133495000Y-94045000D02*
X133495000Y-80045000D01*
X113645253Y-138418214D02*
X110021786Y-124895253D01*
D11*
X92393178Y-114360822D02*
X90107178Y-114360822D01*
D10*
X147495000Y-80045000D02*
X147495000Y-94045000D01*
D11*
X111995000Y-96800000D02*
X111995000Y-39045000D01*
D10*
X114495000Y-44445000D02*
X128495000Y-44445000D01*
X190695000Y-60845000D02*
X190695000Y-46845000D01*
D11*
X97885928Y-112836822D02*
X102807178Y-112836822D01*
D10*
X185595000Y-74985000D02*
X171595000Y-74985000D01*
X204695000Y-117945000D02*
X190695000Y-117945000D01*
X133495000Y-55945000D02*
X133495000Y-41945000D01*
X166595000Y-58535000D02*
X166595000Y-72535000D01*
X114495000Y-82545000D02*
X128495000Y-82545000D01*
X166595000Y-115735000D02*
X166595000Y-129735000D01*
X204695000Y-79745000D02*
X190695000Y-79745000D01*
X114495000Y-77545000D02*
X114495000Y-63545000D01*
X114495000Y-96545000D02*
X114495000Y-82545000D01*
X185595000Y-41985000D02*
X185595000Y-55985000D01*
D11*
X112495000Y-38200000D02*
X112695000Y-38100000D01*
D10*
X152595000Y-58535000D02*
X166595000Y-58535000D01*
D11*
X110204928Y-97800000D02*
X110995000Y-97800000D01*
D10*
X190695000Y-46845000D02*
X204695000Y-46845000D01*
X114495000Y-63545000D02*
X128495000Y-63545000D01*
X185595000Y-94045000D02*
X171595000Y-94045000D01*
X147495000Y-113145000D02*
X133495000Y-113145000D01*
X223695000Y-46845000D02*
X223695000Y-60845000D01*
D11*
X90107178Y-112836822D02*
X92393178Y-112836822D01*
D10*
X209695000Y-79745000D02*
X209695000Y-65745000D01*
X166595000Y-39445000D02*
X166595000Y-53445000D01*
D11*
X112995000Y-38000000D02*
X113395000Y-37900000D01*
D10*
X166595000Y-72535000D02*
X152595000Y-72535000D01*
X185595000Y-55985000D02*
X171595000Y-55985000D01*
X190695000Y-84945000D02*
X204695000Y-84945000D01*
X171595000Y-55985000D02*
X171595000Y-41985000D01*
X209745000Y-103945000D02*
X223745000Y-103945000D01*
X209695000Y-60845000D02*
X209695000Y-46845000D01*
D11*
X89275178Y-112000822D02*
G75*
G03*
X90107178Y-112836822I836708J695D01*
G01*
D10*
X152595000Y-72535000D02*
X152595000Y-58535000D01*
X133495000Y-132145000D02*
X133495000Y-118145000D01*
X204695000Y-65745000D02*
X204695000Y-79745000D01*
D12*
X107905987Y-109012499D02*
X107905987Y-104362499D01*
X107905987Y-101762499D02*
X107905987Y-100962499D01*
X108456011Y-114312469D02*
X108855987Y-114312499D01*
X106855987Y-102512499D02*
X106855987Y-103612499D01*
X107705987Y-104162499D02*
X107405987Y-104162499D01*
X108455987Y-100412499D02*
X108855987Y-100412499D01*
X109405987Y-113762499D02*
X109405987Y-100962499D01*
X107705987Y-109212499D02*
X107405987Y-109212499D01*
X106855987Y-109762499D02*
X106855987Y-110862499D01*
X107705987Y-101962499D02*
X107405987Y-101962499D01*
X107905988Y-113762499D02*
X107905987Y-111612499D01*
X107705987Y-111412499D02*
X107405987Y-111412499D01*
X109405987Y-100962499D02*
G75*
G03*
X108855987Y-100412499I-250000J300000D01*
G01*
X107705987Y-101962499D02*
G75*
G03*
X107905987Y-101762499I-1J200001D01*
G01*
X106855987Y-110862499D02*
G75*
G03*
X107405987Y-111412499I250000J-300000D01*
G01*
X107905987Y-111612499D02*
G75*
G03*
X107705987Y-111412499I-200001J-1D01*
G01*
X108455987Y-100412499D02*
G75*
G03*
X107905987Y-100962499I-300000J-250000D01*
G01*
X107405987Y-109212499D02*
G75*
G03*
X106855987Y-109762499I-300000J-250000D01*
G01*
X107905988Y-113762499D02*
G75*
G03*
X108456011Y-114312469I249999J-300000D01*
G01*
X107905987Y-104362499D02*
G75*
G03*
X107705987Y-104162499I-200001J-1D01*
G01*
X107705987Y-109212499D02*
G75*
G03*
X107905987Y-109012499I-1J200001D01*
G01*
X108855987Y-114312499D02*
G75*
G03*
X109405987Y-113762499I300000J250000D01*
G01*
X106855987Y-103612499D02*
G75*
G03*
X107405987Y-104162499I250000J-300000D01*
G01*
X107405987Y-101962499D02*
G75*
G03*
X106855987Y-102512499I-300000J-250000D01*
G01*
M02*
