%FSLAX45Y45*%
G04 Gerber Fmt 4.5, Leading zero omitted, Abs format (unit mm)*
G04 Created by KiCad (PCBNEW (6.0.2-0)) date 2022-02-19 09:24:20*
%MOMM*%
%LPD*%
G01*
G04 APERTURE LIST*
%TA.AperFunction,Profile*%
%ADD10C,0.150000*%
%TD*%
%TA.AperFunction,Profile*%
%ADD11C,0.100000*%
%TD*%
%ADD12C,0.200000*%
%ADD13C,0.160000*%
G04 APERTURE END LIST*
D10*
X10726718Y-13740718D02*
X9514282Y-14440718D01*
X10026718Y-12528282D02*
X10726718Y-13740718D01*
X9514282Y-14440718D02*
X8814282Y-13228282D01*
X8814282Y-13228282D02*
X10026718Y-12528282D01*
D11*
X22627888Y-4544281D02*
X22636528Y-4562367D01*
X9354500Y-14764500D02*
X8329500Y-12984500D01*
X17194500Y-3644500D02*
X22547044Y-4489015D01*
X8927026Y-11584500D02*
X8919500Y-11649500D01*
X9434500Y-14809500D02*
X9489500Y-14819500D01*
X8314500Y-12934500D02*
X8309500Y-12874500D01*
X9389500Y-14794500D02*
X9434500Y-14809500D01*
X22567211Y-4494178D02*
X22585687Y-4502647D01*
X8919500Y-11649500D02*
X8899500Y-11709500D01*
X8309500Y-12874500D02*
X8309500Y-12834500D01*
X9354500Y-14764500D02*
X9389500Y-14794500D01*
X22547044Y-4489015D02*
X22567211Y-4494178D01*
X22641938Y-4581957D02*
X22643818Y-4602690D01*
X8319500Y-12784500D02*
X8899500Y-11709500D01*
X22636528Y-4562367D02*
X22641938Y-4581957D01*
X14999500Y-3644500D02*
X11339500Y-3790000D01*
X13914913Y-13544500D02*
X18849500Y-13544500D01*
X8329500Y-12984500D02*
X8314500Y-12934500D01*
X8309500Y-12834500D02*
X8319500Y-12784500D01*
X13914913Y-13544500D02*
X9489500Y-14819500D01*
X22602162Y-4514060D02*
X22616332Y-4528058D01*
X14999500Y-3644500D02*
X17194500Y-3644500D01*
X22616332Y-4528058D02*
X22627888Y-4544281D01*
X8927518Y-11200082D02*
X8930000Y-9880000D01*
X22585687Y-4502647D02*
X22602162Y-4514060D01*
X22586574Y-13970482D02*
X20710530Y-13970482D01*
X22586574Y-13970482D02*
G75*
G03*
X22643980Y-13913597I508J56896D01*
G01*
X22643818Y-4602690D02*
X22643980Y-13913597D01*
D10*
X20968600Y-13704900D02*
X20968600Y-12304900D01*
X20968600Y-12304900D02*
X22368600Y-12304900D01*
X22368600Y-13704900D02*
X20968600Y-13704900D01*
D11*
X20710530Y-13970482D02*
X18849500Y-13544500D01*
D10*
X22368600Y-12304900D02*
X22368600Y-13704900D01*
X12849500Y-8254500D02*
X12849500Y-9654500D01*
X20469500Y-8494500D02*
X20469500Y-9894500D01*
X16659500Y-9163500D02*
X15259500Y-9163500D01*
X20969500Y-4684500D02*
X22369500Y-4684500D01*
X20974500Y-11794500D02*
X20974500Y-10394500D01*
X17159500Y-7498500D02*
X17159500Y-6098500D01*
X15259500Y-11573500D02*
X16659500Y-11573500D01*
X14749500Y-9914500D02*
X14749500Y-11314500D01*
D11*
X11020493Y-9780000D02*
G75*
G03*
X10941118Y-9810882I-1J-117445D01*
G01*
D10*
X20969500Y-6574500D02*
X22369500Y-6574500D01*
D11*
X11209500Y-3870000D02*
X11229500Y-3840000D01*
D10*
X22374500Y-10394500D02*
X22374500Y-11794500D01*
X19069500Y-10394500D02*
X20469500Y-10394500D01*
D11*
X11099500Y-9780000D02*
G75*
G03*
X11199500Y-9680000I0J100000D01*
G01*
D10*
X12716821Y-13479475D02*
X11364525Y-13841821D01*
D11*
X9030000Y-9780000D02*
X10709343Y-9780000D01*
D10*
X18559500Y-6098500D02*
X18559500Y-7498500D01*
D11*
X9788593Y-11283682D02*
G75*
G03*
X9788593Y-11436082I0J-76200D01*
G01*
D10*
X13349500Y-11814500D02*
X14749500Y-11814500D01*
X22374500Y-11794500D02*
X20974500Y-11794500D01*
X14749500Y-13214500D02*
X13349500Y-13214500D01*
X12354475Y-12127179D02*
X12716821Y-13479475D01*
X18559500Y-9914500D02*
X18559500Y-11314500D01*
X14749500Y-4194500D02*
X14749500Y-5594500D01*
X19069500Y-11794500D02*
X19069500Y-10394500D01*
X15259500Y-3944500D02*
X16659500Y-3944500D01*
X11449500Y-11554500D02*
X11449500Y-10154500D01*
X17159500Y-8004500D02*
X18559500Y-8004500D01*
D11*
X9239318Y-11436082D02*
G75*
G03*
X9239318Y-11283682I0J76200D01*
G01*
D10*
X17159500Y-9404500D02*
X17159500Y-8004500D01*
X13349500Y-11314500D02*
X13349500Y-9914500D01*
X16659500Y-5344500D02*
X15259500Y-5344500D01*
X15259500Y-12973500D02*
X15259500Y-11573500D01*
D11*
X8927026Y-11584500D02*
X8926718Y-11520291D01*
D10*
X20469500Y-10394500D02*
X20469500Y-11794500D01*
D11*
X11199500Y-3904500D02*
X11209500Y-3870000D01*
D10*
X17159500Y-11314500D02*
X17159500Y-9914500D01*
D11*
X10280718Y-11283682D02*
X10534718Y-11283682D01*
D10*
X22369500Y-7974500D02*
X20969500Y-7974500D01*
X19069500Y-7974500D02*
X19069500Y-6574500D01*
X11449500Y-5844500D02*
X11449500Y-4444500D01*
X20469500Y-4684500D02*
X20469500Y-6084500D01*
X13349500Y-9914500D02*
X14749500Y-9914500D01*
X18559500Y-8004500D02*
X18559500Y-9404500D01*
D11*
X10534718Y-11436082D02*
G75*
G03*
X10534718Y-11283682I0J76200D01*
G01*
D10*
X13349500Y-7504500D02*
X13349500Y-6104500D01*
X20469500Y-9894500D02*
X19069500Y-9894500D01*
X11002179Y-12489525D02*
X12354475Y-12127179D01*
X17159500Y-6098500D02*
X18559500Y-6098500D01*
X16659500Y-9663500D02*
X16659500Y-11063500D01*
D11*
X10788718Y-9810882D02*
G75*
G03*
X10709343Y-9780000I-79376J-86569D01*
G01*
X10788718Y-9810882D02*
G75*
G03*
X10941118Y-9810882I76200J45485D01*
G01*
D10*
X12849500Y-7754500D02*
X11449500Y-7754500D01*
X12849500Y-11554500D02*
X11449500Y-11554500D01*
X18559500Y-11314500D02*
X17159500Y-11314500D01*
X22369500Y-8494500D02*
X22369500Y-9894500D01*
X20969500Y-9894500D02*
X20969500Y-8494500D01*
X16659500Y-12973500D02*
X15259500Y-12973500D01*
X22369500Y-6574500D02*
X22369500Y-7974500D01*
X22369500Y-9894500D02*
X20969500Y-9894500D01*
X13349500Y-8004500D02*
X14749500Y-8004500D01*
X14749500Y-6104500D02*
X14749500Y-7504500D01*
D11*
X9030000Y-9780000D02*
G75*
G03*
X8930000Y-9880000I0J-100000D01*
G01*
D10*
X13349500Y-6104500D02*
X14749500Y-6104500D01*
X22369500Y-6084500D02*
X20969500Y-6084500D01*
D11*
X11229500Y-3840000D02*
X11249500Y-3820000D01*
D10*
X19069500Y-9894500D02*
X19069500Y-8494500D01*
X17159500Y-9914500D02*
X18559500Y-9914500D01*
X20969500Y-8494500D02*
X22369500Y-8494500D01*
X16659500Y-11063500D02*
X15259500Y-11063500D01*
X15259500Y-9163500D02*
X15259500Y-7763500D01*
X12849500Y-5844500D02*
X11449500Y-5844500D01*
D11*
X9010718Y-11436082D02*
G75*
G03*
X8926718Y-11520291I0J-84000D01*
G01*
D10*
X14749500Y-7504500D02*
X13349500Y-7504500D01*
X12849500Y-10154500D02*
X12849500Y-11554500D01*
X14749500Y-11814500D02*
X14749500Y-13214500D01*
D11*
X10534718Y-11436082D02*
X10280718Y-11436082D01*
D10*
X15259500Y-7763500D02*
X16659500Y-7763500D01*
D11*
X11269500Y-3810000D02*
X11299500Y-3800000D01*
D10*
X19069500Y-6574500D02*
X20469500Y-6574500D01*
X17159500Y-4198500D02*
X18559500Y-4198500D01*
X12849500Y-9654500D02*
X11449500Y-9654500D01*
X15259500Y-11063500D02*
X15259500Y-9663500D01*
X16659500Y-7763500D02*
X16659500Y-9163500D01*
X12849500Y-6354500D02*
X12849500Y-7754500D01*
X13349500Y-4194500D02*
X14749500Y-4194500D01*
X14749500Y-9404500D02*
X13349500Y-9404500D01*
X11449500Y-10154500D02*
X12849500Y-10154500D01*
X15259500Y-9663500D02*
X16659500Y-9663500D01*
X15259500Y-5344500D02*
X15259500Y-3944500D01*
X14749500Y-5594500D02*
X13349500Y-5594500D01*
X20469500Y-6084500D02*
X19069500Y-6084500D01*
D11*
X10280718Y-11436082D02*
X9788593Y-11436082D01*
D10*
X12849500Y-4444500D02*
X12849500Y-5844500D01*
X13349500Y-9404500D02*
X13349500Y-8004500D01*
X11364525Y-13841821D02*
X11002179Y-12489525D01*
D11*
X9239318Y-11436082D02*
X9010718Y-11436082D01*
D10*
X14749500Y-8004500D02*
X14749500Y-9404500D01*
D11*
X11199500Y-9680000D02*
X11199500Y-3904500D01*
D10*
X11449500Y-4444500D02*
X12849500Y-4444500D01*
X19069500Y-6084500D02*
X19069500Y-4684500D01*
D11*
X9788593Y-11283682D02*
X10280718Y-11283682D01*
D10*
X18559500Y-7498500D02*
X17159500Y-7498500D01*
X20469500Y-11794500D02*
X19069500Y-11794500D01*
X13349500Y-5594500D02*
X13349500Y-4194500D01*
X16659500Y-5853500D02*
X16659500Y-7253500D01*
X11449500Y-8254500D02*
X12849500Y-8254500D01*
X16659500Y-11573500D02*
X16659500Y-12973500D01*
X20469500Y-7974500D02*
X19069500Y-7974500D01*
X11449500Y-7754500D02*
X11449500Y-6354500D01*
X11449500Y-9654500D02*
X11449500Y-8254500D01*
X18559500Y-4198500D02*
X18559500Y-5598500D01*
D11*
X11249500Y-3820000D02*
X11269500Y-3810000D01*
D10*
X15259500Y-5853500D02*
X16659500Y-5853500D01*
D11*
X11020493Y-9780000D02*
X11099500Y-9780000D01*
D10*
X19069500Y-4684500D02*
X20469500Y-4684500D01*
X11449500Y-6354500D02*
X12849500Y-6354500D01*
X18559500Y-9404500D02*
X17159500Y-9404500D01*
X14749500Y-11314500D02*
X13349500Y-11314500D01*
X22369500Y-4684500D02*
X22369500Y-6084500D01*
D11*
X9010718Y-11283682D02*
X9239318Y-11283682D01*
D10*
X20969500Y-7974500D02*
X20969500Y-6574500D01*
X16659500Y-3944500D02*
X16659500Y-5344500D01*
D11*
X11299500Y-3800000D02*
X11339500Y-3790000D01*
D10*
X16659500Y-7253500D02*
X15259500Y-7253500D01*
X18559500Y-5598500D02*
X17159500Y-5598500D01*
X19069500Y-8494500D02*
X20469500Y-8494500D01*
X17159500Y-5598500D02*
X17159500Y-4198500D01*
X20974500Y-10394500D02*
X22374500Y-10394500D01*
X20969500Y-6084500D02*
X20969500Y-4684500D01*
D11*
X8927518Y-11200082D02*
G75*
G03*
X9010718Y-11283682I83671J70D01*
G01*
D10*
X15259500Y-7253500D02*
X15259500Y-5853500D01*
X13349500Y-13214500D02*
X13349500Y-11814500D01*
X20469500Y-6574500D02*
X20469500Y-7974500D01*
D12*
D13*
X9435599Y-11277250D02*
X9595599Y-11437250D01*
X9595599Y-11277250D02*
X9435599Y-11437250D01*
D12*
X8562119Y-15134976D02*
X8562119Y-14934976D01*
X8609738Y-14934976D01*
X8638310Y-14944500D01*
X8657357Y-14963548D01*
X8666881Y-14982595D01*
X8676405Y-15020690D01*
X8676405Y-15049262D01*
X8666881Y-15087357D01*
X8657357Y-15106405D01*
X8638310Y-15125452D01*
X8609738Y-15134976D01*
X8562119Y-15134976D01*
X8762119Y-15134976D02*
X8762119Y-15001643D01*
X8762119Y-15039738D02*
X8771643Y-15020690D01*
X8781167Y-15011167D01*
X8800214Y-15001643D01*
X8819262Y-15001643D01*
X8885929Y-15134976D02*
X8885929Y-15001643D01*
X8885929Y-14934976D02*
X8876405Y-14944500D01*
X8885929Y-14954024D01*
X8895452Y-14944500D01*
X8885929Y-14934976D01*
X8885929Y-14954024D01*
X9009738Y-15134976D02*
X8990690Y-15125452D01*
X8981167Y-15106405D01*
X8981167Y-14934976D01*
X9114500Y-15134976D02*
X9095452Y-15125452D01*
X9085929Y-15106405D01*
X9085929Y-14934976D01*
X9343071Y-15134976D02*
X9343071Y-14934976D01*
X9409738Y-15077833D01*
X9476405Y-14934976D01*
X9476405Y-15134976D01*
X9657357Y-15134976D02*
X9657357Y-15030214D01*
X9647833Y-15011167D01*
X9628786Y-15001643D01*
X9590690Y-15001643D01*
X9571643Y-15011167D01*
X9657357Y-15125452D02*
X9638310Y-15134976D01*
X9590690Y-15134976D01*
X9571643Y-15125452D01*
X9562119Y-15106405D01*
X9562119Y-15087357D01*
X9571643Y-15068309D01*
X9590690Y-15058786D01*
X9638310Y-15058786D01*
X9657357Y-15049262D01*
X9752595Y-15001643D02*
X9752595Y-15201643D01*
X9752595Y-15011167D02*
X9771643Y-15001643D01*
X9809738Y-15001643D01*
X9828786Y-15011167D01*
X9838310Y-15020690D01*
X9847833Y-15039738D01*
X9847833Y-15096881D01*
X9838310Y-15115928D01*
X9828786Y-15125452D01*
X9809738Y-15134976D01*
X9771643Y-15134976D01*
X9752595Y-15125452D01*
X9933548Y-15115928D02*
X9943071Y-15125452D01*
X9933548Y-15134976D01*
X9924024Y-15125452D01*
X9933548Y-15115928D01*
X9933548Y-15134976D01*
X9933548Y-15011167D02*
X9943071Y-15020690D01*
X9933548Y-15030214D01*
X9924024Y-15020690D01*
X9933548Y-15011167D01*
X9933548Y-15030214D01*
D13*
X8144500Y-15384500D02*
X8304500Y-15544500D01*
X8304500Y-15384500D02*
X8144500Y-15544500D01*
D12*
X8666881Y-15554976D02*
X8552595Y-15554976D01*
X8609738Y-15554976D02*
X8609738Y-15354976D01*
X8590690Y-15383548D01*
X8571643Y-15402595D01*
X8552595Y-15412119D01*
X8752595Y-15535928D02*
X8762119Y-15545452D01*
X8752595Y-15554976D01*
X8743071Y-15545452D01*
X8752595Y-15535928D01*
X8752595Y-15554976D01*
X8933548Y-15354976D02*
X8895452Y-15354976D01*
X8876405Y-15364500D01*
X8866881Y-15374024D01*
X8847833Y-15402595D01*
X8838310Y-15440690D01*
X8838310Y-15516881D01*
X8847833Y-15535928D01*
X8857357Y-15545452D01*
X8876405Y-15554976D01*
X8914500Y-15554976D01*
X8933548Y-15545452D01*
X8943071Y-15535928D01*
X8952595Y-15516881D01*
X8952595Y-15469262D01*
X8943071Y-15450214D01*
X8933548Y-15440690D01*
X8914500Y-15431167D01*
X8876405Y-15431167D01*
X8857357Y-15440690D01*
X8847833Y-15450214D01*
X8838310Y-15469262D01*
X9076405Y-15354976D02*
X9095452Y-15354976D01*
X9114500Y-15364500D01*
X9124024Y-15374024D01*
X9133548Y-15393071D01*
X9143071Y-15431167D01*
X9143071Y-15478786D01*
X9133548Y-15516881D01*
X9124024Y-15535928D01*
X9114500Y-15545452D01*
X9095452Y-15554976D01*
X9076405Y-15554976D01*
X9057357Y-15545452D01*
X9047833Y-15535928D01*
X9038310Y-15516881D01*
X9028786Y-15478786D01*
X9028786Y-15431167D01*
X9038310Y-15393071D01*
X9047833Y-15374024D01*
X9057357Y-15364500D01*
X9076405Y-15354976D01*
X9266881Y-15354976D02*
X9285929Y-15354976D01*
X9304976Y-15364500D01*
X9314500Y-15374024D01*
X9324024Y-15393071D01*
X9333548Y-15431167D01*
X9333548Y-15478786D01*
X9324024Y-15516881D01*
X9314500Y-15535928D01*
X9304976Y-15545452D01*
X9285929Y-15554976D01*
X9266881Y-15554976D01*
X9247833Y-15545452D01*
X9238310Y-15535928D01*
X9228786Y-15516881D01*
X9219262Y-15478786D01*
X9219262Y-15431167D01*
X9228786Y-15393071D01*
X9238310Y-15374024D01*
X9247833Y-15364500D01*
X9266881Y-15354976D01*
X9419262Y-15554976D02*
X9419262Y-15421643D01*
X9419262Y-15440690D02*
X9428786Y-15431167D01*
X9447833Y-15421643D01*
X9476405Y-15421643D01*
X9495452Y-15431167D01*
X9504976Y-15450214D01*
X9504976Y-15554976D01*
X9504976Y-15450214D02*
X9514500Y-15431167D01*
X9533548Y-15421643D01*
X9562119Y-15421643D01*
X9581167Y-15431167D01*
X9590690Y-15450214D01*
X9590690Y-15554976D01*
X9685929Y-15554976D02*
X9685929Y-15421643D01*
X9685929Y-15440690D02*
X9695452Y-15431167D01*
X9714500Y-15421643D01*
X9743071Y-15421643D01*
X9762119Y-15431167D01*
X9771643Y-15450214D01*
X9771643Y-15554976D01*
X9771643Y-15450214D02*
X9781167Y-15431167D01*
X9800214Y-15421643D01*
X9828786Y-15421643D01*
X9847833Y-15431167D01*
X9857357Y-15450214D01*
X9857357Y-15554976D01*
X10247833Y-15345452D02*
X10076405Y-15602595D01*
X10504976Y-15354976D02*
X10524024Y-15354976D01*
X10543071Y-15364500D01*
X10552595Y-15374024D01*
X10562119Y-15393071D01*
X10571643Y-15431167D01*
X10571643Y-15478786D01*
X10562119Y-15516881D01*
X10552595Y-15535928D01*
X10543071Y-15545452D01*
X10524024Y-15554976D01*
X10504976Y-15554976D01*
X10485929Y-15545452D01*
X10476405Y-15535928D01*
X10466881Y-15516881D01*
X10457357Y-15478786D01*
X10457357Y-15431167D01*
X10466881Y-15393071D01*
X10476405Y-15374024D01*
X10485929Y-15364500D01*
X10504976Y-15354976D01*
X10657357Y-15535928D02*
X10666881Y-15545452D01*
X10657357Y-15554976D01*
X10647833Y-15545452D01*
X10657357Y-15535928D01*
X10657357Y-15554976D01*
X10790690Y-15354976D02*
X10809738Y-15354976D01*
X10828786Y-15364500D01*
X10838310Y-15374024D01*
X10847833Y-15393071D01*
X10857357Y-15431167D01*
X10857357Y-15478786D01*
X10847833Y-15516881D01*
X10838310Y-15535928D01*
X10828786Y-15545452D01*
X10809738Y-15554976D01*
X10790690Y-15554976D01*
X10771643Y-15545452D01*
X10762119Y-15535928D01*
X10752595Y-15516881D01*
X10743071Y-15478786D01*
X10743071Y-15431167D01*
X10752595Y-15393071D01*
X10762119Y-15374024D01*
X10771643Y-15364500D01*
X10790690Y-15354976D01*
X11028786Y-15354976D02*
X10990690Y-15354976D01*
X10971643Y-15364500D01*
X10962119Y-15374024D01*
X10943071Y-15402595D01*
X10933548Y-15440690D01*
X10933548Y-15516881D01*
X10943071Y-15535928D01*
X10952595Y-15545452D01*
X10971643Y-15554976D01*
X11009738Y-15554976D01*
X11028786Y-15545452D01*
X11038310Y-15535928D01*
X11047833Y-15516881D01*
X11047833Y-15469262D01*
X11038310Y-15450214D01*
X11028786Y-15440690D01*
X11009738Y-15431167D01*
X10971643Y-15431167D01*
X10952595Y-15440690D01*
X10943071Y-15450214D01*
X10933548Y-15469262D01*
X11114500Y-15354976D02*
X11238309Y-15354976D01*
X11171643Y-15431167D01*
X11200214Y-15431167D01*
X11219262Y-15440690D01*
X11228786Y-15450214D01*
X11238309Y-15469262D01*
X11238309Y-15516881D01*
X11228786Y-15535928D01*
X11219262Y-15545452D01*
X11200214Y-15554976D01*
X11143071Y-15554976D01*
X11124024Y-15545452D01*
X11114500Y-15535928D01*
X11362119Y-15354976D02*
X11381167Y-15354976D01*
X11400214Y-15364500D01*
X11409738Y-15374024D01*
X11419262Y-15393071D01*
X11428786Y-15431167D01*
X11428786Y-15478786D01*
X11419262Y-15516881D01*
X11409738Y-15535928D01*
X11400214Y-15545452D01*
X11381167Y-15554976D01*
X11362119Y-15554976D01*
X11343071Y-15545452D01*
X11333548Y-15535928D01*
X11324024Y-15516881D01*
X11314500Y-15478786D01*
X11314500Y-15431167D01*
X11324024Y-15393071D01*
X11333548Y-15374024D01*
X11343071Y-15364500D01*
X11362119Y-15354976D01*
X11504976Y-15354976D02*
X11504976Y-15393071D01*
X11581167Y-15354976D02*
X11581167Y-15393071D01*
X11876405Y-15631167D02*
X11866881Y-15621643D01*
X11847833Y-15593071D01*
X11838309Y-15574024D01*
X11828786Y-15545452D01*
X11819262Y-15497833D01*
X11819262Y-15459738D01*
X11828786Y-15412119D01*
X11838309Y-15383548D01*
X11847833Y-15364500D01*
X11866881Y-15335928D01*
X11876405Y-15326405D01*
X12057357Y-15554976D02*
X11943071Y-15554976D01*
X12000214Y-15554976D02*
X12000214Y-15354976D01*
X11981167Y-15383548D01*
X11962119Y-15402595D01*
X11943071Y-15412119D01*
X12295452Y-15554976D02*
X12295452Y-15354976D01*
X12381167Y-15554976D02*
X12381167Y-15450214D01*
X12371643Y-15431167D01*
X12352595Y-15421643D01*
X12324024Y-15421643D01*
X12304976Y-15431167D01*
X12295452Y-15440690D01*
X12504976Y-15554976D02*
X12485928Y-15545452D01*
X12476405Y-15535928D01*
X12466881Y-15516881D01*
X12466881Y-15459738D01*
X12476405Y-15440690D01*
X12485928Y-15431167D01*
X12504976Y-15421643D01*
X12533548Y-15421643D01*
X12552595Y-15431167D01*
X12562119Y-15440690D01*
X12571643Y-15459738D01*
X12571643Y-15516881D01*
X12562119Y-15535928D01*
X12552595Y-15545452D01*
X12533548Y-15554976D01*
X12504976Y-15554976D01*
X12685928Y-15554976D02*
X12666881Y-15545452D01*
X12657357Y-15526405D01*
X12657357Y-15354976D01*
X12838309Y-15545452D02*
X12819262Y-15554976D01*
X12781167Y-15554976D01*
X12762119Y-15545452D01*
X12752595Y-15526405D01*
X12752595Y-15450214D01*
X12762119Y-15431167D01*
X12781167Y-15421643D01*
X12819262Y-15421643D01*
X12838309Y-15431167D01*
X12847833Y-15450214D01*
X12847833Y-15469262D01*
X12752595Y-15488309D01*
X12914500Y-15631167D02*
X12924024Y-15621643D01*
X12943071Y-15593071D01*
X12952595Y-15574024D01*
X12962119Y-15545452D01*
X12971643Y-15497833D01*
X12971643Y-15459738D01*
X12962119Y-15412119D01*
X12952595Y-15383548D01*
X12943071Y-15364500D01*
X12924024Y-15335928D01*
X12914500Y-15326405D01*
X13276405Y-15631167D02*
X13266881Y-15621643D01*
X13247833Y-15593071D01*
X13238309Y-15574024D01*
X13228786Y-15545452D01*
X13219262Y-15497833D01*
X13219262Y-15459738D01*
X13228786Y-15412119D01*
X13238309Y-15383548D01*
X13247833Y-15364500D01*
X13266881Y-15335928D01*
X13276405Y-15326405D01*
X13352595Y-15421643D02*
X13352595Y-15554976D01*
X13352595Y-15440690D02*
X13362119Y-15431167D01*
X13381167Y-15421643D01*
X13409738Y-15421643D01*
X13428786Y-15431167D01*
X13438309Y-15450214D01*
X13438309Y-15554976D01*
X13562119Y-15554976D02*
X13543071Y-15545452D01*
X13533548Y-15535928D01*
X13524024Y-15516881D01*
X13524024Y-15459738D01*
X13533548Y-15440690D01*
X13543071Y-15431167D01*
X13562119Y-15421643D01*
X13590690Y-15421643D01*
X13609738Y-15431167D01*
X13619262Y-15440690D01*
X13628786Y-15459738D01*
X13628786Y-15516881D01*
X13619262Y-15535928D01*
X13609738Y-15545452D01*
X13590690Y-15554976D01*
X13562119Y-15554976D01*
X13685928Y-15421643D02*
X13762119Y-15421643D01*
X13714500Y-15354976D02*
X13714500Y-15526405D01*
X13724024Y-15545452D01*
X13743071Y-15554976D01*
X13762119Y-15554976D01*
X13981167Y-15421643D02*
X13981167Y-15621643D01*
X13981167Y-15431167D02*
X14000214Y-15421643D01*
X14038309Y-15421643D01*
X14057357Y-15431167D01*
X14066881Y-15440690D01*
X14076405Y-15459738D01*
X14076405Y-15516881D01*
X14066881Y-15535928D01*
X14057357Y-15545452D01*
X14038309Y-15554976D01*
X14000214Y-15554976D01*
X13981167Y-15545452D01*
X14190690Y-15554976D02*
X14171643Y-15545452D01*
X14162119Y-15526405D01*
X14162119Y-15354976D01*
X14352595Y-15554976D02*
X14352595Y-15450214D01*
X14343071Y-15431167D01*
X14324024Y-15421643D01*
X14285928Y-15421643D01*
X14266881Y-15431167D01*
X14352595Y-15545452D02*
X14333548Y-15554976D01*
X14285928Y-15554976D01*
X14266881Y-15545452D01*
X14257357Y-15526405D01*
X14257357Y-15507357D01*
X14266881Y-15488309D01*
X14285928Y-15478786D01*
X14333548Y-15478786D01*
X14352595Y-15469262D01*
X14419262Y-15421643D02*
X14495452Y-15421643D01*
X14447833Y-15354976D02*
X14447833Y-15526405D01*
X14457357Y-15545452D01*
X14476405Y-15554976D01*
X14495452Y-15554976D01*
X14638309Y-15545452D02*
X14619262Y-15554976D01*
X14581167Y-15554976D01*
X14562119Y-15545452D01*
X14552595Y-15526405D01*
X14552595Y-15450214D01*
X14562119Y-15431167D01*
X14581167Y-15421643D01*
X14619262Y-15421643D01*
X14638309Y-15431167D01*
X14647833Y-15450214D01*
X14647833Y-15469262D01*
X14552595Y-15488309D01*
X14819262Y-15554976D02*
X14819262Y-15354976D01*
X14819262Y-15545452D02*
X14800214Y-15554976D01*
X14762119Y-15554976D01*
X14743071Y-15545452D01*
X14733548Y-15535928D01*
X14724024Y-15516881D01*
X14724024Y-15459738D01*
X14733548Y-15440690D01*
X14743071Y-15431167D01*
X14762119Y-15421643D01*
X14800214Y-15421643D01*
X14819262Y-15431167D01*
X14895452Y-15631167D02*
X14904976Y-15621643D01*
X14924024Y-15593071D01*
X14933548Y-15574024D01*
X14943071Y-15545452D01*
X14952595Y-15497833D01*
X14952595Y-15459738D01*
X14943071Y-15412119D01*
X14933548Y-15383548D01*
X14924024Y-15364500D01*
X14904976Y-15335928D01*
X14895452Y-15326405D01*
M02*
