G04 #@! TF.GenerationSoftware,KiCad,Pcbnew,(6.0.2-0)*
G04 #@! TF.CreationDate,2022-02-19T09:24:14+00:00*
G04 #@! TF.ProjectId,SofleKeyboardTopPlate,536f666c-654b-4657-9962-6f617264546f,rev?*
G04 #@! TF.SameCoordinates,Original*
G04 #@! TF.FileFunction,Legend,Top*
G04 #@! TF.FilePolarity,Positive*
%FSLAX46Y46*%
G04 Gerber Fmt 4.6, Leading zero omitted, Abs format (unit mm)*
G04 Created by KiCad (PCBNEW (6.0.2-0)) date 2022-02-19 09:24:14*
%MOMM*%
%LPD*%
G01*
G04 APERTURE LIST*
%ADD10C,0.200000*%
%ADD11C,0.150000*%
%ADD12C,0.010000*%
%ADD13C,5.100000*%
%ADD14C,2.400000*%
G04 APERTURE END LIST*
D10*
X186920714Y-128305761D02*
X187063571Y-128353380D01*
X187301666Y-128353380D01*
X187396904Y-128305761D01*
X187444523Y-128258142D01*
X187492142Y-128162904D01*
X187492142Y-128067666D01*
X187444523Y-127972428D01*
X187396904Y-127924809D01*
X187301666Y-127877190D01*
X187111190Y-127829571D01*
X187015952Y-127781952D01*
X186968333Y-127734333D01*
X186920714Y-127639095D01*
X186920714Y-127543857D01*
X186968333Y-127448619D01*
X187015952Y-127401000D01*
X187111190Y-127353380D01*
X187349285Y-127353380D01*
X187492142Y-127401000D01*
X188063571Y-128353380D02*
X187968333Y-128305761D01*
X187920714Y-128258142D01*
X187873095Y-128162904D01*
X187873095Y-127877190D01*
X187920714Y-127781952D01*
X187968333Y-127734333D01*
X188063571Y-127686714D01*
X188206428Y-127686714D01*
X188301666Y-127734333D01*
X188349285Y-127781952D01*
X188396904Y-127877190D01*
X188396904Y-128162904D01*
X188349285Y-128258142D01*
X188301666Y-128305761D01*
X188206428Y-128353380D01*
X188063571Y-128353380D01*
X188682619Y-127686714D02*
X189063571Y-127686714D01*
X188825476Y-128353380D02*
X188825476Y-127496238D01*
X188873095Y-127401000D01*
X188968333Y-127353380D01*
X189063571Y-127353380D01*
X189539761Y-128353380D02*
X189444523Y-128305761D01*
X189396904Y-128210523D01*
X189396904Y-127353380D01*
X190301666Y-128305761D02*
X190206428Y-128353380D01*
X190015952Y-128353380D01*
X189920714Y-128305761D01*
X189873095Y-128210523D01*
X189873095Y-127829571D01*
X189920714Y-127734333D01*
X190015952Y-127686714D01*
X190206428Y-127686714D01*
X190301666Y-127734333D01*
X190349285Y-127829571D01*
X190349285Y-127924809D01*
X189873095Y-128020047D01*
X191492142Y-128305761D02*
X191635000Y-128353380D01*
X191873095Y-128353380D01*
X191968333Y-128305761D01*
X192015952Y-128258142D01*
X192063571Y-128162904D01*
X192063571Y-128067666D01*
X192015952Y-127972428D01*
X191968333Y-127924809D01*
X191873095Y-127877190D01*
X191682619Y-127829571D01*
X191587380Y-127781952D01*
X191539761Y-127734333D01*
X191492142Y-127639095D01*
X191492142Y-127543857D01*
X191539761Y-127448619D01*
X191587380Y-127401000D01*
X191682619Y-127353380D01*
X191920714Y-127353380D01*
X192063571Y-127401000D01*
X192635000Y-128353380D02*
X192539761Y-128305761D01*
X192492142Y-128258142D01*
X192444523Y-128162904D01*
X192444523Y-127877190D01*
X192492142Y-127781952D01*
X192539761Y-127734333D01*
X192635000Y-127686714D01*
X192777857Y-127686714D01*
X192873095Y-127734333D01*
X192920714Y-127781952D01*
X192968333Y-127877190D01*
X192968333Y-128162904D01*
X192920714Y-128258142D01*
X192873095Y-128305761D01*
X192777857Y-128353380D01*
X192635000Y-128353380D01*
X193825476Y-127686714D02*
X193825476Y-128353380D01*
X193396904Y-127686714D02*
X193396904Y-128210523D01*
X193444523Y-128305761D01*
X193539761Y-128353380D01*
X193682619Y-128353380D01*
X193777857Y-128305761D01*
X193825476Y-128258142D01*
X194158809Y-127686714D02*
X194539761Y-127686714D01*
X194301666Y-128353380D02*
X194301666Y-127496238D01*
X194349285Y-127401000D01*
X194444523Y-127353380D01*
X194539761Y-127353380D01*
X194730238Y-127686714D02*
X195111190Y-127686714D01*
X194873095Y-128353380D02*
X194873095Y-127496238D01*
X194920714Y-127401000D01*
X195015952Y-127353380D01*
X195111190Y-127353380D01*
X195587380Y-128353380D02*
X195492142Y-128305761D01*
X195444523Y-128210523D01*
X195444523Y-127353380D01*
X196349285Y-128305761D02*
X196254047Y-128353380D01*
X196063571Y-128353380D01*
X195968333Y-128305761D01*
X195920714Y-128210523D01*
X195920714Y-127829571D01*
X195968333Y-127734333D01*
X196063571Y-127686714D01*
X196254047Y-127686714D01*
X196349285Y-127734333D01*
X196396904Y-127829571D01*
X196396904Y-127924809D01*
X195920714Y-128020047D01*
X196254047Y-127305761D02*
X196111190Y-127448619D01*
X197587380Y-127972428D02*
X198349285Y-127972428D01*
X199873095Y-127353380D02*
X199873095Y-128067666D01*
X199825476Y-128210523D01*
X199730238Y-128305761D01*
X199587380Y-128353380D01*
X199492142Y-128353380D01*
X201682619Y-128258142D02*
X201635000Y-128305761D01*
X201492142Y-128353380D01*
X201396904Y-128353380D01*
X201254047Y-128305761D01*
X201158809Y-128210523D01*
X201111190Y-128115285D01*
X201063571Y-127924809D01*
X201063571Y-127781952D01*
X201111190Y-127591476D01*
X201158809Y-127496238D01*
X201254047Y-127401000D01*
X201396904Y-127353380D01*
X201492142Y-127353380D01*
X201635000Y-127401000D01*
X201682619Y-127448619D01*
X202254047Y-128353380D02*
X202158809Y-128305761D01*
X202111190Y-128210523D01*
X202111190Y-127353380D01*
X202635000Y-128353380D02*
X202635000Y-127686714D01*
X202635000Y-127353380D02*
X202587380Y-127401000D01*
X202635000Y-127448619D01*
X202682619Y-127401000D01*
X202635000Y-127353380D01*
X202635000Y-127448619D01*
X203111190Y-128353380D02*
X203111190Y-127686714D01*
X203111190Y-127781952D02*
X203158809Y-127734333D01*
X203254047Y-127686714D01*
X203396904Y-127686714D01*
X203492142Y-127734333D01*
X203539761Y-127829571D01*
X203539761Y-128353380D01*
X203539761Y-127829571D02*
X203587380Y-127734333D01*
X203682619Y-127686714D01*
X203825476Y-127686714D01*
X203920714Y-127734333D01*
X203968333Y-127829571D01*
X203968333Y-128353380D01*
X204825476Y-128305761D02*
X204730238Y-128353380D01*
X204539761Y-128353380D01*
X204444523Y-128305761D01*
X204396904Y-128210523D01*
X204396904Y-127829571D01*
X204444523Y-127734333D01*
X204539761Y-127686714D01*
X204730238Y-127686714D01*
X204825476Y-127734333D01*
X204873095Y-127829571D01*
X204873095Y-127924809D01*
X204396904Y-128020047D01*
X205301666Y-127686714D02*
X205301666Y-128353380D01*
X205301666Y-127781952D02*
X205349285Y-127734333D01*
X205444523Y-127686714D01*
X205587380Y-127686714D01*
X205682619Y-127734333D01*
X205730238Y-127829571D01*
X205730238Y-128353380D01*
X206063571Y-127686714D02*
X206444523Y-127686714D01*
X206206428Y-127353380D02*
X206206428Y-128210523D01*
X206254047Y-128305761D01*
X206349285Y-128353380D01*
X206444523Y-128353380D01*
D11*
X97886666Y-110740761D02*
X98029523Y-110788380D01*
X98267619Y-110788380D01*
X98362857Y-110740761D01*
X98410476Y-110693142D01*
X98458095Y-110597904D01*
X98458095Y-110502666D01*
X98410476Y-110407428D01*
X98362857Y-110359809D01*
X98267619Y-110312190D01*
X98077142Y-110264571D01*
X97981904Y-110216952D01*
X97934285Y-110169333D01*
X97886666Y-110074095D01*
X97886666Y-109978857D01*
X97934285Y-109883619D01*
X97981904Y-109836000D01*
X98077142Y-109788380D01*
X98315238Y-109788380D01*
X98458095Y-109836000D01*
X98791428Y-109788380D02*
X99029523Y-110788380D01*
X99220000Y-110074095D01*
X99410476Y-110788380D01*
X99648571Y-109788380D01*
X100553333Y-110788380D02*
X99981904Y-110788380D01*
X100267619Y-110788380D02*
X100267619Y-109788380D01*
X100172380Y-109931238D01*
X100077142Y-110026476D01*
X99981904Y-110074095D01*
%LPC*%
D12*
X112468318Y-116856032D02*
X112496566Y-116900878D01*
X112496566Y-116900878D02*
X112527606Y-116970368D01*
X112527606Y-116970368D02*
X112541278Y-117005363D01*
X112541278Y-117005363D02*
X112563844Y-117061544D01*
X112563844Y-117061544D02*
X112584741Y-117107842D01*
X112584741Y-117107842D02*
X112601739Y-117139691D01*
X112601739Y-117139691D02*
X112612612Y-117152526D01*
X112612612Y-117152526D02*
X112613125Y-117152595D01*
X112613125Y-117152595D02*
X112624513Y-117164147D01*
X112624513Y-117164147D02*
X112628992Y-117195160D01*
X112628992Y-117195160D02*
X112629000Y-117196792D01*
X112629000Y-117196792D02*
X112633997Y-117238612D01*
X112633997Y-117238612D02*
X112646270Y-117283809D01*
X112646270Y-117283809D02*
X112648708Y-117290243D01*
X112648708Y-117290243D02*
X112657080Y-117314436D01*
X112657080Y-117314436D02*
X112661426Y-117339074D01*
X112661426Y-117339074D02*
X112661778Y-117370171D01*
X112661778Y-117370171D02*
X112658165Y-117413743D01*
X112658165Y-117413743D02*
X112650616Y-117475805D01*
X112650616Y-117475805D02*
X112649658Y-117483171D01*
X112649658Y-117483171D02*
X112630898Y-117626841D01*
X112630898Y-117626841D02*
X112771872Y-117811995D01*
X112771872Y-117811995D02*
X112816855Y-117871074D01*
X112816855Y-117871074D02*
X112856325Y-117922909D01*
X112856325Y-117922909D02*
X112887787Y-117964224D01*
X112887787Y-117964224D02*
X112908748Y-117991744D01*
X112908748Y-117991744D02*
X112916674Y-118002143D01*
X112916674Y-118002143D02*
X112930704Y-118002137D01*
X112930704Y-118002137D02*
X112962604Y-117995278D01*
X112962604Y-117995278D02*
X113006384Y-117983427D01*
X113006384Y-117983427D02*
X113056058Y-117968447D01*
X113056058Y-117968447D02*
X113105637Y-117952200D01*
X113105637Y-117952200D02*
X113149132Y-117936549D01*
X113149132Y-117936549D02*
X113180556Y-117923356D01*
X113180556Y-117923356D02*
X113192376Y-117916398D01*
X113192376Y-117916398D02*
X113213102Y-117890792D01*
X113213102Y-117890792D02*
X113237849Y-117849920D01*
X113237849Y-117849920D02*
X113262846Y-117801484D01*
X113262846Y-117801484D02*
X113284324Y-117753187D01*
X113284324Y-117753187D02*
X113298511Y-117712730D01*
X113298511Y-117712730D02*
X113302100Y-117692268D01*
X113302100Y-117692268D02*
X113310261Y-117663887D01*
X113310261Y-117663887D02*
X113329639Y-117650151D01*
X113329639Y-117650151D02*
X113352574Y-117655704D01*
X113352574Y-117655704D02*
X113356610Y-117659230D01*
X113356610Y-117659230D02*
X113364711Y-117677419D01*
X113364711Y-117677419D02*
X113355756Y-117698844D01*
X113355756Y-117698844D02*
X113346490Y-117726125D01*
X113346490Y-117726125D02*
X113340922Y-117766532D01*
X113340922Y-117766532D02*
X113340200Y-117786571D01*
X113340200Y-117786571D02*
X113343946Y-117830386D01*
X113343946Y-117830386D02*
X113356701Y-117854353D01*
X113356701Y-117854353D02*
X113380732Y-117858956D01*
X113380732Y-117858956D02*
X113418311Y-117844678D01*
X113418311Y-117844678D02*
X113468845Y-117813918D01*
X113468845Y-117813918D02*
X113513550Y-117784694D01*
X113513550Y-117784694D02*
X113542006Y-117768692D01*
X113542006Y-117768692D02*
X113558757Y-117764548D01*
X113558757Y-117764548D02*
X113568347Y-117770898D01*
X113568347Y-117770898D02*
X113573832Y-117782396D01*
X113573832Y-117782396D02*
X113575613Y-117810223D01*
X113575613Y-117810223D02*
X113556343Y-117824436D01*
X113556343Y-117824436D02*
X113543717Y-117825700D01*
X113543717Y-117825700D02*
X113521223Y-117835822D01*
X113521223Y-117835822D02*
X113493807Y-117861034D01*
X113493807Y-117861034D02*
X113467696Y-117893604D01*
X113467696Y-117893604D02*
X113449118Y-117925800D01*
X113449118Y-117925800D02*
X113444172Y-117949289D01*
X113444172Y-117949289D02*
X113457575Y-117967955D01*
X113457575Y-117967955D02*
X113485790Y-117988072D01*
X113485790Y-117988072D02*
X113520392Y-118005490D01*
X113520392Y-118005490D02*
X113552955Y-118016061D01*
X113552955Y-118016061D02*
X113575055Y-118015635D01*
X113575055Y-118015635D02*
X113576715Y-118014560D01*
X113576715Y-118014560D02*
X113598588Y-118008743D01*
X113598588Y-118008743D02*
X113621269Y-118016223D01*
X113621269Y-118016223D02*
X113632097Y-118032685D01*
X113632097Y-118032685D02*
X113632105Y-118033433D01*
X113632105Y-118033433D02*
X113623737Y-118063269D01*
X113623737Y-118063269D02*
X113602707Y-118073722D01*
X113602707Y-118073722D02*
X113583950Y-118068311D01*
X113583950Y-118068311D02*
X113551941Y-118058136D01*
X113551941Y-118058136D02*
X113511157Y-118053960D01*
X113511157Y-118053960D02*
X113470043Y-118055474D01*
X113470043Y-118055474D02*
X113437045Y-118062373D01*
X113437045Y-118062373D02*
X113420648Y-118074245D01*
X113420648Y-118074245D02*
X113424824Y-118093525D01*
X113424824Y-118093525D02*
X113442994Y-118121735D01*
X113442994Y-118121735D02*
X113469145Y-118152156D01*
X113469145Y-118152156D02*
X113497265Y-118178069D01*
X113497265Y-118178069D02*
X113521341Y-118192755D01*
X113521341Y-118192755D02*
X113527810Y-118194000D01*
X113527810Y-118194000D02*
X113540501Y-118202785D01*
X113540501Y-118202785D02*
X113540970Y-118222531D01*
X113540970Y-118222531D02*
X113531464Y-118243321D01*
X113531464Y-118243321D02*
X113514228Y-118255239D01*
X113514228Y-118255239D02*
X113513924Y-118255299D01*
X113513924Y-118255299D02*
X113491724Y-118249040D01*
X113491724Y-118249040D02*
X113484287Y-118234805D01*
X113484287Y-118234805D02*
X113470162Y-118218503D01*
X113470162Y-118218503D02*
X113438302Y-118196374D01*
X113438302Y-118196374D02*
X113394773Y-118171464D01*
X113394773Y-118171464D02*
X113345638Y-118146819D01*
X113345638Y-118146819D02*
X113296963Y-118125484D01*
X113296963Y-118125484D02*
X113254813Y-118110507D01*
X113254813Y-118110507D02*
X113225696Y-118104933D01*
X113225696Y-118104933D02*
X113202049Y-118106720D01*
X113202049Y-118106720D02*
X113158811Y-118111741D01*
X113158811Y-118111741D02*
X113101485Y-118119294D01*
X113101485Y-118119294D02*
X113035573Y-118128677D01*
X113035573Y-118128677D02*
X113012794Y-118132069D01*
X113012794Y-118132069D02*
X112948186Y-118141436D01*
X112948186Y-118141436D02*
X112893188Y-118148728D01*
X112893188Y-118148728D02*
X112852344Y-118153395D01*
X112852344Y-118153395D02*
X112830198Y-118154888D01*
X112830198Y-118154888D02*
X112827582Y-118154461D01*
X112827582Y-118154461D02*
X112819850Y-118142453D01*
X112819850Y-118142453D02*
X112801297Y-118112898D01*
X112801297Y-118112898D02*
X112774459Y-118069852D01*
X112774459Y-118069852D02*
X112741868Y-118017373D01*
X112741868Y-118017373D02*
X112731033Y-117999887D01*
X112731033Y-117999887D02*
X112697281Y-117946209D01*
X112697281Y-117946209D02*
X112668348Y-117901739D01*
X112668348Y-117901739D02*
X112646750Y-117870227D01*
X112646750Y-117870227D02*
X112635004Y-117855425D01*
X112635004Y-117855425D02*
X112633718Y-117854847D01*
X112633718Y-117854847D02*
X112633221Y-117868252D01*
X112633221Y-117868252D02*
X112634225Y-117903575D01*
X112634225Y-117903575D02*
X112636569Y-117957393D01*
X112636569Y-117957393D02*
X112640092Y-118026278D01*
X112640092Y-118026278D02*
X112644630Y-118106805D01*
X112644630Y-118106805D02*
X112649195Y-118182310D01*
X112649195Y-118182310D02*
X112669293Y-118505150D01*
X112669293Y-118505150D02*
X112541235Y-118750899D01*
X112541235Y-118750899D02*
X112504146Y-118823453D01*
X112504146Y-118823453D02*
X112472074Y-118888857D01*
X112472074Y-118888857D02*
X112446605Y-118943654D01*
X112446605Y-118943654D02*
X112429321Y-118984389D01*
X112429321Y-118984389D02*
X112421808Y-119007605D01*
X112421808Y-119007605D02*
X112421914Y-119011249D01*
X112421914Y-119011249D02*
X112431650Y-119025371D01*
X112431650Y-119025371D02*
X112454103Y-119056880D01*
X112454103Y-119056880D02*
X112487019Y-119102643D01*
X112487019Y-119102643D02*
X112528142Y-119159531D01*
X112528142Y-119159531D02*
X112575217Y-119224410D01*
X112575217Y-119224410D02*
X112599930Y-119258386D01*
X112599930Y-119258386D02*
X112648738Y-119325707D01*
X112648738Y-119325707D02*
X112692293Y-119386305D01*
X112692293Y-119386305D02*
X112728431Y-119437125D01*
X112728431Y-119437125D02*
X112754987Y-119475114D01*
X112754987Y-119475114D02*
X112769797Y-119497217D01*
X112769797Y-119497217D02*
X112772128Y-119501381D01*
X112772128Y-119501381D02*
X112763186Y-119511580D01*
X112763186Y-119511580D02*
X112736520Y-119534363D01*
X112736520Y-119534363D02*
X112695007Y-119567460D01*
X112695007Y-119567460D02*
X112641525Y-119608601D01*
X112641525Y-119608601D02*
X112578953Y-119655513D01*
X112578953Y-119655513D02*
X112546450Y-119679476D01*
X112546450Y-119679476D02*
X112480158Y-119728368D01*
X112480158Y-119728368D02*
X112421118Y-119772442D01*
X112421118Y-119772442D02*
X112372304Y-119809436D01*
X112372304Y-119809436D02*
X112336686Y-119837088D01*
X112336686Y-119837088D02*
X112317237Y-119853136D01*
X112317237Y-119853136D02*
X112314524Y-119856032D01*
X112314524Y-119856032D02*
X112321771Y-119869292D01*
X112321771Y-119869292D02*
X112345480Y-119890562D01*
X112345480Y-119890562D02*
X112379775Y-119915763D01*
X112379775Y-119915763D02*
X112418777Y-119940821D01*
X112418777Y-119940821D02*
X112456608Y-119961657D01*
X112456608Y-119961657D02*
X112482950Y-119972839D01*
X112482950Y-119972839D02*
X112528836Y-119981922D01*
X112528836Y-119981922D02*
X112594894Y-119986321D01*
X112594894Y-119986321D02*
X112660750Y-119986175D01*
X112660750Y-119986175D02*
X112721907Y-119983721D01*
X112721907Y-119983721D02*
X112763276Y-119979641D01*
X112763276Y-119979641D02*
X112790462Y-119972895D01*
X112790462Y-119972895D02*
X112809070Y-119962443D01*
X112809070Y-119962443D02*
X112814715Y-119957604D01*
X112814715Y-119957604D02*
X112835302Y-119941050D01*
X112835302Y-119941050D02*
X112849568Y-119942003D01*
X112849568Y-119942003D02*
X112863071Y-119953885D01*
X112863071Y-119953885D02*
X112877095Y-119977517D01*
X112877095Y-119977517D02*
X112877380Y-119993726D01*
X112877380Y-119993726D02*
X112871043Y-120013187D01*
X112871043Y-120013187D02*
X112870300Y-120017488D01*
X112870300Y-120017488D02*
X112859231Y-120021205D01*
X112859231Y-120021205D02*
X112832531Y-120022798D01*
X112832531Y-120022798D02*
X112831777Y-120022800D01*
X112831777Y-120022800D02*
X112798477Y-120028577D01*
X112798477Y-120028577D02*
X112755350Y-120043359D01*
X112755350Y-120043359D02*
X112729393Y-120055161D01*
X112729393Y-120055161D02*
X112692523Y-120075540D01*
X112692523Y-120075540D02*
X112674043Y-120092044D01*
X112674043Y-120092044D02*
X112668813Y-120110357D01*
X112668813Y-120110357D02*
X112669490Y-120121379D01*
X112669490Y-120121379D02*
X112677655Y-120144615D01*
X112677655Y-120144615D02*
X112699454Y-120166699D01*
X112699454Y-120166699D02*
X112739752Y-120192414D01*
X112739752Y-120192414D02*
X112744498Y-120195095D01*
X112744498Y-120195095D02*
X112787395Y-120217607D01*
X112787395Y-120217607D02*
X112826172Y-120235330D01*
X112826172Y-120235330D02*
X112847872Y-120243067D01*
X112847872Y-120243067D02*
X112878086Y-120259217D01*
X112878086Y-120259217D02*
X112890480Y-120283960D01*
X112890480Y-120283960D02*
X112881664Y-120310159D01*
X112881664Y-120310159D02*
X112856736Y-120325852D01*
X112856736Y-120325852D02*
X112830588Y-120323340D01*
X112830588Y-120323340D02*
X112813604Y-120303630D01*
X112813604Y-120303630D02*
X112813580Y-120303557D01*
X112813580Y-120303557D02*
X112801439Y-120287989D01*
X112801439Y-120287989D02*
X112773234Y-120275518D01*
X112773234Y-120275518D02*
X112724350Y-120264119D01*
X112724350Y-120264119D02*
X112723189Y-120263899D01*
X112723189Y-120263899D02*
X112678200Y-120256096D01*
X112678200Y-120256096D02*
X112651146Y-120254285D01*
X112651146Y-120254285D02*
X112635149Y-120259023D01*
X112635149Y-120259023D02*
X112623334Y-120270867D01*
X112623334Y-120270867D02*
X112622418Y-120272067D01*
X112622418Y-120272067D02*
X112610412Y-120291540D01*
X112610412Y-120291540D02*
X112605086Y-120313828D01*
X112605086Y-120313828D02*
X112605776Y-120346397D01*
X112605776Y-120346397D02*
X112611529Y-120394609D01*
X112611529Y-120394609D02*
X112620705Y-120435200D01*
X112620705Y-120435200D02*
X112635434Y-120455337D01*
X112635434Y-120455337D02*
X112643307Y-120458700D01*
X112643307Y-120458700D02*
X112659654Y-120468329D01*
X112659654Y-120468329D02*
X112658173Y-120489066D01*
X112658173Y-120489066D02*
X112656220Y-120494693D01*
X112656220Y-120494693D02*
X112637518Y-120521723D01*
X112637518Y-120521723D02*
X112613584Y-120529086D01*
X112613584Y-120529086D02*
X112592108Y-120516570D01*
X112592108Y-120516570D02*
X112582858Y-120496699D01*
X112582858Y-120496699D02*
X112572533Y-120464443D01*
X112572533Y-120464443D02*
X112555996Y-120421388D01*
X112555996Y-120421388D02*
X112545199Y-120395925D01*
X112545199Y-120395925D02*
X112523494Y-120354148D01*
X112523494Y-120354148D02*
X112502400Y-120331869D01*
X112502400Y-120331869D02*
X112483907Y-120324674D01*
X112483907Y-120324674D02*
X112465938Y-120323182D01*
X112465938Y-120323182D02*
X112453424Y-120330440D01*
X112453424Y-120330440D02*
X112442552Y-120351456D01*
X112442552Y-120351456D02*
X112429509Y-120391235D01*
X112429509Y-120391235D02*
X112427077Y-120399305D01*
X112427077Y-120399305D02*
X112415515Y-120445116D01*
X112415515Y-120445116D02*
X112409396Y-120484470D01*
X112409396Y-120484470D02*
X112409781Y-120506780D01*
X112409781Y-120506780D02*
X112407636Y-120534634D01*
X112407636Y-120534634D02*
X112389993Y-120551417D01*
X112389993Y-120551417D02*
X112365441Y-120554110D01*
X112365441Y-120554110D02*
X112342573Y-120539697D01*
X112342573Y-120539697D02*
X112337613Y-120532133D01*
X112337613Y-120532133D02*
X112332358Y-120507782D01*
X112332358Y-120507782D02*
X112344852Y-120491370D01*
X112344852Y-120491370D02*
X112353811Y-120480222D01*
X112353811Y-120480222D02*
X112358885Y-120461795D01*
X112358885Y-120461795D02*
X112360451Y-120431159D01*
X112360451Y-120431159D02*
X112358886Y-120383383D01*
X112358886Y-120383383D02*
X112356369Y-120340811D01*
X112356369Y-120340811D02*
X112352863Y-120290646D01*
X112352863Y-120290646D02*
X112348217Y-120250358D01*
X112348217Y-120250358D02*
X112340348Y-120215756D01*
X112340348Y-120215756D02*
X112327173Y-120182648D01*
X112327173Y-120182648D02*
X112306611Y-120146843D01*
X112306611Y-120146843D02*
X112276578Y-120104149D01*
X112276578Y-120104149D02*
X112234991Y-120050374D01*
X112234991Y-120050374D02*
X112179767Y-119981327D01*
X112179767Y-119981327D02*
X112174478Y-119974744D01*
X112174478Y-119974744D02*
X112142793Y-119936556D01*
X112142793Y-119936556D02*
X112118581Y-119907072D01*
X112118581Y-119907072D02*
X112103060Y-119883175D01*
X112103060Y-119883175D02*
X112097445Y-119861746D01*
X112097445Y-119861746D02*
X112102952Y-119839667D01*
X112102952Y-119839667D02*
X112120798Y-119813818D01*
X112120798Y-119813818D02*
X112152198Y-119781081D01*
X112152198Y-119781081D02*
X112198368Y-119738338D01*
X112198368Y-119738338D02*
X112260525Y-119682471D01*
X112260525Y-119682471D02*
X112303648Y-119643490D01*
X112303648Y-119643490D02*
X112479946Y-119483215D01*
X112479946Y-119483215D02*
X112374883Y-119384707D01*
X112374883Y-119384707D02*
X112332446Y-119345541D01*
X112332446Y-119345541D02*
X112296790Y-119313801D01*
X112296790Y-119313801D02*
X112271922Y-119292976D01*
X112271922Y-119292976D02*
X112262084Y-119286448D01*
X112262084Y-119286448D02*
X112252540Y-119296630D01*
X112252540Y-119296630D02*
X112232898Y-119323920D01*
X112232898Y-119323920D02*
X112206327Y-119363764D01*
X112206327Y-119363764D02*
X112184966Y-119397224D01*
X112184966Y-119397224D02*
X112125908Y-119480294D01*
X112125908Y-119480294D02*
X112051258Y-119568610D01*
X112051258Y-119568610D02*
X111967686Y-119655183D01*
X111967686Y-119655183D02*
X111881860Y-119733026D01*
X111881860Y-119733026D02*
X111814314Y-119785560D01*
X111814314Y-119785560D02*
X111744594Y-119829960D01*
X111744594Y-119829960D02*
X111661176Y-119875371D01*
X111661176Y-119875371D02*
X111572621Y-119917697D01*
X111572621Y-119917697D02*
X111487488Y-119952837D01*
X111487488Y-119952837D02*
X111416150Y-119976214D01*
X111416150Y-119976214D02*
X111330402Y-119994799D01*
X111330402Y-119994799D02*
X111233572Y-120008921D01*
X111233572Y-120008921D02*
X111135518Y-120017588D01*
X111135518Y-120017588D02*
X111046103Y-120019808D01*
X111046103Y-120019808D02*
X111002867Y-120017816D01*
X111002867Y-120017816D02*
X110850972Y-119992813D01*
X110850972Y-119992813D02*
X110704418Y-119944030D01*
X110704418Y-119944030D02*
X110565297Y-119872877D01*
X110565297Y-119872877D02*
X110435702Y-119780765D01*
X110435702Y-119780765D02*
X110317724Y-119669106D01*
X110317724Y-119669106D02*
X110213454Y-119539309D01*
X110213454Y-119539309D02*
X110153483Y-119444950D01*
X110153483Y-119444950D02*
X110124210Y-119394150D01*
X110124210Y-119394150D02*
X110159446Y-119438600D01*
X110159446Y-119438600D02*
X110202444Y-119488400D01*
X110202444Y-119488400D02*
X110257761Y-119546071D01*
X110257761Y-119546071D02*
X110319775Y-119606340D01*
X110319775Y-119606340D02*
X110382862Y-119663931D01*
X110382862Y-119663931D02*
X110441399Y-119713569D01*
X110441399Y-119713569D02*
X110489763Y-119749981D01*
X110489763Y-119749981D02*
X110495400Y-119753721D01*
X110495400Y-119753721D02*
X110621824Y-119822651D01*
X110621824Y-119822651D02*
X110754971Y-119870911D01*
X110754971Y-119870911D02*
X110891051Y-119897852D01*
X110891051Y-119897852D02*
X111026274Y-119902823D01*
X111026274Y-119902823D02*
X111156851Y-119885173D01*
X111156851Y-119885173D02*
X111197955Y-119874369D01*
X111197955Y-119874369D02*
X111277725Y-119845860D01*
X111277725Y-119845860D02*
X111367993Y-119805771D01*
X111367993Y-119805771D02*
X111459584Y-119758592D01*
X111459584Y-119758592D02*
X111543325Y-119708812D01*
X111543325Y-119708812D02*
X111563337Y-119695550D01*
X111563337Y-119695550D02*
X111631796Y-119645689D01*
X111631796Y-119645689D02*
X111693117Y-119593145D01*
X111693117Y-119593145D02*
X111750341Y-119534288D01*
X111750341Y-119534288D02*
X111806512Y-119465490D01*
X111806512Y-119465490D02*
X111864670Y-119383122D01*
X111864670Y-119383122D02*
X111927859Y-119283556D01*
X111927859Y-119283556D02*
X111975154Y-119204344D01*
X111975154Y-119204344D02*
X112049200Y-119078039D01*
X112049200Y-119078039D02*
X111929525Y-118966936D01*
X111929525Y-118966936D02*
X111884749Y-118926694D01*
X111884749Y-118926694D02*
X111847051Y-118895325D01*
X111847051Y-118895325D02*
X111819951Y-118875572D01*
X111819951Y-118875572D02*
X111806967Y-118870175D01*
X111806967Y-118870175D02*
X111806388Y-118870991D01*
X111806388Y-118870991D02*
X111803936Y-118888795D01*
X111803936Y-118888795D02*
X111799714Y-118926592D01*
X111799714Y-118926592D02*
X111794284Y-118979084D01*
X111794284Y-118979084D02*
X111788212Y-119040971D01*
X111788212Y-119040971D02*
X111787338Y-119050129D01*
X111787338Y-119050129D02*
X111771750Y-119214109D01*
X111771750Y-119214109D02*
X111567948Y-119017576D01*
X111567948Y-119017576D02*
X111498935Y-118951500D01*
X111498935Y-118951500D02*
X111444894Y-118901121D01*
X111444894Y-118901121D02*
X111402920Y-118864089D01*
X111402920Y-118864089D02*
X111370107Y-118838058D01*
X111370107Y-118838058D02*
X111343550Y-118820680D01*
X111343550Y-118820680D02*
X111320343Y-118809608D01*
X111320343Y-118809608D02*
X111303751Y-118804132D01*
X111303751Y-118804132D02*
X111258100Y-118796084D01*
X111258100Y-118796084D02*
X111201559Y-118792868D01*
X111201559Y-118792868D02*
X111141141Y-118794064D01*
X111141141Y-118794064D02*
X111083857Y-118799253D01*
X111083857Y-118799253D02*
X111036719Y-118808016D01*
X111036719Y-118808016D02*
X111006737Y-118819934D01*
X111006737Y-118819934D02*
X111004069Y-118822043D01*
X111004069Y-118822043D02*
X110983436Y-118834646D01*
X110983436Y-118834646D02*
X110962959Y-118827093D01*
X110962959Y-118827093D02*
X110959856Y-118824883D01*
X110959856Y-118824883D02*
X110942131Y-118800751D01*
X110942131Y-118800751D02*
X110944941Y-118776377D01*
X110944941Y-118776377D02*
X110965741Y-118760520D01*
X110965741Y-118760520D02*
X110979151Y-118758509D01*
X110979151Y-118758509D02*
X111009008Y-118753155D01*
X111009008Y-118753155D02*
X111049243Y-118740243D01*
X111049243Y-118740243D02*
X111091479Y-118723207D01*
X111091479Y-118723207D02*
X111127340Y-118705477D01*
X111127340Y-118705477D02*
X111148451Y-118690486D01*
X111148451Y-118690486D02*
X111149921Y-118688536D01*
X111149921Y-118688536D02*
X111155294Y-118658468D01*
X111155294Y-118658468D02*
X111135513Y-118626683D01*
X111135513Y-118626683D02*
X111090754Y-118593400D01*
X111090754Y-118593400D02*
X111064154Y-118578828D01*
X111064154Y-118578828D02*
X111020867Y-118557441D01*
X111020867Y-118557441D02*
X110984190Y-118540466D01*
X110984190Y-118540466D02*
X110962125Y-118531602D01*
X110962125Y-118531602D02*
X110943911Y-118515337D01*
X110943911Y-118515337D02*
X110941380Y-118488868D01*
X110941380Y-118488868D02*
X110955140Y-118463239D01*
X110955140Y-118463239D02*
X110980798Y-118448845D01*
X110980798Y-118448845D02*
X111001716Y-118457471D01*
X111001716Y-118457471D02*
X111009285Y-118471935D01*
X111009285Y-118471935D02*
X111024965Y-118489818D01*
X111024965Y-118489818D02*
X111061654Y-118506069D01*
X111061654Y-118506069D02*
X111095866Y-118515859D01*
X111095866Y-118515859D02*
X111139206Y-118526226D01*
X111139206Y-118526226D02*
X111165495Y-118529600D01*
X111165495Y-118529600D02*
X111182190Y-118525658D01*
X111182190Y-118525658D02*
X111196749Y-118514075D01*
X111196749Y-118514075D02*
X111199523Y-118511347D01*
X111199523Y-118511347D02*
X111216271Y-118479710D01*
X111216271Y-118479710D02*
X111222718Y-118435250D01*
X111222718Y-118435250D02*
X111219215Y-118388065D01*
X111219215Y-118388065D02*
X111206112Y-118348249D01*
X111206112Y-118348249D02*
X111193287Y-118331664D01*
X111193287Y-118331664D02*
X111171269Y-118302124D01*
X111171269Y-118302124D02*
X111173407Y-118273306D01*
X111173407Y-118273306D02*
X111182270Y-118261509D01*
X111182270Y-118261509D02*
X111204803Y-118252544D01*
X111204803Y-118252544D02*
X111229280Y-118258461D01*
X111229280Y-118258461D02*
X111243943Y-118275549D01*
X111243943Y-118275549D02*
X111244698Y-118281206D01*
X111244698Y-118281206D02*
X111249561Y-118302947D01*
X111249561Y-118302947D02*
X111262284Y-118339628D01*
X111262284Y-118339628D02*
X111279274Y-118381325D01*
X111279274Y-118381325D02*
X111299313Y-118424297D01*
X111299313Y-118424297D02*
X111315211Y-118448435D01*
X111315211Y-118448435D02*
X111331327Y-118458838D01*
X111331327Y-118458838D02*
X111347115Y-118460700D01*
X111347115Y-118460700D02*
X111366407Y-118458006D01*
X111366407Y-118458006D02*
X111380029Y-118446183D01*
X111380029Y-118446183D02*
X111392163Y-118419615D01*
X111392163Y-118419615D02*
X111403165Y-118385438D01*
X111403165Y-118385438D02*
X111414289Y-118340956D01*
X111414289Y-118340956D02*
X111419745Y-118302878D01*
X111419745Y-118302878D02*
X111419022Y-118283672D01*
X111419022Y-118283672D02*
X111421827Y-118256694D01*
X111421827Y-118256694D02*
X111440511Y-118240385D01*
X111440511Y-118240385D02*
X111466304Y-118239270D01*
X111466304Y-118239270D02*
X111484058Y-118250115D01*
X111484058Y-118250115D02*
X111497503Y-118270616D01*
X111497503Y-118270616D02*
X111490508Y-118293045D01*
X111490508Y-118293045D02*
X111488926Y-118295632D01*
X111488926Y-118295632D02*
X111480985Y-118322301D01*
X111480985Y-118322301D02*
X111475677Y-118370609D01*
X111475677Y-118370609D02*
X111473369Y-118436894D01*
X111473369Y-118436894D02*
X111473300Y-118452131D01*
X111473300Y-118452131D02*
X111473300Y-118583608D01*
X111473300Y-118583608D02*
X111571458Y-118719758D01*
X111571458Y-118719758D02*
X111607263Y-118769889D01*
X111607263Y-118769889D02*
X111634070Y-118805877D01*
X111634070Y-118805877D02*
X111653623Y-118826241D01*
X111653623Y-118826241D02*
X111667662Y-118829498D01*
X111667662Y-118829498D02*
X111677930Y-118814168D01*
X111677930Y-118814168D02*
X111686169Y-118778767D01*
X111686169Y-118778767D02*
X111694120Y-118721814D01*
X111694120Y-118721814D02*
X111703526Y-118641826D01*
X111703526Y-118641826D02*
X111708023Y-118603575D01*
X111708023Y-118603575D02*
X111716427Y-118536901D01*
X111716427Y-118536901D02*
X111724476Y-118480172D01*
X111724476Y-118480172D02*
X111731487Y-118437697D01*
X111731487Y-118437697D02*
X111736776Y-118413783D01*
X111736776Y-118413783D02*
X111738708Y-118410104D01*
X111738708Y-118410104D02*
X111750028Y-118418297D01*
X111750028Y-118418297D02*
X111777170Y-118441038D01*
X111777170Y-118441038D02*
X111817184Y-118475761D01*
X111817184Y-118475761D02*
X111867122Y-118519903D01*
X111867122Y-118519903D02*
X111924035Y-118570897D01*
X111924035Y-118570897D02*
X111935815Y-118581530D01*
X111935815Y-118581530D02*
X111993385Y-118633288D01*
X111993385Y-118633288D02*
X112044192Y-118678453D01*
X112044192Y-118678453D02*
X112085381Y-118714530D01*
X112085381Y-118714530D02*
X112114097Y-118739023D01*
X112114097Y-118739023D02*
X112127485Y-118749436D01*
X112127485Y-118749436D02*
X112128083Y-118749601D01*
X112128083Y-118749601D02*
X112128331Y-118736505D01*
X112128331Y-118736505D02*
X112127091Y-118702703D01*
X112127091Y-118702703D02*
X112124581Y-118652832D01*
X112124581Y-118652832D02*
X112121018Y-118591527D01*
X112121018Y-118591527D02*
X112119589Y-118568650D01*
X112119589Y-118568650D02*
X112116029Y-118500195D01*
X112116029Y-118500195D02*
X112114622Y-118435160D01*
X112114622Y-118435160D02*
X112115542Y-118367824D01*
X112115542Y-118367824D02*
X112118965Y-118292471D01*
X112118965Y-118292471D02*
X112125064Y-118203382D01*
X112125064Y-118203382D02*
X112134016Y-118094839D01*
X112134016Y-118094839D02*
X112134101Y-118093862D01*
X112134101Y-118093862D02*
X112141220Y-118009940D01*
X112141220Y-118009940D02*
X112147255Y-117934878D01*
X112147255Y-117934878D02*
X112151948Y-117872233D01*
X112151948Y-117872233D02*
X112155040Y-117825560D01*
X112155040Y-117825560D02*
X112156273Y-117798417D01*
X112156273Y-117798417D02*
X112155988Y-117792954D01*
X112155988Y-117792954D02*
X112144089Y-117797274D01*
X112144089Y-117797274D02*
X112114466Y-117811906D01*
X112114466Y-117811906D02*
X112071473Y-117834606D01*
X112071473Y-117834606D02*
X112019465Y-117863130D01*
X112019465Y-117863130D02*
X112014917Y-117865667D01*
X112014917Y-117865667D02*
X111962449Y-117894523D01*
X111962449Y-117894523D02*
X111918725Y-117917695D01*
X111918725Y-117917695D02*
X111888069Y-117932956D01*
X111888069Y-117932956D02*
X111874803Y-117938078D01*
X111874803Y-117938078D02*
X111874616Y-117937975D01*
X111874616Y-117937975D02*
X111854327Y-117912222D01*
X111854327Y-117912222D02*
X111822400Y-117874131D01*
X111822400Y-117874131D02*
X111782149Y-117827416D01*
X111782149Y-117827416D02*
X111736886Y-117775791D01*
X111736886Y-117775791D02*
X111689926Y-117722970D01*
X111689926Y-117722970D02*
X111644580Y-117672667D01*
X111644580Y-117672667D02*
X111604163Y-117628596D01*
X111604163Y-117628596D02*
X111571988Y-117594470D01*
X111571988Y-117594470D02*
X111551367Y-117574004D01*
X111551367Y-117574004D02*
X111546372Y-117570026D01*
X111546372Y-117570026D02*
X111503066Y-117550180D01*
X111503066Y-117550180D02*
X111452672Y-117532003D01*
X111452672Y-117532003D02*
X111402080Y-117517384D01*
X111402080Y-117517384D02*
X111358179Y-117508210D01*
X111358179Y-117508210D02*
X111327857Y-117506370D01*
X111327857Y-117506370D02*
X111320858Y-117508222D01*
X111320858Y-117508222D02*
X111295879Y-117510383D01*
X111295879Y-117510383D02*
X111277010Y-117495098D01*
X111277010Y-117495098D02*
X111272677Y-117470218D01*
X111272677Y-117470218D02*
X111274276Y-117464834D01*
X111274276Y-117464834D02*
X111283239Y-117455451D01*
X111283239Y-117455451D02*
X111304184Y-117451194D01*
X111304184Y-117451194D02*
X111342167Y-117451504D01*
X111342167Y-117451504D02*
X111375374Y-117453660D01*
X111375374Y-117453660D02*
X111423577Y-117456864D01*
X111423577Y-117456864D02*
X111452295Y-117456548D01*
X111452295Y-117456548D02*
X111467347Y-117451407D01*
X111467347Y-117451407D02*
X111474553Y-117440136D01*
X111474553Y-117440136D02*
X111477294Y-117430797D01*
X111477294Y-117430797D02*
X111478213Y-117402641D01*
X111478213Y-117402641D02*
X111464785Y-117371205D01*
X111464785Y-117371205D02*
X111434631Y-117332287D01*
X111434631Y-117332287D02*
X111402306Y-117298352D01*
X111402306Y-117298352D02*
X111373490Y-117262940D01*
X111373490Y-117262940D02*
X111364746Y-117235914D01*
X111364746Y-117235914D02*
X111376240Y-117219707D01*
X111376240Y-117219707D02*
X111396701Y-117216100D01*
X111396701Y-117216100D02*
X111418406Y-117224952D01*
X111418406Y-117224952D02*
X111422522Y-117238325D01*
X111422522Y-117238325D02*
X111433272Y-117259368D01*
X111433272Y-117259368D02*
X111460191Y-117283479D01*
X111460191Y-117283479D02*
X111495337Y-117305735D01*
X111495337Y-117305735D02*
X111530765Y-117321215D01*
X111530765Y-117321215D02*
X111558536Y-117325000D01*
X111558536Y-117325000D02*
X111561327Y-117324326D01*
X111561327Y-117324326D02*
X111581459Y-117306677D01*
X111581459Y-117306677D02*
X111598788Y-117273074D01*
X111598788Y-117273074D02*
X111610375Y-117232960D01*
X111610375Y-117232960D02*
X111613278Y-117195780D01*
X111613278Y-117195780D02*
X111607775Y-117175141D01*
X111607775Y-117175141D02*
X111601760Y-117150657D01*
X111601760Y-117150657D02*
X111609289Y-117138530D01*
X111609289Y-117138530D02*
X111632176Y-117128958D01*
X111632176Y-117128958D02*
X111652915Y-117138782D01*
X111652915Y-117138782D02*
X111662483Y-117162944D01*
X111662483Y-117162944D02*
X111662337Y-117168273D01*
X111662337Y-117168273D02*
X111661253Y-117197843D01*
X111661253Y-117197843D02*
X111661328Y-117240178D01*
X111661328Y-117240178D02*
X111661824Y-117262243D01*
X111661824Y-117262243D02*
X111664924Y-117302675D01*
X111664924Y-117302675D02*
X111672669Y-117324301D01*
X111672669Y-117324301D02*
X111687455Y-117333617D01*
X111687455Y-117333617D02*
X111688233Y-117333826D01*
X111688233Y-117333826D02*
X111710788Y-117328149D01*
X111710788Y-117328149D02*
X111738993Y-117305866D01*
X111738993Y-117305866D02*
X111767127Y-117273085D01*
X111767127Y-117273085D02*
X111789466Y-117235913D01*
X111789466Y-117235913D02*
X111796435Y-117218350D01*
X111796435Y-117218350D02*
X111811931Y-117195779D01*
X111811931Y-117195779D02*
X111833036Y-117193134D01*
X111833036Y-117193134D02*
X111856453Y-117204634D01*
X111856453Y-117204634D02*
X111864321Y-117224096D01*
X111864321Y-117224096D02*
X111854543Y-117242056D01*
X111854543Y-117242056D02*
X111844930Y-117246792D01*
X111844930Y-117246792D02*
X111830385Y-117261956D01*
X111830385Y-117261956D02*
X111812517Y-117295496D01*
X111812517Y-117295496D02*
X111793629Y-117341017D01*
X111793629Y-117341017D02*
X111776025Y-117392127D01*
X111776025Y-117392127D02*
X111762009Y-117442432D01*
X111762009Y-117442432D02*
X111753885Y-117485538D01*
X111753885Y-117485538D02*
X111752752Y-117502606D01*
X111752752Y-117502606D02*
X111760653Y-117534520D01*
X111760653Y-117534520D02*
X111783229Y-117582604D01*
X111783229Y-117582604D02*
X111818888Y-117643517D01*
X111818888Y-117643517D02*
X111823230Y-117650371D01*
X111823230Y-117650371D02*
X111893655Y-117760792D01*
X111893655Y-117760792D02*
X112029552Y-117689703D01*
X112029552Y-117689703D02*
X112083038Y-117661472D01*
X112083038Y-117661472D02*
X112128262Y-117637129D01*
X112128262Y-117637129D02*
X112160464Y-117619270D01*
X112160464Y-117619270D02*
X112174881Y-117610489D01*
X112174881Y-117610489D02*
X112174889Y-117610482D01*
X112174889Y-117610482D02*
X112177779Y-117595248D01*
X112177779Y-117595248D02*
X112178334Y-117560246D01*
X112178334Y-117560246D02*
X112176605Y-117510997D01*
X112176605Y-117510997D02*
X112173511Y-117463748D01*
X112173511Y-117463748D02*
X112169100Y-117399974D01*
X112169100Y-117399974D02*
X112167905Y-117355072D01*
X112167905Y-117355072D02*
X112170347Y-117322671D01*
X112170347Y-117322671D02*
X112176844Y-117296398D01*
X112176844Y-117296398D02*
X112186018Y-117273798D01*
X112186018Y-117273798D02*
X112200996Y-117231579D01*
X112200996Y-117231579D02*
X112209144Y-117190687D01*
X112209144Y-117190687D02*
X112209621Y-117182106D01*
X112209621Y-117182106D02*
X112215970Y-117148906D01*
X112215970Y-117148906D02*
X112229930Y-117137656D01*
X112229930Y-117137656D02*
X112243269Y-117124905D01*
X112243269Y-117124905D02*
X112263877Y-117093243D01*
X112263877Y-117093243D02*
X112289088Y-117047136D01*
X112289088Y-117047136D02*
X112312016Y-117000200D01*
X112312016Y-117000200D02*
X112350707Y-116922369D01*
X112350707Y-116922369D02*
X112384056Y-116869000D01*
X112384056Y-116869000D02*
X112413690Y-116840130D01*
X112413690Y-116840130D02*
X112441235Y-116835795D01*
X112441235Y-116835795D02*
X112468318Y-116856032D01*
X112468318Y-116856032D02*
X112468318Y-116856032D01*
G36*
X112468318Y-116856032D02*
G01*
X112496566Y-116900878D01*
X112527606Y-116970368D01*
X112541278Y-117005363D01*
X112563844Y-117061544D01*
X112584741Y-117107842D01*
X112601739Y-117139691D01*
X112612612Y-117152526D01*
X112613125Y-117152595D01*
X112624513Y-117164147D01*
X112628992Y-117195160D01*
X112629000Y-117196792D01*
X112633997Y-117238612D01*
X112646270Y-117283809D01*
X112648708Y-117290243D01*
X112657080Y-117314436D01*
X112661426Y-117339074D01*
X112661778Y-117370171D01*
X112658165Y-117413743D01*
X112650616Y-117475805D01*
X112649658Y-117483171D01*
X112630898Y-117626841D01*
X112771872Y-117811995D01*
X112816855Y-117871074D01*
X112856325Y-117922909D01*
X112887787Y-117964224D01*
X112908748Y-117991744D01*
X112916674Y-118002143D01*
X112930704Y-118002137D01*
X112962604Y-117995278D01*
X113006384Y-117983427D01*
X113056058Y-117968447D01*
X113105637Y-117952200D01*
X113149132Y-117936549D01*
X113180556Y-117923356D01*
X113192376Y-117916398D01*
X113213102Y-117890792D01*
X113237849Y-117849920D01*
X113262846Y-117801484D01*
X113284324Y-117753187D01*
X113298511Y-117712730D01*
X113302100Y-117692268D01*
X113310261Y-117663887D01*
X113329639Y-117650151D01*
X113352574Y-117655704D01*
X113356610Y-117659230D01*
X113364711Y-117677419D01*
X113355756Y-117698844D01*
X113346490Y-117726125D01*
X113340922Y-117766532D01*
X113340200Y-117786571D01*
X113343946Y-117830386D01*
X113356701Y-117854353D01*
X113380732Y-117858956D01*
X113418311Y-117844678D01*
X113468845Y-117813918D01*
X113513550Y-117784694D01*
X113542006Y-117768692D01*
X113558757Y-117764548D01*
X113568347Y-117770898D01*
X113573832Y-117782396D01*
X113575613Y-117810223D01*
X113556343Y-117824436D01*
X113543717Y-117825700D01*
X113521223Y-117835822D01*
X113493807Y-117861034D01*
X113467696Y-117893604D01*
X113449118Y-117925800D01*
X113444172Y-117949289D01*
X113457575Y-117967955D01*
X113485790Y-117988072D01*
X113520392Y-118005490D01*
X113552955Y-118016061D01*
X113575055Y-118015635D01*
X113576715Y-118014560D01*
X113598588Y-118008743D01*
X113621269Y-118016223D01*
X113632097Y-118032685D01*
X113632105Y-118033433D01*
X113623737Y-118063269D01*
X113602707Y-118073722D01*
X113583950Y-118068311D01*
X113551941Y-118058136D01*
X113511157Y-118053960D01*
X113470043Y-118055474D01*
X113437045Y-118062373D01*
X113420648Y-118074245D01*
X113424824Y-118093525D01*
X113442994Y-118121735D01*
X113469145Y-118152156D01*
X113497265Y-118178069D01*
X113521341Y-118192755D01*
X113527810Y-118194000D01*
X113540501Y-118202785D01*
X113540970Y-118222531D01*
X113531464Y-118243321D01*
X113514228Y-118255239D01*
X113513924Y-118255299D01*
X113491724Y-118249040D01*
X113484287Y-118234805D01*
X113470162Y-118218503D01*
X113438302Y-118196374D01*
X113394773Y-118171464D01*
X113345638Y-118146819D01*
X113296963Y-118125484D01*
X113254813Y-118110507D01*
X113225696Y-118104933D01*
X113202049Y-118106720D01*
X113158811Y-118111741D01*
X113101485Y-118119294D01*
X113035573Y-118128677D01*
X113012794Y-118132069D01*
X112948186Y-118141436D01*
X112893188Y-118148728D01*
X112852344Y-118153395D01*
X112830198Y-118154888D01*
X112827582Y-118154461D01*
X112819850Y-118142453D01*
X112801297Y-118112898D01*
X112774459Y-118069852D01*
X112741868Y-118017373D01*
X112731033Y-117999887D01*
X112697281Y-117946209D01*
X112668348Y-117901739D01*
X112646750Y-117870227D01*
X112635004Y-117855425D01*
X112633718Y-117854847D01*
X112633221Y-117868252D01*
X112634225Y-117903575D01*
X112636569Y-117957393D01*
X112640092Y-118026278D01*
X112644630Y-118106805D01*
X112649195Y-118182310D01*
X112669293Y-118505150D01*
X112541235Y-118750899D01*
X112504146Y-118823453D01*
X112472074Y-118888857D01*
X112446605Y-118943654D01*
X112429321Y-118984389D01*
X112421808Y-119007605D01*
X112421914Y-119011249D01*
X112431650Y-119025371D01*
X112454103Y-119056880D01*
X112487019Y-119102643D01*
X112528142Y-119159531D01*
X112575217Y-119224410D01*
X112599930Y-119258386D01*
X112648738Y-119325707D01*
X112692293Y-119386305D01*
X112728431Y-119437125D01*
X112754987Y-119475114D01*
X112769797Y-119497217D01*
X112772128Y-119501381D01*
X112763186Y-119511580D01*
X112736520Y-119534363D01*
X112695007Y-119567460D01*
X112641525Y-119608601D01*
X112578953Y-119655513D01*
X112546450Y-119679476D01*
X112480158Y-119728368D01*
X112421118Y-119772442D01*
X112372304Y-119809436D01*
X112336686Y-119837088D01*
X112317237Y-119853136D01*
X112314524Y-119856032D01*
X112321771Y-119869292D01*
X112345480Y-119890562D01*
X112379775Y-119915763D01*
X112418777Y-119940821D01*
X112456608Y-119961657D01*
X112482950Y-119972839D01*
X112528836Y-119981922D01*
X112594894Y-119986321D01*
X112660750Y-119986175D01*
X112721907Y-119983721D01*
X112763276Y-119979641D01*
X112790462Y-119972895D01*
X112809070Y-119962443D01*
X112814715Y-119957604D01*
X112835302Y-119941050D01*
X112849568Y-119942003D01*
X112863071Y-119953885D01*
X112877095Y-119977517D01*
X112877380Y-119993726D01*
X112871043Y-120013187D01*
X112870300Y-120017488D01*
X112859231Y-120021205D01*
X112832531Y-120022798D01*
X112831777Y-120022800D01*
X112798477Y-120028577D01*
X112755350Y-120043359D01*
X112729393Y-120055161D01*
X112692523Y-120075540D01*
X112674043Y-120092044D01*
X112668813Y-120110357D01*
X112669490Y-120121379D01*
X112677655Y-120144615D01*
X112699454Y-120166699D01*
X112739752Y-120192414D01*
X112744498Y-120195095D01*
X112787395Y-120217607D01*
X112826172Y-120235330D01*
X112847872Y-120243067D01*
X112878086Y-120259217D01*
X112890480Y-120283960D01*
X112881664Y-120310159D01*
X112856736Y-120325852D01*
X112830588Y-120323340D01*
X112813604Y-120303630D01*
X112813580Y-120303557D01*
X112801439Y-120287989D01*
X112773234Y-120275518D01*
X112724350Y-120264119D01*
X112723189Y-120263899D01*
X112678200Y-120256096D01*
X112651146Y-120254285D01*
X112635149Y-120259023D01*
X112623334Y-120270867D01*
X112622418Y-120272067D01*
X112610412Y-120291540D01*
X112605086Y-120313828D01*
X112605776Y-120346397D01*
X112611529Y-120394609D01*
X112620705Y-120435200D01*
X112635434Y-120455337D01*
X112643307Y-120458700D01*
X112659654Y-120468329D01*
X112658173Y-120489066D01*
X112656220Y-120494693D01*
X112637518Y-120521723D01*
X112613584Y-120529086D01*
X112592108Y-120516570D01*
X112582858Y-120496699D01*
X112572533Y-120464443D01*
X112555996Y-120421388D01*
X112545199Y-120395925D01*
X112523494Y-120354148D01*
X112502400Y-120331869D01*
X112483907Y-120324674D01*
X112465938Y-120323182D01*
X112453424Y-120330440D01*
X112442552Y-120351456D01*
X112429509Y-120391235D01*
X112427077Y-120399305D01*
X112415515Y-120445116D01*
X112409396Y-120484470D01*
X112409781Y-120506780D01*
X112407636Y-120534634D01*
X112389993Y-120551417D01*
X112365441Y-120554110D01*
X112342573Y-120539697D01*
X112337613Y-120532133D01*
X112332358Y-120507782D01*
X112344852Y-120491370D01*
X112353811Y-120480222D01*
X112358885Y-120461795D01*
X112360451Y-120431159D01*
X112358886Y-120383383D01*
X112356369Y-120340811D01*
X112352863Y-120290646D01*
X112348217Y-120250358D01*
X112340348Y-120215756D01*
X112327173Y-120182648D01*
X112306611Y-120146843D01*
X112276578Y-120104149D01*
X112234991Y-120050374D01*
X112179767Y-119981327D01*
X112174478Y-119974744D01*
X112142793Y-119936556D01*
X112118581Y-119907072D01*
X112103060Y-119883175D01*
X112097445Y-119861746D01*
X112102952Y-119839667D01*
X112120798Y-119813818D01*
X112152198Y-119781081D01*
X112198368Y-119738338D01*
X112260525Y-119682471D01*
X112303648Y-119643490D01*
X112479946Y-119483215D01*
X112374883Y-119384707D01*
X112332446Y-119345541D01*
X112296790Y-119313801D01*
X112271922Y-119292976D01*
X112262084Y-119286448D01*
X112252540Y-119296630D01*
X112232898Y-119323920D01*
X112206327Y-119363764D01*
X112184966Y-119397224D01*
X112125908Y-119480294D01*
X112051258Y-119568610D01*
X111967686Y-119655183D01*
X111881860Y-119733026D01*
X111814314Y-119785560D01*
X111744594Y-119829960D01*
X111661176Y-119875371D01*
X111572621Y-119917697D01*
X111487488Y-119952837D01*
X111416150Y-119976214D01*
X111330402Y-119994799D01*
X111233572Y-120008921D01*
X111135518Y-120017588D01*
X111046103Y-120019808D01*
X111002867Y-120017816D01*
X110850972Y-119992813D01*
X110704418Y-119944030D01*
X110565297Y-119872877D01*
X110435702Y-119780765D01*
X110317724Y-119669106D01*
X110213454Y-119539309D01*
X110153483Y-119444950D01*
X110124210Y-119394150D01*
X110159446Y-119438600D01*
X110202444Y-119488400D01*
X110257761Y-119546071D01*
X110319775Y-119606340D01*
X110382862Y-119663931D01*
X110441399Y-119713569D01*
X110489763Y-119749981D01*
X110495400Y-119753721D01*
X110621824Y-119822651D01*
X110754971Y-119870911D01*
X110891051Y-119897852D01*
X111026274Y-119902823D01*
X111156851Y-119885173D01*
X111197955Y-119874369D01*
X111277725Y-119845860D01*
X111367993Y-119805771D01*
X111459584Y-119758592D01*
X111543325Y-119708812D01*
X111563337Y-119695550D01*
X111631796Y-119645689D01*
X111693117Y-119593145D01*
X111750341Y-119534288D01*
X111806512Y-119465490D01*
X111864670Y-119383122D01*
X111927859Y-119283556D01*
X111975154Y-119204344D01*
X112049200Y-119078039D01*
X111929525Y-118966936D01*
X111884749Y-118926694D01*
X111847051Y-118895325D01*
X111819951Y-118875572D01*
X111806967Y-118870175D01*
X111806388Y-118870991D01*
X111803936Y-118888795D01*
X111799714Y-118926592D01*
X111794284Y-118979084D01*
X111788212Y-119040971D01*
X111787338Y-119050129D01*
X111771750Y-119214109D01*
X111567948Y-119017576D01*
X111498935Y-118951500D01*
X111444894Y-118901121D01*
X111402920Y-118864089D01*
X111370107Y-118838058D01*
X111343550Y-118820680D01*
X111320343Y-118809608D01*
X111303751Y-118804132D01*
X111258100Y-118796084D01*
X111201559Y-118792868D01*
X111141141Y-118794064D01*
X111083857Y-118799253D01*
X111036719Y-118808016D01*
X111006737Y-118819934D01*
X111004069Y-118822043D01*
X110983436Y-118834646D01*
X110962959Y-118827093D01*
X110959856Y-118824883D01*
X110942131Y-118800751D01*
X110944941Y-118776377D01*
X110965741Y-118760520D01*
X110979151Y-118758509D01*
X111009008Y-118753155D01*
X111049243Y-118740243D01*
X111091479Y-118723207D01*
X111127340Y-118705477D01*
X111148451Y-118690486D01*
X111149921Y-118688536D01*
X111155294Y-118658468D01*
X111135513Y-118626683D01*
X111090754Y-118593400D01*
X111064154Y-118578828D01*
X111020867Y-118557441D01*
X110984190Y-118540466D01*
X110962125Y-118531602D01*
X110943911Y-118515337D01*
X110941380Y-118488868D01*
X110955140Y-118463239D01*
X110980798Y-118448845D01*
X111001716Y-118457471D01*
X111009285Y-118471935D01*
X111024965Y-118489818D01*
X111061654Y-118506069D01*
X111095866Y-118515859D01*
X111139206Y-118526226D01*
X111165495Y-118529600D01*
X111182190Y-118525658D01*
X111196749Y-118514075D01*
X111199523Y-118511347D01*
X111216271Y-118479710D01*
X111222718Y-118435250D01*
X111219215Y-118388065D01*
X111206112Y-118348249D01*
X111193287Y-118331664D01*
X111171269Y-118302124D01*
X111173407Y-118273306D01*
X111182270Y-118261509D01*
X111204803Y-118252544D01*
X111229280Y-118258461D01*
X111243943Y-118275549D01*
X111244698Y-118281206D01*
X111249561Y-118302947D01*
X111262284Y-118339628D01*
X111279274Y-118381325D01*
X111299313Y-118424297D01*
X111315211Y-118448435D01*
X111331327Y-118458838D01*
X111347115Y-118460700D01*
X111366407Y-118458006D01*
X111380029Y-118446183D01*
X111392163Y-118419615D01*
X111403165Y-118385438D01*
X111414289Y-118340956D01*
X111419745Y-118302878D01*
X111419022Y-118283672D01*
X111421827Y-118256694D01*
X111440511Y-118240385D01*
X111466304Y-118239270D01*
X111484058Y-118250115D01*
X111497503Y-118270616D01*
X111490508Y-118293045D01*
X111488926Y-118295632D01*
X111480985Y-118322301D01*
X111475677Y-118370609D01*
X111473369Y-118436894D01*
X111473300Y-118452131D01*
X111473300Y-118583608D01*
X111571458Y-118719758D01*
X111607263Y-118769889D01*
X111634070Y-118805877D01*
X111653623Y-118826241D01*
X111667662Y-118829498D01*
X111677930Y-118814168D01*
X111686169Y-118778767D01*
X111694120Y-118721814D01*
X111703526Y-118641826D01*
X111708023Y-118603575D01*
X111716427Y-118536901D01*
X111724476Y-118480172D01*
X111731487Y-118437697D01*
X111736776Y-118413783D01*
X111738708Y-118410104D01*
X111750028Y-118418297D01*
X111777170Y-118441038D01*
X111817184Y-118475761D01*
X111867122Y-118519903D01*
X111924035Y-118570897D01*
X111935815Y-118581530D01*
X111993385Y-118633288D01*
X112044192Y-118678453D01*
X112085381Y-118714530D01*
X112114097Y-118739023D01*
X112127485Y-118749436D01*
X112128083Y-118749601D01*
X112128331Y-118736505D01*
X112127091Y-118702703D01*
X112124581Y-118652832D01*
X112121018Y-118591527D01*
X112119589Y-118568650D01*
X112116029Y-118500195D01*
X112114622Y-118435160D01*
X112115542Y-118367824D01*
X112118965Y-118292471D01*
X112125064Y-118203382D01*
X112134016Y-118094839D01*
X112134101Y-118093862D01*
X112141220Y-118009940D01*
X112147255Y-117934878D01*
X112151948Y-117872233D01*
X112155040Y-117825560D01*
X112156273Y-117798417D01*
X112155988Y-117792954D01*
X112144089Y-117797274D01*
X112114466Y-117811906D01*
X112071473Y-117834606D01*
X112019465Y-117863130D01*
X112014917Y-117865667D01*
X111962449Y-117894523D01*
X111918725Y-117917695D01*
X111888069Y-117932956D01*
X111874803Y-117938078D01*
X111874616Y-117937975D01*
X111854327Y-117912222D01*
X111822400Y-117874131D01*
X111782149Y-117827416D01*
X111736886Y-117775791D01*
X111689926Y-117722970D01*
X111644580Y-117672667D01*
X111604163Y-117628596D01*
X111571988Y-117594470D01*
X111551367Y-117574004D01*
X111546372Y-117570026D01*
X111503066Y-117550180D01*
X111452672Y-117532003D01*
X111402080Y-117517384D01*
X111358179Y-117508210D01*
X111327857Y-117506370D01*
X111320858Y-117508222D01*
X111295879Y-117510383D01*
X111277010Y-117495098D01*
X111272677Y-117470218D01*
X111274276Y-117464834D01*
X111283239Y-117455451D01*
X111304184Y-117451194D01*
X111342167Y-117451504D01*
X111375374Y-117453660D01*
X111423577Y-117456864D01*
X111452295Y-117456548D01*
X111467347Y-117451407D01*
X111474553Y-117440136D01*
X111477294Y-117430797D01*
X111478213Y-117402641D01*
X111464785Y-117371205D01*
X111434631Y-117332287D01*
X111402306Y-117298352D01*
X111373490Y-117262940D01*
X111364746Y-117235914D01*
X111376240Y-117219707D01*
X111396701Y-117216100D01*
X111418406Y-117224952D01*
X111422522Y-117238325D01*
X111433272Y-117259368D01*
X111460191Y-117283479D01*
X111495337Y-117305735D01*
X111530765Y-117321215D01*
X111558536Y-117325000D01*
X111561327Y-117324326D01*
X111581459Y-117306677D01*
X111598788Y-117273074D01*
X111610375Y-117232960D01*
X111613278Y-117195780D01*
X111607775Y-117175141D01*
X111601760Y-117150657D01*
X111609289Y-117138530D01*
X111632176Y-117128958D01*
X111652915Y-117138782D01*
X111662483Y-117162944D01*
X111662337Y-117168273D01*
X111661253Y-117197843D01*
X111661328Y-117240178D01*
X111661824Y-117262243D01*
X111664924Y-117302675D01*
X111672669Y-117324301D01*
X111687455Y-117333617D01*
X111688233Y-117333826D01*
X111710788Y-117328149D01*
X111738993Y-117305866D01*
X111767127Y-117273085D01*
X111789466Y-117235913D01*
X111796435Y-117218350D01*
X111811931Y-117195779D01*
X111833036Y-117193134D01*
X111856453Y-117204634D01*
X111864321Y-117224096D01*
X111854543Y-117242056D01*
X111844930Y-117246792D01*
X111830385Y-117261956D01*
X111812517Y-117295496D01*
X111793629Y-117341017D01*
X111776025Y-117392127D01*
X111762009Y-117442432D01*
X111753885Y-117485538D01*
X111752752Y-117502606D01*
X111760653Y-117534520D01*
X111783229Y-117582604D01*
X111818888Y-117643517D01*
X111823230Y-117650371D01*
X111893655Y-117760792D01*
X112029552Y-117689703D01*
X112083038Y-117661472D01*
X112128262Y-117637129D01*
X112160464Y-117619270D01*
X112174881Y-117610489D01*
X112174889Y-117610482D01*
X112177779Y-117595248D01*
X112178334Y-117560246D01*
X112176605Y-117510997D01*
X112173511Y-117463748D01*
X112169100Y-117399974D01*
X112167905Y-117355072D01*
X112170347Y-117322671D01*
X112176844Y-117296398D01*
X112186018Y-117273798D01*
X112200996Y-117231579D01*
X112209144Y-117190687D01*
X112209621Y-117182106D01*
X112215970Y-117148906D01*
X112229930Y-117137656D01*
X112243269Y-117124905D01*
X112263877Y-117093243D01*
X112289088Y-117047136D01*
X112312016Y-117000200D01*
X112350707Y-116922369D01*
X112384056Y-116869000D01*
X112413690Y-116840130D01*
X112441235Y-116835795D01*
X112468318Y-116856032D01*
G37*
X112468318Y-116856032D02*
X112496566Y-116900878D01*
X112527606Y-116970368D01*
X112541278Y-117005363D01*
X112563844Y-117061544D01*
X112584741Y-117107842D01*
X112601739Y-117139691D01*
X112612612Y-117152526D01*
X112613125Y-117152595D01*
X112624513Y-117164147D01*
X112628992Y-117195160D01*
X112629000Y-117196792D01*
X112633997Y-117238612D01*
X112646270Y-117283809D01*
X112648708Y-117290243D01*
X112657080Y-117314436D01*
X112661426Y-117339074D01*
X112661778Y-117370171D01*
X112658165Y-117413743D01*
X112650616Y-117475805D01*
X112649658Y-117483171D01*
X112630898Y-117626841D01*
X112771872Y-117811995D01*
X112816855Y-117871074D01*
X112856325Y-117922909D01*
X112887787Y-117964224D01*
X112908748Y-117991744D01*
X112916674Y-118002143D01*
X112930704Y-118002137D01*
X112962604Y-117995278D01*
X113006384Y-117983427D01*
X113056058Y-117968447D01*
X113105637Y-117952200D01*
X113149132Y-117936549D01*
X113180556Y-117923356D01*
X113192376Y-117916398D01*
X113213102Y-117890792D01*
X113237849Y-117849920D01*
X113262846Y-117801484D01*
X113284324Y-117753187D01*
X113298511Y-117712730D01*
X113302100Y-117692268D01*
X113310261Y-117663887D01*
X113329639Y-117650151D01*
X113352574Y-117655704D01*
X113356610Y-117659230D01*
X113364711Y-117677419D01*
X113355756Y-117698844D01*
X113346490Y-117726125D01*
X113340922Y-117766532D01*
X113340200Y-117786571D01*
X113343946Y-117830386D01*
X113356701Y-117854353D01*
X113380732Y-117858956D01*
X113418311Y-117844678D01*
X113468845Y-117813918D01*
X113513550Y-117784694D01*
X113542006Y-117768692D01*
X113558757Y-117764548D01*
X113568347Y-117770898D01*
X113573832Y-117782396D01*
X113575613Y-117810223D01*
X113556343Y-117824436D01*
X113543717Y-117825700D01*
X113521223Y-117835822D01*
X113493807Y-117861034D01*
X113467696Y-117893604D01*
X113449118Y-117925800D01*
X113444172Y-117949289D01*
X113457575Y-117967955D01*
X113485790Y-117988072D01*
X113520392Y-118005490D01*
X113552955Y-118016061D01*
X113575055Y-118015635D01*
X113576715Y-118014560D01*
X113598588Y-118008743D01*
X113621269Y-118016223D01*
X113632097Y-118032685D01*
X113632105Y-118033433D01*
X113623737Y-118063269D01*
X113602707Y-118073722D01*
X113583950Y-118068311D01*
X113551941Y-118058136D01*
X113511157Y-118053960D01*
X113470043Y-118055474D01*
X113437045Y-118062373D01*
X113420648Y-118074245D01*
X113424824Y-118093525D01*
X113442994Y-118121735D01*
X113469145Y-118152156D01*
X113497265Y-118178069D01*
X113521341Y-118192755D01*
X113527810Y-118194000D01*
X113540501Y-118202785D01*
X113540970Y-118222531D01*
X113531464Y-118243321D01*
X113514228Y-118255239D01*
X113513924Y-118255299D01*
X113491724Y-118249040D01*
X113484287Y-118234805D01*
X113470162Y-118218503D01*
X113438302Y-118196374D01*
X113394773Y-118171464D01*
X113345638Y-118146819D01*
X113296963Y-118125484D01*
X113254813Y-118110507D01*
X113225696Y-118104933D01*
X113202049Y-118106720D01*
X113158811Y-118111741D01*
X113101485Y-118119294D01*
X113035573Y-118128677D01*
X113012794Y-118132069D01*
X112948186Y-118141436D01*
X112893188Y-118148728D01*
X112852344Y-118153395D01*
X112830198Y-118154888D01*
X112827582Y-118154461D01*
X112819850Y-118142453D01*
X112801297Y-118112898D01*
X112774459Y-118069852D01*
X112741868Y-118017373D01*
X112731033Y-117999887D01*
X112697281Y-117946209D01*
X112668348Y-117901739D01*
X112646750Y-117870227D01*
X112635004Y-117855425D01*
X112633718Y-117854847D01*
X112633221Y-117868252D01*
X112634225Y-117903575D01*
X112636569Y-117957393D01*
X112640092Y-118026278D01*
X112644630Y-118106805D01*
X112649195Y-118182310D01*
X112669293Y-118505150D01*
X112541235Y-118750899D01*
X112504146Y-118823453D01*
X112472074Y-118888857D01*
X112446605Y-118943654D01*
X112429321Y-118984389D01*
X112421808Y-119007605D01*
X112421914Y-119011249D01*
X112431650Y-119025371D01*
X112454103Y-119056880D01*
X112487019Y-119102643D01*
X112528142Y-119159531D01*
X112575217Y-119224410D01*
X112599930Y-119258386D01*
X112648738Y-119325707D01*
X112692293Y-119386305D01*
X112728431Y-119437125D01*
X112754987Y-119475114D01*
X112769797Y-119497217D01*
X112772128Y-119501381D01*
X112763186Y-119511580D01*
X112736520Y-119534363D01*
X112695007Y-119567460D01*
X112641525Y-119608601D01*
X112578953Y-119655513D01*
X112546450Y-119679476D01*
X112480158Y-119728368D01*
X112421118Y-119772442D01*
X112372304Y-119809436D01*
X112336686Y-119837088D01*
X112317237Y-119853136D01*
X112314524Y-119856032D01*
X112321771Y-119869292D01*
X112345480Y-119890562D01*
X112379775Y-119915763D01*
X112418777Y-119940821D01*
X112456608Y-119961657D01*
X112482950Y-119972839D01*
X112528836Y-119981922D01*
X112594894Y-119986321D01*
X112660750Y-119986175D01*
X112721907Y-119983721D01*
X112763276Y-119979641D01*
X112790462Y-119972895D01*
X112809070Y-119962443D01*
X112814715Y-119957604D01*
X112835302Y-119941050D01*
X112849568Y-119942003D01*
X112863071Y-119953885D01*
X112877095Y-119977517D01*
X112877380Y-119993726D01*
X112871043Y-120013187D01*
X112870300Y-120017488D01*
X112859231Y-120021205D01*
X112832531Y-120022798D01*
X112831777Y-120022800D01*
X112798477Y-120028577D01*
X112755350Y-120043359D01*
X112729393Y-120055161D01*
X112692523Y-120075540D01*
X112674043Y-120092044D01*
X112668813Y-120110357D01*
X112669490Y-120121379D01*
X112677655Y-120144615D01*
X112699454Y-120166699D01*
X112739752Y-120192414D01*
X112744498Y-120195095D01*
X112787395Y-120217607D01*
X112826172Y-120235330D01*
X112847872Y-120243067D01*
X112878086Y-120259217D01*
X112890480Y-120283960D01*
X112881664Y-120310159D01*
X112856736Y-120325852D01*
X112830588Y-120323340D01*
X112813604Y-120303630D01*
X112813580Y-120303557D01*
X112801439Y-120287989D01*
X112773234Y-120275518D01*
X112724350Y-120264119D01*
X112723189Y-120263899D01*
X112678200Y-120256096D01*
X112651146Y-120254285D01*
X112635149Y-120259023D01*
X112623334Y-120270867D01*
X112622418Y-120272067D01*
X112610412Y-120291540D01*
X112605086Y-120313828D01*
X112605776Y-120346397D01*
X112611529Y-120394609D01*
X112620705Y-120435200D01*
X112635434Y-120455337D01*
X112643307Y-120458700D01*
X112659654Y-120468329D01*
X112658173Y-120489066D01*
X112656220Y-120494693D01*
X112637518Y-120521723D01*
X112613584Y-120529086D01*
X112592108Y-120516570D01*
X112582858Y-120496699D01*
X112572533Y-120464443D01*
X112555996Y-120421388D01*
X112545199Y-120395925D01*
X112523494Y-120354148D01*
X112502400Y-120331869D01*
X112483907Y-120324674D01*
X112465938Y-120323182D01*
X112453424Y-120330440D01*
X112442552Y-120351456D01*
X112429509Y-120391235D01*
X112427077Y-120399305D01*
X112415515Y-120445116D01*
X112409396Y-120484470D01*
X112409781Y-120506780D01*
X112407636Y-120534634D01*
X112389993Y-120551417D01*
X112365441Y-120554110D01*
X112342573Y-120539697D01*
X112337613Y-120532133D01*
X112332358Y-120507782D01*
X112344852Y-120491370D01*
X112353811Y-120480222D01*
X112358885Y-120461795D01*
X112360451Y-120431159D01*
X112358886Y-120383383D01*
X112356369Y-120340811D01*
X112352863Y-120290646D01*
X112348217Y-120250358D01*
X112340348Y-120215756D01*
X112327173Y-120182648D01*
X112306611Y-120146843D01*
X112276578Y-120104149D01*
X112234991Y-120050374D01*
X112179767Y-119981327D01*
X112174478Y-119974744D01*
X112142793Y-119936556D01*
X112118581Y-119907072D01*
X112103060Y-119883175D01*
X112097445Y-119861746D01*
X112102952Y-119839667D01*
X112120798Y-119813818D01*
X112152198Y-119781081D01*
X112198368Y-119738338D01*
X112260525Y-119682471D01*
X112303648Y-119643490D01*
X112479946Y-119483215D01*
X112374883Y-119384707D01*
X112332446Y-119345541D01*
X112296790Y-119313801D01*
X112271922Y-119292976D01*
X112262084Y-119286448D01*
X112252540Y-119296630D01*
X112232898Y-119323920D01*
X112206327Y-119363764D01*
X112184966Y-119397224D01*
X112125908Y-119480294D01*
X112051258Y-119568610D01*
X111967686Y-119655183D01*
X111881860Y-119733026D01*
X111814314Y-119785560D01*
X111744594Y-119829960D01*
X111661176Y-119875371D01*
X111572621Y-119917697D01*
X111487488Y-119952837D01*
X111416150Y-119976214D01*
X111330402Y-119994799D01*
X111233572Y-120008921D01*
X111135518Y-120017588D01*
X111046103Y-120019808D01*
X111002867Y-120017816D01*
X110850972Y-119992813D01*
X110704418Y-119944030D01*
X110565297Y-119872877D01*
X110435702Y-119780765D01*
X110317724Y-119669106D01*
X110213454Y-119539309D01*
X110153483Y-119444950D01*
X110124210Y-119394150D01*
X110159446Y-119438600D01*
X110202444Y-119488400D01*
X110257761Y-119546071D01*
X110319775Y-119606340D01*
X110382862Y-119663931D01*
X110441399Y-119713569D01*
X110489763Y-119749981D01*
X110495400Y-119753721D01*
X110621824Y-119822651D01*
X110754971Y-119870911D01*
X110891051Y-119897852D01*
X111026274Y-119902823D01*
X111156851Y-119885173D01*
X111197955Y-119874369D01*
X111277725Y-119845860D01*
X111367993Y-119805771D01*
X111459584Y-119758592D01*
X111543325Y-119708812D01*
X111563337Y-119695550D01*
X111631796Y-119645689D01*
X111693117Y-119593145D01*
X111750341Y-119534288D01*
X111806512Y-119465490D01*
X111864670Y-119383122D01*
X111927859Y-119283556D01*
X111975154Y-119204344D01*
X112049200Y-119078039D01*
X111929525Y-118966936D01*
X111884749Y-118926694D01*
X111847051Y-118895325D01*
X111819951Y-118875572D01*
X111806967Y-118870175D01*
X111806388Y-118870991D01*
X111803936Y-118888795D01*
X111799714Y-118926592D01*
X111794284Y-118979084D01*
X111788212Y-119040971D01*
X111787338Y-119050129D01*
X111771750Y-119214109D01*
X111567948Y-119017576D01*
X111498935Y-118951500D01*
X111444894Y-118901121D01*
X111402920Y-118864089D01*
X111370107Y-118838058D01*
X111343550Y-118820680D01*
X111320343Y-118809608D01*
X111303751Y-118804132D01*
X111258100Y-118796084D01*
X111201559Y-118792868D01*
X111141141Y-118794064D01*
X111083857Y-118799253D01*
X111036719Y-118808016D01*
X111006737Y-118819934D01*
X111004069Y-118822043D01*
X110983436Y-118834646D01*
X110962959Y-118827093D01*
X110959856Y-118824883D01*
X110942131Y-118800751D01*
X110944941Y-118776377D01*
X110965741Y-118760520D01*
X110979151Y-118758509D01*
X111009008Y-118753155D01*
X111049243Y-118740243D01*
X111091479Y-118723207D01*
X111127340Y-118705477D01*
X111148451Y-118690486D01*
X111149921Y-118688536D01*
X111155294Y-118658468D01*
X111135513Y-118626683D01*
X111090754Y-118593400D01*
X111064154Y-118578828D01*
X111020867Y-118557441D01*
X110984190Y-118540466D01*
X110962125Y-118531602D01*
X110943911Y-118515337D01*
X110941380Y-118488868D01*
X110955140Y-118463239D01*
X110980798Y-118448845D01*
X111001716Y-118457471D01*
X111009285Y-118471935D01*
X111024965Y-118489818D01*
X111061654Y-118506069D01*
X111095866Y-118515859D01*
X111139206Y-118526226D01*
X111165495Y-118529600D01*
X111182190Y-118525658D01*
X111196749Y-118514075D01*
X111199523Y-118511347D01*
X111216271Y-118479710D01*
X111222718Y-118435250D01*
X111219215Y-118388065D01*
X111206112Y-118348249D01*
X111193287Y-118331664D01*
X111171269Y-118302124D01*
X111173407Y-118273306D01*
X111182270Y-118261509D01*
X111204803Y-118252544D01*
X111229280Y-118258461D01*
X111243943Y-118275549D01*
X111244698Y-118281206D01*
X111249561Y-118302947D01*
X111262284Y-118339628D01*
X111279274Y-118381325D01*
X111299313Y-118424297D01*
X111315211Y-118448435D01*
X111331327Y-118458838D01*
X111347115Y-118460700D01*
X111366407Y-118458006D01*
X111380029Y-118446183D01*
X111392163Y-118419615D01*
X111403165Y-118385438D01*
X111414289Y-118340956D01*
X111419745Y-118302878D01*
X111419022Y-118283672D01*
X111421827Y-118256694D01*
X111440511Y-118240385D01*
X111466304Y-118239270D01*
X111484058Y-118250115D01*
X111497503Y-118270616D01*
X111490508Y-118293045D01*
X111488926Y-118295632D01*
X111480985Y-118322301D01*
X111475677Y-118370609D01*
X111473369Y-118436894D01*
X111473300Y-118452131D01*
X111473300Y-118583608D01*
X111571458Y-118719758D01*
X111607263Y-118769889D01*
X111634070Y-118805877D01*
X111653623Y-118826241D01*
X111667662Y-118829498D01*
X111677930Y-118814168D01*
X111686169Y-118778767D01*
X111694120Y-118721814D01*
X111703526Y-118641826D01*
X111708023Y-118603575D01*
X111716427Y-118536901D01*
X111724476Y-118480172D01*
X111731487Y-118437697D01*
X111736776Y-118413783D01*
X111738708Y-118410104D01*
X111750028Y-118418297D01*
X111777170Y-118441038D01*
X111817184Y-118475761D01*
X111867122Y-118519903D01*
X111924035Y-118570897D01*
X111935815Y-118581530D01*
X111993385Y-118633288D01*
X112044192Y-118678453D01*
X112085381Y-118714530D01*
X112114097Y-118739023D01*
X112127485Y-118749436D01*
X112128083Y-118749601D01*
X112128331Y-118736505D01*
X112127091Y-118702703D01*
X112124581Y-118652832D01*
X112121018Y-118591527D01*
X112119589Y-118568650D01*
X112116029Y-118500195D01*
X112114622Y-118435160D01*
X112115542Y-118367824D01*
X112118965Y-118292471D01*
X112125064Y-118203382D01*
X112134016Y-118094839D01*
X112134101Y-118093862D01*
X112141220Y-118009940D01*
X112147255Y-117934878D01*
X112151948Y-117872233D01*
X112155040Y-117825560D01*
X112156273Y-117798417D01*
X112155988Y-117792954D01*
X112144089Y-117797274D01*
X112114466Y-117811906D01*
X112071473Y-117834606D01*
X112019465Y-117863130D01*
X112014917Y-117865667D01*
X111962449Y-117894523D01*
X111918725Y-117917695D01*
X111888069Y-117932956D01*
X111874803Y-117938078D01*
X111874616Y-117937975D01*
X111854327Y-117912222D01*
X111822400Y-117874131D01*
X111782149Y-117827416D01*
X111736886Y-117775791D01*
X111689926Y-117722970D01*
X111644580Y-117672667D01*
X111604163Y-117628596D01*
X111571988Y-117594470D01*
X111551367Y-117574004D01*
X111546372Y-117570026D01*
X111503066Y-117550180D01*
X111452672Y-117532003D01*
X111402080Y-117517384D01*
X111358179Y-117508210D01*
X111327857Y-117506370D01*
X111320858Y-117508222D01*
X111295879Y-117510383D01*
X111277010Y-117495098D01*
X111272677Y-117470218D01*
X111274276Y-117464834D01*
X111283239Y-117455451D01*
X111304184Y-117451194D01*
X111342167Y-117451504D01*
X111375374Y-117453660D01*
X111423577Y-117456864D01*
X111452295Y-117456548D01*
X111467347Y-117451407D01*
X111474553Y-117440136D01*
X111477294Y-117430797D01*
X111478213Y-117402641D01*
X111464785Y-117371205D01*
X111434631Y-117332287D01*
X111402306Y-117298352D01*
X111373490Y-117262940D01*
X111364746Y-117235914D01*
X111376240Y-117219707D01*
X111396701Y-117216100D01*
X111418406Y-117224952D01*
X111422522Y-117238325D01*
X111433272Y-117259368D01*
X111460191Y-117283479D01*
X111495337Y-117305735D01*
X111530765Y-117321215D01*
X111558536Y-117325000D01*
X111561327Y-117324326D01*
X111581459Y-117306677D01*
X111598788Y-117273074D01*
X111610375Y-117232960D01*
X111613278Y-117195780D01*
X111607775Y-117175141D01*
X111601760Y-117150657D01*
X111609289Y-117138530D01*
X111632176Y-117128958D01*
X111652915Y-117138782D01*
X111662483Y-117162944D01*
X111662337Y-117168273D01*
X111661253Y-117197843D01*
X111661328Y-117240178D01*
X111661824Y-117262243D01*
X111664924Y-117302675D01*
X111672669Y-117324301D01*
X111687455Y-117333617D01*
X111688233Y-117333826D01*
X111710788Y-117328149D01*
X111738993Y-117305866D01*
X111767127Y-117273085D01*
X111789466Y-117235913D01*
X111796435Y-117218350D01*
X111811931Y-117195779D01*
X111833036Y-117193134D01*
X111856453Y-117204634D01*
X111864321Y-117224096D01*
X111854543Y-117242056D01*
X111844930Y-117246792D01*
X111830385Y-117261956D01*
X111812517Y-117295496D01*
X111793629Y-117341017D01*
X111776025Y-117392127D01*
X111762009Y-117442432D01*
X111753885Y-117485538D01*
X111752752Y-117502606D01*
X111760653Y-117534520D01*
X111783229Y-117582604D01*
X111818888Y-117643517D01*
X111823230Y-117650371D01*
X111893655Y-117760792D01*
X112029552Y-117689703D01*
X112083038Y-117661472D01*
X112128262Y-117637129D01*
X112160464Y-117619270D01*
X112174881Y-117610489D01*
X112174889Y-117610482D01*
X112177779Y-117595248D01*
X112178334Y-117560246D01*
X112176605Y-117510997D01*
X112173511Y-117463748D01*
X112169100Y-117399974D01*
X112167905Y-117355072D01*
X112170347Y-117322671D01*
X112176844Y-117296398D01*
X112186018Y-117273798D01*
X112200996Y-117231579D01*
X112209144Y-117190687D01*
X112209621Y-117182106D01*
X112215970Y-117148906D01*
X112229930Y-117137656D01*
X112243269Y-117124905D01*
X112263877Y-117093243D01*
X112289088Y-117047136D01*
X112312016Y-117000200D01*
X112350707Y-116922369D01*
X112384056Y-116869000D01*
X112413690Y-116840130D01*
X112441235Y-116835795D01*
X112468318Y-116856032D01*
X199994318Y-131282032D02*
X200022566Y-131326878D01*
X200022566Y-131326878D02*
X200053606Y-131396368D01*
X200053606Y-131396368D02*
X200067278Y-131431363D01*
X200067278Y-131431363D02*
X200089844Y-131487544D01*
X200089844Y-131487544D02*
X200110741Y-131533842D01*
X200110741Y-131533842D02*
X200127739Y-131565691D01*
X200127739Y-131565691D02*
X200138612Y-131578526D01*
X200138612Y-131578526D02*
X200139125Y-131578595D01*
X200139125Y-131578595D02*
X200150513Y-131590147D01*
X200150513Y-131590147D02*
X200154992Y-131621160D01*
X200154992Y-131621160D02*
X200155000Y-131622792D01*
X200155000Y-131622792D02*
X200159997Y-131664612D01*
X200159997Y-131664612D02*
X200172270Y-131709809D01*
X200172270Y-131709809D02*
X200174708Y-131716243D01*
X200174708Y-131716243D02*
X200183080Y-131740436D01*
X200183080Y-131740436D02*
X200187426Y-131765074D01*
X200187426Y-131765074D02*
X200187778Y-131796171D01*
X200187778Y-131796171D02*
X200184165Y-131839743D01*
X200184165Y-131839743D02*
X200176616Y-131901805D01*
X200176616Y-131901805D02*
X200175658Y-131909171D01*
X200175658Y-131909171D02*
X200156898Y-132052841D01*
X200156898Y-132052841D02*
X200297872Y-132237995D01*
X200297872Y-132237995D02*
X200342855Y-132297074D01*
X200342855Y-132297074D02*
X200382325Y-132348909D01*
X200382325Y-132348909D02*
X200413787Y-132390224D01*
X200413787Y-132390224D02*
X200434748Y-132417744D01*
X200434748Y-132417744D02*
X200442674Y-132428143D01*
X200442674Y-132428143D02*
X200456704Y-132428137D01*
X200456704Y-132428137D02*
X200488604Y-132421278D01*
X200488604Y-132421278D02*
X200532384Y-132409427D01*
X200532384Y-132409427D02*
X200582058Y-132394447D01*
X200582058Y-132394447D02*
X200631637Y-132378200D01*
X200631637Y-132378200D02*
X200675132Y-132362549D01*
X200675132Y-132362549D02*
X200706556Y-132349356D01*
X200706556Y-132349356D02*
X200718376Y-132342398D01*
X200718376Y-132342398D02*
X200739102Y-132316792D01*
X200739102Y-132316792D02*
X200763849Y-132275920D01*
X200763849Y-132275920D02*
X200788846Y-132227484D01*
X200788846Y-132227484D02*
X200810324Y-132179187D01*
X200810324Y-132179187D02*
X200824511Y-132138730D01*
X200824511Y-132138730D02*
X200828100Y-132118268D01*
X200828100Y-132118268D02*
X200836261Y-132089887D01*
X200836261Y-132089887D02*
X200855639Y-132076151D01*
X200855639Y-132076151D02*
X200878574Y-132081704D01*
X200878574Y-132081704D02*
X200882610Y-132085230D01*
X200882610Y-132085230D02*
X200890711Y-132103419D01*
X200890711Y-132103419D02*
X200881756Y-132124844D01*
X200881756Y-132124844D02*
X200872490Y-132152125D01*
X200872490Y-132152125D02*
X200866922Y-132192532D01*
X200866922Y-132192532D02*
X200866200Y-132212571D01*
X200866200Y-132212571D02*
X200869946Y-132256386D01*
X200869946Y-132256386D02*
X200882701Y-132280353D01*
X200882701Y-132280353D02*
X200906732Y-132284956D01*
X200906732Y-132284956D02*
X200944311Y-132270678D01*
X200944311Y-132270678D02*
X200994845Y-132239918D01*
X200994845Y-132239918D02*
X201039550Y-132210694D01*
X201039550Y-132210694D02*
X201068006Y-132194692D01*
X201068006Y-132194692D02*
X201084757Y-132190548D01*
X201084757Y-132190548D02*
X201094347Y-132196898D01*
X201094347Y-132196898D02*
X201099832Y-132208396D01*
X201099832Y-132208396D02*
X201101613Y-132236223D01*
X201101613Y-132236223D02*
X201082343Y-132250436D01*
X201082343Y-132250436D02*
X201069717Y-132251700D01*
X201069717Y-132251700D02*
X201047223Y-132261822D01*
X201047223Y-132261822D02*
X201019807Y-132287034D01*
X201019807Y-132287034D02*
X200993696Y-132319604D01*
X200993696Y-132319604D02*
X200975118Y-132351800D01*
X200975118Y-132351800D02*
X200970172Y-132375289D01*
X200970172Y-132375289D02*
X200983575Y-132393955D01*
X200983575Y-132393955D02*
X201011790Y-132414072D01*
X201011790Y-132414072D02*
X201046392Y-132431490D01*
X201046392Y-132431490D02*
X201078955Y-132442061D01*
X201078955Y-132442061D02*
X201101055Y-132441635D01*
X201101055Y-132441635D02*
X201102715Y-132440560D01*
X201102715Y-132440560D02*
X201124588Y-132434743D01*
X201124588Y-132434743D02*
X201147269Y-132442223D01*
X201147269Y-132442223D02*
X201158097Y-132458685D01*
X201158097Y-132458685D02*
X201158105Y-132459433D01*
X201158105Y-132459433D02*
X201149737Y-132489269D01*
X201149737Y-132489269D02*
X201128707Y-132499722D01*
X201128707Y-132499722D02*
X201109950Y-132494311D01*
X201109950Y-132494311D02*
X201077941Y-132484136D01*
X201077941Y-132484136D02*
X201037157Y-132479960D01*
X201037157Y-132479960D02*
X200996043Y-132481474D01*
X200996043Y-132481474D02*
X200963045Y-132488373D01*
X200963045Y-132488373D02*
X200946648Y-132500245D01*
X200946648Y-132500245D02*
X200950824Y-132519525D01*
X200950824Y-132519525D02*
X200968994Y-132547735D01*
X200968994Y-132547735D02*
X200995145Y-132578156D01*
X200995145Y-132578156D02*
X201023265Y-132604069D01*
X201023265Y-132604069D02*
X201047341Y-132618755D01*
X201047341Y-132618755D02*
X201053810Y-132620000D01*
X201053810Y-132620000D02*
X201066501Y-132628785D01*
X201066501Y-132628785D02*
X201066970Y-132648531D01*
X201066970Y-132648531D02*
X201057464Y-132669321D01*
X201057464Y-132669321D02*
X201040228Y-132681239D01*
X201040228Y-132681239D02*
X201039924Y-132681299D01*
X201039924Y-132681299D02*
X201017724Y-132675040D01*
X201017724Y-132675040D02*
X201010287Y-132660805D01*
X201010287Y-132660805D02*
X200996162Y-132644503D01*
X200996162Y-132644503D02*
X200964302Y-132622374D01*
X200964302Y-132622374D02*
X200920773Y-132597464D01*
X200920773Y-132597464D02*
X200871638Y-132572819D01*
X200871638Y-132572819D02*
X200822963Y-132551484D01*
X200822963Y-132551484D02*
X200780813Y-132536507D01*
X200780813Y-132536507D02*
X200751696Y-132530933D01*
X200751696Y-132530933D02*
X200728049Y-132532720D01*
X200728049Y-132532720D02*
X200684811Y-132537741D01*
X200684811Y-132537741D02*
X200627485Y-132545294D01*
X200627485Y-132545294D02*
X200561573Y-132554677D01*
X200561573Y-132554677D02*
X200538794Y-132558069D01*
X200538794Y-132558069D02*
X200474186Y-132567436D01*
X200474186Y-132567436D02*
X200419188Y-132574728D01*
X200419188Y-132574728D02*
X200378344Y-132579395D01*
X200378344Y-132579395D02*
X200356198Y-132580888D01*
X200356198Y-132580888D02*
X200353582Y-132580461D01*
X200353582Y-132580461D02*
X200345850Y-132568453D01*
X200345850Y-132568453D02*
X200327297Y-132538898D01*
X200327297Y-132538898D02*
X200300459Y-132495852D01*
X200300459Y-132495852D02*
X200267868Y-132443373D01*
X200267868Y-132443373D02*
X200257033Y-132425887D01*
X200257033Y-132425887D02*
X200223281Y-132372209D01*
X200223281Y-132372209D02*
X200194348Y-132327739D01*
X200194348Y-132327739D02*
X200172750Y-132296227D01*
X200172750Y-132296227D02*
X200161004Y-132281425D01*
X200161004Y-132281425D02*
X200159718Y-132280847D01*
X200159718Y-132280847D02*
X200159221Y-132294252D01*
X200159221Y-132294252D02*
X200160225Y-132329575D01*
X200160225Y-132329575D02*
X200162569Y-132383393D01*
X200162569Y-132383393D02*
X200166092Y-132452278D01*
X200166092Y-132452278D02*
X200170630Y-132532805D01*
X200170630Y-132532805D02*
X200175195Y-132608310D01*
X200175195Y-132608310D02*
X200195293Y-132931150D01*
X200195293Y-132931150D02*
X200067235Y-133176899D01*
X200067235Y-133176899D02*
X200030146Y-133249453D01*
X200030146Y-133249453D02*
X199998074Y-133314857D01*
X199998074Y-133314857D02*
X199972605Y-133369654D01*
X199972605Y-133369654D02*
X199955321Y-133410389D01*
X199955321Y-133410389D02*
X199947808Y-133433605D01*
X199947808Y-133433605D02*
X199947914Y-133437249D01*
X199947914Y-133437249D02*
X199957650Y-133451371D01*
X199957650Y-133451371D02*
X199980103Y-133482880D01*
X199980103Y-133482880D02*
X200013019Y-133528643D01*
X200013019Y-133528643D02*
X200054142Y-133585531D01*
X200054142Y-133585531D02*
X200101217Y-133650410D01*
X200101217Y-133650410D02*
X200125930Y-133684386D01*
X200125930Y-133684386D02*
X200174738Y-133751707D01*
X200174738Y-133751707D02*
X200218293Y-133812305D01*
X200218293Y-133812305D02*
X200254431Y-133863125D01*
X200254431Y-133863125D02*
X200280987Y-133901114D01*
X200280987Y-133901114D02*
X200295797Y-133923217D01*
X200295797Y-133923217D02*
X200298128Y-133927381D01*
X200298128Y-133927381D02*
X200289186Y-133937580D01*
X200289186Y-133937580D02*
X200262520Y-133960363D01*
X200262520Y-133960363D02*
X200221007Y-133993460D01*
X200221007Y-133993460D02*
X200167525Y-134034601D01*
X200167525Y-134034601D02*
X200104953Y-134081513D01*
X200104953Y-134081513D02*
X200072450Y-134105476D01*
X200072450Y-134105476D02*
X200006158Y-134154368D01*
X200006158Y-134154368D02*
X199947118Y-134198442D01*
X199947118Y-134198442D02*
X199898304Y-134235436D01*
X199898304Y-134235436D02*
X199862686Y-134263088D01*
X199862686Y-134263088D02*
X199843237Y-134279136D01*
X199843237Y-134279136D02*
X199840524Y-134282032D01*
X199840524Y-134282032D02*
X199847771Y-134295292D01*
X199847771Y-134295292D02*
X199871480Y-134316562D01*
X199871480Y-134316562D02*
X199905775Y-134341763D01*
X199905775Y-134341763D02*
X199944777Y-134366821D01*
X199944777Y-134366821D02*
X199982608Y-134387657D01*
X199982608Y-134387657D02*
X200008950Y-134398839D01*
X200008950Y-134398839D02*
X200054836Y-134407922D01*
X200054836Y-134407922D02*
X200120894Y-134412321D01*
X200120894Y-134412321D02*
X200186750Y-134412175D01*
X200186750Y-134412175D02*
X200247907Y-134409721D01*
X200247907Y-134409721D02*
X200289276Y-134405641D01*
X200289276Y-134405641D02*
X200316462Y-134398895D01*
X200316462Y-134398895D02*
X200335070Y-134388443D01*
X200335070Y-134388443D02*
X200340715Y-134383604D01*
X200340715Y-134383604D02*
X200361302Y-134367050D01*
X200361302Y-134367050D02*
X200375568Y-134368003D01*
X200375568Y-134368003D02*
X200389071Y-134379885D01*
X200389071Y-134379885D02*
X200403095Y-134403517D01*
X200403095Y-134403517D02*
X200403380Y-134419726D01*
X200403380Y-134419726D02*
X200397043Y-134439187D01*
X200397043Y-134439187D02*
X200396300Y-134443488D01*
X200396300Y-134443488D02*
X200385231Y-134447205D01*
X200385231Y-134447205D02*
X200358531Y-134448798D01*
X200358531Y-134448798D02*
X200357777Y-134448800D01*
X200357777Y-134448800D02*
X200324477Y-134454577D01*
X200324477Y-134454577D02*
X200281350Y-134469359D01*
X200281350Y-134469359D02*
X200255393Y-134481161D01*
X200255393Y-134481161D02*
X200218523Y-134501540D01*
X200218523Y-134501540D02*
X200200043Y-134518044D01*
X200200043Y-134518044D02*
X200194813Y-134536357D01*
X200194813Y-134536357D02*
X200195490Y-134547379D01*
X200195490Y-134547379D02*
X200203655Y-134570615D01*
X200203655Y-134570615D02*
X200225454Y-134592699D01*
X200225454Y-134592699D02*
X200265752Y-134618414D01*
X200265752Y-134618414D02*
X200270498Y-134621095D01*
X200270498Y-134621095D02*
X200313395Y-134643607D01*
X200313395Y-134643607D02*
X200352172Y-134661330D01*
X200352172Y-134661330D02*
X200373872Y-134669067D01*
X200373872Y-134669067D02*
X200404086Y-134685217D01*
X200404086Y-134685217D02*
X200416480Y-134709960D01*
X200416480Y-134709960D02*
X200407664Y-134736159D01*
X200407664Y-134736159D02*
X200382736Y-134751852D01*
X200382736Y-134751852D02*
X200356588Y-134749340D01*
X200356588Y-134749340D02*
X200339604Y-134729630D01*
X200339604Y-134729630D02*
X200339580Y-134729557D01*
X200339580Y-134729557D02*
X200327439Y-134713989D01*
X200327439Y-134713989D02*
X200299234Y-134701518D01*
X200299234Y-134701518D02*
X200250350Y-134690119D01*
X200250350Y-134690119D02*
X200249189Y-134689899D01*
X200249189Y-134689899D02*
X200204200Y-134682096D01*
X200204200Y-134682096D02*
X200177146Y-134680285D01*
X200177146Y-134680285D02*
X200161149Y-134685023D01*
X200161149Y-134685023D02*
X200149334Y-134696867D01*
X200149334Y-134696867D02*
X200148418Y-134698067D01*
X200148418Y-134698067D02*
X200136412Y-134717540D01*
X200136412Y-134717540D02*
X200131086Y-134739828D01*
X200131086Y-134739828D02*
X200131776Y-134772397D01*
X200131776Y-134772397D02*
X200137529Y-134820609D01*
X200137529Y-134820609D02*
X200146705Y-134861200D01*
X200146705Y-134861200D02*
X200161434Y-134881337D01*
X200161434Y-134881337D02*
X200169307Y-134884700D01*
X200169307Y-134884700D02*
X200185654Y-134894329D01*
X200185654Y-134894329D02*
X200184173Y-134915066D01*
X200184173Y-134915066D02*
X200182220Y-134920693D01*
X200182220Y-134920693D02*
X200163518Y-134947723D01*
X200163518Y-134947723D02*
X200139584Y-134955086D01*
X200139584Y-134955086D02*
X200118108Y-134942570D01*
X200118108Y-134942570D02*
X200108858Y-134922699D01*
X200108858Y-134922699D02*
X200098533Y-134890443D01*
X200098533Y-134890443D02*
X200081996Y-134847388D01*
X200081996Y-134847388D02*
X200071199Y-134821925D01*
X200071199Y-134821925D02*
X200049494Y-134780148D01*
X200049494Y-134780148D02*
X200028400Y-134757869D01*
X200028400Y-134757869D02*
X200009907Y-134750674D01*
X200009907Y-134750674D02*
X199991938Y-134749182D01*
X199991938Y-134749182D02*
X199979424Y-134756440D01*
X199979424Y-134756440D02*
X199968552Y-134777456D01*
X199968552Y-134777456D02*
X199955509Y-134817235D01*
X199955509Y-134817235D02*
X199953077Y-134825305D01*
X199953077Y-134825305D02*
X199941515Y-134871116D01*
X199941515Y-134871116D02*
X199935396Y-134910470D01*
X199935396Y-134910470D02*
X199935781Y-134932780D01*
X199935781Y-134932780D02*
X199933636Y-134960634D01*
X199933636Y-134960634D02*
X199915993Y-134977417D01*
X199915993Y-134977417D02*
X199891441Y-134980110D01*
X199891441Y-134980110D02*
X199868573Y-134965697D01*
X199868573Y-134965697D02*
X199863613Y-134958133D01*
X199863613Y-134958133D02*
X199858358Y-134933782D01*
X199858358Y-134933782D02*
X199870852Y-134917370D01*
X199870852Y-134917370D02*
X199879811Y-134906222D01*
X199879811Y-134906222D02*
X199884885Y-134887795D01*
X199884885Y-134887795D02*
X199886451Y-134857159D01*
X199886451Y-134857159D02*
X199884886Y-134809383D01*
X199884886Y-134809383D02*
X199882369Y-134766811D01*
X199882369Y-134766811D02*
X199878863Y-134716646D01*
X199878863Y-134716646D02*
X199874217Y-134676358D01*
X199874217Y-134676358D02*
X199866348Y-134641756D01*
X199866348Y-134641756D02*
X199853173Y-134608648D01*
X199853173Y-134608648D02*
X199832611Y-134572843D01*
X199832611Y-134572843D02*
X199802578Y-134530149D01*
X199802578Y-134530149D02*
X199760991Y-134476374D01*
X199760991Y-134476374D02*
X199705767Y-134407327D01*
X199705767Y-134407327D02*
X199700478Y-134400744D01*
X199700478Y-134400744D02*
X199668793Y-134362556D01*
X199668793Y-134362556D02*
X199644581Y-134333072D01*
X199644581Y-134333072D02*
X199629060Y-134309175D01*
X199629060Y-134309175D02*
X199623445Y-134287746D01*
X199623445Y-134287746D02*
X199628952Y-134265667D01*
X199628952Y-134265667D02*
X199646798Y-134239818D01*
X199646798Y-134239818D02*
X199678198Y-134207081D01*
X199678198Y-134207081D02*
X199724368Y-134164338D01*
X199724368Y-134164338D02*
X199786525Y-134108471D01*
X199786525Y-134108471D02*
X199829648Y-134069490D01*
X199829648Y-134069490D02*
X200005946Y-133909215D01*
X200005946Y-133909215D02*
X199900883Y-133810707D01*
X199900883Y-133810707D02*
X199858446Y-133771541D01*
X199858446Y-133771541D02*
X199822790Y-133739801D01*
X199822790Y-133739801D02*
X199797922Y-133718976D01*
X199797922Y-133718976D02*
X199788084Y-133712448D01*
X199788084Y-133712448D02*
X199778540Y-133722630D01*
X199778540Y-133722630D02*
X199758898Y-133749920D01*
X199758898Y-133749920D02*
X199732327Y-133789764D01*
X199732327Y-133789764D02*
X199710966Y-133823224D01*
X199710966Y-133823224D02*
X199651908Y-133906294D01*
X199651908Y-133906294D02*
X199577258Y-133994610D01*
X199577258Y-133994610D02*
X199493686Y-134081183D01*
X199493686Y-134081183D02*
X199407860Y-134159026D01*
X199407860Y-134159026D02*
X199340314Y-134211560D01*
X199340314Y-134211560D02*
X199270594Y-134255960D01*
X199270594Y-134255960D02*
X199187176Y-134301371D01*
X199187176Y-134301371D02*
X199098621Y-134343697D01*
X199098621Y-134343697D02*
X199013488Y-134378837D01*
X199013488Y-134378837D02*
X198942150Y-134402214D01*
X198942150Y-134402214D02*
X198856402Y-134420799D01*
X198856402Y-134420799D02*
X198759572Y-134434921D01*
X198759572Y-134434921D02*
X198661518Y-134443588D01*
X198661518Y-134443588D02*
X198572103Y-134445808D01*
X198572103Y-134445808D02*
X198528867Y-134443816D01*
X198528867Y-134443816D02*
X198376972Y-134418813D01*
X198376972Y-134418813D02*
X198230418Y-134370030D01*
X198230418Y-134370030D02*
X198091297Y-134298877D01*
X198091297Y-134298877D02*
X197961702Y-134206765D01*
X197961702Y-134206765D02*
X197843724Y-134095106D01*
X197843724Y-134095106D02*
X197739454Y-133965309D01*
X197739454Y-133965309D02*
X197679483Y-133870950D01*
X197679483Y-133870950D02*
X197650210Y-133820150D01*
X197650210Y-133820150D02*
X197685446Y-133864600D01*
X197685446Y-133864600D02*
X197728444Y-133914400D01*
X197728444Y-133914400D02*
X197783761Y-133972071D01*
X197783761Y-133972071D02*
X197845775Y-134032340D01*
X197845775Y-134032340D02*
X197908862Y-134089931D01*
X197908862Y-134089931D02*
X197967399Y-134139569D01*
X197967399Y-134139569D02*
X198015763Y-134175981D01*
X198015763Y-134175981D02*
X198021400Y-134179721D01*
X198021400Y-134179721D02*
X198147824Y-134248651D01*
X198147824Y-134248651D02*
X198280971Y-134296911D01*
X198280971Y-134296911D02*
X198417051Y-134323852D01*
X198417051Y-134323852D02*
X198552274Y-134328823D01*
X198552274Y-134328823D02*
X198682851Y-134311173D01*
X198682851Y-134311173D02*
X198723955Y-134300369D01*
X198723955Y-134300369D02*
X198803725Y-134271860D01*
X198803725Y-134271860D02*
X198893993Y-134231771D01*
X198893993Y-134231771D02*
X198985584Y-134184592D01*
X198985584Y-134184592D02*
X199069325Y-134134812D01*
X199069325Y-134134812D02*
X199089337Y-134121550D01*
X199089337Y-134121550D02*
X199157796Y-134071689D01*
X199157796Y-134071689D02*
X199219117Y-134019145D01*
X199219117Y-134019145D02*
X199276341Y-133960288D01*
X199276341Y-133960288D02*
X199332512Y-133891490D01*
X199332512Y-133891490D02*
X199390670Y-133809122D01*
X199390670Y-133809122D02*
X199453859Y-133709556D01*
X199453859Y-133709556D02*
X199501154Y-133630344D01*
X199501154Y-133630344D02*
X199575200Y-133504039D01*
X199575200Y-133504039D02*
X199455525Y-133392936D01*
X199455525Y-133392936D02*
X199410749Y-133352694D01*
X199410749Y-133352694D02*
X199373051Y-133321325D01*
X199373051Y-133321325D02*
X199345951Y-133301572D01*
X199345951Y-133301572D02*
X199332967Y-133296175D01*
X199332967Y-133296175D02*
X199332388Y-133296991D01*
X199332388Y-133296991D02*
X199329936Y-133314795D01*
X199329936Y-133314795D02*
X199325714Y-133352592D01*
X199325714Y-133352592D02*
X199320284Y-133405084D01*
X199320284Y-133405084D02*
X199314212Y-133466971D01*
X199314212Y-133466971D02*
X199313338Y-133476129D01*
X199313338Y-133476129D02*
X199297750Y-133640109D01*
X199297750Y-133640109D02*
X199093948Y-133443576D01*
X199093948Y-133443576D02*
X199024935Y-133377500D01*
X199024935Y-133377500D02*
X198970894Y-133327121D01*
X198970894Y-133327121D02*
X198928920Y-133290089D01*
X198928920Y-133290089D02*
X198896107Y-133264058D01*
X198896107Y-133264058D02*
X198869550Y-133246680D01*
X198869550Y-133246680D02*
X198846343Y-133235608D01*
X198846343Y-133235608D02*
X198829751Y-133230132D01*
X198829751Y-133230132D02*
X198784100Y-133222084D01*
X198784100Y-133222084D02*
X198727559Y-133218868D01*
X198727559Y-133218868D02*
X198667141Y-133220064D01*
X198667141Y-133220064D02*
X198609857Y-133225253D01*
X198609857Y-133225253D02*
X198562719Y-133234016D01*
X198562719Y-133234016D02*
X198532737Y-133245934D01*
X198532737Y-133245934D02*
X198530069Y-133248043D01*
X198530069Y-133248043D02*
X198509436Y-133260646D01*
X198509436Y-133260646D02*
X198488959Y-133253093D01*
X198488959Y-133253093D02*
X198485856Y-133250883D01*
X198485856Y-133250883D02*
X198468131Y-133226751D01*
X198468131Y-133226751D02*
X198470941Y-133202377D01*
X198470941Y-133202377D02*
X198491741Y-133186520D01*
X198491741Y-133186520D02*
X198505151Y-133184509D01*
X198505151Y-133184509D02*
X198535008Y-133179155D01*
X198535008Y-133179155D02*
X198575243Y-133166243D01*
X198575243Y-133166243D02*
X198617479Y-133149207D01*
X198617479Y-133149207D02*
X198653340Y-133131477D01*
X198653340Y-133131477D02*
X198674451Y-133116486D01*
X198674451Y-133116486D02*
X198675921Y-133114536D01*
X198675921Y-133114536D02*
X198681294Y-133084468D01*
X198681294Y-133084468D02*
X198661513Y-133052683D01*
X198661513Y-133052683D02*
X198616754Y-133019400D01*
X198616754Y-133019400D02*
X198590154Y-133004828D01*
X198590154Y-133004828D02*
X198546867Y-132983441D01*
X198546867Y-132983441D02*
X198510190Y-132966466D01*
X198510190Y-132966466D02*
X198488125Y-132957602D01*
X198488125Y-132957602D02*
X198469911Y-132941337D01*
X198469911Y-132941337D02*
X198467380Y-132914868D01*
X198467380Y-132914868D02*
X198481140Y-132889239D01*
X198481140Y-132889239D02*
X198506798Y-132874845D01*
X198506798Y-132874845D02*
X198527716Y-132883471D01*
X198527716Y-132883471D02*
X198535285Y-132897935D01*
X198535285Y-132897935D02*
X198550965Y-132915818D01*
X198550965Y-132915818D02*
X198587654Y-132932069D01*
X198587654Y-132932069D02*
X198621866Y-132941859D01*
X198621866Y-132941859D02*
X198665206Y-132952226D01*
X198665206Y-132952226D02*
X198691495Y-132955600D01*
X198691495Y-132955600D02*
X198708190Y-132951658D01*
X198708190Y-132951658D02*
X198722749Y-132940075D01*
X198722749Y-132940075D02*
X198725523Y-132937347D01*
X198725523Y-132937347D02*
X198742271Y-132905710D01*
X198742271Y-132905710D02*
X198748718Y-132861250D01*
X198748718Y-132861250D02*
X198745215Y-132814065D01*
X198745215Y-132814065D02*
X198732112Y-132774249D01*
X198732112Y-132774249D02*
X198719287Y-132757664D01*
X198719287Y-132757664D02*
X198697269Y-132728124D01*
X198697269Y-132728124D02*
X198699407Y-132699306D01*
X198699407Y-132699306D02*
X198708270Y-132687509D01*
X198708270Y-132687509D02*
X198730803Y-132678544D01*
X198730803Y-132678544D02*
X198755280Y-132684461D01*
X198755280Y-132684461D02*
X198769943Y-132701549D01*
X198769943Y-132701549D02*
X198770698Y-132707206D01*
X198770698Y-132707206D02*
X198775561Y-132728947D01*
X198775561Y-132728947D02*
X198788284Y-132765628D01*
X198788284Y-132765628D02*
X198805274Y-132807325D01*
X198805274Y-132807325D02*
X198825313Y-132850297D01*
X198825313Y-132850297D02*
X198841211Y-132874435D01*
X198841211Y-132874435D02*
X198857327Y-132884838D01*
X198857327Y-132884838D02*
X198873115Y-132886700D01*
X198873115Y-132886700D02*
X198892407Y-132884006D01*
X198892407Y-132884006D02*
X198906029Y-132872183D01*
X198906029Y-132872183D02*
X198918163Y-132845615D01*
X198918163Y-132845615D02*
X198929165Y-132811438D01*
X198929165Y-132811438D02*
X198940289Y-132766956D01*
X198940289Y-132766956D02*
X198945745Y-132728878D01*
X198945745Y-132728878D02*
X198945022Y-132709672D01*
X198945022Y-132709672D02*
X198947827Y-132682694D01*
X198947827Y-132682694D02*
X198966511Y-132666385D01*
X198966511Y-132666385D02*
X198992304Y-132665270D01*
X198992304Y-132665270D02*
X199010058Y-132676115D01*
X199010058Y-132676115D02*
X199023503Y-132696616D01*
X199023503Y-132696616D02*
X199016508Y-132719045D01*
X199016508Y-132719045D02*
X199014926Y-132721632D01*
X199014926Y-132721632D02*
X199006985Y-132748301D01*
X199006985Y-132748301D02*
X199001677Y-132796609D01*
X199001677Y-132796609D02*
X198999369Y-132862894D01*
X198999369Y-132862894D02*
X198999300Y-132878131D01*
X198999300Y-132878131D02*
X198999300Y-133009608D01*
X198999300Y-133009608D02*
X199097458Y-133145758D01*
X199097458Y-133145758D02*
X199133263Y-133195889D01*
X199133263Y-133195889D02*
X199160070Y-133231877D01*
X199160070Y-133231877D02*
X199179623Y-133252241D01*
X199179623Y-133252241D02*
X199193662Y-133255498D01*
X199193662Y-133255498D02*
X199203930Y-133240168D01*
X199203930Y-133240168D02*
X199212169Y-133204767D01*
X199212169Y-133204767D02*
X199220120Y-133147814D01*
X199220120Y-133147814D02*
X199229526Y-133067826D01*
X199229526Y-133067826D02*
X199234023Y-133029575D01*
X199234023Y-133029575D02*
X199242427Y-132962901D01*
X199242427Y-132962901D02*
X199250476Y-132906172D01*
X199250476Y-132906172D02*
X199257487Y-132863697D01*
X199257487Y-132863697D02*
X199262776Y-132839783D01*
X199262776Y-132839783D02*
X199264708Y-132836104D01*
X199264708Y-132836104D02*
X199276028Y-132844297D01*
X199276028Y-132844297D02*
X199303170Y-132867038D01*
X199303170Y-132867038D02*
X199343184Y-132901761D01*
X199343184Y-132901761D02*
X199393122Y-132945903D01*
X199393122Y-132945903D02*
X199450035Y-132996897D01*
X199450035Y-132996897D02*
X199461815Y-133007530D01*
X199461815Y-133007530D02*
X199519385Y-133059288D01*
X199519385Y-133059288D02*
X199570192Y-133104453D01*
X199570192Y-133104453D02*
X199611381Y-133140530D01*
X199611381Y-133140530D02*
X199640097Y-133165023D01*
X199640097Y-133165023D02*
X199653485Y-133175436D01*
X199653485Y-133175436D02*
X199654083Y-133175601D01*
X199654083Y-133175601D02*
X199654331Y-133162505D01*
X199654331Y-133162505D02*
X199653091Y-133128703D01*
X199653091Y-133128703D02*
X199650581Y-133078832D01*
X199650581Y-133078832D02*
X199647018Y-133017527D01*
X199647018Y-133017527D02*
X199645589Y-132994650D01*
X199645589Y-132994650D02*
X199642029Y-132926195D01*
X199642029Y-132926195D02*
X199640622Y-132861160D01*
X199640622Y-132861160D02*
X199641542Y-132793824D01*
X199641542Y-132793824D02*
X199644965Y-132718471D01*
X199644965Y-132718471D02*
X199651064Y-132629382D01*
X199651064Y-132629382D02*
X199660016Y-132520839D01*
X199660016Y-132520839D02*
X199660101Y-132519862D01*
X199660101Y-132519862D02*
X199667220Y-132435940D01*
X199667220Y-132435940D02*
X199673255Y-132360878D01*
X199673255Y-132360878D02*
X199677948Y-132298233D01*
X199677948Y-132298233D02*
X199681040Y-132251560D01*
X199681040Y-132251560D02*
X199682273Y-132224417D01*
X199682273Y-132224417D02*
X199681988Y-132218954D01*
X199681988Y-132218954D02*
X199670089Y-132223274D01*
X199670089Y-132223274D02*
X199640466Y-132237906D01*
X199640466Y-132237906D02*
X199597473Y-132260606D01*
X199597473Y-132260606D02*
X199545465Y-132289130D01*
X199545465Y-132289130D02*
X199540917Y-132291667D01*
X199540917Y-132291667D02*
X199488449Y-132320523D01*
X199488449Y-132320523D02*
X199444725Y-132343695D01*
X199444725Y-132343695D02*
X199414069Y-132358956D01*
X199414069Y-132358956D02*
X199400803Y-132364078D01*
X199400803Y-132364078D02*
X199400616Y-132363975D01*
X199400616Y-132363975D02*
X199380327Y-132338222D01*
X199380327Y-132338222D02*
X199348400Y-132300131D01*
X199348400Y-132300131D02*
X199308149Y-132253416D01*
X199308149Y-132253416D02*
X199262886Y-132201791D01*
X199262886Y-132201791D02*
X199215926Y-132148970D01*
X199215926Y-132148970D02*
X199170580Y-132098667D01*
X199170580Y-132098667D02*
X199130163Y-132054596D01*
X199130163Y-132054596D02*
X199097988Y-132020470D01*
X199097988Y-132020470D02*
X199077367Y-132000004D01*
X199077367Y-132000004D02*
X199072372Y-131996026D01*
X199072372Y-131996026D02*
X199029066Y-131976180D01*
X199029066Y-131976180D02*
X198978672Y-131958003D01*
X198978672Y-131958003D02*
X198928080Y-131943384D01*
X198928080Y-131943384D02*
X198884179Y-131934210D01*
X198884179Y-131934210D02*
X198853857Y-131932370D01*
X198853857Y-131932370D02*
X198846858Y-131934222D01*
X198846858Y-131934222D02*
X198821879Y-131936383D01*
X198821879Y-131936383D02*
X198803010Y-131921098D01*
X198803010Y-131921098D02*
X198798677Y-131896218D01*
X198798677Y-131896218D02*
X198800276Y-131890834D01*
X198800276Y-131890834D02*
X198809239Y-131881451D01*
X198809239Y-131881451D02*
X198830184Y-131877194D01*
X198830184Y-131877194D02*
X198868167Y-131877504D01*
X198868167Y-131877504D02*
X198901374Y-131879660D01*
X198901374Y-131879660D02*
X198949577Y-131882864D01*
X198949577Y-131882864D02*
X198978295Y-131882548D01*
X198978295Y-131882548D02*
X198993347Y-131877407D01*
X198993347Y-131877407D02*
X199000553Y-131866136D01*
X199000553Y-131866136D02*
X199003294Y-131856797D01*
X199003294Y-131856797D02*
X199004213Y-131828641D01*
X199004213Y-131828641D02*
X198990785Y-131797205D01*
X198990785Y-131797205D02*
X198960631Y-131758287D01*
X198960631Y-131758287D02*
X198928306Y-131724352D01*
X198928306Y-131724352D02*
X198899490Y-131688940D01*
X198899490Y-131688940D02*
X198890746Y-131661914D01*
X198890746Y-131661914D02*
X198902240Y-131645707D01*
X198902240Y-131645707D02*
X198922701Y-131642100D01*
X198922701Y-131642100D02*
X198944406Y-131650952D01*
X198944406Y-131650952D02*
X198948522Y-131664325D01*
X198948522Y-131664325D02*
X198959272Y-131685368D01*
X198959272Y-131685368D02*
X198986191Y-131709479D01*
X198986191Y-131709479D02*
X199021337Y-131731735D01*
X199021337Y-131731735D02*
X199056765Y-131747215D01*
X199056765Y-131747215D02*
X199084536Y-131751000D01*
X199084536Y-131751000D02*
X199087327Y-131750326D01*
X199087327Y-131750326D02*
X199107459Y-131732677D01*
X199107459Y-131732677D02*
X199124788Y-131699074D01*
X199124788Y-131699074D02*
X199136375Y-131658960D01*
X199136375Y-131658960D02*
X199139278Y-131621780D01*
X199139278Y-131621780D02*
X199133775Y-131601141D01*
X199133775Y-131601141D02*
X199127760Y-131576657D01*
X199127760Y-131576657D02*
X199135289Y-131564530D01*
X199135289Y-131564530D02*
X199158176Y-131554958D01*
X199158176Y-131554958D02*
X199178915Y-131564782D01*
X199178915Y-131564782D02*
X199188483Y-131588944D01*
X199188483Y-131588944D02*
X199188337Y-131594273D01*
X199188337Y-131594273D02*
X199187253Y-131623843D01*
X199187253Y-131623843D02*
X199187328Y-131666178D01*
X199187328Y-131666178D02*
X199187824Y-131688243D01*
X199187824Y-131688243D02*
X199190924Y-131728675D01*
X199190924Y-131728675D02*
X199198669Y-131750301D01*
X199198669Y-131750301D02*
X199213455Y-131759617D01*
X199213455Y-131759617D02*
X199214233Y-131759826D01*
X199214233Y-131759826D02*
X199236788Y-131754149D01*
X199236788Y-131754149D02*
X199264993Y-131731866D01*
X199264993Y-131731866D02*
X199293127Y-131699085D01*
X199293127Y-131699085D02*
X199315466Y-131661913D01*
X199315466Y-131661913D02*
X199322435Y-131644350D01*
X199322435Y-131644350D02*
X199337931Y-131621779D01*
X199337931Y-131621779D02*
X199359036Y-131619134D01*
X199359036Y-131619134D02*
X199382453Y-131630634D01*
X199382453Y-131630634D02*
X199390321Y-131650096D01*
X199390321Y-131650096D02*
X199380543Y-131668056D01*
X199380543Y-131668056D02*
X199370930Y-131672792D01*
X199370930Y-131672792D02*
X199356385Y-131687956D01*
X199356385Y-131687956D02*
X199338517Y-131721496D01*
X199338517Y-131721496D02*
X199319629Y-131767017D01*
X199319629Y-131767017D02*
X199302025Y-131818127D01*
X199302025Y-131818127D02*
X199288009Y-131868432D01*
X199288009Y-131868432D02*
X199279885Y-131911538D01*
X199279885Y-131911538D02*
X199278752Y-131928606D01*
X199278752Y-131928606D02*
X199286653Y-131960520D01*
X199286653Y-131960520D02*
X199309229Y-132008604D01*
X199309229Y-132008604D02*
X199344888Y-132069517D01*
X199344888Y-132069517D02*
X199349230Y-132076371D01*
X199349230Y-132076371D02*
X199419655Y-132186792D01*
X199419655Y-132186792D02*
X199555552Y-132115703D01*
X199555552Y-132115703D02*
X199609038Y-132087472D01*
X199609038Y-132087472D02*
X199654262Y-132063129D01*
X199654262Y-132063129D02*
X199686464Y-132045270D01*
X199686464Y-132045270D02*
X199700881Y-132036489D01*
X199700881Y-132036489D02*
X199700889Y-132036482D01*
X199700889Y-132036482D02*
X199703779Y-132021248D01*
X199703779Y-132021248D02*
X199704334Y-131986246D01*
X199704334Y-131986246D02*
X199702605Y-131936997D01*
X199702605Y-131936997D02*
X199699511Y-131889748D01*
X199699511Y-131889748D02*
X199695100Y-131825974D01*
X199695100Y-131825974D02*
X199693905Y-131781072D01*
X199693905Y-131781072D02*
X199696347Y-131748671D01*
X199696347Y-131748671D02*
X199702844Y-131722398D01*
X199702844Y-131722398D02*
X199712018Y-131699798D01*
X199712018Y-131699798D02*
X199726996Y-131657579D01*
X199726996Y-131657579D02*
X199735144Y-131616687D01*
X199735144Y-131616687D02*
X199735621Y-131608106D01*
X199735621Y-131608106D02*
X199741970Y-131574906D01*
X199741970Y-131574906D02*
X199755930Y-131563656D01*
X199755930Y-131563656D02*
X199769269Y-131550905D01*
X199769269Y-131550905D02*
X199789877Y-131519243D01*
X199789877Y-131519243D02*
X199815088Y-131473136D01*
X199815088Y-131473136D02*
X199838016Y-131426200D01*
X199838016Y-131426200D02*
X199876707Y-131348369D01*
X199876707Y-131348369D02*
X199910056Y-131295000D01*
X199910056Y-131295000D02*
X199939690Y-131266130D01*
X199939690Y-131266130D02*
X199967235Y-131261795D01*
X199967235Y-131261795D02*
X199994318Y-131282032D01*
X199994318Y-131282032D02*
X199994318Y-131282032D01*
G36*
X199994318Y-131282032D02*
G01*
X200022566Y-131326878D01*
X200053606Y-131396368D01*
X200067278Y-131431363D01*
X200089844Y-131487544D01*
X200110741Y-131533842D01*
X200127739Y-131565691D01*
X200138612Y-131578526D01*
X200139125Y-131578595D01*
X200150513Y-131590147D01*
X200154992Y-131621160D01*
X200155000Y-131622792D01*
X200159997Y-131664612D01*
X200172270Y-131709809D01*
X200174708Y-131716243D01*
X200183080Y-131740436D01*
X200187426Y-131765074D01*
X200187778Y-131796171D01*
X200184165Y-131839743D01*
X200176616Y-131901805D01*
X200175658Y-131909171D01*
X200156898Y-132052841D01*
X200297872Y-132237995D01*
X200342855Y-132297074D01*
X200382325Y-132348909D01*
X200413787Y-132390224D01*
X200434748Y-132417744D01*
X200442674Y-132428143D01*
X200456704Y-132428137D01*
X200488604Y-132421278D01*
X200532384Y-132409427D01*
X200582058Y-132394447D01*
X200631637Y-132378200D01*
X200675132Y-132362549D01*
X200706556Y-132349356D01*
X200718376Y-132342398D01*
X200739102Y-132316792D01*
X200763849Y-132275920D01*
X200788846Y-132227484D01*
X200810324Y-132179187D01*
X200824511Y-132138730D01*
X200828100Y-132118268D01*
X200836261Y-132089887D01*
X200855639Y-132076151D01*
X200878574Y-132081704D01*
X200882610Y-132085230D01*
X200890711Y-132103419D01*
X200881756Y-132124844D01*
X200872490Y-132152125D01*
X200866922Y-132192532D01*
X200866200Y-132212571D01*
X200869946Y-132256386D01*
X200882701Y-132280353D01*
X200906732Y-132284956D01*
X200944311Y-132270678D01*
X200994845Y-132239918D01*
X201039550Y-132210694D01*
X201068006Y-132194692D01*
X201084757Y-132190548D01*
X201094347Y-132196898D01*
X201099832Y-132208396D01*
X201101613Y-132236223D01*
X201082343Y-132250436D01*
X201069717Y-132251700D01*
X201047223Y-132261822D01*
X201019807Y-132287034D01*
X200993696Y-132319604D01*
X200975118Y-132351800D01*
X200970172Y-132375289D01*
X200983575Y-132393955D01*
X201011790Y-132414072D01*
X201046392Y-132431490D01*
X201078955Y-132442061D01*
X201101055Y-132441635D01*
X201102715Y-132440560D01*
X201124588Y-132434743D01*
X201147269Y-132442223D01*
X201158097Y-132458685D01*
X201158105Y-132459433D01*
X201149737Y-132489269D01*
X201128707Y-132499722D01*
X201109950Y-132494311D01*
X201077941Y-132484136D01*
X201037157Y-132479960D01*
X200996043Y-132481474D01*
X200963045Y-132488373D01*
X200946648Y-132500245D01*
X200950824Y-132519525D01*
X200968994Y-132547735D01*
X200995145Y-132578156D01*
X201023265Y-132604069D01*
X201047341Y-132618755D01*
X201053810Y-132620000D01*
X201066501Y-132628785D01*
X201066970Y-132648531D01*
X201057464Y-132669321D01*
X201040228Y-132681239D01*
X201039924Y-132681299D01*
X201017724Y-132675040D01*
X201010287Y-132660805D01*
X200996162Y-132644503D01*
X200964302Y-132622374D01*
X200920773Y-132597464D01*
X200871638Y-132572819D01*
X200822963Y-132551484D01*
X200780813Y-132536507D01*
X200751696Y-132530933D01*
X200728049Y-132532720D01*
X200684811Y-132537741D01*
X200627485Y-132545294D01*
X200561573Y-132554677D01*
X200538794Y-132558069D01*
X200474186Y-132567436D01*
X200419188Y-132574728D01*
X200378344Y-132579395D01*
X200356198Y-132580888D01*
X200353582Y-132580461D01*
X200345850Y-132568453D01*
X200327297Y-132538898D01*
X200300459Y-132495852D01*
X200267868Y-132443373D01*
X200257033Y-132425887D01*
X200223281Y-132372209D01*
X200194348Y-132327739D01*
X200172750Y-132296227D01*
X200161004Y-132281425D01*
X200159718Y-132280847D01*
X200159221Y-132294252D01*
X200160225Y-132329575D01*
X200162569Y-132383393D01*
X200166092Y-132452278D01*
X200170630Y-132532805D01*
X200175195Y-132608310D01*
X200195293Y-132931150D01*
X200067235Y-133176899D01*
X200030146Y-133249453D01*
X199998074Y-133314857D01*
X199972605Y-133369654D01*
X199955321Y-133410389D01*
X199947808Y-133433605D01*
X199947914Y-133437249D01*
X199957650Y-133451371D01*
X199980103Y-133482880D01*
X200013019Y-133528643D01*
X200054142Y-133585531D01*
X200101217Y-133650410D01*
X200125930Y-133684386D01*
X200174738Y-133751707D01*
X200218293Y-133812305D01*
X200254431Y-133863125D01*
X200280987Y-133901114D01*
X200295797Y-133923217D01*
X200298128Y-133927381D01*
X200289186Y-133937580D01*
X200262520Y-133960363D01*
X200221007Y-133993460D01*
X200167525Y-134034601D01*
X200104953Y-134081513D01*
X200072450Y-134105476D01*
X200006158Y-134154368D01*
X199947118Y-134198442D01*
X199898304Y-134235436D01*
X199862686Y-134263088D01*
X199843237Y-134279136D01*
X199840524Y-134282032D01*
X199847771Y-134295292D01*
X199871480Y-134316562D01*
X199905775Y-134341763D01*
X199944777Y-134366821D01*
X199982608Y-134387657D01*
X200008950Y-134398839D01*
X200054836Y-134407922D01*
X200120894Y-134412321D01*
X200186750Y-134412175D01*
X200247907Y-134409721D01*
X200289276Y-134405641D01*
X200316462Y-134398895D01*
X200335070Y-134388443D01*
X200340715Y-134383604D01*
X200361302Y-134367050D01*
X200375568Y-134368003D01*
X200389071Y-134379885D01*
X200403095Y-134403517D01*
X200403380Y-134419726D01*
X200397043Y-134439187D01*
X200396300Y-134443488D01*
X200385231Y-134447205D01*
X200358531Y-134448798D01*
X200357777Y-134448800D01*
X200324477Y-134454577D01*
X200281350Y-134469359D01*
X200255393Y-134481161D01*
X200218523Y-134501540D01*
X200200043Y-134518044D01*
X200194813Y-134536357D01*
X200195490Y-134547379D01*
X200203655Y-134570615D01*
X200225454Y-134592699D01*
X200265752Y-134618414D01*
X200270498Y-134621095D01*
X200313395Y-134643607D01*
X200352172Y-134661330D01*
X200373872Y-134669067D01*
X200404086Y-134685217D01*
X200416480Y-134709960D01*
X200407664Y-134736159D01*
X200382736Y-134751852D01*
X200356588Y-134749340D01*
X200339604Y-134729630D01*
X200339580Y-134729557D01*
X200327439Y-134713989D01*
X200299234Y-134701518D01*
X200250350Y-134690119D01*
X200249189Y-134689899D01*
X200204200Y-134682096D01*
X200177146Y-134680285D01*
X200161149Y-134685023D01*
X200149334Y-134696867D01*
X200148418Y-134698067D01*
X200136412Y-134717540D01*
X200131086Y-134739828D01*
X200131776Y-134772397D01*
X200137529Y-134820609D01*
X200146705Y-134861200D01*
X200161434Y-134881337D01*
X200169307Y-134884700D01*
X200185654Y-134894329D01*
X200184173Y-134915066D01*
X200182220Y-134920693D01*
X200163518Y-134947723D01*
X200139584Y-134955086D01*
X200118108Y-134942570D01*
X200108858Y-134922699D01*
X200098533Y-134890443D01*
X200081996Y-134847388D01*
X200071199Y-134821925D01*
X200049494Y-134780148D01*
X200028400Y-134757869D01*
X200009907Y-134750674D01*
X199991938Y-134749182D01*
X199979424Y-134756440D01*
X199968552Y-134777456D01*
X199955509Y-134817235D01*
X199953077Y-134825305D01*
X199941515Y-134871116D01*
X199935396Y-134910470D01*
X199935781Y-134932780D01*
X199933636Y-134960634D01*
X199915993Y-134977417D01*
X199891441Y-134980110D01*
X199868573Y-134965697D01*
X199863613Y-134958133D01*
X199858358Y-134933782D01*
X199870852Y-134917370D01*
X199879811Y-134906222D01*
X199884885Y-134887795D01*
X199886451Y-134857159D01*
X199884886Y-134809383D01*
X199882369Y-134766811D01*
X199878863Y-134716646D01*
X199874217Y-134676358D01*
X199866348Y-134641756D01*
X199853173Y-134608648D01*
X199832611Y-134572843D01*
X199802578Y-134530149D01*
X199760991Y-134476374D01*
X199705767Y-134407327D01*
X199700478Y-134400744D01*
X199668793Y-134362556D01*
X199644581Y-134333072D01*
X199629060Y-134309175D01*
X199623445Y-134287746D01*
X199628952Y-134265667D01*
X199646798Y-134239818D01*
X199678198Y-134207081D01*
X199724368Y-134164338D01*
X199786525Y-134108471D01*
X199829648Y-134069490D01*
X200005946Y-133909215D01*
X199900883Y-133810707D01*
X199858446Y-133771541D01*
X199822790Y-133739801D01*
X199797922Y-133718976D01*
X199788084Y-133712448D01*
X199778540Y-133722630D01*
X199758898Y-133749920D01*
X199732327Y-133789764D01*
X199710966Y-133823224D01*
X199651908Y-133906294D01*
X199577258Y-133994610D01*
X199493686Y-134081183D01*
X199407860Y-134159026D01*
X199340314Y-134211560D01*
X199270594Y-134255960D01*
X199187176Y-134301371D01*
X199098621Y-134343697D01*
X199013488Y-134378837D01*
X198942150Y-134402214D01*
X198856402Y-134420799D01*
X198759572Y-134434921D01*
X198661518Y-134443588D01*
X198572103Y-134445808D01*
X198528867Y-134443816D01*
X198376972Y-134418813D01*
X198230418Y-134370030D01*
X198091297Y-134298877D01*
X197961702Y-134206765D01*
X197843724Y-134095106D01*
X197739454Y-133965309D01*
X197679483Y-133870950D01*
X197650210Y-133820150D01*
X197685446Y-133864600D01*
X197728444Y-133914400D01*
X197783761Y-133972071D01*
X197845775Y-134032340D01*
X197908862Y-134089931D01*
X197967399Y-134139569D01*
X198015763Y-134175981D01*
X198021400Y-134179721D01*
X198147824Y-134248651D01*
X198280971Y-134296911D01*
X198417051Y-134323852D01*
X198552274Y-134328823D01*
X198682851Y-134311173D01*
X198723955Y-134300369D01*
X198803725Y-134271860D01*
X198893993Y-134231771D01*
X198985584Y-134184592D01*
X199069325Y-134134812D01*
X199089337Y-134121550D01*
X199157796Y-134071689D01*
X199219117Y-134019145D01*
X199276341Y-133960288D01*
X199332512Y-133891490D01*
X199390670Y-133809122D01*
X199453859Y-133709556D01*
X199501154Y-133630344D01*
X199575200Y-133504039D01*
X199455525Y-133392936D01*
X199410749Y-133352694D01*
X199373051Y-133321325D01*
X199345951Y-133301572D01*
X199332967Y-133296175D01*
X199332388Y-133296991D01*
X199329936Y-133314795D01*
X199325714Y-133352592D01*
X199320284Y-133405084D01*
X199314212Y-133466971D01*
X199313338Y-133476129D01*
X199297750Y-133640109D01*
X199093948Y-133443576D01*
X199024935Y-133377500D01*
X198970894Y-133327121D01*
X198928920Y-133290089D01*
X198896107Y-133264058D01*
X198869550Y-133246680D01*
X198846343Y-133235608D01*
X198829751Y-133230132D01*
X198784100Y-133222084D01*
X198727559Y-133218868D01*
X198667141Y-133220064D01*
X198609857Y-133225253D01*
X198562719Y-133234016D01*
X198532737Y-133245934D01*
X198530069Y-133248043D01*
X198509436Y-133260646D01*
X198488959Y-133253093D01*
X198485856Y-133250883D01*
X198468131Y-133226751D01*
X198470941Y-133202377D01*
X198491741Y-133186520D01*
X198505151Y-133184509D01*
X198535008Y-133179155D01*
X198575243Y-133166243D01*
X198617479Y-133149207D01*
X198653340Y-133131477D01*
X198674451Y-133116486D01*
X198675921Y-133114536D01*
X198681294Y-133084468D01*
X198661513Y-133052683D01*
X198616754Y-133019400D01*
X198590154Y-133004828D01*
X198546867Y-132983441D01*
X198510190Y-132966466D01*
X198488125Y-132957602D01*
X198469911Y-132941337D01*
X198467380Y-132914868D01*
X198481140Y-132889239D01*
X198506798Y-132874845D01*
X198527716Y-132883471D01*
X198535285Y-132897935D01*
X198550965Y-132915818D01*
X198587654Y-132932069D01*
X198621866Y-132941859D01*
X198665206Y-132952226D01*
X198691495Y-132955600D01*
X198708190Y-132951658D01*
X198722749Y-132940075D01*
X198725523Y-132937347D01*
X198742271Y-132905710D01*
X198748718Y-132861250D01*
X198745215Y-132814065D01*
X198732112Y-132774249D01*
X198719287Y-132757664D01*
X198697269Y-132728124D01*
X198699407Y-132699306D01*
X198708270Y-132687509D01*
X198730803Y-132678544D01*
X198755280Y-132684461D01*
X198769943Y-132701549D01*
X198770698Y-132707206D01*
X198775561Y-132728947D01*
X198788284Y-132765628D01*
X198805274Y-132807325D01*
X198825313Y-132850297D01*
X198841211Y-132874435D01*
X198857327Y-132884838D01*
X198873115Y-132886700D01*
X198892407Y-132884006D01*
X198906029Y-132872183D01*
X198918163Y-132845615D01*
X198929165Y-132811438D01*
X198940289Y-132766956D01*
X198945745Y-132728878D01*
X198945022Y-132709672D01*
X198947827Y-132682694D01*
X198966511Y-132666385D01*
X198992304Y-132665270D01*
X199010058Y-132676115D01*
X199023503Y-132696616D01*
X199016508Y-132719045D01*
X199014926Y-132721632D01*
X199006985Y-132748301D01*
X199001677Y-132796609D01*
X198999369Y-132862894D01*
X198999300Y-132878131D01*
X198999300Y-133009608D01*
X199097458Y-133145758D01*
X199133263Y-133195889D01*
X199160070Y-133231877D01*
X199179623Y-133252241D01*
X199193662Y-133255498D01*
X199203930Y-133240168D01*
X199212169Y-133204767D01*
X199220120Y-133147814D01*
X199229526Y-133067826D01*
X199234023Y-133029575D01*
X199242427Y-132962901D01*
X199250476Y-132906172D01*
X199257487Y-132863697D01*
X199262776Y-132839783D01*
X199264708Y-132836104D01*
X199276028Y-132844297D01*
X199303170Y-132867038D01*
X199343184Y-132901761D01*
X199393122Y-132945903D01*
X199450035Y-132996897D01*
X199461815Y-133007530D01*
X199519385Y-133059288D01*
X199570192Y-133104453D01*
X199611381Y-133140530D01*
X199640097Y-133165023D01*
X199653485Y-133175436D01*
X199654083Y-133175601D01*
X199654331Y-133162505D01*
X199653091Y-133128703D01*
X199650581Y-133078832D01*
X199647018Y-133017527D01*
X199645589Y-132994650D01*
X199642029Y-132926195D01*
X199640622Y-132861160D01*
X199641542Y-132793824D01*
X199644965Y-132718471D01*
X199651064Y-132629382D01*
X199660016Y-132520839D01*
X199660101Y-132519862D01*
X199667220Y-132435940D01*
X199673255Y-132360878D01*
X199677948Y-132298233D01*
X199681040Y-132251560D01*
X199682273Y-132224417D01*
X199681988Y-132218954D01*
X199670089Y-132223274D01*
X199640466Y-132237906D01*
X199597473Y-132260606D01*
X199545465Y-132289130D01*
X199540917Y-132291667D01*
X199488449Y-132320523D01*
X199444725Y-132343695D01*
X199414069Y-132358956D01*
X199400803Y-132364078D01*
X199400616Y-132363975D01*
X199380327Y-132338222D01*
X199348400Y-132300131D01*
X199308149Y-132253416D01*
X199262886Y-132201791D01*
X199215926Y-132148970D01*
X199170580Y-132098667D01*
X199130163Y-132054596D01*
X199097988Y-132020470D01*
X199077367Y-132000004D01*
X199072372Y-131996026D01*
X199029066Y-131976180D01*
X198978672Y-131958003D01*
X198928080Y-131943384D01*
X198884179Y-131934210D01*
X198853857Y-131932370D01*
X198846858Y-131934222D01*
X198821879Y-131936383D01*
X198803010Y-131921098D01*
X198798677Y-131896218D01*
X198800276Y-131890834D01*
X198809239Y-131881451D01*
X198830184Y-131877194D01*
X198868167Y-131877504D01*
X198901374Y-131879660D01*
X198949577Y-131882864D01*
X198978295Y-131882548D01*
X198993347Y-131877407D01*
X199000553Y-131866136D01*
X199003294Y-131856797D01*
X199004213Y-131828641D01*
X198990785Y-131797205D01*
X198960631Y-131758287D01*
X198928306Y-131724352D01*
X198899490Y-131688940D01*
X198890746Y-131661914D01*
X198902240Y-131645707D01*
X198922701Y-131642100D01*
X198944406Y-131650952D01*
X198948522Y-131664325D01*
X198959272Y-131685368D01*
X198986191Y-131709479D01*
X199021337Y-131731735D01*
X199056765Y-131747215D01*
X199084536Y-131751000D01*
X199087327Y-131750326D01*
X199107459Y-131732677D01*
X199124788Y-131699074D01*
X199136375Y-131658960D01*
X199139278Y-131621780D01*
X199133775Y-131601141D01*
X199127760Y-131576657D01*
X199135289Y-131564530D01*
X199158176Y-131554958D01*
X199178915Y-131564782D01*
X199188483Y-131588944D01*
X199188337Y-131594273D01*
X199187253Y-131623843D01*
X199187328Y-131666178D01*
X199187824Y-131688243D01*
X199190924Y-131728675D01*
X199198669Y-131750301D01*
X199213455Y-131759617D01*
X199214233Y-131759826D01*
X199236788Y-131754149D01*
X199264993Y-131731866D01*
X199293127Y-131699085D01*
X199315466Y-131661913D01*
X199322435Y-131644350D01*
X199337931Y-131621779D01*
X199359036Y-131619134D01*
X199382453Y-131630634D01*
X199390321Y-131650096D01*
X199380543Y-131668056D01*
X199370930Y-131672792D01*
X199356385Y-131687956D01*
X199338517Y-131721496D01*
X199319629Y-131767017D01*
X199302025Y-131818127D01*
X199288009Y-131868432D01*
X199279885Y-131911538D01*
X199278752Y-131928606D01*
X199286653Y-131960520D01*
X199309229Y-132008604D01*
X199344888Y-132069517D01*
X199349230Y-132076371D01*
X199419655Y-132186792D01*
X199555552Y-132115703D01*
X199609038Y-132087472D01*
X199654262Y-132063129D01*
X199686464Y-132045270D01*
X199700881Y-132036489D01*
X199700889Y-132036482D01*
X199703779Y-132021248D01*
X199704334Y-131986246D01*
X199702605Y-131936997D01*
X199699511Y-131889748D01*
X199695100Y-131825974D01*
X199693905Y-131781072D01*
X199696347Y-131748671D01*
X199702844Y-131722398D01*
X199712018Y-131699798D01*
X199726996Y-131657579D01*
X199735144Y-131616687D01*
X199735621Y-131608106D01*
X199741970Y-131574906D01*
X199755930Y-131563656D01*
X199769269Y-131550905D01*
X199789877Y-131519243D01*
X199815088Y-131473136D01*
X199838016Y-131426200D01*
X199876707Y-131348369D01*
X199910056Y-131295000D01*
X199939690Y-131266130D01*
X199967235Y-131261795D01*
X199994318Y-131282032D01*
G37*
X199994318Y-131282032D02*
X200022566Y-131326878D01*
X200053606Y-131396368D01*
X200067278Y-131431363D01*
X200089844Y-131487544D01*
X200110741Y-131533842D01*
X200127739Y-131565691D01*
X200138612Y-131578526D01*
X200139125Y-131578595D01*
X200150513Y-131590147D01*
X200154992Y-131621160D01*
X200155000Y-131622792D01*
X200159997Y-131664612D01*
X200172270Y-131709809D01*
X200174708Y-131716243D01*
X200183080Y-131740436D01*
X200187426Y-131765074D01*
X200187778Y-131796171D01*
X200184165Y-131839743D01*
X200176616Y-131901805D01*
X200175658Y-131909171D01*
X200156898Y-132052841D01*
X200297872Y-132237995D01*
X200342855Y-132297074D01*
X200382325Y-132348909D01*
X200413787Y-132390224D01*
X200434748Y-132417744D01*
X200442674Y-132428143D01*
X200456704Y-132428137D01*
X200488604Y-132421278D01*
X200532384Y-132409427D01*
X200582058Y-132394447D01*
X200631637Y-132378200D01*
X200675132Y-132362549D01*
X200706556Y-132349356D01*
X200718376Y-132342398D01*
X200739102Y-132316792D01*
X200763849Y-132275920D01*
X200788846Y-132227484D01*
X200810324Y-132179187D01*
X200824511Y-132138730D01*
X200828100Y-132118268D01*
X200836261Y-132089887D01*
X200855639Y-132076151D01*
X200878574Y-132081704D01*
X200882610Y-132085230D01*
X200890711Y-132103419D01*
X200881756Y-132124844D01*
X200872490Y-132152125D01*
X200866922Y-132192532D01*
X200866200Y-132212571D01*
X200869946Y-132256386D01*
X200882701Y-132280353D01*
X200906732Y-132284956D01*
X200944311Y-132270678D01*
X200994845Y-132239918D01*
X201039550Y-132210694D01*
X201068006Y-132194692D01*
X201084757Y-132190548D01*
X201094347Y-132196898D01*
X201099832Y-132208396D01*
X201101613Y-132236223D01*
X201082343Y-132250436D01*
X201069717Y-132251700D01*
X201047223Y-132261822D01*
X201019807Y-132287034D01*
X200993696Y-132319604D01*
X200975118Y-132351800D01*
X200970172Y-132375289D01*
X200983575Y-132393955D01*
X201011790Y-132414072D01*
X201046392Y-132431490D01*
X201078955Y-132442061D01*
X201101055Y-132441635D01*
X201102715Y-132440560D01*
X201124588Y-132434743D01*
X201147269Y-132442223D01*
X201158097Y-132458685D01*
X201158105Y-132459433D01*
X201149737Y-132489269D01*
X201128707Y-132499722D01*
X201109950Y-132494311D01*
X201077941Y-132484136D01*
X201037157Y-132479960D01*
X200996043Y-132481474D01*
X200963045Y-132488373D01*
X200946648Y-132500245D01*
X200950824Y-132519525D01*
X200968994Y-132547735D01*
X200995145Y-132578156D01*
X201023265Y-132604069D01*
X201047341Y-132618755D01*
X201053810Y-132620000D01*
X201066501Y-132628785D01*
X201066970Y-132648531D01*
X201057464Y-132669321D01*
X201040228Y-132681239D01*
X201039924Y-132681299D01*
X201017724Y-132675040D01*
X201010287Y-132660805D01*
X200996162Y-132644503D01*
X200964302Y-132622374D01*
X200920773Y-132597464D01*
X200871638Y-132572819D01*
X200822963Y-132551484D01*
X200780813Y-132536507D01*
X200751696Y-132530933D01*
X200728049Y-132532720D01*
X200684811Y-132537741D01*
X200627485Y-132545294D01*
X200561573Y-132554677D01*
X200538794Y-132558069D01*
X200474186Y-132567436D01*
X200419188Y-132574728D01*
X200378344Y-132579395D01*
X200356198Y-132580888D01*
X200353582Y-132580461D01*
X200345850Y-132568453D01*
X200327297Y-132538898D01*
X200300459Y-132495852D01*
X200267868Y-132443373D01*
X200257033Y-132425887D01*
X200223281Y-132372209D01*
X200194348Y-132327739D01*
X200172750Y-132296227D01*
X200161004Y-132281425D01*
X200159718Y-132280847D01*
X200159221Y-132294252D01*
X200160225Y-132329575D01*
X200162569Y-132383393D01*
X200166092Y-132452278D01*
X200170630Y-132532805D01*
X200175195Y-132608310D01*
X200195293Y-132931150D01*
X200067235Y-133176899D01*
X200030146Y-133249453D01*
X199998074Y-133314857D01*
X199972605Y-133369654D01*
X199955321Y-133410389D01*
X199947808Y-133433605D01*
X199947914Y-133437249D01*
X199957650Y-133451371D01*
X199980103Y-133482880D01*
X200013019Y-133528643D01*
X200054142Y-133585531D01*
X200101217Y-133650410D01*
X200125930Y-133684386D01*
X200174738Y-133751707D01*
X200218293Y-133812305D01*
X200254431Y-133863125D01*
X200280987Y-133901114D01*
X200295797Y-133923217D01*
X200298128Y-133927381D01*
X200289186Y-133937580D01*
X200262520Y-133960363D01*
X200221007Y-133993460D01*
X200167525Y-134034601D01*
X200104953Y-134081513D01*
X200072450Y-134105476D01*
X200006158Y-134154368D01*
X199947118Y-134198442D01*
X199898304Y-134235436D01*
X199862686Y-134263088D01*
X199843237Y-134279136D01*
X199840524Y-134282032D01*
X199847771Y-134295292D01*
X199871480Y-134316562D01*
X199905775Y-134341763D01*
X199944777Y-134366821D01*
X199982608Y-134387657D01*
X200008950Y-134398839D01*
X200054836Y-134407922D01*
X200120894Y-134412321D01*
X200186750Y-134412175D01*
X200247907Y-134409721D01*
X200289276Y-134405641D01*
X200316462Y-134398895D01*
X200335070Y-134388443D01*
X200340715Y-134383604D01*
X200361302Y-134367050D01*
X200375568Y-134368003D01*
X200389071Y-134379885D01*
X200403095Y-134403517D01*
X200403380Y-134419726D01*
X200397043Y-134439187D01*
X200396300Y-134443488D01*
X200385231Y-134447205D01*
X200358531Y-134448798D01*
X200357777Y-134448800D01*
X200324477Y-134454577D01*
X200281350Y-134469359D01*
X200255393Y-134481161D01*
X200218523Y-134501540D01*
X200200043Y-134518044D01*
X200194813Y-134536357D01*
X200195490Y-134547379D01*
X200203655Y-134570615D01*
X200225454Y-134592699D01*
X200265752Y-134618414D01*
X200270498Y-134621095D01*
X200313395Y-134643607D01*
X200352172Y-134661330D01*
X200373872Y-134669067D01*
X200404086Y-134685217D01*
X200416480Y-134709960D01*
X200407664Y-134736159D01*
X200382736Y-134751852D01*
X200356588Y-134749340D01*
X200339604Y-134729630D01*
X200339580Y-134729557D01*
X200327439Y-134713989D01*
X200299234Y-134701518D01*
X200250350Y-134690119D01*
X200249189Y-134689899D01*
X200204200Y-134682096D01*
X200177146Y-134680285D01*
X200161149Y-134685023D01*
X200149334Y-134696867D01*
X200148418Y-134698067D01*
X200136412Y-134717540D01*
X200131086Y-134739828D01*
X200131776Y-134772397D01*
X200137529Y-134820609D01*
X200146705Y-134861200D01*
X200161434Y-134881337D01*
X200169307Y-134884700D01*
X200185654Y-134894329D01*
X200184173Y-134915066D01*
X200182220Y-134920693D01*
X200163518Y-134947723D01*
X200139584Y-134955086D01*
X200118108Y-134942570D01*
X200108858Y-134922699D01*
X200098533Y-134890443D01*
X200081996Y-134847388D01*
X200071199Y-134821925D01*
X200049494Y-134780148D01*
X200028400Y-134757869D01*
X200009907Y-134750674D01*
X199991938Y-134749182D01*
X199979424Y-134756440D01*
X199968552Y-134777456D01*
X199955509Y-134817235D01*
X199953077Y-134825305D01*
X199941515Y-134871116D01*
X199935396Y-134910470D01*
X199935781Y-134932780D01*
X199933636Y-134960634D01*
X199915993Y-134977417D01*
X199891441Y-134980110D01*
X199868573Y-134965697D01*
X199863613Y-134958133D01*
X199858358Y-134933782D01*
X199870852Y-134917370D01*
X199879811Y-134906222D01*
X199884885Y-134887795D01*
X199886451Y-134857159D01*
X199884886Y-134809383D01*
X199882369Y-134766811D01*
X199878863Y-134716646D01*
X199874217Y-134676358D01*
X199866348Y-134641756D01*
X199853173Y-134608648D01*
X199832611Y-134572843D01*
X199802578Y-134530149D01*
X199760991Y-134476374D01*
X199705767Y-134407327D01*
X199700478Y-134400744D01*
X199668793Y-134362556D01*
X199644581Y-134333072D01*
X199629060Y-134309175D01*
X199623445Y-134287746D01*
X199628952Y-134265667D01*
X199646798Y-134239818D01*
X199678198Y-134207081D01*
X199724368Y-134164338D01*
X199786525Y-134108471D01*
X199829648Y-134069490D01*
X200005946Y-133909215D01*
X199900883Y-133810707D01*
X199858446Y-133771541D01*
X199822790Y-133739801D01*
X199797922Y-133718976D01*
X199788084Y-133712448D01*
X199778540Y-133722630D01*
X199758898Y-133749920D01*
X199732327Y-133789764D01*
X199710966Y-133823224D01*
X199651908Y-133906294D01*
X199577258Y-133994610D01*
X199493686Y-134081183D01*
X199407860Y-134159026D01*
X199340314Y-134211560D01*
X199270594Y-134255960D01*
X199187176Y-134301371D01*
X199098621Y-134343697D01*
X199013488Y-134378837D01*
X198942150Y-134402214D01*
X198856402Y-134420799D01*
X198759572Y-134434921D01*
X198661518Y-134443588D01*
X198572103Y-134445808D01*
X198528867Y-134443816D01*
X198376972Y-134418813D01*
X198230418Y-134370030D01*
X198091297Y-134298877D01*
X197961702Y-134206765D01*
X197843724Y-134095106D01*
X197739454Y-133965309D01*
X197679483Y-133870950D01*
X197650210Y-133820150D01*
X197685446Y-133864600D01*
X197728444Y-133914400D01*
X197783761Y-133972071D01*
X197845775Y-134032340D01*
X197908862Y-134089931D01*
X197967399Y-134139569D01*
X198015763Y-134175981D01*
X198021400Y-134179721D01*
X198147824Y-134248651D01*
X198280971Y-134296911D01*
X198417051Y-134323852D01*
X198552274Y-134328823D01*
X198682851Y-134311173D01*
X198723955Y-134300369D01*
X198803725Y-134271860D01*
X198893993Y-134231771D01*
X198985584Y-134184592D01*
X199069325Y-134134812D01*
X199089337Y-134121550D01*
X199157796Y-134071689D01*
X199219117Y-134019145D01*
X199276341Y-133960288D01*
X199332512Y-133891490D01*
X199390670Y-133809122D01*
X199453859Y-133709556D01*
X199501154Y-133630344D01*
X199575200Y-133504039D01*
X199455525Y-133392936D01*
X199410749Y-133352694D01*
X199373051Y-133321325D01*
X199345951Y-133301572D01*
X199332967Y-133296175D01*
X199332388Y-133296991D01*
X199329936Y-133314795D01*
X199325714Y-133352592D01*
X199320284Y-133405084D01*
X199314212Y-133466971D01*
X199313338Y-133476129D01*
X199297750Y-133640109D01*
X199093948Y-133443576D01*
X199024935Y-133377500D01*
X198970894Y-133327121D01*
X198928920Y-133290089D01*
X198896107Y-133264058D01*
X198869550Y-133246680D01*
X198846343Y-133235608D01*
X198829751Y-133230132D01*
X198784100Y-133222084D01*
X198727559Y-133218868D01*
X198667141Y-133220064D01*
X198609857Y-133225253D01*
X198562719Y-133234016D01*
X198532737Y-133245934D01*
X198530069Y-133248043D01*
X198509436Y-133260646D01*
X198488959Y-133253093D01*
X198485856Y-133250883D01*
X198468131Y-133226751D01*
X198470941Y-133202377D01*
X198491741Y-133186520D01*
X198505151Y-133184509D01*
X198535008Y-133179155D01*
X198575243Y-133166243D01*
X198617479Y-133149207D01*
X198653340Y-133131477D01*
X198674451Y-133116486D01*
X198675921Y-133114536D01*
X198681294Y-133084468D01*
X198661513Y-133052683D01*
X198616754Y-133019400D01*
X198590154Y-133004828D01*
X198546867Y-132983441D01*
X198510190Y-132966466D01*
X198488125Y-132957602D01*
X198469911Y-132941337D01*
X198467380Y-132914868D01*
X198481140Y-132889239D01*
X198506798Y-132874845D01*
X198527716Y-132883471D01*
X198535285Y-132897935D01*
X198550965Y-132915818D01*
X198587654Y-132932069D01*
X198621866Y-132941859D01*
X198665206Y-132952226D01*
X198691495Y-132955600D01*
X198708190Y-132951658D01*
X198722749Y-132940075D01*
X198725523Y-132937347D01*
X198742271Y-132905710D01*
X198748718Y-132861250D01*
X198745215Y-132814065D01*
X198732112Y-132774249D01*
X198719287Y-132757664D01*
X198697269Y-132728124D01*
X198699407Y-132699306D01*
X198708270Y-132687509D01*
X198730803Y-132678544D01*
X198755280Y-132684461D01*
X198769943Y-132701549D01*
X198770698Y-132707206D01*
X198775561Y-132728947D01*
X198788284Y-132765628D01*
X198805274Y-132807325D01*
X198825313Y-132850297D01*
X198841211Y-132874435D01*
X198857327Y-132884838D01*
X198873115Y-132886700D01*
X198892407Y-132884006D01*
X198906029Y-132872183D01*
X198918163Y-132845615D01*
X198929165Y-132811438D01*
X198940289Y-132766956D01*
X198945745Y-132728878D01*
X198945022Y-132709672D01*
X198947827Y-132682694D01*
X198966511Y-132666385D01*
X198992304Y-132665270D01*
X199010058Y-132676115D01*
X199023503Y-132696616D01*
X199016508Y-132719045D01*
X199014926Y-132721632D01*
X199006985Y-132748301D01*
X199001677Y-132796609D01*
X198999369Y-132862894D01*
X198999300Y-132878131D01*
X198999300Y-133009608D01*
X199097458Y-133145758D01*
X199133263Y-133195889D01*
X199160070Y-133231877D01*
X199179623Y-133252241D01*
X199193662Y-133255498D01*
X199203930Y-133240168D01*
X199212169Y-133204767D01*
X199220120Y-133147814D01*
X199229526Y-133067826D01*
X199234023Y-133029575D01*
X199242427Y-132962901D01*
X199250476Y-132906172D01*
X199257487Y-132863697D01*
X199262776Y-132839783D01*
X199264708Y-132836104D01*
X199276028Y-132844297D01*
X199303170Y-132867038D01*
X199343184Y-132901761D01*
X199393122Y-132945903D01*
X199450035Y-132996897D01*
X199461815Y-133007530D01*
X199519385Y-133059288D01*
X199570192Y-133104453D01*
X199611381Y-133140530D01*
X199640097Y-133165023D01*
X199653485Y-133175436D01*
X199654083Y-133175601D01*
X199654331Y-133162505D01*
X199653091Y-133128703D01*
X199650581Y-133078832D01*
X199647018Y-133017527D01*
X199645589Y-132994650D01*
X199642029Y-132926195D01*
X199640622Y-132861160D01*
X199641542Y-132793824D01*
X199644965Y-132718471D01*
X199651064Y-132629382D01*
X199660016Y-132520839D01*
X199660101Y-132519862D01*
X199667220Y-132435940D01*
X199673255Y-132360878D01*
X199677948Y-132298233D01*
X199681040Y-132251560D01*
X199682273Y-132224417D01*
X199681988Y-132218954D01*
X199670089Y-132223274D01*
X199640466Y-132237906D01*
X199597473Y-132260606D01*
X199545465Y-132289130D01*
X199540917Y-132291667D01*
X199488449Y-132320523D01*
X199444725Y-132343695D01*
X199414069Y-132358956D01*
X199400803Y-132364078D01*
X199400616Y-132363975D01*
X199380327Y-132338222D01*
X199348400Y-132300131D01*
X199308149Y-132253416D01*
X199262886Y-132201791D01*
X199215926Y-132148970D01*
X199170580Y-132098667D01*
X199130163Y-132054596D01*
X199097988Y-132020470D01*
X199077367Y-132000004D01*
X199072372Y-131996026D01*
X199029066Y-131976180D01*
X198978672Y-131958003D01*
X198928080Y-131943384D01*
X198884179Y-131934210D01*
X198853857Y-131932370D01*
X198846858Y-131934222D01*
X198821879Y-131936383D01*
X198803010Y-131921098D01*
X198798677Y-131896218D01*
X198800276Y-131890834D01*
X198809239Y-131881451D01*
X198830184Y-131877194D01*
X198868167Y-131877504D01*
X198901374Y-131879660D01*
X198949577Y-131882864D01*
X198978295Y-131882548D01*
X198993347Y-131877407D01*
X199000553Y-131866136D01*
X199003294Y-131856797D01*
X199004213Y-131828641D01*
X198990785Y-131797205D01*
X198960631Y-131758287D01*
X198928306Y-131724352D01*
X198899490Y-131688940D01*
X198890746Y-131661914D01*
X198902240Y-131645707D01*
X198922701Y-131642100D01*
X198944406Y-131650952D01*
X198948522Y-131664325D01*
X198959272Y-131685368D01*
X198986191Y-131709479D01*
X199021337Y-131731735D01*
X199056765Y-131747215D01*
X199084536Y-131751000D01*
X199087327Y-131750326D01*
X199107459Y-131732677D01*
X199124788Y-131699074D01*
X199136375Y-131658960D01*
X199139278Y-131621780D01*
X199133775Y-131601141D01*
X199127760Y-131576657D01*
X199135289Y-131564530D01*
X199158176Y-131554958D01*
X199178915Y-131564782D01*
X199188483Y-131588944D01*
X199188337Y-131594273D01*
X199187253Y-131623843D01*
X199187328Y-131666178D01*
X199187824Y-131688243D01*
X199190924Y-131728675D01*
X199198669Y-131750301D01*
X199213455Y-131759617D01*
X199214233Y-131759826D01*
X199236788Y-131754149D01*
X199264993Y-131731866D01*
X199293127Y-131699085D01*
X199315466Y-131661913D01*
X199322435Y-131644350D01*
X199337931Y-131621779D01*
X199359036Y-131619134D01*
X199382453Y-131630634D01*
X199390321Y-131650096D01*
X199380543Y-131668056D01*
X199370930Y-131672792D01*
X199356385Y-131687956D01*
X199338517Y-131721496D01*
X199319629Y-131767017D01*
X199302025Y-131818127D01*
X199288009Y-131868432D01*
X199279885Y-131911538D01*
X199278752Y-131928606D01*
X199286653Y-131960520D01*
X199309229Y-132008604D01*
X199344888Y-132069517D01*
X199349230Y-132076371D01*
X199419655Y-132186792D01*
X199555552Y-132115703D01*
X199609038Y-132087472D01*
X199654262Y-132063129D01*
X199686464Y-132045270D01*
X199700881Y-132036489D01*
X199700889Y-132036482D01*
X199703779Y-132021248D01*
X199704334Y-131986246D01*
X199702605Y-131936997D01*
X199699511Y-131889748D01*
X199695100Y-131825974D01*
X199693905Y-131781072D01*
X199696347Y-131748671D01*
X199702844Y-131722398D01*
X199712018Y-131699798D01*
X199726996Y-131657579D01*
X199735144Y-131616687D01*
X199735621Y-131608106D01*
X199741970Y-131574906D01*
X199755930Y-131563656D01*
X199769269Y-131550905D01*
X199789877Y-131519243D01*
X199815088Y-131473136D01*
X199838016Y-131426200D01*
X199876707Y-131348369D01*
X199910056Y-131295000D01*
X199939690Y-131266130D01*
X199967235Y-131261795D01*
X199994318Y-131282032D01*
D13*
X206995000Y-62945000D03*
X130995000Y-58445000D03*
X206995000Y-101445000D03*
X130995000Y-98945000D03*
X103995000Y-120445000D03*
D14*
X102471000Y-105713000D03*
X103741000Y-102665000D03*
X100947000Y-102665000D03*
X105265000Y-105713000D03*
X99677000Y-105713000D03*
M02*
