%FSLAX45Y45*%
G04 Gerber Fmt 4.5, Leading zero omitted, Abs format (unit mm)*
G04 Created by KiCad (PCBNEW (5.1.12-1-10_14)) date 2021-12-25 11:36:44*
%MOMM*%
%LPD*%
G01*
G04 APERTURE LIST*
%TA.AperFunction,Profile*%
%ADD10C,0.150000*%
%TD*%
%TA.AperFunction,Profile*%
%ADD11C,0.100000*%
%TD*%
%ADD12C,0.200000*%
%ADD13C,0.300000*%
G04 APERTURE END LIST*
D10*
X22368600Y-12304900D02*
X22368600Y-13704900D01*
D11*
X20710530Y-13970482D02*
X18849500Y-13544500D01*
D10*
X22368600Y-13704900D02*
X20968600Y-13704900D01*
X20968600Y-12304900D02*
X22368600Y-12304900D01*
X20968600Y-13704900D02*
X20968600Y-12304900D01*
D11*
X22643818Y-4602690D02*
X22643980Y-13913597D01*
X22643980Y-13913597D02*
G75*
G02*
X22586574Y-13970482I-56898J11D01*
G01*
X22586574Y-13970482D02*
X20710530Y-13970482D01*
D10*
X11299500Y-3800000D02*
X11339500Y-3790000D01*
X11269500Y-3810000D02*
X11299500Y-3800000D01*
X11249500Y-3820000D02*
X11269500Y-3810000D01*
X11229500Y-3840000D02*
X11249500Y-3820000D01*
X11209500Y-3870000D02*
X11229500Y-3840000D01*
X11199500Y-3904500D02*
X11209500Y-3870000D01*
X11199500Y-9680000D02*
G75*
G02*
X11099500Y-9780000I-100000J0D01*
G01*
X8930000Y-9880000D02*
G75*
G02*
X9030000Y-9780000I100000J0D01*
G01*
X8814282Y-13228282D02*
X10026718Y-12528282D01*
X9514282Y-14440718D02*
X8814282Y-13228282D01*
X10026718Y-12528282D02*
X10726718Y-13740718D01*
X10726718Y-13740718D02*
X9514282Y-14440718D01*
X11364525Y-13841821D02*
X11002179Y-12489525D01*
X12716821Y-13479475D02*
X11364525Y-13841821D01*
X11002179Y-12489525D02*
X12354475Y-12127179D01*
X12354475Y-12127179D02*
X12716821Y-13479475D01*
X22369500Y-4684500D02*
X22369500Y-6084500D01*
X20969500Y-4684500D02*
X22369500Y-4684500D01*
X22369500Y-6084500D02*
X20969500Y-6084500D01*
X20969500Y-6084500D02*
X20969500Y-4684500D01*
X22369500Y-6574500D02*
X22369500Y-7974500D01*
X20969500Y-6574500D02*
X22369500Y-6574500D01*
X22369500Y-7974500D02*
X20969500Y-7974500D01*
X20969500Y-7974500D02*
X20969500Y-6574500D01*
X22369500Y-8494500D02*
X22369500Y-9894500D01*
X20969500Y-8494500D02*
X22369500Y-8494500D01*
X22369500Y-9894500D02*
X20969500Y-9894500D01*
X20969500Y-9894500D02*
X20969500Y-8494500D01*
X22374500Y-10394500D02*
X22374500Y-11794500D01*
X20974500Y-10394500D02*
X22374500Y-10394500D01*
X22374500Y-11794500D02*
X20974500Y-11794500D01*
X20974500Y-11794500D02*
X20974500Y-10394500D01*
X20469500Y-10394500D02*
X20469500Y-11794500D01*
X19069500Y-10394500D02*
X20469500Y-10394500D01*
X20469500Y-11794500D02*
X19069500Y-11794500D01*
X19069500Y-11794500D02*
X19069500Y-10394500D01*
X20469500Y-8494500D02*
X20469500Y-9894500D01*
X19069500Y-8494500D02*
X20469500Y-8494500D01*
X20469500Y-9894500D02*
X19069500Y-9894500D01*
X19069500Y-9894500D02*
X19069500Y-8494500D01*
X20469500Y-6574500D02*
X20469500Y-7974500D01*
X19069500Y-6574500D02*
X20469500Y-6574500D01*
X20469500Y-7974500D02*
X19069500Y-7974500D01*
X19069500Y-7974500D02*
X19069500Y-6574500D01*
X20469500Y-4684500D02*
X20469500Y-6084500D01*
X19069500Y-4684500D02*
X20469500Y-4684500D01*
X20469500Y-6084500D02*
X19069500Y-6084500D01*
X19069500Y-6084500D02*
X19069500Y-4684500D01*
X18559500Y-9914500D02*
X18559500Y-11314500D01*
X17159500Y-9914500D02*
X18559500Y-9914500D01*
X18559500Y-11314500D02*
X17159500Y-11314500D01*
X17159500Y-11314500D02*
X17159500Y-9914500D01*
X18559500Y-8004500D02*
X18559500Y-9404500D01*
X17159500Y-8004500D02*
X18559500Y-8004500D01*
X18559500Y-9404500D02*
X17159500Y-9404500D01*
X17159500Y-9404500D02*
X17159500Y-8004500D01*
X18559500Y-6098500D02*
X18559500Y-7498500D01*
X17159500Y-6098500D02*
X18559500Y-6098500D01*
X18559500Y-7498500D02*
X17159500Y-7498500D01*
X17159500Y-7498500D02*
X17159500Y-6098500D01*
X18559500Y-4198500D02*
X18559500Y-5598500D01*
X17159500Y-4198500D02*
X18559500Y-4198500D01*
X18559500Y-5598500D02*
X17159500Y-5598500D01*
X17159500Y-5598500D02*
X17159500Y-4198500D01*
X16659500Y-11573500D02*
X16659500Y-12973500D01*
X15259500Y-11573500D02*
X16659500Y-11573500D01*
X16659500Y-12973500D02*
X15259500Y-12973500D01*
X15259500Y-12973500D02*
X15259500Y-11573500D01*
X16659500Y-9663500D02*
X16659500Y-11063500D01*
X15259500Y-9663500D02*
X16659500Y-9663500D01*
X16659500Y-11063500D02*
X15259500Y-11063500D01*
X15259500Y-11063500D02*
X15259500Y-9663500D01*
X16659500Y-7763500D02*
X16659500Y-9163500D01*
X15259500Y-7763500D02*
X16659500Y-7763500D01*
X16659500Y-9163500D02*
X15259500Y-9163500D01*
X15259500Y-9163500D02*
X15259500Y-7763500D01*
X16659500Y-5853500D02*
X16659500Y-7253500D01*
X15259500Y-5853500D02*
X16659500Y-5853500D01*
X16659500Y-7253500D02*
X15259500Y-7253500D01*
X15259500Y-7253500D02*
X15259500Y-5853500D01*
X16659500Y-3944500D02*
X16659500Y-5344500D01*
X15259500Y-3944500D02*
X16659500Y-3944500D01*
X16659500Y-5344500D02*
X15259500Y-5344500D01*
X15259500Y-5344500D02*
X15259500Y-3944500D01*
X14749500Y-11814500D02*
X14749500Y-13214500D01*
X13349500Y-11814500D02*
X14749500Y-11814500D01*
X14749500Y-13214500D02*
X13349500Y-13214500D01*
X13349500Y-13214500D02*
X13349500Y-11814500D01*
X14749500Y-9914500D02*
X14749500Y-11314500D01*
X13349500Y-9914500D02*
X14749500Y-9914500D01*
X14749500Y-11314500D02*
X13349500Y-11314500D01*
X13349500Y-11314500D02*
X13349500Y-9914500D01*
X14749500Y-8004500D02*
X14749500Y-9404500D01*
X13349500Y-8004500D02*
X14749500Y-8004500D01*
X14749500Y-9404500D02*
X13349500Y-9404500D01*
X13349500Y-9404500D02*
X13349500Y-8004500D01*
X14749500Y-6104500D02*
X14749500Y-7504500D01*
X13349500Y-6104500D02*
X14749500Y-6104500D01*
X14749500Y-7504500D02*
X13349500Y-7504500D01*
X13349500Y-7504500D02*
X13349500Y-6104500D01*
X14749500Y-4194500D02*
X14749500Y-5594500D01*
X13349500Y-4194500D02*
X14749500Y-4194500D01*
X14749500Y-5594500D02*
X13349500Y-5594500D01*
X13349500Y-5594500D02*
X13349500Y-4194500D01*
X12849500Y-10154500D02*
X12849500Y-11554500D01*
X11449500Y-10154500D02*
X12849500Y-10154500D01*
X12849500Y-11554500D02*
X11449500Y-11554500D01*
X11449500Y-11554500D02*
X11449500Y-10154500D01*
X12849500Y-8254500D02*
X12849500Y-9654500D01*
X11449500Y-8254500D02*
X12849500Y-8254500D01*
X12849500Y-9654500D02*
X11449500Y-9654500D01*
X11449500Y-9654500D02*
X11449500Y-8254500D01*
X12849500Y-6354500D02*
X12849500Y-7754500D01*
X11449500Y-6354500D02*
X12849500Y-6354500D01*
X12849500Y-7754500D02*
X11449500Y-7754500D01*
X11449500Y-7754500D02*
X11449500Y-6354500D01*
X12849500Y-4444500D02*
X12849500Y-5844500D01*
X11449500Y-4444500D02*
X12849500Y-4444500D01*
X12849500Y-5844500D02*
X11449500Y-5844500D01*
X11449500Y-5844500D02*
X11449500Y-4444500D01*
X11199500Y-9680000D02*
X11199500Y-3904500D01*
X9030000Y-9780000D02*
X11099500Y-9780000D01*
D11*
X22585687Y-4502647D02*
X22602162Y-4514060D01*
X8927026Y-11584500D02*
X8930000Y-9880000D01*
X22616332Y-4528058D02*
X22627888Y-4544281D01*
X14999500Y-3644500D02*
X17194500Y-3644500D01*
X22602162Y-4514060D02*
X22616332Y-4528058D01*
X13914913Y-13544500D02*
X9489500Y-14819500D01*
X8309500Y-12834500D02*
X8319500Y-12784500D01*
X8329500Y-12984500D02*
X8314500Y-12934500D01*
X13914913Y-13544500D02*
X18849500Y-13544500D01*
X14999500Y-3644500D02*
X11339500Y-3790000D01*
X22636528Y-4562367D02*
X22641938Y-4581957D01*
X8319500Y-12784500D02*
X8899500Y-11709500D01*
X22641938Y-4581957D02*
X22643818Y-4602690D01*
X22547044Y-4489015D02*
X22567211Y-4494178D01*
X9354500Y-14764500D02*
X9389500Y-14794500D01*
X8309500Y-12874500D02*
X8309500Y-12834500D01*
X8919500Y-11649500D02*
X8899500Y-11709500D01*
X22567211Y-4494178D02*
X22585687Y-4502647D01*
X9389500Y-14794500D02*
X9434500Y-14809500D01*
X8314500Y-12934500D02*
X8309500Y-12874500D01*
X9434500Y-14809500D02*
X9489500Y-14819500D01*
X8927026Y-11584500D02*
X8919500Y-11649500D01*
X17194500Y-3644500D02*
X22547044Y-4489015D01*
X9354500Y-14764500D02*
X8329500Y-12984500D01*
X22627888Y-4544281D02*
X22636528Y-4562367D01*
D12*
X9312499Y-10003150D02*
X9388699Y-10079350D01*
X9388699Y-10003150D02*
X9312499Y-10079350D01*
X9512499Y-10003150D02*
X9588699Y-10079350D01*
X9588699Y-10003150D02*
X9512499Y-10079350D01*
X8921318Y-12911800D02*
G75*
G03*
X8921318Y-12911800I-50000J0D01*
G01*
X9141289Y-12784800D02*
G75*
G03*
X9141289Y-12784800I-50000J0D01*
G01*
X9361259Y-12657800D02*
G75*
G03*
X9361259Y-12657800I-50000J0D01*
G01*
X9565599Y-10341250D02*
G75*
G03*
X9565599Y-10341250I-50000J0D01*
G01*
X9565599Y-10595250D02*
G75*
G03*
X9565599Y-10595250I-50000J0D01*
G01*
X9565599Y-10849250D02*
G75*
G03*
X9565599Y-10849250I-50000J0D01*
G01*
X9565599Y-11103250D02*
G75*
G03*
X9565599Y-11103250I-50000J0D01*
G01*
X9581230Y-12530800D02*
G75*
G03*
X9581230Y-12530800I-50000J0D01*
G01*
X9801200Y-12403800D02*
G75*
G03*
X9801200Y-12403800I-50000J0D01*
G01*
X10399500Y-11934500D02*
X10399500Y-12154500D01*
X10289500Y-12044500D02*
X10509500Y-12044500D01*
X13099500Y-5734500D02*
X13099500Y-5954500D01*
X12989500Y-5844500D02*
X13209500Y-5844500D01*
X13099500Y-9784500D02*
X13099500Y-10004500D01*
X12989500Y-9894500D02*
X13209500Y-9894500D01*
X20699500Y-6184500D02*
X20699500Y-6404500D01*
X20589500Y-6294500D02*
X20809500Y-6294500D01*
X20699500Y-10034500D02*
X20699500Y-10254500D01*
X20589500Y-10144500D02*
X20809500Y-10144500D01*
D13*
X8590928Y-15290214D02*
X8590928Y-14990214D01*
X8662357Y-14990214D01*
X8705214Y-15004500D01*
X8733786Y-15033071D01*
X8748071Y-15061643D01*
X8762357Y-15118786D01*
X8762357Y-15161643D01*
X8748071Y-15218786D01*
X8733786Y-15247357D01*
X8705214Y-15275929D01*
X8662357Y-15290214D01*
X8590928Y-15290214D01*
X8890928Y-15290214D02*
X8890928Y-15090214D01*
X8890928Y-15147357D02*
X8905214Y-15118786D01*
X8919500Y-15104500D01*
X8948071Y-15090214D01*
X8976643Y-15090214D01*
X9076643Y-15290214D02*
X9076643Y-15090214D01*
X9076643Y-14990214D02*
X9062357Y-15004500D01*
X9076643Y-15018786D01*
X9090928Y-15004500D01*
X9076643Y-14990214D01*
X9076643Y-15018786D01*
X9262357Y-15290214D02*
X9233786Y-15275929D01*
X9219500Y-15247357D01*
X9219500Y-14990214D01*
X9419500Y-15290214D02*
X9390928Y-15275929D01*
X9376643Y-15247357D01*
X9376643Y-14990214D01*
X9762357Y-15290214D02*
X9762357Y-14990214D01*
X9862357Y-15204500D01*
X9962357Y-14990214D01*
X9962357Y-15290214D01*
X10233786Y-15290214D02*
X10233786Y-15133071D01*
X10219500Y-15104500D01*
X10190928Y-15090214D01*
X10133786Y-15090214D01*
X10105214Y-15104500D01*
X10233786Y-15275929D02*
X10205214Y-15290214D01*
X10133786Y-15290214D01*
X10105214Y-15275929D01*
X10090928Y-15247357D01*
X10090928Y-15218786D01*
X10105214Y-15190214D01*
X10133786Y-15175929D01*
X10205214Y-15175929D01*
X10233786Y-15161643D01*
X10376643Y-15090214D02*
X10376643Y-15390214D01*
X10376643Y-15104500D02*
X10405214Y-15090214D01*
X10462357Y-15090214D01*
X10490928Y-15104500D01*
X10505214Y-15118786D01*
X10519500Y-15147357D01*
X10519500Y-15233071D01*
X10505214Y-15261643D01*
X10490928Y-15275929D01*
X10462357Y-15290214D01*
X10405214Y-15290214D01*
X10376643Y-15275929D01*
X10648071Y-15261643D02*
X10662357Y-15275929D01*
X10648071Y-15290214D01*
X10633786Y-15275929D01*
X10648071Y-15261643D01*
X10648071Y-15290214D01*
X10648071Y-15104500D02*
X10662357Y-15118786D01*
X10648071Y-15133071D01*
X10633786Y-15118786D01*
X10648071Y-15104500D01*
X10648071Y-15133071D01*
X8228300Y-15746400D02*
X8304500Y-15822600D01*
X8304500Y-15746400D02*
X8228300Y-15822600D01*
X8648071Y-15620214D02*
X8676643Y-15620214D01*
X8705214Y-15634500D01*
X8719500Y-15648786D01*
X8733786Y-15677357D01*
X8748071Y-15734500D01*
X8748071Y-15805929D01*
X8733786Y-15863071D01*
X8719500Y-15891643D01*
X8705214Y-15905929D01*
X8676643Y-15920214D01*
X8648071Y-15920214D01*
X8619500Y-15905929D01*
X8605214Y-15891643D01*
X8590928Y-15863071D01*
X8576643Y-15805929D01*
X8576643Y-15734500D01*
X8590928Y-15677357D01*
X8605214Y-15648786D01*
X8619500Y-15634500D01*
X8648071Y-15620214D01*
X8876643Y-15891643D02*
X8890928Y-15905929D01*
X8876643Y-15920214D01*
X8862357Y-15905929D01*
X8876643Y-15891643D01*
X8876643Y-15920214D01*
X8990928Y-15620214D02*
X9190928Y-15620214D01*
X9062357Y-15920214D01*
X9433786Y-15620214D02*
X9376643Y-15620214D01*
X9348071Y-15634500D01*
X9333786Y-15648786D01*
X9305214Y-15691643D01*
X9290928Y-15748786D01*
X9290928Y-15863071D01*
X9305214Y-15891643D01*
X9319500Y-15905929D01*
X9348071Y-15920214D01*
X9405214Y-15920214D01*
X9433786Y-15905929D01*
X9448071Y-15891643D01*
X9462357Y-15863071D01*
X9462357Y-15791643D01*
X9448071Y-15763071D01*
X9433786Y-15748786D01*
X9405214Y-15734500D01*
X9348071Y-15734500D01*
X9319500Y-15748786D01*
X9305214Y-15763071D01*
X9290928Y-15791643D01*
X9576643Y-15648786D02*
X9590928Y-15634500D01*
X9619500Y-15620214D01*
X9690928Y-15620214D01*
X9719500Y-15634500D01*
X9733786Y-15648786D01*
X9748071Y-15677357D01*
X9748071Y-15705929D01*
X9733786Y-15748786D01*
X9562357Y-15920214D01*
X9748071Y-15920214D01*
X9876643Y-15920214D02*
X9876643Y-15720214D01*
X9876643Y-15748786D02*
X9890928Y-15734500D01*
X9919500Y-15720214D01*
X9962357Y-15720214D01*
X9990928Y-15734500D01*
X10005214Y-15763071D01*
X10005214Y-15920214D01*
X10005214Y-15763071D02*
X10019500Y-15734500D01*
X10048071Y-15720214D01*
X10090928Y-15720214D01*
X10119500Y-15734500D01*
X10133786Y-15763071D01*
X10133786Y-15920214D01*
X10276643Y-15920214D02*
X10276643Y-15720214D01*
X10276643Y-15748786D02*
X10290928Y-15734500D01*
X10319500Y-15720214D01*
X10362357Y-15720214D01*
X10390928Y-15734500D01*
X10405214Y-15763071D01*
X10405214Y-15920214D01*
X10405214Y-15763071D02*
X10419500Y-15734500D01*
X10448071Y-15720214D01*
X10490928Y-15720214D01*
X10519500Y-15734500D01*
X10533786Y-15763071D01*
X10533786Y-15920214D01*
X11119500Y-15605929D02*
X10862357Y-15991643D01*
X11505214Y-15620214D02*
X11533786Y-15620214D01*
X11562357Y-15634500D01*
X11576643Y-15648786D01*
X11590928Y-15677357D01*
X11605214Y-15734500D01*
X11605214Y-15805929D01*
X11590928Y-15863071D01*
X11576643Y-15891643D01*
X11562357Y-15905929D01*
X11533786Y-15920214D01*
X11505214Y-15920214D01*
X11476643Y-15905929D01*
X11462357Y-15891643D01*
X11448071Y-15863071D01*
X11433786Y-15805929D01*
X11433786Y-15734500D01*
X11448071Y-15677357D01*
X11462357Y-15648786D01*
X11476643Y-15634500D01*
X11505214Y-15620214D01*
X11733786Y-15891643D02*
X11748071Y-15905929D01*
X11733786Y-15920214D01*
X11719500Y-15905929D01*
X11733786Y-15891643D01*
X11733786Y-15920214D01*
X11933786Y-15620214D02*
X11962357Y-15620214D01*
X11990928Y-15634500D01*
X12005214Y-15648786D01*
X12019500Y-15677357D01*
X12033786Y-15734500D01*
X12033786Y-15805929D01*
X12019500Y-15863071D01*
X12005214Y-15891643D01*
X11990928Y-15905929D01*
X11962357Y-15920214D01*
X11933786Y-15920214D01*
X11905214Y-15905929D01*
X11890928Y-15891643D01*
X11876643Y-15863071D01*
X11862357Y-15805929D01*
X11862357Y-15734500D01*
X11876643Y-15677357D01*
X11890928Y-15648786D01*
X11905214Y-15634500D01*
X11933786Y-15620214D01*
X12133786Y-15620214D02*
X12319500Y-15620214D01*
X12219500Y-15734500D01*
X12262357Y-15734500D01*
X12290928Y-15748786D01*
X12305214Y-15763071D01*
X12319500Y-15791643D01*
X12319500Y-15863071D01*
X12305214Y-15891643D01*
X12290928Y-15905929D01*
X12262357Y-15920214D01*
X12176643Y-15920214D01*
X12148071Y-15905929D01*
X12133786Y-15891643D01*
X12505214Y-15620214D02*
X12533786Y-15620214D01*
X12562357Y-15634500D01*
X12576643Y-15648786D01*
X12590928Y-15677357D01*
X12605214Y-15734500D01*
X12605214Y-15805929D01*
X12590928Y-15863071D01*
X12576643Y-15891643D01*
X12562357Y-15905929D01*
X12533786Y-15920214D01*
X12505214Y-15920214D01*
X12476643Y-15905929D01*
X12462357Y-15891643D01*
X12448071Y-15863071D01*
X12433786Y-15805929D01*
X12433786Y-15734500D01*
X12448071Y-15677357D01*
X12462357Y-15648786D01*
X12476643Y-15634500D01*
X12505214Y-15620214D01*
X12790928Y-15620214D02*
X12819500Y-15620214D01*
X12848071Y-15634500D01*
X12862357Y-15648786D01*
X12876643Y-15677357D01*
X12890928Y-15734500D01*
X12890928Y-15805929D01*
X12876643Y-15863071D01*
X12862357Y-15891643D01*
X12848071Y-15905929D01*
X12819500Y-15920214D01*
X12790928Y-15920214D01*
X12762357Y-15905929D01*
X12748071Y-15891643D01*
X12733786Y-15863071D01*
X12719500Y-15805929D01*
X12719500Y-15734500D01*
X12733786Y-15677357D01*
X12748071Y-15648786D01*
X12762357Y-15634500D01*
X12790928Y-15620214D01*
X13005214Y-15620214D02*
X13005214Y-15677357D01*
X13119500Y-15620214D02*
X13119500Y-15677357D01*
X13562357Y-16034500D02*
X13548071Y-16020214D01*
X13519500Y-15977357D01*
X13505214Y-15948786D01*
X13490928Y-15905929D01*
X13476643Y-15834500D01*
X13476643Y-15777357D01*
X13490928Y-15705929D01*
X13505214Y-15663071D01*
X13519500Y-15634500D01*
X13548071Y-15591643D01*
X13562357Y-15577357D01*
X13662357Y-15648786D02*
X13676643Y-15634500D01*
X13705214Y-15620214D01*
X13776643Y-15620214D01*
X13805214Y-15634500D01*
X13819500Y-15648786D01*
X13833786Y-15677357D01*
X13833786Y-15705929D01*
X13819500Y-15748786D01*
X13648071Y-15920214D01*
X13833786Y-15920214D01*
X14190928Y-15920214D02*
X14190928Y-15620214D01*
X14319500Y-15920214D02*
X14319500Y-15763071D01*
X14305214Y-15734500D01*
X14276643Y-15720214D01*
X14233786Y-15720214D01*
X14205214Y-15734500D01*
X14190928Y-15748786D01*
X14505214Y-15920214D02*
X14476643Y-15905929D01*
X14462357Y-15891643D01*
X14448071Y-15863071D01*
X14448071Y-15777357D01*
X14462357Y-15748786D01*
X14476643Y-15734500D01*
X14505214Y-15720214D01*
X14548071Y-15720214D01*
X14576643Y-15734500D01*
X14590928Y-15748786D01*
X14605214Y-15777357D01*
X14605214Y-15863071D01*
X14590928Y-15891643D01*
X14576643Y-15905929D01*
X14548071Y-15920214D01*
X14505214Y-15920214D01*
X14776643Y-15920214D02*
X14748071Y-15905929D01*
X14733786Y-15877357D01*
X14733786Y-15620214D01*
X15005214Y-15905929D02*
X14976643Y-15920214D01*
X14919500Y-15920214D01*
X14890928Y-15905929D01*
X14876643Y-15877357D01*
X14876643Y-15763071D01*
X14890928Y-15734500D01*
X14919500Y-15720214D01*
X14976643Y-15720214D01*
X15005214Y-15734500D01*
X15019500Y-15763071D01*
X15019500Y-15791643D01*
X14876643Y-15820214D01*
X15133786Y-15905929D02*
X15162357Y-15920214D01*
X15219500Y-15920214D01*
X15248071Y-15905929D01*
X15262357Y-15877357D01*
X15262357Y-15863071D01*
X15248071Y-15834500D01*
X15219500Y-15820214D01*
X15176643Y-15820214D01*
X15148071Y-15805929D01*
X15133786Y-15777357D01*
X15133786Y-15763071D01*
X15148071Y-15734500D01*
X15176643Y-15720214D01*
X15219500Y-15720214D01*
X15248071Y-15734500D01*
X15362357Y-16034500D02*
X15376643Y-16020214D01*
X15405214Y-15977357D01*
X15419500Y-15948786D01*
X15433786Y-15905929D01*
X15448071Y-15834500D01*
X15448071Y-15777357D01*
X15433786Y-15705929D01*
X15419500Y-15663071D01*
X15405214Y-15634500D01*
X15376643Y-15591643D01*
X15362357Y-15577357D01*
X8304500Y-16180500D02*
G75*
G03*
X8304500Y-16180500I-50000J0D01*
G01*
X8748071Y-16316214D02*
X8576643Y-16316214D01*
X8662357Y-16316214D02*
X8662357Y-16016214D01*
X8633786Y-16059071D01*
X8605214Y-16087643D01*
X8576643Y-16101929D01*
X8876643Y-16287643D02*
X8890928Y-16301929D01*
X8876643Y-16316214D01*
X8862357Y-16301929D01*
X8876643Y-16287643D01*
X8876643Y-16316214D01*
X9076643Y-16016214D02*
X9105214Y-16016214D01*
X9133786Y-16030500D01*
X9148071Y-16044786D01*
X9162357Y-16073357D01*
X9176643Y-16130500D01*
X9176643Y-16201929D01*
X9162357Y-16259071D01*
X9148071Y-16287643D01*
X9133786Y-16301929D01*
X9105214Y-16316214D01*
X9076643Y-16316214D01*
X9048071Y-16301929D01*
X9033786Y-16287643D01*
X9019500Y-16259071D01*
X9005214Y-16201929D01*
X9005214Y-16130500D01*
X9019500Y-16073357D01*
X9033786Y-16044786D01*
X9048071Y-16030500D01*
X9076643Y-16016214D01*
X9362357Y-16016214D02*
X9390928Y-16016214D01*
X9419500Y-16030500D01*
X9433786Y-16044786D01*
X9448071Y-16073357D01*
X9462357Y-16130500D01*
X9462357Y-16201929D01*
X9448071Y-16259071D01*
X9433786Y-16287643D01*
X9419500Y-16301929D01*
X9390928Y-16316214D01*
X9362357Y-16316214D01*
X9333786Y-16301929D01*
X9319500Y-16287643D01*
X9305214Y-16259071D01*
X9290928Y-16201929D01*
X9290928Y-16130500D01*
X9305214Y-16073357D01*
X9319500Y-16044786D01*
X9333786Y-16030500D01*
X9362357Y-16016214D01*
X9648071Y-16016214D02*
X9676643Y-16016214D01*
X9705214Y-16030500D01*
X9719500Y-16044786D01*
X9733786Y-16073357D01*
X9748071Y-16130500D01*
X9748071Y-16201929D01*
X9733786Y-16259071D01*
X9719500Y-16287643D01*
X9705214Y-16301929D01*
X9676643Y-16316214D01*
X9648071Y-16316214D01*
X9619500Y-16301929D01*
X9605214Y-16287643D01*
X9590928Y-16259071D01*
X9576643Y-16201929D01*
X9576643Y-16130500D01*
X9590928Y-16073357D01*
X9605214Y-16044786D01*
X9619500Y-16030500D01*
X9648071Y-16016214D01*
X9876643Y-16316214D02*
X9876643Y-16116214D01*
X9876643Y-16144786D02*
X9890928Y-16130500D01*
X9919500Y-16116214D01*
X9962357Y-16116214D01*
X9990928Y-16130500D01*
X10005214Y-16159071D01*
X10005214Y-16316214D01*
X10005214Y-16159071D02*
X10019500Y-16130500D01*
X10048071Y-16116214D01*
X10090928Y-16116214D01*
X10119500Y-16130500D01*
X10133786Y-16159071D01*
X10133786Y-16316214D01*
X10276643Y-16316214D02*
X10276643Y-16116214D01*
X10276643Y-16144786D02*
X10290928Y-16130500D01*
X10319500Y-16116214D01*
X10362357Y-16116214D01*
X10390928Y-16130500D01*
X10405214Y-16159071D01*
X10405214Y-16316214D01*
X10405214Y-16159071D02*
X10419500Y-16130500D01*
X10448071Y-16116214D01*
X10490928Y-16116214D01*
X10519500Y-16130500D01*
X10533786Y-16159071D01*
X10533786Y-16316214D01*
X11119500Y-16001929D02*
X10862357Y-16387643D01*
X11505214Y-16016214D02*
X11533786Y-16016214D01*
X11562357Y-16030500D01*
X11576643Y-16044786D01*
X11590928Y-16073357D01*
X11605214Y-16130500D01*
X11605214Y-16201929D01*
X11590928Y-16259071D01*
X11576643Y-16287643D01*
X11562357Y-16301929D01*
X11533786Y-16316214D01*
X11505214Y-16316214D01*
X11476643Y-16301929D01*
X11462357Y-16287643D01*
X11448071Y-16259071D01*
X11433786Y-16201929D01*
X11433786Y-16130500D01*
X11448071Y-16073357D01*
X11462357Y-16044786D01*
X11476643Y-16030500D01*
X11505214Y-16016214D01*
X11733786Y-16287643D02*
X11748071Y-16301929D01*
X11733786Y-16316214D01*
X11719500Y-16301929D01*
X11733786Y-16287643D01*
X11733786Y-16316214D01*
X11933786Y-16016214D02*
X11962357Y-16016214D01*
X11990928Y-16030500D01*
X12005214Y-16044786D01*
X12019500Y-16073357D01*
X12033786Y-16130500D01*
X12033786Y-16201929D01*
X12019500Y-16259071D01*
X12005214Y-16287643D01*
X11990928Y-16301929D01*
X11962357Y-16316214D01*
X11933786Y-16316214D01*
X11905214Y-16301929D01*
X11890928Y-16287643D01*
X11876643Y-16259071D01*
X11862357Y-16201929D01*
X11862357Y-16130500D01*
X11876643Y-16073357D01*
X11890928Y-16044786D01*
X11905214Y-16030500D01*
X11933786Y-16016214D01*
X12133786Y-16016214D02*
X12319500Y-16016214D01*
X12219500Y-16130500D01*
X12262357Y-16130500D01*
X12290928Y-16144786D01*
X12305214Y-16159071D01*
X12319500Y-16187643D01*
X12319500Y-16259071D01*
X12305214Y-16287643D01*
X12290928Y-16301929D01*
X12262357Y-16316214D01*
X12176643Y-16316214D01*
X12148071Y-16301929D01*
X12133786Y-16287643D01*
X12462357Y-16316214D02*
X12519500Y-16316214D01*
X12548071Y-16301929D01*
X12562357Y-16287643D01*
X12590928Y-16244786D01*
X12605214Y-16187643D01*
X12605214Y-16073357D01*
X12590928Y-16044786D01*
X12576643Y-16030500D01*
X12548071Y-16016214D01*
X12490928Y-16016214D01*
X12462357Y-16030500D01*
X12448071Y-16044786D01*
X12433786Y-16073357D01*
X12433786Y-16144786D01*
X12448071Y-16173357D01*
X12462357Y-16187643D01*
X12490928Y-16201929D01*
X12548071Y-16201929D01*
X12576643Y-16187643D01*
X12590928Y-16173357D01*
X12605214Y-16144786D01*
X12862357Y-16116214D02*
X12862357Y-16316214D01*
X12790928Y-16001929D02*
X12719500Y-16216214D01*
X12905214Y-16216214D01*
X13005214Y-16016214D02*
X13005214Y-16073357D01*
X13119500Y-16016214D02*
X13119500Y-16073357D01*
X13562357Y-16430500D02*
X13548071Y-16416214D01*
X13519500Y-16373357D01*
X13505214Y-16344786D01*
X13490928Y-16301929D01*
X13476643Y-16230500D01*
X13476643Y-16173357D01*
X13490928Y-16101929D01*
X13505214Y-16059071D01*
X13519500Y-16030500D01*
X13548071Y-15987643D01*
X13562357Y-15973357D01*
X13690928Y-16316214D02*
X13748071Y-16316214D01*
X13776643Y-16301929D01*
X13790928Y-16287643D01*
X13819500Y-16244786D01*
X13833786Y-16187643D01*
X13833786Y-16073357D01*
X13819500Y-16044786D01*
X13805214Y-16030500D01*
X13776643Y-16016214D01*
X13719500Y-16016214D01*
X13690928Y-16030500D01*
X13676643Y-16044786D01*
X13662357Y-16073357D01*
X13662357Y-16144786D01*
X13676643Y-16173357D01*
X13690928Y-16187643D01*
X13719500Y-16201929D01*
X13776643Y-16201929D01*
X13805214Y-16187643D01*
X13819500Y-16173357D01*
X13833786Y-16144786D01*
X14190928Y-16316214D02*
X14190928Y-16016214D01*
X14319500Y-16316214D02*
X14319500Y-16159071D01*
X14305214Y-16130500D01*
X14276643Y-16116214D01*
X14233786Y-16116214D01*
X14205214Y-16130500D01*
X14190928Y-16144786D01*
X14505214Y-16316214D02*
X14476643Y-16301929D01*
X14462357Y-16287643D01*
X14448071Y-16259071D01*
X14448071Y-16173357D01*
X14462357Y-16144786D01*
X14476643Y-16130500D01*
X14505214Y-16116214D01*
X14548071Y-16116214D01*
X14576643Y-16130500D01*
X14590928Y-16144786D01*
X14605214Y-16173357D01*
X14605214Y-16259071D01*
X14590928Y-16287643D01*
X14576643Y-16301929D01*
X14548071Y-16316214D01*
X14505214Y-16316214D01*
X14776643Y-16316214D02*
X14748071Y-16301929D01*
X14733786Y-16273357D01*
X14733786Y-16016214D01*
X15005214Y-16301929D02*
X14976643Y-16316214D01*
X14919500Y-16316214D01*
X14890928Y-16301929D01*
X14876643Y-16273357D01*
X14876643Y-16159071D01*
X14890928Y-16130500D01*
X14919500Y-16116214D01*
X14976643Y-16116214D01*
X15005214Y-16130500D01*
X15019500Y-16159071D01*
X15019500Y-16187643D01*
X14876643Y-16216214D01*
X15133786Y-16301929D02*
X15162357Y-16316214D01*
X15219500Y-16316214D01*
X15248071Y-16301929D01*
X15262357Y-16273357D01*
X15262357Y-16259071D01*
X15248071Y-16230500D01*
X15219500Y-16216214D01*
X15176643Y-16216214D01*
X15148071Y-16201929D01*
X15133786Y-16173357D01*
X15133786Y-16159071D01*
X15148071Y-16130500D01*
X15176643Y-16116214D01*
X15219500Y-16116214D01*
X15248071Y-16130500D01*
X15362357Y-16430500D02*
X15376643Y-16416214D01*
X15405214Y-16373357D01*
X15419500Y-16344786D01*
X15433786Y-16301929D01*
X15448071Y-16230500D01*
X15448071Y-16173357D01*
X15433786Y-16101929D01*
X15419500Y-16059071D01*
X15405214Y-16030500D01*
X15376643Y-15987643D01*
X15362357Y-15973357D01*
X8194500Y-16466500D02*
X8194500Y-16686500D01*
X8084500Y-16576500D02*
X8304500Y-16576500D01*
X8576643Y-16440786D02*
X8590928Y-16426500D01*
X8619500Y-16412214D01*
X8690928Y-16412214D01*
X8719500Y-16426500D01*
X8733786Y-16440786D01*
X8748071Y-16469357D01*
X8748071Y-16497929D01*
X8733786Y-16540786D01*
X8562357Y-16712214D01*
X8748071Y-16712214D01*
X8876643Y-16683643D02*
X8890928Y-16697929D01*
X8876643Y-16712214D01*
X8862357Y-16697929D01*
X8876643Y-16683643D01*
X8876643Y-16712214D01*
X9005214Y-16440786D02*
X9019500Y-16426500D01*
X9048071Y-16412214D01*
X9119500Y-16412214D01*
X9148071Y-16426500D01*
X9162357Y-16440786D01*
X9176643Y-16469357D01*
X9176643Y-16497929D01*
X9162357Y-16540786D01*
X8990928Y-16712214D01*
X9176643Y-16712214D01*
X9362357Y-16412214D02*
X9390928Y-16412214D01*
X9419500Y-16426500D01*
X9433786Y-16440786D01*
X9448071Y-16469357D01*
X9462357Y-16526500D01*
X9462357Y-16597929D01*
X9448071Y-16655071D01*
X9433786Y-16683643D01*
X9419500Y-16697929D01*
X9390928Y-16712214D01*
X9362357Y-16712214D01*
X9333786Y-16697929D01*
X9319500Y-16683643D01*
X9305214Y-16655071D01*
X9290928Y-16597929D01*
X9290928Y-16526500D01*
X9305214Y-16469357D01*
X9319500Y-16440786D01*
X9333786Y-16426500D01*
X9362357Y-16412214D01*
X9648071Y-16412214D02*
X9676643Y-16412214D01*
X9705214Y-16426500D01*
X9719500Y-16440786D01*
X9733786Y-16469357D01*
X9748071Y-16526500D01*
X9748071Y-16597929D01*
X9733786Y-16655071D01*
X9719500Y-16683643D01*
X9705214Y-16697929D01*
X9676643Y-16712214D01*
X9648071Y-16712214D01*
X9619500Y-16697929D01*
X9605214Y-16683643D01*
X9590928Y-16655071D01*
X9576643Y-16597929D01*
X9576643Y-16526500D01*
X9590928Y-16469357D01*
X9605214Y-16440786D01*
X9619500Y-16426500D01*
X9648071Y-16412214D01*
X9876643Y-16712214D02*
X9876643Y-16512214D01*
X9876643Y-16540786D02*
X9890928Y-16526500D01*
X9919500Y-16512214D01*
X9962357Y-16512214D01*
X9990928Y-16526500D01*
X10005214Y-16555071D01*
X10005214Y-16712214D01*
X10005214Y-16555071D02*
X10019500Y-16526500D01*
X10048071Y-16512214D01*
X10090928Y-16512214D01*
X10119500Y-16526500D01*
X10133786Y-16555071D01*
X10133786Y-16712214D01*
X10276643Y-16712214D02*
X10276643Y-16512214D01*
X10276643Y-16540786D02*
X10290928Y-16526500D01*
X10319500Y-16512214D01*
X10362357Y-16512214D01*
X10390928Y-16526500D01*
X10405214Y-16555071D01*
X10405214Y-16712214D01*
X10405214Y-16555071D02*
X10419500Y-16526500D01*
X10448071Y-16512214D01*
X10490928Y-16512214D01*
X10519500Y-16526500D01*
X10533786Y-16555071D01*
X10533786Y-16712214D01*
X11119500Y-16397929D02*
X10862357Y-16783643D01*
X11505214Y-16412214D02*
X11533786Y-16412214D01*
X11562357Y-16426500D01*
X11576643Y-16440786D01*
X11590928Y-16469357D01*
X11605214Y-16526500D01*
X11605214Y-16597929D01*
X11590928Y-16655071D01*
X11576643Y-16683643D01*
X11562357Y-16697929D01*
X11533786Y-16712214D01*
X11505214Y-16712214D01*
X11476643Y-16697929D01*
X11462357Y-16683643D01*
X11448071Y-16655071D01*
X11433786Y-16597929D01*
X11433786Y-16526500D01*
X11448071Y-16469357D01*
X11462357Y-16440786D01*
X11476643Y-16426500D01*
X11505214Y-16412214D01*
X11733786Y-16683643D02*
X11748071Y-16697929D01*
X11733786Y-16712214D01*
X11719500Y-16697929D01*
X11733786Y-16683643D01*
X11733786Y-16712214D01*
X11933786Y-16412214D02*
X11962357Y-16412214D01*
X11990928Y-16426500D01*
X12005214Y-16440786D01*
X12019500Y-16469357D01*
X12033786Y-16526500D01*
X12033786Y-16597929D01*
X12019500Y-16655071D01*
X12005214Y-16683643D01*
X11990928Y-16697929D01*
X11962357Y-16712214D01*
X11933786Y-16712214D01*
X11905214Y-16697929D01*
X11890928Y-16683643D01*
X11876643Y-16655071D01*
X11862357Y-16597929D01*
X11862357Y-16526500D01*
X11876643Y-16469357D01*
X11890928Y-16440786D01*
X11905214Y-16426500D01*
X11933786Y-16412214D01*
X12205214Y-16540786D02*
X12176643Y-16526500D01*
X12162357Y-16512214D01*
X12148071Y-16483643D01*
X12148071Y-16469357D01*
X12162357Y-16440786D01*
X12176643Y-16426500D01*
X12205214Y-16412214D01*
X12262357Y-16412214D01*
X12290928Y-16426500D01*
X12305214Y-16440786D01*
X12319500Y-16469357D01*
X12319500Y-16483643D01*
X12305214Y-16512214D01*
X12290928Y-16526500D01*
X12262357Y-16540786D01*
X12205214Y-16540786D01*
X12176643Y-16555071D01*
X12162357Y-16569357D01*
X12148071Y-16597929D01*
X12148071Y-16655071D01*
X12162357Y-16683643D01*
X12176643Y-16697929D01*
X12205214Y-16712214D01*
X12262357Y-16712214D01*
X12290928Y-16697929D01*
X12305214Y-16683643D01*
X12319500Y-16655071D01*
X12319500Y-16597929D01*
X12305214Y-16569357D01*
X12290928Y-16555071D01*
X12262357Y-16540786D01*
X12576643Y-16412214D02*
X12519500Y-16412214D01*
X12490928Y-16426500D01*
X12476643Y-16440786D01*
X12448071Y-16483643D01*
X12433786Y-16540786D01*
X12433786Y-16655071D01*
X12448071Y-16683643D01*
X12462357Y-16697929D01*
X12490928Y-16712214D01*
X12548071Y-16712214D01*
X12576643Y-16697929D01*
X12590928Y-16683643D01*
X12605214Y-16655071D01*
X12605214Y-16583643D01*
X12590928Y-16555071D01*
X12576643Y-16540786D01*
X12548071Y-16526500D01*
X12490928Y-16526500D01*
X12462357Y-16540786D01*
X12448071Y-16555071D01*
X12433786Y-16583643D01*
X12862357Y-16412214D02*
X12805214Y-16412214D01*
X12776643Y-16426500D01*
X12762357Y-16440786D01*
X12733786Y-16483643D01*
X12719500Y-16540786D01*
X12719500Y-16655071D01*
X12733786Y-16683643D01*
X12748071Y-16697929D01*
X12776643Y-16712214D01*
X12833786Y-16712214D01*
X12862357Y-16697929D01*
X12876643Y-16683643D01*
X12890928Y-16655071D01*
X12890928Y-16583643D01*
X12876643Y-16555071D01*
X12862357Y-16540786D01*
X12833786Y-16526500D01*
X12776643Y-16526500D01*
X12748071Y-16540786D01*
X12733786Y-16555071D01*
X12719500Y-16583643D01*
X13005214Y-16412214D02*
X13005214Y-16469357D01*
X13119500Y-16412214D02*
X13119500Y-16469357D01*
X13562357Y-16826500D02*
X13548071Y-16812214D01*
X13519500Y-16769357D01*
X13505214Y-16740786D01*
X13490928Y-16697929D01*
X13476643Y-16626500D01*
X13476643Y-16569357D01*
X13490928Y-16497929D01*
X13505214Y-16455071D01*
X13519500Y-16426500D01*
X13548071Y-16383643D01*
X13562357Y-16369357D01*
X13819500Y-16412214D02*
X13676643Y-16412214D01*
X13662357Y-16555071D01*
X13676643Y-16540786D01*
X13705214Y-16526500D01*
X13776643Y-16526500D01*
X13805214Y-16540786D01*
X13819500Y-16555071D01*
X13833786Y-16583643D01*
X13833786Y-16655071D01*
X13819500Y-16683643D01*
X13805214Y-16697929D01*
X13776643Y-16712214D01*
X13705214Y-16712214D01*
X13676643Y-16697929D01*
X13662357Y-16683643D01*
X14190928Y-16712214D02*
X14190928Y-16412214D01*
X14319500Y-16712214D02*
X14319500Y-16555071D01*
X14305214Y-16526500D01*
X14276643Y-16512214D01*
X14233786Y-16512214D01*
X14205214Y-16526500D01*
X14190928Y-16540786D01*
X14505214Y-16712214D02*
X14476643Y-16697929D01*
X14462357Y-16683643D01*
X14448071Y-16655071D01*
X14448071Y-16569357D01*
X14462357Y-16540786D01*
X14476643Y-16526500D01*
X14505214Y-16512214D01*
X14548071Y-16512214D01*
X14576643Y-16526500D01*
X14590928Y-16540786D01*
X14605214Y-16569357D01*
X14605214Y-16655071D01*
X14590928Y-16683643D01*
X14576643Y-16697929D01*
X14548071Y-16712214D01*
X14505214Y-16712214D01*
X14776643Y-16712214D02*
X14748071Y-16697929D01*
X14733786Y-16669357D01*
X14733786Y-16412214D01*
X15005214Y-16697929D02*
X14976643Y-16712214D01*
X14919500Y-16712214D01*
X14890928Y-16697929D01*
X14876643Y-16669357D01*
X14876643Y-16555071D01*
X14890928Y-16526500D01*
X14919500Y-16512214D01*
X14976643Y-16512214D01*
X15005214Y-16526500D01*
X15019500Y-16555071D01*
X15019500Y-16583643D01*
X14876643Y-16612214D01*
X15133786Y-16697929D02*
X15162357Y-16712214D01*
X15219500Y-16712214D01*
X15248071Y-16697929D01*
X15262357Y-16669357D01*
X15262357Y-16655071D01*
X15248071Y-16626500D01*
X15219500Y-16612214D01*
X15176643Y-16612214D01*
X15148071Y-16597929D01*
X15133786Y-16569357D01*
X15133786Y-16555071D01*
X15148071Y-16526500D01*
X15176643Y-16512214D01*
X15219500Y-16512214D01*
X15248071Y-16526500D01*
X15362357Y-16826500D02*
X15376643Y-16812214D01*
X15405214Y-16769357D01*
X15419500Y-16740786D01*
X15433786Y-16697929D01*
X15448071Y-16626500D01*
X15448071Y-16569357D01*
X15433786Y-16497929D01*
X15419500Y-16455071D01*
X15405214Y-16426500D01*
X15376643Y-16383643D01*
X15362357Y-16369357D01*
M02*
