G04 #@! TF.GenerationSoftware,KiCad,Pcbnew,(6.0.2-0)*
G04 #@! TF.CreationDate,2022-02-19T09:24:14+00:00*
G04 #@! TF.ProjectId,SofleKeyboardTopPlate,536f666c-654b-4657-9962-6f617264546f,rev?*
G04 #@! TF.SameCoordinates,Original*
G04 #@! TF.FileFunction,Legend,Bot*
G04 #@! TF.FilePolarity,Positive*
%FSLAX46Y46*%
G04 Gerber Fmt 4.6, Leading zero omitted, Abs format (unit mm)*
G04 Created by KiCad (PCBNEW (6.0.2-0)) date 2022-02-19 09:24:14*
%MOMM*%
%LPD*%
G01*
G04 APERTURE LIST*
%ADD10C,0.200000*%
%ADD11C,0.150000*%
%ADD12C,0.010000*%
%ADD13C,5.100000*%
%ADD14O,3.400000X2.400000*%
%ADD15C,1.924000*%
%ADD16O,1.924000X1.924000*%
%ADD17C,2.400000*%
G04 APERTURE END LIST*
D10*
X206408285Y-128286761D02*
X206265428Y-128334380D01*
X206027333Y-128334380D01*
X205932095Y-128286761D01*
X205884476Y-128239142D01*
X205836857Y-128143904D01*
X205836857Y-128048666D01*
X205884476Y-127953428D01*
X205932095Y-127905809D01*
X206027333Y-127858190D01*
X206217809Y-127810571D01*
X206313047Y-127762952D01*
X206360666Y-127715333D01*
X206408285Y-127620095D01*
X206408285Y-127524857D01*
X206360666Y-127429619D01*
X206313047Y-127382000D01*
X206217809Y-127334380D01*
X205979714Y-127334380D01*
X205836857Y-127382000D01*
X205265428Y-128334380D02*
X205360666Y-128286761D01*
X205408285Y-128239142D01*
X205455904Y-128143904D01*
X205455904Y-127858190D01*
X205408285Y-127762952D01*
X205360666Y-127715333D01*
X205265428Y-127667714D01*
X205122571Y-127667714D01*
X205027333Y-127715333D01*
X204979714Y-127762952D01*
X204932095Y-127858190D01*
X204932095Y-128143904D01*
X204979714Y-128239142D01*
X205027333Y-128286761D01*
X205122571Y-128334380D01*
X205265428Y-128334380D01*
X204646380Y-127667714D02*
X204265428Y-127667714D01*
X204503523Y-128334380D02*
X204503523Y-127477238D01*
X204455904Y-127382000D01*
X204360666Y-127334380D01*
X204265428Y-127334380D01*
X203789238Y-128334380D02*
X203884476Y-128286761D01*
X203932095Y-128191523D01*
X203932095Y-127334380D01*
X203027333Y-128286761D02*
X203122571Y-128334380D01*
X203313047Y-128334380D01*
X203408285Y-128286761D01*
X203455904Y-128191523D01*
X203455904Y-127810571D01*
X203408285Y-127715333D01*
X203313047Y-127667714D01*
X203122571Y-127667714D01*
X203027333Y-127715333D01*
X202979714Y-127810571D01*
X202979714Y-127905809D01*
X203455904Y-128001047D01*
X201836857Y-128286761D02*
X201694000Y-128334380D01*
X201455904Y-128334380D01*
X201360666Y-128286761D01*
X201313047Y-128239142D01*
X201265428Y-128143904D01*
X201265428Y-128048666D01*
X201313047Y-127953428D01*
X201360666Y-127905809D01*
X201455904Y-127858190D01*
X201646380Y-127810571D01*
X201741619Y-127762952D01*
X201789238Y-127715333D01*
X201836857Y-127620095D01*
X201836857Y-127524857D01*
X201789238Y-127429619D01*
X201741619Y-127382000D01*
X201646380Y-127334380D01*
X201408285Y-127334380D01*
X201265428Y-127382000D01*
X200694000Y-128334380D02*
X200789238Y-128286761D01*
X200836857Y-128239142D01*
X200884476Y-128143904D01*
X200884476Y-127858190D01*
X200836857Y-127762952D01*
X200789238Y-127715333D01*
X200694000Y-127667714D01*
X200551142Y-127667714D01*
X200455904Y-127715333D01*
X200408285Y-127762952D01*
X200360666Y-127858190D01*
X200360666Y-128143904D01*
X200408285Y-128239142D01*
X200455904Y-128286761D01*
X200551142Y-128334380D01*
X200694000Y-128334380D01*
X199503523Y-127667714D02*
X199503523Y-128334380D01*
X199932095Y-127667714D02*
X199932095Y-128191523D01*
X199884476Y-128286761D01*
X199789238Y-128334380D01*
X199646380Y-128334380D01*
X199551142Y-128286761D01*
X199503523Y-128239142D01*
X199170190Y-127667714D02*
X198789238Y-127667714D01*
X199027333Y-128334380D02*
X199027333Y-127477238D01*
X198979714Y-127382000D01*
X198884476Y-127334380D01*
X198789238Y-127334380D01*
X198598761Y-127667714D02*
X198217809Y-127667714D01*
X198455904Y-128334380D02*
X198455904Y-127477238D01*
X198408285Y-127382000D01*
X198313047Y-127334380D01*
X198217809Y-127334380D01*
X197741619Y-128334380D02*
X197836857Y-128286761D01*
X197884476Y-128191523D01*
X197884476Y-127334380D01*
X196979714Y-128286761D02*
X197074952Y-128334380D01*
X197265428Y-128334380D01*
X197360666Y-128286761D01*
X197408285Y-128191523D01*
X197408285Y-127810571D01*
X197360666Y-127715333D01*
X197265428Y-127667714D01*
X197074952Y-127667714D01*
X196979714Y-127715333D01*
X196932095Y-127810571D01*
X196932095Y-127905809D01*
X197408285Y-128001047D01*
X197074952Y-127286761D02*
X197217809Y-127429619D01*
X195741619Y-127953428D02*
X194979714Y-127953428D01*
X193455904Y-127334380D02*
X193455904Y-128048666D01*
X193503523Y-128191523D01*
X193598761Y-128286761D01*
X193741619Y-128334380D01*
X193836857Y-128334380D01*
X191646380Y-128239142D02*
X191694000Y-128286761D01*
X191836857Y-128334380D01*
X191932095Y-128334380D01*
X192074952Y-128286761D01*
X192170190Y-128191523D01*
X192217809Y-128096285D01*
X192265428Y-127905809D01*
X192265428Y-127762952D01*
X192217809Y-127572476D01*
X192170190Y-127477238D01*
X192074952Y-127382000D01*
X191932095Y-127334380D01*
X191836857Y-127334380D01*
X191694000Y-127382000D01*
X191646380Y-127429619D01*
X191074952Y-128334380D02*
X191170190Y-128286761D01*
X191217809Y-128191523D01*
X191217809Y-127334380D01*
X190694000Y-128334380D02*
X190694000Y-127667714D01*
X190694000Y-127334380D02*
X190741619Y-127382000D01*
X190694000Y-127429619D01*
X190646380Y-127382000D01*
X190694000Y-127334380D01*
X190694000Y-127429619D01*
X190217809Y-128334380D02*
X190217809Y-127667714D01*
X190217809Y-127762952D02*
X190170190Y-127715333D01*
X190074952Y-127667714D01*
X189932095Y-127667714D01*
X189836857Y-127715333D01*
X189789238Y-127810571D01*
X189789238Y-128334380D01*
X189789238Y-127810571D02*
X189741619Y-127715333D01*
X189646380Y-127667714D01*
X189503523Y-127667714D01*
X189408285Y-127715333D01*
X189360666Y-127810571D01*
X189360666Y-128334380D01*
X188503523Y-128286761D02*
X188598761Y-128334380D01*
X188789238Y-128334380D01*
X188884476Y-128286761D01*
X188932095Y-128191523D01*
X188932095Y-127810571D01*
X188884476Y-127715333D01*
X188789238Y-127667714D01*
X188598761Y-127667714D01*
X188503523Y-127715333D01*
X188455904Y-127810571D01*
X188455904Y-127905809D01*
X188932095Y-128001047D01*
X188027333Y-127667714D02*
X188027333Y-128334380D01*
X188027333Y-127762952D02*
X187979714Y-127715333D01*
X187884476Y-127667714D01*
X187741619Y-127667714D01*
X187646380Y-127715333D01*
X187598761Y-127810571D01*
X187598761Y-128334380D01*
X187265428Y-127667714D02*
X186884476Y-127667714D01*
X187122571Y-127334380D02*
X187122571Y-128191523D01*
X187074952Y-128286761D01*
X186979714Y-128334380D01*
X186884476Y-128334380D01*
D11*
X103185285Y-107673571D02*
X102851952Y-107673571D01*
X102709095Y-108197380D02*
X103185285Y-108197380D01*
X103185285Y-107197380D01*
X102709095Y-107197380D01*
X101947190Y-107673571D02*
X101804333Y-107721190D01*
X101756714Y-107768809D01*
X101709095Y-107864047D01*
X101709095Y-108006904D01*
X101756714Y-108102142D01*
X101804333Y-108149761D01*
X101899571Y-108197380D01*
X102280523Y-108197380D01*
X102280523Y-107197380D01*
X101947190Y-107197380D01*
X101851952Y-107245000D01*
X101804333Y-107292619D01*
X101756714Y-107387857D01*
X101756714Y-107483095D01*
X101804333Y-107578333D01*
X101851952Y-107625952D01*
X101947190Y-107673571D01*
X102280523Y-107673571D01*
X106355714Y-101850761D02*
X106212857Y-101898380D01*
X105974761Y-101898380D01*
X105879523Y-101850761D01*
X105831904Y-101803142D01*
X105784285Y-101707904D01*
X105784285Y-101612666D01*
X105831904Y-101517428D01*
X105879523Y-101469809D01*
X105974761Y-101422190D01*
X106165238Y-101374571D01*
X106260476Y-101326952D01*
X106308095Y-101279333D01*
X106355714Y-101184095D01*
X106355714Y-101088857D01*
X106308095Y-100993619D01*
X106260476Y-100946000D01*
X106165238Y-100898380D01*
X105927142Y-100898380D01*
X105784285Y-100946000D01*
X105022380Y-101374571D02*
X104879523Y-101422190D01*
X104831904Y-101469809D01*
X104784285Y-101565047D01*
X104784285Y-101707904D01*
X104831904Y-101803142D01*
X104879523Y-101850761D01*
X104974761Y-101898380D01*
X105355714Y-101898380D01*
X105355714Y-100898380D01*
X105022380Y-100898380D01*
X104927142Y-100946000D01*
X104879523Y-100993619D01*
X104831904Y-101088857D01*
X104831904Y-101184095D01*
X104879523Y-101279333D01*
X104927142Y-101326952D01*
X105022380Y-101374571D01*
X105355714Y-101374571D01*
X99680285Y-101850761D02*
X99537428Y-101898380D01*
X99299333Y-101898380D01*
X99204095Y-101850761D01*
X99156476Y-101803142D01*
X99108857Y-101707904D01*
X99108857Y-101612666D01*
X99156476Y-101517428D01*
X99204095Y-101469809D01*
X99299333Y-101422190D01*
X99489809Y-101374571D01*
X99585047Y-101326952D01*
X99632666Y-101279333D01*
X99680285Y-101184095D01*
X99680285Y-101088857D01*
X99632666Y-100993619D01*
X99585047Y-100946000D01*
X99489809Y-100898380D01*
X99251714Y-100898380D01*
X99108857Y-100946000D01*
X98727904Y-101612666D02*
X98251714Y-101612666D01*
X98823142Y-101898380D02*
X98489809Y-100898380D01*
X98156476Y-101898380D01*
X106534904Y-107245000D02*
X106630142Y-107197380D01*
X106773000Y-107197380D01*
X106915857Y-107245000D01*
X107011095Y-107340238D01*
X107058714Y-107435476D01*
X107106333Y-107625952D01*
X107106333Y-107768809D01*
X107058714Y-107959285D01*
X107011095Y-108054523D01*
X106915857Y-108149761D01*
X106773000Y-108197380D01*
X106677761Y-108197380D01*
X106534904Y-108149761D01*
X106487285Y-108102142D01*
X106487285Y-107768809D01*
X106677761Y-107768809D01*
X106058714Y-108197380D02*
X106058714Y-107197380D01*
X105487285Y-108197380D01*
X105487285Y-107197380D01*
X105011095Y-108197380D02*
X105011095Y-107197380D01*
X104773000Y-107197380D01*
X104630142Y-107245000D01*
X104534904Y-107340238D01*
X104487285Y-107435476D01*
X104439666Y-107625952D01*
X104439666Y-107768809D01*
X104487285Y-107959285D01*
X104534904Y-108054523D01*
X104630142Y-108149761D01*
X104773000Y-108197380D01*
X105011095Y-108197380D01*
X99811857Y-107673571D02*
X99478523Y-107673571D01*
X99335666Y-108197380D02*
X99811857Y-108197380D01*
X99811857Y-107197380D01*
X99335666Y-107197380D01*
X98954714Y-107911666D02*
X98478523Y-107911666D01*
X99049952Y-108197380D02*
X98716619Y-107197380D01*
X98383285Y-108197380D01*
%LPC*%
D12*
X112355682Y-116856032D02*
X112327434Y-116900878D01*
X112327434Y-116900878D02*
X112296394Y-116970368D01*
X112296394Y-116970368D02*
X112282722Y-117005363D01*
X112282722Y-117005363D02*
X112260156Y-117061544D01*
X112260156Y-117061544D02*
X112239259Y-117107842D01*
X112239259Y-117107842D02*
X112222261Y-117139691D01*
X112222261Y-117139691D02*
X112211388Y-117152526D01*
X112211388Y-117152526D02*
X112210875Y-117152595D01*
X112210875Y-117152595D02*
X112199487Y-117164147D01*
X112199487Y-117164147D02*
X112195008Y-117195160D01*
X112195008Y-117195160D02*
X112195000Y-117196792D01*
X112195000Y-117196792D02*
X112190003Y-117238612D01*
X112190003Y-117238612D02*
X112177730Y-117283809D01*
X112177730Y-117283809D02*
X112175292Y-117290243D01*
X112175292Y-117290243D02*
X112166920Y-117314436D01*
X112166920Y-117314436D02*
X112162574Y-117339074D01*
X112162574Y-117339074D02*
X112162222Y-117370171D01*
X112162222Y-117370171D02*
X112165835Y-117413743D01*
X112165835Y-117413743D02*
X112173384Y-117475805D01*
X112173384Y-117475805D02*
X112174342Y-117483171D01*
X112174342Y-117483171D02*
X112193102Y-117626841D01*
X112193102Y-117626841D02*
X112052128Y-117811995D01*
X112052128Y-117811995D02*
X112007145Y-117871074D01*
X112007145Y-117871074D02*
X111967675Y-117922909D01*
X111967675Y-117922909D02*
X111936213Y-117964224D01*
X111936213Y-117964224D02*
X111915252Y-117991744D01*
X111915252Y-117991744D02*
X111907326Y-118002143D01*
X111907326Y-118002143D02*
X111893296Y-118002137D01*
X111893296Y-118002137D02*
X111861396Y-117995278D01*
X111861396Y-117995278D02*
X111817616Y-117983427D01*
X111817616Y-117983427D02*
X111767942Y-117968447D01*
X111767942Y-117968447D02*
X111718363Y-117952200D01*
X111718363Y-117952200D02*
X111674868Y-117936549D01*
X111674868Y-117936549D02*
X111643444Y-117923356D01*
X111643444Y-117923356D02*
X111631624Y-117916398D01*
X111631624Y-117916398D02*
X111610898Y-117890792D01*
X111610898Y-117890792D02*
X111586151Y-117849920D01*
X111586151Y-117849920D02*
X111561154Y-117801484D01*
X111561154Y-117801484D02*
X111539676Y-117753187D01*
X111539676Y-117753187D02*
X111525489Y-117712730D01*
X111525489Y-117712730D02*
X111521900Y-117692268D01*
X111521900Y-117692268D02*
X111513739Y-117663887D01*
X111513739Y-117663887D02*
X111494361Y-117650151D01*
X111494361Y-117650151D02*
X111471426Y-117655704D01*
X111471426Y-117655704D02*
X111467390Y-117659230D01*
X111467390Y-117659230D02*
X111459289Y-117677419D01*
X111459289Y-117677419D02*
X111468244Y-117698844D01*
X111468244Y-117698844D02*
X111477510Y-117726125D01*
X111477510Y-117726125D02*
X111483078Y-117766532D01*
X111483078Y-117766532D02*
X111483800Y-117786571D01*
X111483800Y-117786571D02*
X111480054Y-117830386D01*
X111480054Y-117830386D02*
X111467299Y-117854353D01*
X111467299Y-117854353D02*
X111443268Y-117858956D01*
X111443268Y-117858956D02*
X111405689Y-117844678D01*
X111405689Y-117844678D02*
X111355155Y-117813918D01*
X111355155Y-117813918D02*
X111310450Y-117784694D01*
X111310450Y-117784694D02*
X111281994Y-117768692D01*
X111281994Y-117768692D02*
X111265243Y-117764548D01*
X111265243Y-117764548D02*
X111255653Y-117770898D01*
X111255653Y-117770898D02*
X111250168Y-117782396D01*
X111250168Y-117782396D02*
X111248387Y-117810223D01*
X111248387Y-117810223D02*
X111267657Y-117824436D01*
X111267657Y-117824436D02*
X111280283Y-117825700D01*
X111280283Y-117825700D02*
X111302777Y-117835822D01*
X111302777Y-117835822D02*
X111330193Y-117861034D01*
X111330193Y-117861034D02*
X111356304Y-117893604D01*
X111356304Y-117893604D02*
X111374882Y-117925800D01*
X111374882Y-117925800D02*
X111379828Y-117949289D01*
X111379828Y-117949289D02*
X111366425Y-117967955D01*
X111366425Y-117967955D02*
X111338210Y-117988072D01*
X111338210Y-117988072D02*
X111303608Y-118005490D01*
X111303608Y-118005490D02*
X111271045Y-118016061D01*
X111271045Y-118016061D02*
X111248945Y-118015635D01*
X111248945Y-118015635D02*
X111247285Y-118014560D01*
X111247285Y-118014560D02*
X111225412Y-118008743D01*
X111225412Y-118008743D02*
X111202731Y-118016223D01*
X111202731Y-118016223D02*
X111191903Y-118032685D01*
X111191903Y-118032685D02*
X111191895Y-118033433D01*
X111191895Y-118033433D02*
X111200263Y-118063269D01*
X111200263Y-118063269D02*
X111221293Y-118073722D01*
X111221293Y-118073722D02*
X111240050Y-118068311D01*
X111240050Y-118068311D02*
X111272059Y-118058136D01*
X111272059Y-118058136D02*
X111312843Y-118053960D01*
X111312843Y-118053960D02*
X111353957Y-118055474D01*
X111353957Y-118055474D02*
X111386955Y-118062373D01*
X111386955Y-118062373D02*
X111403352Y-118074245D01*
X111403352Y-118074245D02*
X111399176Y-118093525D01*
X111399176Y-118093525D02*
X111381006Y-118121735D01*
X111381006Y-118121735D02*
X111354855Y-118152156D01*
X111354855Y-118152156D02*
X111326735Y-118178069D01*
X111326735Y-118178069D02*
X111302659Y-118192755D01*
X111302659Y-118192755D02*
X111296190Y-118194000D01*
X111296190Y-118194000D02*
X111283499Y-118202785D01*
X111283499Y-118202785D02*
X111283030Y-118222531D01*
X111283030Y-118222531D02*
X111292536Y-118243321D01*
X111292536Y-118243321D02*
X111309772Y-118255239D01*
X111309772Y-118255239D02*
X111310076Y-118255299D01*
X111310076Y-118255299D02*
X111332276Y-118249040D01*
X111332276Y-118249040D02*
X111339713Y-118234805D01*
X111339713Y-118234805D02*
X111353838Y-118218503D01*
X111353838Y-118218503D02*
X111385698Y-118196374D01*
X111385698Y-118196374D02*
X111429227Y-118171464D01*
X111429227Y-118171464D02*
X111478362Y-118146819D01*
X111478362Y-118146819D02*
X111527037Y-118125484D01*
X111527037Y-118125484D02*
X111569187Y-118110507D01*
X111569187Y-118110507D02*
X111598304Y-118104933D01*
X111598304Y-118104933D02*
X111621951Y-118106720D01*
X111621951Y-118106720D02*
X111665189Y-118111741D01*
X111665189Y-118111741D02*
X111722515Y-118119294D01*
X111722515Y-118119294D02*
X111788427Y-118128677D01*
X111788427Y-118128677D02*
X111811206Y-118132069D01*
X111811206Y-118132069D02*
X111875814Y-118141436D01*
X111875814Y-118141436D02*
X111930812Y-118148728D01*
X111930812Y-118148728D02*
X111971656Y-118153395D01*
X111971656Y-118153395D02*
X111993802Y-118154888D01*
X111993802Y-118154888D02*
X111996418Y-118154461D01*
X111996418Y-118154461D02*
X112004150Y-118142453D01*
X112004150Y-118142453D02*
X112022703Y-118112898D01*
X112022703Y-118112898D02*
X112049541Y-118069852D01*
X112049541Y-118069852D02*
X112082132Y-118017373D01*
X112082132Y-118017373D02*
X112092967Y-117999887D01*
X112092967Y-117999887D02*
X112126719Y-117946209D01*
X112126719Y-117946209D02*
X112155652Y-117901739D01*
X112155652Y-117901739D02*
X112177250Y-117870227D01*
X112177250Y-117870227D02*
X112188996Y-117855425D01*
X112188996Y-117855425D02*
X112190282Y-117854847D01*
X112190282Y-117854847D02*
X112190779Y-117868252D01*
X112190779Y-117868252D02*
X112189775Y-117903575D01*
X112189775Y-117903575D02*
X112187431Y-117957393D01*
X112187431Y-117957393D02*
X112183908Y-118026278D01*
X112183908Y-118026278D02*
X112179370Y-118106805D01*
X112179370Y-118106805D02*
X112174805Y-118182310D01*
X112174805Y-118182310D02*
X112154707Y-118505150D01*
X112154707Y-118505150D02*
X112282765Y-118750899D01*
X112282765Y-118750899D02*
X112319854Y-118823453D01*
X112319854Y-118823453D02*
X112351926Y-118888857D01*
X112351926Y-118888857D02*
X112377395Y-118943654D01*
X112377395Y-118943654D02*
X112394679Y-118984389D01*
X112394679Y-118984389D02*
X112402192Y-119007605D01*
X112402192Y-119007605D02*
X112402086Y-119011249D01*
X112402086Y-119011249D02*
X112392350Y-119025371D01*
X112392350Y-119025371D02*
X112369897Y-119056880D01*
X112369897Y-119056880D02*
X112336981Y-119102643D01*
X112336981Y-119102643D02*
X112295858Y-119159531D01*
X112295858Y-119159531D02*
X112248783Y-119224410D01*
X112248783Y-119224410D02*
X112224070Y-119258386D01*
X112224070Y-119258386D02*
X112175262Y-119325707D01*
X112175262Y-119325707D02*
X112131707Y-119386305D01*
X112131707Y-119386305D02*
X112095569Y-119437125D01*
X112095569Y-119437125D02*
X112069013Y-119475114D01*
X112069013Y-119475114D02*
X112054203Y-119497217D01*
X112054203Y-119497217D02*
X112051872Y-119501381D01*
X112051872Y-119501381D02*
X112060814Y-119511580D01*
X112060814Y-119511580D02*
X112087480Y-119534363D01*
X112087480Y-119534363D02*
X112128993Y-119567460D01*
X112128993Y-119567460D02*
X112182475Y-119608601D01*
X112182475Y-119608601D02*
X112245047Y-119655513D01*
X112245047Y-119655513D02*
X112277550Y-119679476D01*
X112277550Y-119679476D02*
X112343842Y-119728368D01*
X112343842Y-119728368D02*
X112402882Y-119772442D01*
X112402882Y-119772442D02*
X112451696Y-119809436D01*
X112451696Y-119809436D02*
X112487314Y-119837088D01*
X112487314Y-119837088D02*
X112506763Y-119853136D01*
X112506763Y-119853136D02*
X112509476Y-119856032D01*
X112509476Y-119856032D02*
X112502229Y-119869292D01*
X112502229Y-119869292D02*
X112478520Y-119890562D01*
X112478520Y-119890562D02*
X112444225Y-119915763D01*
X112444225Y-119915763D02*
X112405223Y-119940821D01*
X112405223Y-119940821D02*
X112367392Y-119961657D01*
X112367392Y-119961657D02*
X112341050Y-119972839D01*
X112341050Y-119972839D02*
X112295164Y-119981922D01*
X112295164Y-119981922D02*
X112229106Y-119986321D01*
X112229106Y-119986321D02*
X112163250Y-119986175D01*
X112163250Y-119986175D02*
X112102093Y-119983721D01*
X112102093Y-119983721D02*
X112060724Y-119979641D01*
X112060724Y-119979641D02*
X112033538Y-119972895D01*
X112033538Y-119972895D02*
X112014930Y-119962443D01*
X112014930Y-119962443D02*
X112009285Y-119957604D01*
X112009285Y-119957604D02*
X111988698Y-119941050D01*
X111988698Y-119941050D02*
X111974432Y-119942003D01*
X111974432Y-119942003D02*
X111960929Y-119953885D01*
X111960929Y-119953885D02*
X111946905Y-119977517D01*
X111946905Y-119977517D02*
X111946620Y-119993726D01*
X111946620Y-119993726D02*
X111952957Y-120013187D01*
X111952957Y-120013187D02*
X111953700Y-120017488D01*
X111953700Y-120017488D02*
X111964769Y-120021205D01*
X111964769Y-120021205D02*
X111991469Y-120022798D01*
X111991469Y-120022798D02*
X111992223Y-120022800D01*
X111992223Y-120022800D02*
X112025523Y-120028577D01*
X112025523Y-120028577D02*
X112068650Y-120043359D01*
X112068650Y-120043359D02*
X112094607Y-120055161D01*
X112094607Y-120055161D02*
X112131477Y-120075540D01*
X112131477Y-120075540D02*
X112149957Y-120092044D01*
X112149957Y-120092044D02*
X112155187Y-120110357D01*
X112155187Y-120110357D02*
X112154510Y-120121379D01*
X112154510Y-120121379D02*
X112146345Y-120144615D01*
X112146345Y-120144615D02*
X112124546Y-120166699D01*
X112124546Y-120166699D02*
X112084248Y-120192414D01*
X112084248Y-120192414D02*
X112079502Y-120195095D01*
X112079502Y-120195095D02*
X112036605Y-120217607D01*
X112036605Y-120217607D02*
X111997828Y-120235330D01*
X111997828Y-120235330D02*
X111976128Y-120243067D01*
X111976128Y-120243067D02*
X111945914Y-120259217D01*
X111945914Y-120259217D02*
X111933520Y-120283960D01*
X111933520Y-120283960D02*
X111942336Y-120310159D01*
X111942336Y-120310159D02*
X111967264Y-120325852D01*
X111967264Y-120325852D02*
X111993412Y-120323340D01*
X111993412Y-120323340D02*
X112010396Y-120303630D01*
X112010396Y-120303630D02*
X112010420Y-120303557D01*
X112010420Y-120303557D02*
X112022561Y-120287989D01*
X112022561Y-120287989D02*
X112050766Y-120275518D01*
X112050766Y-120275518D02*
X112099650Y-120264119D01*
X112099650Y-120264119D02*
X112100811Y-120263899D01*
X112100811Y-120263899D02*
X112145800Y-120256096D01*
X112145800Y-120256096D02*
X112172854Y-120254285D01*
X112172854Y-120254285D02*
X112188851Y-120259023D01*
X112188851Y-120259023D02*
X112200666Y-120270867D01*
X112200666Y-120270867D02*
X112201582Y-120272067D01*
X112201582Y-120272067D02*
X112213588Y-120291540D01*
X112213588Y-120291540D02*
X112218914Y-120313828D01*
X112218914Y-120313828D02*
X112218224Y-120346397D01*
X112218224Y-120346397D02*
X112212471Y-120394609D01*
X112212471Y-120394609D02*
X112203295Y-120435200D01*
X112203295Y-120435200D02*
X112188566Y-120455337D01*
X112188566Y-120455337D02*
X112180693Y-120458700D01*
X112180693Y-120458700D02*
X112164346Y-120468329D01*
X112164346Y-120468329D02*
X112165827Y-120489066D01*
X112165827Y-120489066D02*
X112167780Y-120494693D01*
X112167780Y-120494693D02*
X112186482Y-120521723D01*
X112186482Y-120521723D02*
X112210416Y-120529086D01*
X112210416Y-120529086D02*
X112231892Y-120516570D01*
X112231892Y-120516570D02*
X112241142Y-120496699D01*
X112241142Y-120496699D02*
X112251467Y-120464443D01*
X112251467Y-120464443D02*
X112268004Y-120421388D01*
X112268004Y-120421388D02*
X112278801Y-120395925D01*
X112278801Y-120395925D02*
X112300506Y-120354148D01*
X112300506Y-120354148D02*
X112321600Y-120331869D01*
X112321600Y-120331869D02*
X112340093Y-120324674D01*
X112340093Y-120324674D02*
X112358062Y-120323182D01*
X112358062Y-120323182D02*
X112370576Y-120330440D01*
X112370576Y-120330440D02*
X112381448Y-120351456D01*
X112381448Y-120351456D02*
X112394491Y-120391235D01*
X112394491Y-120391235D02*
X112396923Y-120399305D01*
X112396923Y-120399305D02*
X112408485Y-120445116D01*
X112408485Y-120445116D02*
X112414604Y-120484470D01*
X112414604Y-120484470D02*
X112414219Y-120506780D01*
X112414219Y-120506780D02*
X112416364Y-120534634D01*
X112416364Y-120534634D02*
X112434007Y-120551417D01*
X112434007Y-120551417D02*
X112458559Y-120554110D01*
X112458559Y-120554110D02*
X112481427Y-120539697D01*
X112481427Y-120539697D02*
X112486387Y-120532133D01*
X112486387Y-120532133D02*
X112491642Y-120507782D01*
X112491642Y-120507782D02*
X112479148Y-120491370D01*
X112479148Y-120491370D02*
X112470189Y-120480222D01*
X112470189Y-120480222D02*
X112465115Y-120461795D01*
X112465115Y-120461795D02*
X112463549Y-120431159D01*
X112463549Y-120431159D02*
X112465114Y-120383383D01*
X112465114Y-120383383D02*
X112467631Y-120340811D01*
X112467631Y-120340811D02*
X112471137Y-120290646D01*
X112471137Y-120290646D02*
X112475783Y-120250358D01*
X112475783Y-120250358D02*
X112483652Y-120215756D01*
X112483652Y-120215756D02*
X112496827Y-120182648D01*
X112496827Y-120182648D02*
X112517389Y-120146843D01*
X112517389Y-120146843D02*
X112547422Y-120104149D01*
X112547422Y-120104149D02*
X112589009Y-120050374D01*
X112589009Y-120050374D02*
X112644233Y-119981327D01*
X112644233Y-119981327D02*
X112649522Y-119974744D01*
X112649522Y-119974744D02*
X112681207Y-119936556D01*
X112681207Y-119936556D02*
X112705419Y-119907072D01*
X112705419Y-119907072D02*
X112720940Y-119883175D01*
X112720940Y-119883175D02*
X112726555Y-119861746D01*
X112726555Y-119861746D02*
X112721048Y-119839667D01*
X112721048Y-119839667D02*
X112703202Y-119813818D01*
X112703202Y-119813818D02*
X112671802Y-119781081D01*
X112671802Y-119781081D02*
X112625632Y-119738338D01*
X112625632Y-119738338D02*
X112563475Y-119682471D01*
X112563475Y-119682471D02*
X112520352Y-119643490D01*
X112520352Y-119643490D02*
X112344054Y-119483215D01*
X112344054Y-119483215D02*
X112449117Y-119384707D01*
X112449117Y-119384707D02*
X112491554Y-119345541D01*
X112491554Y-119345541D02*
X112527210Y-119313801D01*
X112527210Y-119313801D02*
X112552078Y-119292976D01*
X112552078Y-119292976D02*
X112561916Y-119286448D01*
X112561916Y-119286448D02*
X112571460Y-119296630D01*
X112571460Y-119296630D02*
X112591102Y-119323920D01*
X112591102Y-119323920D02*
X112617673Y-119363764D01*
X112617673Y-119363764D02*
X112639034Y-119397224D01*
X112639034Y-119397224D02*
X112698092Y-119480294D01*
X112698092Y-119480294D02*
X112772742Y-119568610D01*
X112772742Y-119568610D02*
X112856314Y-119655183D01*
X112856314Y-119655183D02*
X112942140Y-119733026D01*
X112942140Y-119733026D02*
X113009686Y-119785560D01*
X113009686Y-119785560D02*
X113079406Y-119829960D01*
X113079406Y-119829960D02*
X113162824Y-119875371D01*
X113162824Y-119875371D02*
X113251379Y-119917697D01*
X113251379Y-119917697D02*
X113336512Y-119952837D01*
X113336512Y-119952837D02*
X113407850Y-119976214D01*
X113407850Y-119976214D02*
X113493598Y-119994799D01*
X113493598Y-119994799D02*
X113590428Y-120008921D01*
X113590428Y-120008921D02*
X113688482Y-120017588D01*
X113688482Y-120017588D02*
X113777897Y-120019808D01*
X113777897Y-120019808D02*
X113821133Y-120017816D01*
X113821133Y-120017816D02*
X113973028Y-119992813D01*
X113973028Y-119992813D02*
X114119582Y-119944030D01*
X114119582Y-119944030D02*
X114258703Y-119872877D01*
X114258703Y-119872877D02*
X114388298Y-119780765D01*
X114388298Y-119780765D02*
X114506276Y-119669106D01*
X114506276Y-119669106D02*
X114610546Y-119539309D01*
X114610546Y-119539309D02*
X114670517Y-119444950D01*
X114670517Y-119444950D02*
X114699790Y-119394150D01*
X114699790Y-119394150D02*
X114664554Y-119438600D01*
X114664554Y-119438600D02*
X114621556Y-119488400D01*
X114621556Y-119488400D02*
X114566239Y-119546071D01*
X114566239Y-119546071D02*
X114504225Y-119606340D01*
X114504225Y-119606340D02*
X114441138Y-119663931D01*
X114441138Y-119663931D02*
X114382601Y-119713569D01*
X114382601Y-119713569D02*
X114334237Y-119749981D01*
X114334237Y-119749981D02*
X114328600Y-119753721D01*
X114328600Y-119753721D02*
X114202176Y-119822651D01*
X114202176Y-119822651D02*
X114069029Y-119870911D01*
X114069029Y-119870911D02*
X113932949Y-119897852D01*
X113932949Y-119897852D02*
X113797726Y-119902823D01*
X113797726Y-119902823D02*
X113667149Y-119885173D01*
X113667149Y-119885173D02*
X113626045Y-119874369D01*
X113626045Y-119874369D02*
X113546275Y-119845860D01*
X113546275Y-119845860D02*
X113456007Y-119805771D01*
X113456007Y-119805771D02*
X113364416Y-119758592D01*
X113364416Y-119758592D02*
X113280675Y-119708812D01*
X113280675Y-119708812D02*
X113260663Y-119695550D01*
X113260663Y-119695550D02*
X113192204Y-119645689D01*
X113192204Y-119645689D02*
X113130883Y-119593145D01*
X113130883Y-119593145D02*
X113073659Y-119534288D01*
X113073659Y-119534288D02*
X113017488Y-119465490D01*
X113017488Y-119465490D02*
X112959330Y-119383122D01*
X112959330Y-119383122D02*
X112896141Y-119283556D01*
X112896141Y-119283556D02*
X112848846Y-119204344D01*
X112848846Y-119204344D02*
X112774800Y-119078039D01*
X112774800Y-119078039D02*
X112894475Y-118966936D01*
X112894475Y-118966936D02*
X112939251Y-118926694D01*
X112939251Y-118926694D02*
X112976949Y-118895325D01*
X112976949Y-118895325D02*
X113004049Y-118875572D01*
X113004049Y-118875572D02*
X113017033Y-118870175D01*
X113017033Y-118870175D02*
X113017612Y-118870991D01*
X113017612Y-118870991D02*
X113020064Y-118888795D01*
X113020064Y-118888795D02*
X113024286Y-118926592D01*
X113024286Y-118926592D02*
X113029716Y-118979084D01*
X113029716Y-118979084D02*
X113035788Y-119040971D01*
X113035788Y-119040971D02*
X113036662Y-119050129D01*
X113036662Y-119050129D02*
X113052250Y-119214109D01*
X113052250Y-119214109D02*
X113256052Y-119017576D01*
X113256052Y-119017576D02*
X113325065Y-118951500D01*
X113325065Y-118951500D02*
X113379106Y-118901121D01*
X113379106Y-118901121D02*
X113421080Y-118864089D01*
X113421080Y-118864089D02*
X113453893Y-118838058D01*
X113453893Y-118838058D02*
X113480450Y-118820680D01*
X113480450Y-118820680D02*
X113503657Y-118809608D01*
X113503657Y-118809608D02*
X113520249Y-118804132D01*
X113520249Y-118804132D02*
X113565900Y-118796084D01*
X113565900Y-118796084D02*
X113622441Y-118792868D01*
X113622441Y-118792868D02*
X113682859Y-118794064D01*
X113682859Y-118794064D02*
X113740143Y-118799253D01*
X113740143Y-118799253D02*
X113787281Y-118808016D01*
X113787281Y-118808016D02*
X113817263Y-118819934D01*
X113817263Y-118819934D02*
X113819931Y-118822043D01*
X113819931Y-118822043D02*
X113840564Y-118834646D01*
X113840564Y-118834646D02*
X113861041Y-118827093D01*
X113861041Y-118827093D02*
X113864144Y-118824883D01*
X113864144Y-118824883D02*
X113881869Y-118800751D01*
X113881869Y-118800751D02*
X113879059Y-118776377D01*
X113879059Y-118776377D02*
X113858259Y-118760520D01*
X113858259Y-118760520D02*
X113844849Y-118758509D01*
X113844849Y-118758509D02*
X113814992Y-118753155D01*
X113814992Y-118753155D02*
X113774757Y-118740243D01*
X113774757Y-118740243D02*
X113732521Y-118723207D01*
X113732521Y-118723207D02*
X113696660Y-118705477D01*
X113696660Y-118705477D02*
X113675549Y-118690486D01*
X113675549Y-118690486D02*
X113674079Y-118688536D01*
X113674079Y-118688536D02*
X113668706Y-118658468D01*
X113668706Y-118658468D02*
X113688487Y-118626683D01*
X113688487Y-118626683D02*
X113733246Y-118593400D01*
X113733246Y-118593400D02*
X113759846Y-118578828D01*
X113759846Y-118578828D02*
X113803133Y-118557441D01*
X113803133Y-118557441D02*
X113839810Y-118540466D01*
X113839810Y-118540466D02*
X113861875Y-118531602D01*
X113861875Y-118531602D02*
X113880089Y-118515337D01*
X113880089Y-118515337D02*
X113882620Y-118488868D01*
X113882620Y-118488868D02*
X113868860Y-118463239D01*
X113868860Y-118463239D02*
X113843202Y-118448845D01*
X113843202Y-118448845D02*
X113822284Y-118457471D01*
X113822284Y-118457471D02*
X113814715Y-118471935D01*
X113814715Y-118471935D02*
X113799035Y-118489818D01*
X113799035Y-118489818D02*
X113762346Y-118506069D01*
X113762346Y-118506069D02*
X113728134Y-118515859D01*
X113728134Y-118515859D02*
X113684794Y-118526226D01*
X113684794Y-118526226D02*
X113658505Y-118529600D01*
X113658505Y-118529600D02*
X113641810Y-118525658D01*
X113641810Y-118525658D02*
X113627251Y-118514075D01*
X113627251Y-118514075D02*
X113624477Y-118511347D01*
X113624477Y-118511347D02*
X113607729Y-118479710D01*
X113607729Y-118479710D02*
X113601282Y-118435250D01*
X113601282Y-118435250D02*
X113604785Y-118388065D01*
X113604785Y-118388065D02*
X113617888Y-118348249D01*
X113617888Y-118348249D02*
X113630713Y-118331664D01*
X113630713Y-118331664D02*
X113652731Y-118302124D01*
X113652731Y-118302124D02*
X113650593Y-118273306D01*
X113650593Y-118273306D02*
X113641730Y-118261509D01*
X113641730Y-118261509D02*
X113619197Y-118252544D01*
X113619197Y-118252544D02*
X113594720Y-118258461D01*
X113594720Y-118258461D02*
X113580057Y-118275549D01*
X113580057Y-118275549D02*
X113579302Y-118281206D01*
X113579302Y-118281206D02*
X113574439Y-118302947D01*
X113574439Y-118302947D02*
X113561716Y-118339628D01*
X113561716Y-118339628D02*
X113544726Y-118381325D01*
X113544726Y-118381325D02*
X113524687Y-118424297D01*
X113524687Y-118424297D02*
X113508789Y-118448435D01*
X113508789Y-118448435D02*
X113492673Y-118458838D01*
X113492673Y-118458838D02*
X113476885Y-118460700D01*
X113476885Y-118460700D02*
X113457593Y-118458006D01*
X113457593Y-118458006D02*
X113443971Y-118446183D01*
X113443971Y-118446183D02*
X113431837Y-118419615D01*
X113431837Y-118419615D02*
X113420835Y-118385438D01*
X113420835Y-118385438D02*
X113409711Y-118340956D01*
X113409711Y-118340956D02*
X113404255Y-118302878D01*
X113404255Y-118302878D02*
X113404978Y-118283672D01*
X113404978Y-118283672D02*
X113402173Y-118256694D01*
X113402173Y-118256694D02*
X113383489Y-118240385D01*
X113383489Y-118240385D02*
X113357696Y-118239270D01*
X113357696Y-118239270D02*
X113339942Y-118250115D01*
X113339942Y-118250115D02*
X113326497Y-118270616D01*
X113326497Y-118270616D02*
X113333492Y-118293045D01*
X113333492Y-118293045D02*
X113335074Y-118295632D01*
X113335074Y-118295632D02*
X113343015Y-118322301D01*
X113343015Y-118322301D02*
X113348323Y-118370609D01*
X113348323Y-118370609D02*
X113350631Y-118436894D01*
X113350631Y-118436894D02*
X113350700Y-118452131D01*
X113350700Y-118452131D02*
X113350700Y-118583608D01*
X113350700Y-118583608D02*
X113252542Y-118719758D01*
X113252542Y-118719758D02*
X113216737Y-118769889D01*
X113216737Y-118769889D02*
X113189930Y-118805877D01*
X113189930Y-118805877D02*
X113170377Y-118826241D01*
X113170377Y-118826241D02*
X113156338Y-118829498D01*
X113156338Y-118829498D02*
X113146070Y-118814168D01*
X113146070Y-118814168D02*
X113137831Y-118778767D01*
X113137831Y-118778767D02*
X113129880Y-118721814D01*
X113129880Y-118721814D02*
X113120474Y-118641826D01*
X113120474Y-118641826D02*
X113115977Y-118603575D01*
X113115977Y-118603575D02*
X113107573Y-118536901D01*
X113107573Y-118536901D02*
X113099524Y-118480172D01*
X113099524Y-118480172D02*
X113092513Y-118437697D01*
X113092513Y-118437697D02*
X113087224Y-118413783D01*
X113087224Y-118413783D02*
X113085292Y-118410104D01*
X113085292Y-118410104D02*
X113073972Y-118418297D01*
X113073972Y-118418297D02*
X113046830Y-118441038D01*
X113046830Y-118441038D02*
X113006816Y-118475761D01*
X113006816Y-118475761D02*
X112956878Y-118519903D01*
X112956878Y-118519903D02*
X112899965Y-118570897D01*
X112899965Y-118570897D02*
X112888185Y-118581530D01*
X112888185Y-118581530D02*
X112830615Y-118633288D01*
X112830615Y-118633288D02*
X112779808Y-118678453D01*
X112779808Y-118678453D02*
X112738619Y-118714530D01*
X112738619Y-118714530D02*
X112709903Y-118739023D01*
X112709903Y-118739023D02*
X112696515Y-118749436D01*
X112696515Y-118749436D02*
X112695917Y-118749601D01*
X112695917Y-118749601D02*
X112695669Y-118736505D01*
X112695669Y-118736505D02*
X112696909Y-118702703D01*
X112696909Y-118702703D02*
X112699419Y-118652832D01*
X112699419Y-118652832D02*
X112702982Y-118591527D01*
X112702982Y-118591527D02*
X112704411Y-118568650D01*
X112704411Y-118568650D02*
X112707971Y-118500195D01*
X112707971Y-118500195D02*
X112709378Y-118435160D01*
X112709378Y-118435160D02*
X112708458Y-118367824D01*
X112708458Y-118367824D02*
X112705035Y-118292471D01*
X112705035Y-118292471D02*
X112698936Y-118203382D01*
X112698936Y-118203382D02*
X112689984Y-118094839D01*
X112689984Y-118094839D02*
X112689899Y-118093862D01*
X112689899Y-118093862D02*
X112682780Y-118009940D01*
X112682780Y-118009940D02*
X112676745Y-117934878D01*
X112676745Y-117934878D02*
X112672052Y-117872233D01*
X112672052Y-117872233D02*
X112668960Y-117825560D01*
X112668960Y-117825560D02*
X112667727Y-117798417D01*
X112667727Y-117798417D02*
X112668012Y-117792954D01*
X112668012Y-117792954D02*
X112679911Y-117797274D01*
X112679911Y-117797274D02*
X112709534Y-117811906D01*
X112709534Y-117811906D02*
X112752527Y-117834606D01*
X112752527Y-117834606D02*
X112804535Y-117863130D01*
X112804535Y-117863130D02*
X112809083Y-117865667D01*
X112809083Y-117865667D02*
X112861551Y-117894523D01*
X112861551Y-117894523D02*
X112905275Y-117917695D01*
X112905275Y-117917695D02*
X112935931Y-117932956D01*
X112935931Y-117932956D02*
X112949197Y-117938078D01*
X112949197Y-117938078D02*
X112949384Y-117937975D01*
X112949384Y-117937975D02*
X112969673Y-117912222D01*
X112969673Y-117912222D02*
X113001600Y-117874131D01*
X113001600Y-117874131D02*
X113041851Y-117827416D01*
X113041851Y-117827416D02*
X113087114Y-117775791D01*
X113087114Y-117775791D02*
X113134074Y-117722970D01*
X113134074Y-117722970D02*
X113179420Y-117672667D01*
X113179420Y-117672667D02*
X113219837Y-117628596D01*
X113219837Y-117628596D02*
X113252012Y-117594470D01*
X113252012Y-117594470D02*
X113272633Y-117574004D01*
X113272633Y-117574004D02*
X113277628Y-117570026D01*
X113277628Y-117570026D02*
X113320934Y-117550180D01*
X113320934Y-117550180D02*
X113371328Y-117532003D01*
X113371328Y-117532003D02*
X113421920Y-117517384D01*
X113421920Y-117517384D02*
X113465821Y-117508210D01*
X113465821Y-117508210D02*
X113496143Y-117506370D01*
X113496143Y-117506370D02*
X113503142Y-117508222D01*
X113503142Y-117508222D02*
X113528121Y-117510383D01*
X113528121Y-117510383D02*
X113546990Y-117495098D01*
X113546990Y-117495098D02*
X113551323Y-117470218D01*
X113551323Y-117470218D02*
X113549724Y-117464834D01*
X113549724Y-117464834D02*
X113540761Y-117455451D01*
X113540761Y-117455451D02*
X113519816Y-117451194D01*
X113519816Y-117451194D02*
X113481833Y-117451504D01*
X113481833Y-117451504D02*
X113448626Y-117453660D01*
X113448626Y-117453660D02*
X113400423Y-117456864D01*
X113400423Y-117456864D02*
X113371705Y-117456548D01*
X113371705Y-117456548D02*
X113356653Y-117451407D01*
X113356653Y-117451407D02*
X113349447Y-117440136D01*
X113349447Y-117440136D02*
X113346706Y-117430797D01*
X113346706Y-117430797D02*
X113345787Y-117402641D01*
X113345787Y-117402641D02*
X113359215Y-117371205D01*
X113359215Y-117371205D02*
X113389369Y-117332287D01*
X113389369Y-117332287D02*
X113421694Y-117298352D01*
X113421694Y-117298352D02*
X113450510Y-117262940D01*
X113450510Y-117262940D02*
X113459254Y-117235914D01*
X113459254Y-117235914D02*
X113447760Y-117219707D01*
X113447760Y-117219707D02*
X113427299Y-117216100D01*
X113427299Y-117216100D02*
X113405594Y-117224952D01*
X113405594Y-117224952D02*
X113401478Y-117238325D01*
X113401478Y-117238325D02*
X113390728Y-117259368D01*
X113390728Y-117259368D02*
X113363809Y-117283479D01*
X113363809Y-117283479D02*
X113328663Y-117305735D01*
X113328663Y-117305735D02*
X113293235Y-117321215D01*
X113293235Y-117321215D02*
X113265464Y-117325000D01*
X113265464Y-117325000D02*
X113262673Y-117324326D01*
X113262673Y-117324326D02*
X113242541Y-117306677D01*
X113242541Y-117306677D02*
X113225212Y-117273074D01*
X113225212Y-117273074D02*
X113213625Y-117232960D01*
X113213625Y-117232960D02*
X113210722Y-117195780D01*
X113210722Y-117195780D02*
X113216225Y-117175141D01*
X113216225Y-117175141D02*
X113222240Y-117150657D01*
X113222240Y-117150657D02*
X113214711Y-117138530D01*
X113214711Y-117138530D02*
X113191824Y-117128958D01*
X113191824Y-117128958D02*
X113171085Y-117138782D01*
X113171085Y-117138782D02*
X113161517Y-117162944D01*
X113161517Y-117162944D02*
X113161663Y-117168273D01*
X113161663Y-117168273D02*
X113162747Y-117197843D01*
X113162747Y-117197843D02*
X113162672Y-117240178D01*
X113162672Y-117240178D02*
X113162176Y-117262243D01*
X113162176Y-117262243D02*
X113159076Y-117302675D01*
X113159076Y-117302675D02*
X113151331Y-117324301D01*
X113151331Y-117324301D02*
X113136545Y-117333617D01*
X113136545Y-117333617D02*
X113135767Y-117333826D01*
X113135767Y-117333826D02*
X113113212Y-117328149D01*
X113113212Y-117328149D02*
X113085007Y-117305866D01*
X113085007Y-117305866D02*
X113056873Y-117273085D01*
X113056873Y-117273085D02*
X113034534Y-117235913D01*
X113034534Y-117235913D02*
X113027565Y-117218350D01*
X113027565Y-117218350D02*
X113012069Y-117195779D01*
X113012069Y-117195779D02*
X112990964Y-117193134D01*
X112990964Y-117193134D02*
X112967547Y-117204634D01*
X112967547Y-117204634D02*
X112959679Y-117224096D01*
X112959679Y-117224096D02*
X112969457Y-117242056D01*
X112969457Y-117242056D02*
X112979070Y-117246792D01*
X112979070Y-117246792D02*
X112993615Y-117261956D01*
X112993615Y-117261956D02*
X113011483Y-117295496D01*
X113011483Y-117295496D02*
X113030371Y-117341017D01*
X113030371Y-117341017D02*
X113047975Y-117392127D01*
X113047975Y-117392127D02*
X113061991Y-117442432D01*
X113061991Y-117442432D02*
X113070115Y-117485538D01*
X113070115Y-117485538D02*
X113071248Y-117502606D01*
X113071248Y-117502606D02*
X113063347Y-117534520D01*
X113063347Y-117534520D02*
X113040771Y-117582604D01*
X113040771Y-117582604D02*
X113005112Y-117643517D01*
X113005112Y-117643517D02*
X113000770Y-117650371D01*
X113000770Y-117650371D02*
X112930345Y-117760792D01*
X112930345Y-117760792D02*
X112794448Y-117689703D01*
X112794448Y-117689703D02*
X112740962Y-117661472D01*
X112740962Y-117661472D02*
X112695738Y-117637129D01*
X112695738Y-117637129D02*
X112663536Y-117619270D01*
X112663536Y-117619270D02*
X112649119Y-117610489D01*
X112649119Y-117610489D02*
X112649111Y-117610482D01*
X112649111Y-117610482D02*
X112646221Y-117595248D01*
X112646221Y-117595248D02*
X112645666Y-117560246D01*
X112645666Y-117560246D02*
X112647395Y-117510997D01*
X112647395Y-117510997D02*
X112650489Y-117463748D01*
X112650489Y-117463748D02*
X112654900Y-117399974D01*
X112654900Y-117399974D02*
X112656095Y-117355072D01*
X112656095Y-117355072D02*
X112653653Y-117322671D01*
X112653653Y-117322671D02*
X112647156Y-117296398D01*
X112647156Y-117296398D02*
X112637982Y-117273798D01*
X112637982Y-117273798D02*
X112623004Y-117231579D01*
X112623004Y-117231579D02*
X112614856Y-117190687D01*
X112614856Y-117190687D02*
X112614379Y-117182106D01*
X112614379Y-117182106D02*
X112608030Y-117148906D01*
X112608030Y-117148906D02*
X112594070Y-117137656D01*
X112594070Y-117137656D02*
X112580731Y-117124905D01*
X112580731Y-117124905D02*
X112560123Y-117093243D01*
X112560123Y-117093243D02*
X112534912Y-117047136D01*
X112534912Y-117047136D02*
X112511984Y-117000200D01*
X112511984Y-117000200D02*
X112473293Y-116922369D01*
X112473293Y-116922369D02*
X112439944Y-116869000D01*
X112439944Y-116869000D02*
X112410310Y-116840130D01*
X112410310Y-116840130D02*
X112382765Y-116835795D01*
X112382765Y-116835795D02*
X112355682Y-116856032D01*
X112355682Y-116856032D02*
X112355682Y-116856032D01*
G36*
X112410310Y-116840130D02*
G01*
X112439944Y-116869000D01*
X112473293Y-116922369D01*
X112511984Y-117000200D01*
X112534912Y-117047136D01*
X112560123Y-117093243D01*
X112580731Y-117124905D01*
X112594070Y-117137656D01*
X112608030Y-117148906D01*
X112614379Y-117182106D01*
X112614856Y-117190687D01*
X112623004Y-117231579D01*
X112637982Y-117273798D01*
X112647156Y-117296398D01*
X112653653Y-117322671D01*
X112656095Y-117355072D01*
X112654900Y-117399974D01*
X112650489Y-117463748D01*
X112647395Y-117510997D01*
X112645666Y-117560246D01*
X112646221Y-117595248D01*
X112649111Y-117610482D01*
X112649119Y-117610489D01*
X112663536Y-117619270D01*
X112695738Y-117637129D01*
X112740962Y-117661472D01*
X112794448Y-117689703D01*
X112930345Y-117760792D01*
X113000770Y-117650371D01*
X113005112Y-117643517D01*
X113040771Y-117582604D01*
X113063347Y-117534520D01*
X113071248Y-117502606D01*
X113070115Y-117485538D01*
X113061991Y-117442432D01*
X113047975Y-117392127D01*
X113030371Y-117341017D01*
X113011483Y-117295496D01*
X112993615Y-117261956D01*
X112979070Y-117246792D01*
X112969457Y-117242056D01*
X112959679Y-117224096D01*
X112967547Y-117204634D01*
X112990964Y-117193134D01*
X113012069Y-117195779D01*
X113027565Y-117218350D01*
X113034534Y-117235913D01*
X113056873Y-117273085D01*
X113085007Y-117305866D01*
X113113212Y-117328149D01*
X113135767Y-117333826D01*
X113136545Y-117333617D01*
X113151331Y-117324301D01*
X113159076Y-117302675D01*
X113162176Y-117262243D01*
X113162672Y-117240178D01*
X113162747Y-117197843D01*
X113161663Y-117168273D01*
X113161517Y-117162944D01*
X113171085Y-117138782D01*
X113191824Y-117128958D01*
X113214711Y-117138530D01*
X113222240Y-117150657D01*
X113216225Y-117175141D01*
X113210722Y-117195780D01*
X113213625Y-117232960D01*
X113225212Y-117273074D01*
X113242541Y-117306677D01*
X113262673Y-117324326D01*
X113265464Y-117325000D01*
X113293235Y-117321215D01*
X113328663Y-117305735D01*
X113363809Y-117283479D01*
X113390728Y-117259368D01*
X113401478Y-117238325D01*
X113405594Y-117224952D01*
X113427299Y-117216100D01*
X113447760Y-117219707D01*
X113459254Y-117235914D01*
X113450510Y-117262940D01*
X113421694Y-117298352D01*
X113389369Y-117332287D01*
X113359215Y-117371205D01*
X113345787Y-117402641D01*
X113346706Y-117430797D01*
X113349447Y-117440136D01*
X113356653Y-117451407D01*
X113371705Y-117456548D01*
X113400423Y-117456864D01*
X113448626Y-117453660D01*
X113481833Y-117451504D01*
X113519816Y-117451194D01*
X113540761Y-117455451D01*
X113549724Y-117464834D01*
X113551323Y-117470218D01*
X113546990Y-117495098D01*
X113528121Y-117510383D01*
X113503142Y-117508222D01*
X113496143Y-117506370D01*
X113465821Y-117508210D01*
X113421920Y-117517384D01*
X113371328Y-117532003D01*
X113320934Y-117550180D01*
X113277628Y-117570026D01*
X113272633Y-117574004D01*
X113252012Y-117594470D01*
X113219837Y-117628596D01*
X113179420Y-117672667D01*
X113134074Y-117722970D01*
X113087114Y-117775791D01*
X113041851Y-117827416D01*
X113001600Y-117874131D01*
X112969673Y-117912222D01*
X112949384Y-117937975D01*
X112949197Y-117938078D01*
X112935931Y-117932956D01*
X112905275Y-117917695D01*
X112861551Y-117894523D01*
X112809083Y-117865667D01*
X112804535Y-117863130D01*
X112752527Y-117834606D01*
X112709534Y-117811906D01*
X112679911Y-117797274D01*
X112668012Y-117792954D01*
X112667727Y-117798417D01*
X112668960Y-117825560D01*
X112672052Y-117872233D01*
X112676745Y-117934878D01*
X112682780Y-118009940D01*
X112689899Y-118093862D01*
X112689984Y-118094839D01*
X112698936Y-118203382D01*
X112705035Y-118292471D01*
X112708458Y-118367824D01*
X112709378Y-118435160D01*
X112707971Y-118500195D01*
X112704411Y-118568650D01*
X112702982Y-118591527D01*
X112699419Y-118652832D01*
X112696909Y-118702703D01*
X112695669Y-118736505D01*
X112695917Y-118749601D01*
X112696515Y-118749436D01*
X112709903Y-118739023D01*
X112738619Y-118714530D01*
X112779808Y-118678453D01*
X112830615Y-118633288D01*
X112888185Y-118581530D01*
X112899965Y-118570897D01*
X112956878Y-118519903D01*
X113006816Y-118475761D01*
X113046830Y-118441038D01*
X113073972Y-118418297D01*
X113085292Y-118410104D01*
X113087224Y-118413783D01*
X113092513Y-118437697D01*
X113099524Y-118480172D01*
X113107573Y-118536901D01*
X113115977Y-118603575D01*
X113120474Y-118641826D01*
X113129880Y-118721814D01*
X113137831Y-118778767D01*
X113146070Y-118814168D01*
X113156338Y-118829498D01*
X113170377Y-118826241D01*
X113189930Y-118805877D01*
X113216737Y-118769889D01*
X113252542Y-118719758D01*
X113350700Y-118583608D01*
X113350700Y-118452131D01*
X113350631Y-118436894D01*
X113348323Y-118370609D01*
X113343015Y-118322301D01*
X113335074Y-118295632D01*
X113333492Y-118293045D01*
X113326497Y-118270616D01*
X113339942Y-118250115D01*
X113357696Y-118239270D01*
X113383489Y-118240385D01*
X113402173Y-118256694D01*
X113404978Y-118283672D01*
X113404255Y-118302878D01*
X113409711Y-118340956D01*
X113420835Y-118385438D01*
X113431837Y-118419615D01*
X113443971Y-118446183D01*
X113457593Y-118458006D01*
X113476885Y-118460700D01*
X113492673Y-118458838D01*
X113508789Y-118448435D01*
X113524687Y-118424297D01*
X113544726Y-118381325D01*
X113561716Y-118339628D01*
X113574439Y-118302947D01*
X113579302Y-118281206D01*
X113580057Y-118275549D01*
X113594720Y-118258461D01*
X113619197Y-118252544D01*
X113641730Y-118261509D01*
X113650593Y-118273306D01*
X113652731Y-118302124D01*
X113630713Y-118331664D01*
X113617888Y-118348249D01*
X113604785Y-118388065D01*
X113601282Y-118435250D01*
X113607729Y-118479710D01*
X113624477Y-118511347D01*
X113627251Y-118514075D01*
X113641810Y-118525658D01*
X113658505Y-118529600D01*
X113684794Y-118526226D01*
X113728134Y-118515859D01*
X113762346Y-118506069D01*
X113799035Y-118489818D01*
X113814715Y-118471935D01*
X113822284Y-118457471D01*
X113843202Y-118448845D01*
X113868860Y-118463239D01*
X113882620Y-118488868D01*
X113880089Y-118515337D01*
X113861875Y-118531602D01*
X113839810Y-118540466D01*
X113803133Y-118557441D01*
X113759846Y-118578828D01*
X113733246Y-118593400D01*
X113688487Y-118626683D01*
X113668706Y-118658468D01*
X113674079Y-118688536D01*
X113675549Y-118690486D01*
X113696660Y-118705477D01*
X113732521Y-118723207D01*
X113774757Y-118740243D01*
X113814992Y-118753155D01*
X113844849Y-118758509D01*
X113858259Y-118760520D01*
X113879059Y-118776377D01*
X113881869Y-118800751D01*
X113864144Y-118824883D01*
X113861041Y-118827093D01*
X113840564Y-118834646D01*
X113819931Y-118822043D01*
X113817263Y-118819934D01*
X113787281Y-118808016D01*
X113740143Y-118799253D01*
X113682859Y-118794064D01*
X113622441Y-118792868D01*
X113565900Y-118796084D01*
X113520249Y-118804132D01*
X113503657Y-118809608D01*
X113480450Y-118820680D01*
X113453893Y-118838058D01*
X113421080Y-118864089D01*
X113379106Y-118901121D01*
X113325065Y-118951500D01*
X113256052Y-119017576D01*
X113052250Y-119214109D01*
X113036662Y-119050129D01*
X113035788Y-119040971D01*
X113029716Y-118979084D01*
X113024286Y-118926592D01*
X113020064Y-118888795D01*
X113017612Y-118870991D01*
X113017033Y-118870175D01*
X113004049Y-118875572D01*
X112976949Y-118895325D01*
X112939251Y-118926694D01*
X112894475Y-118966936D01*
X112774800Y-119078039D01*
X112848846Y-119204344D01*
X112896141Y-119283556D01*
X112959330Y-119383122D01*
X113017488Y-119465490D01*
X113073659Y-119534288D01*
X113130883Y-119593145D01*
X113192204Y-119645689D01*
X113260663Y-119695550D01*
X113280675Y-119708812D01*
X113364416Y-119758592D01*
X113456007Y-119805771D01*
X113546275Y-119845860D01*
X113626045Y-119874369D01*
X113667149Y-119885173D01*
X113797726Y-119902823D01*
X113932949Y-119897852D01*
X114069029Y-119870911D01*
X114202176Y-119822651D01*
X114328600Y-119753721D01*
X114334237Y-119749981D01*
X114382601Y-119713569D01*
X114441138Y-119663931D01*
X114504225Y-119606340D01*
X114566239Y-119546071D01*
X114621556Y-119488400D01*
X114664554Y-119438600D01*
X114699790Y-119394150D01*
X114670517Y-119444950D01*
X114610546Y-119539309D01*
X114506276Y-119669106D01*
X114388298Y-119780765D01*
X114258703Y-119872877D01*
X114119582Y-119944030D01*
X113973028Y-119992813D01*
X113821133Y-120017816D01*
X113777897Y-120019808D01*
X113688482Y-120017588D01*
X113590428Y-120008921D01*
X113493598Y-119994799D01*
X113407850Y-119976214D01*
X113336512Y-119952837D01*
X113251379Y-119917697D01*
X113162824Y-119875371D01*
X113079406Y-119829960D01*
X113009686Y-119785560D01*
X112942140Y-119733026D01*
X112856314Y-119655183D01*
X112772742Y-119568610D01*
X112698092Y-119480294D01*
X112639034Y-119397224D01*
X112617673Y-119363764D01*
X112591102Y-119323920D01*
X112571460Y-119296630D01*
X112561916Y-119286448D01*
X112552078Y-119292976D01*
X112527210Y-119313801D01*
X112491554Y-119345541D01*
X112449117Y-119384707D01*
X112344054Y-119483215D01*
X112520352Y-119643490D01*
X112563475Y-119682471D01*
X112625632Y-119738338D01*
X112671802Y-119781081D01*
X112703202Y-119813818D01*
X112721048Y-119839667D01*
X112726555Y-119861746D01*
X112720940Y-119883175D01*
X112705419Y-119907072D01*
X112681207Y-119936556D01*
X112649522Y-119974744D01*
X112644233Y-119981327D01*
X112589009Y-120050374D01*
X112547422Y-120104149D01*
X112517389Y-120146843D01*
X112496827Y-120182648D01*
X112483652Y-120215756D01*
X112475783Y-120250358D01*
X112471137Y-120290646D01*
X112467631Y-120340811D01*
X112465114Y-120383383D01*
X112463549Y-120431159D01*
X112465115Y-120461795D01*
X112470189Y-120480222D01*
X112479148Y-120491370D01*
X112491642Y-120507782D01*
X112486387Y-120532133D01*
X112481427Y-120539697D01*
X112458559Y-120554110D01*
X112434007Y-120551417D01*
X112416364Y-120534634D01*
X112414219Y-120506780D01*
X112414604Y-120484470D01*
X112408485Y-120445116D01*
X112396923Y-120399305D01*
X112394491Y-120391235D01*
X112381448Y-120351456D01*
X112370576Y-120330440D01*
X112358062Y-120323182D01*
X112340093Y-120324674D01*
X112321600Y-120331869D01*
X112300506Y-120354148D01*
X112278801Y-120395925D01*
X112268004Y-120421388D01*
X112251467Y-120464443D01*
X112241142Y-120496699D01*
X112231892Y-120516570D01*
X112210416Y-120529086D01*
X112186482Y-120521723D01*
X112167780Y-120494693D01*
X112165827Y-120489066D01*
X112164346Y-120468329D01*
X112180693Y-120458700D01*
X112188566Y-120455337D01*
X112203295Y-120435200D01*
X112212471Y-120394609D01*
X112218224Y-120346397D01*
X112218914Y-120313828D01*
X112213588Y-120291540D01*
X112201582Y-120272067D01*
X112200666Y-120270867D01*
X112188851Y-120259023D01*
X112172854Y-120254285D01*
X112145800Y-120256096D01*
X112100811Y-120263899D01*
X112099650Y-120264119D01*
X112050766Y-120275518D01*
X112022561Y-120287989D01*
X112010420Y-120303557D01*
X112010396Y-120303630D01*
X111993412Y-120323340D01*
X111967264Y-120325852D01*
X111942336Y-120310159D01*
X111933520Y-120283960D01*
X111945914Y-120259217D01*
X111976128Y-120243067D01*
X111997828Y-120235330D01*
X112036605Y-120217607D01*
X112079502Y-120195095D01*
X112084248Y-120192414D01*
X112124546Y-120166699D01*
X112146345Y-120144615D01*
X112154510Y-120121379D01*
X112155187Y-120110357D01*
X112149957Y-120092044D01*
X112131477Y-120075540D01*
X112094607Y-120055161D01*
X112068650Y-120043359D01*
X112025523Y-120028577D01*
X111992223Y-120022800D01*
X111991469Y-120022798D01*
X111964769Y-120021205D01*
X111953700Y-120017488D01*
X111952957Y-120013187D01*
X111946620Y-119993726D01*
X111946905Y-119977517D01*
X111960929Y-119953885D01*
X111974432Y-119942003D01*
X111988698Y-119941050D01*
X112009285Y-119957604D01*
X112014930Y-119962443D01*
X112033538Y-119972895D01*
X112060724Y-119979641D01*
X112102093Y-119983721D01*
X112163250Y-119986175D01*
X112229106Y-119986321D01*
X112295164Y-119981922D01*
X112341050Y-119972839D01*
X112367392Y-119961657D01*
X112405223Y-119940821D01*
X112444225Y-119915763D01*
X112478520Y-119890562D01*
X112502229Y-119869292D01*
X112509476Y-119856032D01*
X112506763Y-119853136D01*
X112487314Y-119837088D01*
X112451696Y-119809436D01*
X112402882Y-119772442D01*
X112343842Y-119728368D01*
X112277550Y-119679476D01*
X112245047Y-119655513D01*
X112182475Y-119608601D01*
X112128993Y-119567460D01*
X112087480Y-119534363D01*
X112060814Y-119511580D01*
X112051872Y-119501381D01*
X112054203Y-119497217D01*
X112069013Y-119475114D01*
X112095569Y-119437125D01*
X112131707Y-119386305D01*
X112175262Y-119325707D01*
X112224070Y-119258386D01*
X112248783Y-119224410D01*
X112295858Y-119159531D01*
X112336981Y-119102643D01*
X112369897Y-119056880D01*
X112392350Y-119025371D01*
X112402086Y-119011249D01*
X112402192Y-119007605D01*
X112394679Y-118984389D01*
X112377395Y-118943654D01*
X112351926Y-118888857D01*
X112319854Y-118823453D01*
X112282765Y-118750899D01*
X112154707Y-118505150D01*
X112174805Y-118182310D01*
X112179370Y-118106805D01*
X112183908Y-118026278D01*
X112187431Y-117957393D01*
X112189775Y-117903575D01*
X112190779Y-117868252D01*
X112190282Y-117854847D01*
X112188996Y-117855425D01*
X112177250Y-117870227D01*
X112155652Y-117901739D01*
X112126719Y-117946209D01*
X112092967Y-117999887D01*
X112082132Y-118017373D01*
X112049541Y-118069852D01*
X112022703Y-118112898D01*
X112004150Y-118142453D01*
X111996418Y-118154461D01*
X111993802Y-118154888D01*
X111971656Y-118153395D01*
X111930812Y-118148728D01*
X111875814Y-118141436D01*
X111811206Y-118132069D01*
X111788427Y-118128677D01*
X111722515Y-118119294D01*
X111665189Y-118111741D01*
X111621951Y-118106720D01*
X111598304Y-118104933D01*
X111569187Y-118110507D01*
X111527037Y-118125484D01*
X111478362Y-118146819D01*
X111429227Y-118171464D01*
X111385698Y-118196374D01*
X111353838Y-118218503D01*
X111339713Y-118234805D01*
X111332276Y-118249040D01*
X111310076Y-118255299D01*
X111309772Y-118255239D01*
X111292536Y-118243321D01*
X111283030Y-118222531D01*
X111283499Y-118202785D01*
X111296190Y-118194000D01*
X111302659Y-118192755D01*
X111326735Y-118178069D01*
X111354855Y-118152156D01*
X111381006Y-118121735D01*
X111399176Y-118093525D01*
X111403352Y-118074245D01*
X111386955Y-118062373D01*
X111353957Y-118055474D01*
X111312843Y-118053960D01*
X111272059Y-118058136D01*
X111240050Y-118068311D01*
X111221293Y-118073722D01*
X111200263Y-118063269D01*
X111191895Y-118033433D01*
X111191903Y-118032685D01*
X111202731Y-118016223D01*
X111225412Y-118008743D01*
X111247285Y-118014560D01*
X111248945Y-118015635D01*
X111271045Y-118016061D01*
X111303608Y-118005490D01*
X111338210Y-117988072D01*
X111366425Y-117967955D01*
X111379828Y-117949289D01*
X111374882Y-117925800D01*
X111356304Y-117893604D01*
X111330193Y-117861034D01*
X111302777Y-117835822D01*
X111280283Y-117825700D01*
X111267657Y-117824436D01*
X111248387Y-117810223D01*
X111250168Y-117782396D01*
X111255653Y-117770898D01*
X111265243Y-117764548D01*
X111281994Y-117768692D01*
X111310450Y-117784694D01*
X111355155Y-117813918D01*
X111405689Y-117844678D01*
X111443268Y-117858956D01*
X111467299Y-117854353D01*
X111480054Y-117830386D01*
X111483800Y-117786571D01*
X111483078Y-117766532D01*
X111477510Y-117726125D01*
X111468244Y-117698844D01*
X111459289Y-117677419D01*
X111467390Y-117659230D01*
X111471426Y-117655704D01*
X111494361Y-117650151D01*
X111513739Y-117663887D01*
X111521900Y-117692268D01*
X111525489Y-117712730D01*
X111539676Y-117753187D01*
X111561154Y-117801484D01*
X111586151Y-117849920D01*
X111610898Y-117890792D01*
X111631624Y-117916398D01*
X111643444Y-117923356D01*
X111674868Y-117936549D01*
X111718363Y-117952200D01*
X111767942Y-117968447D01*
X111817616Y-117983427D01*
X111861396Y-117995278D01*
X111893296Y-118002137D01*
X111907326Y-118002143D01*
X111915252Y-117991744D01*
X111936213Y-117964224D01*
X111967675Y-117922909D01*
X112007145Y-117871074D01*
X112052128Y-117811995D01*
X112193102Y-117626841D01*
X112174342Y-117483171D01*
X112173384Y-117475805D01*
X112165835Y-117413743D01*
X112162222Y-117370171D01*
X112162574Y-117339074D01*
X112166920Y-117314436D01*
X112175292Y-117290243D01*
X112177730Y-117283809D01*
X112190003Y-117238612D01*
X112195000Y-117196792D01*
X112195008Y-117195160D01*
X112199487Y-117164147D01*
X112210875Y-117152595D01*
X112211388Y-117152526D01*
X112222261Y-117139691D01*
X112239259Y-117107842D01*
X112260156Y-117061544D01*
X112282722Y-117005363D01*
X112296394Y-116970368D01*
X112327434Y-116900878D01*
X112355682Y-116856032D01*
X112382765Y-116835795D01*
X112410310Y-116840130D01*
G37*
X112410310Y-116840130D02*
X112439944Y-116869000D01*
X112473293Y-116922369D01*
X112511984Y-117000200D01*
X112534912Y-117047136D01*
X112560123Y-117093243D01*
X112580731Y-117124905D01*
X112594070Y-117137656D01*
X112608030Y-117148906D01*
X112614379Y-117182106D01*
X112614856Y-117190687D01*
X112623004Y-117231579D01*
X112637982Y-117273798D01*
X112647156Y-117296398D01*
X112653653Y-117322671D01*
X112656095Y-117355072D01*
X112654900Y-117399974D01*
X112650489Y-117463748D01*
X112647395Y-117510997D01*
X112645666Y-117560246D01*
X112646221Y-117595248D01*
X112649111Y-117610482D01*
X112649119Y-117610489D01*
X112663536Y-117619270D01*
X112695738Y-117637129D01*
X112740962Y-117661472D01*
X112794448Y-117689703D01*
X112930345Y-117760792D01*
X113000770Y-117650371D01*
X113005112Y-117643517D01*
X113040771Y-117582604D01*
X113063347Y-117534520D01*
X113071248Y-117502606D01*
X113070115Y-117485538D01*
X113061991Y-117442432D01*
X113047975Y-117392127D01*
X113030371Y-117341017D01*
X113011483Y-117295496D01*
X112993615Y-117261956D01*
X112979070Y-117246792D01*
X112969457Y-117242056D01*
X112959679Y-117224096D01*
X112967547Y-117204634D01*
X112990964Y-117193134D01*
X113012069Y-117195779D01*
X113027565Y-117218350D01*
X113034534Y-117235913D01*
X113056873Y-117273085D01*
X113085007Y-117305866D01*
X113113212Y-117328149D01*
X113135767Y-117333826D01*
X113136545Y-117333617D01*
X113151331Y-117324301D01*
X113159076Y-117302675D01*
X113162176Y-117262243D01*
X113162672Y-117240178D01*
X113162747Y-117197843D01*
X113161663Y-117168273D01*
X113161517Y-117162944D01*
X113171085Y-117138782D01*
X113191824Y-117128958D01*
X113214711Y-117138530D01*
X113222240Y-117150657D01*
X113216225Y-117175141D01*
X113210722Y-117195780D01*
X113213625Y-117232960D01*
X113225212Y-117273074D01*
X113242541Y-117306677D01*
X113262673Y-117324326D01*
X113265464Y-117325000D01*
X113293235Y-117321215D01*
X113328663Y-117305735D01*
X113363809Y-117283479D01*
X113390728Y-117259368D01*
X113401478Y-117238325D01*
X113405594Y-117224952D01*
X113427299Y-117216100D01*
X113447760Y-117219707D01*
X113459254Y-117235914D01*
X113450510Y-117262940D01*
X113421694Y-117298352D01*
X113389369Y-117332287D01*
X113359215Y-117371205D01*
X113345787Y-117402641D01*
X113346706Y-117430797D01*
X113349447Y-117440136D01*
X113356653Y-117451407D01*
X113371705Y-117456548D01*
X113400423Y-117456864D01*
X113448626Y-117453660D01*
X113481833Y-117451504D01*
X113519816Y-117451194D01*
X113540761Y-117455451D01*
X113549724Y-117464834D01*
X113551323Y-117470218D01*
X113546990Y-117495098D01*
X113528121Y-117510383D01*
X113503142Y-117508222D01*
X113496143Y-117506370D01*
X113465821Y-117508210D01*
X113421920Y-117517384D01*
X113371328Y-117532003D01*
X113320934Y-117550180D01*
X113277628Y-117570026D01*
X113272633Y-117574004D01*
X113252012Y-117594470D01*
X113219837Y-117628596D01*
X113179420Y-117672667D01*
X113134074Y-117722970D01*
X113087114Y-117775791D01*
X113041851Y-117827416D01*
X113001600Y-117874131D01*
X112969673Y-117912222D01*
X112949384Y-117937975D01*
X112949197Y-117938078D01*
X112935931Y-117932956D01*
X112905275Y-117917695D01*
X112861551Y-117894523D01*
X112809083Y-117865667D01*
X112804535Y-117863130D01*
X112752527Y-117834606D01*
X112709534Y-117811906D01*
X112679911Y-117797274D01*
X112668012Y-117792954D01*
X112667727Y-117798417D01*
X112668960Y-117825560D01*
X112672052Y-117872233D01*
X112676745Y-117934878D01*
X112682780Y-118009940D01*
X112689899Y-118093862D01*
X112689984Y-118094839D01*
X112698936Y-118203382D01*
X112705035Y-118292471D01*
X112708458Y-118367824D01*
X112709378Y-118435160D01*
X112707971Y-118500195D01*
X112704411Y-118568650D01*
X112702982Y-118591527D01*
X112699419Y-118652832D01*
X112696909Y-118702703D01*
X112695669Y-118736505D01*
X112695917Y-118749601D01*
X112696515Y-118749436D01*
X112709903Y-118739023D01*
X112738619Y-118714530D01*
X112779808Y-118678453D01*
X112830615Y-118633288D01*
X112888185Y-118581530D01*
X112899965Y-118570897D01*
X112956878Y-118519903D01*
X113006816Y-118475761D01*
X113046830Y-118441038D01*
X113073972Y-118418297D01*
X113085292Y-118410104D01*
X113087224Y-118413783D01*
X113092513Y-118437697D01*
X113099524Y-118480172D01*
X113107573Y-118536901D01*
X113115977Y-118603575D01*
X113120474Y-118641826D01*
X113129880Y-118721814D01*
X113137831Y-118778767D01*
X113146070Y-118814168D01*
X113156338Y-118829498D01*
X113170377Y-118826241D01*
X113189930Y-118805877D01*
X113216737Y-118769889D01*
X113252542Y-118719758D01*
X113350700Y-118583608D01*
X113350700Y-118452131D01*
X113350631Y-118436894D01*
X113348323Y-118370609D01*
X113343015Y-118322301D01*
X113335074Y-118295632D01*
X113333492Y-118293045D01*
X113326497Y-118270616D01*
X113339942Y-118250115D01*
X113357696Y-118239270D01*
X113383489Y-118240385D01*
X113402173Y-118256694D01*
X113404978Y-118283672D01*
X113404255Y-118302878D01*
X113409711Y-118340956D01*
X113420835Y-118385438D01*
X113431837Y-118419615D01*
X113443971Y-118446183D01*
X113457593Y-118458006D01*
X113476885Y-118460700D01*
X113492673Y-118458838D01*
X113508789Y-118448435D01*
X113524687Y-118424297D01*
X113544726Y-118381325D01*
X113561716Y-118339628D01*
X113574439Y-118302947D01*
X113579302Y-118281206D01*
X113580057Y-118275549D01*
X113594720Y-118258461D01*
X113619197Y-118252544D01*
X113641730Y-118261509D01*
X113650593Y-118273306D01*
X113652731Y-118302124D01*
X113630713Y-118331664D01*
X113617888Y-118348249D01*
X113604785Y-118388065D01*
X113601282Y-118435250D01*
X113607729Y-118479710D01*
X113624477Y-118511347D01*
X113627251Y-118514075D01*
X113641810Y-118525658D01*
X113658505Y-118529600D01*
X113684794Y-118526226D01*
X113728134Y-118515859D01*
X113762346Y-118506069D01*
X113799035Y-118489818D01*
X113814715Y-118471935D01*
X113822284Y-118457471D01*
X113843202Y-118448845D01*
X113868860Y-118463239D01*
X113882620Y-118488868D01*
X113880089Y-118515337D01*
X113861875Y-118531602D01*
X113839810Y-118540466D01*
X113803133Y-118557441D01*
X113759846Y-118578828D01*
X113733246Y-118593400D01*
X113688487Y-118626683D01*
X113668706Y-118658468D01*
X113674079Y-118688536D01*
X113675549Y-118690486D01*
X113696660Y-118705477D01*
X113732521Y-118723207D01*
X113774757Y-118740243D01*
X113814992Y-118753155D01*
X113844849Y-118758509D01*
X113858259Y-118760520D01*
X113879059Y-118776377D01*
X113881869Y-118800751D01*
X113864144Y-118824883D01*
X113861041Y-118827093D01*
X113840564Y-118834646D01*
X113819931Y-118822043D01*
X113817263Y-118819934D01*
X113787281Y-118808016D01*
X113740143Y-118799253D01*
X113682859Y-118794064D01*
X113622441Y-118792868D01*
X113565900Y-118796084D01*
X113520249Y-118804132D01*
X113503657Y-118809608D01*
X113480450Y-118820680D01*
X113453893Y-118838058D01*
X113421080Y-118864089D01*
X113379106Y-118901121D01*
X113325065Y-118951500D01*
X113256052Y-119017576D01*
X113052250Y-119214109D01*
X113036662Y-119050129D01*
X113035788Y-119040971D01*
X113029716Y-118979084D01*
X113024286Y-118926592D01*
X113020064Y-118888795D01*
X113017612Y-118870991D01*
X113017033Y-118870175D01*
X113004049Y-118875572D01*
X112976949Y-118895325D01*
X112939251Y-118926694D01*
X112894475Y-118966936D01*
X112774800Y-119078039D01*
X112848846Y-119204344D01*
X112896141Y-119283556D01*
X112959330Y-119383122D01*
X113017488Y-119465490D01*
X113073659Y-119534288D01*
X113130883Y-119593145D01*
X113192204Y-119645689D01*
X113260663Y-119695550D01*
X113280675Y-119708812D01*
X113364416Y-119758592D01*
X113456007Y-119805771D01*
X113546275Y-119845860D01*
X113626045Y-119874369D01*
X113667149Y-119885173D01*
X113797726Y-119902823D01*
X113932949Y-119897852D01*
X114069029Y-119870911D01*
X114202176Y-119822651D01*
X114328600Y-119753721D01*
X114334237Y-119749981D01*
X114382601Y-119713569D01*
X114441138Y-119663931D01*
X114504225Y-119606340D01*
X114566239Y-119546071D01*
X114621556Y-119488400D01*
X114664554Y-119438600D01*
X114699790Y-119394150D01*
X114670517Y-119444950D01*
X114610546Y-119539309D01*
X114506276Y-119669106D01*
X114388298Y-119780765D01*
X114258703Y-119872877D01*
X114119582Y-119944030D01*
X113973028Y-119992813D01*
X113821133Y-120017816D01*
X113777897Y-120019808D01*
X113688482Y-120017588D01*
X113590428Y-120008921D01*
X113493598Y-119994799D01*
X113407850Y-119976214D01*
X113336512Y-119952837D01*
X113251379Y-119917697D01*
X113162824Y-119875371D01*
X113079406Y-119829960D01*
X113009686Y-119785560D01*
X112942140Y-119733026D01*
X112856314Y-119655183D01*
X112772742Y-119568610D01*
X112698092Y-119480294D01*
X112639034Y-119397224D01*
X112617673Y-119363764D01*
X112591102Y-119323920D01*
X112571460Y-119296630D01*
X112561916Y-119286448D01*
X112552078Y-119292976D01*
X112527210Y-119313801D01*
X112491554Y-119345541D01*
X112449117Y-119384707D01*
X112344054Y-119483215D01*
X112520352Y-119643490D01*
X112563475Y-119682471D01*
X112625632Y-119738338D01*
X112671802Y-119781081D01*
X112703202Y-119813818D01*
X112721048Y-119839667D01*
X112726555Y-119861746D01*
X112720940Y-119883175D01*
X112705419Y-119907072D01*
X112681207Y-119936556D01*
X112649522Y-119974744D01*
X112644233Y-119981327D01*
X112589009Y-120050374D01*
X112547422Y-120104149D01*
X112517389Y-120146843D01*
X112496827Y-120182648D01*
X112483652Y-120215756D01*
X112475783Y-120250358D01*
X112471137Y-120290646D01*
X112467631Y-120340811D01*
X112465114Y-120383383D01*
X112463549Y-120431159D01*
X112465115Y-120461795D01*
X112470189Y-120480222D01*
X112479148Y-120491370D01*
X112491642Y-120507782D01*
X112486387Y-120532133D01*
X112481427Y-120539697D01*
X112458559Y-120554110D01*
X112434007Y-120551417D01*
X112416364Y-120534634D01*
X112414219Y-120506780D01*
X112414604Y-120484470D01*
X112408485Y-120445116D01*
X112396923Y-120399305D01*
X112394491Y-120391235D01*
X112381448Y-120351456D01*
X112370576Y-120330440D01*
X112358062Y-120323182D01*
X112340093Y-120324674D01*
X112321600Y-120331869D01*
X112300506Y-120354148D01*
X112278801Y-120395925D01*
X112268004Y-120421388D01*
X112251467Y-120464443D01*
X112241142Y-120496699D01*
X112231892Y-120516570D01*
X112210416Y-120529086D01*
X112186482Y-120521723D01*
X112167780Y-120494693D01*
X112165827Y-120489066D01*
X112164346Y-120468329D01*
X112180693Y-120458700D01*
X112188566Y-120455337D01*
X112203295Y-120435200D01*
X112212471Y-120394609D01*
X112218224Y-120346397D01*
X112218914Y-120313828D01*
X112213588Y-120291540D01*
X112201582Y-120272067D01*
X112200666Y-120270867D01*
X112188851Y-120259023D01*
X112172854Y-120254285D01*
X112145800Y-120256096D01*
X112100811Y-120263899D01*
X112099650Y-120264119D01*
X112050766Y-120275518D01*
X112022561Y-120287989D01*
X112010420Y-120303557D01*
X112010396Y-120303630D01*
X111993412Y-120323340D01*
X111967264Y-120325852D01*
X111942336Y-120310159D01*
X111933520Y-120283960D01*
X111945914Y-120259217D01*
X111976128Y-120243067D01*
X111997828Y-120235330D01*
X112036605Y-120217607D01*
X112079502Y-120195095D01*
X112084248Y-120192414D01*
X112124546Y-120166699D01*
X112146345Y-120144615D01*
X112154510Y-120121379D01*
X112155187Y-120110357D01*
X112149957Y-120092044D01*
X112131477Y-120075540D01*
X112094607Y-120055161D01*
X112068650Y-120043359D01*
X112025523Y-120028577D01*
X111992223Y-120022800D01*
X111991469Y-120022798D01*
X111964769Y-120021205D01*
X111953700Y-120017488D01*
X111952957Y-120013187D01*
X111946620Y-119993726D01*
X111946905Y-119977517D01*
X111960929Y-119953885D01*
X111974432Y-119942003D01*
X111988698Y-119941050D01*
X112009285Y-119957604D01*
X112014930Y-119962443D01*
X112033538Y-119972895D01*
X112060724Y-119979641D01*
X112102093Y-119983721D01*
X112163250Y-119986175D01*
X112229106Y-119986321D01*
X112295164Y-119981922D01*
X112341050Y-119972839D01*
X112367392Y-119961657D01*
X112405223Y-119940821D01*
X112444225Y-119915763D01*
X112478520Y-119890562D01*
X112502229Y-119869292D01*
X112509476Y-119856032D01*
X112506763Y-119853136D01*
X112487314Y-119837088D01*
X112451696Y-119809436D01*
X112402882Y-119772442D01*
X112343842Y-119728368D01*
X112277550Y-119679476D01*
X112245047Y-119655513D01*
X112182475Y-119608601D01*
X112128993Y-119567460D01*
X112087480Y-119534363D01*
X112060814Y-119511580D01*
X112051872Y-119501381D01*
X112054203Y-119497217D01*
X112069013Y-119475114D01*
X112095569Y-119437125D01*
X112131707Y-119386305D01*
X112175262Y-119325707D01*
X112224070Y-119258386D01*
X112248783Y-119224410D01*
X112295858Y-119159531D01*
X112336981Y-119102643D01*
X112369897Y-119056880D01*
X112392350Y-119025371D01*
X112402086Y-119011249D01*
X112402192Y-119007605D01*
X112394679Y-118984389D01*
X112377395Y-118943654D01*
X112351926Y-118888857D01*
X112319854Y-118823453D01*
X112282765Y-118750899D01*
X112154707Y-118505150D01*
X112174805Y-118182310D01*
X112179370Y-118106805D01*
X112183908Y-118026278D01*
X112187431Y-117957393D01*
X112189775Y-117903575D01*
X112190779Y-117868252D01*
X112190282Y-117854847D01*
X112188996Y-117855425D01*
X112177250Y-117870227D01*
X112155652Y-117901739D01*
X112126719Y-117946209D01*
X112092967Y-117999887D01*
X112082132Y-118017373D01*
X112049541Y-118069852D01*
X112022703Y-118112898D01*
X112004150Y-118142453D01*
X111996418Y-118154461D01*
X111993802Y-118154888D01*
X111971656Y-118153395D01*
X111930812Y-118148728D01*
X111875814Y-118141436D01*
X111811206Y-118132069D01*
X111788427Y-118128677D01*
X111722515Y-118119294D01*
X111665189Y-118111741D01*
X111621951Y-118106720D01*
X111598304Y-118104933D01*
X111569187Y-118110507D01*
X111527037Y-118125484D01*
X111478362Y-118146819D01*
X111429227Y-118171464D01*
X111385698Y-118196374D01*
X111353838Y-118218503D01*
X111339713Y-118234805D01*
X111332276Y-118249040D01*
X111310076Y-118255299D01*
X111309772Y-118255239D01*
X111292536Y-118243321D01*
X111283030Y-118222531D01*
X111283499Y-118202785D01*
X111296190Y-118194000D01*
X111302659Y-118192755D01*
X111326735Y-118178069D01*
X111354855Y-118152156D01*
X111381006Y-118121735D01*
X111399176Y-118093525D01*
X111403352Y-118074245D01*
X111386955Y-118062373D01*
X111353957Y-118055474D01*
X111312843Y-118053960D01*
X111272059Y-118058136D01*
X111240050Y-118068311D01*
X111221293Y-118073722D01*
X111200263Y-118063269D01*
X111191895Y-118033433D01*
X111191903Y-118032685D01*
X111202731Y-118016223D01*
X111225412Y-118008743D01*
X111247285Y-118014560D01*
X111248945Y-118015635D01*
X111271045Y-118016061D01*
X111303608Y-118005490D01*
X111338210Y-117988072D01*
X111366425Y-117967955D01*
X111379828Y-117949289D01*
X111374882Y-117925800D01*
X111356304Y-117893604D01*
X111330193Y-117861034D01*
X111302777Y-117835822D01*
X111280283Y-117825700D01*
X111267657Y-117824436D01*
X111248387Y-117810223D01*
X111250168Y-117782396D01*
X111255653Y-117770898D01*
X111265243Y-117764548D01*
X111281994Y-117768692D01*
X111310450Y-117784694D01*
X111355155Y-117813918D01*
X111405689Y-117844678D01*
X111443268Y-117858956D01*
X111467299Y-117854353D01*
X111480054Y-117830386D01*
X111483800Y-117786571D01*
X111483078Y-117766532D01*
X111477510Y-117726125D01*
X111468244Y-117698844D01*
X111459289Y-117677419D01*
X111467390Y-117659230D01*
X111471426Y-117655704D01*
X111494361Y-117650151D01*
X111513739Y-117663887D01*
X111521900Y-117692268D01*
X111525489Y-117712730D01*
X111539676Y-117753187D01*
X111561154Y-117801484D01*
X111586151Y-117849920D01*
X111610898Y-117890792D01*
X111631624Y-117916398D01*
X111643444Y-117923356D01*
X111674868Y-117936549D01*
X111718363Y-117952200D01*
X111767942Y-117968447D01*
X111817616Y-117983427D01*
X111861396Y-117995278D01*
X111893296Y-118002137D01*
X111907326Y-118002143D01*
X111915252Y-117991744D01*
X111936213Y-117964224D01*
X111967675Y-117922909D01*
X112007145Y-117871074D01*
X112052128Y-117811995D01*
X112193102Y-117626841D01*
X112174342Y-117483171D01*
X112173384Y-117475805D01*
X112165835Y-117413743D01*
X112162222Y-117370171D01*
X112162574Y-117339074D01*
X112166920Y-117314436D01*
X112175292Y-117290243D01*
X112177730Y-117283809D01*
X112190003Y-117238612D01*
X112195000Y-117196792D01*
X112195008Y-117195160D01*
X112199487Y-117164147D01*
X112210875Y-117152595D01*
X112211388Y-117152526D01*
X112222261Y-117139691D01*
X112239259Y-117107842D01*
X112260156Y-117061544D01*
X112282722Y-117005363D01*
X112296394Y-116970368D01*
X112327434Y-116900878D01*
X112355682Y-116856032D01*
X112382765Y-116835795D01*
X112410310Y-116840130D01*
X199541682Y-131282032D02*
X199513434Y-131326878D01*
X199513434Y-131326878D02*
X199482394Y-131396368D01*
X199482394Y-131396368D02*
X199468722Y-131431363D01*
X199468722Y-131431363D02*
X199446156Y-131487544D01*
X199446156Y-131487544D02*
X199425259Y-131533842D01*
X199425259Y-131533842D02*
X199408261Y-131565691D01*
X199408261Y-131565691D02*
X199397388Y-131578526D01*
X199397388Y-131578526D02*
X199396875Y-131578595D01*
X199396875Y-131578595D02*
X199385487Y-131590147D01*
X199385487Y-131590147D02*
X199381008Y-131621160D01*
X199381008Y-131621160D02*
X199381000Y-131622792D01*
X199381000Y-131622792D02*
X199376003Y-131664612D01*
X199376003Y-131664612D02*
X199363730Y-131709809D01*
X199363730Y-131709809D02*
X199361292Y-131716243D01*
X199361292Y-131716243D02*
X199352920Y-131740436D01*
X199352920Y-131740436D02*
X199348574Y-131765074D01*
X199348574Y-131765074D02*
X199348222Y-131796171D01*
X199348222Y-131796171D02*
X199351835Y-131839743D01*
X199351835Y-131839743D02*
X199359384Y-131901805D01*
X199359384Y-131901805D02*
X199360342Y-131909171D01*
X199360342Y-131909171D02*
X199379102Y-132052841D01*
X199379102Y-132052841D02*
X199238128Y-132237995D01*
X199238128Y-132237995D02*
X199193145Y-132297074D01*
X199193145Y-132297074D02*
X199153675Y-132348909D01*
X199153675Y-132348909D02*
X199122213Y-132390224D01*
X199122213Y-132390224D02*
X199101252Y-132417744D01*
X199101252Y-132417744D02*
X199093326Y-132428143D01*
X199093326Y-132428143D02*
X199079296Y-132428137D01*
X199079296Y-132428137D02*
X199047396Y-132421278D01*
X199047396Y-132421278D02*
X199003616Y-132409427D01*
X199003616Y-132409427D02*
X198953942Y-132394447D01*
X198953942Y-132394447D02*
X198904363Y-132378200D01*
X198904363Y-132378200D02*
X198860868Y-132362549D01*
X198860868Y-132362549D02*
X198829444Y-132349356D01*
X198829444Y-132349356D02*
X198817624Y-132342398D01*
X198817624Y-132342398D02*
X198796898Y-132316792D01*
X198796898Y-132316792D02*
X198772151Y-132275920D01*
X198772151Y-132275920D02*
X198747154Y-132227484D01*
X198747154Y-132227484D02*
X198725676Y-132179187D01*
X198725676Y-132179187D02*
X198711489Y-132138730D01*
X198711489Y-132138730D02*
X198707900Y-132118268D01*
X198707900Y-132118268D02*
X198699739Y-132089887D01*
X198699739Y-132089887D02*
X198680361Y-132076151D01*
X198680361Y-132076151D02*
X198657426Y-132081704D01*
X198657426Y-132081704D02*
X198653390Y-132085230D01*
X198653390Y-132085230D02*
X198645289Y-132103419D01*
X198645289Y-132103419D02*
X198654244Y-132124844D01*
X198654244Y-132124844D02*
X198663510Y-132152125D01*
X198663510Y-132152125D02*
X198669078Y-132192532D01*
X198669078Y-132192532D02*
X198669800Y-132212571D01*
X198669800Y-132212571D02*
X198666054Y-132256386D01*
X198666054Y-132256386D02*
X198653299Y-132280353D01*
X198653299Y-132280353D02*
X198629268Y-132284956D01*
X198629268Y-132284956D02*
X198591689Y-132270678D01*
X198591689Y-132270678D02*
X198541155Y-132239918D01*
X198541155Y-132239918D02*
X198496450Y-132210694D01*
X198496450Y-132210694D02*
X198467994Y-132194692D01*
X198467994Y-132194692D02*
X198451243Y-132190548D01*
X198451243Y-132190548D02*
X198441653Y-132196898D01*
X198441653Y-132196898D02*
X198436168Y-132208396D01*
X198436168Y-132208396D02*
X198434387Y-132236223D01*
X198434387Y-132236223D02*
X198453657Y-132250436D01*
X198453657Y-132250436D02*
X198466283Y-132251700D01*
X198466283Y-132251700D02*
X198488777Y-132261822D01*
X198488777Y-132261822D02*
X198516193Y-132287034D01*
X198516193Y-132287034D02*
X198542304Y-132319604D01*
X198542304Y-132319604D02*
X198560882Y-132351800D01*
X198560882Y-132351800D02*
X198565828Y-132375289D01*
X198565828Y-132375289D02*
X198552425Y-132393955D01*
X198552425Y-132393955D02*
X198524210Y-132414072D01*
X198524210Y-132414072D02*
X198489608Y-132431490D01*
X198489608Y-132431490D02*
X198457045Y-132442061D01*
X198457045Y-132442061D02*
X198434945Y-132441635D01*
X198434945Y-132441635D02*
X198433285Y-132440560D01*
X198433285Y-132440560D02*
X198411412Y-132434743D01*
X198411412Y-132434743D02*
X198388731Y-132442223D01*
X198388731Y-132442223D02*
X198377903Y-132458685D01*
X198377903Y-132458685D02*
X198377895Y-132459433D01*
X198377895Y-132459433D02*
X198386263Y-132489269D01*
X198386263Y-132489269D02*
X198407293Y-132499722D01*
X198407293Y-132499722D02*
X198426050Y-132494311D01*
X198426050Y-132494311D02*
X198458059Y-132484136D01*
X198458059Y-132484136D02*
X198498843Y-132479960D01*
X198498843Y-132479960D02*
X198539957Y-132481474D01*
X198539957Y-132481474D02*
X198572955Y-132488373D01*
X198572955Y-132488373D02*
X198589352Y-132500245D01*
X198589352Y-132500245D02*
X198585176Y-132519525D01*
X198585176Y-132519525D02*
X198567006Y-132547735D01*
X198567006Y-132547735D02*
X198540855Y-132578156D01*
X198540855Y-132578156D02*
X198512735Y-132604069D01*
X198512735Y-132604069D02*
X198488659Y-132618755D01*
X198488659Y-132618755D02*
X198482190Y-132620000D01*
X198482190Y-132620000D02*
X198469499Y-132628785D01*
X198469499Y-132628785D02*
X198469030Y-132648531D01*
X198469030Y-132648531D02*
X198478536Y-132669321D01*
X198478536Y-132669321D02*
X198495772Y-132681239D01*
X198495772Y-132681239D02*
X198496076Y-132681299D01*
X198496076Y-132681299D02*
X198518276Y-132675040D01*
X198518276Y-132675040D02*
X198525713Y-132660805D01*
X198525713Y-132660805D02*
X198539838Y-132644503D01*
X198539838Y-132644503D02*
X198571698Y-132622374D01*
X198571698Y-132622374D02*
X198615227Y-132597464D01*
X198615227Y-132597464D02*
X198664362Y-132572819D01*
X198664362Y-132572819D02*
X198713037Y-132551484D01*
X198713037Y-132551484D02*
X198755187Y-132536507D01*
X198755187Y-132536507D02*
X198784304Y-132530933D01*
X198784304Y-132530933D02*
X198807951Y-132532720D01*
X198807951Y-132532720D02*
X198851189Y-132537741D01*
X198851189Y-132537741D02*
X198908515Y-132545294D01*
X198908515Y-132545294D02*
X198974427Y-132554677D01*
X198974427Y-132554677D02*
X198997206Y-132558069D01*
X198997206Y-132558069D02*
X199061814Y-132567436D01*
X199061814Y-132567436D02*
X199116812Y-132574728D01*
X199116812Y-132574728D02*
X199157656Y-132579395D01*
X199157656Y-132579395D02*
X199179802Y-132580888D01*
X199179802Y-132580888D02*
X199182418Y-132580461D01*
X199182418Y-132580461D02*
X199190150Y-132568453D01*
X199190150Y-132568453D02*
X199208703Y-132538898D01*
X199208703Y-132538898D02*
X199235541Y-132495852D01*
X199235541Y-132495852D02*
X199268132Y-132443373D01*
X199268132Y-132443373D02*
X199278967Y-132425887D01*
X199278967Y-132425887D02*
X199312719Y-132372209D01*
X199312719Y-132372209D02*
X199341652Y-132327739D01*
X199341652Y-132327739D02*
X199363250Y-132296227D01*
X199363250Y-132296227D02*
X199374996Y-132281425D01*
X199374996Y-132281425D02*
X199376282Y-132280847D01*
X199376282Y-132280847D02*
X199376779Y-132294252D01*
X199376779Y-132294252D02*
X199375775Y-132329575D01*
X199375775Y-132329575D02*
X199373431Y-132383393D01*
X199373431Y-132383393D02*
X199369908Y-132452278D01*
X199369908Y-132452278D02*
X199365370Y-132532805D01*
X199365370Y-132532805D02*
X199360805Y-132608310D01*
X199360805Y-132608310D02*
X199340707Y-132931150D01*
X199340707Y-132931150D02*
X199468765Y-133176899D01*
X199468765Y-133176899D02*
X199505854Y-133249453D01*
X199505854Y-133249453D02*
X199537926Y-133314857D01*
X199537926Y-133314857D02*
X199563395Y-133369654D01*
X199563395Y-133369654D02*
X199580679Y-133410389D01*
X199580679Y-133410389D02*
X199588192Y-133433605D01*
X199588192Y-133433605D02*
X199588086Y-133437249D01*
X199588086Y-133437249D02*
X199578350Y-133451371D01*
X199578350Y-133451371D02*
X199555897Y-133482880D01*
X199555897Y-133482880D02*
X199522981Y-133528643D01*
X199522981Y-133528643D02*
X199481858Y-133585531D01*
X199481858Y-133585531D02*
X199434783Y-133650410D01*
X199434783Y-133650410D02*
X199410070Y-133684386D01*
X199410070Y-133684386D02*
X199361262Y-133751707D01*
X199361262Y-133751707D02*
X199317707Y-133812305D01*
X199317707Y-133812305D02*
X199281569Y-133863125D01*
X199281569Y-133863125D02*
X199255013Y-133901114D01*
X199255013Y-133901114D02*
X199240203Y-133923217D01*
X199240203Y-133923217D02*
X199237872Y-133927381D01*
X199237872Y-133927381D02*
X199246814Y-133937580D01*
X199246814Y-133937580D02*
X199273480Y-133960363D01*
X199273480Y-133960363D02*
X199314993Y-133993460D01*
X199314993Y-133993460D02*
X199368475Y-134034601D01*
X199368475Y-134034601D02*
X199431047Y-134081513D01*
X199431047Y-134081513D02*
X199463550Y-134105476D01*
X199463550Y-134105476D02*
X199529842Y-134154368D01*
X199529842Y-134154368D02*
X199588882Y-134198442D01*
X199588882Y-134198442D02*
X199637696Y-134235436D01*
X199637696Y-134235436D02*
X199673314Y-134263088D01*
X199673314Y-134263088D02*
X199692763Y-134279136D01*
X199692763Y-134279136D02*
X199695476Y-134282032D01*
X199695476Y-134282032D02*
X199688229Y-134295292D01*
X199688229Y-134295292D02*
X199664520Y-134316562D01*
X199664520Y-134316562D02*
X199630225Y-134341763D01*
X199630225Y-134341763D02*
X199591223Y-134366821D01*
X199591223Y-134366821D02*
X199553392Y-134387657D01*
X199553392Y-134387657D02*
X199527050Y-134398839D01*
X199527050Y-134398839D02*
X199481164Y-134407922D01*
X199481164Y-134407922D02*
X199415106Y-134412321D01*
X199415106Y-134412321D02*
X199349250Y-134412175D01*
X199349250Y-134412175D02*
X199288093Y-134409721D01*
X199288093Y-134409721D02*
X199246724Y-134405641D01*
X199246724Y-134405641D02*
X199219538Y-134398895D01*
X199219538Y-134398895D02*
X199200930Y-134388443D01*
X199200930Y-134388443D02*
X199195285Y-134383604D01*
X199195285Y-134383604D02*
X199174698Y-134367050D01*
X199174698Y-134367050D02*
X199160432Y-134368003D01*
X199160432Y-134368003D02*
X199146929Y-134379885D01*
X199146929Y-134379885D02*
X199132905Y-134403517D01*
X199132905Y-134403517D02*
X199132620Y-134419726D01*
X199132620Y-134419726D02*
X199138957Y-134439187D01*
X199138957Y-134439187D02*
X199139700Y-134443488D01*
X199139700Y-134443488D02*
X199150769Y-134447205D01*
X199150769Y-134447205D02*
X199177469Y-134448798D01*
X199177469Y-134448798D02*
X199178223Y-134448800D01*
X199178223Y-134448800D02*
X199211523Y-134454577D01*
X199211523Y-134454577D02*
X199254650Y-134469359D01*
X199254650Y-134469359D02*
X199280607Y-134481161D01*
X199280607Y-134481161D02*
X199317477Y-134501540D01*
X199317477Y-134501540D02*
X199335957Y-134518044D01*
X199335957Y-134518044D02*
X199341187Y-134536357D01*
X199341187Y-134536357D02*
X199340510Y-134547379D01*
X199340510Y-134547379D02*
X199332345Y-134570615D01*
X199332345Y-134570615D02*
X199310546Y-134592699D01*
X199310546Y-134592699D02*
X199270248Y-134618414D01*
X199270248Y-134618414D02*
X199265502Y-134621095D01*
X199265502Y-134621095D02*
X199222605Y-134643607D01*
X199222605Y-134643607D02*
X199183828Y-134661330D01*
X199183828Y-134661330D02*
X199162128Y-134669067D01*
X199162128Y-134669067D02*
X199131914Y-134685217D01*
X199131914Y-134685217D02*
X199119520Y-134709960D01*
X199119520Y-134709960D02*
X199128336Y-134736159D01*
X199128336Y-134736159D02*
X199153264Y-134751852D01*
X199153264Y-134751852D02*
X199179412Y-134749340D01*
X199179412Y-134749340D02*
X199196396Y-134729630D01*
X199196396Y-134729630D02*
X199196420Y-134729557D01*
X199196420Y-134729557D02*
X199208561Y-134713989D01*
X199208561Y-134713989D02*
X199236766Y-134701518D01*
X199236766Y-134701518D02*
X199285650Y-134690119D01*
X199285650Y-134690119D02*
X199286811Y-134689899D01*
X199286811Y-134689899D02*
X199331800Y-134682096D01*
X199331800Y-134682096D02*
X199358854Y-134680285D01*
X199358854Y-134680285D02*
X199374851Y-134685023D01*
X199374851Y-134685023D02*
X199386666Y-134696867D01*
X199386666Y-134696867D02*
X199387582Y-134698067D01*
X199387582Y-134698067D02*
X199399588Y-134717540D01*
X199399588Y-134717540D02*
X199404914Y-134739828D01*
X199404914Y-134739828D02*
X199404224Y-134772397D01*
X199404224Y-134772397D02*
X199398471Y-134820609D01*
X199398471Y-134820609D02*
X199389295Y-134861200D01*
X199389295Y-134861200D02*
X199374566Y-134881337D01*
X199374566Y-134881337D02*
X199366693Y-134884700D01*
X199366693Y-134884700D02*
X199350346Y-134894329D01*
X199350346Y-134894329D02*
X199351827Y-134915066D01*
X199351827Y-134915066D02*
X199353780Y-134920693D01*
X199353780Y-134920693D02*
X199372482Y-134947723D01*
X199372482Y-134947723D02*
X199396416Y-134955086D01*
X199396416Y-134955086D02*
X199417892Y-134942570D01*
X199417892Y-134942570D02*
X199427142Y-134922699D01*
X199427142Y-134922699D02*
X199437467Y-134890443D01*
X199437467Y-134890443D02*
X199454004Y-134847388D01*
X199454004Y-134847388D02*
X199464801Y-134821925D01*
X199464801Y-134821925D02*
X199486506Y-134780148D01*
X199486506Y-134780148D02*
X199507600Y-134757869D01*
X199507600Y-134757869D02*
X199526093Y-134750674D01*
X199526093Y-134750674D02*
X199544062Y-134749182D01*
X199544062Y-134749182D02*
X199556576Y-134756440D01*
X199556576Y-134756440D02*
X199567448Y-134777456D01*
X199567448Y-134777456D02*
X199580491Y-134817235D01*
X199580491Y-134817235D02*
X199582923Y-134825305D01*
X199582923Y-134825305D02*
X199594485Y-134871116D01*
X199594485Y-134871116D02*
X199600604Y-134910470D01*
X199600604Y-134910470D02*
X199600219Y-134932780D01*
X199600219Y-134932780D02*
X199602364Y-134960634D01*
X199602364Y-134960634D02*
X199620007Y-134977417D01*
X199620007Y-134977417D02*
X199644559Y-134980110D01*
X199644559Y-134980110D02*
X199667427Y-134965697D01*
X199667427Y-134965697D02*
X199672387Y-134958133D01*
X199672387Y-134958133D02*
X199677642Y-134933782D01*
X199677642Y-134933782D02*
X199665148Y-134917370D01*
X199665148Y-134917370D02*
X199656189Y-134906222D01*
X199656189Y-134906222D02*
X199651115Y-134887795D01*
X199651115Y-134887795D02*
X199649549Y-134857159D01*
X199649549Y-134857159D02*
X199651114Y-134809383D01*
X199651114Y-134809383D02*
X199653631Y-134766811D01*
X199653631Y-134766811D02*
X199657137Y-134716646D01*
X199657137Y-134716646D02*
X199661783Y-134676358D01*
X199661783Y-134676358D02*
X199669652Y-134641756D01*
X199669652Y-134641756D02*
X199682827Y-134608648D01*
X199682827Y-134608648D02*
X199703389Y-134572843D01*
X199703389Y-134572843D02*
X199733422Y-134530149D01*
X199733422Y-134530149D02*
X199775009Y-134476374D01*
X199775009Y-134476374D02*
X199830233Y-134407327D01*
X199830233Y-134407327D02*
X199835522Y-134400744D01*
X199835522Y-134400744D02*
X199867207Y-134362556D01*
X199867207Y-134362556D02*
X199891419Y-134333072D01*
X199891419Y-134333072D02*
X199906940Y-134309175D01*
X199906940Y-134309175D02*
X199912555Y-134287746D01*
X199912555Y-134287746D02*
X199907048Y-134265667D01*
X199907048Y-134265667D02*
X199889202Y-134239818D01*
X199889202Y-134239818D02*
X199857802Y-134207081D01*
X199857802Y-134207081D02*
X199811632Y-134164338D01*
X199811632Y-134164338D02*
X199749475Y-134108471D01*
X199749475Y-134108471D02*
X199706352Y-134069490D01*
X199706352Y-134069490D02*
X199530054Y-133909215D01*
X199530054Y-133909215D02*
X199635117Y-133810707D01*
X199635117Y-133810707D02*
X199677554Y-133771541D01*
X199677554Y-133771541D02*
X199713210Y-133739801D01*
X199713210Y-133739801D02*
X199738078Y-133718976D01*
X199738078Y-133718976D02*
X199747916Y-133712448D01*
X199747916Y-133712448D02*
X199757460Y-133722630D01*
X199757460Y-133722630D02*
X199777102Y-133749920D01*
X199777102Y-133749920D02*
X199803673Y-133789764D01*
X199803673Y-133789764D02*
X199825034Y-133823224D01*
X199825034Y-133823224D02*
X199884092Y-133906294D01*
X199884092Y-133906294D02*
X199958742Y-133994610D01*
X199958742Y-133994610D02*
X200042314Y-134081183D01*
X200042314Y-134081183D02*
X200128140Y-134159026D01*
X200128140Y-134159026D02*
X200195686Y-134211560D01*
X200195686Y-134211560D02*
X200265406Y-134255960D01*
X200265406Y-134255960D02*
X200348824Y-134301371D01*
X200348824Y-134301371D02*
X200437379Y-134343697D01*
X200437379Y-134343697D02*
X200522512Y-134378837D01*
X200522512Y-134378837D02*
X200593850Y-134402214D01*
X200593850Y-134402214D02*
X200679598Y-134420799D01*
X200679598Y-134420799D02*
X200776428Y-134434921D01*
X200776428Y-134434921D02*
X200874482Y-134443588D01*
X200874482Y-134443588D02*
X200963897Y-134445808D01*
X200963897Y-134445808D02*
X201007133Y-134443816D01*
X201007133Y-134443816D02*
X201159028Y-134418813D01*
X201159028Y-134418813D02*
X201305582Y-134370030D01*
X201305582Y-134370030D02*
X201444703Y-134298877D01*
X201444703Y-134298877D02*
X201574298Y-134206765D01*
X201574298Y-134206765D02*
X201692276Y-134095106D01*
X201692276Y-134095106D02*
X201796546Y-133965309D01*
X201796546Y-133965309D02*
X201856517Y-133870950D01*
X201856517Y-133870950D02*
X201885790Y-133820150D01*
X201885790Y-133820150D02*
X201850554Y-133864600D01*
X201850554Y-133864600D02*
X201807556Y-133914400D01*
X201807556Y-133914400D02*
X201752239Y-133972071D01*
X201752239Y-133972071D02*
X201690225Y-134032340D01*
X201690225Y-134032340D02*
X201627138Y-134089931D01*
X201627138Y-134089931D02*
X201568601Y-134139569D01*
X201568601Y-134139569D02*
X201520237Y-134175981D01*
X201520237Y-134175981D02*
X201514600Y-134179721D01*
X201514600Y-134179721D02*
X201388176Y-134248651D01*
X201388176Y-134248651D02*
X201255029Y-134296911D01*
X201255029Y-134296911D02*
X201118949Y-134323852D01*
X201118949Y-134323852D02*
X200983726Y-134328823D01*
X200983726Y-134328823D02*
X200853149Y-134311173D01*
X200853149Y-134311173D02*
X200812045Y-134300369D01*
X200812045Y-134300369D02*
X200732275Y-134271860D01*
X200732275Y-134271860D02*
X200642007Y-134231771D01*
X200642007Y-134231771D02*
X200550416Y-134184592D01*
X200550416Y-134184592D02*
X200466675Y-134134812D01*
X200466675Y-134134812D02*
X200446663Y-134121550D01*
X200446663Y-134121550D02*
X200378204Y-134071689D01*
X200378204Y-134071689D02*
X200316883Y-134019145D01*
X200316883Y-134019145D02*
X200259659Y-133960288D01*
X200259659Y-133960288D02*
X200203488Y-133891490D01*
X200203488Y-133891490D02*
X200145330Y-133809122D01*
X200145330Y-133809122D02*
X200082141Y-133709556D01*
X200082141Y-133709556D02*
X200034846Y-133630344D01*
X200034846Y-133630344D02*
X199960800Y-133504039D01*
X199960800Y-133504039D02*
X200080475Y-133392936D01*
X200080475Y-133392936D02*
X200125251Y-133352694D01*
X200125251Y-133352694D02*
X200162949Y-133321325D01*
X200162949Y-133321325D02*
X200190049Y-133301572D01*
X200190049Y-133301572D02*
X200203033Y-133296175D01*
X200203033Y-133296175D02*
X200203612Y-133296991D01*
X200203612Y-133296991D02*
X200206064Y-133314795D01*
X200206064Y-133314795D02*
X200210286Y-133352592D01*
X200210286Y-133352592D02*
X200215716Y-133405084D01*
X200215716Y-133405084D02*
X200221788Y-133466971D01*
X200221788Y-133466971D02*
X200222662Y-133476129D01*
X200222662Y-133476129D02*
X200238250Y-133640109D01*
X200238250Y-133640109D02*
X200442052Y-133443576D01*
X200442052Y-133443576D02*
X200511065Y-133377500D01*
X200511065Y-133377500D02*
X200565106Y-133327121D01*
X200565106Y-133327121D02*
X200607080Y-133290089D01*
X200607080Y-133290089D02*
X200639893Y-133264058D01*
X200639893Y-133264058D02*
X200666450Y-133246680D01*
X200666450Y-133246680D02*
X200689657Y-133235608D01*
X200689657Y-133235608D02*
X200706249Y-133230132D01*
X200706249Y-133230132D02*
X200751900Y-133222084D01*
X200751900Y-133222084D02*
X200808441Y-133218868D01*
X200808441Y-133218868D02*
X200868859Y-133220064D01*
X200868859Y-133220064D02*
X200926143Y-133225253D01*
X200926143Y-133225253D02*
X200973281Y-133234016D01*
X200973281Y-133234016D02*
X201003263Y-133245934D01*
X201003263Y-133245934D02*
X201005931Y-133248043D01*
X201005931Y-133248043D02*
X201026564Y-133260646D01*
X201026564Y-133260646D02*
X201047041Y-133253093D01*
X201047041Y-133253093D02*
X201050144Y-133250883D01*
X201050144Y-133250883D02*
X201067869Y-133226751D01*
X201067869Y-133226751D02*
X201065059Y-133202377D01*
X201065059Y-133202377D02*
X201044259Y-133186520D01*
X201044259Y-133186520D02*
X201030849Y-133184509D01*
X201030849Y-133184509D02*
X201000992Y-133179155D01*
X201000992Y-133179155D02*
X200960757Y-133166243D01*
X200960757Y-133166243D02*
X200918521Y-133149207D01*
X200918521Y-133149207D02*
X200882660Y-133131477D01*
X200882660Y-133131477D02*
X200861549Y-133116486D01*
X200861549Y-133116486D02*
X200860079Y-133114536D01*
X200860079Y-133114536D02*
X200854706Y-133084468D01*
X200854706Y-133084468D02*
X200874487Y-133052683D01*
X200874487Y-133052683D02*
X200919246Y-133019400D01*
X200919246Y-133019400D02*
X200945846Y-133004828D01*
X200945846Y-133004828D02*
X200989133Y-132983441D01*
X200989133Y-132983441D02*
X201025810Y-132966466D01*
X201025810Y-132966466D02*
X201047875Y-132957602D01*
X201047875Y-132957602D02*
X201066089Y-132941337D01*
X201066089Y-132941337D02*
X201068620Y-132914868D01*
X201068620Y-132914868D02*
X201054860Y-132889239D01*
X201054860Y-132889239D02*
X201029202Y-132874845D01*
X201029202Y-132874845D02*
X201008284Y-132883471D01*
X201008284Y-132883471D02*
X201000715Y-132897935D01*
X201000715Y-132897935D02*
X200985035Y-132915818D01*
X200985035Y-132915818D02*
X200948346Y-132932069D01*
X200948346Y-132932069D02*
X200914134Y-132941859D01*
X200914134Y-132941859D02*
X200870794Y-132952226D01*
X200870794Y-132952226D02*
X200844505Y-132955600D01*
X200844505Y-132955600D02*
X200827810Y-132951658D01*
X200827810Y-132951658D02*
X200813251Y-132940075D01*
X200813251Y-132940075D02*
X200810477Y-132937347D01*
X200810477Y-132937347D02*
X200793729Y-132905710D01*
X200793729Y-132905710D02*
X200787282Y-132861250D01*
X200787282Y-132861250D02*
X200790785Y-132814065D01*
X200790785Y-132814065D02*
X200803888Y-132774249D01*
X200803888Y-132774249D02*
X200816713Y-132757664D01*
X200816713Y-132757664D02*
X200838731Y-132728124D01*
X200838731Y-132728124D02*
X200836593Y-132699306D01*
X200836593Y-132699306D02*
X200827730Y-132687509D01*
X200827730Y-132687509D02*
X200805197Y-132678544D01*
X200805197Y-132678544D02*
X200780720Y-132684461D01*
X200780720Y-132684461D02*
X200766057Y-132701549D01*
X200766057Y-132701549D02*
X200765302Y-132707206D01*
X200765302Y-132707206D02*
X200760439Y-132728947D01*
X200760439Y-132728947D02*
X200747716Y-132765628D01*
X200747716Y-132765628D02*
X200730726Y-132807325D01*
X200730726Y-132807325D02*
X200710687Y-132850297D01*
X200710687Y-132850297D02*
X200694789Y-132874435D01*
X200694789Y-132874435D02*
X200678673Y-132884838D01*
X200678673Y-132884838D02*
X200662885Y-132886700D01*
X200662885Y-132886700D02*
X200643593Y-132884006D01*
X200643593Y-132884006D02*
X200629971Y-132872183D01*
X200629971Y-132872183D02*
X200617837Y-132845615D01*
X200617837Y-132845615D02*
X200606835Y-132811438D01*
X200606835Y-132811438D02*
X200595711Y-132766956D01*
X200595711Y-132766956D02*
X200590255Y-132728878D01*
X200590255Y-132728878D02*
X200590978Y-132709672D01*
X200590978Y-132709672D02*
X200588173Y-132682694D01*
X200588173Y-132682694D02*
X200569489Y-132666385D01*
X200569489Y-132666385D02*
X200543696Y-132665270D01*
X200543696Y-132665270D02*
X200525942Y-132676115D01*
X200525942Y-132676115D02*
X200512497Y-132696616D01*
X200512497Y-132696616D02*
X200519492Y-132719045D01*
X200519492Y-132719045D02*
X200521074Y-132721632D01*
X200521074Y-132721632D02*
X200529015Y-132748301D01*
X200529015Y-132748301D02*
X200534323Y-132796609D01*
X200534323Y-132796609D02*
X200536631Y-132862894D01*
X200536631Y-132862894D02*
X200536700Y-132878131D01*
X200536700Y-132878131D02*
X200536700Y-133009608D01*
X200536700Y-133009608D02*
X200438542Y-133145758D01*
X200438542Y-133145758D02*
X200402737Y-133195889D01*
X200402737Y-133195889D02*
X200375930Y-133231877D01*
X200375930Y-133231877D02*
X200356377Y-133252241D01*
X200356377Y-133252241D02*
X200342338Y-133255498D01*
X200342338Y-133255498D02*
X200332070Y-133240168D01*
X200332070Y-133240168D02*
X200323831Y-133204767D01*
X200323831Y-133204767D02*
X200315880Y-133147814D01*
X200315880Y-133147814D02*
X200306474Y-133067826D01*
X200306474Y-133067826D02*
X200301977Y-133029575D01*
X200301977Y-133029575D02*
X200293573Y-132962901D01*
X200293573Y-132962901D02*
X200285524Y-132906172D01*
X200285524Y-132906172D02*
X200278513Y-132863697D01*
X200278513Y-132863697D02*
X200273224Y-132839783D01*
X200273224Y-132839783D02*
X200271292Y-132836104D01*
X200271292Y-132836104D02*
X200259972Y-132844297D01*
X200259972Y-132844297D02*
X200232830Y-132867038D01*
X200232830Y-132867038D02*
X200192816Y-132901761D01*
X200192816Y-132901761D02*
X200142878Y-132945903D01*
X200142878Y-132945903D02*
X200085965Y-132996897D01*
X200085965Y-132996897D02*
X200074185Y-133007530D01*
X200074185Y-133007530D02*
X200016615Y-133059288D01*
X200016615Y-133059288D02*
X199965808Y-133104453D01*
X199965808Y-133104453D02*
X199924619Y-133140530D01*
X199924619Y-133140530D02*
X199895903Y-133165023D01*
X199895903Y-133165023D02*
X199882515Y-133175436D01*
X199882515Y-133175436D02*
X199881917Y-133175601D01*
X199881917Y-133175601D02*
X199881669Y-133162505D01*
X199881669Y-133162505D02*
X199882909Y-133128703D01*
X199882909Y-133128703D02*
X199885419Y-133078832D01*
X199885419Y-133078832D02*
X199888982Y-133017527D01*
X199888982Y-133017527D02*
X199890411Y-132994650D01*
X199890411Y-132994650D02*
X199893971Y-132926195D01*
X199893971Y-132926195D02*
X199895378Y-132861160D01*
X199895378Y-132861160D02*
X199894458Y-132793824D01*
X199894458Y-132793824D02*
X199891035Y-132718471D01*
X199891035Y-132718471D02*
X199884936Y-132629382D01*
X199884936Y-132629382D02*
X199875984Y-132520839D01*
X199875984Y-132520839D02*
X199875899Y-132519862D01*
X199875899Y-132519862D02*
X199868780Y-132435940D01*
X199868780Y-132435940D02*
X199862745Y-132360878D01*
X199862745Y-132360878D02*
X199858052Y-132298233D01*
X199858052Y-132298233D02*
X199854960Y-132251560D01*
X199854960Y-132251560D02*
X199853727Y-132224417D01*
X199853727Y-132224417D02*
X199854012Y-132218954D01*
X199854012Y-132218954D02*
X199865911Y-132223274D01*
X199865911Y-132223274D02*
X199895534Y-132237906D01*
X199895534Y-132237906D02*
X199938527Y-132260606D01*
X199938527Y-132260606D02*
X199990535Y-132289130D01*
X199990535Y-132289130D02*
X199995083Y-132291667D01*
X199995083Y-132291667D02*
X200047551Y-132320523D01*
X200047551Y-132320523D02*
X200091275Y-132343695D01*
X200091275Y-132343695D02*
X200121931Y-132358956D01*
X200121931Y-132358956D02*
X200135197Y-132364078D01*
X200135197Y-132364078D02*
X200135384Y-132363975D01*
X200135384Y-132363975D02*
X200155673Y-132338222D01*
X200155673Y-132338222D02*
X200187600Y-132300131D01*
X200187600Y-132300131D02*
X200227851Y-132253416D01*
X200227851Y-132253416D02*
X200273114Y-132201791D01*
X200273114Y-132201791D02*
X200320074Y-132148970D01*
X200320074Y-132148970D02*
X200365420Y-132098667D01*
X200365420Y-132098667D02*
X200405837Y-132054596D01*
X200405837Y-132054596D02*
X200438012Y-132020470D01*
X200438012Y-132020470D02*
X200458633Y-132000004D01*
X200458633Y-132000004D02*
X200463628Y-131996026D01*
X200463628Y-131996026D02*
X200506934Y-131976180D01*
X200506934Y-131976180D02*
X200557328Y-131958003D01*
X200557328Y-131958003D02*
X200607920Y-131943384D01*
X200607920Y-131943384D02*
X200651821Y-131934210D01*
X200651821Y-131934210D02*
X200682143Y-131932370D01*
X200682143Y-131932370D02*
X200689142Y-131934222D01*
X200689142Y-131934222D02*
X200714121Y-131936383D01*
X200714121Y-131936383D02*
X200732990Y-131921098D01*
X200732990Y-131921098D02*
X200737323Y-131896218D01*
X200737323Y-131896218D02*
X200735724Y-131890834D01*
X200735724Y-131890834D02*
X200726761Y-131881451D01*
X200726761Y-131881451D02*
X200705816Y-131877194D01*
X200705816Y-131877194D02*
X200667833Y-131877504D01*
X200667833Y-131877504D02*
X200634626Y-131879660D01*
X200634626Y-131879660D02*
X200586423Y-131882864D01*
X200586423Y-131882864D02*
X200557705Y-131882548D01*
X200557705Y-131882548D02*
X200542653Y-131877407D01*
X200542653Y-131877407D02*
X200535447Y-131866136D01*
X200535447Y-131866136D02*
X200532706Y-131856797D01*
X200532706Y-131856797D02*
X200531787Y-131828641D01*
X200531787Y-131828641D02*
X200545215Y-131797205D01*
X200545215Y-131797205D02*
X200575369Y-131758287D01*
X200575369Y-131758287D02*
X200607694Y-131724352D01*
X200607694Y-131724352D02*
X200636510Y-131688940D01*
X200636510Y-131688940D02*
X200645254Y-131661914D01*
X200645254Y-131661914D02*
X200633760Y-131645707D01*
X200633760Y-131645707D02*
X200613299Y-131642100D01*
X200613299Y-131642100D02*
X200591594Y-131650952D01*
X200591594Y-131650952D02*
X200587478Y-131664325D01*
X200587478Y-131664325D02*
X200576728Y-131685368D01*
X200576728Y-131685368D02*
X200549809Y-131709479D01*
X200549809Y-131709479D02*
X200514663Y-131731735D01*
X200514663Y-131731735D02*
X200479235Y-131747215D01*
X200479235Y-131747215D02*
X200451464Y-131751000D01*
X200451464Y-131751000D02*
X200448673Y-131750326D01*
X200448673Y-131750326D02*
X200428541Y-131732677D01*
X200428541Y-131732677D02*
X200411212Y-131699074D01*
X200411212Y-131699074D02*
X200399625Y-131658960D01*
X200399625Y-131658960D02*
X200396722Y-131621780D01*
X200396722Y-131621780D02*
X200402225Y-131601141D01*
X200402225Y-131601141D02*
X200408240Y-131576657D01*
X200408240Y-131576657D02*
X200400711Y-131564530D01*
X200400711Y-131564530D02*
X200377824Y-131554958D01*
X200377824Y-131554958D02*
X200357085Y-131564782D01*
X200357085Y-131564782D02*
X200347517Y-131588944D01*
X200347517Y-131588944D02*
X200347663Y-131594273D01*
X200347663Y-131594273D02*
X200348747Y-131623843D01*
X200348747Y-131623843D02*
X200348672Y-131666178D01*
X200348672Y-131666178D02*
X200348176Y-131688243D01*
X200348176Y-131688243D02*
X200345076Y-131728675D01*
X200345076Y-131728675D02*
X200337331Y-131750301D01*
X200337331Y-131750301D02*
X200322545Y-131759617D01*
X200322545Y-131759617D02*
X200321767Y-131759826D01*
X200321767Y-131759826D02*
X200299212Y-131754149D01*
X200299212Y-131754149D02*
X200271007Y-131731866D01*
X200271007Y-131731866D02*
X200242873Y-131699085D01*
X200242873Y-131699085D02*
X200220534Y-131661913D01*
X200220534Y-131661913D02*
X200213565Y-131644350D01*
X200213565Y-131644350D02*
X200198069Y-131621779D01*
X200198069Y-131621779D02*
X200176964Y-131619134D01*
X200176964Y-131619134D02*
X200153547Y-131630634D01*
X200153547Y-131630634D02*
X200145679Y-131650096D01*
X200145679Y-131650096D02*
X200155457Y-131668056D01*
X200155457Y-131668056D02*
X200165070Y-131672792D01*
X200165070Y-131672792D02*
X200179615Y-131687956D01*
X200179615Y-131687956D02*
X200197483Y-131721496D01*
X200197483Y-131721496D02*
X200216371Y-131767017D01*
X200216371Y-131767017D02*
X200233975Y-131818127D01*
X200233975Y-131818127D02*
X200247991Y-131868432D01*
X200247991Y-131868432D02*
X200256115Y-131911538D01*
X200256115Y-131911538D02*
X200257248Y-131928606D01*
X200257248Y-131928606D02*
X200249347Y-131960520D01*
X200249347Y-131960520D02*
X200226771Y-132008604D01*
X200226771Y-132008604D02*
X200191112Y-132069517D01*
X200191112Y-132069517D02*
X200186770Y-132076371D01*
X200186770Y-132076371D02*
X200116345Y-132186792D01*
X200116345Y-132186792D02*
X199980448Y-132115703D01*
X199980448Y-132115703D02*
X199926962Y-132087472D01*
X199926962Y-132087472D02*
X199881738Y-132063129D01*
X199881738Y-132063129D02*
X199849536Y-132045270D01*
X199849536Y-132045270D02*
X199835119Y-132036489D01*
X199835119Y-132036489D02*
X199835111Y-132036482D01*
X199835111Y-132036482D02*
X199832221Y-132021248D01*
X199832221Y-132021248D02*
X199831666Y-131986246D01*
X199831666Y-131986246D02*
X199833395Y-131936997D01*
X199833395Y-131936997D02*
X199836489Y-131889748D01*
X199836489Y-131889748D02*
X199840900Y-131825974D01*
X199840900Y-131825974D02*
X199842095Y-131781072D01*
X199842095Y-131781072D02*
X199839653Y-131748671D01*
X199839653Y-131748671D02*
X199833156Y-131722398D01*
X199833156Y-131722398D02*
X199823982Y-131699798D01*
X199823982Y-131699798D02*
X199809004Y-131657579D01*
X199809004Y-131657579D02*
X199800856Y-131616687D01*
X199800856Y-131616687D02*
X199800379Y-131608106D01*
X199800379Y-131608106D02*
X199794030Y-131574906D01*
X199794030Y-131574906D02*
X199780070Y-131563656D01*
X199780070Y-131563656D02*
X199766731Y-131550905D01*
X199766731Y-131550905D02*
X199746123Y-131519243D01*
X199746123Y-131519243D02*
X199720912Y-131473136D01*
X199720912Y-131473136D02*
X199697984Y-131426200D01*
X199697984Y-131426200D02*
X199659293Y-131348369D01*
X199659293Y-131348369D02*
X199625944Y-131295000D01*
X199625944Y-131295000D02*
X199596310Y-131266130D01*
X199596310Y-131266130D02*
X199568765Y-131261795D01*
X199568765Y-131261795D02*
X199541682Y-131282032D01*
X199541682Y-131282032D02*
X199541682Y-131282032D01*
G36*
X199596310Y-131266130D02*
G01*
X199625944Y-131295000D01*
X199659293Y-131348369D01*
X199697984Y-131426200D01*
X199720912Y-131473136D01*
X199746123Y-131519243D01*
X199766731Y-131550905D01*
X199780070Y-131563656D01*
X199794030Y-131574906D01*
X199800379Y-131608106D01*
X199800856Y-131616687D01*
X199809004Y-131657579D01*
X199823982Y-131699798D01*
X199833156Y-131722398D01*
X199839653Y-131748671D01*
X199842095Y-131781072D01*
X199840900Y-131825974D01*
X199836489Y-131889748D01*
X199833395Y-131936997D01*
X199831666Y-131986246D01*
X199832221Y-132021248D01*
X199835111Y-132036482D01*
X199835119Y-132036489D01*
X199849536Y-132045270D01*
X199881738Y-132063129D01*
X199926962Y-132087472D01*
X199980448Y-132115703D01*
X200116345Y-132186792D01*
X200186770Y-132076371D01*
X200191112Y-132069517D01*
X200226771Y-132008604D01*
X200249347Y-131960520D01*
X200257248Y-131928606D01*
X200256115Y-131911538D01*
X200247991Y-131868432D01*
X200233975Y-131818127D01*
X200216371Y-131767017D01*
X200197483Y-131721496D01*
X200179615Y-131687956D01*
X200165070Y-131672792D01*
X200155457Y-131668056D01*
X200145679Y-131650096D01*
X200153547Y-131630634D01*
X200176964Y-131619134D01*
X200198069Y-131621779D01*
X200213565Y-131644350D01*
X200220534Y-131661913D01*
X200242873Y-131699085D01*
X200271007Y-131731866D01*
X200299212Y-131754149D01*
X200321767Y-131759826D01*
X200322545Y-131759617D01*
X200337331Y-131750301D01*
X200345076Y-131728675D01*
X200348176Y-131688243D01*
X200348672Y-131666178D01*
X200348747Y-131623843D01*
X200347663Y-131594273D01*
X200347517Y-131588944D01*
X200357085Y-131564782D01*
X200377824Y-131554958D01*
X200400711Y-131564530D01*
X200408240Y-131576657D01*
X200402225Y-131601141D01*
X200396722Y-131621780D01*
X200399625Y-131658960D01*
X200411212Y-131699074D01*
X200428541Y-131732677D01*
X200448673Y-131750326D01*
X200451464Y-131751000D01*
X200479235Y-131747215D01*
X200514663Y-131731735D01*
X200549809Y-131709479D01*
X200576728Y-131685368D01*
X200587478Y-131664325D01*
X200591594Y-131650952D01*
X200613299Y-131642100D01*
X200633760Y-131645707D01*
X200645254Y-131661914D01*
X200636510Y-131688940D01*
X200607694Y-131724352D01*
X200575369Y-131758287D01*
X200545215Y-131797205D01*
X200531787Y-131828641D01*
X200532706Y-131856797D01*
X200535447Y-131866136D01*
X200542653Y-131877407D01*
X200557705Y-131882548D01*
X200586423Y-131882864D01*
X200634626Y-131879660D01*
X200667833Y-131877504D01*
X200705816Y-131877194D01*
X200726761Y-131881451D01*
X200735724Y-131890834D01*
X200737323Y-131896218D01*
X200732990Y-131921098D01*
X200714121Y-131936383D01*
X200689142Y-131934222D01*
X200682143Y-131932370D01*
X200651821Y-131934210D01*
X200607920Y-131943384D01*
X200557328Y-131958003D01*
X200506934Y-131976180D01*
X200463628Y-131996026D01*
X200458633Y-132000004D01*
X200438012Y-132020470D01*
X200405837Y-132054596D01*
X200365420Y-132098667D01*
X200320074Y-132148970D01*
X200273114Y-132201791D01*
X200227851Y-132253416D01*
X200187600Y-132300131D01*
X200155673Y-132338222D01*
X200135384Y-132363975D01*
X200135197Y-132364078D01*
X200121931Y-132358956D01*
X200091275Y-132343695D01*
X200047551Y-132320523D01*
X199995083Y-132291667D01*
X199990535Y-132289130D01*
X199938527Y-132260606D01*
X199895534Y-132237906D01*
X199865911Y-132223274D01*
X199854012Y-132218954D01*
X199853727Y-132224417D01*
X199854960Y-132251560D01*
X199858052Y-132298233D01*
X199862745Y-132360878D01*
X199868780Y-132435940D01*
X199875899Y-132519862D01*
X199875984Y-132520839D01*
X199884936Y-132629382D01*
X199891035Y-132718471D01*
X199894458Y-132793824D01*
X199895378Y-132861160D01*
X199893971Y-132926195D01*
X199890411Y-132994650D01*
X199888982Y-133017527D01*
X199885419Y-133078832D01*
X199882909Y-133128703D01*
X199881669Y-133162505D01*
X199881917Y-133175601D01*
X199882515Y-133175436D01*
X199895903Y-133165023D01*
X199924619Y-133140530D01*
X199965808Y-133104453D01*
X200016615Y-133059288D01*
X200074185Y-133007530D01*
X200085965Y-132996897D01*
X200142878Y-132945903D01*
X200192816Y-132901761D01*
X200232830Y-132867038D01*
X200259972Y-132844297D01*
X200271292Y-132836104D01*
X200273224Y-132839783D01*
X200278513Y-132863697D01*
X200285524Y-132906172D01*
X200293573Y-132962901D01*
X200301977Y-133029575D01*
X200306474Y-133067826D01*
X200315880Y-133147814D01*
X200323831Y-133204767D01*
X200332070Y-133240168D01*
X200342338Y-133255498D01*
X200356377Y-133252241D01*
X200375930Y-133231877D01*
X200402737Y-133195889D01*
X200438542Y-133145758D01*
X200536700Y-133009608D01*
X200536700Y-132878131D01*
X200536631Y-132862894D01*
X200534323Y-132796609D01*
X200529015Y-132748301D01*
X200521074Y-132721632D01*
X200519492Y-132719045D01*
X200512497Y-132696616D01*
X200525942Y-132676115D01*
X200543696Y-132665270D01*
X200569489Y-132666385D01*
X200588173Y-132682694D01*
X200590978Y-132709672D01*
X200590255Y-132728878D01*
X200595711Y-132766956D01*
X200606835Y-132811438D01*
X200617837Y-132845615D01*
X200629971Y-132872183D01*
X200643593Y-132884006D01*
X200662885Y-132886700D01*
X200678673Y-132884838D01*
X200694789Y-132874435D01*
X200710687Y-132850297D01*
X200730726Y-132807325D01*
X200747716Y-132765628D01*
X200760439Y-132728947D01*
X200765302Y-132707206D01*
X200766057Y-132701549D01*
X200780720Y-132684461D01*
X200805197Y-132678544D01*
X200827730Y-132687509D01*
X200836593Y-132699306D01*
X200838731Y-132728124D01*
X200816713Y-132757664D01*
X200803888Y-132774249D01*
X200790785Y-132814065D01*
X200787282Y-132861250D01*
X200793729Y-132905710D01*
X200810477Y-132937347D01*
X200813251Y-132940075D01*
X200827810Y-132951658D01*
X200844505Y-132955600D01*
X200870794Y-132952226D01*
X200914134Y-132941859D01*
X200948346Y-132932069D01*
X200985035Y-132915818D01*
X201000715Y-132897935D01*
X201008284Y-132883471D01*
X201029202Y-132874845D01*
X201054860Y-132889239D01*
X201068620Y-132914868D01*
X201066089Y-132941337D01*
X201047875Y-132957602D01*
X201025810Y-132966466D01*
X200989133Y-132983441D01*
X200945846Y-133004828D01*
X200919246Y-133019400D01*
X200874487Y-133052683D01*
X200854706Y-133084468D01*
X200860079Y-133114536D01*
X200861549Y-133116486D01*
X200882660Y-133131477D01*
X200918521Y-133149207D01*
X200960757Y-133166243D01*
X201000992Y-133179155D01*
X201030849Y-133184509D01*
X201044259Y-133186520D01*
X201065059Y-133202377D01*
X201067869Y-133226751D01*
X201050144Y-133250883D01*
X201047041Y-133253093D01*
X201026564Y-133260646D01*
X201005931Y-133248043D01*
X201003263Y-133245934D01*
X200973281Y-133234016D01*
X200926143Y-133225253D01*
X200868859Y-133220064D01*
X200808441Y-133218868D01*
X200751900Y-133222084D01*
X200706249Y-133230132D01*
X200689657Y-133235608D01*
X200666450Y-133246680D01*
X200639893Y-133264058D01*
X200607080Y-133290089D01*
X200565106Y-133327121D01*
X200511065Y-133377500D01*
X200442052Y-133443576D01*
X200238250Y-133640109D01*
X200222662Y-133476129D01*
X200221788Y-133466971D01*
X200215716Y-133405084D01*
X200210286Y-133352592D01*
X200206064Y-133314795D01*
X200203612Y-133296991D01*
X200203033Y-133296175D01*
X200190049Y-133301572D01*
X200162949Y-133321325D01*
X200125251Y-133352694D01*
X200080475Y-133392936D01*
X199960800Y-133504039D01*
X200034846Y-133630344D01*
X200082141Y-133709556D01*
X200145330Y-133809122D01*
X200203488Y-133891490D01*
X200259659Y-133960288D01*
X200316883Y-134019145D01*
X200378204Y-134071689D01*
X200446663Y-134121550D01*
X200466675Y-134134812D01*
X200550416Y-134184592D01*
X200642007Y-134231771D01*
X200732275Y-134271860D01*
X200812045Y-134300369D01*
X200853149Y-134311173D01*
X200983726Y-134328823D01*
X201118949Y-134323852D01*
X201255029Y-134296911D01*
X201388176Y-134248651D01*
X201514600Y-134179721D01*
X201520237Y-134175981D01*
X201568601Y-134139569D01*
X201627138Y-134089931D01*
X201690225Y-134032340D01*
X201752239Y-133972071D01*
X201807556Y-133914400D01*
X201850554Y-133864600D01*
X201885790Y-133820150D01*
X201856517Y-133870950D01*
X201796546Y-133965309D01*
X201692276Y-134095106D01*
X201574298Y-134206765D01*
X201444703Y-134298877D01*
X201305582Y-134370030D01*
X201159028Y-134418813D01*
X201007133Y-134443816D01*
X200963897Y-134445808D01*
X200874482Y-134443588D01*
X200776428Y-134434921D01*
X200679598Y-134420799D01*
X200593850Y-134402214D01*
X200522512Y-134378837D01*
X200437379Y-134343697D01*
X200348824Y-134301371D01*
X200265406Y-134255960D01*
X200195686Y-134211560D01*
X200128140Y-134159026D01*
X200042314Y-134081183D01*
X199958742Y-133994610D01*
X199884092Y-133906294D01*
X199825034Y-133823224D01*
X199803673Y-133789764D01*
X199777102Y-133749920D01*
X199757460Y-133722630D01*
X199747916Y-133712448D01*
X199738078Y-133718976D01*
X199713210Y-133739801D01*
X199677554Y-133771541D01*
X199635117Y-133810707D01*
X199530054Y-133909215D01*
X199706352Y-134069490D01*
X199749475Y-134108471D01*
X199811632Y-134164338D01*
X199857802Y-134207081D01*
X199889202Y-134239818D01*
X199907048Y-134265667D01*
X199912555Y-134287746D01*
X199906940Y-134309175D01*
X199891419Y-134333072D01*
X199867207Y-134362556D01*
X199835522Y-134400744D01*
X199830233Y-134407327D01*
X199775009Y-134476374D01*
X199733422Y-134530149D01*
X199703389Y-134572843D01*
X199682827Y-134608648D01*
X199669652Y-134641756D01*
X199661783Y-134676358D01*
X199657137Y-134716646D01*
X199653631Y-134766811D01*
X199651114Y-134809383D01*
X199649549Y-134857159D01*
X199651115Y-134887795D01*
X199656189Y-134906222D01*
X199665148Y-134917370D01*
X199677642Y-134933782D01*
X199672387Y-134958133D01*
X199667427Y-134965697D01*
X199644559Y-134980110D01*
X199620007Y-134977417D01*
X199602364Y-134960634D01*
X199600219Y-134932780D01*
X199600604Y-134910470D01*
X199594485Y-134871116D01*
X199582923Y-134825305D01*
X199580491Y-134817235D01*
X199567448Y-134777456D01*
X199556576Y-134756440D01*
X199544062Y-134749182D01*
X199526093Y-134750674D01*
X199507600Y-134757869D01*
X199486506Y-134780148D01*
X199464801Y-134821925D01*
X199454004Y-134847388D01*
X199437467Y-134890443D01*
X199427142Y-134922699D01*
X199417892Y-134942570D01*
X199396416Y-134955086D01*
X199372482Y-134947723D01*
X199353780Y-134920693D01*
X199351827Y-134915066D01*
X199350346Y-134894329D01*
X199366693Y-134884700D01*
X199374566Y-134881337D01*
X199389295Y-134861200D01*
X199398471Y-134820609D01*
X199404224Y-134772397D01*
X199404914Y-134739828D01*
X199399588Y-134717540D01*
X199387582Y-134698067D01*
X199386666Y-134696867D01*
X199374851Y-134685023D01*
X199358854Y-134680285D01*
X199331800Y-134682096D01*
X199286811Y-134689899D01*
X199285650Y-134690119D01*
X199236766Y-134701518D01*
X199208561Y-134713989D01*
X199196420Y-134729557D01*
X199196396Y-134729630D01*
X199179412Y-134749340D01*
X199153264Y-134751852D01*
X199128336Y-134736159D01*
X199119520Y-134709960D01*
X199131914Y-134685217D01*
X199162128Y-134669067D01*
X199183828Y-134661330D01*
X199222605Y-134643607D01*
X199265502Y-134621095D01*
X199270248Y-134618414D01*
X199310546Y-134592699D01*
X199332345Y-134570615D01*
X199340510Y-134547379D01*
X199341187Y-134536357D01*
X199335957Y-134518044D01*
X199317477Y-134501540D01*
X199280607Y-134481161D01*
X199254650Y-134469359D01*
X199211523Y-134454577D01*
X199178223Y-134448800D01*
X199177469Y-134448798D01*
X199150769Y-134447205D01*
X199139700Y-134443488D01*
X199138957Y-134439187D01*
X199132620Y-134419726D01*
X199132905Y-134403517D01*
X199146929Y-134379885D01*
X199160432Y-134368003D01*
X199174698Y-134367050D01*
X199195285Y-134383604D01*
X199200930Y-134388443D01*
X199219538Y-134398895D01*
X199246724Y-134405641D01*
X199288093Y-134409721D01*
X199349250Y-134412175D01*
X199415106Y-134412321D01*
X199481164Y-134407922D01*
X199527050Y-134398839D01*
X199553392Y-134387657D01*
X199591223Y-134366821D01*
X199630225Y-134341763D01*
X199664520Y-134316562D01*
X199688229Y-134295292D01*
X199695476Y-134282032D01*
X199692763Y-134279136D01*
X199673314Y-134263088D01*
X199637696Y-134235436D01*
X199588882Y-134198442D01*
X199529842Y-134154368D01*
X199463550Y-134105476D01*
X199431047Y-134081513D01*
X199368475Y-134034601D01*
X199314993Y-133993460D01*
X199273480Y-133960363D01*
X199246814Y-133937580D01*
X199237872Y-133927381D01*
X199240203Y-133923217D01*
X199255013Y-133901114D01*
X199281569Y-133863125D01*
X199317707Y-133812305D01*
X199361262Y-133751707D01*
X199410070Y-133684386D01*
X199434783Y-133650410D01*
X199481858Y-133585531D01*
X199522981Y-133528643D01*
X199555897Y-133482880D01*
X199578350Y-133451371D01*
X199588086Y-133437249D01*
X199588192Y-133433605D01*
X199580679Y-133410389D01*
X199563395Y-133369654D01*
X199537926Y-133314857D01*
X199505854Y-133249453D01*
X199468765Y-133176899D01*
X199340707Y-132931150D01*
X199360805Y-132608310D01*
X199365370Y-132532805D01*
X199369908Y-132452278D01*
X199373431Y-132383393D01*
X199375775Y-132329575D01*
X199376779Y-132294252D01*
X199376282Y-132280847D01*
X199374996Y-132281425D01*
X199363250Y-132296227D01*
X199341652Y-132327739D01*
X199312719Y-132372209D01*
X199278967Y-132425887D01*
X199268132Y-132443373D01*
X199235541Y-132495852D01*
X199208703Y-132538898D01*
X199190150Y-132568453D01*
X199182418Y-132580461D01*
X199179802Y-132580888D01*
X199157656Y-132579395D01*
X199116812Y-132574728D01*
X199061814Y-132567436D01*
X198997206Y-132558069D01*
X198974427Y-132554677D01*
X198908515Y-132545294D01*
X198851189Y-132537741D01*
X198807951Y-132532720D01*
X198784304Y-132530933D01*
X198755187Y-132536507D01*
X198713037Y-132551484D01*
X198664362Y-132572819D01*
X198615227Y-132597464D01*
X198571698Y-132622374D01*
X198539838Y-132644503D01*
X198525713Y-132660805D01*
X198518276Y-132675040D01*
X198496076Y-132681299D01*
X198495772Y-132681239D01*
X198478536Y-132669321D01*
X198469030Y-132648531D01*
X198469499Y-132628785D01*
X198482190Y-132620000D01*
X198488659Y-132618755D01*
X198512735Y-132604069D01*
X198540855Y-132578156D01*
X198567006Y-132547735D01*
X198585176Y-132519525D01*
X198589352Y-132500245D01*
X198572955Y-132488373D01*
X198539957Y-132481474D01*
X198498843Y-132479960D01*
X198458059Y-132484136D01*
X198426050Y-132494311D01*
X198407293Y-132499722D01*
X198386263Y-132489269D01*
X198377895Y-132459433D01*
X198377903Y-132458685D01*
X198388731Y-132442223D01*
X198411412Y-132434743D01*
X198433285Y-132440560D01*
X198434945Y-132441635D01*
X198457045Y-132442061D01*
X198489608Y-132431490D01*
X198524210Y-132414072D01*
X198552425Y-132393955D01*
X198565828Y-132375289D01*
X198560882Y-132351800D01*
X198542304Y-132319604D01*
X198516193Y-132287034D01*
X198488777Y-132261822D01*
X198466283Y-132251700D01*
X198453657Y-132250436D01*
X198434387Y-132236223D01*
X198436168Y-132208396D01*
X198441653Y-132196898D01*
X198451243Y-132190548D01*
X198467994Y-132194692D01*
X198496450Y-132210694D01*
X198541155Y-132239918D01*
X198591689Y-132270678D01*
X198629268Y-132284956D01*
X198653299Y-132280353D01*
X198666054Y-132256386D01*
X198669800Y-132212571D01*
X198669078Y-132192532D01*
X198663510Y-132152125D01*
X198654244Y-132124844D01*
X198645289Y-132103419D01*
X198653390Y-132085230D01*
X198657426Y-132081704D01*
X198680361Y-132076151D01*
X198699739Y-132089887D01*
X198707900Y-132118268D01*
X198711489Y-132138730D01*
X198725676Y-132179187D01*
X198747154Y-132227484D01*
X198772151Y-132275920D01*
X198796898Y-132316792D01*
X198817624Y-132342398D01*
X198829444Y-132349356D01*
X198860868Y-132362549D01*
X198904363Y-132378200D01*
X198953942Y-132394447D01*
X199003616Y-132409427D01*
X199047396Y-132421278D01*
X199079296Y-132428137D01*
X199093326Y-132428143D01*
X199101252Y-132417744D01*
X199122213Y-132390224D01*
X199153675Y-132348909D01*
X199193145Y-132297074D01*
X199238128Y-132237995D01*
X199379102Y-132052841D01*
X199360342Y-131909171D01*
X199359384Y-131901805D01*
X199351835Y-131839743D01*
X199348222Y-131796171D01*
X199348574Y-131765074D01*
X199352920Y-131740436D01*
X199361292Y-131716243D01*
X199363730Y-131709809D01*
X199376003Y-131664612D01*
X199381000Y-131622792D01*
X199381008Y-131621160D01*
X199385487Y-131590147D01*
X199396875Y-131578595D01*
X199397388Y-131578526D01*
X199408261Y-131565691D01*
X199425259Y-131533842D01*
X199446156Y-131487544D01*
X199468722Y-131431363D01*
X199482394Y-131396368D01*
X199513434Y-131326878D01*
X199541682Y-131282032D01*
X199568765Y-131261795D01*
X199596310Y-131266130D01*
G37*
X199596310Y-131266130D02*
X199625944Y-131295000D01*
X199659293Y-131348369D01*
X199697984Y-131426200D01*
X199720912Y-131473136D01*
X199746123Y-131519243D01*
X199766731Y-131550905D01*
X199780070Y-131563656D01*
X199794030Y-131574906D01*
X199800379Y-131608106D01*
X199800856Y-131616687D01*
X199809004Y-131657579D01*
X199823982Y-131699798D01*
X199833156Y-131722398D01*
X199839653Y-131748671D01*
X199842095Y-131781072D01*
X199840900Y-131825974D01*
X199836489Y-131889748D01*
X199833395Y-131936997D01*
X199831666Y-131986246D01*
X199832221Y-132021248D01*
X199835111Y-132036482D01*
X199835119Y-132036489D01*
X199849536Y-132045270D01*
X199881738Y-132063129D01*
X199926962Y-132087472D01*
X199980448Y-132115703D01*
X200116345Y-132186792D01*
X200186770Y-132076371D01*
X200191112Y-132069517D01*
X200226771Y-132008604D01*
X200249347Y-131960520D01*
X200257248Y-131928606D01*
X200256115Y-131911538D01*
X200247991Y-131868432D01*
X200233975Y-131818127D01*
X200216371Y-131767017D01*
X200197483Y-131721496D01*
X200179615Y-131687956D01*
X200165070Y-131672792D01*
X200155457Y-131668056D01*
X200145679Y-131650096D01*
X200153547Y-131630634D01*
X200176964Y-131619134D01*
X200198069Y-131621779D01*
X200213565Y-131644350D01*
X200220534Y-131661913D01*
X200242873Y-131699085D01*
X200271007Y-131731866D01*
X200299212Y-131754149D01*
X200321767Y-131759826D01*
X200322545Y-131759617D01*
X200337331Y-131750301D01*
X200345076Y-131728675D01*
X200348176Y-131688243D01*
X200348672Y-131666178D01*
X200348747Y-131623843D01*
X200347663Y-131594273D01*
X200347517Y-131588944D01*
X200357085Y-131564782D01*
X200377824Y-131554958D01*
X200400711Y-131564530D01*
X200408240Y-131576657D01*
X200402225Y-131601141D01*
X200396722Y-131621780D01*
X200399625Y-131658960D01*
X200411212Y-131699074D01*
X200428541Y-131732677D01*
X200448673Y-131750326D01*
X200451464Y-131751000D01*
X200479235Y-131747215D01*
X200514663Y-131731735D01*
X200549809Y-131709479D01*
X200576728Y-131685368D01*
X200587478Y-131664325D01*
X200591594Y-131650952D01*
X200613299Y-131642100D01*
X200633760Y-131645707D01*
X200645254Y-131661914D01*
X200636510Y-131688940D01*
X200607694Y-131724352D01*
X200575369Y-131758287D01*
X200545215Y-131797205D01*
X200531787Y-131828641D01*
X200532706Y-131856797D01*
X200535447Y-131866136D01*
X200542653Y-131877407D01*
X200557705Y-131882548D01*
X200586423Y-131882864D01*
X200634626Y-131879660D01*
X200667833Y-131877504D01*
X200705816Y-131877194D01*
X200726761Y-131881451D01*
X200735724Y-131890834D01*
X200737323Y-131896218D01*
X200732990Y-131921098D01*
X200714121Y-131936383D01*
X200689142Y-131934222D01*
X200682143Y-131932370D01*
X200651821Y-131934210D01*
X200607920Y-131943384D01*
X200557328Y-131958003D01*
X200506934Y-131976180D01*
X200463628Y-131996026D01*
X200458633Y-132000004D01*
X200438012Y-132020470D01*
X200405837Y-132054596D01*
X200365420Y-132098667D01*
X200320074Y-132148970D01*
X200273114Y-132201791D01*
X200227851Y-132253416D01*
X200187600Y-132300131D01*
X200155673Y-132338222D01*
X200135384Y-132363975D01*
X200135197Y-132364078D01*
X200121931Y-132358956D01*
X200091275Y-132343695D01*
X200047551Y-132320523D01*
X199995083Y-132291667D01*
X199990535Y-132289130D01*
X199938527Y-132260606D01*
X199895534Y-132237906D01*
X199865911Y-132223274D01*
X199854012Y-132218954D01*
X199853727Y-132224417D01*
X199854960Y-132251560D01*
X199858052Y-132298233D01*
X199862745Y-132360878D01*
X199868780Y-132435940D01*
X199875899Y-132519862D01*
X199875984Y-132520839D01*
X199884936Y-132629382D01*
X199891035Y-132718471D01*
X199894458Y-132793824D01*
X199895378Y-132861160D01*
X199893971Y-132926195D01*
X199890411Y-132994650D01*
X199888982Y-133017527D01*
X199885419Y-133078832D01*
X199882909Y-133128703D01*
X199881669Y-133162505D01*
X199881917Y-133175601D01*
X199882515Y-133175436D01*
X199895903Y-133165023D01*
X199924619Y-133140530D01*
X199965808Y-133104453D01*
X200016615Y-133059288D01*
X200074185Y-133007530D01*
X200085965Y-132996897D01*
X200142878Y-132945903D01*
X200192816Y-132901761D01*
X200232830Y-132867038D01*
X200259972Y-132844297D01*
X200271292Y-132836104D01*
X200273224Y-132839783D01*
X200278513Y-132863697D01*
X200285524Y-132906172D01*
X200293573Y-132962901D01*
X200301977Y-133029575D01*
X200306474Y-133067826D01*
X200315880Y-133147814D01*
X200323831Y-133204767D01*
X200332070Y-133240168D01*
X200342338Y-133255498D01*
X200356377Y-133252241D01*
X200375930Y-133231877D01*
X200402737Y-133195889D01*
X200438542Y-133145758D01*
X200536700Y-133009608D01*
X200536700Y-132878131D01*
X200536631Y-132862894D01*
X200534323Y-132796609D01*
X200529015Y-132748301D01*
X200521074Y-132721632D01*
X200519492Y-132719045D01*
X200512497Y-132696616D01*
X200525942Y-132676115D01*
X200543696Y-132665270D01*
X200569489Y-132666385D01*
X200588173Y-132682694D01*
X200590978Y-132709672D01*
X200590255Y-132728878D01*
X200595711Y-132766956D01*
X200606835Y-132811438D01*
X200617837Y-132845615D01*
X200629971Y-132872183D01*
X200643593Y-132884006D01*
X200662885Y-132886700D01*
X200678673Y-132884838D01*
X200694789Y-132874435D01*
X200710687Y-132850297D01*
X200730726Y-132807325D01*
X200747716Y-132765628D01*
X200760439Y-132728947D01*
X200765302Y-132707206D01*
X200766057Y-132701549D01*
X200780720Y-132684461D01*
X200805197Y-132678544D01*
X200827730Y-132687509D01*
X200836593Y-132699306D01*
X200838731Y-132728124D01*
X200816713Y-132757664D01*
X200803888Y-132774249D01*
X200790785Y-132814065D01*
X200787282Y-132861250D01*
X200793729Y-132905710D01*
X200810477Y-132937347D01*
X200813251Y-132940075D01*
X200827810Y-132951658D01*
X200844505Y-132955600D01*
X200870794Y-132952226D01*
X200914134Y-132941859D01*
X200948346Y-132932069D01*
X200985035Y-132915818D01*
X201000715Y-132897935D01*
X201008284Y-132883471D01*
X201029202Y-132874845D01*
X201054860Y-132889239D01*
X201068620Y-132914868D01*
X201066089Y-132941337D01*
X201047875Y-132957602D01*
X201025810Y-132966466D01*
X200989133Y-132983441D01*
X200945846Y-133004828D01*
X200919246Y-133019400D01*
X200874487Y-133052683D01*
X200854706Y-133084468D01*
X200860079Y-133114536D01*
X200861549Y-133116486D01*
X200882660Y-133131477D01*
X200918521Y-133149207D01*
X200960757Y-133166243D01*
X201000992Y-133179155D01*
X201030849Y-133184509D01*
X201044259Y-133186520D01*
X201065059Y-133202377D01*
X201067869Y-133226751D01*
X201050144Y-133250883D01*
X201047041Y-133253093D01*
X201026564Y-133260646D01*
X201005931Y-133248043D01*
X201003263Y-133245934D01*
X200973281Y-133234016D01*
X200926143Y-133225253D01*
X200868859Y-133220064D01*
X200808441Y-133218868D01*
X200751900Y-133222084D01*
X200706249Y-133230132D01*
X200689657Y-133235608D01*
X200666450Y-133246680D01*
X200639893Y-133264058D01*
X200607080Y-133290089D01*
X200565106Y-133327121D01*
X200511065Y-133377500D01*
X200442052Y-133443576D01*
X200238250Y-133640109D01*
X200222662Y-133476129D01*
X200221788Y-133466971D01*
X200215716Y-133405084D01*
X200210286Y-133352592D01*
X200206064Y-133314795D01*
X200203612Y-133296991D01*
X200203033Y-133296175D01*
X200190049Y-133301572D01*
X200162949Y-133321325D01*
X200125251Y-133352694D01*
X200080475Y-133392936D01*
X199960800Y-133504039D01*
X200034846Y-133630344D01*
X200082141Y-133709556D01*
X200145330Y-133809122D01*
X200203488Y-133891490D01*
X200259659Y-133960288D01*
X200316883Y-134019145D01*
X200378204Y-134071689D01*
X200446663Y-134121550D01*
X200466675Y-134134812D01*
X200550416Y-134184592D01*
X200642007Y-134231771D01*
X200732275Y-134271860D01*
X200812045Y-134300369D01*
X200853149Y-134311173D01*
X200983726Y-134328823D01*
X201118949Y-134323852D01*
X201255029Y-134296911D01*
X201388176Y-134248651D01*
X201514600Y-134179721D01*
X201520237Y-134175981D01*
X201568601Y-134139569D01*
X201627138Y-134089931D01*
X201690225Y-134032340D01*
X201752239Y-133972071D01*
X201807556Y-133914400D01*
X201850554Y-133864600D01*
X201885790Y-133820150D01*
X201856517Y-133870950D01*
X201796546Y-133965309D01*
X201692276Y-134095106D01*
X201574298Y-134206765D01*
X201444703Y-134298877D01*
X201305582Y-134370030D01*
X201159028Y-134418813D01*
X201007133Y-134443816D01*
X200963897Y-134445808D01*
X200874482Y-134443588D01*
X200776428Y-134434921D01*
X200679598Y-134420799D01*
X200593850Y-134402214D01*
X200522512Y-134378837D01*
X200437379Y-134343697D01*
X200348824Y-134301371D01*
X200265406Y-134255960D01*
X200195686Y-134211560D01*
X200128140Y-134159026D01*
X200042314Y-134081183D01*
X199958742Y-133994610D01*
X199884092Y-133906294D01*
X199825034Y-133823224D01*
X199803673Y-133789764D01*
X199777102Y-133749920D01*
X199757460Y-133722630D01*
X199747916Y-133712448D01*
X199738078Y-133718976D01*
X199713210Y-133739801D01*
X199677554Y-133771541D01*
X199635117Y-133810707D01*
X199530054Y-133909215D01*
X199706352Y-134069490D01*
X199749475Y-134108471D01*
X199811632Y-134164338D01*
X199857802Y-134207081D01*
X199889202Y-134239818D01*
X199907048Y-134265667D01*
X199912555Y-134287746D01*
X199906940Y-134309175D01*
X199891419Y-134333072D01*
X199867207Y-134362556D01*
X199835522Y-134400744D01*
X199830233Y-134407327D01*
X199775009Y-134476374D01*
X199733422Y-134530149D01*
X199703389Y-134572843D01*
X199682827Y-134608648D01*
X199669652Y-134641756D01*
X199661783Y-134676358D01*
X199657137Y-134716646D01*
X199653631Y-134766811D01*
X199651114Y-134809383D01*
X199649549Y-134857159D01*
X199651115Y-134887795D01*
X199656189Y-134906222D01*
X199665148Y-134917370D01*
X199677642Y-134933782D01*
X199672387Y-134958133D01*
X199667427Y-134965697D01*
X199644559Y-134980110D01*
X199620007Y-134977417D01*
X199602364Y-134960634D01*
X199600219Y-134932780D01*
X199600604Y-134910470D01*
X199594485Y-134871116D01*
X199582923Y-134825305D01*
X199580491Y-134817235D01*
X199567448Y-134777456D01*
X199556576Y-134756440D01*
X199544062Y-134749182D01*
X199526093Y-134750674D01*
X199507600Y-134757869D01*
X199486506Y-134780148D01*
X199464801Y-134821925D01*
X199454004Y-134847388D01*
X199437467Y-134890443D01*
X199427142Y-134922699D01*
X199417892Y-134942570D01*
X199396416Y-134955086D01*
X199372482Y-134947723D01*
X199353780Y-134920693D01*
X199351827Y-134915066D01*
X199350346Y-134894329D01*
X199366693Y-134884700D01*
X199374566Y-134881337D01*
X199389295Y-134861200D01*
X199398471Y-134820609D01*
X199404224Y-134772397D01*
X199404914Y-134739828D01*
X199399588Y-134717540D01*
X199387582Y-134698067D01*
X199386666Y-134696867D01*
X199374851Y-134685023D01*
X199358854Y-134680285D01*
X199331800Y-134682096D01*
X199286811Y-134689899D01*
X199285650Y-134690119D01*
X199236766Y-134701518D01*
X199208561Y-134713989D01*
X199196420Y-134729557D01*
X199196396Y-134729630D01*
X199179412Y-134749340D01*
X199153264Y-134751852D01*
X199128336Y-134736159D01*
X199119520Y-134709960D01*
X199131914Y-134685217D01*
X199162128Y-134669067D01*
X199183828Y-134661330D01*
X199222605Y-134643607D01*
X199265502Y-134621095D01*
X199270248Y-134618414D01*
X199310546Y-134592699D01*
X199332345Y-134570615D01*
X199340510Y-134547379D01*
X199341187Y-134536357D01*
X199335957Y-134518044D01*
X199317477Y-134501540D01*
X199280607Y-134481161D01*
X199254650Y-134469359D01*
X199211523Y-134454577D01*
X199178223Y-134448800D01*
X199177469Y-134448798D01*
X199150769Y-134447205D01*
X199139700Y-134443488D01*
X199138957Y-134439187D01*
X199132620Y-134419726D01*
X199132905Y-134403517D01*
X199146929Y-134379885D01*
X199160432Y-134368003D01*
X199174698Y-134367050D01*
X199195285Y-134383604D01*
X199200930Y-134388443D01*
X199219538Y-134398895D01*
X199246724Y-134405641D01*
X199288093Y-134409721D01*
X199349250Y-134412175D01*
X199415106Y-134412321D01*
X199481164Y-134407922D01*
X199527050Y-134398839D01*
X199553392Y-134387657D01*
X199591223Y-134366821D01*
X199630225Y-134341763D01*
X199664520Y-134316562D01*
X199688229Y-134295292D01*
X199695476Y-134282032D01*
X199692763Y-134279136D01*
X199673314Y-134263088D01*
X199637696Y-134235436D01*
X199588882Y-134198442D01*
X199529842Y-134154368D01*
X199463550Y-134105476D01*
X199431047Y-134081513D01*
X199368475Y-134034601D01*
X199314993Y-133993460D01*
X199273480Y-133960363D01*
X199246814Y-133937580D01*
X199237872Y-133927381D01*
X199240203Y-133923217D01*
X199255013Y-133901114D01*
X199281569Y-133863125D01*
X199317707Y-133812305D01*
X199361262Y-133751707D01*
X199410070Y-133684386D01*
X199434783Y-133650410D01*
X199481858Y-133585531D01*
X199522981Y-133528643D01*
X199555897Y-133482880D01*
X199578350Y-133451371D01*
X199588086Y-133437249D01*
X199588192Y-133433605D01*
X199580679Y-133410389D01*
X199563395Y-133369654D01*
X199537926Y-133314857D01*
X199505854Y-133249453D01*
X199468765Y-133176899D01*
X199340707Y-132931150D01*
X199360805Y-132608310D01*
X199365370Y-132532805D01*
X199369908Y-132452278D01*
X199373431Y-132383393D01*
X199375775Y-132329575D01*
X199376779Y-132294252D01*
X199376282Y-132280847D01*
X199374996Y-132281425D01*
X199363250Y-132296227D01*
X199341652Y-132327739D01*
X199312719Y-132372209D01*
X199278967Y-132425887D01*
X199268132Y-132443373D01*
X199235541Y-132495852D01*
X199208703Y-132538898D01*
X199190150Y-132568453D01*
X199182418Y-132580461D01*
X199179802Y-132580888D01*
X199157656Y-132579395D01*
X199116812Y-132574728D01*
X199061814Y-132567436D01*
X198997206Y-132558069D01*
X198974427Y-132554677D01*
X198908515Y-132545294D01*
X198851189Y-132537741D01*
X198807951Y-132532720D01*
X198784304Y-132530933D01*
X198755187Y-132536507D01*
X198713037Y-132551484D01*
X198664362Y-132572819D01*
X198615227Y-132597464D01*
X198571698Y-132622374D01*
X198539838Y-132644503D01*
X198525713Y-132660805D01*
X198518276Y-132675040D01*
X198496076Y-132681299D01*
X198495772Y-132681239D01*
X198478536Y-132669321D01*
X198469030Y-132648531D01*
X198469499Y-132628785D01*
X198482190Y-132620000D01*
X198488659Y-132618755D01*
X198512735Y-132604069D01*
X198540855Y-132578156D01*
X198567006Y-132547735D01*
X198585176Y-132519525D01*
X198589352Y-132500245D01*
X198572955Y-132488373D01*
X198539957Y-132481474D01*
X198498843Y-132479960D01*
X198458059Y-132484136D01*
X198426050Y-132494311D01*
X198407293Y-132499722D01*
X198386263Y-132489269D01*
X198377895Y-132459433D01*
X198377903Y-132458685D01*
X198388731Y-132442223D01*
X198411412Y-132434743D01*
X198433285Y-132440560D01*
X198434945Y-132441635D01*
X198457045Y-132442061D01*
X198489608Y-132431490D01*
X198524210Y-132414072D01*
X198552425Y-132393955D01*
X198565828Y-132375289D01*
X198560882Y-132351800D01*
X198542304Y-132319604D01*
X198516193Y-132287034D01*
X198488777Y-132261822D01*
X198466283Y-132251700D01*
X198453657Y-132250436D01*
X198434387Y-132236223D01*
X198436168Y-132208396D01*
X198441653Y-132196898D01*
X198451243Y-132190548D01*
X198467994Y-132194692D01*
X198496450Y-132210694D01*
X198541155Y-132239918D01*
X198591689Y-132270678D01*
X198629268Y-132284956D01*
X198653299Y-132280353D01*
X198666054Y-132256386D01*
X198669800Y-132212571D01*
X198669078Y-132192532D01*
X198663510Y-132152125D01*
X198654244Y-132124844D01*
X198645289Y-132103419D01*
X198653390Y-132085230D01*
X198657426Y-132081704D01*
X198680361Y-132076151D01*
X198699739Y-132089887D01*
X198707900Y-132118268D01*
X198711489Y-132138730D01*
X198725676Y-132179187D01*
X198747154Y-132227484D01*
X198772151Y-132275920D01*
X198796898Y-132316792D01*
X198817624Y-132342398D01*
X198829444Y-132349356D01*
X198860868Y-132362549D01*
X198904363Y-132378200D01*
X198953942Y-132394447D01*
X199003616Y-132409427D01*
X199047396Y-132421278D01*
X199079296Y-132428137D01*
X199093326Y-132428143D01*
X199101252Y-132417744D01*
X199122213Y-132390224D01*
X199153675Y-132348909D01*
X199193145Y-132297074D01*
X199238128Y-132237995D01*
X199379102Y-132052841D01*
X199360342Y-131909171D01*
X199359384Y-131901805D01*
X199351835Y-131839743D01*
X199348222Y-131796171D01*
X199348574Y-131765074D01*
X199352920Y-131740436D01*
X199361292Y-131716243D01*
X199363730Y-131709809D01*
X199376003Y-131664612D01*
X199381000Y-131622792D01*
X199381008Y-131621160D01*
X199385487Y-131590147D01*
X199396875Y-131578595D01*
X199397388Y-131578526D01*
X199408261Y-131565691D01*
X199425259Y-131533842D01*
X199446156Y-131487544D01*
X199468722Y-131431363D01*
X199482394Y-131396368D01*
X199513434Y-131326878D01*
X199541682Y-131282032D01*
X199568765Y-131261795D01*
X199596310Y-131266130D01*
D13*
X206995000Y-62945000D03*
X130995000Y-58445000D03*
X206995000Y-101445000D03*
X130995000Y-98945000D03*
X103995000Y-120445000D03*
D14*
X95155987Y-103412499D03*
X95155987Y-105952499D03*
X95155987Y-108492499D03*
X95155987Y-111032499D03*
D15*
X93505987Y-100412499D03*
D16*
X95505987Y-100412499D03*
D17*
X102471000Y-105713000D03*
X103741000Y-102665000D03*
X100947000Y-102665000D03*
X105265000Y-105713000D03*
X99677000Y-105713000D03*
M02*
