G04 #@! TF.GenerationSoftware,KiCad,Pcbnew,(5.1.12-1-10_14)*
G04 #@! TF.CreationDate,2021-12-25T11:36:38+00:00*
G04 #@! TF.ProjectId,SofleKeyboardTopPlate,536f666c-654b-4657-9962-6f617264546f,rev?*
G04 #@! TF.SameCoordinates,Original*
G04 #@! TF.FileFunction,Copper,L1,Top*
G04 #@! TF.FilePolarity,Positive*
%FSLAX46Y46*%
G04 Gerber Fmt 4.6, Leading zero omitted, Abs format (unit mm)*
G04 Created by KiCad (PCBNEW (5.1.12-1-10_14)) date 2021-12-25 11:36:38*
%MOMM*%
%LPD*%
G01*
G04 APERTURE LIST*
G04 #@! TA.AperFunction,NonConductor*
%ADD10C,0.200000*%
G04 #@! TD*
G04 #@! TA.AperFunction,NonConductor*
%ADD11C,0.150000*%
G04 #@! TD*
G04 #@! TA.AperFunction,ComponentPad*
%ADD12O,3.000000X2.000000*%
G04 #@! TD*
G04 #@! TA.AperFunction,ComponentPad*
%ADD13O,1.524000X1.524000*%
G04 #@! TD*
G04 #@! TA.AperFunction,ComponentPad*
%ADD14C,1.524000*%
G04 #@! TD*
G04 #@! TA.AperFunction,ComponentPad*
%ADD15C,0.100000*%
G04 #@! TD*
G04 #@! TA.AperFunction,ComponentPad*
%ADD16C,4.700000*%
G04 #@! TD*
G04 #@! TA.AperFunction,Conductor*
%ADD17C,0.250000*%
G04 #@! TD*
G04 #@! TA.AperFunction,NonConductor*
%ADD18C,0.254000*%
G04 #@! TD*
G04 #@! TA.AperFunction,NonConductor*
%ADD19C,0.100000*%
G04 #@! TD*
G04 APERTURE END LIST*
D10*
X130347380Y-94147619D02*
X130347380Y-93957142D01*
X130395000Y-93861904D01*
X130490238Y-93766666D01*
X130680714Y-93719047D01*
X131014047Y-93719047D01*
X131204523Y-93766666D01*
X131299761Y-93861904D01*
X131347380Y-93957142D01*
X131347380Y-94147619D01*
X131299761Y-94242857D01*
X131204523Y-94338095D01*
X131014047Y-94385714D01*
X130680714Y-94385714D01*
X130490238Y-94338095D01*
X130395000Y-94242857D01*
X130347380Y-94147619D01*
X131347380Y-93290476D02*
X130680714Y-93290476D01*
X130871190Y-93290476D02*
X130775952Y-93242857D01*
X130728333Y-93195238D01*
X130680714Y-93100000D01*
X130680714Y-93004761D01*
X131347380Y-92671428D02*
X130680714Y-92671428D01*
X130347380Y-92671428D02*
X130395000Y-92719047D01*
X130442619Y-92671428D01*
X130395000Y-92623809D01*
X130347380Y-92671428D01*
X130442619Y-92671428D01*
X130680714Y-91766666D02*
X131490238Y-91766666D01*
X131585476Y-91814285D01*
X131633095Y-91861904D01*
X131680714Y-91957142D01*
X131680714Y-92100000D01*
X131633095Y-92195238D01*
X131299761Y-91766666D02*
X131347380Y-91861904D01*
X131347380Y-92052380D01*
X131299761Y-92147619D01*
X131252142Y-92195238D01*
X131156904Y-92242857D01*
X130871190Y-92242857D01*
X130775952Y-92195238D01*
X130728333Y-92147619D01*
X130680714Y-92052380D01*
X130680714Y-91861904D01*
X130728333Y-91766666D01*
X131347380Y-91290476D02*
X130680714Y-91290476D01*
X130347380Y-91290476D02*
X130395000Y-91338095D01*
X130442619Y-91290476D01*
X130395000Y-91242857D01*
X130347380Y-91290476D01*
X130442619Y-91290476D01*
X130680714Y-90814285D02*
X131347380Y-90814285D01*
X130775952Y-90814285D02*
X130728333Y-90766666D01*
X130680714Y-90671428D01*
X130680714Y-90528571D01*
X130728333Y-90433333D01*
X130823571Y-90385714D01*
X131347380Y-90385714D01*
X131347380Y-89480952D02*
X130823571Y-89480952D01*
X130728333Y-89528571D01*
X130680714Y-89623809D01*
X130680714Y-89814285D01*
X130728333Y-89909523D01*
X131299761Y-89480952D02*
X131347380Y-89576190D01*
X131347380Y-89814285D01*
X131299761Y-89909523D01*
X131204523Y-89957142D01*
X131109285Y-89957142D01*
X131014047Y-89909523D01*
X130966428Y-89814285D01*
X130966428Y-89576190D01*
X130918809Y-89480952D01*
X131347380Y-88861904D02*
X131299761Y-88957142D01*
X131204523Y-89004761D01*
X130347380Y-89004761D01*
X131299761Y-87766666D02*
X131347380Y-87623809D01*
X131347380Y-87385714D01*
X131299761Y-87290476D01*
X131252142Y-87242857D01*
X131156904Y-87195238D01*
X131061666Y-87195238D01*
X130966428Y-87242857D01*
X130918809Y-87290476D01*
X130871190Y-87385714D01*
X130823571Y-87576190D01*
X130775952Y-87671428D01*
X130728333Y-87719047D01*
X130633095Y-87766666D01*
X130537857Y-87766666D01*
X130442619Y-87719047D01*
X130395000Y-87671428D01*
X130347380Y-87576190D01*
X130347380Y-87338095D01*
X130395000Y-87195238D01*
X131347380Y-86623809D02*
X131299761Y-86719047D01*
X131252142Y-86766666D01*
X131156904Y-86814285D01*
X130871190Y-86814285D01*
X130775952Y-86766666D01*
X130728333Y-86719047D01*
X130680714Y-86623809D01*
X130680714Y-86480952D01*
X130728333Y-86385714D01*
X130775952Y-86338095D01*
X130871190Y-86290476D01*
X131156904Y-86290476D01*
X131252142Y-86338095D01*
X131299761Y-86385714D01*
X131347380Y-86480952D01*
X131347380Y-86623809D01*
X130680714Y-86004761D02*
X130680714Y-85623809D01*
X131347380Y-85861904D02*
X130490238Y-85861904D01*
X130395000Y-85814285D01*
X130347380Y-85719047D01*
X130347380Y-85623809D01*
X131347380Y-85147619D02*
X131299761Y-85242857D01*
X131204523Y-85290476D01*
X130347380Y-85290476D01*
X131299761Y-84385714D02*
X131347380Y-84480952D01*
X131347380Y-84671428D01*
X131299761Y-84766666D01*
X131204523Y-84814285D01*
X130823571Y-84814285D01*
X130728333Y-84766666D01*
X130680714Y-84671428D01*
X130680714Y-84480952D01*
X130728333Y-84385714D01*
X130823571Y-84338095D01*
X130918809Y-84338095D01*
X131014047Y-84814285D01*
X131347380Y-82719047D02*
X130347380Y-82719047D01*
X131299761Y-82719047D02*
X131347380Y-82814285D01*
X131347380Y-83004761D01*
X131299761Y-83100000D01*
X131252142Y-83147619D01*
X131156904Y-83195238D01*
X130871190Y-83195238D01*
X130775952Y-83147619D01*
X130728333Y-83100000D01*
X130680714Y-83004761D01*
X130680714Y-82814285D01*
X130728333Y-82719047D01*
X131299761Y-81861904D02*
X131347380Y-81957142D01*
X131347380Y-82147619D01*
X131299761Y-82242857D01*
X131204523Y-82290476D01*
X130823571Y-82290476D01*
X130728333Y-82242857D01*
X130680714Y-82147619D01*
X130680714Y-81957142D01*
X130728333Y-81861904D01*
X130823571Y-81814285D01*
X130918809Y-81814285D01*
X131014047Y-82290476D01*
X131299761Y-81433333D02*
X131347380Y-81338095D01*
X131347380Y-81147619D01*
X131299761Y-81052380D01*
X131204523Y-81004761D01*
X131156904Y-81004761D01*
X131061666Y-81052380D01*
X131014047Y-81147619D01*
X131014047Y-81290476D01*
X130966428Y-81385714D01*
X130871190Y-81433333D01*
X130823571Y-81433333D01*
X130728333Y-81385714D01*
X130680714Y-81290476D01*
X130680714Y-81147619D01*
X130728333Y-81052380D01*
X131347380Y-80576190D02*
X130680714Y-80576190D01*
X130347380Y-80576190D02*
X130395000Y-80623809D01*
X130442619Y-80576190D01*
X130395000Y-80528571D01*
X130347380Y-80576190D01*
X130442619Y-80576190D01*
X130680714Y-79671428D02*
X131490238Y-79671428D01*
X131585476Y-79719047D01*
X131633095Y-79766666D01*
X131680714Y-79861904D01*
X131680714Y-80004761D01*
X131633095Y-80100000D01*
X131299761Y-79671428D02*
X131347380Y-79766666D01*
X131347380Y-79957142D01*
X131299761Y-80052380D01*
X131252142Y-80100000D01*
X131156904Y-80147619D01*
X130871190Y-80147619D01*
X130775952Y-80100000D01*
X130728333Y-80052380D01*
X130680714Y-79957142D01*
X130680714Y-79766666D01*
X130728333Y-79671428D01*
X130680714Y-79195238D02*
X131347380Y-79195238D01*
X130775952Y-79195238D02*
X130728333Y-79147619D01*
X130680714Y-79052380D01*
X130680714Y-78909523D01*
X130728333Y-78814285D01*
X130823571Y-78766666D01*
X131347380Y-78766666D01*
X131347380Y-77528571D02*
X130347380Y-77528571D01*
X130728333Y-77528571D02*
X130680714Y-77433333D01*
X130680714Y-77242857D01*
X130728333Y-77147619D01*
X130775952Y-77100000D01*
X130871190Y-77052380D01*
X131156904Y-77052380D01*
X131252142Y-77100000D01*
X131299761Y-77147619D01*
X131347380Y-77242857D01*
X131347380Y-77433333D01*
X131299761Y-77528571D01*
X130680714Y-76719047D02*
X131347380Y-76480952D01*
X130680714Y-76242857D02*
X131347380Y-76480952D01*
X131585476Y-76576190D01*
X131633095Y-76623809D01*
X131680714Y-76719047D01*
X130347380Y-74814285D02*
X131061666Y-74814285D01*
X131204523Y-74861904D01*
X131299761Y-74957142D01*
X131347380Y-75100000D01*
X131347380Y-75195238D01*
X131347380Y-74195238D02*
X131299761Y-74290476D01*
X131252142Y-74338095D01*
X131156904Y-74385714D01*
X130871190Y-74385714D01*
X130775952Y-74338095D01*
X130728333Y-74290476D01*
X130680714Y-74195238D01*
X130680714Y-74052380D01*
X130728333Y-73957142D01*
X130775952Y-73909523D01*
X130871190Y-73861904D01*
X131156904Y-73861904D01*
X131252142Y-73909523D01*
X131299761Y-73957142D01*
X131347380Y-74052380D01*
X131347380Y-74195238D01*
X131299761Y-73480952D02*
X131347380Y-73385714D01*
X131347380Y-73195238D01*
X131299761Y-73100000D01*
X131204523Y-73052380D01*
X131156904Y-73052380D01*
X131061666Y-73100000D01*
X131014047Y-73195238D01*
X131014047Y-73338095D01*
X130966428Y-73433333D01*
X130871190Y-73480952D01*
X130823571Y-73480952D01*
X130728333Y-73433333D01*
X130680714Y-73338095D01*
X130680714Y-73195238D01*
X130728333Y-73100000D01*
X131299761Y-72242857D02*
X131347380Y-72338095D01*
X131347380Y-72528571D01*
X131299761Y-72623809D01*
X131204523Y-72671428D01*
X130823571Y-72671428D01*
X130728333Y-72623809D01*
X130680714Y-72528571D01*
X130680714Y-72338095D01*
X130728333Y-72242857D01*
X130823571Y-72195238D01*
X130918809Y-72195238D01*
X131014047Y-72671428D01*
X130680714Y-71909523D02*
X130680714Y-71528571D01*
X131347380Y-71766666D02*
X130490238Y-71766666D01*
X130395000Y-71719047D01*
X130347380Y-71623809D01*
X130347380Y-71528571D01*
X131061666Y-70480952D02*
X131061666Y-70004761D01*
X131347380Y-70576190D02*
X130347380Y-70242857D01*
X131347380Y-69909523D01*
X131347380Y-69147619D02*
X130347380Y-69147619D01*
X131299761Y-69147619D02*
X131347380Y-69242857D01*
X131347380Y-69433333D01*
X131299761Y-69528571D01*
X131252142Y-69576190D01*
X131156904Y-69623809D01*
X130871190Y-69623809D01*
X130775952Y-69576190D01*
X130728333Y-69528571D01*
X130680714Y-69433333D01*
X130680714Y-69242857D01*
X130728333Y-69147619D01*
X131347380Y-68242857D02*
X130823571Y-68242857D01*
X130728333Y-68290476D01*
X130680714Y-68385714D01*
X130680714Y-68576190D01*
X130728333Y-68671428D01*
X131299761Y-68242857D02*
X131347380Y-68338095D01*
X131347380Y-68576190D01*
X131299761Y-68671428D01*
X131204523Y-68719047D01*
X131109285Y-68719047D01*
X131014047Y-68671428D01*
X130966428Y-68576190D01*
X130966428Y-68338095D01*
X130918809Y-68242857D01*
X131347380Y-67766666D02*
X130680714Y-67766666D01*
X130775952Y-67766666D02*
X130728333Y-67719047D01*
X130680714Y-67623809D01*
X130680714Y-67480952D01*
X130728333Y-67385714D01*
X130823571Y-67338095D01*
X131347380Y-67338095D01*
X130823571Y-67338095D02*
X130728333Y-67290476D01*
X130680714Y-67195238D01*
X130680714Y-67052380D01*
X130728333Y-66957142D01*
X130823571Y-66909523D01*
X131347380Y-66909523D01*
X131347380Y-66004761D02*
X130823571Y-66004761D01*
X130728333Y-66052380D01*
X130680714Y-66147619D01*
X130680714Y-66338095D01*
X130728333Y-66433333D01*
X131299761Y-66004761D02*
X131347380Y-66100000D01*
X131347380Y-66338095D01*
X131299761Y-66433333D01*
X131204523Y-66480952D01*
X131109285Y-66480952D01*
X131014047Y-66433333D01*
X130966428Y-66338095D01*
X130966428Y-66100000D01*
X130918809Y-66004761D01*
X131299761Y-65100000D02*
X131347380Y-65195238D01*
X131347380Y-65385714D01*
X131299761Y-65480952D01*
X131252142Y-65528571D01*
X131156904Y-65576190D01*
X130871190Y-65576190D01*
X130775952Y-65528571D01*
X130728333Y-65480952D01*
X130680714Y-65385714D01*
X130680714Y-65195238D01*
X130728333Y-65100000D01*
X131347380Y-64671428D02*
X130680714Y-64671428D01*
X130347380Y-64671428D02*
X130395000Y-64719047D01*
X130442619Y-64671428D01*
X130395000Y-64623809D01*
X130347380Y-64671428D01*
X130442619Y-64671428D01*
X131347380Y-64195238D02*
X130347380Y-64195238D01*
X130966428Y-64100000D02*
X131347380Y-63814285D01*
X130680714Y-63814285D02*
X131061666Y-64195238D01*
D11*
X150547380Y-98214285D02*
X149547380Y-98214285D01*
X150547380Y-97785714D02*
X150023571Y-97785714D01*
X149928333Y-97833333D01*
X149880714Y-97928571D01*
X149880714Y-98071428D01*
X149928333Y-98166666D01*
X149975952Y-98214285D01*
X149880714Y-97452380D02*
X149880714Y-97071428D01*
X149547380Y-97309523D02*
X150404523Y-97309523D01*
X150499761Y-97261904D01*
X150547380Y-97166666D01*
X150547380Y-97071428D01*
X149880714Y-96880952D02*
X149880714Y-96500000D01*
X149547380Y-96738095D02*
X150404523Y-96738095D01*
X150499761Y-96690476D01*
X150547380Y-96595238D01*
X150547380Y-96500000D01*
X149880714Y-96166666D02*
X150880714Y-96166666D01*
X149928333Y-96166666D02*
X149880714Y-96071428D01*
X149880714Y-95880952D01*
X149928333Y-95785714D01*
X149975952Y-95738095D01*
X150071190Y-95690476D01*
X150356904Y-95690476D01*
X150452142Y-95738095D01*
X150499761Y-95785714D01*
X150547380Y-95880952D01*
X150547380Y-96071428D01*
X150499761Y-96166666D01*
X150499761Y-95309523D02*
X150547380Y-95214285D01*
X150547380Y-95023809D01*
X150499761Y-94928571D01*
X150404523Y-94880952D01*
X150356904Y-94880952D01*
X150261666Y-94928571D01*
X150214047Y-95023809D01*
X150214047Y-95166666D01*
X150166428Y-95261904D01*
X150071190Y-95309523D01*
X150023571Y-95309523D01*
X149928333Y-95261904D01*
X149880714Y-95166666D01*
X149880714Y-95023809D01*
X149928333Y-94928571D01*
X150452142Y-94452380D02*
X150499761Y-94404761D01*
X150547380Y-94452380D01*
X150499761Y-94500000D01*
X150452142Y-94452380D01*
X150547380Y-94452380D01*
X149928333Y-94452380D02*
X149975952Y-94404761D01*
X150023571Y-94452380D01*
X149975952Y-94500000D01*
X149928333Y-94452380D01*
X150023571Y-94452380D01*
X149499761Y-93261904D02*
X150785476Y-94119047D01*
X149499761Y-92214285D02*
X150785476Y-93071428D01*
X149880714Y-91880952D02*
X150737857Y-91880952D01*
X150833095Y-91928571D01*
X150880714Y-92023809D01*
X150880714Y-92071428D01*
X149547380Y-91880952D02*
X149595000Y-91928571D01*
X149642619Y-91880952D01*
X149595000Y-91833333D01*
X149547380Y-91880952D01*
X149642619Y-91880952D01*
X150547380Y-91261904D02*
X150499761Y-91357142D01*
X150452142Y-91404761D01*
X150356904Y-91452380D01*
X150071190Y-91452380D01*
X149975952Y-91404761D01*
X149928333Y-91357142D01*
X149880714Y-91261904D01*
X149880714Y-91119047D01*
X149928333Y-91023809D01*
X149975952Y-90976190D01*
X150071190Y-90928571D01*
X150356904Y-90928571D01*
X150452142Y-90976190D01*
X150499761Y-91023809D01*
X150547380Y-91119047D01*
X150547380Y-91261904D01*
X150499761Y-90547619D02*
X150547380Y-90452380D01*
X150547380Y-90261904D01*
X150499761Y-90166666D01*
X150404523Y-90119047D01*
X150356904Y-90119047D01*
X150261666Y-90166666D01*
X150214047Y-90261904D01*
X150214047Y-90404761D01*
X150166428Y-90500000D01*
X150071190Y-90547619D01*
X150023571Y-90547619D01*
X149928333Y-90500000D01*
X149880714Y-90404761D01*
X149880714Y-90261904D01*
X149928333Y-90166666D01*
X150499761Y-89309523D02*
X150547380Y-89404761D01*
X150547380Y-89595238D01*
X150499761Y-89690476D01*
X150404523Y-89738095D01*
X150023571Y-89738095D01*
X149928333Y-89690476D01*
X149880714Y-89595238D01*
X149880714Y-89404761D01*
X149928333Y-89309523D01*
X150023571Y-89261904D01*
X150118809Y-89261904D01*
X150214047Y-89738095D01*
X149880714Y-88976190D02*
X149880714Y-88595238D01*
X150547380Y-88833333D02*
X149690238Y-88833333D01*
X149595000Y-88785714D01*
X149547380Y-88690476D01*
X149547380Y-88595238D01*
X150547380Y-87833333D02*
X150023571Y-87833333D01*
X149928333Y-87880952D01*
X149880714Y-87976190D01*
X149880714Y-88166666D01*
X149928333Y-88261904D01*
X150499761Y-87833333D02*
X150547380Y-87928571D01*
X150547380Y-88166666D01*
X150499761Y-88261904D01*
X150404523Y-88309523D01*
X150309285Y-88309523D01*
X150214047Y-88261904D01*
X150166428Y-88166666D01*
X150166428Y-87928571D01*
X150118809Y-87833333D01*
X150547380Y-86928571D02*
X149547380Y-86928571D01*
X150499761Y-86928571D02*
X150547380Y-87023809D01*
X150547380Y-87214285D01*
X150499761Y-87309523D01*
X150452142Y-87357142D01*
X150356904Y-87404761D01*
X150071190Y-87404761D01*
X149975952Y-87357142D01*
X149928333Y-87309523D01*
X149880714Y-87214285D01*
X149880714Y-87023809D01*
X149928333Y-86928571D01*
X150547380Y-86023809D02*
X150023571Y-86023809D01*
X149928333Y-86071428D01*
X149880714Y-86166666D01*
X149880714Y-86357142D01*
X149928333Y-86452380D01*
X150499761Y-86023809D02*
X150547380Y-86119047D01*
X150547380Y-86357142D01*
X150499761Y-86452380D01*
X150404523Y-86500000D01*
X150309285Y-86500000D01*
X150214047Y-86452380D01*
X150166428Y-86357142D01*
X150166428Y-86119047D01*
X150118809Y-86023809D01*
X150547380Y-85547619D02*
X149880714Y-85547619D01*
X149975952Y-85547619D02*
X149928333Y-85500000D01*
X149880714Y-85404761D01*
X149880714Y-85261904D01*
X149928333Y-85166666D01*
X150023571Y-85119047D01*
X150547380Y-85119047D01*
X150023571Y-85119047D02*
X149928333Y-85071428D01*
X149880714Y-84976190D01*
X149880714Y-84833333D01*
X149928333Y-84738095D01*
X150023571Y-84690476D01*
X150547380Y-84690476D01*
X150499761Y-83785714D02*
X150547380Y-83880952D01*
X150547380Y-84071428D01*
X150499761Y-84166666D01*
X150452142Y-84214285D01*
X150356904Y-84261904D01*
X150071190Y-84261904D01*
X149975952Y-84214285D01*
X149928333Y-84166666D01*
X149880714Y-84071428D01*
X149880714Y-83880952D01*
X149928333Y-83785714D01*
X150547380Y-83357142D02*
X149880714Y-83357142D01*
X149547380Y-83357142D02*
X149595000Y-83404761D01*
X149642619Y-83357142D01*
X149595000Y-83309523D01*
X149547380Y-83357142D01*
X149642619Y-83357142D01*
X150547380Y-82880952D02*
X149547380Y-82880952D01*
X150166428Y-82785714D02*
X150547380Y-82500000D01*
X149880714Y-82500000D02*
X150261666Y-82880952D01*
X150452142Y-82071428D02*
X150499761Y-82023809D01*
X150547380Y-82071428D01*
X150499761Y-82119047D01*
X150452142Y-82071428D01*
X150547380Y-82071428D01*
X149880714Y-81166666D02*
X150690238Y-81166666D01*
X150785476Y-81214285D01*
X150833095Y-81261904D01*
X150880714Y-81357142D01*
X150880714Y-81500000D01*
X150833095Y-81595238D01*
X150499761Y-81166666D02*
X150547380Y-81261904D01*
X150547380Y-81452380D01*
X150499761Y-81547619D01*
X150452142Y-81595238D01*
X150356904Y-81642857D01*
X150071190Y-81642857D01*
X149975952Y-81595238D01*
X149928333Y-81547619D01*
X149880714Y-81452380D01*
X149880714Y-81261904D01*
X149928333Y-81166666D01*
X150547380Y-80690476D02*
X149880714Y-80690476D01*
X149547380Y-80690476D02*
X149595000Y-80738095D01*
X149642619Y-80690476D01*
X149595000Y-80642857D01*
X149547380Y-80690476D01*
X149642619Y-80690476D01*
X149880714Y-80357142D02*
X149880714Y-79976190D01*
X149547380Y-80214285D02*
X150404523Y-80214285D01*
X150499761Y-80166666D01*
X150547380Y-80071428D01*
X150547380Y-79976190D01*
X150547380Y-79642857D02*
X149547380Y-79642857D01*
X150547380Y-79214285D02*
X150023571Y-79214285D01*
X149928333Y-79261904D01*
X149880714Y-79357142D01*
X149880714Y-79500000D01*
X149928333Y-79595238D01*
X149975952Y-79642857D01*
X149880714Y-78309523D02*
X150547380Y-78309523D01*
X149880714Y-78738095D02*
X150404523Y-78738095D01*
X150499761Y-78690476D01*
X150547380Y-78595238D01*
X150547380Y-78452380D01*
X150499761Y-78357142D01*
X150452142Y-78309523D01*
X150547380Y-77833333D02*
X149547380Y-77833333D01*
X149928333Y-77833333D02*
X149880714Y-77738095D01*
X149880714Y-77547619D01*
X149928333Y-77452380D01*
X149975952Y-77404761D01*
X150071190Y-77357142D01*
X150356904Y-77357142D01*
X150452142Y-77404761D01*
X150499761Y-77452380D01*
X150547380Y-77547619D01*
X150547380Y-77738095D01*
X150499761Y-77833333D01*
X150452142Y-76928571D02*
X150499761Y-76880952D01*
X150547380Y-76928571D01*
X150499761Y-76976190D01*
X150452142Y-76928571D01*
X150547380Y-76928571D01*
X150547380Y-76452380D02*
X149880714Y-76452380D01*
X149547380Y-76452380D02*
X149595000Y-76500000D01*
X149642619Y-76452380D01*
X149595000Y-76404761D01*
X149547380Y-76452380D01*
X149642619Y-76452380D01*
X150547380Y-75833333D02*
X150499761Y-75928571D01*
X150452142Y-75976190D01*
X150356904Y-76023809D01*
X150071190Y-76023809D01*
X149975952Y-75976190D01*
X149928333Y-75928571D01*
X149880714Y-75833333D01*
X149880714Y-75690476D01*
X149928333Y-75595238D01*
X149975952Y-75547619D01*
X150071190Y-75500000D01*
X150356904Y-75500000D01*
X150452142Y-75547619D01*
X150499761Y-75595238D01*
X150547380Y-75690476D01*
X150547380Y-75833333D01*
X149499761Y-74357142D02*
X150785476Y-75214285D01*
X150499761Y-74071428D02*
X150547380Y-73928571D01*
X150547380Y-73690476D01*
X150499761Y-73595238D01*
X150452142Y-73547619D01*
X150356904Y-73500000D01*
X150261666Y-73500000D01*
X150166428Y-73547619D01*
X150118809Y-73595238D01*
X150071190Y-73690476D01*
X150023571Y-73880952D01*
X149975952Y-73976190D01*
X149928333Y-74023809D01*
X149833095Y-74071428D01*
X149737857Y-74071428D01*
X149642619Y-74023809D01*
X149595000Y-73976190D01*
X149547380Y-73880952D01*
X149547380Y-73642857D01*
X149595000Y-73500000D01*
X150547380Y-72928571D02*
X150499761Y-73023809D01*
X150452142Y-73071428D01*
X150356904Y-73119047D01*
X150071190Y-73119047D01*
X149975952Y-73071428D01*
X149928333Y-73023809D01*
X149880714Y-72928571D01*
X149880714Y-72785714D01*
X149928333Y-72690476D01*
X149975952Y-72642857D01*
X150071190Y-72595238D01*
X150356904Y-72595238D01*
X150452142Y-72642857D01*
X150499761Y-72690476D01*
X150547380Y-72785714D01*
X150547380Y-72928571D01*
X149880714Y-72309523D02*
X149880714Y-71928571D01*
X150547380Y-72166666D02*
X149690238Y-72166666D01*
X149595000Y-72119047D01*
X149547380Y-72023809D01*
X149547380Y-71928571D01*
X150547380Y-71452380D02*
X150499761Y-71547619D01*
X150404523Y-71595238D01*
X149547380Y-71595238D01*
X150499761Y-70690476D02*
X150547380Y-70785714D01*
X150547380Y-70976190D01*
X150499761Y-71071428D01*
X150404523Y-71119047D01*
X150023571Y-71119047D01*
X149928333Y-71071428D01*
X149880714Y-70976190D01*
X149880714Y-70785714D01*
X149928333Y-70690476D01*
X150023571Y-70642857D01*
X150118809Y-70642857D01*
X150214047Y-71119047D01*
X150547380Y-70214285D02*
X149547380Y-70214285D01*
X150547380Y-69642857D02*
X149975952Y-70071428D01*
X149547380Y-69642857D02*
X150118809Y-70214285D01*
X150499761Y-68833333D02*
X150547380Y-68928571D01*
X150547380Y-69119047D01*
X150499761Y-69214285D01*
X150404523Y-69261904D01*
X150023571Y-69261904D01*
X149928333Y-69214285D01*
X149880714Y-69119047D01*
X149880714Y-68928571D01*
X149928333Y-68833333D01*
X150023571Y-68785714D01*
X150118809Y-68785714D01*
X150214047Y-69261904D01*
X149880714Y-68452380D02*
X150547380Y-68214285D01*
X149880714Y-67976190D02*
X150547380Y-68214285D01*
X150785476Y-68309523D01*
X150833095Y-68357142D01*
X150880714Y-68452380D01*
X150547380Y-67595238D02*
X149547380Y-67595238D01*
X149928333Y-67595238D02*
X149880714Y-67500000D01*
X149880714Y-67309523D01*
X149928333Y-67214285D01*
X149975952Y-67166666D01*
X150071190Y-67119047D01*
X150356904Y-67119047D01*
X150452142Y-67166666D01*
X150499761Y-67214285D01*
X150547380Y-67309523D01*
X150547380Y-67500000D01*
X150499761Y-67595238D01*
X150547380Y-66547619D02*
X150499761Y-66642857D01*
X150452142Y-66690476D01*
X150356904Y-66738095D01*
X150071190Y-66738095D01*
X149975952Y-66690476D01*
X149928333Y-66642857D01*
X149880714Y-66547619D01*
X149880714Y-66404761D01*
X149928333Y-66309523D01*
X149975952Y-66261904D01*
X150071190Y-66214285D01*
X150356904Y-66214285D01*
X150452142Y-66261904D01*
X150499761Y-66309523D01*
X150547380Y-66404761D01*
X150547380Y-66547619D01*
X150547380Y-65357142D02*
X150023571Y-65357142D01*
X149928333Y-65404761D01*
X149880714Y-65500000D01*
X149880714Y-65690476D01*
X149928333Y-65785714D01*
X150499761Y-65357142D02*
X150547380Y-65452380D01*
X150547380Y-65690476D01*
X150499761Y-65785714D01*
X150404523Y-65833333D01*
X150309285Y-65833333D01*
X150214047Y-65785714D01*
X150166428Y-65690476D01*
X150166428Y-65452380D01*
X150118809Y-65357142D01*
X150547380Y-64880952D02*
X149880714Y-64880952D01*
X150071190Y-64880952D02*
X149975952Y-64833333D01*
X149928333Y-64785714D01*
X149880714Y-64690476D01*
X149880714Y-64595238D01*
X150547380Y-63833333D02*
X149547380Y-63833333D01*
X150499761Y-63833333D02*
X150547380Y-63928571D01*
X150547380Y-64119047D01*
X150499761Y-64214285D01*
X150452142Y-64261904D01*
X150356904Y-64309523D01*
X150071190Y-64309523D01*
X149975952Y-64261904D01*
X149928333Y-64214285D01*
X149880714Y-64119047D01*
X149880714Y-63928571D01*
X149928333Y-63833333D01*
X149499761Y-62642857D02*
X150785476Y-63500000D01*
D12*
X95155987Y-111032499D03*
X95155987Y-108492499D03*
X95155987Y-105952499D03*
X95155987Y-103412499D03*
D13*
X95505987Y-100412499D03*
D14*
X93505987Y-100412499D03*
G04 #@! TA.AperFunction,ComponentPad*
G36*
G01*
X89138182Y-129854122D02*
X89138182Y-129854122D01*
G75*
G02*
X87977060Y-129543000I-425000J736122D01*
G01*
X87977060Y-129543000D01*
G75*
G02*
X88288182Y-128381878I736122J425000D01*
G01*
X88288182Y-128381878D01*
G75*
G02*
X89449304Y-128693000I425000J-736122D01*
G01*
X89449304Y-128693000D01*
G75*
G02*
X89138182Y-129854122I-736122J-425000D01*
G01*
G37*
G04 #@! TD.AperFunction*
G04 #@! TA.AperFunction,ComponentPad*
G36*
G01*
X91337886Y-128584122D02*
X91337886Y-128584122D01*
G75*
G02*
X90176764Y-128273000I-425000J736122D01*
G01*
X90176764Y-128273000D01*
G75*
G02*
X90487886Y-127111878I736122J425000D01*
G01*
X90487886Y-127111878D01*
G75*
G02*
X91649008Y-127423000I425000J-736122D01*
G01*
X91649008Y-127423000D01*
G75*
G02*
X91337886Y-128584122I-736122J-425000D01*
G01*
G37*
G04 #@! TD.AperFunction*
G04 #@! TA.AperFunction,ComponentPad*
G36*
G01*
X93537591Y-127314122D02*
X93537591Y-127314122D01*
G75*
G02*
X92376469Y-127003000I-425000J736122D01*
G01*
X92376469Y-127003000D01*
G75*
G02*
X92687591Y-125841878I736122J425000D01*
G01*
X92687591Y-125841878D01*
G75*
G02*
X93848713Y-126153000I425000J-736122D01*
G01*
X93848713Y-126153000D01*
G75*
G02*
X93537591Y-127314122I-736122J-425000D01*
G01*
G37*
G04 #@! TD.AperFunction*
G04 #@! TA.AperFunction,ComponentPad*
G36*
G01*
X95737295Y-126044122D02*
X95737295Y-126044122D01*
G75*
G02*
X94576173Y-125733000I-425000J736122D01*
G01*
X94576173Y-125733000D01*
G75*
G02*
X94887295Y-124571878I736122J425000D01*
G01*
X94887295Y-124571878D01*
G75*
G02*
X96048417Y-124883000I425000J-736122D01*
G01*
X96048417Y-124883000D01*
G75*
G02*
X95737295Y-126044122I-736122J-425000D01*
G01*
G37*
G04 #@! TD.AperFunction*
G04 #@! TA.AperFunction,ComponentPad*
D15*
G36*
X98673122Y-124349122D02*
G01*
X97200878Y-125199122D01*
X96350878Y-123726878D01*
X97823122Y-122876878D01*
X98673122Y-124349122D01*
G37*
G04 #@! TD.AperFunction*
D16*
X103995000Y-120445000D03*
X130995000Y-98945000D03*
X206995000Y-101445000D03*
X130995000Y-58445000D03*
X206995000Y-62945000D03*
D17*
X93330977Y-119856977D02*
X97512000Y-124038000D01*
X93330977Y-110317509D02*
X93330977Y-119856977D01*
X95155987Y-108492499D02*
X93330977Y-110317509D01*
D18*
X225331807Y-45561746D02*
X225442617Y-45590115D01*
X225516481Y-45623972D01*
X225582585Y-45669767D01*
X225639771Y-45726261D01*
X225686436Y-45791768D01*
X225721105Y-45864343D01*
X225742732Y-45942657D01*
X225753182Y-46057900D01*
X225754800Y-139019819D01*
X207182702Y-139019821D01*
X188671052Y-134782582D01*
X188629283Y-134769912D01*
X188571892Y-134764259D01*
X188514731Y-134756970D01*
X188471208Y-134760000D01*
X139153838Y-134760000D01*
X139091265Y-134759123D01*
X139053284Y-134766126D01*
X139014845Y-134769912D01*
X138954927Y-134788088D01*
X94859605Y-147492335D01*
X94515432Y-147429758D01*
X94238912Y-147337584D01*
X94079990Y-147201366D01*
X85462387Y-132236162D01*
X87430915Y-132236162D01*
X87435491Y-132375943D01*
X87467249Y-132512148D01*
X87524970Y-132639539D01*
X87545383Y-132668025D01*
X94510511Y-144731983D01*
X94524970Y-144763895D01*
X94545377Y-144792373D01*
X94545382Y-144792382D01*
X94606432Y-144877578D01*
X94676889Y-144943567D01*
X94708511Y-144973184D01*
X94753423Y-145001112D01*
X94827277Y-145047038D01*
X94958171Y-145096303D01*
X95096161Y-145119085D01*
X95096162Y-145119085D01*
X95235943Y-145114509D01*
X95372148Y-145082751D01*
X95467617Y-145039494D01*
X95467618Y-145039494D01*
X95499539Y-145025030D01*
X95528025Y-145004617D01*
X107591983Y-138039489D01*
X107623895Y-138025030D01*
X107652373Y-138004623D01*
X107652382Y-138004618D01*
X107737578Y-137943568D01*
X107833183Y-137841490D01*
X107907038Y-137722723D01*
X107956303Y-137591829D01*
X107979085Y-137453839D01*
X107978808Y-137445363D01*
X107974509Y-137314056D01*
X107942751Y-137177851D01*
X107899494Y-137082382D01*
X107899491Y-137082377D01*
X107885030Y-137050461D01*
X107864620Y-137021979D01*
X100899493Y-124958025D01*
X100892194Y-124941914D01*
X109309879Y-124941914D01*
X109332661Y-125079903D01*
X109345005Y-125112701D01*
X112950421Y-138568296D01*
X112956128Y-138602864D01*
X112968469Y-138635654D01*
X112968472Y-138635664D01*
X113005392Y-138733758D01*
X113079247Y-138852526D01*
X113174852Y-138954603D01*
X113288535Y-139036067D01*
X113415927Y-139093787D01*
X113552130Y-139125545D01*
X113691914Y-139130122D01*
X113829903Y-139107339D01*
X113862704Y-139094994D01*
X127318294Y-135489580D01*
X127352864Y-135483872D01*
X127385657Y-135471530D01*
X127385664Y-135471528D01*
X127483758Y-135434608D01*
X127602526Y-135360753D01*
X127704603Y-135265148D01*
X127786067Y-135151465D01*
X127843787Y-135024073D01*
X127875545Y-134887870D01*
X127880122Y-134748086D01*
X127857339Y-134610097D01*
X127844995Y-134577299D01*
X124239581Y-121121716D01*
X124233872Y-121087136D01*
X124184608Y-120956242D01*
X124110753Y-120837474D01*
X124015148Y-120735398D01*
X123901465Y-120653933D01*
X123774073Y-120596213D01*
X123637869Y-120564455D01*
X123498086Y-120559879D01*
X123394674Y-120576952D01*
X123394671Y-120576953D01*
X123360097Y-120582661D01*
X123327301Y-120595005D01*
X109871713Y-124200419D01*
X109837136Y-124206128D01*
X109804336Y-124218473D01*
X109706242Y-124255393D01*
X109587475Y-124329248D01*
X109485398Y-124424853D01*
X109403933Y-124538536D01*
X109346213Y-124665928D01*
X109314455Y-124802131D01*
X109309879Y-124941914D01*
X100892194Y-124941914D01*
X100885030Y-124926105D01*
X100803567Y-124812422D01*
X100701489Y-124716816D01*
X100582722Y-124642962D01*
X100451828Y-124593697D01*
X100313838Y-124570915D01*
X100174056Y-124575491D01*
X100037851Y-124607249D01*
X99942382Y-124650506D01*
X99942377Y-124650509D01*
X99910461Y-124664970D01*
X99881979Y-124685380D01*
X87818025Y-131650507D01*
X87786105Y-131664970D01*
X87757620Y-131685382D01*
X87757618Y-131685383D01*
X87672422Y-131746433D01*
X87576816Y-131848511D01*
X87502962Y-131967278D01*
X87453697Y-132098172D01*
X87430915Y-132236162D01*
X85462387Y-132236162D01*
X83928274Y-129572044D01*
X83821687Y-129216756D01*
X83801269Y-128971740D01*
X87228182Y-128971740D01*
X87228182Y-129264260D01*
X87285250Y-129551158D01*
X87397192Y-129821411D01*
X87559707Y-130064632D01*
X87766550Y-130271475D01*
X88009771Y-130433990D01*
X88280024Y-130545932D01*
X88566922Y-130603000D01*
X88859442Y-130603000D01*
X89146340Y-130545932D01*
X89416593Y-130433990D01*
X89659814Y-130271475D01*
X89866657Y-130064632D01*
X90029172Y-129821411D01*
X90141114Y-129551158D01*
X90198182Y-129264260D01*
X90198182Y-129156444D01*
X90209475Y-129163990D01*
X90479728Y-129275932D01*
X90766626Y-129333000D01*
X91059146Y-129333000D01*
X91346044Y-129275932D01*
X91616297Y-129163990D01*
X91859518Y-129001475D01*
X92066361Y-128794632D01*
X92228876Y-128551411D01*
X92340818Y-128281158D01*
X92397886Y-127994260D01*
X92397886Y-127886444D01*
X92409180Y-127893990D01*
X92679433Y-128005932D01*
X92966331Y-128063000D01*
X93258851Y-128063000D01*
X93545749Y-128005932D01*
X93816002Y-127893990D01*
X94059223Y-127731475D01*
X94266066Y-127524632D01*
X94428581Y-127281411D01*
X94540523Y-127011158D01*
X94597591Y-126724260D01*
X94597591Y-126616444D01*
X94608884Y-126623990D01*
X94879137Y-126735932D01*
X95166035Y-126793000D01*
X95458555Y-126793000D01*
X95745453Y-126735932D01*
X96015706Y-126623990D01*
X96258927Y-126461475D01*
X96465770Y-126254632D01*
X96628285Y-126011411D01*
X96740227Y-125741158D01*
X96757574Y-125653947D01*
X96812444Y-125705338D01*
X96918666Y-125771391D01*
X97035733Y-125815452D01*
X97159146Y-125835828D01*
X97284163Y-125831735D01*
X97405979Y-125803332D01*
X97519914Y-125751709D01*
X98992158Y-124901709D01*
X99093832Y-124828850D01*
X99179338Y-124737556D01*
X99245391Y-124631334D01*
X99289452Y-124514267D01*
X99309828Y-124390854D01*
X99305735Y-124265837D01*
X99277332Y-124144021D01*
X99225709Y-124030086D01*
X98375709Y-122557842D01*
X98302850Y-122456168D01*
X98211556Y-122370662D01*
X98105334Y-122304609D01*
X97988267Y-122260548D01*
X97864854Y-122240172D01*
X97739837Y-122244265D01*
X97618021Y-122272668D01*
X97504086Y-122324291D01*
X97104053Y-122555250D01*
X94699805Y-120151003D01*
X101010000Y-120151003D01*
X101010000Y-120738997D01*
X101124712Y-121315692D01*
X101349727Y-121858928D01*
X101676399Y-122347826D01*
X102092174Y-122763601D01*
X102581072Y-123090273D01*
X103124308Y-123315288D01*
X103701003Y-123430000D01*
X104288997Y-123430000D01*
X104865692Y-123315288D01*
X105408928Y-123090273D01*
X105897826Y-122763601D01*
X106313601Y-122347826D01*
X106640273Y-121858928D01*
X106865288Y-121315692D01*
X106980000Y-120738997D01*
X106980000Y-120151003D01*
X106865288Y-119574308D01*
X106640273Y-119031072D01*
X106313601Y-118542174D01*
X105916427Y-118145000D01*
X132781565Y-118145000D01*
X132785001Y-118179887D01*
X132785000Y-132110123D01*
X132781565Y-132145000D01*
X132795273Y-132284184D01*
X132835872Y-132418020D01*
X132901800Y-132541363D01*
X132990525Y-132649475D01*
X133098637Y-132738200D01*
X133221980Y-132804128D01*
X133355816Y-132844727D01*
X133495000Y-132858435D01*
X133529877Y-132855000D01*
X147460123Y-132855000D01*
X147495000Y-132858435D01*
X147529877Y-132855000D01*
X147592545Y-132848828D01*
X147634184Y-132844727D01*
X147768020Y-132804128D01*
X147891363Y-132738200D01*
X147999475Y-132649475D01*
X148088200Y-132541363D01*
X148154128Y-132418020D01*
X148194727Y-132284184D01*
X148205000Y-132179877D01*
X148205000Y-132179876D01*
X148208435Y-132145000D01*
X148205000Y-132110123D01*
X148205000Y-118179877D01*
X148208435Y-118145000D01*
X148194727Y-118005816D01*
X148154128Y-117871980D01*
X148088200Y-117748637D01*
X147999475Y-117640525D01*
X147891363Y-117551800D01*
X147768020Y-117485872D01*
X147634184Y-117445273D01*
X147529877Y-117435000D01*
X147495000Y-117431565D01*
X147460123Y-117435000D01*
X133529877Y-117435000D01*
X133495000Y-117431565D01*
X133460123Y-117435000D01*
X133355816Y-117445273D01*
X133221980Y-117485872D01*
X133098637Y-117551800D01*
X132990525Y-117640525D01*
X132901800Y-117748637D01*
X132835872Y-117871980D01*
X132795273Y-118005816D01*
X132781565Y-118145000D01*
X105916427Y-118145000D01*
X105897826Y-118126399D01*
X105408928Y-117799727D01*
X104865692Y-117574712D01*
X104288997Y-117460000D01*
X103701003Y-117460000D01*
X103124308Y-117574712D01*
X102581072Y-117799727D01*
X102092174Y-118126399D01*
X101676399Y-118542174D01*
X101349727Y-119031072D01*
X101124712Y-119574308D01*
X101010000Y-120151003D01*
X94699805Y-120151003D01*
X94090977Y-119542176D01*
X94090977Y-114536885D01*
X94241228Y-114687136D01*
X94476260Y-114844179D01*
X94737413Y-114952352D01*
X95014652Y-115007499D01*
X95297322Y-115007499D01*
X95574561Y-114952352D01*
X95835714Y-114844179D01*
X96070746Y-114687136D01*
X96270624Y-114487258D01*
X96427667Y-114252226D01*
X96535840Y-113991073D01*
X96590987Y-113713834D01*
X96590987Y-113431164D01*
X96535840Y-113153925D01*
X96427667Y-112892772D01*
X96270624Y-112657740D01*
X96191506Y-112578622D01*
X96284702Y-112550351D01*
X96568739Y-112398530D01*
X96817701Y-112194213D01*
X97022018Y-111945251D01*
X97173839Y-111661214D01*
X97267330Y-111353015D01*
X97298898Y-111032499D01*
X97267330Y-110711983D01*
X97173839Y-110403784D01*
X97022018Y-110119747D01*
X96817701Y-109870785D01*
X96685754Y-109762499D01*
X96817701Y-109654213D01*
X97022018Y-109405251D01*
X97173839Y-109121214D01*
X97267330Y-108813015D01*
X97298898Y-108492499D01*
X97267330Y-108171983D01*
X97173839Y-107863784D01*
X97022018Y-107579747D01*
X96817701Y-107330785D01*
X96685754Y-107222499D01*
X96817701Y-107114213D01*
X97022018Y-106865251D01*
X97173839Y-106581214D01*
X97267330Y-106273015D01*
X97298898Y-105952499D01*
X97267330Y-105631983D01*
X97173839Y-105323784D01*
X97022018Y-105039747D01*
X96817701Y-104790785D01*
X96685754Y-104682499D01*
X96817701Y-104574213D01*
X97022018Y-104325251D01*
X97173839Y-104041214D01*
X97267330Y-103733015D01*
X97298898Y-103412499D01*
X97267330Y-103091983D01*
X97173839Y-102783784D01*
X97022018Y-102499747D01*
X96817701Y-102250785D01*
X96812893Y-102246839D01*
X106057208Y-102246839D01*
X106062832Y-102306395D01*
X106067623Y-102366025D01*
X106069318Y-102375083D01*
X106083853Y-102449898D01*
X106100929Y-102507199D01*
X106117218Y-102564784D01*
X106120639Y-102573341D01*
X106149429Y-102643909D01*
X106177334Y-102696848D01*
X106195987Y-102733466D01*
X106195988Y-103392778D01*
X106181702Y-103419868D01*
X106153057Y-103472393D01*
X106149515Y-103480900D01*
X106120711Y-103551462D01*
X106103626Y-103608754D01*
X106085722Y-103665865D01*
X106083900Y-103674899D01*
X106069350Y-103749712D01*
X106063719Y-103809219D01*
X106057247Y-103868739D01*
X106057215Y-103877954D01*
X106057474Y-103954167D01*
X106063513Y-104013678D01*
X106068721Y-104073270D01*
X106070478Y-104082316D01*
X106085535Y-104157028D01*
X106103019Y-104214233D01*
X106119701Y-104271677D01*
X106123182Y-104280209D01*
X106152464Y-104350575D01*
X106180722Y-104403289D01*
X106208253Y-104456414D01*
X106213326Y-104464108D01*
X106255718Y-104527445D01*
X106293677Y-104573666D01*
X106330993Y-104620421D01*
X106337463Y-104626983D01*
X106391349Y-104680880D01*
X106437560Y-104718846D01*
X106483261Y-104757474D01*
X106490883Y-104762654D01*
X106554212Y-104805057D01*
X106606928Y-104833330D01*
X106659238Y-104862333D01*
X106667720Y-104865934D01*
X106738079Y-104895230D01*
X106795259Y-104912717D01*
X106852243Y-104931019D01*
X106861264Y-104932904D01*
X106935973Y-104947975D01*
X106995416Y-104954018D01*
X107054898Y-104960907D01*
X107064112Y-104961004D01*
X107140327Y-104961278D01*
X107199880Y-104955655D01*
X107245988Y-104951950D01*
X107245987Y-108423706D01*
X107209267Y-108420231D01*
X107149747Y-108413759D01*
X107140537Y-108413727D01*
X107140532Y-108413727D01*
X107064318Y-108413986D01*
X107004804Y-108420026D01*
X106945216Y-108425233D01*
X106936170Y-108426990D01*
X106861458Y-108442047D01*
X106804242Y-108459534D01*
X106746810Y-108476213D01*
X106738278Y-108479694D01*
X106667911Y-108508976D01*
X106615197Y-108537234D01*
X106562072Y-108564765D01*
X106554379Y-108569837D01*
X106491041Y-108612230D01*
X106444820Y-108650189D01*
X106398065Y-108687505D01*
X106391503Y-108693975D01*
X106337606Y-108747861D01*
X106299640Y-108794072D01*
X106261012Y-108839773D01*
X106255832Y-108847395D01*
X106213428Y-108910725D01*
X106185170Y-108963415D01*
X106156153Y-109015750D01*
X106152552Y-109024233D01*
X106123256Y-109094591D01*
X106105769Y-109151771D01*
X106087467Y-109208755D01*
X106085582Y-109217776D01*
X106070511Y-109292485D01*
X106064468Y-109351928D01*
X106057579Y-109411410D01*
X106057482Y-109420625D01*
X106057208Y-109496839D01*
X106062832Y-109556395D01*
X106067623Y-109616025D01*
X106069318Y-109625083D01*
X106083853Y-109699898D01*
X106100929Y-109757199D01*
X106117218Y-109814784D01*
X106120639Y-109823341D01*
X106149429Y-109893909D01*
X106177334Y-109946848D01*
X106195987Y-109983466D01*
X106195988Y-110642778D01*
X106181702Y-110669868D01*
X106153057Y-110722393D01*
X106149515Y-110730900D01*
X106120711Y-110801462D01*
X106103626Y-110858754D01*
X106085722Y-110915865D01*
X106083900Y-110924899D01*
X106069350Y-110999712D01*
X106063719Y-111059219D01*
X106057247Y-111118739D01*
X106057215Y-111127954D01*
X106057474Y-111204167D01*
X106063513Y-111263678D01*
X106068721Y-111323270D01*
X106070478Y-111332316D01*
X106085535Y-111407028D01*
X106103019Y-111464233D01*
X106119701Y-111521677D01*
X106123182Y-111530209D01*
X106152464Y-111600575D01*
X106180722Y-111653289D01*
X106208253Y-111706414D01*
X106213326Y-111714108D01*
X106255718Y-111777445D01*
X106293677Y-111823666D01*
X106330993Y-111870421D01*
X106337463Y-111876983D01*
X106391349Y-111930880D01*
X106437560Y-111968846D01*
X106483261Y-112007474D01*
X106490883Y-112012654D01*
X106554212Y-112055057D01*
X106606928Y-112083330D01*
X106659238Y-112112333D01*
X106667720Y-112115934D01*
X106738079Y-112145230D01*
X106795259Y-112162717D01*
X106852243Y-112181019D01*
X106861264Y-112182904D01*
X106935973Y-112197975D01*
X106995416Y-112204018D01*
X107054898Y-112210907D01*
X107064112Y-112211004D01*
X107140327Y-112211278D01*
X107199880Y-112205655D01*
X107245988Y-112201950D01*
X107245989Y-113542770D01*
X107231671Y-113569928D01*
X107203014Y-113622487D01*
X107199473Y-113630995D01*
X107170676Y-113701560D01*
X107153587Y-113758885D01*
X107135699Y-113815963D01*
X107133878Y-113824996D01*
X107119335Y-113899810D01*
X107113704Y-113959371D01*
X107107244Y-114018837D01*
X107107212Y-114028052D01*
X107107478Y-114104266D01*
X107113520Y-114163749D01*
X107118737Y-114223376D01*
X107120496Y-114232422D01*
X107135561Y-114307133D01*
X107153040Y-114364302D01*
X107169738Y-114421778D01*
X107173221Y-114430310D01*
X107202510Y-114500672D01*
X107230769Y-114553374D01*
X107258306Y-114606500D01*
X107263379Y-114614193D01*
X107305778Y-114677526D01*
X107343741Y-114723742D01*
X107381065Y-114770498D01*
X107387536Y-114777059D01*
X107441428Y-114830952D01*
X107487646Y-114868915D01*
X107533339Y-114907530D01*
X107540961Y-114912710D01*
X107604295Y-114955108D01*
X107657030Y-114983384D01*
X107709340Y-115012380D01*
X107717811Y-115015975D01*
X107717815Y-115015977D01*
X107717818Y-115015978D01*
X107717823Y-115015980D01*
X107788184Y-115045268D01*
X107845361Y-115062748D01*
X107902333Y-115081041D01*
X107911354Y-115082925D01*
X107986065Y-115097990D01*
X108045581Y-115104036D01*
X108105006Y-115110912D01*
X108114215Y-115111008D01*
X108114221Y-115111008D01*
X108190434Y-115111274D01*
X108249987Y-115105644D01*
X108309619Y-115100846D01*
X108318677Y-115099151D01*
X108393491Y-115084608D01*
X108450801Y-115067522D01*
X108508371Y-115051232D01*
X108516927Y-115047810D01*
X108587492Y-115019013D01*
X108640404Y-114991115D01*
X108656254Y-114983039D01*
X108663370Y-114986792D01*
X108715881Y-115015429D01*
X108724388Y-115018971D01*
X108794951Y-115047775D01*
X108852253Y-115064863D01*
X108909353Y-115082764D01*
X108918387Y-115084586D01*
X108993200Y-115099136D01*
X109052707Y-115104767D01*
X109112227Y-115111239D01*
X109121437Y-115111271D01*
X109121442Y-115111271D01*
X109197655Y-115111012D01*
X109257166Y-115104973D01*
X109316758Y-115099765D01*
X109325804Y-115098008D01*
X109400516Y-115082951D01*
X109457721Y-115065467D01*
X109515165Y-115048785D01*
X109523697Y-115045304D01*
X109594063Y-115016022D01*
X109646777Y-114987764D01*
X109699902Y-114960233D01*
X109707596Y-114955160D01*
X109770933Y-114912768D01*
X109817154Y-114874809D01*
X109863909Y-114837493D01*
X109870471Y-114831023D01*
X109924368Y-114777137D01*
X109962334Y-114730926D01*
X110000962Y-114685225D01*
X110006142Y-114677603D01*
X110048545Y-114614274D01*
X110076818Y-114561558D01*
X110105821Y-114509248D01*
X110109422Y-114500766D01*
X110138718Y-114430407D01*
X110156205Y-114373227D01*
X110174507Y-114316243D01*
X110176392Y-114307222D01*
X110191463Y-114232513D01*
X110197506Y-114173070D01*
X110204395Y-114113588D01*
X110204492Y-114104374D01*
X110204766Y-114028159D01*
X110199143Y-113968606D01*
X110194351Y-113908973D01*
X110192656Y-113899915D01*
X110178121Y-113825100D01*
X110161045Y-113767799D01*
X110144756Y-113710214D01*
X110141335Y-113701658D01*
X110112545Y-113631089D01*
X110084640Y-113578150D01*
X110065987Y-113541533D01*
X110065987Y-101182219D01*
X110080280Y-101155116D01*
X110108917Y-101102605D01*
X110112459Y-101094098D01*
X110141263Y-101023535D01*
X110158351Y-100966233D01*
X110176252Y-100909133D01*
X110178074Y-100900099D01*
X110192624Y-100825286D01*
X110198255Y-100765779D01*
X110204727Y-100706259D01*
X110204759Y-100697044D01*
X110204500Y-100620830D01*
X110198460Y-100561316D01*
X110193253Y-100501728D01*
X110191496Y-100492682D01*
X110176439Y-100417970D01*
X110158952Y-100360754D01*
X110142273Y-100303322D01*
X110138792Y-100294790D01*
X110109510Y-100224423D01*
X110081252Y-100171709D01*
X110053721Y-100118584D01*
X110048649Y-100110891D01*
X110006256Y-100047553D01*
X109968297Y-100001332D01*
X109930981Y-99954577D01*
X109924511Y-99948015D01*
X109870625Y-99894118D01*
X109824414Y-99856152D01*
X109778713Y-99817524D01*
X109771091Y-99812344D01*
X109707761Y-99769940D01*
X109655071Y-99741682D01*
X109602736Y-99712665D01*
X109594253Y-99709064D01*
X109523895Y-99679768D01*
X109466715Y-99662281D01*
X109409731Y-99643979D01*
X109400710Y-99642094D01*
X109326001Y-99627023D01*
X109266558Y-99620980D01*
X109207076Y-99614091D01*
X109197861Y-99613994D01*
X109121647Y-99613720D01*
X109062091Y-99619344D01*
X109002461Y-99624135D01*
X108993410Y-99625829D01*
X108993407Y-99625829D01*
X108993405Y-99625830D01*
X108993403Y-99625830D01*
X108918588Y-99640365D01*
X108861287Y-99657441D01*
X108803702Y-99673730D01*
X108795146Y-99677151D01*
X108724577Y-99705941D01*
X108671638Y-99733846D01*
X108655716Y-99741957D01*
X108648618Y-99738214D01*
X108596093Y-99709569D01*
X108587586Y-99706027D01*
X108517024Y-99677223D01*
X108459711Y-99660131D01*
X108402621Y-99642234D01*
X108393587Y-99640412D01*
X108318774Y-99625862D01*
X108259267Y-99620231D01*
X108199747Y-99613759D01*
X108190537Y-99613727D01*
X108190532Y-99613727D01*
X108114318Y-99613986D01*
X108054804Y-99620026D01*
X107995216Y-99625233D01*
X107986170Y-99626990D01*
X107911458Y-99642047D01*
X107854242Y-99659534D01*
X107796810Y-99676213D01*
X107788278Y-99679694D01*
X107717911Y-99708976D01*
X107665197Y-99737234D01*
X107612072Y-99764765D01*
X107604379Y-99769837D01*
X107541041Y-99812230D01*
X107494820Y-99850189D01*
X107448065Y-99887505D01*
X107441503Y-99893975D01*
X107387606Y-99947861D01*
X107349640Y-99994072D01*
X107311012Y-100039773D01*
X107305832Y-100047395D01*
X107263428Y-100110725D01*
X107235170Y-100163415D01*
X107206153Y-100215750D01*
X107202552Y-100224233D01*
X107173256Y-100294591D01*
X107155769Y-100351771D01*
X107137467Y-100408755D01*
X107135582Y-100417776D01*
X107120511Y-100492485D01*
X107114468Y-100551928D01*
X107107579Y-100611410D01*
X107107482Y-100620625D01*
X107107208Y-100696839D01*
X107112832Y-100756395D01*
X107117623Y-100816025D01*
X107119318Y-100825083D01*
X107133853Y-100899898D01*
X107150929Y-100957199D01*
X107167218Y-101014784D01*
X107170639Y-101023341D01*
X107199429Y-101093909D01*
X107227334Y-101146848D01*
X107240764Y-101173211D01*
X107209267Y-101170231D01*
X107149747Y-101163759D01*
X107140537Y-101163727D01*
X107140532Y-101163727D01*
X107064318Y-101163986D01*
X107004804Y-101170026D01*
X106945216Y-101175233D01*
X106936170Y-101176990D01*
X106861458Y-101192047D01*
X106804242Y-101209534D01*
X106746810Y-101226213D01*
X106738278Y-101229694D01*
X106667911Y-101258976D01*
X106615197Y-101287234D01*
X106562072Y-101314765D01*
X106554379Y-101319837D01*
X106491041Y-101362230D01*
X106444820Y-101400189D01*
X106398065Y-101437505D01*
X106391503Y-101443975D01*
X106337606Y-101497861D01*
X106299640Y-101544072D01*
X106261012Y-101589773D01*
X106255832Y-101597395D01*
X106213428Y-101660725D01*
X106185170Y-101713415D01*
X106156153Y-101765750D01*
X106152552Y-101774233D01*
X106123256Y-101844591D01*
X106105769Y-101901771D01*
X106087467Y-101958755D01*
X106085582Y-101967776D01*
X106070511Y-102042485D01*
X106064468Y-102101928D01*
X106057579Y-102161410D01*
X106057482Y-102170625D01*
X106057208Y-102246839D01*
X96812893Y-102246839D01*
X96568739Y-102046468D01*
X96284702Y-101894647D01*
X95976503Y-101801156D01*
X95781886Y-101781988D01*
X95913477Y-101755813D01*
X96167714Y-101650504D01*
X96396522Y-101497619D01*
X96591107Y-101303034D01*
X96743992Y-101074226D01*
X96849301Y-100819989D01*
X96902987Y-100550091D01*
X96902987Y-100274907D01*
X96849301Y-100005009D01*
X96743992Y-99750772D01*
X96591107Y-99521964D01*
X96396522Y-99327379D01*
X96167714Y-99174494D01*
X95913477Y-99069185D01*
X95643579Y-99015499D01*
X95368395Y-99015499D01*
X95098497Y-99069185D01*
X94844260Y-99174494D01*
X94615452Y-99327379D01*
X94505987Y-99436844D01*
X94396522Y-99327379D01*
X94167714Y-99174494D01*
X93913477Y-99069185D01*
X93643579Y-99015499D01*
X93368395Y-99015499D01*
X93098497Y-99069185D01*
X92844260Y-99174494D01*
X92615452Y-99327379D01*
X92420867Y-99521964D01*
X92267982Y-99750772D01*
X92162673Y-100005009D01*
X92108987Y-100274907D01*
X92108987Y-100550091D01*
X92162673Y-100819989D01*
X92267982Y-101074226D01*
X92420867Y-101303034D01*
X92615452Y-101497619D01*
X92844260Y-101650504D01*
X93098497Y-101755813D01*
X93368395Y-101809499D01*
X93643579Y-101809499D01*
X93913477Y-101755813D01*
X94167714Y-101650504D01*
X94396522Y-101497619D01*
X94505987Y-101388154D01*
X94615452Y-101497619D01*
X94844260Y-101650504D01*
X95098497Y-101755813D01*
X95207520Y-101777499D01*
X94575665Y-101777499D01*
X94335471Y-101801156D01*
X94027272Y-101894647D01*
X93743235Y-102046468D01*
X93494273Y-102250785D01*
X93289956Y-102499747D01*
X93138135Y-102783784D01*
X93044644Y-103091983D01*
X93013076Y-103412499D01*
X93044644Y-103733015D01*
X93138135Y-104041214D01*
X93289956Y-104325251D01*
X93494273Y-104574213D01*
X93626220Y-104682499D01*
X93494273Y-104790785D01*
X93289956Y-105039747D01*
X93138135Y-105323784D01*
X93044644Y-105631983D01*
X93013076Y-105952499D01*
X93044644Y-106273015D01*
X93138135Y-106581214D01*
X93289956Y-106865251D01*
X93494273Y-107114213D01*
X93626220Y-107222499D01*
X93494273Y-107330785D01*
X93289956Y-107579747D01*
X93138135Y-107863784D01*
X93044644Y-108171983D01*
X93013076Y-108492499D01*
X93044644Y-108813015D01*
X93138135Y-109121214D01*
X93247627Y-109326058D01*
X92819980Y-109753705D01*
X92790976Y-109777508D01*
X92735848Y-109844683D01*
X92696003Y-109893233D01*
X92679023Y-109925000D01*
X92625431Y-110025263D01*
X92581974Y-110168524D01*
X92570977Y-110280177D01*
X92570977Y-110280187D01*
X92567301Y-110317509D01*
X92570977Y-110354831D01*
X92570978Y-119819645D01*
X92567301Y-119856977D01*
X92581975Y-120005962D01*
X92625431Y-120149223D01*
X92696003Y-120281253D01*
X92767178Y-120367979D01*
X92790977Y-120396978D01*
X92819975Y-120420776D01*
X95803629Y-123404431D01*
X95778609Y-123444666D01*
X95734548Y-123561733D01*
X95714172Y-123685146D01*
X95718265Y-123810163D01*
X95734035Y-123877797D01*
X95458555Y-123823000D01*
X95166035Y-123823000D01*
X94879137Y-123880068D01*
X94608884Y-123992010D01*
X94365663Y-124154525D01*
X94158820Y-124361368D01*
X93996305Y-124604589D01*
X93884363Y-124874842D01*
X93827295Y-125161740D01*
X93827295Y-125269556D01*
X93816002Y-125262010D01*
X93545749Y-125150068D01*
X93258851Y-125093000D01*
X92966331Y-125093000D01*
X92679433Y-125150068D01*
X92409180Y-125262010D01*
X92165959Y-125424525D01*
X91959116Y-125631368D01*
X91796601Y-125874589D01*
X91684659Y-126144842D01*
X91627591Y-126431740D01*
X91627591Y-126539556D01*
X91616297Y-126532010D01*
X91346044Y-126420068D01*
X91059146Y-126363000D01*
X90766626Y-126363000D01*
X90479728Y-126420068D01*
X90209475Y-126532010D01*
X89966254Y-126694525D01*
X89759411Y-126901368D01*
X89596896Y-127144589D01*
X89484954Y-127414842D01*
X89427886Y-127701740D01*
X89427886Y-127809556D01*
X89416593Y-127802010D01*
X89146340Y-127690068D01*
X88859442Y-127633000D01*
X88566922Y-127633000D01*
X88280024Y-127690068D01*
X88009771Y-127802010D01*
X87766550Y-127964525D01*
X87559707Y-128171368D01*
X87397192Y-128414589D01*
X87285250Y-128684842D01*
X87228182Y-128971740D01*
X83801269Y-128971740D01*
X83780000Y-128716515D01*
X83780000Y-128412828D01*
X83846575Y-128079954D01*
X89578074Y-117456918D01*
X89592980Y-117435873D01*
X89610021Y-117397706D01*
X89613829Y-117390648D01*
X89623760Y-117366935D01*
X89634207Y-117343536D01*
X89636735Y-117335952D01*
X89652891Y-117297374D01*
X89658024Y-117272087D01*
X89835310Y-116740230D01*
X89850164Y-116706034D01*
X89863713Y-116643522D01*
X89877908Y-116581090D01*
X89878923Y-116543817D01*
X89943563Y-115985526D01*
X89945109Y-115980460D01*
X89951310Y-115918616D01*
X89954581Y-115890360D01*
X89954671Y-115885087D01*
X89955197Y-115879842D01*
X89955247Y-115851414D01*
X89956309Y-115789252D01*
X89955364Y-115784038D01*
X89984691Y-98977395D01*
X90005575Y-98879143D01*
X90006611Y-98869285D01*
X90018863Y-98744335D01*
X90035030Y-98690786D01*
X90061288Y-98641403D01*
X90096641Y-98598055D01*
X90139740Y-98562400D01*
X90188937Y-98535799D01*
X90242375Y-98519258D01*
X90330455Y-98510000D01*
X111029877Y-98510000D01*
X111060222Y-98507011D01*
X111066332Y-98507054D01*
X111076198Y-98506086D01*
X111270295Y-98485685D01*
X111333310Y-98472750D01*
X111396540Y-98460688D01*
X111406030Y-98457823D01*
X111592468Y-98400111D01*
X111651797Y-98375171D01*
X111711455Y-98351068D01*
X111720208Y-98346414D01*
X111891885Y-98253589D01*
X111945198Y-98217629D01*
X111999083Y-98182367D01*
X112006765Y-98176102D01*
X112157143Y-98051698D01*
X112202480Y-98006043D01*
X112248463Y-97961013D01*
X112254782Y-97953375D01*
X112378132Y-97802133D01*
X112413757Y-97748513D01*
X112450099Y-97695436D01*
X112454814Y-97686716D01*
X112546439Y-97514394D01*
X112570951Y-97454924D01*
X112596312Y-97395752D01*
X112599243Y-97386282D01*
X112655652Y-97199446D01*
X112668152Y-97136316D01*
X112681530Y-97073377D01*
X112682566Y-97063519D01*
X112701611Y-96869285D01*
X112705000Y-96834877D01*
X112705000Y-82545000D01*
X113781565Y-82545000D01*
X113785001Y-82579887D01*
X113785000Y-96510123D01*
X113781565Y-96545000D01*
X113795273Y-96684184D01*
X113835872Y-96818020D01*
X113901800Y-96941363D01*
X113990525Y-97049475D01*
X114069533Y-97114315D01*
X114098637Y-97138200D01*
X114221980Y-97204128D01*
X114355816Y-97244727D01*
X114495000Y-97258435D01*
X114529877Y-97255000D01*
X128460123Y-97255000D01*
X128495000Y-97258435D01*
X128529877Y-97255000D01*
X128534497Y-97254545D01*
X128349727Y-97531072D01*
X128124712Y-98074308D01*
X128010000Y-98651003D01*
X128010000Y-99238997D01*
X128124712Y-99815692D01*
X128349727Y-100358928D01*
X128676399Y-100847826D01*
X128691116Y-100862543D01*
X128634184Y-100845273D01*
X128529877Y-100835000D01*
X128495000Y-100831565D01*
X128460123Y-100835000D01*
X114529877Y-100835000D01*
X114495000Y-100831565D01*
X114460123Y-100835000D01*
X114355816Y-100845273D01*
X114221980Y-100885872D01*
X114098637Y-100951800D01*
X113990525Y-101040525D01*
X113901800Y-101148637D01*
X113835872Y-101271980D01*
X113795273Y-101405816D01*
X113781565Y-101545000D01*
X113785001Y-101579887D01*
X113785000Y-115510123D01*
X113781565Y-115545000D01*
X113795273Y-115684184D01*
X113835872Y-115818020D01*
X113901800Y-115941363D01*
X113990525Y-116049475D01*
X114090306Y-116131363D01*
X114098637Y-116138200D01*
X114221980Y-116204128D01*
X114355816Y-116244727D01*
X114495000Y-116258435D01*
X114529877Y-116255000D01*
X128460123Y-116255000D01*
X128495000Y-116258435D01*
X128529877Y-116255000D01*
X128634184Y-116244727D01*
X128768020Y-116204128D01*
X128891363Y-116138200D01*
X128999475Y-116049475D01*
X129088200Y-115941363D01*
X129154128Y-115818020D01*
X129179312Y-115735000D01*
X151881565Y-115735000D01*
X151885001Y-115769887D01*
X151885000Y-129700123D01*
X151881565Y-129735000D01*
X151895273Y-129874184D01*
X151935872Y-130008020D01*
X152001800Y-130131363D01*
X152090525Y-130239475D01*
X152198637Y-130328200D01*
X152321980Y-130394128D01*
X152455816Y-130434727D01*
X152595000Y-130448435D01*
X152629877Y-130445000D01*
X166560123Y-130445000D01*
X166595000Y-130448435D01*
X166629877Y-130445000D01*
X166734184Y-130434727D01*
X166868020Y-130394128D01*
X166991363Y-130328200D01*
X167099475Y-130239475D01*
X167188200Y-130131363D01*
X167254128Y-130008020D01*
X167294727Y-129874184D01*
X167308435Y-129735000D01*
X167305000Y-129700123D01*
X167305000Y-123049000D01*
X208972565Y-123049000D01*
X208976001Y-123083887D01*
X208976000Y-137014123D01*
X208972565Y-137049000D01*
X208986273Y-137188184D01*
X209026872Y-137322020D01*
X209092800Y-137445363D01*
X209181525Y-137553475D01*
X209228260Y-137591829D01*
X209289637Y-137642200D01*
X209412980Y-137708128D01*
X209546816Y-137748727D01*
X209686000Y-137762435D01*
X209720877Y-137759000D01*
X223651123Y-137759000D01*
X223686000Y-137762435D01*
X223720877Y-137759000D01*
X223825184Y-137748727D01*
X223959020Y-137708128D01*
X224082363Y-137642200D01*
X224190475Y-137553475D01*
X224279200Y-137445363D01*
X224345128Y-137322020D01*
X224385727Y-137188184D01*
X224399435Y-137049000D01*
X224396000Y-137014123D01*
X224396000Y-123083877D01*
X224399435Y-123049000D01*
X224385727Y-122909816D01*
X224345128Y-122775980D01*
X224279200Y-122652637D01*
X224190475Y-122544525D01*
X224082363Y-122455800D01*
X223959020Y-122389872D01*
X223825184Y-122349273D01*
X223720877Y-122339000D01*
X223686000Y-122335565D01*
X223651123Y-122339000D01*
X209720877Y-122339000D01*
X209686000Y-122335565D01*
X209651123Y-122339000D01*
X209546816Y-122349273D01*
X209412980Y-122389872D01*
X209289637Y-122455800D01*
X209181525Y-122544525D01*
X209092800Y-122652637D01*
X209026872Y-122775980D01*
X208986273Y-122909816D01*
X208972565Y-123049000D01*
X167305000Y-123049000D01*
X167305000Y-115769877D01*
X167308435Y-115735000D01*
X167294727Y-115595816D01*
X167254128Y-115461980D01*
X167188200Y-115338637D01*
X167099475Y-115230525D01*
X166991363Y-115141800D01*
X166868020Y-115075872D01*
X166734184Y-115035273D01*
X166629877Y-115025000D01*
X166595000Y-115021565D01*
X166560123Y-115025000D01*
X152629877Y-115025000D01*
X152595000Y-115021565D01*
X152560123Y-115025000D01*
X152455816Y-115035273D01*
X152321980Y-115075872D01*
X152198637Y-115141800D01*
X152090525Y-115230525D01*
X152001800Y-115338637D01*
X151935872Y-115461980D01*
X151895273Y-115595816D01*
X151881565Y-115735000D01*
X129179312Y-115735000D01*
X129194727Y-115684184D01*
X129208435Y-115545000D01*
X129205000Y-115510123D01*
X129205000Y-101579877D01*
X129208435Y-101545000D01*
X129194727Y-101405816D01*
X129166690Y-101313391D01*
X129581072Y-101590273D01*
X130124308Y-101815288D01*
X130701003Y-101930000D01*
X131288997Y-101930000D01*
X131865692Y-101815288D01*
X132408928Y-101590273D01*
X132785001Y-101338989D01*
X132785000Y-113110123D01*
X132781565Y-113145000D01*
X132795273Y-113284184D01*
X132835872Y-113418020D01*
X132901800Y-113541363D01*
X132990525Y-113649475D01*
X133075203Y-113718968D01*
X133098637Y-113738200D01*
X133221980Y-113804128D01*
X133355816Y-113844727D01*
X133495000Y-113858435D01*
X133529877Y-113855000D01*
X147460123Y-113855000D01*
X147495000Y-113858435D01*
X147529877Y-113855000D01*
X147628397Y-113845297D01*
X147634184Y-113844727D01*
X147768020Y-113804128D01*
X147891363Y-113738200D01*
X147999475Y-113649475D01*
X148088200Y-113541363D01*
X148154128Y-113418020D01*
X148194727Y-113284184D01*
X148205000Y-113179877D01*
X148205000Y-113179876D01*
X148208435Y-113145000D01*
X148205000Y-113110123D01*
X148205000Y-99179877D01*
X148208435Y-99145000D01*
X148194727Y-99005816D01*
X148154128Y-98871980D01*
X148088200Y-98748637D01*
X147999475Y-98640525D01*
X147891363Y-98551800D01*
X147768020Y-98485872D01*
X147634184Y-98445273D01*
X147529877Y-98435000D01*
X147495000Y-98431565D01*
X147460123Y-98435000D01*
X133937034Y-98435000D01*
X133865288Y-98074308D01*
X133640273Y-97531072D01*
X133313601Y-97042174D01*
X132897826Y-96626399D01*
X132408928Y-96299727D01*
X131865692Y-96074712D01*
X131288997Y-95960000D01*
X130701003Y-95960000D01*
X130124308Y-96074712D01*
X129581072Y-96299727D01*
X129208043Y-96548977D01*
X129208435Y-96545000D01*
X129205000Y-96510123D01*
X129205000Y-82579877D01*
X129208435Y-82545000D01*
X129194727Y-82405816D01*
X129154128Y-82271980D01*
X129088200Y-82148637D01*
X128999475Y-82040525D01*
X128891363Y-81951800D01*
X128768020Y-81885872D01*
X128634184Y-81845273D01*
X128529877Y-81835000D01*
X128495000Y-81831565D01*
X128460123Y-81835000D01*
X114529877Y-81835000D01*
X114495000Y-81831565D01*
X114460123Y-81835000D01*
X114355816Y-81845273D01*
X114221980Y-81885872D01*
X114098637Y-81951800D01*
X113990525Y-82040525D01*
X113901800Y-82148637D01*
X113835872Y-82271980D01*
X113795273Y-82405816D01*
X113781565Y-82545000D01*
X112705000Y-82545000D01*
X112705000Y-63545000D01*
X113781565Y-63545000D01*
X113785001Y-63579887D01*
X113785000Y-77510123D01*
X113781565Y-77545000D01*
X113795273Y-77684184D01*
X113835872Y-77818020D01*
X113901800Y-77941363D01*
X113990525Y-78049475D01*
X114098637Y-78138200D01*
X114221980Y-78204128D01*
X114355816Y-78244727D01*
X114495000Y-78258435D01*
X114529877Y-78255000D01*
X128460123Y-78255000D01*
X128495000Y-78258435D01*
X128529877Y-78255000D01*
X128634184Y-78244727D01*
X128768020Y-78204128D01*
X128891363Y-78138200D01*
X128999475Y-78049475D01*
X129088200Y-77941363D01*
X129154128Y-77818020D01*
X129194727Y-77684184D01*
X129208435Y-77545000D01*
X129205000Y-77510123D01*
X129205000Y-63579877D01*
X129208435Y-63545000D01*
X129194727Y-63405816D01*
X129154128Y-63271980D01*
X129088200Y-63148637D01*
X128999475Y-63040525D01*
X128891363Y-62951800D01*
X128773515Y-62888809D01*
X129490000Y-62888809D01*
X129490000Y-95311190D01*
X132460000Y-95311190D01*
X132460000Y-80045000D01*
X132781565Y-80045000D01*
X132785001Y-80079887D01*
X132785000Y-94010123D01*
X132781565Y-94045000D01*
X132795273Y-94184184D01*
X132835872Y-94318020D01*
X132901800Y-94441363D01*
X132990525Y-94549475D01*
X133098637Y-94638200D01*
X133221980Y-94704128D01*
X133355816Y-94744727D01*
X133495000Y-94758435D01*
X133529877Y-94755000D01*
X147460123Y-94755000D01*
X147495000Y-94758435D01*
X147529877Y-94755000D01*
X147634184Y-94744727D01*
X147768020Y-94704128D01*
X147891363Y-94638200D01*
X147999475Y-94549475D01*
X148088200Y-94441363D01*
X148154128Y-94318020D01*
X148194727Y-94184184D01*
X148208435Y-94045000D01*
X148205000Y-94010123D01*
X148205000Y-80079877D01*
X148208435Y-80045000D01*
X148194727Y-79905816D01*
X148154128Y-79771980D01*
X148088200Y-79648637D01*
X147999475Y-79540525D01*
X147891363Y-79451800D01*
X147768020Y-79385872D01*
X147634184Y-79345273D01*
X147529877Y-79335000D01*
X147495000Y-79331565D01*
X147460123Y-79335000D01*
X133529877Y-79335000D01*
X133495000Y-79331565D01*
X133460123Y-79335000D01*
X133355816Y-79345273D01*
X133221980Y-79385872D01*
X133098637Y-79451800D01*
X132990525Y-79540525D01*
X132901800Y-79648637D01*
X132835872Y-79771980D01*
X132795273Y-79905816D01*
X132781565Y-80045000D01*
X132460000Y-80045000D01*
X132460000Y-62888809D01*
X129490000Y-62888809D01*
X128773515Y-62888809D01*
X128768020Y-62885872D01*
X128634184Y-62845273D01*
X128529877Y-62835000D01*
X128495000Y-62831565D01*
X128460123Y-62835000D01*
X114529877Y-62835000D01*
X114495000Y-62831565D01*
X114460123Y-62835000D01*
X114355816Y-62845273D01*
X114221980Y-62885872D01*
X114098637Y-62951800D01*
X113990525Y-63040525D01*
X113901800Y-63148637D01*
X113835872Y-63271980D01*
X113795273Y-63405816D01*
X113781565Y-63545000D01*
X112705000Y-63545000D01*
X112705000Y-44445000D01*
X113781565Y-44445000D01*
X113785001Y-44479887D01*
X113785000Y-58410123D01*
X113781565Y-58445000D01*
X113795273Y-58584184D01*
X113835872Y-58718020D01*
X113901800Y-58841363D01*
X113990525Y-58949475D01*
X114098637Y-59038200D01*
X114221980Y-59104128D01*
X114355816Y-59144727D01*
X114495000Y-59158435D01*
X114529877Y-59155000D01*
X128092748Y-59155000D01*
X128124712Y-59315692D01*
X128349727Y-59858928D01*
X128676399Y-60347826D01*
X129092174Y-60763601D01*
X129581072Y-61090273D01*
X130124308Y-61315288D01*
X130701003Y-61430000D01*
X131288997Y-61430000D01*
X131865692Y-61315288D01*
X132408928Y-61090273D01*
X132823310Y-60813391D01*
X132795273Y-60905816D01*
X132781565Y-61045000D01*
X132785001Y-61079887D01*
X132785000Y-75010123D01*
X132781565Y-75045000D01*
X132795273Y-75184184D01*
X132835872Y-75318020D01*
X132901800Y-75441363D01*
X132990525Y-75549475D01*
X133025527Y-75578200D01*
X133098637Y-75638200D01*
X133221980Y-75704128D01*
X133355816Y-75744727D01*
X133495000Y-75758435D01*
X133529877Y-75755000D01*
X147460123Y-75755000D01*
X147495000Y-75758435D01*
X147529877Y-75755000D01*
X147634184Y-75744727D01*
X147768020Y-75704128D01*
X147891363Y-75638200D01*
X147999475Y-75549475D01*
X148088200Y-75441363D01*
X148154128Y-75318020D01*
X148194727Y-75184184D01*
X148208435Y-75045000D01*
X148205000Y-75010123D01*
X148205000Y-61837619D01*
X148702500Y-61837619D01*
X148702500Y-99162381D01*
X151622500Y-99162381D01*
X151622500Y-96635000D01*
X151881565Y-96635000D01*
X151885001Y-96669887D01*
X151885000Y-110600123D01*
X151881565Y-110635000D01*
X151895273Y-110774184D01*
X151935872Y-110908020D01*
X152001800Y-111031363D01*
X152090525Y-111139475D01*
X152190031Y-111221137D01*
X152198637Y-111228200D01*
X152321980Y-111294128D01*
X152455816Y-111334727D01*
X152595000Y-111348435D01*
X152629877Y-111345000D01*
X166560123Y-111345000D01*
X166595000Y-111348435D01*
X166629877Y-111345000D01*
X166682422Y-111339825D01*
X166734184Y-111334727D01*
X166868020Y-111294128D01*
X166991363Y-111228200D01*
X167099475Y-111139475D01*
X167188200Y-111031363D01*
X167254128Y-110908020D01*
X167294727Y-110774184D01*
X167305000Y-110669877D01*
X167305000Y-110669876D01*
X167308435Y-110635000D01*
X167305000Y-110600123D01*
X167305000Y-99145000D01*
X170881565Y-99145000D01*
X170885001Y-99179887D01*
X170885000Y-113110123D01*
X170881565Y-113145000D01*
X170895273Y-113284184D01*
X170935872Y-113418020D01*
X171001800Y-113541363D01*
X171090525Y-113649475D01*
X171175203Y-113718968D01*
X171198637Y-113738200D01*
X171321980Y-113804128D01*
X171455816Y-113844727D01*
X171595000Y-113858435D01*
X171629877Y-113855000D01*
X185560123Y-113855000D01*
X185595000Y-113858435D01*
X185629877Y-113855000D01*
X185728397Y-113845297D01*
X185734184Y-113844727D01*
X185868020Y-113804128D01*
X185991363Y-113738200D01*
X186099475Y-113649475D01*
X186188200Y-113541363D01*
X186254128Y-113418020D01*
X186294727Y-113284184D01*
X186305000Y-113179877D01*
X186305000Y-113179876D01*
X186308435Y-113145000D01*
X186305000Y-113110123D01*
X186305000Y-99179877D01*
X186308435Y-99145000D01*
X186294727Y-99005816D01*
X186254128Y-98871980D01*
X186188200Y-98748637D01*
X186099475Y-98640525D01*
X185991363Y-98551800D01*
X185868020Y-98485872D01*
X185734184Y-98445273D01*
X185629877Y-98435000D01*
X185595000Y-98431565D01*
X185560123Y-98435000D01*
X171629877Y-98435000D01*
X171595000Y-98431565D01*
X171560123Y-98435000D01*
X171455816Y-98445273D01*
X171321980Y-98485872D01*
X171198637Y-98551800D01*
X171090525Y-98640525D01*
X171001800Y-98748637D01*
X170935872Y-98871980D01*
X170895273Y-99005816D01*
X170881565Y-99145000D01*
X167305000Y-99145000D01*
X167305000Y-96669877D01*
X167308435Y-96635000D01*
X167294727Y-96495816D01*
X167254128Y-96361980D01*
X167188200Y-96238637D01*
X167099475Y-96130525D01*
X166991363Y-96041800D01*
X166868020Y-95975872D01*
X166734184Y-95935273D01*
X166629877Y-95925000D01*
X166595000Y-95921565D01*
X166560123Y-95925000D01*
X152629877Y-95925000D01*
X152595000Y-95921565D01*
X152560123Y-95925000D01*
X152455816Y-95935273D01*
X152321980Y-95975872D01*
X152198637Y-96041800D01*
X152090525Y-96130525D01*
X152001800Y-96238637D01*
X151935872Y-96361980D01*
X151895273Y-96495816D01*
X151881565Y-96635000D01*
X151622500Y-96635000D01*
X151622500Y-77635000D01*
X151881565Y-77635000D01*
X151885001Y-77669887D01*
X151885000Y-91600123D01*
X151881565Y-91635000D01*
X151895273Y-91774184D01*
X151935872Y-91908020D01*
X152001800Y-92031363D01*
X152090525Y-92139475D01*
X152198637Y-92228200D01*
X152321980Y-92294128D01*
X152455816Y-92334727D01*
X152595000Y-92348435D01*
X152629877Y-92345000D01*
X166560123Y-92345000D01*
X166595000Y-92348435D01*
X166629877Y-92345000D01*
X166734184Y-92334727D01*
X166868020Y-92294128D01*
X166991363Y-92228200D01*
X167099475Y-92139475D01*
X167188200Y-92031363D01*
X167254128Y-91908020D01*
X167294727Y-91774184D01*
X167308435Y-91635000D01*
X167305000Y-91600123D01*
X167305000Y-80045000D01*
X170881565Y-80045000D01*
X170885001Y-80079887D01*
X170885000Y-94010123D01*
X170881565Y-94045000D01*
X170895273Y-94184184D01*
X170935872Y-94318020D01*
X171001800Y-94441363D01*
X171090525Y-94549475D01*
X171198637Y-94638200D01*
X171321980Y-94704128D01*
X171455816Y-94744727D01*
X171595000Y-94758435D01*
X171629877Y-94755000D01*
X185560123Y-94755000D01*
X185595000Y-94758435D01*
X185629877Y-94755000D01*
X185734184Y-94744727D01*
X185868020Y-94704128D01*
X185991363Y-94638200D01*
X186099475Y-94549475D01*
X186188200Y-94441363D01*
X186254128Y-94318020D01*
X186294727Y-94184184D01*
X186308435Y-94045000D01*
X186305000Y-94010123D01*
X186305000Y-84945000D01*
X189981565Y-84945000D01*
X189985001Y-84979887D01*
X189985000Y-98910123D01*
X189981565Y-98945000D01*
X189995273Y-99084184D01*
X190035872Y-99218020D01*
X190101800Y-99341363D01*
X190190525Y-99449475D01*
X190298637Y-99538200D01*
X190421980Y-99604128D01*
X190555816Y-99644727D01*
X190695000Y-99658435D01*
X190729877Y-99655000D01*
X204601011Y-99655000D01*
X204349727Y-100031072D01*
X204124712Y-100574308D01*
X204010000Y-101151003D01*
X204010000Y-101738997D01*
X204124712Y-102315692D01*
X204349727Y-102858928D01*
X204601011Y-103235000D01*
X190729877Y-103235000D01*
X190695000Y-103231565D01*
X190660123Y-103235000D01*
X190555816Y-103245273D01*
X190421980Y-103285872D01*
X190298637Y-103351800D01*
X190190525Y-103440525D01*
X190101800Y-103548637D01*
X190035872Y-103671980D01*
X189995273Y-103805816D01*
X189981565Y-103945000D01*
X189985001Y-103979887D01*
X189985000Y-117910123D01*
X189981565Y-117945000D01*
X189995273Y-118084184D01*
X190035872Y-118218020D01*
X190101800Y-118341363D01*
X190190525Y-118449475D01*
X190298637Y-118538200D01*
X190421980Y-118604128D01*
X190555816Y-118644727D01*
X190695000Y-118658435D01*
X190729877Y-118655000D01*
X204660123Y-118655000D01*
X204695000Y-118658435D01*
X204729877Y-118655000D01*
X204834184Y-118644727D01*
X204968020Y-118604128D01*
X205091363Y-118538200D01*
X205199475Y-118449475D01*
X205288200Y-118341363D01*
X205354128Y-118218020D01*
X205394727Y-118084184D01*
X205408435Y-117945000D01*
X205405000Y-117910123D01*
X205405000Y-103979877D01*
X205405670Y-103973073D01*
X205581072Y-104090273D01*
X206124308Y-104315288D01*
X206701003Y-104430000D01*
X207288997Y-104430000D01*
X207865692Y-104315288D01*
X208408928Y-104090273D01*
X208626343Y-103945000D01*
X209031565Y-103945000D01*
X209035001Y-103979887D01*
X209035000Y-117910123D01*
X209031565Y-117945000D01*
X209045273Y-118084184D01*
X209085872Y-118218020D01*
X209151800Y-118341363D01*
X209240525Y-118449475D01*
X209348637Y-118538200D01*
X209471980Y-118604128D01*
X209605816Y-118644727D01*
X209745000Y-118658435D01*
X209779877Y-118655000D01*
X223710123Y-118655000D01*
X223745000Y-118658435D01*
X223779877Y-118655000D01*
X223884184Y-118644727D01*
X224018020Y-118604128D01*
X224141363Y-118538200D01*
X224249475Y-118449475D01*
X224338200Y-118341363D01*
X224404128Y-118218020D01*
X224444727Y-118084184D01*
X224458435Y-117945000D01*
X224455000Y-117910123D01*
X224455000Y-103979877D01*
X224458435Y-103945000D01*
X224444727Y-103805816D01*
X224404128Y-103671980D01*
X224338200Y-103548637D01*
X224249475Y-103440525D01*
X224141363Y-103351800D01*
X224018020Y-103285872D01*
X223884184Y-103245273D01*
X223779877Y-103235000D01*
X223745000Y-103231565D01*
X223710123Y-103235000D01*
X209779877Y-103235000D01*
X209745000Y-103231565D01*
X209710123Y-103235000D01*
X209605816Y-103245273D01*
X209471980Y-103285872D01*
X209348637Y-103351800D01*
X209240525Y-103440525D01*
X209151800Y-103548637D01*
X209085872Y-103671980D01*
X209045273Y-103805816D01*
X209031565Y-103945000D01*
X208626343Y-103945000D01*
X208897826Y-103763601D01*
X209313601Y-103347826D01*
X209640273Y-102858928D01*
X209865288Y-102315692D01*
X209980000Y-101738997D01*
X209980000Y-101151003D01*
X209865288Y-100574308D01*
X209640273Y-100031072D01*
X209317784Y-99548434D01*
X209421980Y-99604128D01*
X209555816Y-99644727D01*
X209695000Y-99658435D01*
X209729877Y-99655000D01*
X223660123Y-99655000D01*
X223695000Y-99658435D01*
X223729877Y-99655000D01*
X223834184Y-99644727D01*
X223968020Y-99604128D01*
X224091363Y-99538200D01*
X224199475Y-99449475D01*
X224288200Y-99341363D01*
X224354128Y-99218020D01*
X224394727Y-99084184D01*
X224408435Y-98945000D01*
X224405000Y-98910123D01*
X224405000Y-84979877D01*
X224408435Y-84945000D01*
X224394727Y-84805816D01*
X224354128Y-84671980D01*
X224288200Y-84548637D01*
X224199475Y-84440525D01*
X224091363Y-84351800D01*
X223968020Y-84285872D01*
X223834184Y-84245273D01*
X223729877Y-84235000D01*
X223695000Y-84231565D01*
X223660123Y-84235000D01*
X209729877Y-84235000D01*
X209695000Y-84231565D01*
X209660123Y-84235000D01*
X209555816Y-84245273D01*
X209421980Y-84285872D01*
X209298637Y-84351800D01*
X209190525Y-84440525D01*
X209101800Y-84548637D01*
X209035872Y-84671980D01*
X208995273Y-84805816D01*
X208981565Y-84945000D01*
X208985001Y-84979887D01*
X208985000Y-98910123D01*
X208981565Y-98945000D01*
X208995273Y-99084184D01*
X209035872Y-99218020D01*
X209089180Y-99317753D01*
X208897826Y-99126399D01*
X208408928Y-98799727D01*
X207865692Y-98574712D01*
X207288997Y-98460000D01*
X206701003Y-98460000D01*
X206124308Y-98574712D01*
X205581072Y-98799727D01*
X205405670Y-98916927D01*
X205405000Y-98910123D01*
X205405000Y-84979877D01*
X205408435Y-84945000D01*
X205394727Y-84805816D01*
X205354128Y-84671980D01*
X205288200Y-84548637D01*
X205199475Y-84440525D01*
X205091363Y-84351800D01*
X204968020Y-84285872D01*
X204834184Y-84245273D01*
X204729877Y-84235000D01*
X204695000Y-84231565D01*
X204660123Y-84235000D01*
X190729877Y-84235000D01*
X190695000Y-84231565D01*
X190660123Y-84235000D01*
X190555816Y-84245273D01*
X190421980Y-84285872D01*
X190298637Y-84351800D01*
X190190525Y-84440525D01*
X190101800Y-84548637D01*
X190035872Y-84671980D01*
X189995273Y-84805816D01*
X189981565Y-84945000D01*
X186305000Y-84945000D01*
X186305000Y-80079877D01*
X186308435Y-80045000D01*
X186294727Y-79905816D01*
X186254128Y-79771980D01*
X186188200Y-79648637D01*
X186099475Y-79540525D01*
X185991363Y-79451800D01*
X185868020Y-79385872D01*
X185734184Y-79345273D01*
X185629877Y-79335000D01*
X185595000Y-79331565D01*
X185560123Y-79335000D01*
X171629877Y-79335000D01*
X171595000Y-79331565D01*
X171560123Y-79335000D01*
X171455816Y-79345273D01*
X171321980Y-79385872D01*
X171198637Y-79451800D01*
X171090525Y-79540525D01*
X171001800Y-79648637D01*
X170935872Y-79771980D01*
X170895273Y-79905816D01*
X170881565Y-80045000D01*
X167305000Y-80045000D01*
X167305000Y-77669877D01*
X167308435Y-77635000D01*
X167294727Y-77495816D01*
X167254128Y-77361980D01*
X167188200Y-77238637D01*
X167099475Y-77130525D01*
X166991363Y-77041800D01*
X166868020Y-76975872D01*
X166734184Y-76935273D01*
X166629877Y-76925000D01*
X166595000Y-76921565D01*
X166560123Y-76925000D01*
X152629877Y-76925000D01*
X152595000Y-76921565D01*
X152560123Y-76925000D01*
X152455816Y-76935273D01*
X152321980Y-76975872D01*
X152198637Y-77041800D01*
X152090525Y-77130525D01*
X152001800Y-77238637D01*
X151935872Y-77361980D01*
X151895273Y-77495816D01*
X151881565Y-77635000D01*
X151622500Y-77635000D01*
X151622500Y-61837619D01*
X148702500Y-61837619D01*
X148205000Y-61837619D01*
X148205000Y-61079877D01*
X148208435Y-61045000D01*
X148194727Y-60905816D01*
X148154128Y-60771980D01*
X148088200Y-60648637D01*
X147999475Y-60540525D01*
X147891363Y-60451800D01*
X147768020Y-60385872D01*
X147634184Y-60345273D01*
X147529877Y-60335000D01*
X147495000Y-60331565D01*
X147460123Y-60335000D01*
X133529877Y-60335000D01*
X133495000Y-60331565D01*
X133460123Y-60335000D01*
X133355816Y-60345273D01*
X133298884Y-60362543D01*
X133313601Y-60347826D01*
X133640273Y-59858928D01*
X133865288Y-59315692D01*
X133980000Y-58738997D01*
X133980000Y-58535000D01*
X151881565Y-58535000D01*
X151885001Y-58569887D01*
X151885000Y-72500123D01*
X151881565Y-72535000D01*
X151895273Y-72674184D01*
X151935872Y-72808020D01*
X152001800Y-72931363D01*
X152090525Y-73039475D01*
X152198637Y-73128200D01*
X152321980Y-73194128D01*
X152455816Y-73234727D01*
X152595000Y-73248435D01*
X152629877Y-73245000D01*
X166560123Y-73245000D01*
X166595000Y-73248435D01*
X166629877Y-73245000D01*
X166734184Y-73234727D01*
X166868020Y-73194128D01*
X166991363Y-73128200D01*
X167099475Y-73039475D01*
X167188200Y-72931363D01*
X167254128Y-72808020D01*
X167294727Y-72674184D01*
X167308435Y-72535000D01*
X167305000Y-72500123D01*
X167305000Y-60985000D01*
X170881565Y-60985000D01*
X170885001Y-61019887D01*
X170885000Y-74950123D01*
X170881565Y-74985000D01*
X170895273Y-75124184D01*
X170935872Y-75258020D01*
X171001800Y-75381363D01*
X171090525Y-75489475D01*
X171198637Y-75578200D01*
X171321980Y-75644128D01*
X171455816Y-75684727D01*
X171595000Y-75698435D01*
X171629877Y-75695000D01*
X185560123Y-75695000D01*
X185595000Y-75698435D01*
X185629877Y-75695000D01*
X185734184Y-75684727D01*
X185868020Y-75644128D01*
X185991363Y-75578200D01*
X186099475Y-75489475D01*
X186188200Y-75381363D01*
X186254128Y-75258020D01*
X186294727Y-75124184D01*
X186308435Y-74985000D01*
X186305000Y-74950123D01*
X186305000Y-61019877D01*
X186308435Y-60985000D01*
X186294727Y-60845816D01*
X186254128Y-60711980D01*
X186188200Y-60588637D01*
X186099475Y-60480525D01*
X185991363Y-60391800D01*
X185868020Y-60325872D01*
X185734184Y-60285273D01*
X185629877Y-60275000D01*
X185595000Y-60271565D01*
X185560123Y-60275000D01*
X171629877Y-60275000D01*
X171595000Y-60271565D01*
X171560123Y-60275000D01*
X171455816Y-60285273D01*
X171321980Y-60325872D01*
X171198637Y-60391800D01*
X171090525Y-60480525D01*
X171001800Y-60588637D01*
X170935872Y-60711980D01*
X170895273Y-60845816D01*
X170881565Y-60985000D01*
X167305000Y-60985000D01*
X167305000Y-58569877D01*
X167308435Y-58535000D01*
X167294727Y-58395816D01*
X167254128Y-58261980D01*
X167188200Y-58138637D01*
X167099475Y-58030525D01*
X166991363Y-57941800D01*
X166868020Y-57875872D01*
X166734184Y-57835273D01*
X166629877Y-57825000D01*
X166595000Y-57821565D01*
X166560123Y-57825000D01*
X152629877Y-57825000D01*
X152595000Y-57821565D01*
X152560123Y-57825000D01*
X152455816Y-57835273D01*
X152321980Y-57875872D01*
X152198637Y-57941800D01*
X152090525Y-58030525D01*
X152001800Y-58138637D01*
X151935872Y-58261980D01*
X151895273Y-58395816D01*
X151881565Y-58535000D01*
X133980000Y-58535000D01*
X133980000Y-58151003D01*
X133865288Y-57574308D01*
X133640273Y-57031072D01*
X133383978Y-56647501D01*
X133495000Y-56658435D01*
X133529877Y-56655000D01*
X147460123Y-56655000D01*
X147495000Y-56658435D01*
X147529877Y-56655000D01*
X147634184Y-56644727D01*
X147768020Y-56604128D01*
X147891363Y-56538200D01*
X147999475Y-56449475D01*
X148088200Y-56341363D01*
X148154128Y-56218020D01*
X148194727Y-56084184D01*
X148208435Y-55945000D01*
X148205000Y-55910123D01*
X148205000Y-41979877D01*
X148208435Y-41945000D01*
X148194727Y-41805816D01*
X148154128Y-41671980D01*
X148088200Y-41548637D01*
X147999475Y-41440525D01*
X147891363Y-41351800D01*
X147768020Y-41285872D01*
X147634184Y-41245273D01*
X147529877Y-41235000D01*
X147495000Y-41231565D01*
X147460123Y-41235000D01*
X133529877Y-41235000D01*
X133495000Y-41231565D01*
X133460123Y-41235000D01*
X133355816Y-41245273D01*
X133221980Y-41285872D01*
X133098637Y-41351800D01*
X132990525Y-41440525D01*
X132901800Y-41548637D01*
X132835872Y-41671980D01*
X132795273Y-41805816D01*
X132781565Y-41945000D01*
X132785001Y-41979887D01*
X132785000Y-55910123D01*
X132781565Y-55945000D01*
X132792499Y-56056022D01*
X132408928Y-55799727D01*
X131865692Y-55574712D01*
X131288997Y-55460000D01*
X130701003Y-55460000D01*
X130124308Y-55574712D01*
X129581072Y-55799727D01*
X129205000Y-56051011D01*
X129205000Y-44479877D01*
X129208435Y-44445000D01*
X129194727Y-44305816D01*
X129154128Y-44171980D01*
X129088200Y-44048637D01*
X128999475Y-43940525D01*
X128891363Y-43851800D01*
X128768020Y-43785872D01*
X128634184Y-43745273D01*
X128529877Y-43735000D01*
X128495000Y-43731565D01*
X128460123Y-43735000D01*
X114529877Y-43735000D01*
X114495000Y-43731565D01*
X114460123Y-43735000D01*
X114355816Y-43745273D01*
X114221980Y-43785872D01*
X114098637Y-43851800D01*
X113990525Y-43940525D01*
X113901800Y-44048637D01*
X113835872Y-44171980D01*
X113795273Y-44305816D01*
X113781565Y-44445000D01*
X112705000Y-44445000D01*
X112705000Y-39445000D01*
X151881565Y-39445000D01*
X151885001Y-39479887D01*
X151885000Y-53410123D01*
X151881565Y-53445000D01*
X151895273Y-53584184D01*
X151935872Y-53718020D01*
X152001800Y-53841363D01*
X152090525Y-53949475D01*
X152198637Y-54038200D01*
X152321980Y-54104128D01*
X152455816Y-54144727D01*
X152595000Y-54158435D01*
X152629877Y-54155000D01*
X166560123Y-54155000D01*
X166595000Y-54158435D01*
X166629877Y-54155000D01*
X166734184Y-54144727D01*
X166868020Y-54104128D01*
X166991363Y-54038200D01*
X167099475Y-53949475D01*
X167188200Y-53841363D01*
X167254128Y-53718020D01*
X167294727Y-53584184D01*
X167308435Y-53445000D01*
X167305000Y-53410123D01*
X167305000Y-41985000D01*
X170881565Y-41985000D01*
X170885001Y-42019887D01*
X170885000Y-55950123D01*
X170881565Y-55985000D01*
X170895273Y-56124184D01*
X170935872Y-56258020D01*
X171001800Y-56381363D01*
X171090525Y-56489475D01*
X171198637Y-56578200D01*
X171321980Y-56644128D01*
X171455816Y-56684727D01*
X171595000Y-56698435D01*
X171629877Y-56695000D01*
X185560123Y-56695000D01*
X185595000Y-56698435D01*
X185629877Y-56695000D01*
X185734184Y-56684727D01*
X185868020Y-56644128D01*
X185991363Y-56578200D01*
X186099475Y-56489475D01*
X186188200Y-56381363D01*
X186254128Y-56258020D01*
X186294727Y-56124184D01*
X186308435Y-55985000D01*
X186305000Y-55950123D01*
X186305000Y-46845000D01*
X189981565Y-46845000D01*
X189985001Y-46879887D01*
X189985000Y-60810123D01*
X189981565Y-60845000D01*
X189995273Y-60984184D01*
X190035872Y-61118020D01*
X190101800Y-61241363D01*
X190190525Y-61349475D01*
X190288645Y-61430000D01*
X190298637Y-61438200D01*
X190421980Y-61504128D01*
X190555816Y-61544727D01*
X190695000Y-61558435D01*
X190729877Y-61555000D01*
X204339816Y-61555000D01*
X204124712Y-62074308D01*
X204010000Y-62651003D01*
X204010000Y-63238997D01*
X204124712Y-63815692D01*
X204349727Y-64358928D01*
X204676399Y-64847826D01*
X204891116Y-65062543D01*
X204834184Y-65045273D01*
X204729877Y-65035000D01*
X204695000Y-65031565D01*
X204660123Y-65035000D01*
X190729877Y-65035000D01*
X190695000Y-65031565D01*
X190660123Y-65035000D01*
X190555816Y-65045273D01*
X190421980Y-65085872D01*
X190298637Y-65151800D01*
X190190525Y-65240525D01*
X190101800Y-65348637D01*
X190035872Y-65471980D01*
X189995273Y-65605816D01*
X189981565Y-65745000D01*
X189985001Y-65779887D01*
X189985000Y-79710123D01*
X189981565Y-79745000D01*
X189995273Y-79884184D01*
X190035872Y-80018020D01*
X190101800Y-80141363D01*
X190190525Y-80249475D01*
X190274048Y-80318020D01*
X190298637Y-80338200D01*
X190421980Y-80404128D01*
X190555816Y-80444727D01*
X190695000Y-80458435D01*
X190729877Y-80455000D01*
X204660123Y-80455000D01*
X204695000Y-80458435D01*
X204729877Y-80455000D01*
X204834184Y-80444727D01*
X204968020Y-80404128D01*
X205091363Y-80338200D01*
X205199475Y-80249475D01*
X205288200Y-80141363D01*
X205354128Y-80018020D01*
X205394727Y-79884184D01*
X205408435Y-79745000D01*
X205405000Y-79710123D01*
X205405000Y-65779877D01*
X205408435Y-65745000D01*
X205394727Y-65605816D01*
X205354128Y-65471980D01*
X205326401Y-65420107D01*
X205581072Y-65590273D01*
X206124308Y-65815288D01*
X206701003Y-65930000D01*
X207288997Y-65930000D01*
X207865692Y-65815288D01*
X208035382Y-65745000D01*
X208981565Y-65745000D01*
X208985001Y-65779887D01*
X208985000Y-79710123D01*
X208981565Y-79745000D01*
X208995273Y-79884184D01*
X209035872Y-80018020D01*
X209101800Y-80141363D01*
X209190525Y-80249475D01*
X209274048Y-80318020D01*
X209298637Y-80338200D01*
X209421980Y-80404128D01*
X209555816Y-80444727D01*
X209695000Y-80458435D01*
X209729877Y-80455000D01*
X223660123Y-80455000D01*
X223695000Y-80458435D01*
X223729877Y-80455000D01*
X223834184Y-80444727D01*
X223968020Y-80404128D01*
X224091363Y-80338200D01*
X224199475Y-80249475D01*
X224288200Y-80141363D01*
X224354128Y-80018020D01*
X224394727Y-79884184D01*
X224408435Y-79745000D01*
X224405000Y-79710123D01*
X224405000Y-65779877D01*
X224408435Y-65745000D01*
X224394727Y-65605816D01*
X224354128Y-65471980D01*
X224288200Y-65348637D01*
X224199475Y-65240525D01*
X224091363Y-65151800D01*
X223968020Y-65085872D01*
X223834184Y-65045273D01*
X223729877Y-65035000D01*
X223695000Y-65031565D01*
X223660123Y-65035000D01*
X209729877Y-65035000D01*
X209695000Y-65031565D01*
X209660123Y-65035000D01*
X209555816Y-65045273D01*
X209421980Y-65085872D01*
X209298637Y-65151800D01*
X209190525Y-65240525D01*
X209101800Y-65348637D01*
X209035872Y-65471980D01*
X208995273Y-65605816D01*
X208981565Y-65745000D01*
X208035382Y-65745000D01*
X208408928Y-65590273D01*
X208897826Y-65263601D01*
X209313601Y-64847826D01*
X209640273Y-64358928D01*
X209865288Y-63815692D01*
X209980000Y-63238997D01*
X209980000Y-62651003D01*
X209865288Y-62074308D01*
X209649762Y-61553980D01*
X209695000Y-61558435D01*
X209729877Y-61555000D01*
X223660123Y-61555000D01*
X223695000Y-61558435D01*
X223729877Y-61555000D01*
X223834184Y-61544727D01*
X223968020Y-61504128D01*
X224091363Y-61438200D01*
X224199475Y-61349475D01*
X224288200Y-61241363D01*
X224354128Y-61118020D01*
X224394727Y-60984184D01*
X224408435Y-60845000D01*
X224405000Y-60810123D01*
X224405000Y-46879877D01*
X224408435Y-46845000D01*
X224394727Y-46705816D01*
X224354128Y-46571980D01*
X224288200Y-46448637D01*
X224199475Y-46340525D01*
X224091363Y-46251800D01*
X223968020Y-46185872D01*
X223834184Y-46145273D01*
X223729877Y-46135000D01*
X223695000Y-46131565D01*
X223660123Y-46135000D01*
X209729877Y-46135000D01*
X209695000Y-46131565D01*
X209660123Y-46135000D01*
X209555816Y-46145273D01*
X209421980Y-46185872D01*
X209298637Y-46251800D01*
X209190525Y-46340525D01*
X209101800Y-46448637D01*
X209035872Y-46571980D01*
X208995273Y-46705816D01*
X208981565Y-46845000D01*
X208985001Y-46879887D01*
X208985000Y-60713573D01*
X208897826Y-60626399D01*
X208408928Y-60299727D01*
X207865692Y-60074712D01*
X207288997Y-59960000D01*
X206701003Y-59960000D01*
X206124308Y-60074712D01*
X205581072Y-60299727D01*
X205405000Y-60417375D01*
X205405000Y-46879877D01*
X205408435Y-46845000D01*
X205394727Y-46705816D01*
X205354128Y-46571980D01*
X205288200Y-46448637D01*
X205199475Y-46340525D01*
X205091363Y-46251800D01*
X204968020Y-46185872D01*
X204834184Y-46145273D01*
X204729877Y-46135000D01*
X204695000Y-46131565D01*
X204660123Y-46135000D01*
X190729877Y-46135000D01*
X190695000Y-46131565D01*
X190660123Y-46135000D01*
X190555816Y-46145273D01*
X190421980Y-46185872D01*
X190298637Y-46251800D01*
X190190525Y-46340525D01*
X190101800Y-46448637D01*
X190035872Y-46571980D01*
X189995273Y-46705816D01*
X189981565Y-46845000D01*
X186305000Y-46845000D01*
X186305000Y-42019877D01*
X186308435Y-41985000D01*
X186294727Y-41845816D01*
X186254128Y-41711980D01*
X186188200Y-41588637D01*
X186099475Y-41480525D01*
X185991363Y-41391800D01*
X185868020Y-41325872D01*
X185734184Y-41285273D01*
X185629877Y-41275000D01*
X185595000Y-41271565D01*
X185560123Y-41275000D01*
X171629877Y-41275000D01*
X171595000Y-41271565D01*
X171560123Y-41275000D01*
X171455816Y-41285273D01*
X171321980Y-41325872D01*
X171198637Y-41391800D01*
X171090525Y-41480525D01*
X171001800Y-41588637D01*
X170935872Y-41711980D01*
X170895273Y-41845816D01*
X170881565Y-41985000D01*
X167305000Y-41985000D01*
X167305000Y-39479877D01*
X167308435Y-39445000D01*
X167294727Y-39305816D01*
X167254128Y-39171980D01*
X167188200Y-39048637D01*
X167099475Y-38940525D01*
X166991363Y-38851800D01*
X166868020Y-38785872D01*
X166734184Y-38745273D01*
X166629877Y-38735000D01*
X166595000Y-38731565D01*
X166560123Y-38735000D01*
X152629877Y-38735000D01*
X152595000Y-38731565D01*
X152560123Y-38735000D01*
X152455816Y-38745273D01*
X152321980Y-38785872D01*
X152198637Y-38851800D01*
X152090525Y-38940525D01*
X152001800Y-39048637D01*
X151935872Y-39171980D01*
X151895273Y-39305816D01*
X151881565Y-39445000D01*
X112705000Y-39445000D01*
X112705000Y-39145821D01*
X112746463Y-39002775D01*
X112846756Y-38852335D01*
X112915575Y-38783516D01*
X112967387Y-38757610D01*
X113193645Y-38682190D01*
X113601036Y-38580342D01*
X113610460Y-38576975D01*
X150008615Y-37130000D01*
X171891299Y-37130000D01*
X225331807Y-45561746D01*
G04 #@! TA.AperFunction,NonConductor*
D19*
G36*
X225331807Y-45561746D02*
G01*
X225442617Y-45590115D01*
X225516481Y-45623972D01*
X225582585Y-45669767D01*
X225639771Y-45726261D01*
X225686436Y-45791768D01*
X225721105Y-45864343D01*
X225742732Y-45942657D01*
X225753182Y-46057900D01*
X225754800Y-139019819D01*
X207182702Y-139019821D01*
X188671052Y-134782582D01*
X188629283Y-134769912D01*
X188571892Y-134764259D01*
X188514731Y-134756970D01*
X188471208Y-134760000D01*
X139153838Y-134760000D01*
X139091265Y-134759123D01*
X139053284Y-134766126D01*
X139014845Y-134769912D01*
X138954927Y-134788088D01*
X94859605Y-147492335D01*
X94515432Y-147429758D01*
X94238912Y-147337584D01*
X94079990Y-147201366D01*
X85462387Y-132236162D01*
X87430915Y-132236162D01*
X87435491Y-132375943D01*
X87467249Y-132512148D01*
X87524970Y-132639539D01*
X87545383Y-132668025D01*
X94510511Y-144731983D01*
X94524970Y-144763895D01*
X94545377Y-144792373D01*
X94545382Y-144792382D01*
X94606432Y-144877578D01*
X94676889Y-144943567D01*
X94708511Y-144973184D01*
X94753423Y-145001112D01*
X94827277Y-145047038D01*
X94958171Y-145096303D01*
X95096161Y-145119085D01*
X95096162Y-145119085D01*
X95235943Y-145114509D01*
X95372148Y-145082751D01*
X95467617Y-145039494D01*
X95467618Y-145039494D01*
X95499539Y-145025030D01*
X95528025Y-145004617D01*
X107591983Y-138039489D01*
X107623895Y-138025030D01*
X107652373Y-138004623D01*
X107652382Y-138004618D01*
X107737578Y-137943568D01*
X107833183Y-137841490D01*
X107907038Y-137722723D01*
X107956303Y-137591829D01*
X107979085Y-137453839D01*
X107978808Y-137445363D01*
X107974509Y-137314056D01*
X107942751Y-137177851D01*
X107899494Y-137082382D01*
X107899491Y-137082377D01*
X107885030Y-137050461D01*
X107864620Y-137021979D01*
X100899493Y-124958025D01*
X100892194Y-124941914D01*
X109309879Y-124941914D01*
X109332661Y-125079903D01*
X109345005Y-125112701D01*
X112950421Y-138568296D01*
X112956128Y-138602864D01*
X112968469Y-138635654D01*
X112968472Y-138635664D01*
X113005392Y-138733758D01*
X113079247Y-138852526D01*
X113174852Y-138954603D01*
X113288535Y-139036067D01*
X113415927Y-139093787D01*
X113552130Y-139125545D01*
X113691914Y-139130122D01*
X113829903Y-139107339D01*
X113862704Y-139094994D01*
X127318294Y-135489580D01*
X127352864Y-135483872D01*
X127385657Y-135471530D01*
X127385664Y-135471528D01*
X127483758Y-135434608D01*
X127602526Y-135360753D01*
X127704603Y-135265148D01*
X127786067Y-135151465D01*
X127843787Y-135024073D01*
X127875545Y-134887870D01*
X127880122Y-134748086D01*
X127857339Y-134610097D01*
X127844995Y-134577299D01*
X124239581Y-121121716D01*
X124233872Y-121087136D01*
X124184608Y-120956242D01*
X124110753Y-120837474D01*
X124015148Y-120735398D01*
X123901465Y-120653933D01*
X123774073Y-120596213D01*
X123637869Y-120564455D01*
X123498086Y-120559879D01*
X123394674Y-120576952D01*
X123394671Y-120576953D01*
X123360097Y-120582661D01*
X123327301Y-120595005D01*
X109871713Y-124200419D01*
X109837136Y-124206128D01*
X109804336Y-124218473D01*
X109706242Y-124255393D01*
X109587475Y-124329248D01*
X109485398Y-124424853D01*
X109403933Y-124538536D01*
X109346213Y-124665928D01*
X109314455Y-124802131D01*
X109309879Y-124941914D01*
X100892194Y-124941914D01*
X100885030Y-124926105D01*
X100803567Y-124812422D01*
X100701489Y-124716816D01*
X100582722Y-124642962D01*
X100451828Y-124593697D01*
X100313838Y-124570915D01*
X100174056Y-124575491D01*
X100037851Y-124607249D01*
X99942382Y-124650506D01*
X99942377Y-124650509D01*
X99910461Y-124664970D01*
X99881979Y-124685380D01*
X87818025Y-131650507D01*
X87786105Y-131664970D01*
X87757620Y-131685382D01*
X87757618Y-131685383D01*
X87672422Y-131746433D01*
X87576816Y-131848511D01*
X87502962Y-131967278D01*
X87453697Y-132098172D01*
X87430915Y-132236162D01*
X85462387Y-132236162D01*
X83928274Y-129572044D01*
X83821687Y-129216756D01*
X83801269Y-128971740D01*
X87228182Y-128971740D01*
X87228182Y-129264260D01*
X87285250Y-129551158D01*
X87397192Y-129821411D01*
X87559707Y-130064632D01*
X87766550Y-130271475D01*
X88009771Y-130433990D01*
X88280024Y-130545932D01*
X88566922Y-130603000D01*
X88859442Y-130603000D01*
X89146340Y-130545932D01*
X89416593Y-130433990D01*
X89659814Y-130271475D01*
X89866657Y-130064632D01*
X90029172Y-129821411D01*
X90141114Y-129551158D01*
X90198182Y-129264260D01*
X90198182Y-129156444D01*
X90209475Y-129163990D01*
X90479728Y-129275932D01*
X90766626Y-129333000D01*
X91059146Y-129333000D01*
X91346044Y-129275932D01*
X91616297Y-129163990D01*
X91859518Y-129001475D01*
X92066361Y-128794632D01*
X92228876Y-128551411D01*
X92340818Y-128281158D01*
X92397886Y-127994260D01*
X92397886Y-127886444D01*
X92409180Y-127893990D01*
X92679433Y-128005932D01*
X92966331Y-128063000D01*
X93258851Y-128063000D01*
X93545749Y-128005932D01*
X93816002Y-127893990D01*
X94059223Y-127731475D01*
X94266066Y-127524632D01*
X94428581Y-127281411D01*
X94540523Y-127011158D01*
X94597591Y-126724260D01*
X94597591Y-126616444D01*
X94608884Y-126623990D01*
X94879137Y-126735932D01*
X95166035Y-126793000D01*
X95458555Y-126793000D01*
X95745453Y-126735932D01*
X96015706Y-126623990D01*
X96258927Y-126461475D01*
X96465770Y-126254632D01*
X96628285Y-126011411D01*
X96740227Y-125741158D01*
X96757574Y-125653947D01*
X96812444Y-125705338D01*
X96918666Y-125771391D01*
X97035733Y-125815452D01*
X97159146Y-125835828D01*
X97284163Y-125831735D01*
X97405979Y-125803332D01*
X97519914Y-125751709D01*
X98992158Y-124901709D01*
X99093832Y-124828850D01*
X99179338Y-124737556D01*
X99245391Y-124631334D01*
X99289452Y-124514267D01*
X99309828Y-124390854D01*
X99305735Y-124265837D01*
X99277332Y-124144021D01*
X99225709Y-124030086D01*
X98375709Y-122557842D01*
X98302850Y-122456168D01*
X98211556Y-122370662D01*
X98105334Y-122304609D01*
X97988267Y-122260548D01*
X97864854Y-122240172D01*
X97739837Y-122244265D01*
X97618021Y-122272668D01*
X97504086Y-122324291D01*
X97104053Y-122555250D01*
X94699805Y-120151003D01*
X101010000Y-120151003D01*
X101010000Y-120738997D01*
X101124712Y-121315692D01*
X101349727Y-121858928D01*
X101676399Y-122347826D01*
X102092174Y-122763601D01*
X102581072Y-123090273D01*
X103124308Y-123315288D01*
X103701003Y-123430000D01*
X104288997Y-123430000D01*
X104865692Y-123315288D01*
X105408928Y-123090273D01*
X105897826Y-122763601D01*
X106313601Y-122347826D01*
X106640273Y-121858928D01*
X106865288Y-121315692D01*
X106980000Y-120738997D01*
X106980000Y-120151003D01*
X106865288Y-119574308D01*
X106640273Y-119031072D01*
X106313601Y-118542174D01*
X105916427Y-118145000D01*
X132781565Y-118145000D01*
X132785001Y-118179887D01*
X132785000Y-132110123D01*
X132781565Y-132145000D01*
X132795273Y-132284184D01*
X132835872Y-132418020D01*
X132901800Y-132541363D01*
X132990525Y-132649475D01*
X133098637Y-132738200D01*
X133221980Y-132804128D01*
X133355816Y-132844727D01*
X133495000Y-132858435D01*
X133529877Y-132855000D01*
X147460123Y-132855000D01*
X147495000Y-132858435D01*
X147529877Y-132855000D01*
X147592545Y-132848828D01*
X147634184Y-132844727D01*
X147768020Y-132804128D01*
X147891363Y-132738200D01*
X147999475Y-132649475D01*
X148088200Y-132541363D01*
X148154128Y-132418020D01*
X148194727Y-132284184D01*
X148205000Y-132179877D01*
X148205000Y-132179876D01*
X148208435Y-132145000D01*
X148205000Y-132110123D01*
X148205000Y-118179877D01*
X148208435Y-118145000D01*
X148194727Y-118005816D01*
X148154128Y-117871980D01*
X148088200Y-117748637D01*
X147999475Y-117640525D01*
X147891363Y-117551800D01*
X147768020Y-117485872D01*
X147634184Y-117445273D01*
X147529877Y-117435000D01*
X147495000Y-117431565D01*
X147460123Y-117435000D01*
X133529877Y-117435000D01*
X133495000Y-117431565D01*
X133460123Y-117435000D01*
X133355816Y-117445273D01*
X133221980Y-117485872D01*
X133098637Y-117551800D01*
X132990525Y-117640525D01*
X132901800Y-117748637D01*
X132835872Y-117871980D01*
X132795273Y-118005816D01*
X132781565Y-118145000D01*
X105916427Y-118145000D01*
X105897826Y-118126399D01*
X105408928Y-117799727D01*
X104865692Y-117574712D01*
X104288997Y-117460000D01*
X103701003Y-117460000D01*
X103124308Y-117574712D01*
X102581072Y-117799727D01*
X102092174Y-118126399D01*
X101676399Y-118542174D01*
X101349727Y-119031072D01*
X101124712Y-119574308D01*
X101010000Y-120151003D01*
X94699805Y-120151003D01*
X94090977Y-119542176D01*
X94090977Y-114536885D01*
X94241228Y-114687136D01*
X94476260Y-114844179D01*
X94737413Y-114952352D01*
X95014652Y-115007499D01*
X95297322Y-115007499D01*
X95574561Y-114952352D01*
X95835714Y-114844179D01*
X96070746Y-114687136D01*
X96270624Y-114487258D01*
X96427667Y-114252226D01*
X96535840Y-113991073D01*
X96590987Y-113713834D01*
X96590987Y-113431164D01*
X96535840Y-113153925D01*
X96427667Y-112892772D01*
X96270624Y-112657740D01*
X96191506Y-112578622D01*
X96284702Y-112550351D01*
X96568739Y-112398530D01*
X96817701Y-112194213D01*
X97022018Y-111945251D01*
X97173839Y-111661214D01*
X97267330Y-111353015D01*
X97298898Y-111032499D01*
X97267330Y-110711983D01*
X97173839Y-110403784D01*
X97022018Y-110119747D01*
X96817701Y-109870785D01*
X96685754Y-109762499D01*
X96817701Y-109654213D01*
X97022018Y-109405251D01*
X97173839Y-109121214D01*
X97267330Y-108813015D01*
X97298898Y-108492499D01*
X97267330Y-108171983D01*
X97173839Y-107863784D01*
X97022018Y-107579747D01*
X96817701Y-107330785D01*
X96685754Y-107222499D01*
X96817701Y-107114213D01*
X97022018Y-106865251D01*
X97173839Y-106581214D01*
X97267330Y-106273015D01*
X97298898Y-105952499D01*
X97267330Y-105631983D01*
X97173839Y-105323784D01*
X97022018Y-105039747D01*
X96817701Y-104790785D01*
X96685754Y-104682499D01*
X96817701Y-104574213D01*
X97022018Y-104325251D01*
X97173839Y-104041214D01*
X97267330Y-103733015D01*
X97298898Y-103412499D01*
X97267330Y-103091983D01*
X97173839Y-102783784D01*
X97022018Y-102499747D01*
X96817701Y-102250785D01*
X96812893Y-102246839D01*
X106057208Y-102246839D01*
X106062832Y-102306395D01*
X106067623Y-102366025D01*
X106069318Y-102375083D01*
X106083853Y-102449898D01*
X106100929Y-102507199D01*
X106117218Y-102564784D01*
X106120639Y-102573341D01*
X106149429Y-102643909D01*
X106177334Y-102696848D01*
X106195987Y-102733466D01*
X106195988Y-103392778D01*
X106181702Y-103419868D01*
X106153057Y-103472393D01*
X106149515Y-103480900D01*
X106120711Y-103551462D01*
X106103626Y-103608754D01*
X106085722Y-103665865D01*
X106083900Y-103674899D01*
X106069350Y-103749712D01*
X106063719Y-103809219D01*
X106057247Y-103868739D01*
X106057215Y-103877954D01*
X106057474Y-103954167D01*
X106063513Y-104013678D01*
X106068721Y-104073270D01*
X106070478Y-104082316D01*
X106085535Y-104157028D01*
X106103019Y-104214233D01*
X106119701Y-104271677D01*
X106123182Y-104280209D01*
X106152464Y-104350575D01*
X106180722Y-104403289D01*
X106208253Y-104456414D01*
X106213326Y-104464108D01*
X106255718Y-104527445D01*
X106293677Y-104573666D01*
X106330993Y-104620421D01*
X106337463Y-104626983D01*
X106391349Y-104680880D01*
X106437560Y-104718846D01*
X106483261Y-104757474D01*
X106490883Y-104762654D01*
X106554212Y-104805057D01*
X106606928Y-104833330D01*
X106659238Y-104862333D01*
X106667720Y-104865934D01*
X106738079Y-104895230D01*
X106795259Y-104912717D01*
X106852243Y-104931019D01*
X106861264Y-104932904D01*
X106935973Y-104947975D01*
X106995416Y-104954018D01*
X107054898Y-104960907D01*
X107064112Y-104961004D01*
X107140327Y-104961278D01*
X107199880Y-104955655D01*
X107245988Y-104951950D01*
X107245987Y-108423706D01*
X107209267Y-108420231D01*
X107149747Y-108413759D01*
X107140537Y-108413727D01*
X107140532Y-108413727D01*
X107064318Y-108413986D01*
X107004804Y-108420026D01*
X106945216Y-108425233D01*
X106936170Y-108426990D01*
X106861458Y-108442047D01*
X106804242Y-108459534D01*
X106746810Y-108476213D01*
X106738278Y-108479694D01*
X106667911Y-108508976D01*
X106615197Y-108537234D01*
X106562072Y-108564765D01*
X106554379Y-108569837D01*
X106491041Y-108612230D01*
X106444820Y-108650189D01*
X106398065Y-108687505D01*
X106391503Y-108693975D01*
X106337606Y-108747861D01*
X106299640Y-108794072D01*
X106261012Y-108839773D01*
X106255832Y-108847395D01*
X106213428Y-108910725D01*
X106185170Y-108963415D01*
X106156153Y-109015750D01*
X106152552Y-109024233D01*
X106123256Y-109094591D01*
X106105769Y-109151771D01*
X106087467Y-109208755D01*
X106085582Y-109217776D01*
X106070511Y-109292485D01*
X106064468Y-109351928D01*
X106057579Y-109411410D01*
X106057482Y-109420625D01*
X106057208Y-109496839D01*
X106062832Y-109556395D01*
X106067623Y-109616025D01*
X106069318Y-109625083D01*
X106083853Y-109699898D01*
X106100929Y-109757199D01*
X106117218Y-109814784D01*
X106120639Y-109823341D01*
X106149429Y-109893909D01*
X106177334Y-109946848D01*
X106195987Y-109983466D01*
X106195988Y-110642778D01*
X106181702Y-110669868D01*
X106153057Y-110722393D01*
X106149515Y-110730900D01*
X106120711Y-110801462D01*
X106103626Y-110858754D01*
X106085722Y-110915865D01*
X106083900Y-110924899D01*
X106069350Y-110999712D01*
X106063719Y-111059219D01*
X106057247Y-111118739D01*
X106057215Y-111127954D01*
X106057474Y-111204167D01*
X106063513Y-111263678D01*
X106068721Y-111323270D01*
X106070478Y-111332316D01*
X106085535Y-111407028D01*
X106103019Y-111464233D01*
X106119701Y-111521677D01*
X106123182Y-111530209D01*
X106152464Y-111600575D01*
X106180722Y-111653289D01*
X106208253Y-111706414D01*
X106213326Y-111714108D01*
X106255718Y-111777445D01*
X106293677Y-111823666D01*
X106330993Y-111870421D01*
X106337463Y-111876983D01*
X106391349Y-111930880D01*
X106437560Y-111968846D01*
X106483261Y-112007474D01*
X106490883Y-112012654D01*
X106554212Y-112055057D01*
X106606928Y-112083330D01*
X106659238Y-112112333D01*
X106667720Y-112115934D01*
X106738079Y-112145230D01*
X106795259Y-112162717D01*
X106852243Y-112181019D01*
X106861264Y-112182904D01*
X106935973Y-112197975D01*
X106995416Y-112204018D01*
X107054898Y-112210907D01*
X107064112Y-112211004D01*
X107140327Y-112211278D01*
X107199880Y-112205655D01*
X107245988Y-112201950D01*
X107245989Y-113542770D01*
X107231671Y-113569928D01*
X107203014Y-113622487D01*
X107199473Y-113630995D01*
X107170676Y-113701560D01*
X107153587Y-113758885D01*
X107135699Y-113815963D01*
X107133878Y-113824996D01*
X107119335Y-113899810D01*
X107113704Y-113959371D01*
X107107244Y-114018837D01*
X107107212Y-114028052D01*
X107107478Y-114104266D01*
X107113520Y-114163749D01*
X107118737Y-114223376D01*
X107120496Y-114232422D01*
X107135561Y-114307133D01*
X107153040Y-114364302D01*
X107169738Y-114421778D01*
X107173221Y-114430310D01*
X107202510Y-114500672D01*
X107230769Y-114553374D01*
X107258306Y-114606500D01*
X107263379Y-114614193D01*
X107305778Y-114677526D01*
X107343741Y-114723742D01*
X107381065Y-114770498D01*
X107387536Y-114777059D01*
X107441428Y-114830952D01*
X107487646Y-114868915D01*
X107533339Y-114907530D01*
X107540961Y-114912710D01*
X107604295Y-114955108D01*
X107657030Y-114983384D01*
X107709340Y-115012380D01*
X107717811Y-115015975D01*
X107717815Y-115015977D01*
X107717818Y-115015978D01*
X107717823Y-115015980D01*
X107788184Y-115045268D01*
X107845361Y-115062748D01*
X107902333Y-115081041D01*
X107911354Y-115082925D01*
X107986065Y-115097990D01*
X108045581Y-115104036D01*
X108105006Y-115110912D01*
X108114215Y-115111008D01*
X108114221Y-115111008D01*
X108190434Y-115111274D01*
X108249987Y-115105644D01*
X108309619Y-115100846D01*
X108318677Y-115099151D01*
X108393491Y-115084608D01*
X108450801Y-115067522D01*
X108508371Y-115051232D01*
X108516927Y-115047810D01*
X108587492Y-115019013D01*
X108640404Y-114991115D01*
X108656254Y-114983039D01*
X108663370Y-114986792D01*
X108715881Y-115015429D01*
X108724388Y-115018971D01*
X108794951Y-115047775D01*
X108852253Y-115064863D01*
X108909353Y-115082764D01*
X108918387Y-115084586D01*
X108993200Y-115099136D01*
X109052707Y-115104767D01*
X109112227Y-115111239D01*
X109121437Y-115111271D01*
X109121442Y-115111271D01*
X109197655Y-115111012D01*
X109257166Y-115104973D01*
X109316758Y-115099765D01*
X109325804Y-115098008D01*
X109400516Y-115082951D01*
X109457721Y-115065467D01*
X109515165Y-115048785D01*
X109523697Y-115045304D01*
X109594063Y-115016022D01*
X109646777Y-114987764D01*
X109699902Y-114960233D01*
X109707596Y-114955160D01*
X109770933Y-114912768D01*
X109817154Y-114874809D01*
X109863909Y-114837493D01*
X109870471Y-114831023D01*
X109924368Y-114777137D01*
X109962334Y-114730926D01*
X110000962Y-114685225D01*
X110006142Y-114677603D01*
X110048545Y-114614274D01*
X110076818Y-114561558D01*
X110105821Y-114509248D01*
X110109422Y-114500766D01*
X110138718Y-114430407D01*
X110156205Y-114373227D01*
X110174507Y-114316243D01*
X110176392Y-114307222D01*
X110191463Y-114232513D01*
X110197506Y-114173070D01*
X110204395Y-114113588D01*
X110204492Y-114104374D01*
X110204766Y-114028159D01*
X110199143Y-113968606D01*
X110194351Y-113908973D01*
X110192656Y-113899915D01*
X110178121Y-113825100D01*
X110161045Y-113767799D01*
X110144756Y-113710214D01*
X110141335Y-113701658D01*
X110112545Y-113631089D01*
X110084640Y-113578150D01*
X110065987Y-113541533D01*
X110065987Y-101182219D01*
X110080280Y-101155116D01*
X110108917Y-101102605D01*
X110112459Y-101094098D01*
X110141263Y-101023535D01*
X110158351Y-100966233D01*
X110176252Y-100909133D01*
X110178074Y-100900099D01*
X110192624Y-100825286D01*
X110198255Y-100765779D01*
X110204727Y-100706259D01*
X110204759Y-100697044D01*
X110204500Y-100620830D01*
X110198460Y-100561316D01*
X110193253Y-100501728D01*
X110191496Y-100492682D01*
X110176439Y-100417970D01*
X110158952Y-100360754D01*
X110142273Y-100303322D01*
X110138792Y-100294790D01*
X110109510Y-100224423D01*
X110081252Y-100171709D01*
X110053721Y-100118584D01*
X110048649Y-100110891D01*
X110006256Y-100047553D01*
X109968297Y-100001332D01*
X109930981Y-99954577D01*
X109924511Y-99948015D01*
X109870625Y-99894118D01*
X109824414Y-99856152D01*
X109778713Y-99817524D01*
X109771091Y-99812344D01*
X109707761Y-99769940D01*
X109655071Y-99741682D01*
X109602736Y-99712665D01*
X109594253Y-99709064D01*
X109523895Y-99679768D01*
X109466715Y-99662281D01*
X109409731Y-99643979D01*
X109400710Y-99642094D01*
X109326001Y-99627023D01*
X109266558Y-99620980D01*
X109207076Y-99614091D01*
X109197861Y-99613994D01*
X109121647Y-99613720D01*
X109062091Y-99619344D01*
X109002461Y-99624135D01*
X108993410Y-99625829D01*
X108993407Y-99625829D01*
X108993405Y-99625830D01*
X108993403Y-99625830D01*
X108918588Y-99640365D01*
X108861287Y-99657441D01*
X108803702Y-99673730D01*
X108795146Y-99677151D01*
X108724577Y-99705941D01*
X108671638Y-99733846D01*
X108655716Y-99741957D01*
X108648618Y-99738214D01*
X108596093Y-99709569D01*
X108587586Y-99706027D01*
X108517024Y-99677223D01*
X108459711Y-99660131D01*
X108402621Y-99642234D01*
X108393587Y-99640412D01*
X108318774Y-99625862D01*
X108259267Y-99620231D01*
X108199747Y-99613759D01*
X108190537Y-99613727D01*
X108190532Y-99613727D01*
X108114318Y-99613986D01*
X108054804Y-99620026D01*
X107995216Y-99625233D01*
X107986170Y-99626990D01*
X107911458Y-99642047D01*
X107854242Y-99659534D01*
X107796810Y-99676213D01*
X107788278Y-99679694D01*
X107717911Y-99708976D01*
X107665197Y-99737234D01*
X107612072Y-99764765D01*
X107604379Y-99769837D01*
X107541041Y-99812230D01*
X107494820Y-99850189D01*
X107448065Y-99887505D01*
X107441503Y-99893975D01*
X107387606Y-99947861D01*
X107349640Y-99994072D01*
X107311012Y-100039773D01*
X107305832Y-100047395D01*
X107263428Y-100110725D01*
X107235170Y-100163415D01*
X107206153Y-100215750D01*
X107202552Y-100224233D01*
X107173256Y-100294591D01*
X107155769Y-100351771D01*
X107137467Y-100408755D01*
X107135582Y-100417776D01*
X107120511Y-100492485D01*
X107114468Y-100551928D01*
X107107579Y-100611410D01*
X107107482Y-100620625D01*
X107107208Y-100696839D01*
X107112832Y-100756395D01*
X107117623Y-100816025D01*
X107119318Y-100825083D01*
X107133853Y-100899898D01*
X107150929Y-100957199D01*
X107167218Y-101014784D01*
X107170639Y-101023341D01*
X107199429Y-101093909D01*
X107227334Y-101146848D01*
X107240764Y-101173211D01*
X107209267Y-101170231D01*
X107149747Y-101163759D01*
X107140537Y-101163727D01*
X107140532Y-101163727D01*
X107064318Y-101163986D01*
X107004804Y-101170026D01*
X106945216Y-101175233D01*
X106936170Y-101176990D01*
X106861458Y-101192047D01*
X106804242Y-101209534D01*
X106746810Y-101226213D01*
X106738278Y-101229694D01*
X106667911Y-101258976D01*
X106615197Y-101287234D01*
X106562072Y-101314765D01*
X106554379Y-101319837D01*
X106491041Y-101362230D01*
X106444820Y-101400189D01*
X106398065Y-101437505D01*
X106391503Y-101443975D01*
X106337606Y-101497861D01*
X106299640Y-101544072D01*
X106261012Y-101589773D01*
X106255832Y-101597395D01*
X106213428Y-101660725D01*
X106185170Y-101713415D01*
X106156153Y-101765750D01*
X106152552Y-101774233D01*
X106123256Y-101844591D01*
X106105769Y-101901771D01*
X106087467Y-101958755D01*
X106085582Y-101967776D01*
X106070511Y-102042485D01*
X106064468Y-102101928D01*
X106057579Y-102161410D01*
X106057482Y-102170625D01*
X106057208Y-102246839D01*
X96812893Y-102246839D01*
X96568739Y-102046468D01*
X96284702Y-101894647D01*
X95976503Y-101801156D01*
X95781886Y-101781988D01*
X95913477Y-101755813D01*
X96167714Y-101650504D01*
X96396522Y-101497619D01*
X96591107Y-101303034D01*
X96743992Y-101074226D01*
X96849301Y-100819989D01*
X96902987Y-100550091D01*
X96902987Y-100274907D01*
X96849301Y-100005009D01*
X96743992Y-99750772D01*
X96591107Y-99521964D01*
X96396522Y-99327379D01*
X96167714Y-99174494D01*
X95913477Y-99069185D01*
X95643579Y-99015499D01*
X95368395Y-99015499D01*
X95098497Y-99069185D01*
X94844260Y-99174494D01*
X94615452Y-99327379D01*
X94505987Y-99436844D01*
X94396522Y-99327379D01*
X94167714Y-99174494D01*
X93913477Y-99069185D01*
X93643579Y-99015499D01*
X93368395Y-99015499D01*
X93098497Y-99069185D01*
X92844260Y-99174494D01*
X92615452Y-99327379D01*
X92420867Y-99521964D01*
X92267982Y-99750772D01*
X92162673Y-100005009D01*
X92108987Y-100274907D01*
X92108987Y-100550091D01*
X92162673Y-100819989D01*
X92267982Y-101074226D01*
X92420867Y-101303034D01*
X92615452Y-101497619D01*
X92844260Y-101650504D01*
X93098497Y-101755813D01*
X93368395Y-101809499D01*
X93643579Y-101809499D01*
X93913477Y-101755813D01*
X94167714Y-101650504D01*
X94396522Y-101497619D01*
X94505987Y-101388154D01*
X94615452Y-101497619D01*
X94844260Y-101650504D01*
X95098497Y-101755813D01*
X95207520Y-101777499D01*
X94575665Y-101777499D01*
X94335471Y-101801156D01*
X94027272Y-101894647D01*
X93743235Y-102046468D01*
X93494273Y-102250785D01*
X93289956Y-102499747D01*
X93138135Y-102783784D01*
X93044644Y-103091983D01*
X93013076Y-103412499D01*
X93044644Y-103733015D01*
X93138135Y-104041214D01*
X93289956Y-104325251D01*
X93494273Y-104574213D01*
X93626220Y-104682499D01*
X93494273Y-104790785D01*
X93289956Y-105039747D01*
X93138135Y-105323784D01*
X93044644Y-105631983D01*
X93013076Y-105952499D01*
X93044644Y-106273015D01*
X93138135Y-106581214D01*
X93289956Y-106865251D01*
X93494273Y-107114213D01*
X93626220Y-107222499D01*
X93494273Y-107330785D01*
X93289956Y-107579747D01*
X93138135Y-107863784D01*
X93044644Y-108171983D01*
X93013076Y-108492499D01*
X93044644Y-108813015D01*
X93138135Y-109121214D01*
X93247627Y-109326058D01*
X92819980Y-109753705D01*
X92790976Y-109777508D01*
X92735848Y-109844683D01*
X92696003Y-109893233D01*
X92679023Y-109925000D01*
X92625431Y-110025263D01*
X92581974Y-110168524D01*
X92570977Y-110280177D01*
X92570977Y-110280187D01*
X92567301Y-110317509D01*
X92570977Y-110354831D01*
X92570978Y-119819645D01*
X92567301Y-119856977D01*
X92581975Y-120005962D01*
X92625431Y-120149223D01*
X92696003Y-120281253D01*
X92767178Y-120367979D01*
X92790977Y-120396978D01*
X92819975Y-120420776D01*
X95803629Y-123404431D01*
X95778609Y-123444666D01*
X95734548Y-123561733D01*
X95714172Y-123685146D01*
X95718265Y-123810163D01*
X95734035Y-123877797D01*
X95458555Y-123823000D01*
X95166035Y-123823000D01*
X94879137Y-123880068D01*
X94608884Y-123992010D01*
X94365663Y-124154525D01*
X94158820Y-124361368D01*
X93996305Y-124604589D01*
X93884363Y-124874842D01*
X93827295Y-125161740D01*
X93827295Y-125269556D01*
X93816002Y-125262010D01*
X93545749Y-125150068D01*
X93258851Y-125093000D01*
X92966331Y-125093000D01*
X92679433Y-125150068D01*
X92409180Y-125262010D01*
X92165959Y-125424525D01*
X91959116Y-125631368D01*
X91796601Y-125874589D01*
X91684659Y-126144842D01*
X91627591Y-126431740D01*
X91627591Y-126539556D01*
X91616297Y-126532010D01*
X91346044Y-126420068D01*
X91059146Y-126363000D01*
X90766626Y-126363000D01*
X90479728Y-126420068D01*
X90209475Y-126532010D01*
X89966254Y-126694525D01*
X89759411Y-126901368D01*
X89596896Y-127144589D01*
X89484954Y-127414842D01*
X89427886Y-127701740D01*
X89427886Y-127809556D01*
X89416593Y-127802010D01*
X89146340Y-127690068D01*
X88859442Y-127633000D01*
X88566922Y-127633000D01*
X88280024Y-127690068D01*
X88009771Y-127802010D01*
X87766550Y-127964525D01*
X87559707Y-128171368D01*
X87397192Y-128414589D01*
X87285250Y-128684842D01*
X87228182Y-128971740D01*
X83801269Y-128971740D01*
X83780000Y-128716515D01*
X83780000Y-128412828D01*
X83846575Y-128079954D01*
X89578074Y-117456918D01*
X89592980Y-117435873D01*
X89610021Y-117397706D01*
X89613829Y-117390648D01*
X89623760Y-117366935D01*
X89634207Y-117343536D01*
X89636735Y-117335952D01*
X89652891Y-117297374D01*
X89658024Y-117272087D01*
X89835310Y-116740230D01*
X89850164Y-116706034D01*
X89863713Y-116643522D01*
X89877908Y-116581090D01*
X89878923Y-116543817D01*
X89943563Y-115985526D01*
X89945109Y-115980460D01*
X89951310Y-115918616D01*
X89954581Y-115890360D01*
X89954671Y-115885087D01*
X89955197Y-115879842D01*
X89955247Y-115851414D01*
X89956309Y-115789252D01*
X89955364Y-115784038D01*
X89984691Y-98977395D01*
X90005575Y-98879143D01*
X90006611Y-98869285D01*
X90018863Y-98744335D01*
X90035030Y-98690786D01*
X90061288Y-98641403D01*
X90096641Y-98598055D01*
X90139740Y-98562400D01*
X90188937Y-98535799D01*
X90242375Y-98519258D01*
X90330455Y-98510000D01*
X111029877Y-98510000D01*
X111060222Y-98507011D01*
X111066332Y-98507054D01*
X111076198Y-98506086D01*
X111270295Y-98485685D01*
X111333310Y-98472750D01*
X111396540Y-98460688D01*
X111406030Y-98457823D01*
X111592468Y-98400111D01*
X111651797Y-98375171D01*
X111711455Y-98351068D01*
X111720208Y-98346414D01*
X111891885Y-98253589D01*
X111945198Y-98217629D01*
X111999083Y-98182367D01*
X112006765Y-98176102D01*
X112157143Y-98051698D01*
X112202480Y-98006043D01*
X112248463Y-97961013D01*
X112254782Y-97953375D01*
X112378132Y-97802133D01*
X112413757Y-97748513D01*
X112450099Y-97695436D01*
X112454814Y-97686716D01*
X112546439Y-97514394D01*
X112570951Y-97454924D01*
X112596312Y-97395752D01*
X112599243Y-97386282D01*
X112655652Y-97199446D01*
X112668152Y-97136316D01*
X112681530Y-97073377D01*
X112682566Y-97063519D01*
X112701611Y-96869285D01*
X112705000Y-96834877D01*
X112705000Y-82545000D01*
X113781565Y-82545000D01*
X113785001Y-82579887D01*
X113785000Y-96510123D01*
X113781565Y-96545000D01*
X113795273Y-96684184D01*
X113835872Y-96818020D01*
X113901800Y-96941363D01*
X113990525Y-97049475D01*
X114069533Y-97114315D01*
X114098637Y-97138200D01*
X114221980Y-97204128D01*
X114355816Y-97244727D01*
X114495000Y-97258435D01*
X114529877Y-97255000D01*
X128460123Y-97255000D01*
X128495000Y-97258435D01*
X128529877Y-97255000D01*
X128534497Y-97254545D01*
X128349727Y-97531072D01*
X128124712Y-98074308D01*
X128010000Y-98651003D01*
X128010000Y-99238997D01*
X128124712Y-99815692D01*
X128349727Y-100358928D01*
X128676399Y-100847826D01*
X128691116Y-100862543D01*
X128634184Y-100845273D01*
X128529877Y-100835000D01*
X128495000Y-100831565D01*
X128460123Y-100835000D01*
X114529877Y-100835000D01*
X114495000Y-100831565D01*
X114460123Y-100835000D01*
X114355816Y-100845273D01*
X114221980Y-100885872D01*
X114098637Y-100951800D01*
X113990525Y-101040525D01*
X113901800Y-101148637D01*
X113835872Y-101271980D01*
X113795273Y-101405816D01*
X113781565Y-101545000D01*
X113785001Y-101579887D01*
X113785000Y-115510123D01*
X113781565Y-115545000D01*
X113795273Y-115684184D01*
X113835872Y-115818020D01*
X113901800Y-115941363D01*
X113990525Y-116049475D01*
X114090306Y-116131363D01*
X114098637Y-116138200D01*
X114221980Y-116204128D01*
X114355816Y-116244727D01*
X114495000Y-116258435D01*
X114529877Y-116255000D01*
X128460123Y-116255000D01*
X128495000Y-116258435D01*
X128529877Y-116255000D01*
X128634184Y-116244727D01*
X128768020Y-116204128D01*
X128891363Y-116138200D01*
X128999475Y-116049475D01*
X129088200Y-115941363D01*
X129154128Y-115818020D01*
X129179312Y-115735000D01*
X151881565Y-115735000D01*
X151885001Y-115769887D01*
X151885000Y-129700123D01*
X151881565Y-129735000D01*
X151895273Y-129874184D01*
X151935872Y-130008020D01*
X152001800Y-130131363D01*
X152090525Y-130239475D01*
X152198637Y-130328200D01*
X152321980Y-130394128D01*
X152455816Y-130434727D01*
X152595000Y-130448435D01*
X152629877Y-130445000D01*
X166560123Y-130445000D01*
X166595000Y-130448435D01*
X166629877Y-130445000D01*
X166734184Y-130434727D01*
X166868020Y-130394128D01*
X166991363Y-130328200D01*
X167099475Y-130239475D01*
X167188200Y-130131363D01*
X167254128Y-130008020D01*
X167294727Y-129874184D01*
X167308435Y-129735000D01*
X167305000Y-129700123D01*
X167305000Y-123049000D01*
X208972565Y-123049000D01*
X208976001Y-123083887D01*
X208976000Y-137014123D01*
X208972565Y-137049000D01*
X208986273Y-137188184D01*
X209026872Y-137322020D01*
X209092800Y-137445363D01*
X209181525Y-137553475D01*
X209228260Y-137591829D01*
X209289637Y-137642200D01*
X209412980Y-137708128D01*
X209546816Y-137748727D01*
X209686000Y-137762435D01*
X209720877Y-137759000D01*
X223651123Y-137759000D01*
X223686000Y-137762435D01*
X223720877Y-137759000D01*
X223825184Y-137748727D01*
X223959020Y-137708128D01*
X224082363Y-137642200D01*
X224190475Y-137553475D01*
X224279200Y-137445363D01*
X224345128Y-137322020D01*
X224385727Y-137188184D01*
X224399435Y-137049000D01*
X224396000Y-137014123D01*
X224396000Y-123083877D01*
X224399435Y-123049000D01*
X224385727Y-122909816D01*
X224345128Y-122775980D01*
X224279200Y-122652637D01*
X224190475Y-122544525D01*
X224082363Y-122455800D01*
X223959020Y-122389872D01*
X223825184Y-122349273D01*
X223720877Y-122339000D01*
X223686000Y-122335565D01*
X223651123Y-122339000D01*
X209720877Y-122339000D01*
X209686000Y-122335565D01*
X209651123Y-122339000D01*
X209546816Y-122349273D01*
X209412980Y-122389872D01*
X209289637Y-122455800D01*
X209181525Y-122544525D01*
X209092800Y-122652637D01*
X209026872Y-122775980D01*
X208986273Y-122909816D01*
X208972565Y-123049000D01*
X167305000Y-123049000D01*
X167305000Y-115769877D01*
X167308435Y-115735000D01*
X167294727Y-115595816D01*
X167254128Y-115461980D01*
X167188200Y-115338637D01*
X167099475Y-115230525D01*
X166991363Y-115141800D01*
X166868020Y-115075872D01*
X166734184Y-115035273D01*
X166629877Y-115025000D01*
X166595000Y-115021565D01*
X166560123Y-115025000D01*
X152629877Y-115025000D01*
X152595000Y-115021565D01*
X152560123Y-115025000D01*
X152455816Y-115035273D01*
X152321980Y-115075872D01*
X152198637Y-115141800D01*
X152090525Y-115230525D01*
X152001800Y-115338637D01*
X151935872Y-115461980D01*
X151895273Y-115595816D01*
X151881565Y-115735000D01*
X129179312Y-115735000D01*
X129194727Y-115684184D01*
X129208435Y-115545000D01*
X129205000Y-115510123D01*
X129205000Y-101579877D01*
X129208435Y-101545000D01*
X129194727Y-101405816D01*
X129166690Y-101313391D01*
X129581072Y-101590273D01*
X130124308Y-101815288D01*
X130701003Y-101930000D01*
X131288997Y-101930000D01*
X131865692Y-101815288D01*
X132408928Y-101590273D01*
X132785001Y-101338989D01*
X132785000Y-113110123D01*
X132781565Y-113145000D01*
X132795273Y-113284184D01*
X132835872Y-113418020D01*
X132901800Y-113541363D01*
X132990525Y-113649475D01*
X133075203Y-113718968D01*
X133098637Y-113738200D01*
X133221980Y-113804128D01*
X133355816Y-113844727D01*
X133495000Y-113858435D01*
X133529877Y-113855000D01*
X147460123Y-113855000D01*
X147495000Y-113858435D01*
X147529877Y-113855000D01*
X147628397Y-113845297D01*
X147634184Y-113844727D01*
X147768020Y-113804128D01*
X147891363Y-113738200D01*
X147999475Y-113649475D01*
X148088200Y-113541363D01*
X148154128Y-113418020D01*
X148194727Y-113284184D01*
X148205000Y-113179877D01*
X148205000Y-113179876D01*
X148208435Y-113145000D01*
X148205000Y-113110123D01*
X148205000Y-99179877D01*
X148208435Y-99145000D01*
X148194727Y-99005816D01*
X148154128Y-98871980D01*
X148088200Y-98748637D01*
X147999475Y-98640525D01*
X147891363Y-98551800D01*
X147768020Y-98485872D01*
X147634184Y-98445273D01*
X147529877Y-98435000D01*
X147495000Y-98431565D01*
X147460123Y-98435000D01*
X133937034Y-98435000D01*
X133865288Y-98074308D01*
X133640273Y-97531072D01*
X133313601Y-97042174D01*
X132897826Y-96626399D01*
X132408928Y-96299727D01*
X131865692Y-96074712D01*
X131288997Y-95960000D01*
X130701003Y-95960000D01*
X130124308Y-96074712D01*
X129581072Y-96299727D01*
X129208043Y-96548977D01*
X129208435Y-96545000D01*
X129205000Y-96510123D01*
X129205000Y-82579877D01*
X129208435Y-82545000D01*
X129194727Y-82405816D01*
X129154128Y-82271980D01*
X129088200Y-82148637D01*
X128999475Y-82040525D01*
X128891363Y-81951800D01*
X128768020Y-81885872D01*
X128634184Y-81845273D01*
X128529877Y-81835000D01*
X128495000Y-81831565D01*
X128460123Y-81835000D01*
X114529877Y-81835000D01*
X114495000Y-81831565D01*
X114460123Y-81835000D01*
X114355816Y-81845273D01*
X114221980Y-81885872D01*
X114098637Y-81951800D01*
X113990525Y-82040525D01*
X113901800Y-82148637D01*
X113835872Y-82271980D01*
X113795273Y-82405816D01*
X113781565Y-82545000D01*
X112705000Y-82545000D01*
X112705000Y-63545000D01*
X113781565Y-63545000D01*
X113785001Y-63579887D01*
X113785000Y-77510123D01*
X113781565Y-77545000D01*
X113795273Y-77684184D01*
X113835872Y-77818020D01*
X113901800Y-77941363D01*
X113990525Y-78049475D01*
X114098637Y-78138200D01*
X114221980Y-78204128D01*
X114355816Y-78244727D01*
X114495000Y-78258435D01*
X114529877Y-78255000D01*
X128460123Y-78255000D01*
X128495000Y-78258435D01*
X128529877Y-78255000D01*
X128634184Y-78244727D01*
X128768020Y-78204128D01*
X128891363Y-78138200D01*
X128999475Y-78049475D01*
X129088200Y-77941363D01*
X129154128Y-77818020D01*
X129194727Y-77684184D01*
X129208435Y-77545000D01*
X129205000Y-77510123D01*
X129205000Y-63579877D01*
X129208435Y-63545000D01*
X129194727Y-63405816D01*
X129154128Y-63271980D01*
X129088200Y-63148637D01*
X128999475Y-63040525D01*
X128891363Y-62951800D01*
X128773515Y-62888809D01*
X129490000Y-62888809D01*
X129490000Y-95311190D01*
X132460000Y-95311190D01*
X132460000Y-80045000D01*
X132781565Y-80045000D01*
X132785001Y-80079887D01*
X132785000Y-94010123D01*
X132781565Y-94045000D01*
X132795273Y-94184184D01*
X132835872Y-94318020D01*
X132901800Y-94441363D01*
X132990525Y-94549475D01*
X133098637Y-94638200D01*
X133221980Y-94704128D01*
X133355816Y-94744727D01*
X133495000Y-94758435D01*
X133529877Y-94755000D01*
X147460123Y-94755000D01*
X147495000Y-94758435D01*
X147529877Y-94755000D01*
X147634184Y-94744727D01*
X147768020Y-94704128D01*
X147891363Y-94638200D01*
X147999475Y-94549475D01*
X148088200Y-94441363D01*
X148154128Y-94318020D01*
X148194727Y-94184184D01*
X148208435Y-94045000D01*
X148205000Y-94010123D01*
X148205000Y-80079877D01*
X148208435Y-80045000D01*
X148194727Y-79905816D01*
X148154128Y-79771980D01*
X148088200Y-79648637D01*
X147999475Y-79540525D01*
X147891363Y-79451800D01*
X147768020Y-79385872D01*
X147634184Y-79345273D01*
X147529877Y-79335000D01*
X147495000Y-79331565D01*
X147460123Y-79335000D01*
X133529877Y-79335000D01*
X133495000Y-79331565D01*
X133460123Y-79335000D01*
X133355816Y-79345273D01*
X133221980Y-79385872D01*
X133098637Y-79451800D01*
X132990525Y-79540525D01*
X132901800Y-79648637D01*
X132835872Y-79771980D01*
X132795273Y-79905816D01*
X132781565Y-80045000D01*
X132460000Y-80045000D01*
X132460000Y-62888809D01*
X129490000Y-62888809D01*
X128773515Y-62888809D01*
X128768020Y-62885872D01*
X128634184Y-62845273D01*
X128529877Y-62835000D01*
X128495000Y-62831565D01*
X128460123Y-62835000D01*
X114529877Y-62835000D01*
X114495000Y-62831565D01*
X114460123Y-62835000D01*
X114355816Y-62845273D01*
X114221980Y-62885872D01*
X114098637Y-62951800D01*
X113990525Y-63040525D01*
X113901800Y-63148637D01*
X113835872Y-63271980D01*
X113795273Y-63405816D01*
X113781565Y-63545000D01*
X112705000Y-63545000D01*
X112705000Y-44445000D01*
X113781565Y-44445000D01*
X113785001Y-44479887D01*
X113785000Y-58410123D01*
X113781565Y-58445000D01*
X113795273Y-58584184D01*
X113835872Y-58718020D01*
X113901800Y-58841363D01*
X113990525Y-58949475D01*
X114098637Y-59038200D01*
X114221980Y-59104128D01*
X114355816Y-59144727D01*
X114495000Y-59158435D01*
X114529877Y-59155000D01*
X128092748Y-59155000D01*
X128124712Y-59315692D01*
X128349727Y-59858928D01*
X128676399Y-60347826D01*
X129092174Y-60763601D01*
X129581072Y-61090273D01*
X130124308Y-61315288D01*
X130701003Y-61430000D01*
X131288997Y-61430000D01*
X131865692Y-61315288D01*
X132408928Y-61090273D01*
X132823310Y-60813391D01*
X132795273Y-60905816D01*
X132781565Y-61045000D01*
X132785001Y-61079887D01*
X132785000Y-75010123D01*
X132781565Y-75045000D01*
X132795273Y-75184184D01*
X132835872Y-75318020D01*
X132901800Y-75441363D01*
X132990525Y-75549475D01*
X133025527Y-75578200D01*
X133098637Y-75638200D01*
X133221980Y-75704128D01*
X133355816Y-75744727D01*
X133495000Y-75758435D01*
X133529877Y-75755000D01*
X147460123Y-75755000D01*
X147495000Y-75758435D01*
X147529877Y-75755000D01*
X147634184Y-75744727D01*
X147768020Y-75704128D01*
X147891363Y-75638200D01*
X147999475Y-75549475D01*
X148088200Y-75441363D01*
X148154128Y-75318020D01*
X148194727Y-75184184D01*
X148208435Y-75045000D01*
X148205000Y-75010123D01*
X148205000Y-61837619D01*
X148702500Y-61837619D01*
X148702500Y-99162381D01*
X151622500Y-99162381D01*
X151622500Y-96635000D01*
X151881565Y-96635000D01*
X151885001Y-96669887D01*
X151885000Y-110600123D01*
X151881565Y-110635000D01*
X151895273Y-110774184D01*
X151935872Y-110908020D01*
X152001800Y-111031363D01*
X152090525Y-111139475D01*
X152190031Y-111221137D01*
X152198637Y-111228200D01*
X152321980Y-111294128D01*
X152455816Y-111334727D01*
X152595000Y-111348435D01*
X152629877Y-111345000D01*
X166560123Y-111345000D01*
X166595000Y-111348435D01*
X166629877Y-111345000D01*
X166682422Y-111339825D01*
X166734184Y-111334727D01*
X166868020Y-111294128D01*
X166991363Y-111228200D01*
X167099475Y-111139475D01*
X167188200Y-111031363D01*
X167254128Y-110908020D01*
X167294727Y-110774184D01*
X167305000Y-110669877D01*
X167305000Y-110669876D01*
X167308435Y-110635000D01*
X167305000Y-110600123D01*
X167305000Y-99145000D01*
X170881565Y-99145000D01*
X170885001Y-99179887D01*
X170885000Y-113110123D01*
X170881565Y-113145000D01*
X170895273Y-113284184D01*
X170935872Y-113418020D01*
X171001800Y-113541363D01*
X171090525Y-113649475D01*
X171175203Y-113718968D01*
X171198637Y-113738200D01*
X171321980Y-113804128D01*
X171455816Y-113844727D01*
X171595000Y-113858435D01*
X171629877Y-113855000D01*
X185560123Y-113855000D01*
X185595000Y-113858435D01*
X185629877Y-113855000D01*
X185728397Y-113845297D01*
X185734184Y-113844727D01*
X185868020Y-113804128D01*
X185991363Y-113738200D01*
X186099475Y-113649475D01*
X186188200Y-113541363D01*
X186254128Y-113418020D01*
X186294727Y-113284184D01*
X186305000Y-113179877D01*
X186305000Y-113179876D01*
X186308435Y-113145000D01*
X186305000Y-113110123D01*
X186305000Y-99179877D01*
X186308435Y-99145000D01*
X186294727Y-99005816D01*
X186254128Y-98871980D01*
X186188200Y-98748637D01*
X186099475Y-98640525D01*
X185991363Y-98551800D01*
X185868020Y-98485872D01*
X185734184Y-98445273D01*
X185629877Y-98435000D01*
X185595000Y-98431565D01*
X185560123Y-98435000D01*
X171629877Y-98435000D01*
X171595000Y-98431565D01*
X171560123Y-98435000D01*
X171455816Y-98445273D01*
X171321980Y-98485872D01*
X171198637Y-98551800D01*
X171090525Y-98640525D01*
X171001800Y-98748637D01*
X170935872Y-98871980D01*
X170895273Y-99005816D01*
X170881565Y-99145000D01*
X167305000Y-99145000D01*
X167305000Y-96669877D01*
X167308435Y-96635000D01*
X167294727Y-96495816D01*
X167254128Y-96361980D01*
X167188200Y-96238637D01*
X167099475Y-96130525D01*
X166991363Y-96041800D01*
X166868020Y-95975872D01*
X166734184Y-95935273D01*
X166629877Y-95925000D01*
X166595000Y-95921565D01*
X166560123Y-95925000D01*
X152629877Y-95925000D01*
X152595000Y-95921565D01*
X152560123Y-95925000D01*
X152455816Y-95935273D01*
X152321980Y-95975872D01*
X152198637Y-96041800D01*
X152090525Y-96130525D01*
X152001800Y-96238637D01*
X151935872Y-96361980D01*
X151895273Y-96495816D01*
X151881565Y-96635000D01*
X151622500Y-96635000D01*
X151622500Y-77635000D01*
X151881565Y-77635000D01*
X151885001Y-77669887D01*
X151885000Y-91600123D01*
X151881565Y-91635000D01*
X151895273Y-91774184D01*
X151935872Y-91908020D01*
X152001800Y-92031363D01*
X152090525Y-92139475D01*
X152198637Y-92228200D01*
X152321980Y-92294128D01*
X152455816Y-92334727D01*
X152595000Y-92348435D01*
X152629877Y-92345000D01*
X166560123Y-92345000D01*
X166595000Y-92348435D01*
X166629877Y-92345000D01*
X166734184Y-92334727D01*
X166868020Y-92294128D01*
X166991363Y-92228200D01*
X167099475Y-92139475D01*
X167188200Y-92031363D01*
X167254128Y-91908020D01*
X167294727Y-91774184D01*
X167308435Y-91635000D01*
X167305000Y-91600123D01*
X167305000Y-80045000D01*
X170881565Y-80045000D01*
X170885001Y-80079887D01*
X170885000Y-94010123D01*
X170881565Y-94045000D01*
X170895273Y-94184184D01*
X170935872Y-94318020D01*
X171001800Y-94441363D01*
X171090525Y-94549475D01*
X171198637Y-94638200D01*
X171321980Y-94704128D01*
X171455816Y-94744727D01*
X171595000Y-94758435D01*
X171629877Y-94755000D01*
X185560123Y-94755000D01*
X185595000Y-94758435D01*
X185629877Y-94755000D01*
X185734184Y-94744727D01*
X185868020Y-94704128D01*
X185991363Y-94638200D01*
X186099475Y-94549475D01*
X186188200Y-94441363D01*
X186254128Y-94318020D01*
X186294727Y-94184184D01*
X186308435Y-94045000D01*
X186305000Y-94010123D01*
X186305000Y-84945000D01*
X189981565Y-84945000D01*
X189985001Y-84979887D01*
X189985000Y-98910123D01*
X189981565Y-98945000D01*
X189995273Y-99084184D01*
X190035872Y-99218020D01*
X190101800Y-99341363D01*
X190190525Y-99449475D01*
X190298637Y-99538200D01*
X190421980Y-99604128D01*
X190555816Y-99644727D01*
X190695000Y-99658435D01*
X190729877Y-99655000D01*
X204601011Y-99655000D01*
X204349727Y-100031072D01*
X204124712Y-100574308D01*
X204010000Y-101151003D01*
X204010000Y-101738997D01*
X204124712Y-102315692D01*
X204349727Y-102858928D01*
X204601011Y-103235000D01*
X190729877Y-103235000D01*
X190695000Y-103231565D01*
X190660123Y-103235000D01*
X190555816Y-103245273D01*
X190421980Y-103285872D01*
X190298637Y-103351800D01*
X190190525Y-103440525D01*
X190101800Y-103548637D01*
X190035872Y-103671980D01*
X189995273Y-103805816D01*
X189981565Y-103945000D01*
X189985001Y-103979887D01*
X189985000Y-117910123D01*
X189981565Y-117945000D01*
X189995273Y-118084184D01*
X190035872Y-118218020D01*
X190101800Y-118341363D01*
X190190525Y-118449475D01*
X190298637Y-118538200D01*
X190421980Y-118604128D01*
X190555816Y-118644727D01*
X190695000Y-118658435D01*
X190729877Y-118655000D01*
X204660123Y-118655000D01*
X204695000Y-118658435D01*
X204729877Y-118655000D01*
X204834184Y-118644727D01*
X204968020Y-118604128D01*
X205091363Y-118538200D01*
X205199475Y-118449475D01*
X205288200Y-118341363D01*
X205354128Y-118218020D01*
X205394727Y-118084184D01*
X205408435Y-117945000D01*
X205405000Y-117910123D01*
X205405000Y-103979877D01*
X205405670Y-103973073D01*
X205581072Y-104090273D01*
X206124308Y-104315288D01*
X206701003Y-104430000D01*
X207288997Y-104430000D01*
X207865692Y-104315288D01*
X208408928Y-104090273D01*
X208626343Y-103945000D01*
X209031565Y-103945000D01*
X209035001Y-103979887D01*
X209035000Y-117910123D01*
X209031565Y-117945000D01*
X209045273Y-118084184D01*
X209085872Y-118218020D01*
X209151800Y-118341363D01*
X209240525Y-118449475D01*
X209348637Y-118538200D01*
X209471980Y-118604128D01*
X209605816Y-118644727D01*
X209745000Y-118658435D01*
X209779877Y-118655000D01*
X223710123Y-118655000D01*
X223745000Y-118658435D01*
X223779877Y-118655000D01*
X223884184Y-118644727D01*
X224018020Y-118604128D01*
X224141363Y-118538200D01*
X224249475Y-118449475D01*
X224338200Y-118341363D01*
X224404128Y-118218020D01*
X224444727Y-118084184D01*
X224458435Y-117945000D01*
X224455000Y-117910123D01*
X224455000Y-103979877D01*
X224458435Y-103945000D01*
X224444727Y-103805816D01*
X224404128Y-103671980D01*
X224338200Y-103548637D01*
X224249475Y-103440525D01*
X224141363Y-103351800D01*
X224018020Y-103285872D01*
X223884184Y-103245273D01*
X223779877Y-103235000D01*
X223745000Y-103231565D01*
X223710123Y-103235000D01*
X209779877Y-103235000D01*
X209745000Y-103231565D01*
X209710123Y-103235000D01*
X209605816Y-103245273D01*
X209471980Y-103285872D01*
X209348637Y-103351800D01*
X209240525Y-103440525D01*
X209151800Y-103548637D01*
X209085872Y-103671980D01*
X209045273Y-103805816D01*
X209031565Y-103945000D01*
X208626343Y-103945000D01*
X208897826Y-103763601D01*
X209313601Y-103347826D01*
X209640273Y-102858928D01*
X209865288Y-102315692D01*
X209980000Y-101738997D01*
X209980000Y-101151003D01*
X209865288Y-100574308D01*
X209640273Y-100031072D01*
X209317784Y-99548434D01*
X209421980Y-99604128D01*
X209555816Y-99644727D01*
X209695000Y-99658435D01*
X209729877Y-99655000D01*
X223660123Y-99655000D01*
X223695000Y-99658435D01*
X223729877Y-99655000D01*
X223834184Y-99644727D01*
X223968020Y-99604128D01*
X224091363Y-99538200D01*
X224199475Y-99449475D01*
X224288200Y-99341363D01*
X224354128Y-99218020D01*
X224394727Y-99084184D01*
X224408435Y-98945000D01*
X224405000Y-98910123D01*
X224405000Y-84979877D01*
X224408435Y-84945000D01*
X224394727Y-84805816D01*
X224354128Y-84671980D01*
X224288200Y-84548637D01*
X224199475Y-84440525D01*
X224091363Y-84351800D01*
X223968020Y-84285872D01*
X223834184Y-84245273D01*
X223729877Y-84235000D01*
X223695000Y-84231565D01*
X223660123Y-84235000D01*
X209729877Y-84235000D01*
X209695000Y-84231565D01*
X209660123Y-84235000D01*
X209555816Y-84245273D01*
X209421980Y-84285872D01*
X209298637Y-84351800D01*
X209190525Y-84440525D01*
X209101800Y-84548637D01*
X209035872Y-84671980D01*
X208995273Y-84805816D01*
X208981565Y-84945000D01*
X208985001Y-84979887D01*
X208985000Y-98910123D01*
X208981565Y-98945000D01*
X208995273Y-99084184D01*
X209035872Y-99218020D01*
X209089180Y-99317753D01*
X208897826Y-99126399D01*
X208408928Y-98799727D01*
X207865692Y-98574712D01*
X207288997Y-98460000D01*
X206701003Y-98460000D01*
X206124308Y-98574712D01*
X205581072Y-98799727D01*
X205405670Y-98916927D01*
X205405000Y-98910123D01*
X205405000Y-84979877D01*
X205408435Y-84945000D01*
X205394727Y-84805816D01*
X205354128Y-84671980D01*
X205288200Y-84548637D01*
X205199475Y-84440525D01*
X205091363Y-84351800D01*
X204968020Y-84285872D01*
X204834184Y-84245273D01*
X204729877Y-84235000D01*
X204695000Y-84231565D01*
X204660123Y-84235000D01*
X190729877Y-84235000D01*
X190695000Y-84231565D01*
X190660123Y-84235000D01*
X190555816Y-84245273D01*
X190421980Y-84285872D01*
X190298637Y-84351800D01*
X190190525Y-84440525D01*
X190101800Y-84548637D01*
X190035872Y-84671980D01*
X189995273Y-84805816D01*
X189981565Y-84945000D01*
X186305000Y-84945000D01*
X186305000Y-80079877D01*
X186308435Y-80045000D01*
X186294727Y-79905816D01*
X186254128Y-79771980D01*
X186188200Y-79648637D01*
X186099475Y-79540525D01*
X185991363Y-79451800D01*
X185868020Y-79385872D01*
X185734184Y-79345273D01*
X185629877Y-79335000D01*
X185595000Y-79331565D01*
X185560123Y-79335000D01*
X171629877Y-79335000D01*
X171595000Y-79331565D01*
X171560123Y-79335000D01*
X171455816Y-79345273D01*
X171321980Y-79385872D01*
X171198637Y-79451800D01*
X171090525Y-79540525D01*
X171001800Y-79648637D01*
X170935872Y-79771980D01*
X170895273Y-79905816D01*
X170881565Y-80045000D01*
X167305000Y-80045000D01*
X167305000Y-77669877D01*
X167308435Y-77635000D01*
X167294727Y-77495816D01*
X167254128Y-77361980D01*
X167188200Y-77238637D01*
X167099475Y-77130525D01*
X166991363Y-77041800D01*
X166868020Y-76975872D01*
X166734184Y-76935273D01*
X166629877Y-76925000D01*
X166595000Y-76921565D01*
X166560123Y-76925000D01*
X152629877Y-76925000D01*
X152595000Y-76921565D01*
X152560123Y-76925000D01*
X152455816Y-76935273D01*
X152321980Y-76975872D01*
X152198637Y-77041800D01*
X152090525Y-77130525D01*
X152001800Y-77238637D01*
X151935872Y-77361980D01*
X151895273Y-77495816D01*
X151881565Y-77635000D01*
X151622500Y-77635000D01*
X151622500Y-61837619D01*
X148702500Y-61837619D01*
X148205000Y-61837619D01*
X148205000Y-61079877D01*
X148208435Y-61045000D01*
X148194727Y-60905816D01*
X148154128Y-60771980D01*
X148088200Y-60648637D01*
X147999475Y-60540525D01*
X147891363Y-60451800D01*
X147768020Y-60385872D01*
X147634184Y-60345273D01*
X147529877Y-60335000D01*
X147495000Y-60331565D01*
X147460123Y-60335000D01*
X133529877Y-60335000D01*
X133495000Y-60331565D01*
X133460123Y-60335000D01*
X133355816Y-60345273D01*
X133298884Y-60362543D01*
X133313601Y-60347826D01*
X133640273Y-59858928D01*
X133865288Y-59315692D01*
X133980000Y-58738997D01*
X133980000Y-58535000D01*
X151881565Y-58535000D01*
X151885001Y-58569887D01*
X151885000Y-72500123D01*
X151881565Y-72535000D01*
X151895273Y-72674184D01*
X151935872Y-72808020D01*
X152001800Y-72931363D01*
X152090525Y-73039475D01*
X152198637Y-73128200D01*
X152321980Y-73194128D01*
X152455816Y-73234727D01*
X152595000Y-73248435D01*
X152629877Y-73245000D01*
X166560123Y-73245000D01*
X166595000Y-73248435D01*
X166629877Y-73245000D01*
X166734184Y-73234727D01*
X166868020Y-73194128D01*
X166991363Y-73128200D01*
X167099475Y-73039475D01*
X167188200Y-72931363D01*
X167254128Y-72808020D01*
X167294727Y-72674184D01*
X167308435Y-72535000D01*
X167305000Y-72500123D01*
X167305000Y-60985000D01*
X170881565Y-60985000D01*
X170885001Y-61019887D01*
X170885000Y-74950123D01*
X170881565Y-74985000D01*
X170895273Y-75124184D01*
X170935872Y-75258020D01*
X171001800Y-75381363D01*
X171090525Y-75489475D01*
X171198637Y-75578200D01*
X171321980Y-75644128D01*
X171455816Y-75684727D01*
X171595000Y-75698435D01*
X171629877Y-75695000D01*
X185560123Y-75695000D01*
X185595000Y-75698435D01*
X185629877Y-75695000D01*
X185734184Y-75684727D01*
X185868020Y-75644128D01*
X185991363Y-75578200D01*
X186099475Y-75489475D01*
X186188200Y-75381363D01*
X186254128Y-75258020D01*
X186294727Y-75124184D01*
X186308435Y-74985000D01*
X186305000Y-74950123D01*
X186305000Y-61019877D01*
X186308435Y-60985000D01*
X186294727Y-60845816D01*
X186254128Y-60711980D01*
X186188200Y-60588637D01*
X186099475Y-60480525D01*
X185991363Y-60391800D01*
X185868020Y-60325872D01*
X185734184Y-60285273D01*
X185629877Y-60275000D01*
X185595000Y-60271565D01*
X185560123Y-60275000D01*
X171629877Y-60275000D01*
X171595000Y-60271565D01*
X171560123Y-60275000D01*
X171455816Y-60285273D01*
X171321980Y-60325872D01*
X171198637Y-60391800D01*
X171090525Y-60480525D01*
X171001800Y-60588637D01*
X170935872Y-60711980D01*
X170895273Y-60845816D01*
X170881565Y-60985000D01*
X167305000Y-60985000D01*
X167305000Y-58569877D01*
X167308435Y-58535000D01*
X167294727Y-58395816D01*
X167254128Y-58261980D01*
X167188200Y-58138637D01*
X167099475Y-58030525D01*
X166991363Y-57941800D01*
X166868020Y-57875872D01*
X166734184Y-57835273D01*
X166629877Y-57825000D01*
X166595000Y-57821565D01*
X166560123Y-57825000D01*
X152629877Y-57825000D01*
X152595000Y-57821565D01*
X152560123Y-57825000D01*
X152455816Y-57835273D01*
X152321980Y-57875872D01*
X152198637Y-57941800D01*
X152090525Y-58030525D01*
X152001800Y-58138637D01*
X151935872Y-58261980D01*
X151895273Y-58395816D01*
X151881565Y-58535000D01*
X133980000Y-58535000D01*
X133980000Y-58151003D01*
X133865288Y-57574308D01*
X133640273Y-57031072D01*
X133383978Y-56647501D01*
X133495000Y-56658435D01*
X133529877Y-56655000D01*
X147460123Y-56655000D01*
X147495000Y-56658435D01*
X147529877Y-56655000D01*
X147634184Y-56644727D01*
X147768020Y-56604128D01*
X147891363Y-56538200D01*
X147999475Y-56449475D01*
X148088200Y-56341363D01*
X148154128Y-56218020D01*
X148194727Y-56084184D01*
X148208435Y-55945000D01*
X148205000Y-55910123D01*
X148205000Y-41979877D01*
X148208435Y-41945000D01*
X148194727Y-41805816D01*
X148154128Y-41671980D01*
X148088200Y-41548637D01*
X147999475Y-41440525D01*
X147891363Y-41351800D01*
X147768020Y-41285872D01*
X147634184Y-41245273D01*
X147529877Y-41235000D01*
X147495000Y-41231565D01*
X147460123Y-41235000D01*
X133529877Y-41235000D01*
X133495000Y-41231565D01*
X133460123Y-41235000D01*
X133355816Y-41245273D01*
X133221980Y-41285872D01*
X133098637Y-41351800D01*
X132990525Y-41440525D01*
X132901800Y-41548637D01*
X132835872Y-41671980D01*
X132795273Y-41805816D01*
X132781565Y-41945000D01*
X132785001Y-41979887D01*
X132785000Y-55910123D01*
X132781565Y-55945000D01*
X132792499Y-56056022D01*
X132408928Y-55799727D01*
X131865692Y-55574712D01*
X131288997Y-55460000D01*
X130701003Y-55460000D01*
X130124308Y-55574712D01*
X129581072Y-55799727D01*
X129205000Y-56051011D01*
X129205000Y-44479877D01*
X129208435Y-44445000D01*
X129194727Y-44305816D01*
X129154128Y-44171980D01*
X129088200Y-44048637D01*
X128999475Y-43940525D01*
X128891363Y-43851800D01*
X128768020Y-43785872D01*
X128634184Y-43745273D01*
X128529877Y-43735000D01*
X128495000Y-43731565D01*
X128460123Y-43735000D01*
X114529877Y-43735000D01*
X114495000Y-43731565D01*
X114460123Y-43735000D01*
X114355816Y-43745273D01*
X114221980Y-43785872D01*
X114098637Y-43851800D01*
X113990525Y-43940525D01*
X113901800Y-44048637D01*
X113835872Y-44171980D01*
X113795273Y-44305816D01*
X113781565Y-44445000D01*
X112705000Y-44445000D01*
X112705000Y-39445000D01*
X151881565Y-39445000D01*
X151885001Y-39479887D01*
X151885000Y-53410123D01*
X151881565Y-53445000D01*
X151895273Y-53584184D01*
X151935872Y-53718020D01*
X152001800Y-53841363D01*
X152090525Y-53949475D01*
X152198637Y-54038200D01*
X152321980Y-54104128D01*
X152455816Y-54144727D01*
X152595000Y-54158435D01*
X152629877Y-54155000D01*
X166560123Y-54155000D01*
X166595000Y-54158435D01*
X166629877Y-54155000D01*
X166734184Y-54144727D01*
X166868020Y-54104128D01*
X166991363Y-54038200D01*
X167099475Y-53949475D01*
X167188200Y-53841363D01*
X167254128Y-53718020D01*
X167294727Y-53584184D01*
X167308435Y-53445000D01*
X167305000Y-53410123D01*
X167305000Y-41985000D01*
X170881565Y-41985000D01*
X170885001Y-42019887D01*
X170885000Y-55950123D01*
X170881565Y-55985000D01*
X170895273Y-56124184D01*
X170935872Y-56258020D01*
X171001800Y-56381363D01*
X171090525Y-56489475D01*
X171198637Y-56578200D01*
X171321980Y-56644128D01*
X171455816Y-56684727D01*
X171595000Y-56698435D01*
X171629877Y-56695000D01*
X185560123Y-56695000D01*
X185595000Y-56698435D01*
X185629877Y-56695000D01*
X185734184Y-56684727D01*
X185868020Y-56644128D01*
X185991363Y-56578200D01*
X186099475Y-56489475D01*
X186188200Y-56381363D01*
X186254128Y-56258020D01*
X186294727Y-56124184D01*
X186308435Y-55985000D01*
X186305000Y-55950123D01*
X186305000Y-46845000D01*
X189981565Y-46845000D01*
X189985001Y-46879887D01*
X189985000Y-60810123D01*
X189981565Y-60845000D01*
X189995273Y-60984184D01*
X190035872Y-61118020D01*
X190101800Y-61241363D01*
X190190525Y-61349475D01*
X190288645Y-61430000D01*
X190298637Y-61438200D01*
X190421980Y-61504128D01*
X190555816Y-61544727D01*
X190695000Y-61558435D01*
X190729877Y-61555000D01*
X204339816Y-61555000D01*
X204124712Y-62074308D01*
X204010000Y-62651003D01*
X204010000Y-63238997D01*
X204124712Y-63815692D01*
X204349727Y-64358928D01*
X204676399Y-64847826D01*
X204891116Y-65062543D01*
X204834184Y-65045273D01*
X204729877Y-65035000D01*
X204695000Y-65031565D01*
X204660123Y-65035000D01*
X190729877Y-65035000D01*
X190695000Y-65031565D01*
X190660123Y-65035000D01*
X190555816Y-65045273D01*
X190421980Y-65085872D01*
X190298637Y-65151800D01*
X190190525Y-65240525D01*
X190101800Y-65348637D01*
X190035872Y-65471980D01*
X189995273Y-65605816D01*
X189981565Y-65745000D01*
X189985001Y-65779887D01*
X189985000Y-79710123D01*
X189981565Y-79745000D01*
X189995273Y-79884184D01*
X190035872Y-80018020D01*
X190101800Y-80141363D01*
X190190525Y-80249475D01*
X190274048Y-80318020D01*
X190298637Y-80338200D01*
X190421980Y-80404128D01*
X190555816Y-80444727D01*
X190695000Y-80458435D01*
X190729877Y-80455000D01*
X204660123Y-80455000D01*
X204695000Y-80458435D01*
X204729877Y-80455000D01*
X204834184Y-80444727D01*
X204968020Y-80404128D01*
X205091363Y-80338200D01*
X205199475Y-80249475D01*
X205288200Y-80141363D01*
X205354128Y-80018020D01*
X205394727Y-79884184D01*
X205408435Y-79745000D01*
X205405000Y-79710123D01*
X205405000Y-65779877D01*
X205408435Y-65745000D01*
X205394727Y-65605816D01*
X205354128Y-65471980D01*
X205326401Y-65420107D01*
X205581072Y-65590273D01*
X206124308Y-65815288D01*
X206701003Y-65930000D01*
X207288997Y-65930000D01*
X207865692Y-65815288D01*
X208035382Y-65745000D01*
X208981565Y-65745000D01*
X208985001Y-65779887D01*
X208985000Y-79710123D01*
X208981565Y-79745000D01*
X208995273Y-79884184D01*
X209035872Y-80018020D01*
X209101800Y-80141363D01*
X209190525Y-80249475D01*
X209274048Y-80318020D01*
X209298637Y-80338200D01*
X209421980Y-80404128D01*
X209555816Y-80444727D01*
X209695000Y-80458435D01*
X209729877Y-80455000D01*
X223660123Y-80455000D01*
X223695000Y-80458435D01*
X223729877Y-80455000D01*
X223834184Y-80444727D01*
X223968020Y-80404128D01*
X224091363Y-80338200D01*
X224199475Y-80249475D01*
X224288200Y-80141363D01*
X224354128Y-80018020D01*
X224394727Y-79884184D01*
X224408435Y-79745000D01*
X224405000Y-79710123D01*
X224405000Y-65779877D01*
X224408435Y-65745000D01*
X224394727Y-65605816D01*
X224354128Y-65471980D01*
X224288200Y-65348637D01*
X224199475Y-65240525D01*
X224091363Y-65151800D01*
X223968020Y-65085872D01*
X223834184Y-65045273D01*
X223729877Y-65035000D01*
X223695000Y-65031565D01*
X223660123Y-65035000D01*
X209729877Y-65035000D01*
X209695000Y-65031565D01*
X209660123Y-65035000D01*
X209555816Y-65045273D01*
X209421980Y-65085872D01*
X209298637Y-65151800D01*
X209190525Y-65240525D01*
X209101800Y-65348637D01*
X209035872Y-65471980D01*
X208995273Y-65605816D01*
X208981565Y-65745000D01*
X208035382Y-65745000D01*
X208408928Y-65590273D01*
X208897826Y-65263601D01*
X209313601Y-64847826D01*
X209640273Y-64358928D01*
X209865288Y-63815692D01*
X209980000Y-63238997D01*
X209980000Y-62651003D01*
X209865288Y-62074308D01*
X209649762Y-61553980D01*
X209695000Y-61558435D01*
X209729877Y-61555000D01*
X223660123Y-61555000D01*
X223695000Y-61558435D01*
X223729877Y-61555000D01*
X223834184Y-61544727D01*
X223968020Y-61504128D01*
X224091363Y-61438200D01*
X224199475Y-61349475D01*
X224288200Y-61241363D01*
X224354128Y-61118020D01*
X224394727Y-60984184D01*
X224408435Y-60845000D01*
X224405000Y-60810123D01*
X224405000Y-46879877D01*
X224408435Y-46845000D01*
X224394727Y-46705816D01*
X224354128Y-46571980D01*
X224288200Y-46448637D01*
X224199475Y-46340525D01*
X224091363Y-46251800D01*
X223968020Y-46185872D01*
X223834184Y-46145273D01*
X223729877Y-46135000D01*
X223695000Y-46131565D01*
X223660123Y-46135000D01*
X209729877Y-46135000D01*
X209695000Y-46131565D01*
X209660123Y-46135000D01*
X209555816Y-46145273D01*
X209421980Y-46185872D01*
X209298637Y-46251800D01*
X209190525Y-46340525D01*
X209101800Y-46448637D01*
X209035872Y-46571980D01*
X208995273Y-46705816D01*
X208981565Y-46845000D01*
X208985001Y-46879887D01*
X208985000Y-60713573D01*
X208897826Y-60626399D01*
X208408928Y-60299727D01*
X207865692Y-60074712D01*
X207288997Y-59960000D01*
X206701003Y-59960000D01*
X206124308Y-60074712D01*
X205581072Y-60299727D01*
X205405000Y-60417375D01*
X205405000Y-46879877D01*
X205408435Y-46845000D01*
X205394727Y-46705816D01*
X205354128Y-46571980D01*
X205288200Y-46448637D01*
X205199475Y-46340525D01*
X205091363Y-46251800D01*
X204968020Y-46185872D01*
X204834184Y-46145273D01*
X204729877Y-46135000D01*
X204695000Y-46131565D01*
X204660123Y-46135000D01*
X190729877Y-46135000D01*
X190695000Y-46131565D01*
X190660123Y-46135000D01*
X190555816Y-46145273D01*
X190421980Y-46185872D01*
X190298637Y-46251800D01*
X190190525Y-46340525D01*
X190101800Y-46448637D01*
X190035872Y-46571980D01*
X189995273Y-46705816D01*
X189981565Y-46845000D01*
X186305000Y-46845000D01*
X186305000Y-42019877D01*
X186308435Y-41985000D01*
X186294727Y-41845816D01*
X186254128Y-41711980D01*
X186188200Y-41588637D01*
X186099475Y-41480525D01*
X185991363Y-41391800D01*
X185868020Y-41325872D01*
X185734184Y-41285273D01*
X185629877Y-41275000D01*
X185595000Y-41271565D01*
X185560123Y-41275000D01*
X171629877Y-41275000D01*
X171595000Y-41271565D01*
X171560123Y-41275000D01*
X171455816Y-41285273D01*
X171321980Y-41325872D01*
X171198637Y-41391800D01*
X171090525Y-41480525D01*
X171001800Y-41588637D01*
X170935872Y-41711980D01*
X170895273Y-41845816D01*
X170881565Y-41985000D01*
X167305000Y-41985000D01*
X167305000Y-39479877D01*
X167308435Y-39445000D01*
X167294727Y-39305816D01*
X167254128Y-39171980D01*
X167188200Y-39048637D01*
X167099475Y-38940525D01*
X166991363Y-38851800D01*
X166868020Y-38785872D01*
X166734184Y-38745273D01*
X166629877Y-38735000D01*
X166595000Y-38731565D01*
X166560123Y-38735000D01*
X152629877Y-38735000D01*
X152595000Y-38731565D01*
X152560123Y-38735000D01*
X152455816Y-38745273D01*
X152321980Y-38785872D01*
X152198637Y-38851800D01*
X152090525Y-38940525D01*
X152001800Y-39048637D01*
X151935872Y-39171980D01*
X151895273Y-39305816D01*
X151881565Y-39445000D01*
X112705000Y-39445000D01*
X112705000Y-39145821D01*
X112746463Y-39002775D01*
X112846756Y-38852335D01*
X112915575Y-38783516D01*
X112967387Y-38757610D01*
X113193645Y-38682190D01*
X113601036Y-38580342D01*
X113610460Y-38576975D01*
X150008615Y-37130000D01*
X171891299Y-37130000D01*
X225331807Y-45561746D01*
G37*
G04 #@! TD.AperFunction*
D18*
X94120468Y-112578622D02*
X94090977Y-112608113D01*
X94090977Y-112569676D01*
X94120468Y-112578622D01*
G04 #@! TA.AperFunction,NonConductor*
D19*
G36*
X94120468Y-112578622D02*
G01*
X94090977Y-112608113D01*
X94090977Y-112569676D01*
X94120468Y-112578622D01*
G37*
G04 #@! TD.AperFunction*
M02*
