M48
; DRILL file {KiCad (6.0.2-0)} date Saturday, February 19, 2022 at 09:10:48 AM
; FORMAT={-:-/ absolute / metric / decimal}
; #@! TF.CreationDate,2022-02-19T09:10:48+00:00
; #@! TF.GenerationSoftware,Kicad,Pcbnew,(6.0.2-0)
; #@! TF.FileFunction,Plated,1,2,PTH
FMAT,2
METRIC
; #@! TA.AperFunction,Plated,PTH,ViaDrill
T1C0.300
; #@! TA.AperFunction,Plated,PTH,ViaDrill
T2C0.400
; #@! TA.AperFunction,Plated,PTH,ComponentDrill
T3C0.813
; #@! TA.AperFunction,Plated,PTH,ComponentDrill
T4C1.000
; #@! TA.AperFunction,Plated,PTH,ComponentDrill
T5C1.300
; #@! TA.AperFunction,Plated,PTH,ComponentDrill
T6C2.200
; #@! TA.AperFunction,Plated,PTH,ComponentDrill
T7C4.100
%
G90
G05
T1
X81.733Y-135.013
X82.114Y-135.673
X82.55Y-78.994
X84.292Y-51.572
X85.598Y-82.55
X87.675Y-73.437
X87.834Y-78.232
X88.646Y-53.81
X88.646Y-72.256
X88.697Y-115.24
X89.92Y-47.386
X91.328Y-72.756
X93.584Y-52.466
X93.726Y-74.168
X94.234Y-73.406
X95.034Y-56.35
X95.25Y-51.054
X95.646Y-55.006
X96.171Y-57.546
X96.266Y-74.168
X97.536Y-84.074
X108.087Y-138.427
X108.204Y-60.706
X108.712Y-84.836
X108.823Y-138.23
X109.22Y-59.182
X109.22Y-78.232
X109.22Y-97.282
X109.22Y-116.332
X109.982Y-59.182
X109.982Y-78.232
X109.982Y-97.282
X109.982Y-116.332
X116.84Y-63.754
X117.094Y-67.564
X118.11Y-128.27
X119.888Y-120.65
X119.888Y-124.206
X122.174Y-45.72
X122.174Y-49.276
X122.174Y-64.77
X122.174Y-68.326
X122.174Y-83.82
X122.174Y-87.376
X122.174Y-102.87
X122.174Y-106.426
X122.174Y-120.65
X122.174Y-124.206
X124.46Y-45.72
X124.46Y-49.276
X124.46Y-64.77
X124.46Y-68.326
X124.46Y-83.82
X124.46Y-87.376
X124.46Y-102.87
X124.46Y-106.426
X124.46Y-120.65
X124.46Y-124.206
X128.27Y-56.642
X128.27Y-75.692
X128.27Y-94.742
X128.27Y-113.792
X128.27Y-132.842
X129.032Y-56.642
X129.032Y-75.692
X129.032Y-94.742
X129.032Y-113.792
X129.032Y-132.842
X129.794Y-61.468
X129.794Y-124.46
X136.525Y-104.013
X137.287Y-122.428
X141.224Y-64.389
X141.224Y-117.856
X141.224Y-121.412
X143.508Y-117.858
X143.511Y-121.41
X147.32Y-54.102
X147.32Y-73.152
X147.32Y-92.202
X147.32Y-111.252
X147.32Y-130.302
X148.082Y-54.102
X148.082Y-73.152
X148.082Y-92.202
X148.082Y-111.252
X148.082Y-130.302
X160.274Y-43.434
X160.274Y-46.99
X160.274Y-62.484
X160.274Y-66.04
X160.274Y-81.534
X160.274Y-85.09
X160.274Y-100.584
X160.274Y-104.14
X162.56Y-43.434
X162.56Y-46.99
X162.56Y-62.484
X162.56Y-66.04
X162.56Y-81.534
X162.56Y-85.09
X162.56Y-100.584
X162.56Y-104.14
X166.37Y-56.642
X166.37Y-75.692
X166.37Y-94.742
X166.37Y-113.792
X167.132Y-56.642
X167.132Y-75.692
X167.132Y-94.742
X167.132Y-113.792
X174.689Y-65.215
X180.792Y-114.767
X184.023Y-52.133
X185.42Y-61.468
X185.42Y-80.518
X185.42Y-99.568
X185.42Y-118.618
X186.182Y-61.468
X186.182Y-80.518
X186.182Y-99.568
X186.182Y-118.618
X198.374Y-51.054
X198.374Y-54.61
X198.374Y-70.104
X198.374Y-73.66
X198.374Y-89.154
X198.374Y-92.71
X198.374Y-108.204
X198.374Y-111.76
X200.66Y-51.054
X200.66Y-70.104
X200.66Y-73.66
X200.66Y-89.154
X200.66Y-92.71
X200.66Y-108.204
X200.66Y-111.76
X200.66Y-127.0
X200.661Y-54.608
X200.661Y-130.554
X204.47Y-80.518
X204.47Y-99.568
X204.47Y-118.618
X204.47Y-137.668
X204.577Y-61.555
X205.232Y-61.468
X205.232Y-80.518
X205.232Y-99.568
X205.232Y-118.618
X205.232Y-137.668
T2
X99.06Y-43.688
X99.06Y-46.228
X99.06Y-53.848
X99.06Y-56.388
X99.06Y-58.928
X99.06Y-61.468
X99.06Y-64.008
X99.06Y-66.548
X99.06Y-69.088
X99.06Y-71.628
T3
X85.414Y-43.65
X85.414Y-46.19
X85.414Y-48.73
X85.414Y-51.27
X85.414Y-53.81
X85.414Y-56.35
X85.414Y-58.89
X85.414Y-61.43
X85.414Y-63.97
X85.414Y-66.51
X85.414Y-69.05
X85.414Y-71.59
X86.713Y-44.846
X86.713Y-47.386
X86.713Y-49.926
X86.713Y-52.466
X86.713Y-55.006
X86.713Y-57.546
X86.713Y-60.086
X86.713Y-62.626
X86.713Y-65.166
X86.713Y-67.706
X86.713Y-70.246
X86.713Y-72.786
X89.916Y-77.216
X90.424Y-80.01
X90.424Y-82.296
X92.456Y-77.216
X94.996Y-77.216
X95.504Y-80.01
X95.504Y-82.296
X96.52Y-88.392
X97.536Y-77.216
X97.79Y-91.186
X99.314Y-88.392
X100.584Y-91.186
X100.654Y-43.65
X100.654Y-46.19
X100.654Y-48.73
X100.654Y-51.27
X100.654Y-53.81
X100.654Y-56.35
X100.654Y-58.89
X100.654Y-61.43
X100.654Y-63.97
X100.654Y-66.51
X100.654Y-69.05
X100.654Y-71.59
X101.953Y-44.846
X101.953Y-47.386
X101.953Y-49.926
X101.953Y-52.466
X101.953Y-55.006
X101.953Y-57.546
X101.953Y-60.086
X101.953Y-62.626
X101.953Y-65.166
X101.953Y-67.706
X101.953Y-70.246
X101.953Y-72.786
X102.108Y-88.392
X102.616Y-77.978
X102.616Y-80.772
X102.616Y-83.566
T4
X90.718Y-99.434
X90.718Y-113.934
X93.218Y-99.434
X95.718Y-99.434
X95.718Y-113.934
T5
X83.312Y-75.744
X83.312Y-82.244
T6
X84.836Y-94.742
X95.758Y-94.742
X100.33Y-94.742
T7
X96.52Y-121.158
X123.313Y-99.419
X123.32Y-59.286
X199.527Y-64.116
X199.535Y-102.23
T4
X84.584Y-84.768G85X85.084Y-84.768
G05
X84.584Y-90.718G85X85.084Y-90.718
G05
X87.584Y-84.768G85X88.084Y-84.768
G05
X87.584Y-90.718G85X88.084Y-90.718
G05
X91.584Y-84.768G85X92.084Y-84.768
G05
X91.584Y-90.718G85X92.084Y-90.718
G05
X93.084Y-86.518G85X93.584Y-86.518
G05
X93.084Y-88.968G85X93.584Y-88.968
G05
T0
M30
