G04 #@! TF.GenerationSoftware,KiCad,Pcbnew,(6.0.2-0)*
G04 #@! TF.CreationDate,2022-02-19T09:10:40+00:00*
G04 #@! TF.ProjectId,SofleKeyboard,536f666c-654b-4657-9962-6f6172642e6b,rev?*
G04 #@! TF.SameCoordinates,Original*
G04 #@! TF.FileFunction,Paste,Bot*
G04 #@! TF.FilePolarity,Positive*
%FSLAX46Y46*%
G04 Gerber Fmt 4.6, Leading zero omitted, Abs format (unit mm)*
G04 Created by KiCad (PCBNEW (6.0.2-0)) date 2022-02-19 09:10:40*
%MOMM*%
%LPD*%
G01*
G04 APERTURE LIST*
%ADD10R,0.950000X1.300000*%
%ADD11R,2.300000X2.000000*%
%ADD12R,1.143000X0.635000*%
G04 APERTURE END LIST*
D10*
X122174000Y-45723000D03*
X122174000Y-49273000D03*
X124460000Y-45723000D03*
X124460000Y-49273000D03*
X160274000Y-43437000D03*
X160274000Y-46987000D03*
X162560000Y-43437000D03*
X162560000Y-46987000D03*
X198374000Y-51057000D03*
X198374000Y-54607000D03*
X200660000Y-51057000D03*
X200660000Y-54607000D03*
X122174000Y-64773000D03*
X122174000Y-68323000D03*
X124460000Y-64773000D03*
X124460000Y-68323000D03*
X160274000Y-62487000D03*
X160274000Y-66037000D03*
X162560000Y-62487000D03*
X162560000Y-66037000D03*
X198374000Y-70107000D03*
X198374000Y-73657000D03*
X200660000Y-70107000D03*
X200660000Y-73657000D03*
X122174000Y-83823000D03*
X122174000Y-87373000D03*
X124460000Y-83823000D03*
X124460000Y-87373000D03*
X160274000Y-81537000D03*
X160274000Y-85087000D03*
X162560000Y-81537000D03*
X162560000Y-85087000D03*
X198374000Y-89157000D03*
X198374000Y-92707000D03*
X200660000Y-89157000D03*
X200660000Y-92707000D03*
X122174000Y-102873000D03*
X122174000Y-106423000D03*
X124460000Y-102873000D03*
X124460000Y-106423000D03*
X160274000Y-100587000D03*
X160274000Y-104137000D03*
X162560000Y-100587000D03*
X162560000Y-104137000D03*
X198374000Y-108207000D03*
X198374000Y-111757000D03*
X200660000Y-108207000D03*
X200660000Y-111757000D03*
X119888000Y-120646000D03*
X119888000Y-124196000D03*
X122174000Y-120653000D03*
X122174000Y-124203000D03*
X124460000Y-120646000D03*
X124460000Y-124196000D03*
X141224000Y-117856000D03*
X141224000Y-121406000D03*
X143510000Y-117859000D03*
X143510000Y-121409000D03*
X200660000Y-127003000D03*
X200660000Y-130553000D03*
D11*
X120827180Y-54769380D03*
X108127180Y-57309380D03*
X139826000Y-52268000D03*
X127126000Y-54808000D03*
X158926000Y-49750000D03*
X146226000Y-52290000D03*
X177927000Y-52369000D03*
X165227000Y-54909000D03*
X197026000Y-57169000D03*
X184326000Y-59709000D03*
X216025340Y-57170740D03*
X203325340Y-59710740D03*
X120827180Y-73819380D03*
X108127180Y-76359380D03*
X139826000Y-71318000D03*
X127126000Y-73858000D03*
X158926000Y-68800000D03*
X146226000Y-71340000D03*
X177927000Y-71419000D03*
X165227000Y-73959000D03*
X197026000Y-76219000D03*
X184326000Y-78759000D03*
X216025340Y-76220740D03*
X203325340Y-78760740D03*
X120827180Y-92869380D03*
X108127180Y-95409380D03*
X139826000Y-90368000D03*
X127126000Y-92908000D03*
X158926000Y-87850000D03*
X146226000Y-90390000D03*
X177927000Y-90469000D03*
X165227000Y-93009000D03*
X197026000Y-95269000D03*
X184326000Y-97809000D03*
X120827180Y-111919380D03*
X108127180Y-114459380D03*
X139826000Y-109418000D03*
X127126000Y-111958000D03*
X158926000Y-106900000D03*
X146226000Y-109440000D03*
X177927000Y-109519000D03*
X165227000Y-112059000D03*
X197026000Y-114319000D03*
X184326000Y-116859000D03*
G36*
X89832629Y-142485249D02*
G01*
X91564679Y-141485249D01*
X92714679Y-143477107D01*
X90982629Y-144477107D01*
X89832629Y-142485249D01*
G37*
G36*
X81282925Y-132756726D02*
G01*
X83014975Y-131756726D01*
X84164975Y-133748584D01*
X82432925Y-134748584D01*
X81282925Y-132756726D01*
G37*
G36*
X117551238Y-132497923D02*
G01*
X117033600Y-130566071D01*
X119255230Y-129970787D01*
X119772868Y-131902639D01*
X117551238Y-132497923D01*
G37*
G36*
X105941380Y-138238377D02*
G01*
X105423742Y-136306525D01*
X107645372Y-135711241D01*
X108163010Y-137643093D01*
X105941380Y-138238377D01*
G37*
X139826000Y-128468000D03*
X127126000Y-131008000D03*
X158926000Y-125950000D03*
X146226000Y-128490000D03*
X216025340Y-133370740D03*
X203325340Y-135910740D03*
X216025340Y-114320740D03*
X203325340Y-116860740D03*
X216025340Y-95270740D03*
X203325340Y-97810740D03*
X100218000Y-109514000D03*
X87518000Y-112054000D03*
D12*
X97536000Y-75176380D03*
X97536000Y-74175620D03*
X94996000Y-75168760D03*
X94996000Y-74168000D03*
X92456000Y-75176380D03*
X92456000Y-74175620D03*
X89916000Y-75168760D03*
X89916000Y-74168000D03*
M02*
