G04 #@! TF.GenerationSoftware,KiCad,Pcbnew,(6.0.2-0)*
G04 #@! TF.CreationDate,2022-02-19T09:10:41+00:00*
G04 #@! TF.ProjectId,SofleKeyboard,536f666c-654b-4657-9962-6f6172642e6b,rev?*
G04 #@! TF.SameCoordinates,Original*
G04 #@! TF.FileFunction,Soldermask,Top*
G04 #@! TF.FilePolarity,Negative*
%FSLAX46Y46*%
G04 Gerber Fmt 4.6, Leading zero omitted, Abs format (unit mm)*
G04 Created by KiCad (PCBNEW (6.0.2-0)) date 2022-02-19 09:10:41*
%MOMM*%
%LPD*%
G01*
G04 APERTURE LIST*
%ADD10R,0.950000X1.300000*%
%ADD11C,1.397000*%
%ADD12R,1.143000X0.635000*%
%ADD13C,2.000000*%
%ADD14C,3.000000*%
%ADD15C,1.800000*%
%ADD16C,4.100000*%
%ADD17R,2.300000X2.000000*%
%ADD18O,1.500000X2.800000*%
%ADD19C,4.000000*%
%ADD20C,4.700000*%
%ADD21C,1.524000*%
%ADD22C,1.200000*%
%ADD23O,2.500000X1.700000*%
%ADD24R,0.635000X1.143000*%
G04 APERTURE END LIST*
D10*
X122174000Y-45723000D03*
X122174000Y-49273000D03*
X124460000Y-45723000D03*
X124460000Y-49273000D03*
X160274000Y-43437000D03*
X160274000Y-46987000D03*
X162560000Y-43437000D03*
X162560000Y-46987000D03*
X198374000Y-51057000D03*
X198374000Y-54607000D03*
X200660000Y-51057000D03*
X200660000Y-54607000D03*
X122174000Y-64773000D03*
X122174000Y-68323000D03*
X124460000Y-64773000D03*
X124460000Y-68323000D03*
X160274000Y-62487000D03*
X160274000Y-66037000D03*
X162560000Y-62487000D03*
X162560000Y-66037000D03*
X198374000Y-70107000D03*
X198374000Y-73657000D03*
X200660000Y-70107000D03*
X200660000Y-73657000D03*
X122174000Y-83823000D03*
X122174000Y-87373000D03*
X124460000Y-83823000D03*
X124460000Y-87373000D03*
X160274000Y-81537000D03*
X160274000Y-85087000D03*
X162560000Y-81537000D03*
X162560000Y-85087000D03*
X198374000Y-89157000D03*
X198374000Y-92707000D03*
X200660000Y-89157000D03*
X200660000Y-92707000D03*
X122174000Y-102873000D03*
X122174000Y-106423000D03*
X124460000Y-102873000D03*
X124460000Y-106423000D03*
X160274000Y-100587000D03*
X160274000Y-104137000D03*
X162560000Y-100587000D03*
X162560000Y-104137000D03*
X198374000Y-108207000D03*
X198374000Y-111757000D03*
X200660000Y-108207000D03*
X200660000Y-111757000D03*
X119888000Y-120646000D03*
X119888000Y-124196000D03*
X122174000Y-120653000D03*
X122174000Y-124203000D03*
X124460000Y-120646000D03*
X124460000Y-124196000D03*
X141224000Y-117856000D03*
X141224000Y-121406000D03*
X143510000Y-117859000D03*
X143510000Y-121409000D03*
X200660000Y-127003000D03*
X200660000Y-130553000D03*
D11*
X89916000Y-77216000D03*
X92456000Y-77216000D03*
X94996000Y-77216000D03*
X97536000Y-77216000D03*
D12*
X97536000Y-75176380D03*
X97536000Y-74175620D03*
X94996000Y-75168760D03*
X94996000Y-74168000D03*
X92456000Y-75176380D03*
X92456000Y-74175620D03*
X89916000Y-75168760D03*
X89916000Y-74168000D03*
D11*
X95504000Y-82296000D03*
X90424000Y-82296000D03*
X95504000Y-80010000D03*
X90424000Y-80010000D03*
D13*
X83312000Y-75744000D03*
X83312000Y-82244000D03*
D14*
X111287180Y-57269380D03*
D15*
X118907180Y-52189380D03*
X108747180Y-52189380D03*
D14*
X110017180Y-54729381D03*
X117637180Y-54729380D03*
D16*
X113827180Y-52189380D03*
D14*
X116367180Y-57269380D03*
D17*
X106827180Y-54769380D03*
X119527180Y-57309380D03*
D14*
X135366000Y-54768000D03*
D15*
X127746000Y-49688000D03*
D16*
X132826000Y-49688000D03*
D15*
X137906000Y-49688000D03*
D14*
X130286000Y-54768000D03*
X129016000Y-52228001D03*
X136636000Y-52228000D03*
D17*
X125826000Y-52268000D03*
X138526000Y-54808000D03*
D14*
X148116000Y-49710001D03*
X154466000Y-52250000D03*
D15*
X146846000Y-47170000D03*
D16*
X151926000Y-47170000D03*
D14*
X149386000Y-52250000D03*
D15*
X157006000Y-47170000D03*
D14*
X155736000Y-49710000D03*
D17*
X144926000Y-49750000D03*
X157626000Y-52290000D03*
D15*
X176007000Y-49789000D03*
D14*
X174737000Y-52329000D03*
X167117000Y-52329001D03*
D16*
X170927000Y-49789000D03*
D14*
X168387000Y-54869000D03*
D15*
X165847000Y-49789000D03*
D14*
X173467000Y-54869000D03*
D17*
X163927000Y-52369000D03*
X176627000Y-54909000D03*
D14*
X192566000Y-59669000D03*
X186216000Y-57129001D03*
X193836000Y-57129000D03*
D15*
X195106000Y-54589000D03*
D16*
X190026000Y-54589000D03*
D14*
X187486000Y-59669000D03*
D15*
X184946000Y-54589000D03*
D17*
X183026000Y-57169000D03*
X195726000Y-59709000D03*
D14*
X205215340Y-57130741D03*
X206485340Y-59670740D03*
D16*
X209025340Y-54590740D03*
D15*
X214105340Y-54590740D03*
D14*
X211565340Y-59670740D03*
D15*
X203945340Y-54590740D03*
D14*
X212835340Y-57130740D03*
D17*
X202025340Y-57170740D03*
X214725340Y-59710740D03*
D15*
X118907180Y-71239380D03*
X108747180Y-71239380D03*
D14*
X117637180Y-73779380D03*
X110017180Y-73779381D03*
X116367180Y-76319380D03*
D16*
X113827180Y-71239380D03*
D14*
X111287180Y-76319380D03*
D17*
X106827180Y-73819380D03*
X119527180Y-76359380D03*
D14*
X130286000Y-73818000D03*
X129016000Y-71278001D03*
X136636000Y-71278000D03*
D15*
X137906000Y-68738000D03*
D16*
X132826000Y-68738000D03*
D15*
X127746000Y-68738000D03*
D14*
X135366000Y-73818000D03*
D17*
X125826000Y-71318000D03*
X138526000Y-73858000D03*
D14*
X154466000Y-71300000D03*
D16*
X151926000Y-66220000D03*
D14*
X149386000Y-71300000D03*
X148116000Y-68760001D03*
D15*
X146846000Y-66220000D03*
X157006000Y-66220000D03*
D14*
X155736000Y-68760000D03*
D17*
X144926000Y-68800000D03*
X157626000Y-71340000D03*
D14*
X168387000Y-73919000D03*
X173467000Y-73919000D03*
X167117000Y-71379001D03*
D15*
X165847000Y-68839000D03*
D16*
X170927000Y-68839000D03*
D14*
X174737000Y-71379000D03*
D15*
X176007000Y-68839000D03*
D17*
X163927000Y-71419000D03*
X176627000Y-73959000D03*
D14*
X187486000Y-78719000D03*
D15*
X184946000Y-73639000D03*
D14*
X192566000Y-78719000D03*
X193836000Y-76179000D03*
X186216000Y-76179001D03*
D15*
X195106000Y-73639000D03*
D16*
X190026000Y-73639000D03*
D17*
X183026000Y-76219000D03*
X195726000Y-78759000D03*
D14*
X211565340Y-78720740D03*
X206485340Y-78720740D03*
X212835340Y-76180740D03*
D16*
X209025340Y-73640740D03*
D14*
X205215340Y-76180741D03*
D15*
X214105340Y-73640740D03*
X203945340Y-73640740D03*
D17*
X202025340Y-76220740D03*
X214725340Y-78760740D03*
D14*
X117637180Y-92829380D03*
X111287180Y-95369380D03*
X110017180Y-92829381D03*
X116367180Y-95369380D03*
D15*
X118907180Y-90289380D03*
D16*
X113827180Y-90289380D03*
D15*
X108747180Y-90289380D03*
D17*
X106827180Y-92869380D03*
X119527180Y-95409380D03*
D14*
X136636000Y-90328000D03*
D15*
X127746000Y-87788000D03*
X137906000Y-87788000D03*
D14*
X135366000Y-92868000D03*
X130286000Y-92868000D03*
D16*
X132826000Y-87788000D03*
D14*
X129016000Y-90328001D03*
D17*
X125826000Y-90368000D03*
X138526000Y-92908000D03*
D14*
X154466000Y-90350000D03*
D15*
X146846000Y-85270000D03*
D14*
X148116000Y-87810001D03*
X149386000Y-90350000D03*
X155736000Y-87810000D03*
D16*
X151926000Y-85270000D03*
D15*
X157006000Y-85270000D03*
D17*
X144926000Y-87850000D03*
X157626000Y-90390000D03*
D16*
X170927000Y-87889000D03*
D15*
X165847000Y-87889000D03*
X176007000Y-87889000D03*
D14*
X174737000Y-90429000D03*
X167117000Y-90429001D03*
X173467000Y-92969000D03*
X168387000Y-92969000D03*
D17*
X163927000Y-90469000D03*
X176627000Y-93009000D03*
D16*
X190026000Y-92689000D03*
D14*
X193836000Y-95229000D03*
X187486000Y-97769000D03*
D15*
X195106000Y-92689000D03*
D14*
X192566000Y-97769000D03*
X186216000Y-95229001D03*
D15*
X184946000Y-92689000D03*
D17*
X183026000Y-95269000D03*
X195726000Y-97809000D03*
D15*
X118907180Y-109339380D03*
D14*
X117637180Y-111879380D03*
X110017180Y-111879381D03*
D16*
X113827180Y-109339380D03*
D14*
X111287180Y-114419380D03*
D15*
X108747180Y-109339380D03*
D14*
X116367180Y-114419380D03*
D17*
X106827180Y-111919380D03*
X119527180Y-114459380D03*
D14*
X135366000Y-111918000D03*
X129016000Y-109378001D03*
X130286000Y-111918000D03*
X136636000Y-109378000D03*
D15*
X127746000Y-106838000D03*
X137906000Y-106838000D03*
D16*
X132826000Y-106838000D03*
D17*
X125826000Y-109418000D03*
X138526000Y-111958000D03*
D16*
X151926000Y-104320000D03*
D15*
X157006000Y-104320000D03*
D14*
X149386000Y-109400000D03*
X155736000Y-106860000D03*
X148116000Y-106860001D03*
X154466000Y-109400000D03*
D15*
X146846000Y-104320000D03*
D17*
X144926000Y-106900000D03*
X157626000Y-109440000D03*
D14*
X173467000Y-112019000D03*
D16*
X170927000Y-106939000D03*
D15*
X176007000Y-106939000D03*
X165847000Y-106939000D03*
D14*
X174737000Y-109479000D03*
X168387000Y-112019000D03*
X167117000Y-109479001D03*
D17*
X163927000Y-109519000D03*
X176627000Y-112059000D03*
D15*
X195106000Y-111739000D03*
X184946000Y-111739000D03*
D14*
X192566000Y-116819000D03*
D16*
X190026000Y-111739000D03*
D14*
X193836000Y-114279000D03*
X187486000Y-116819000D03*
X186216000Y-114279001D03*
D17*
X183026000Y-114319000D03*
X195726000Y-116859000D03*
D13*
X95718000Y-99434000D03*
X90718000Y-99434000D03*
X93218000Y-99434000D03*
D18*
X87618000Y-106934000D03*
X98818000Y-106934000D03*
D13*
X90718000Y-113934000D03*
X95718000Y-113934000D03*
D15*
X87468000Y-131229591D03*
D14*
X85903295Y-133599444D03*
X89713295Y-140198557D03*
X86878591Y-140368705D03*
D16*
X90008000Y-135629000D03*
D14*
X84338591Y-135969295D03*
D15*
X92548000Y-140028409D03*
G36*
X82832629Y-130360893D02*
G01*
X84564679Y-129360893D01*
X85714679Y-131352751D01*
X83982629Y-132352751D01*
X82832629Y-130360893D01*
G37*
G36*
X86982925Y-142629416D02*
G01*
X88714975Y-141629416D01*
X89864975Y-143621274D01*
X88132925Y-144621274D01*
X86982925Y-142629416D01*
G37*
D14*
X107951223Y-133993553D03*
X109835349Y-136118304D03*
D16*
X110974000Y-130554000D03*
D14*
X115311578Y-132021351D03*
D15*
X115880903Y-129239199D03*
X106067097Y-131868801D03*
D14*
X114742252Y-134803503D03*
G36*
X104028276Y-136121390D02*
G01*
X103510638Y-134189538D01*
X105732268Y-133594254D01*
X106249906Y-135526106D01*
X104028276Y-136121390D01*
G37*
G36*
X116952935Y-135287840D02*
G01*
X116435297Y-133355988D01*
X118656927Y-132760704D01*
X119174565Y-134692556D01*
X116952935Y-135287840D01*
G37*
D15*
X127746000Y-125888000D03*
D16*
X132826000Y-125888000D03*
D14*
X136636000Y-128428000D03*
X129016000Y-128428001D03*
X135366000Y-130968000D03*
X130286000Y-130968000D03*
D15*
X137906000Y-125888000D03*
D17*
X125826000Y-128468000D03*
X138526000Y-131008000D03*
D16*
X151926000Y-123370000D03*
D14*
X155736000Y-125910000D03*
D15*
X146846000Y-123370000D03*
D14*
X149386000Y-128450000D03*
X148116000Y-125910001D03*
D15*
X157006000Y-123370000D03*
D14*
X154466000Y-128450000D03*
D17*
X144926000Y-125950000D03*
X157626000Y-128490000D03*
D16*
X209025340Y-130790740D03*
D15*
X203945340Y-130790740D03*
D14*
X212835340Y-133330740D03*
D15*
X214105340Y-130790740D03*
D14*
X206485340Y-135870740D03*
X205215340Y-133330741D03*
X211565340Y-135870740D03*
D17*
X202025340Y-133370740D03*
X214725340Y-135910740D03*
D19*
X100330000Y-94742000D03*
X84836000Y-94742000D03*
D20*
X199535000Y-102230000D03*
X96520000Y-121158000D03*
X199527000Y-64116000D03*
X123313000Y-99419000D03*
X123320000Y-59286000D03*
D21*
X85414000Y-43650000D03*
X101952815Y-44845745D03*
X85414000Y-46190000D03*
X101952815Y-47385745D03*
X85414000Y-48730000D03*
X101952815Y-49925745D03*
X101952815Y-52465745D03*
X85414000Y-51270000D03*
X101952815Y-55005745D03*
X85414000Y-53810000D03*
X85414000Y-56350000D03*
X101952815Y-57545745D03*
X101952815Y-60085745D03*
X85414000Y-58890000D03*
X85414000Y-61430000D03*
X101952815Y-62625745D03*
X101952815Y-65165745D03*
X85414000Y-63970000D03*
X101952815Y-67705745D03*
X85414000Y-66510000D03*
X85414000Y-69050000D03*
X101952815Y-70245745D03*
X85414000Y-71590000D03*
X101952815Y-72785745D03*
X100654000Y-71590000D03*
X86712815Y-72785745D03*
X86712815Y-70245745D03*
X100654000Y-69050000D03*
X86712815Y-67705745D03*
X100654000Y-66510000D03*
X86712815Y-65165745D03*
X100654000Y-63970000D03*
X86712815Y-62625745D03*
X100654000Y-61430000D03*
X100654000Y-58890000D03*
X86712815Y-60085745D03*
X86712815Y-57545745D03*
X100654000Y-56350000D03*
X100654000Y-53810000D03*
X86712815Y-55005745D03*
X86712815Y-52465745D03*
X100654000Y-51270000D03*
X100654000Y-48730000D03*
X86712815Y-49925745D03*
X86712815Y-47385745D03*
X100654000Y-46190000D03*
X100654000Y-43650000D03*
X86712815Y-44845745D03*
D12*
X86360000Y-76461620D03*
X86360000Y-77462380D03*
D22*
X83034000Y-88618000D03*
X83034000Y-86868000D03*
X90034000Y-88618000D03*
X90034000Y-86868000D03*
D23*
X91834000Y-90718000D03*
X91834000Y-84768000D03*
X87834000Y-84768000D03*
X87834000Y-90718000D03*
X84834000Y-84768000D03*
X84834000Y-90718000D03*
X93334000Y-88968000D03*
X93334000Y-86518000D03*
D11*
X102616000Y-77978000D03*
D19*
X95758000Y-94742000D03*
D11*
X102616000Y-83566000D03*
X102616000Y-80772000D03*
D14*
X211565340Y-116820740D03*
X205215340Y-114280741D03*
D15*
X203945340Y-111740740D03*
X214105340Y-111740740D03*
D14*
X212835340Y-114280740D03*
D16*
X209025340Y-111740740D03*
D14*
X206485340Y-116820740D03*
D17*
X202025340Y-114320740D03*
X214725340Y-116860740D03*
D14*
X206485340Y-97770740D03*
X211565340Y-97770740D03*
D16*
X209025340Y-92690740D03*
D14*
X205215340Y-95230741D03*
D15*
X203945340Y-92690740D03*
D14*
X212835340Y-95230740D03*
D15*
X214105340Y-92690740D03*
D17*
X202025340Y-95270740D03*
X214725340Y-97810740D03*
D14*
X95758000Y-112014000D03*
D15*
X88138000Y-106934000D03*
X98298000Y-106934000D03*
D14*
X89408000Y-109474001D03*
D16*
X93218000Y-106934000D03*
D14*
X90678000Y-112014000D03*
X97028000Y-109474000D03*
D17*
X86218000Y-109514000D03*
X98918000Y-112054000D03*
D24*
X87637620Y-82296000D03*
X88638380Y-82296000D03*
X87637620Y-80010000D03*
X88638380Y-80010000D03*
D11*
X100584000Y-91186000D03*
X96520000Y-88392000D03*
X99314000Y-88392000D03*
X102108000Y-88392000D03*
X97790000Y-91186000D03*
M02*
