%FSLAX45Y45*%
G04 Gerber Fmt 4.5, Leading zero omitted, Abs format (unit mm)*
G04 Created by KiCad (PCBNEW (6.0.2-0)) date 2022-02-19 09:10:47*
%MOMM*%
%LPD*%
G01*
G04 APERTURE LIST*
%TA.AperFunction,Profile*%
%ADD10C,0.100000*%
%TD*%
%ADD11C,0.200000*%
%ADD12C,0.120000*%
%ADD13C,0.150000*%
%ADD14C,0.180000*%
%ADD15C,0.300000*%
%ADD16C,0.410000*%
G04 APERTURE END LIST*
D10*
X13148013Y-13618900D02*
X18082600Y-13618900D01*
X19943430Y-14044882D02*
X18082600Y-13618900D01*
X7562600Y-13058900D02*
X7547600Y-13008900D01*
X7547600Y-13008900D02*
X7542600Y-12948900D01*
X7542600Y-12948900D02*
X7542600Y-12908900D01*
X7542600Y-12908900D02*
X7552600Y-12858900D01*
X8160126Y-11658900D02*
X8152600Y-11723900D01*
X8152600Y-11723900D02*
X8132600Y-11783900D01*
X8587600Y-14838900D02*
X8622600Y-14868900D01*
X8622600Y-14868900D02*
X8667600Y-14883900D01*
X8667600Y-14883900D02*
X8711200Y-14890500D01*
X7552600Y-12858900D02*
X8132600Y-11783900D01*
X8193726Y-3985183D02*
X8210775Y-3971116D01*
X8169038Y-4021801D02*
X8179659Y-4002233D01*
X21860988Y-4618681D02*
X21869628Y-4636767D01*
X21780144Y-4563415D02*
X21800311Y-4568578D01*
X8179659Y-4002233D02*
X8193726Y-3985183D01*
X21800311Y-4568578D02*
X21818787Y-4577047D01*
X21875038Y-4656357D02*
X21876918Y-4677090D01*
X8587600Y-14838900D02*
X7562600Y-13058900D01*
X21794074Y-14044882D02*
X19943430Y-14044882D01*
X21794074Y-14044882D02*
G75*
G03*
X21876880Y-13962597I672J82132D01*
G01*
X21876918Y-4677090D02*
X21876880Y-13962597D01*
X8162326Y-4043426D02*
X8169038Y-4021801D01*
X16427600Y-3718900D02*
X21780144Y-4563415D01*
X8159986Y-4066643D02*
X8162326Y-4043426D01*
X21869628Y-4636767D02*
X21875038Y-4656357D01*
X8210775Y-3971116D02*
X8230344Y-3960494D01*
X21818787Y-4577047D02*
X21835262Y-4588460D01*
X21849432Y-4602458D02*
X21860988Y-4618681D01*
X8160126Y-11658900D02*
X8159986Y-4066643D01*
X13148013Y-13618900D02*
X8754872Y-14885416D01*
X8251968Y-3953781D02*
X8275185Y-3951440D01*
X8230344Y-3960494D02*
X8251968Y-3953781D01*
X14232600Y-3718900D02*
X16427600Y-3718900D01*
X21835262Y-4588460D02*
X21849432Y-4602458D01*
X14232600Y-3718900D02*
X8275185Y-3951440D01*
X8711200Y-14890500D02*
X8754872Y-14885416D01*
D11*
D12*
X8243400Y-8626800D02*
X8363400Y-8746800D01*
X8363400Y-8626800D02*
X8243400Y-8746800D01*
X8243400Y-8801800D02*
X8363400Y-8921800D01*
X8363400Y-8801800D02*
X8243400Y-8921800D01*
X8943400Y-8626800D02*
X9063400Y-8746800D01*
X9063400Y-8626800D02*
X8943400Y-8746800D01*
X8943400Y-8801800D02*
X9063400Y-8921800D01*
X9063400Y-8801800D02*
X8943400Y-8921800D01*
D13*
X8836800Y-10693400D02*
G75*
G03*
X8836800Y-10693400I-75000J0D01*
G01*
D11*
X8696800Y-10628400D02*
X8696800Y-10758400D01*
X8826800Y-10628400D02*
X8826800Y-10758400D01*
X8696800Y-10758400D02*
G75*
G03*
X8826800Y-10758400I65000J0D01*
G01*
X8826800Y-10628400D02*
G75*
G03*
X8696800Y-10628400I-65000J0D01*
G01*
D13*
X9956800Y-10693400D02*
G75*
G03*
X9956800Y-10693400I-75000J0D01*
G01*
D11*
X9816800Y-10628400D02*
X9816800Y-10758400D01*
X9946800Y-10628400D02*
X9946800Y-10758400D01*
X9816800Y-10758400D02*
G75*
G03*
X9946800Y-10758400I65000J0D01*
G01*
X9946800Y-10628400D02*
G75*
G03*
X9816800Y-10628400I-65000J0D01*
G01*
D14*
X8746800Y-13032959D02*
X8746800Y-13212959D01*
X8656800Y-13122959D02*
X8836800Y-13122959D01*
X8813800Y-10603400D02*
X8813800Y-10783400D01*
X8723800Y-10693400D02*
X8903800Y-10693400D01*
X9254800Y-13912841D02*
X9254800Y-14092841D01*
X9164800Y-14002841D02*
X9344800Y-14002841D01*
X9829800Y-10603400D02*
X9829800Y-10783400D01*
X9739800Y-10693400D02*
X9919800Y-10693400D01*
X10606710Y-13096880D02*
X10606710Y-13276880D01*
X10516710Y-13186880D02*
X10696710Y-13186880D01*
X10874718Y-5128938D02*
X10874718Y-5308938D01*
X10784718Y-5218938D02*
X10964718Y-5218938D01*
X10874718Y-7033938D02*
X10874718Y-7213938D01*
X10784718Y-7123938D02*
X10964718Y-7123938D01*
X10874718Y-8938938D02*
X10874718Y-9118938D01*
X10784718Y-9028938D02*
X10964718Y-9028938D01*
X10874718Y-10843938D02*
X10874718Y-11023938D01*
X10784718Y-10933938D02*
X10964718Y-10933938D01*
X11588090Y-12833920D02*
X11588090Y-13013920D01*
X11498090Y-12923920D02*
X11678090Y-12923920D01*
X11890718Y-5128938D02*
X11890718Y-5308938D01*
X11800718Y-5218938D02*
X11980718Y-5218938D01*
X11890718Y-7033938D02*
X11890718Y-7213938D01*
X11800718Y-7123938D02*
X11980718Y-7123938D01*
X11890718Y-8938938D02*
X11890718Y-9118938D01*
X11800718Y-9028938D02*
X11980718Y-9028938D01*
X11890718Y-10843938D02*
X11890718Y-11023938D01*
X11800718Y-10933938D02*
X11980718Y-10933938D01*
X12774600Y-4878800D02*
X12774600Y-5058800D01*
X12684600Y-4968800D02*
X12864600Y-4968800D01*
X12774600Y-6783800D02*
X12774600Y-6963800D01*
X12684600Y-6873800D02*
X12864600Y-6873800D01*
X12774600Y-8688800D02*
X12774600Y-8868800D01*
X12684600Y-8778800D02*
X12864600Y-8778800D01*
X12774600Y-10593800D02*
X12774600Y-10773800D01*
X12684600Y-10683800D02*
X12864600Y-10683800D01*
X12774600Y-12498800D02*
X12774600Y-12678800D01*
X12684600Y-12588800D02*
X12864600Y-12588800D01*
X13790600Y-4878800D02*
X13790600Y-5058800D01*
X13700600Y-4968800D02*
X13880600Y-4968800D01*
X13790600Y-6783800D02*
X13790600Y-6963800D01*
X13700600Y-6873800D02*
X13880600Y-6873800D01*
X13790600Y-8688800D02*
X13790600Y-8868800D01*
X13700600Y-8778800D02*
X13880600Y-8778800D01*
X13790600Y-10593800D02*
X13790600Y-10773800D01*
X13700600Y-10683800D02*
X13880600Y-10683800D01*
X13790600Y-12498800D02*
X13790600Y-12678800D01*
X13700600Y-12588800D02*
X13880600Y-12588800D01*
X14684600Y-4627000D02*
X14684600Y-4807000D01*
X14594600Y-4717000D02*
X14774600Y-4717000D01*
X14684600Y-6532000D02*
X14684600Y-6712000D01*
X14594600Y-6622000D02*
X14774600Y-6622000D01*
X14684600Y-8437000D02*
X14684600Y-8617000D01*
X14594600Y-8527000D02*
X14774600Y-8527000D01*
X14684600Y-10342000D02*
X14684600Y-10522000D01*
X14594600Y-10432000D02*
X14774600Y-10432000D01*
X14684600Y-12247000D02*
X14684600Y-12427000D01*
X14594600Y-12337000D02*
X14774600Y-12337000D01*
X15700600Y-4627000D02*
X15700600Y-4807000D01*
X15610600Y-4717000D02*
X15790600Y-4717000D01*
X15700600Y-6532000D02*
X15700600Y-6712000D01*
X15610600Y-6622000D02*
X15790600Y-6622000D01*
X15700600Y-8437000D02*
X15700600Y-8617000D01*
X15610600Y-8527000D02*
X15790600Y-8527000D01*
X15700600Y-10342000D02*
X15700600Y-10522000D01*
X15610600Y-10432000D02*
X15790600Y-10432000D01*
X15700600Y-12247000D02*
X15700600Y-12427000D01*
X15610600Y-12337000D02*
X15790600Y-12337000D01*
X16584700Y-4888900D02*
X16584700Y-5068900D01*
X16494700Y-4978900D02*
X16674700Y-4978900D01*
X16584700Y-6793900D02*
X16584700Y-6973900D01*
X16494700Y-6883900D02*
X16674700Y-6883900D01*
X16584700Y-8698900D02*
X16584700Y-8878900D01*
X16494700Y-8788900D02*
X16674700Y-8788900D01*
X16584700Y-10603900D02*
X16584700Y-10783900D01*
X16494700Y-10693900D02*
X16674700Y-10693900D01*
X17600700Y-4888900D02*
X17600700Y-5068900D01*
X17510700Y-4978900D02*
X17690700Y-4978900D01*
X17600700Y-6793900D02*
X17600700Y-6973900D01*
X17510700Y-6883900D02*
X17690700Y-6883900D01*
X17600700Y-8698900D02*
X17600700Y-8878900D01*
X17510700Y-8788900D02*
X17690700Y-8788900D01*
X17600700Y-10603900D02*
X17600700Y-10783900D01*
X17510700Y-10693900D02*
X17690700Y-10693900D01*
X18494600Y-5368900D02*
X18494600Y-5548900D01*
X18404600Y-5458900D02*
X18584600Y-5458900D01*
X18494600Y-7273900D02*
X18494600Y-7453900D01*
X18404600Y-7363900D02*
X18584600Y-7363900D01*
X18494600Y-9178900D02*
X18494600Y-9358900D01*
X18404600Y-9268900D02*
X18584600Y-9268900D01*
X18494600Y-11083900D02*
X18494600Y-11263900D01*
X18404600Y-11173900D02*
X18584600Y-11173900D01*
X19510600Y-5368900D02*
X19510600Y-5548900D01*
X19420600Y-5458900D02*
X19600600Y-5458900D01*
X19510600Y-7273900D02*
X19510600Y-7453900D01*
X19420600Y-7363900D02*
X19600600Y-7363900D01*
X19510600Y-9178900D02*
X19510600Y-9358900D01*
X19420600Y-9268900D02*
X19600600Y-9268900D01*
X19510600Y-11083900D02*
X19510600Y-11263900D01*
X19420600Y-11173900D02*
X19600600Y-11173900D01*
X20394534Y-5369074D02*
X20394534Y-5549074D01*
X20304534Y-5459074D02*
X20484534Y-5459074D01*
X20394534Y-7274074D02*
X20394534Y-7454074D01*
X20304534Y-7364074D02*
X20484534Y-7364074D01*
X20394534Y-9179074D02*
X20394534Y-9359074D01*
X20304534Y-9269074D02*
X20484534Y-9269074D01*
X20394534Y-11084074D02*
X20394534Y-11264074D01*
X20304534Y-11174074D02*
X20484534Y-11174074D01*
X20394534Y-12989074D02*
X20394534Y-13169074D01*
X20304534Y-13079074D02*
X20484534Y-13079074D01*
X21410534Y-5369074D02*
X21410534Y-5549074D01*
X21320534Y-5459074D02*
X21500534Y-5459074D01*
X21410534Y-7274074D02*
X21410534Y-7454074D01*
X21320534Y-7364074D02*
X21500534Y-7364074D01*
X21410534Y-9179074D02*
X21410534Y-9359074D01*
X21320534Y-9269074D02*
X21500534Y-9269074D01*
X21410534Y-11084074D02*
X21410534Y-11264074D01*
X21320534Y-11174074D02*
X21500534Y-11174074D01*
X21410534Y-12989074D02*
X21410534Y-13169074D01*
X21320534Y-13079074D02*
X21500534Y-13079074D01*
D15*
X8539926Y-13702996D02*
X8539926Y-13490862D01*
X8327792Y-13490862D01*
X8327792Y-13702996D01*
X8539926Y-13702996D01*
X8696397Y-13466011D02*
X8696397Y-13253877D01*
X8484263Y-13253877D01*
X8484263Y-13466011D01*
X8696397Y-13466011D01*
X8793926Y-14142937D02*
X8793926Y-13930803D01*
X8581792Y-13930803D01*
X8581792Y-14142937D01*
X8793926Y-14142937D01*
X9046867Y-11053467D02*
X9046867Y-10841333D01*
X8834733Y-10841333D01*
X8834733Y-11053467D01*
X9046867Y-11053467D01*
X9077397Y-14125923D02*
X9077397Y-13913789D01*
X8865263Y-13913789D01*
X8865263Y-14125923D01*
X9077397Y-14125923D01*
X9173867Y-11307467D02*
X9173867Y-11095333D01*
X8961733Y-11095333D01*
X8961733Y-11307467D01*
X9173867Y-11307467D01*
X9681867Y-11307467D02*
X9681867Y-11095333D01*
X9469733Y-11095333D01*
X9469733Y-11307467D01*
X9681867Y-11307467D01*
X9808867Y-11053467D02*
X9808867Y-10841333D01*
X9596733Y-10841333D01*
X9596733Y-11053467D01*
X9808867Y-11053467D01*
X10901189Y-13505422D02*
X10901189Y-13293288D01*
X10689055Y-13293288D01*
X10689055Y-13505422D01*
X10901189Y-13505422D01*
X11089602Y-13717897D02*
X11089602Y-13505763D01*
X10877468Y-13505763D01*
X10877468Y-13717897D01*
X11089602Y-13717897D01*
X11107785Y-5579005D02*
X11107785Y-5366871D01*
X10895651Y-5366871D01*
X10895651Y-5579005D01*
X11107785Y-5579005D01*
X11107785Y-7484005D02*
X11107785Y-7271871D01*
X10895651Y-7271871D01*
X10895651Y-7484005D01*
X11107785Y-7484005D01*
X11107785Y-9389005D02*
X11107785Y-9176871D01*
X10895651Y-9176871D01*
X10895651Y-9389005D01*
X11107785Y-9389005D01*
X11107785Y-11294005D02*
X11107785Y-11081871D01*
X10895651Y-11081871D01*
X10895651Y-11294005D01*
X11107785Y-11294005D01*
X11234785Y-5833005D02*
X11234785Y-5620871D01*
X11022651Y-5620871D01*
X11022651Y-5833005D01*
X11234785Y-5833005D01*
X11234785Y-7738005D02*
X11234785Y-7525871D01*
X11022651Y-7525871D01*
X11022651Y-7738005D01*
X11234785Y-7738005D01*
X11234785Y-9643005D02*
X11234785Y-9430871D01*
X11022651Y-9430871D01*
X11022651Y-9643005D01*
X11234785Y-9643005D01*
X11234785Y-11548005D02*
X11234785Y-11335871D01*
X11022651Y-11335871D01*
X11022651Y-11548005D01*
X11234785Y-11548005D01*
X11580292Y-13586417D02*
X11580292Y-13374283D01*
X11368158Y-13374283D01*
X11368158Y-13586417D01*
X11580292Y-13586417D01*
X11637225Y-13308202D02*
X11637225Y-13096068D01*
X11425091Y-13096068D01*
X11425091Y-13308202D01*
X11637225Y-13308202D01*
X11742785Y-5833005D02*
X11742785Y-5620871D01*
X11530651Y-5620871D01*
X11530651Y-5833005D01*
X11742785Y-5833005D01*
X11742785Y-7738005D02*
X11742785Y-7525871D01*
X11530651Y-7525871D01*
X11530651Y-7738005D01*
X11742785Y-7738005D01*
X11742785Y-9643005D02*
X11742785Y-9430871D01*
X11530651Y-9430871D01*
X11530651Y-9643005D01*
X11742785Y-9643005D01*
X11742785Y-11548005D02*
X11742785Y-11335871D01*
X11530651Y-11335871D01*
X11530651Y-11548005D01*
X11742785Y-11548005D01*
X11869785Y-5579005D02*
X11869785Y-5366871D01*
X11657651Y-5366871D01*
X11657651Y-5579005D01*
X11869785Y-5579005D01*
X11869785Y-7484005D02*
X11869785Y-7271871D01*
X11657651Y-7271871D01*
X11657651Y-7484005D01*
X11869785Y-7484005D01*
X11869785Y-9389005D02*
X11869785Y-9176871D01*
X11657651Y-9176871D01*
X11657651Y-9389005D01*
X11869785Y-9389005D01*
X11869785Y-11294005D02*
X11869785Y-11081871D01*
X11657651Y-11081871D01*
X11657651Y-11294005D01*
X11869785Y-11294005D01*
X13007667Y-5328867D02*
X13007667Y-5116733D01*
X12795533Y-5116733D01*
X12795533Y-5328867D01*
X13007667Y-5328867D01*
X13007667Y-7233867D02*
X13007667Y-7021733D01*
X12795533Y-7021733D01*
X12795533Y-7233867D01*
X13007667Y-7233867D01*
X13007667Y-9138867D02*
X13007667Y-8926733D01*
X12795533Y-8926733D01*
X12795533Y-9138867D01*
X13007667Y-9138867D01*
X13007667Y-11043867D02*
X13007667Y-10831733D01*
X12795533Y-10831733D01*
X12795533Y-11043867D01*
X13007667Y-11043867D01*
X13007667Y-12948867D02*
X13007667Y-12736733D01*
X12795533Y-12736733D01*
X12795533Y-12948867D01*
X13007667Y-12948867D01*
X13134667Y-5582867D02*
X13134667Y-5370733D01*
X12922533Y-5370733D01*
X12922533Y-5582867D01*
X13134667Y-5582867D01*
X13134667Y-7487867D02*
X13134667Y-7275733D01*
X12922533Y-7275733D01*
X12922533Y-7487867D01*
X13134667Y-7487867D01*
X13134667Y-9392867D02*
X13134667Y-9180733D01*
X12922533Y-9180733D01*
X12922533Y-9392867D01*
X13134667Y-9392867D01*
X13134667Y-11297867D02*
X13134667Y-11085733D01*
X12922533Y-11085733D01*
X12922533Y-11297867D01*
X13134667Y-11297867D01*
X13134667Y-13202867D02*
X13134667Y-12990733D01*
X12922533Y-12990733D01*
X12922533Y-13202867D01*
X13134667Y-13202867D01*
X13642667Y-5582867D02*
X13642667Y-5370733D01*
X13430533Y-5370733D01*
X13430533Y-5582867D01*
X13642667Y-5582867D01*
X13642667Y-7487867D02*
X13642667Y-7275733D01*
X13430533Y-7275733D01*
X13430533Y-7487867D01*
X13642667Y-7487867D01*
X13642667Y-9392867D02*
X13642667Y-9180733D01*
X13430533Y-9180733D01*
X13430533Y-9392867D01*
X13642667Y-9392867D01*
X13642667Y-11297867D02*
X13642667Y-11085733D01*
X13430533Y-11085733D01*
X13430533Y-11297867D01*
X13642667Y-11297867D01*
X13642667Y-13202867D02*
X13642667Y-12990733D01*
X13430533Y-12990733D01*
X13430533Y-13202867D01*
X13642667Y-13202867D01*
X13769667Y-5328867D02*
X13769667Y-5116733D01*
X13557533Y-5116733D01*
X13557533Y-5328867D01*
X13769667Y-5328867D01*
X13769667Y-7233867D02*
X13769667Y-7021733D01*
X13557533Y-7021733D01*
X13557533Y-7233867D01*
X13769667Y-7233867D01*
X13769667Y-9138867D02*
X13769667Y-8926733D01*
X13557533Y-8926733D01*
X13557533Y-9138867D01*
X13769667Y-9138867D01*
X13769667Y-11043867D02*
X13769667Y-10831733D01*
X13557533Y-10831733D01*
X13557533Y-11043867D01*
X13769667Y-11043867D01*
X13769667Y-12948867D02*
X13769667Y-12736733D01*
X13557533Y-12736733D01*
X13557533Y-12948867D01*
X13769667Y-12948867D01*
X14917667Y-5077067D02*
X14917667Y-4864933D01*
X14705533Y-4864933D01*
X14705533Y-5077067D01*
X14917667Y-5077067D01*
X14917667Y-6982067D02*
X14917667Y-6769933D01*
X14705533Y-6769933D01*
X14705533Y-6982067D01*
X14917667Y-6982067D01*
X14917667Y-8887067D02*
X14917667Y-8674933D01*
X14705533Y-8674933D01*
X14705533Y-8887067D01*
X14917667Y-8887067D01*
X14917667Y-10792067D02*
X14917667Y-10579933D01*
X14705533Y-10579933D01*
X14705533Y-10792067D01*
X14917667Y-10792067D01*
X14917667Y-12697067D02*
X14917667Y-12484933D01*
X14705533Y-12484933D01*
X14705533Y-12697067D01*
X14917667Y-12697067D01*
X15044667Y-5331067D02*
X15044667Y-5118933D01*
X14832533Y-5118933D01*
X14832533Y-5331067D01*
X15044667Y-5331067D01*
X15044667Y-7236067D02*
X15044667Y-7023933D01*
X14832533Y-7023933D01*
X14832533Y-7236067D01*
X15044667Y-7236067D01*
X15044667Y-9141067D02*
X15044667Y-8928933D01*
X14832533Y-8928933D01*
X14832533Y-9141067D01*
X15044667Y-9141067D01*
X15044667Y-11046067D02*
X15044667Y-10833933D01*
X14832533Y-10833933D01*
X14832533Y-11046067D01*
X15044667Y-11046067D01*
X15044667Y-12951067D02*
X15044667Y-12738933D01*
X14832533Y-12738933D01*
X14832533Y-12951067D01*
X15044667Y-12951067D01*
X15552667Y-5331067D02*
X15552667Y-5118933D01*
X15340533Y-5118933D01*
X15340533Y-5331067D01*
X15552667Y-5331067D01*
X15552667Y-7236067D02*
X15552667Y-7023933D01*
X15340533Y-7023933D01*
X15340533Y-7236067D01*
X15552667Y-7236067D01*
X15552667Y-9141067D02*
X15552667Y-8928933D01*
X15340533Y-8928933D01*
X15340533Y-9141067D01*
X15552667Y-9141067D01*
X15552667Y-11046067D02*
X15552667Y-10833933D01*
X15340533Y-10833933D01*
X15340533Y-11046067D01*
X15552667Y-11046067D01*
X15552667Y-12951067D02*
X15552667Y-12738933D01*
X15340533Y-12738933D01*
X15340533Y-12951067D01*
X15552667Y-12951067D01*
X15679667Y-5077067D02*
X15679667Y-4864933D01*
X15467533Y-4864933D01*
X15467533Y-5077067D01*
X15679667Y-5077067D01*
X15679667Y-6982067D02*
X15679667Y-6769933D01*
X15467533Y-6769933D01*
X15467533Y-6982067D01*
X15679667Y-6982067D01*
X15679667Y-8887067D02*
X15679667Y-8674933D01*
X15467533Y-8674933D01*
X15467533Y-8887067D01*
X15679667Y-8887067D01*
X15679667Y-10792067D02*
X15679667Y-10579933D01*
X15467533Y-10579933D01*
X15467533Y-10792067D01*
X15679667Y-10792067D01*
X15679667Y-12697067D02*
X15679667Y-12484933D01*
X15467533Y-12484933D01*
X15467533Y-12697067D01*
X15679667Y-12697067D01*
X16817767Y-5338967D02*
X16817767Y-5126833D01*
X16605633Y-5126833D01*
X16605633Y-5338967D01*
X16817767Y-5338967D01*
X16817767Y-7243967D02*
X16817767Y-7031833D01*
X16605633Y-7031833D01*
X16605633Y-7243967D01*
X16817767Y-7243967D01*
X16817767Y-9148967D02*
X16817767Y-8936833D01*
X16605633Y-8936833D01*
X16605633Y-9148967D01*
X16817767Y-9148967D01*
X16817767Y-11053967D02*
X16817767Y-10841833D01*
X16605633Y-10841833D01*
X16605633Y-11053967D01*
X16817767Y-11053967D01*
X16944767Y-5592967D02*
X16944767Y-5380833D01*
X16732633Y-5380833D01*
X16732633Y-5592967D01*
X16944767Y-5592967D01*
X16944767Y-7497967D02*
X16944767Y-7285833D01*
X16732633Y-7285833D01*
X16732633Y-7497967D01*
X16944767Y-7497967D01*
X16944767Y-9402967D02*
X16944767Y-9190833D01*
X16732633Y-9190833D01*
X16732633Y-9402967D01*
X16944767Y-9402967D01*
X16944767Y-11307967D02*
X16944767Y-11095833D01*
X16732633Y-11095833D01*
X16732633Y-11307967D01*
X16944767Y-11307967D01*
X17452767Y-5592967D02*
X17452767Y-5380833D01*
X17240633Y-5380833D01*
X17240633Y-5592967D01*
X17452767Y-5592967D01*
X17452767Y-7497967D02*
X17452767Y-7285833D01*
X17240633Y-7285833D01*
X17240633Y-7497967D01*
X17452767Y-7497967D01*
X17452767Y-9402967D02*
X17452767Y-9190833D01*
X17240633Y-9190833D01*
X17240633Y-9402967D01*
X17452767Y-9402967D01*
X17452767Y-11307967D02*
X17452767Y-11095833D01*
X17240633Y-11095833D01*
X17240633Y-11307967D01*
X17452767Y-11307967D01*
X17579767Y-5338967D02*
X17579767Y-5126833D01*
X17367633Y-5126833D01*
X17367633Y-5338967D01*
X17579767Y-5338967D01*
X17579767Y-7243967D02*
X17579767Y-7031833D01*
X17367633Y-7031833D01*
X17367633Y-7243967D01*
X17579767Y-7243967D01*
X17579767Y-9148967D02*
X17579767Y-8936833D01*
X17367633Y-8936833D01*
X17367633Y-9148967D01*
X17579767Y-9148967D01*
X17579767Y-11053967D02*
X17579767Y-10841833D01*
X17367633Y-10841833D01*
X17367633Y-11053967D01*
X17579767Y-11053967D01*
X18727667Y-5818967D02*
X18727667Y-5606833D01*
X18515533Y-5606833D01*
X18515533Y-5818967D01*
X18727667Y-5818967D01*
X18727667Y-7723967D02*
X18727667Y-7511833D01*
X18515533Y-7511833D01*
X18515533Y-7723967D01*
X18727667Y-7723967D01*
X18727667Y-9628967D02*
X18727667Y-9416833D01*
X18515533Y-9416833D01*
X18515533Y-9628967D01*
X18727667Y-9628967D01*
X18727667Y-11533967D02*
X18727667Y-11321833D01*
X18515533Y-11321833D01*
X18515533Y-11533967D01*
X18727667Y-11533967D01*
X18854667Y-6072967D02*
X18854667Y-5860833D01*
X18642533Y-5860833D01*
X18642533Y-6072967D01*
X18854667Y-6072967D01*
X18854667Y-7977967D02*
X18854667Y-7765833D01*
X18642533Y-7765833D01*
X18642533Y-7977967D01*
X18854667Y-7977967D01*
X18854667Y-9882967D02*
X18854667Y-9670833D01*
X18642533Y-9670833D01*
X18642533Y-9882967D01*
X18854667Y-9882967D01*
X18854667Y-11787967D02*
X18854667Y-11575833D01*
X18642533Y-11575833D01*
X18642533Y-11787967D01*
X18854667Y-11787967D01*
X19362667Y-6072967D02*
X19362667Y-5860833D01*
X19150533Y-5860833D01*
X19150533Y-6072967D01*
X19362667Y-6072967D01*
X19362667Y-7977967D02*
X19362667Y-7765833D01*
X19150533Y-7765833D01*
X19150533Y-7977967D01*
X19362667Y-7977967D01*
X19362667Y-9882967D02*
X19362667Y-9670833D01*
X19150533Y-9670833D01*
X19150533Y-9882967D01*
X19362667Y-9882967D01*
X19362667Y-11787967D02*
X19362667Y-11575833D01*
X19150533Y-11575833D01*
X19150533Y-11787967D01*
X19362667Y-11787967D01*
X19489667Y-5818967D02*
X19489667Y-5606833D01*
X19277533Y-5606833D01*
X19277533Y-5818967D01*
X19489667Y-5818967D01*
X19489667Y-7723967D02*
X19489667Y-7511833D01*
X19277533Y-7511833D01*
X19277533Y-7723967D01*
X19489667Y-7723967D01*
X19489667Y-9628967D02*
X19489667Y-9416833D01*
X19277533Y-9416833D01*
X19277533Y-9628967D01*
X19489667Y-9628967D01*
X19489667Y-11533967D02*
X19489667Y-11321833D01*
X19277533Y-11321833D01*
X19277533Y-11533967D01*
X19489667Y-11533967D01*
X20627601Y-5819141D02*
X20627601Y-5607007D01*
X20415467Y-5607007D01*
X20415467Y-5819141D01*
X20627601Y-5819141D01*
X20627601Y-7724141D02*
X20627601Y-7512007D01*
X20415467Y-7512007D01*
X20415467Y-7724141D01*
X20627601Y-7724141D01*
X20627601Y-9629141D02*
X20627601Y-9417007D01*
X20415467Y-9417007D01*
X20415467Y-9629141D01*
X20627601Y-9629141D01*
X20627601Y-11534141D02*
X20627601Y-11322007D01*
X20415467Y-11322007D01*
X20415467Y-11534141D01*
X20627601Y-11534141D01*
X20627601Y-13439141D02*
X20627601Y-13227007D01*
X20415467Y-13227007D01*
X20415467Y-13439141D01*
X20627601Y-13439141D01*
X20754601Y-6073141D02*
X20754601Y-5861007D01*
X20542467Y-5861007D01*
X20542467Y-6073141D01*
X20754601Y-6073141D01*
X20754601Y-7978141D02*
X20754601Y-7766007D01*
X20542467Y-7766007D01*
X20542467Y-7978141D01*
X20754601Y-7978141D01*
X20754601Y-9883141D02*
X20754601Y-9671007D01*
X20542467Y-9671007D01*
X20542467Y-9883141D01*
X20754601Y-9883141D01*
X20754601Y-11788141D02*
X20754601Y-11576007D01*
X20542467Y-11576007D01*
X20542467Y-11788141D01*
X20754601Y-11788141D01*
X20754601Y-13693141D02*
X20754601Y-13481007D01*
X20542467Y-13481007D01*
X20542467Y-13693141D01*
X20754601Y-13693141D01*
X21262601Y-6073141D02*
X21262601Y-5861007D01*
X21050467Y-5861007D01*
X21050467Y-6073141D01*
X21262601Y-6073141D01*
X21262601Y-7978141D02*
X21262601Y-7766007D01*
X21050467Y-7766007D01*
X21050467Y-7978141D01*
X21262601Y-7978141D01*
X21262601Y-9883141D02*
X21262601Y-9671007D01*
X21050467Y-9671007D01*
X21050467Y-9883141D01*
X21262601Y-9883141D01*
X21262601Y-11788141D02*
X21262601Y-11576007D01*
X21050467Y-11576007D01*
X21050467Y-11788141D01*
X21262601Y-11788141D01*
X21262601Y-13693141D02*
X21262601Y-13481007D01*
X21050467Y-13481007D01*
X21050467Y-13693141D01*
X21262601Y-13693141D01*
X21389601Y-5819141D02*
X21389601Y-5607007D01*
X21177467Y-5607007D01*
X21177467Y-5819141D01*
X21389601Y-5819141D01*
X21389601Y-7724141D02*
X21389601Y-7512007D01*
X21177467Y-7512007D01*
X21177467Y-7724141D01*
X21389601Y-7724141D01*
X21389601Y-9629141D02*
X21389601Y-9417007D01*
X21177467Y-9417007D01*
X21177467Y-9629141D01*
X21389601Y-9629141D01*
X21389601Y-11534141D02*
X21389601Y-11322007D01*
X21177467Y-11322007D01*
X21177467Y-11534141D01*
X21389601Y-11534141D01*
X21389601Y-13439141D02*
X21389601Y-13227007D01*
X21177467Y-13227007D01*
X21177467Y-13439141D01*
X21389601Y-13439141D01*
D16*
X9000800Y-13767900D02*
X9205800Y-13562900D01*
X9000800Y-13357900D01*
X8795800Y-13562900D01*
X9000800Y-13767900D01*
X9321800Y-10898400D02*
X9526800Y-10693400D01*
X9321800Y-10488400D01*
X9116800Y-10693400D01*
X9321800Y-10898400D01*
X11097400Y-13260400D02*
X11302400Y-13055400D01*
X11097400Y-12850400D01*
X10892400Y-13055400D01*
X11097400Y-13260400D01*
X11382718Y-5423938D02*
X11587718Y-5218938D01*
X11382718Y-5013938D01*
X11177718Y-5218938D01*
X11382718Y-5423938D01*
X11382718Y-7328938D02*
X11587718Y-7123938D01*
X11382718Y-6918938D01*
X11177718Y-7123938D01*
X11382718Y-7328938D01*
X11382718Y-9233938D02*
X11587718Y-9028938D01*
X11382718Y-8823938D01*
X11177718Y-9028938D01*
X11382718Y-9233938D01*
X11382718Y-11138938D02*
X11587718Y-10933938D01*
X11382718Y-10728938D01*
X11177718Y-10933938D01*
X11382718Y-11138938D01*
X13282600Y-5173800D02*
X13487600Y-4968800D01*
X13282600Y-4763800D01*
X13077600Y-4968800D01*
X13282600Y-5173800D01*
X13282600Y-7078800D02*
X13487600Y-6873800D01*
X13282600Y-6668800D01*
X13077600Y-6873800D01*
X13282600Y-7078800D01*
X13282600Y-8983800D02*
X13487600Y-8778800D01*
X13282600Y-8573800D01*
X13077600Y-8778800D01*
X13282600Y-8983800D01*
X13282600Y-10888800D02*
X13487600Y-10683800D01*
X13282600Y-10478800D01*
X13077600Y-10683800D01*
X13282600Y-10888800D01*
X13282600Y-12793800D02*
X13487600Y-12588800D01*
X13282600Y-12383800D01*
X13077600Y-12588800D01*
X13282600Y-12793800D01*
X15192600Y-4922000D02*
X15397600Y-4717000D01*
X15192600Y-4512000D01*
X14987600Y-4717000D01*
X15192600Y-4922000D01*
X15192600Y-6827000D02*
X15397600Y-6622000D01*
X15192600Y-6417000D01*
X14987600Y-6622000D01*
X15192600Y-6827000D01*
X15192600Y-8732000D02*
X15397600Y-8527000D01*
X15192600Y-8322000D01*
X14987600Y-8527000D01*
X15192600Y-8732000D01*
X15192600Y-10637000D02*
X15397600Y-10432000D01*
X15192600Y-10227000D01*
X14987600Y-10432000D01*
X15192600Y-10637000D01*
X15192600Y-12542000D02*
X15397600Y-12337000D01*
X15192600Y-12132000D01*
X14987600Y-12337000D01*
X15192600Y-12542000D01*
X17092700Y-5183900D02*
X17297700Y-4978900D01*
X17092700Y-4773900D01*
X16887700Y-4978900D01*
X17092700Y-5183900D01*
X17092700Y-7088900D02*
X17297700Y-6883900D01*
X17092700Y-6678900D01*
X16887700Y-6883900D01*
X17092700Y-7088900D01*
X17092700Y-8993900D02*
X17297700Y-8788900D01*
X17092700Y-8583900D01*
X16887700Y-8788900D01*
X17092700Y-8993900D01*
X17092700Y-10898900D02*
X17297700Y-10693900D01*
X17092700Y-10488900D01*
X16887700Y-10693900D01*
X17092700Y-10898900D01*
X19002600Y-5663900D02*
X19207600Y-5458900D01*
X19002600Y-5253900D01*
X18797600Y-5458900D01*
X19002600Y-5663900D01*
X19002600Y-7568900D02*
X19207600Y-7363900D01*
X19002600Y-7158900D01*
X18797600Y-7363900D01*
X19002600Y-7568900D01*
X19002600Y-9473900D02*
X19207600Y-9268900D01*
X19002600Y-9063900D01*
X18797600Y-9268900D01*
X19002600Y-9473900D01*
X19002600Y-11378900D02*
X19207600Y-11173900D01*
X19002600Y-10968900D01*
X18797600Y-11173900D01*
X19002600Y-11378900D01*
X20902534Y-5664074D02*
X21107534Y-5459074D01*
X20902534Y-5254074D01*
X20697534Y-5459074D01*
X20902534Y-5664074D01*
X20902534Y-7569074D02*
X21107534Y-7364074D01*
X20902534Y-7159074D01*
X20697534Y-7364074D01*
X20902534Y-7569074D01*
X20902534Y-9474074D02*
X21107534Y-9269074D01*
X20902534Y-9064074D01*
X20697534Y-9269074D01*
X20902534Y-9474074D01*
X20902534Y-11379074D02*
X21107534Y-11174074D01*
X20902534Y-10969074D01*
X20697534Y-11174074D01*
X20902534Y-11379074D01*
X20902534Y-13284074D02*
X21107534Y-13079074D01*
X20902534Y-12874074D01*
X20697534Y-13079074D01*
X20902534Y-13284074D01*
D11*
X7795219Y-15205976D02*
X7795219Y-15005976D01*
X7842838Y-15005976D01*
X7871409Y-15015500D01*
X7890457Y-15034548D01*
X7899981Y-15053595D01*
X7909505Y-15091690D01*
X7909505Y-15120262D01*
X7899981Y-15158357D01*
X7890457Y-15177405D01*
X7871409Y-15196452D01*
X7842838Y-15205976D01*
X7795219Y-15205976D01*
X7995219Y-15205976D02*
X7995219Y-15072643D01*
X7995219Y-15110738D02*
X8004743Y-15091690D01*
X8014267Y-15082167D01*
X8033314Y-15072643D01*
X8052362Y-15072643D01*
X8119028Y-15205976D02*
X8119028Y-15072643D01*
X8119028Y-15005976D02*
X8109505Y-15015500D01*
X8119028Y-15025024D01*
X8128552Y-15015500D01*
X8119028Y-15005976D01*
X8119028Y-15025024D01*
X8242838Y-15205976D02*
X8223790Y-15196452D01*
X8214267Y-15177405D01*
X8214267Y-15005976D01*
X8347600Y-15205976D02*
X8328552Y-15196452D01*
X8319028Y-15177405D01*
X8319028Y-15005976D01*
X8576171Y-15205976D02*
X8576171Y-15005976D01*
X8642838Y-15148833D01*
X8709505Y-15005976D01*
X8709505Y-15205976D01*
X8890457Y-15205976D02*
X8890457Y-15101214D01*
X8880933Y-15082167D01*
X8861886Y-15072643D01*
X8823790Y-15072643D01*
X8804743Y-15082167D01*
X8890457Y-15196452D02*
X8871410Y-15205976D01*
X8823790Y-15205976D01*
X8804743Y-15196452D01*
X8795219Y-15177405D01*
X8795219Y-15158357D01*
X8804743Y-15139309D01*
X8823790Y-15129786D01*
X8871410Y-15129786D01*
X8890457Y-15120262D01*
X8985695Y-15072643D02*
X8985695Y-15272643D01*
X8985695Y-15082167D02*
X9004743Y-15072643D01*
X9042838Y-15072643D01*
X9061886Y-15082167D01*
X9071410Y-15091690D01*
X9080933Y-15110738D01*
X9080933Y-15167881D01*
X9071410Y-15186928D01*
X9061886Y-15196452D01*
X9042838Y-15205976D01*
X9004743Y-15205976D01*
X8985695Y-15196452D01*
X9166648Y-15186928D02*
X9176171Y-15196452D01*
X9166648Y-15205976D01*
X9157124Y-15196452D01*
X9166648Y-15186928D01*
X9166648Y-15205976D01*
X9166648Y-15082167D02*
X9176171Y-15091690D01*
X9166648Y-15101214D01*
X9157124Y-15091690D01*
X9166648Y-15082167D01*
X9166648Y-15101214D01*
D12*
X7417600Y-15475500D02*
X7537600Y-15595500D01*
X7537600Y-15475500D02*
X7417600Y-15595500D01*
D11*
X7899981Y-15625976D02*
X7785695Y-15625976D01*
X7842838Y-15625976D02*
X7842838Y-15425976D01*
X7823790Y-15454548D01*
X7804743Y-15473595D01*
X7785695Y-15483119D01*
X7985695Y-15606928D02*
X7995219Y-15616452D01*
X7985695Y-15625976D01*
X7976171Y-15616452D01*
X7985695Y-15606928D01*
X7985695Y-15625976D01*
X8071409Y-15445024D02*
X8080933Y-15435500D01*
X8099981Y-15425976D01*
X8147600Y-15425976D01*
X8166648Y-15435500D01*
X8176171Y-15445024D01*
X8185695Y-15464071D01*
X8185695Y-15483119D01*
X8176171Y-15511690D01*
X8061886Y-15625976D01*
X8185695Y-15625976D01*
X8309505Y-15425976D02*
X8328552Y-15425976D01*
X8347600Y-15435500D01*
X8357124Y-15445024D01*
X8366648Y-15464071D01*
X8376171Y-15502167D01*
X8376171Y-15549786D01*
X8366648Y-15587881D01*
X8357124Y-15606928D01*
X8347600Y-15616452D01*
X8328552Y-15625976D01*
X8309505Y-15625976D01*
X8290457Y-15616452D01*
X8280933Y-15606928D01*
X8271409Y-15587881D01*
X8261886Y-15549786D01*
X8261886Y-15502167D01*
X8271409Y-15464071D01*
X8280933Y-15445024D01*
X8290457Y-15435500D01*
X8309505Y-15425976D01*
X8499981Y-15425976D02*
X8519029Y-15425976D01*
X8538076Y-15435500D01*
X8547600Y-15445024D01*
X8557124Y-15464071D01*
X8566648Y-15502167D01*
X8566648Y-15549786D01*
X8557124Y-15587881D01*
X8547600Y-15606928D01*
X8538076Y-15616452D01*
X8519029Y-15625976D01*
X8499981Y-15625976D01*
X8480933Y-15616452D01*
X8471410Y-15606928D01*
X8461886Y-15587881D01*
X8452362Y-15549786D01*
X8452362Y-15502167D01*
X8461886Y-15464071D01*
X8471410Y-15445024D01*
X8480933Y-15435500D01*
X8499981Y-15425976D01*
X8652362Y-15625976D02*
X8652362Y-15492643D01*
X8652362Y-15511690D02*
X8661886Y-15502167D01*
X8680933Y-15492643D01*
X8709505Y-15492643D01*
X8728552Y-15502167D01*
X8738076Y-15521214D01*
X8738076Y-15625976D01*
X8738076Y-15521214D02*
X8747600Y-15502167D01*
X8766648Y-15492643D01*
X8795219Y-15492643D01*
X8814267Y-15502167D01*
X8823790Y-15521214D01*
X8823790Y-15625976D01*
X8919029Y-15625976D02*
X8919029Y-15492643D01*
X8919029Y-15511690D02*
X8928552Y-15502167D01*
X8947600Y-15492643D01*
X8976171Y-15492643D01*
X8995219Y-15502167D01*
X9004743Y-15521214D01*
X9004743Y-15625976D01*
X9004743Y-15521214D02*
X9014267Y-15502167D01*
X9033314Y-15492643D01*
X9061886Y-15492643D01*
X9080933Y-15502167D01*
X9090457Y-15521214D01*
X9090457Y-15625976D01*
X9480933Y-15416452D02*
X9309505Y-15673595D01*
X9738076Y-15425976D02*
X9757124Y-15425976D01*
X9776171Y-15435500D01*
X9785695Y-15445024D01*
X9795219Y-15464071D01*
X9804743Y-15502167D01*
X9804743Y-15549786D01*
X9795219Y-15587881D01*
X9785695Y-15606928D01*
X9776171Y-15616452D01*
X9757124Y-15625976D01*
X9738076Y-15625976D01*
X9719029Y-15616452D01*
X9709505Y-15606928D01*
X9699981Y-15587881D01*
X9690457Y-15549786D01*
X9690457Y-15502167D01*
X9699981Y-15464071D01*
X9709505Y-15445024D01*
X9719029Y-15435500D01*
X9738076Y-15425976D01*
X9890457Y-15606928D02*
X9899981Y-15616452D01*
X9890457Y-15625976D01*
X9880933Y-15616452D01*
X9890457Y-15606928D01*
X9890457Y-15625976D01*
X10023790Y-15425976D02*
X10042838Y-15425976D01*
X10061886Y-15435500D01*
X10071410Y-15445024D01*
X10080933Y-15464071D01*
X10090457Y-15502167D01*
X10090457Y-15549786D01*
X10080933Y-15587881D01*
X10071410Y-15606928D01*
X10061886Y-15616452D01*
X10042838Y-15625976D01*
X10023790Y-15625976D01*
X10004743Y-15616452D01*
X9995219Y-15606928D01*
X9985695Y-15587881D01*
X9976171Y-15549786D01*
X9976171Y-15502167D01*
X9985695Y-15464071D01*
X9995219Y-15445024D01*
X10004743Y-15435500D01*
X10023790Y-15425976D01*
X10261886Y-15492643D02*
X10261886Y-15625976D01*
X10214267Y-15416452D02*
X10166648Y-15559309D01*
X10290457Y-15559309D01*
X10347600Y-15425976D02*
X10480933Y-15425976D01*
X10395219Y-15625976D01*
X10547600Y-15445024D02*
X10557124Y-15435500D01*
X10576171Y-15425976D01*
X10623790Y-15425976D01*
X10642838Y-15435500D01*
X10652362Y-15445024D01*
X10661886Y-15464071D01*
X10661886Y-15483119D01*
X10652362Y-15511690D01*
X10538076Y-15625976D01*
X10661886Y-15625976D01*
X10738076Y-15425976D02*
X10738076Y-15464071D01*
X10814267Y-15425976D02*
X10814267Y-15464071D01*
X11109505Y-15702167D02*
X11099981Y-15692643D01*
X11080933Y-15664071D01*
X11071410Y-15645024D01*
X11061886Y-15616452D01*
X11052362Y-15568833D01*
X11052362Y-15530738D01*
X11061886Y-15483119D01*
X11071410Y-15454548D01*
X11080933Y-15435500D01*
X11099981Y-15406928D01*
X11109505Y-15397405D01*
X11271409Y-15492643D02*
X11271409Y-15625976D01*
X11223790Y-15416452D02*
X11176171Y-15559309D01*
X11299981Y-15559309D01*
X11528552Y-15625976D02*
X11528552Y-15425976D01*
X11614267Y-15625976D02*
X11614267Y-15521214D01*
X11604743Y-15502167D01*
X11585695Y-15492643D01*
X11557124Y-15492643D01*
X11538076Y-15502167D01*
X11528552Y-15511690D01*
X11738076Y-15625976D02*
X11719028Y-15616452D01*
X11709505Y-15606928D01*
X11699981Y-15587881D01*
X11699981Y-15530738D01*
X11709505Y-15511690D01*
X11719028Y-15502167D01*
X11738076Y-15492643D01*
X11766648Y-15492643D01*
X11785695Y-15502167D01*
X11795219Y-15511690D01*
X11804743Y-15530738D01*
X11804743Y-15587881D01*
X11795219Y-15606928D01*
X11785695Y-15616452D01*
X11766648Y-15625976D01*
X11738076Y-15625976D01*
X11919028Y-15625976D02*
X11899981Y-15616452D01*
X11890457Y-15597405D01*
X11890457Y-15425976D01*
X12071409Y-15616452D02*
X12052362Y-15625976D01*
X12014267Y-15625976D01*
X11995219Y-15616452D01*
X11985695Y-15597405D01*
X11985695Y-15521214D01*
X11995219Y-15502167D01*
X12014267Y-15492643D01*
X12052362Y-15492643D01*
X12071409Y-15502167D01*
X12080933Y-15521214D01*
X12080933Y-15540262D01*
X11985695Y-15559309D01*
X12157124Y-15616452D02*
X12176171Y-15625976D01*
X12214267Y-15625976D01*
X12233314Y-15616452D01*
X12242838Y-15597405D01*
X12242838Y-15587881D01*
X12233314Y-15568833D01*
X12214267Y-15559309D01*
X12185695Y-15559309D01*
X12166648Y-15549786D01*
X12157124Y-15530738D01*
X12157124Y-15521214D01*
X12166648Y-15502167D01*
X12185695Y-15492643D01*
X12214267Y-15492643D01*
X12233314Y-15502167D01*
X12309505Y-15702167D02*
X12319028Y-15692643D01*
X12338076Y-15664071D01*
X12347600Y-15645024D01*
X12357124Y-15616452D01*
X12366648Y-15568833D01*
X12366648Y-15530738D01*
X12357124Y-15483119D01*
X12347600Y-15454548D01*
X12338076Y-15435500D01*
X12319028Y-15406928D01*
X12309505Y-15397405D01*
X12671409Y-15702167D02*
X12661886Y-15692643D01*
X12642838Y-15664071D01*
X12633314Y-15645024D01*
X12623790Y-15616452D01*
X12614267Y-15568833D01*
X12614267Y-15530738D01*
X12623790Y-15483119D01*
X12633314Y-15454548D01*
X12642838Y-15435500D01*
X12661886Y-15406928D01*
X12671409Y-15397405D01*
X12747600Y-15492643D02*
X12747600Y-15625976D01*
X12747600Y-15511690D02*
X12757124Y-15502167D01*
X12776171Y-15492643D01*
X12804743Y-15492643D01*
X12823790Y-15502167D01*
X12833314Y-15521214D01*
X12833314Y-15625976D01*
X12957124Y-15625976D02*
X12938076Y-15616452D01*
X12928552Y-15606928D01*
X12919028Y-15587881D01*
X12919028Y-15530738D01*
X12928552Y-15511690D01*
X12938076Y-15502167D01*
X12957124Y-15492643D01*
X12985695Y-15492643D01*
X13004743Y-15502167D01*
X13014267Y-15511690D01*
X13023790Y-15530738D01*
X13023790Y-15587881D01*
X13014267Y-15606928D01*
X13004743Y-15616452D01*
X12985695Y-15625976D01*
X12957124Y-15625976D01*
X13080933Y-15492643D02*
X13157124Y-15492643D01*
X13109505Y-15425976D02*
X13109505Y-15597405D01*
X13119028Y-15616452D01*
X13138076Y-15625976D01*
X13157124Y-15625976D01*
X13376171Y-15492643D02*
X13376171Y-15692643D01*
X13376171Y-15502167D02*
X13395219Y-15492643D01*
X13433314Y-15492643D01*
X13452362Y-15502167D01*
X13461886Y-15511690D01*
X13471409Y-15530738D01*
X13471409Y-15587881D01*
X13461886Y-15606928D01*
X13452362Y-15616452D01*
X13433314Y-15625976D01*
X13395219Y-15625976D01*
X13376171Y-15616452D01*
X13585695Y-15625976D02*
X13566648Y-15616452D01*
X13557124Y-15597405D01*
X13557124Y-15425976D01*
X13747600Y-15625976D02*
X13747600Y-15521214D01*
X13738076Y-15502167D01*
X13719028Y-15492643D01*
X13680933Y-15492643D01*
X13661886Y-15502167D01*
X13747600Y-15616452D02*
X13728552Y-15625976D01*
X13680933Y-15625976D01*
X13661886Y-15616452D01*
X13652362Y-15597405D01*
X13652362Y-15578357D01*
X13661886Y-15559309D01*
X13680933Y-15549786D01*
X13728552Y-15549786D01*
X13747600Y-15540262D01*
X13814267Y-15492643D02*
X13890457Y-15492643D01*
X13842838Y-15425976D02*
X13842838Y-15597405D01*
X13852362Y-15616452D01*
X13871409Y-15625976D01*
X13890457Y-15625976D01*
X14033314Y-15616452D02*
X14014267Y-15625976D01*
X13976171Y-15625976D01*
X13957124Y-15616452D01*
X13947600Y-15597405D01*
X13947600Y-15521214D01*
X13957124Y-15502167D01*
X13976171Y-15492643D01*
X14014267Y-15492643D01*
X14033314Y-15502167D01*
X14042838Y-15521214D01*
X14042838Y-15540262D01*
X13947600Y-15559309D01*
X14214267Y-15625976D02*
X14214267Y-15425976D01*
X14214267Y-15616452D02*
X14195219Y-15625976D01*
X14157124Y-15625976D01*
X14138076Y-15616452D01*
X14128552Y-15606928D01*
X14119028Y-15587881D01*
X14119028Y-15530738D01*
X14128552Y-15511690D01*
X14138076Y-15502167D01*
X14157124Y-15492643D01*
X14195219Y-15492643D01*
X14214267Y-15502167D01*
X14290457Y-15702167D02*
X14299981Y-15692643D01*
X14319028Y-15664071D01*
X14328552Y-15645024D01*
X14338076Y-15616452D01*
X14347600Y-15568833D01*
X14347600Y-15530738D01*
X14338076Y-15483119D01*
X14328552Y-15454548D01*
X14319028Y-15435500D01*
X14299981Y-15406928D01*
X14290457Y-15397405D01*
D13*
X7537600Y-15799500D02*
G75*
G03*
X7537600Y-15799500I-75000J0D01*
G01*
D11*
X7899981Y-15889976D02*
X7785695Y-15889976D01*
X7842838Y-15889976D02*
X7842838Y-15689976D01*
X7823790Y-15718548D01*
X7804743Y-15737595D01*
X7785695Y-15747119D01*
X7985695Y-15870928D02*
X7995219Y-15880452D01*
X7985695Y-15889976D01*
X7976171Y-15880452D01*
X7985695Y-15870928D01*
X7985695Y-15889976D01*
X8176171Y-15689976D02*
X8080933Y-15689976D01*
X8071409Y-15785214D01*
X8080933Y-15775690D01*
X8099981Y-15766167D01*
X8147600Y-15766167D01*
X8166648Y-15775690D01*
X8176171Y-15785214D01*
X8185695Y-15804262D01*
X8185695Y-15851881D01*
X8176171Y-15870928D01*
X8166648Y-15880452D01*
X8147600Y-15889976D01*
X8099981Y-15889976D01*
X8080933Y-15880452D01*
X8071409Y-15870928D01*
X8309505Y-15689976D02*
X8328552Y-15689976D01*
X8347600Y-15699500D01*
X8357124Y-15709024D01*
X8366648Y-15728071D01*
X8376171Y-15766167D01*
X8376171Y-15813786D01*
X8366648Y-15851881D01*
X8357124Y-15870928D01*
X8347600Y-15880452D01*
X8328552Y-15889976D01*
X8309505Y-15889976D01*
X8290457Y-15880452D01*
X8280933Y-15870928D01*
X8271409Y-15851881D01*
X8261886Y-15813786D01*
X8261886Y-15766167D01*
X8271409Y-15728071D01*
X8280933Y-15709024D01*
X8290457Y-15699500D01*
X8309505Y-15689976D01*
X8499981Y-15689976D02*
X8519029Y-15689976D01*
X8538076Y-15699500D01*
X8547600Y-15709024D01*
X8557124Y-15728071D01*
X8566648Y-15766167D01*
X8566648Y-15813786D01*
X8557124Y-15851881D01*
X8547600Y-15870928D01*
X8538076Y-15880452D01*
X8519029Y-15889976D01*
X8499981Y-15889976D01*
X8480933Y-15880452D01*
X8471410Y-15870928D01*
X8461886Y-15851881D01*
X8452362Y-15813786D01*
X8452362Y-15766167D01*
X8461886Y-15728071D01*
X8471410Y-15709024D01*
X8480933Y-15699500D01*
X8499981Y-15689976D01*
X8652362Y-15889976D02*
X8652362Y-15756643D01*
X8652362Y-15775690D02*
X8661886Y-15766167D01*
X8680933Y-15756643D01*
X8709505Y-15756643D01*
X8728552Y-15766167D01*
X8738076Y-15785214D01*
X8738076Y-15889976D01*
X8738076Y-15785214D02*
X8747600Y-15766167D01*
X8766648Y-15756643D01*
X8795219Y-15756643D01*
X8814267Y-15766167D01*
X8823790Y-15785214D01*
X8823790Y-15889976D01*
X8919029Y-15889976D02*
X8919029Y-15756643D01*
X8919029Y-15775690D02*
X8928552Y-15766167D01*
X8947600Y-15756643D01*
X8976171Y-15756643D01*
X8995219Y-15766167D01*
X9004743Y-15785214D01*
X9004743Y-15889976D01*
X9004743Y-15785214D02*
X9014267Y-15766167D01*
X9033314Y-15756643D01*
X9061886Y-15756643D01*
X9080933Y-15766167D01*
X9090457Y-15785214D01*
X9090457Y-15889976D01*
X9480933Y-15680452D02*
X9309505Y-15937595D01*
X9738076Y-15689976D02*
X9757124Y-15689976D01*
X9776171Y-15699500D01*
X9785695Y-15709024D01*
X9795219Y-15728071D01*
X9804743Y-15766167D01*
X9804743Y-15813786D01*
X9795219Y-15851881D01*
X9785695Y-15870928D01*
X9776171Y-15880452D01*
X9757124Y-15889976D01*
X9738076Y-15889976D01*
X9719029Y-15880452D01*
X9709505Y-15870928D01*
X9699981Y-15851881D01*
X9690457Y-15813786D01*
X9690457Y-15766167D01*
X9699981Y-15728071D01*
X9709505Y-15709024D01*
X9719029Y-15699500D01*
X9738076Y-15689976D01*
X9890457Y-15870928D02*
X9899981Y-15880452D01*
X9890457Y-15889976D01*
X9880933Y-15880452D01*
X9890457Y-15870928D01*
X9890457Y-15889976D01*
X10023790Y-15689976D02*
X10042838Y-15689976D01*
X10061886Y-15699500D01*
X10071410Y-15709024D01*
X10080933Y-15728071D01*
X10090457Y-15766167D01*
X10090457Y-15813786D01*
X10080933Y-15851881D01*
X10071410Y-15870928D01*
X10061886Y-15880452D01*
X10042838Y-15889976D01*
X10023790Y-15889976D01*
X10004743Y-15880452D01*
X9995219Y-15870928D01*
X9985695Y-15851881D01*
X9976171Y-15813786D01*
X9976171Y-15766167D01*
X9985695Y-15728071D01*
X9995219Y-15709024D01*
X10004743Y-15699500D01*
X10023790Y-15689976D01*
X10271410Y-15689976D02*
X10176171Y-15689976D01*
X10166648Y-15785214D01*
X10176171Y-15775690D01*
X10195219Y-15766167D01*
X10242838Y-15766167D01*
X10261886Y-15775690D01*
X10271410Y-15785214D01*
X10280933Y-15804262D01*
X10280933Y-15851881D01*
X10271410Y-15870928D01*
X10261886Y-15880452D01*
X10242838Y-15889976D01*
X10195219Y-15889976D01*
X10176171Y-15880452D01*
X10166648Y-15870928D01*
X10376171Y-15889976D02*
X10414267Y-15889976D01*
X10433314Y-15880452D01*
X10442838Y-15870928D01*
X10461886Y-15842357D01*
X10471410Y-15804262D01*
X10471410Y-15728071D01*
X10461886Y-15709024D01*
X10452362Y-15699500D01*
X10433314Y-15689976D01*
X10395219Y-15689976D01*
X10376171Y-15699500D01*
X10366648Y-15709024D01*
X10357124Y-15728071D01*
X10357124Y-15775690D01*
X10366648Y-15794738D01*
X10376171Y-15804262D01*
X10395219Y-15813786D01*
X10433314Y-15813786D01*
X10452362Y-15804262D01*
X10461886Y-15794738D01*
X10471410Y-15775690D01*
X10661886Y-15889976D02*
X10547600Y-15889976D01*
X10604743Y-15889976D02*
X10604743Y-15689976D01*
X10585695Y-15718548D01*
X10566648Y-15737595D01*
X10547600Y-15747119D01*
X10738076Y-15689976D02*
X10738076Y-15728071D01*
X10814267Y-15689976D02*
X10814267Y-15728071D01*
X11109505Y-15966167D02*
X11099981Y-15956643D01*
X11080933Y-15928071D01*
X11071410Y-15909024D01*
X11061886Y-15880452D01*
X11052362Y-15832833D01*
X11052362Y-15794738D01*
X11061886Y-15747119D01*
X11071410Y-15718548D01*
X11080933Y-15699500D01*
X11099981Y-15670928D01*
X11109505Y-15661405D01*
X11223790Y-15689976D02*
X11242838Y-15689976D01*
X11261886Y-15699500D01*
X11271409Y-15709024D01*
X11280933Y-15728071D01*
X11290457Y-15766167D01*
X11290457Y-15813786D01*
X11280933Y-15851881D01*
X11271409Y-15870928D01*
X11261886Y-15880452D01*
X11242838Y-15889976D01*
X11223790Y-15889976D01*
X11204743Y-15880452D01*
X11195219Y-15870928D01*
X11185695Y-15851881D01*
X11176171Y-15813786D01*
X11176171Y-15766167D01*
X11185695Y-15728071D01*
X11195219Y-15709024D01*
X11204743Y-15699500D01*
X11223790Y-15689976D01*
X11528552Y-15889976D02*
X11528552Y-15689976D01*
X11614267Y-15889976D02*
X11614267Y-15785214D01*
X11604743Y-15766167D01*
X11585695Y-15756643D01*
X11557124Y-15756643D01*
X11538076Y-15766167D01*
X11528552Y-15775690D01*
X11738076Y-15889976D02*
X11719028Y-15880452D01*
X11709505Y-15870928D01*
X11699981Y-15851881D01*
X11699981Y-15794738D01*
X11709505Y-15775690D01*
X11719028Y-15766167D01*
X11738076Y-15756643D01*
X11766648Y-15756643D01*
X11785695Y-15766167D01*
X11795219Y-15775690D01*
X11804743Y-15794738D01*
X11804743Y-15851881D01*
X11795219Y-15870928D01*
X11785695Y-15880452D01*
X11766648Y-15889976D01*
X11738076Y-15889976D01*
X11919028Y-15889976D02*
X11899981Y-15880452D01*
X11890457Y-15861405D01*
X11890457Y-15689976D01*
X12071409Y-15880452D02*
X12052362Y-15889976D01*
X12014267Y-15889976D01*
X11995219Y-15880452D01*
X11985695Y-15861405D01*
X11985695Y-15785214D01*
X11995219Y-15766167D01*
X12014267Y-15756643D01*
X12052362Y-15756643D01*
X12071409Y-15766167D01*
X12080933Y-15785214D01*
X12080933Y-15804262D01*
X11985695Y-15823309D01*
X12157124Y-15880452D02*
X12176171Y-15889976D01*
X12214267Y-15889976D01*
X12233314Y-15880452D01*
X12242838Y-15861405D01*
X12242838Y-15851881D01*
X12233314Y-15832833D01*
X12214267Y-15823309D01*
X12185695Y-15823309D01*
X12166648Y-15813786D01*
X12157124Y-15794738D01*
X12157124Y-15785214D01*
X12166648Y-15766167D01*
X12185695Y-15756643D01*
X12214267Y-15756643D01*
X12233314Y-15766167D01*
X12480933Y-15813786D02*
X12633314Y-15813786D01*
X12557124Y-15889976D02*
X12557124Y-15737595D01*
X12871409Y-15709024D02*
X12880933Y-15699500D01*
X12899981Y-15689976D01*
X12947600Y-15689976D01*
X12966648Y-15699500D01*
X12976171Y-15709024D01*
X12985695Y-15728071D01*
X12985695Y-15747119D01*
X12976171Y-15775690D01*
X12861886Y-15889976D01*
X12985695Y-15889976D01*
X13214267Y-15880452D02*
X13233314Y-15889976D01*
X13271409Y-15889976D01*
X13290457Y-15880452D01*
X13299981Y-15861405D01*
X13299981Y-15851881D01*
X13290457Y-15832833D01*
X13271409Y-15823309D01*
X13242838Y-15823309D01*
X13223790Y-15813786D01*
X13214267Y-15794738D01*
X13214267Y-15785214D01*
X13223790Y-15766167D01*
X13242838Y-15756643D01*
X13271409Y-15756643D01*
X13290457Y-15766167D01*
X13414267Y-15889976D02*
X13395219Y-15880452D01*
X13385695Y-15861405D01*
X13385695Y-15689976D01*
X13519028Y-15889976D02*
X13499981Y-15880452D01*
X13490457Y-15870928D01*
X13480933Y-15851881D01*
X13480933Y-15794738D01*
X13490457Y-15775690D01*
X13499981Y-15766167D01*
X13519028Y-15756643D01*
X13547600Y-15756643D01*
X13566648Y-15766167D01*
X13576171Y-15775690D01*
X13585695Y-15794738D01*
X13585695Y-15851881D01*
X13576171Y-15870928D01*
X13566648Y-15880452D01*
X13547600Y-15889976D01*
X13519028Y-15889976D01*
X13642838Y-15756643D02*
X13719028Y-15756643D01*
X13671409Y-15689976D02*
X13671409Y-15861405D01*
X13680933Y-15880452D01*
X13699981Y-15889976D01*
X13719028Y-15889976D01*
X13776171Y-15880452D02*
X13795219Y-15889976D01*
X13833314Y-15889976D01*
X13852362Y-15880452D01*
X13861886Y-15861405D01*
X13861886Y-15851881D01*
X13852362Y-15832833D01*
X13833314Y-15823309D01*
X13804743Y-15823309D01*
X13785695Y-15813786D01*
X13776171Y-15794738D01*
X13776171Y-15785214D01*
X13785695Y-15766167D01*
X13804743Y-15756643D01*
X13833314Y-15756643D01*
X13852362Y-15766167D01*
X13928552Y-15966167D02*
X13938076Y-15956643D01*
X13957124Y-15928071D01*
X13966648Y-15909024D01*
X13976171Y-15880452D01*
X13985695Y-15832833D01*
X13985695Y-15794738D01*
X13976171Y-15747119D01*
X13966648Y-15718548D01*
X13957124Y-15699500D01*
X13938076Y-15670928D01*
X13928552Y-15661405D01*
X14290457Y-15966167D02*
X14280933Y-15956643D01*
X14261886Y-15928071D01*
X14252362Y-15909024D01*
X14242838Y-15880452D01*
X14233314Y-15832833D01*
X14233314Y-15794738D01*
X14242838Y-15747119D01*
X14252362Y-15718548D01*
X14261886Y-15699500D01*
X14280933Y-15670928D01*
X14290457Y-15661405D01*
X14366648Y-15756643D02*
X14366648Y-15889976D01*
X14366648Y-15775690D02*
X14376171Y-15766167D01*
X14395219Y-15756643D01*
X14423790Y-15756643D01*
X14442838Y-15766167D01*
X14452362Y-15785214D01*
X14452362Y-15889976D01*
X14576171Y-15889976D02*
X14557124Y-15880452D01*
X14547600Y-15870928D01*
X14538076Y-15851881D01*
X14538076Y-15794738D01*
X14547600Y-15775690D01*
X14557124Y-15766167D01*
X14576171Y-15756643D01*
X14604743Y-15756643D01*
X14623790Y-15766167D01*
X14633314Y-15775690D01*
X14642838Y-15794738D01*
X14642838Y-15851881D01*
X14633314Y-15870928D01*
X14623790Y-15880452D01*
X14604743Y-15889976D01*
X14576171Y-15889976D01*
X14699981Y-15756643D02*
X14776171Y-15756643D01*
X14728552Y-15689976D02*
X14728552Y-15861405D01*
X14738076Y-15880452D01*
X14757124Y-15889976D01*
X14776171Y-15889976D01*
X14995219Y-15756643D02*
X14995219Y-15956643D01*
X14995219Y-15766167D02*
X15014267Y-15756643D01*
X15052362Y-15756643D01*
X15071409Y-15766167D01*
X15080933Y-15775690D01*
X15090457Y-15794738D01*
X15090457Y-15851881D01*
X15080933Y-15870928D01*
X15071409Y-15880452D01*
X15052362Y-15889976D01*
X15014267Y-15889976D01*
X14995219Y-15880452D01*
X15204743Y-15889976D02*
X15185695Y-15880452D01*
X15176171Y-15861405D01*
X15176171Y-15689976D01*
X15366648Y-15889976D02*
X15366648Y-15785214D01*
X15357124Y-15766167D01*
X15338076Y-15756643D01*
X15299981Y-15756643D01*
X15280933Y-15766167D01*
X15366648Y-15880452D02*
X15347600Y-15889976D01*
X15299981Y-15889976D01*
X15280933Y-15880452D01*
X15271409Y-15861405D01*
X15271409Y-15842357D01*
X15280933Y-15823309D01*
X15299981Y-15813786D01*
X15347600Y-15813786D01*
X15366648Y-15804262D01*
X15433314Y-15756643D02*
X15509505Y-15756643D01*
X15461886Y-15689976D02*
X15461886Y-15861405D01*
X15471409Y-15880452D01*
X15490457Y-15889976D01*
X15509505Y-15889976D01*
X15652362Y-15880452D02*
X15633314Y-15889976D01*
X15595219Y-15889976D01*
X15576171Y-15880452D01*
X15566648Y-15861405D01*
X15566648Y-15785214D01*
X15576171Y-15766167D01*
X15595219Y-15756643D01*
X15633314Y-15756643D01*
X15652362Y-15766167D01*
X15661886Y-15785214D01*
X15661886Y-15804262D01*
X15566648Y-15823309D01*
X15833314Y-15889976D02*
X15833314Y-15689976D01*
X15833314Y-15880452D02*
X15814267Y-15889976D01*
X15776171Y-15889976D01*
X15757124Y-15880452D01*
X15747600Y-15870928D01*
X15738076Y-15851881D01*
X15738076Y-15794738D01*
X15747600Y-15775690D01*
X15757124Y-15766167D01*
X15776171Y-15756643D01*
X15814267Y-15756643D01*
X15833314Y-15766167D01*
X15909505Y-15966167D02*
X15919028Y-15956643D01*
X15938076Y-15928071D01*
X15947600Y-15909024D01*
X15957124Y-15880452D01*
X15966648Y-15832833D01*
X15966648Y-15794738D01*
X15957124Y-15747119D01*
X15947600Y-15718548D01*
X15938076Y-15699500D01*
X15919028Y-15670928D01*
X15909505Y-15661405D01*
D14*
X7447600Y-15979500D02*
X7447600Y-16159500D01*
X7357600Y-16069500D02*
X7537600Y-16069500D01*
D11*
X7899981Y-16159976D02*
X7785695Y-16159976D01*
X7842838Y-16159976D02*
X7842838Y-15959976D01*
X7823790Y-15988548D01*
X7804743Y-16007595D01*
X7785695Y-16017119D01*
X7985695Y-16140928D02*
X7995219Y-16150452D01*
X7985695Y-16159976D01*
X7976171Y-16150452D01*
X7985695Y-16140928D01*
X7985695Y-16159976D01*
X8109505Y-16045690D02*
X8090457Y-16036167D01*
X8080933Y-16026643D01*
X8071409Y-16007595D01*
X8071409Y-15998071D01*
X8080933Y-15979024D01*
X8090457Y-15969500D01*
X8109505Y-15959976D01*
X8147600Y-15959976D01*
X8166648Y-15969500D01*
X8176171Y-15979024D01*
X8185695Y-15998071D01*
X8185695Y-16007595D01*
X8176171Y-16026643D01*
X8166648Y-16036167D01*
X8147600Y-16045690D01*
X8109505Y-16045690D01*
X8090457Y-16055214D01*
X8080933Y-16064738D01*
X8071409Y-16083786D01*
X8071409Y-16121881D01*
X8080933Y-16140928D01*
X8090457Y-16150452D01*
X8109505Y-16159976D01*
X8147600Y-16159976D01*
X8166648Y-16150452D01*
X8176171Y-16140928D01*
X8185695Y-16121881D01*
X8185695Y-16083786D01*
X8176171Y-16064738D01*
X8166648Y-16055214D01*
X8147600Y-16045690D01*
X8309505Y-15959976D02*
X8328552Y-15959976D01*
X8347600Y-15969500D01*
X8357124Y-15979024D01*
X8366648Y-15998071D01*
X8376171Y-16036167D01*
X8376171Y-16083786D01*
X8366648Y-16121881D01*
X8357124Y-16140928D01*
X8347600Y-16150452D01*
X8328552Y-16159976D01*
X8309505Y-16159976D01*
X8290457Y-16150452D01*
X8280933Y-16140928D01*
X8271409Y-16121881D01*
X8261886Y-16083786D01*
X8261886Y-16036167D01*
X8271409Y-15998071D01*
X8280933Y-15979024D01*
X8290457Y-15969500D01*
X8309505Y-15959976D01*
X8499981Y-15959976D02*
X8519029Y-15959976D01*
X8538076Y-15969500D01*
X8547600Y-15979024D01*
X8557124Y-15998071D01*
X8566648Y-16036167D01*
X8566648Y-16083786D01*
X8557124Y-16121881D01*
X8547600Y-16140928D01*
X8538076Y-16150452D01*
X8519029Y-16159976D01*
X8499981Y-16159976D01*
X8480933Y-16150452D01*
X8471410Y-16140928D01*
X8461886Y-16121881D01*
X8452362Y-16083786D01*
X8452362Y-16036167D01*
X8461886Y-15998071D01*
X8471410Y-15979024D01*
X8480933Y-15969500D01*
X8499981Y-15959976D01*
X8652362Y-16159976D02*
X8652362Y-16026643D01*
X8652362Y-16045690D02*
X8661886Y-16036167D01*
X8680933Y-16026643D01*
X8709505Y-16026643D01*
X8728552Y-16036167D01*
X8738076Y-16055214D01*
X8738076Y-16159976D01*
X8738076Y-16055214D02*
X8747600Y-16036167D01*
X8766648Y-16026643D01*
X8795219Y-16026643D01*
X8814267Y-16036167D01*
X8823790Y-16055214D01*
X8823790Y-16159976D01*
X8919029Y-16159976D02*
X8919029Y-16026643D01*
X8919029Y-16045690D02*
X8928552Y-16036167D01*
X8947600Y-16026643D01*
X8976171Y-16026643D01*
X8995219Y-16036167D01*
X9004743Y-16055214D01*
X9004743Y-16159976D01*
X9004743Y-16055214D02*
X9014267Y-16036167D01*
X9033314Y-16026643D01*
X9061886Y-16026643D01*
X9080933Y-16036167D01*
X9090457Y-16055214D01*
X9090457Y-16159976D01*
X9480933Y-15950452D02*
X9309505Y-16207595D01*
X9738076Y-15959976D02*
X9757124Y-15959976D01*
X9776171Y-15969500D01*
X9785695Y-15979024D01*
X9795219Y-15998071D01*
X9804743Y-16036167D01*
X9804743Y-16083786D01*
X9795219Y-16121881D01*
X9785695Y-16140928D01*
X9776171Y-16150452D01*
X9757124Y-16159976D01*
X9738076Y-16159976D01*
X9719029Y-16150452D01*
X9709505Y-16140928D01*
X9699981Y-16121881D01*
X9690457Y-16083786D01*
X9690457Y-16036167D01*
X9699981Y-15998071D01*
X9709505Y-15979024D01*
X9719029Y-15969500D01*
X9738076Y-15959976D01*
X9890457Y-16140928D02*
X9899981Y-16150452D01*
X9890457Y-16159976D01*
X9880933Y-16150452D01*
X9890457Y-16140928D01*
X9890457Y-16159976D01*
X10023790Y-15959976D02*
X10042838Y-15959976D01*
X10061886Y-15969500D01*
X10071410Y-15979024D01*
X10080933Y-15998071D01*
X10090457Y-16036167D01*
X10090457Y-16083786D01*
X10080933Y-16121881D01*
X10071410Y-16140928D01*
X10061886Y-16150452D01*
X10042838Y-16159976D01*
X10023790Y-16159976D01*
X10004743Y-16150452D01*
X9995219Y-16140928D01*
X9985695Y-16121881D01*
X9976171Y-16083786D01*
X9976171Y-16036167D01*
X9985695Y-15998071D01*
X9995219Y-15979024D01*
X10004743Y-15969500D01*
X10023790Y-15959976D01*
X10157124Y-15959976D02*
X10290457Y-15959976D01*
X10204743Y-16159976D01*
X10404743Y-15959976D02*
X10423790Y-15959976D01*
X10442838Y-15969500D01*
X10452362Y-15979024D01*
X10461886Y-15998071D01*
X10471410Y-16036167D01*
X10471410Y-16083786D01*
X10461886Y-16121881D01*
X10452362Y-16140928D01*
X10442838Y-16150452D01*
X10423790Y-16159976D01*
X10404743Y-16159976D01*
X10385695Y-16150452D01*
X10376171Y-16140928D01*
X10366648Y-16121881D01*
X10357124Y-16083786D01*
X10357124Y-16036167D01*
X10366648Y-15998071D01*
X10376171Y-15979024D01*
X10385695Y-15969500D01*
X10404743Y-15959976D01*
X10566648Y-16159976D02*
X10604743Y-16159976D01*
X10623790Y-16150452D01*
X10633314Y-16140928D01*
X10652362Y-16112357D01*
X10661886Y-16074262D01*
X10661886Y-15998071D01*
X10652362Y-15979024D01*
X10642838Y-15969500D01*
X10623790Y-15959976D01*
X10585695Y-15959976D01*
X10566648Y-15969500D01*
X10557124Y-15979024D01*
X10547600Y-15998071D01*
X10547600Y-16045690D01*
X10557124Y-16064738D01*
X10566648Y-16074262D01*
X10585695Y-16083786D01*
X10623790Y-16083786D01*
X10642838Y-16074262D01*
X10652362Y-16064738D01*
X10661886Y-16045690D01*
X10738076Y-15959976D02*
X10738076Y-15998071D01*
X10814267Y-15959976D02*
X10814267Y-15998071D01*
X11109505Y-16236167D02*
X11099981Y-16226643D01*
X11080933Y-16198071D01*
X11071410Y-16179024D01*
X11061886Y-16150452D01*
X11052362Y-16102833D01*
X11052362Y-16064738D01*
X11061886Y-16017119D01*
X11071410Y-15988548D01*
X11080933Y-15969500D01*
X11099981Y-15940928D01*
X11109505Y-15931405D01*
X11271409Y-15959976D02*
X11233314Y-15959976D01*
X11214267Y-15969500D01*
X11204743Y-15979024D01*
X11185695Y-16007595D01*
X11176171Y-16045690D01*
X11176171Y-16121881D01*
X11185695Y-16140928D01*
X11195219Y-16150452D01*
X11214267Y-16159976D01*
X11252362Y-16159976D01*
X11271409Y-16150452D01*
X11280933Y-16140928D01*
X11290457Y-16121881D01*
X11290457Y-16074262D01*
X11280933Y-16055214D01*
X11271409Y-16045690D01*
X11252362Y-16036167D01*
X11214267Y-16036167D01*
X11195219Y-16045690D01*
X11185695Y-16055214D01*
X11176171Y-16074262D01*
X11414267Y-15959976D02*
X11433314Y-15959976D01*
X11452362Y-15969500D01*
X11461886Y-15979024D01*
X11471409Y-15998071D01*
X11480933Y-16036167D01*
X11480933Y-16083786D01*
X11471409Y-16121881D01*
X11461886Y-16140928D01*
X11452362Y-16150452D01*
X11433314Y-16159976D01*
X11414267Y-16159976D01*
X11395219Y-16150452D01*
X11385695Y-16140928D01*
X11376171Y-16121881D01*
X11366648Y-16083786D01*
X11366648Y-16036167D01*
X11376171Y-15998071D01*
X11385695Y-15979024D01*
X11395219Y-15969500D01*
X11414267Y-15959976D01*
X11719028Y-16159976D02*
X11719028Y-15959976D01*
X11804743Y-16159976D02*
X11804743Y-16055214D01*
X11795219Y-16036167D01*
X11776171Y-16026643D01*
X11747600Y-16026643D01*
X11728552Y-16036167D01*
X11719028Y-16045690D01*
X11928552Y-16159976D02*
X11909505Y-16150452D01*
X11899981Y-16140928D01*
X11890457Y-16121881D01*
X11890457Y-16064738D01*
X11899981Y-16045690D01*
X11909505Y-16036167D01*
X11928552Y-16026643D01*
X11957124Y-16026643D01*
X11976171Y-16036167D01*
X11985695Y-16045690D01*
X11995219Y-16064738D01*
X11995219Y-16121881D01*
X11985695Y-16140928D01*
X11976171Y-16150452D01*
X11957124Y-16159976D01*
X11928552Y-16159976D01*
X12109505Y-16159976D02*
X12090457Y-16150452D01*
X12080933Y-16131405D01*
X12080933Y-15959976D01*
X12261886Y-16150452D02*
X12242838Y-16159976D01*
X12204743Y-16159976D01*
X12185695Y-16150452D01*
X12176171Y-16131405D01*
X12176171Y-16055214D01*
X12185695Y-16036167D01*
X12204743Y-16026643D01*
X12242838Y-16026643D01*
X12261886Y-16036167D01*
X12271409Y-16055214D01*
X12271409Y-16074262D01*
X12176171Y-16093309D01*
X12347600Y-16150452D02*
X12366648Y-16159976D01*
X12404743Y-16159976D01*
X12423790Y-16150452D01*
X12433314Y-16131405D01*
X12433314Y-16121881D01*
X12423790Y-16102833D01*
X12404743Y-16093309D01*
X12376171Y-16093309D01*
X12357124Y-16083786D01*
X12347600Y-16064738D01*
X12347600Y-16055214D01*
X12357124Y-16036167D01*
X12376171Y-16026643D01*
X12404743Y-16026643D01*
X12423790Y-16036167D01*
X12499981Y-16236167D02*
X12509505Y-16226643D01*
X12528552Y-16198071D01*
X12538076Y-16179024D01*
X12547600Y-16150452D01*
X12557124Y-16102833D01*
X12557124Y-16064738D01*
X12547600Y-16017119D01*
X12538076Y-15988548D01*
X12528552Y-15969500D01*
X12509505Y-15940928D01*
X12499981Y-15931405D01*
X12861886Y-16236167D02*
X12852362Y-16226643D01*
X12833314Y-16198071D01*
X12823790Y-16179024D01*
X12814267Y-16150452D01*
X12804743Y-16102833D01*
X12804743Y-16064738D01*
X12814267Y-16017119D01*
X12823790Y-15988548D01*
X12833314Y-15969500D01*
X12852362Y-15940928D01*
X12861886Y-15931405D01*
X12938076Y-16026643D02*
X12938076Y-16159976D01*
X12938076Y-16045690D02*
X12947600Y-16036167D01*
X12966648Y-16026643D01*
X12995219Y-16026643D01*
X13014267Y-16036167D01*
X13023790Y-16055214D01*
X13023790Y-16159976D01*
X13147600Y-16159976D02*
X13128552Y-16150452D01*
X13119028Y-16140928D01*
X13109505Y-16121881D01*
X13109505Y-16064738D01*
X13119028Y-16045690D01*
X13128552Y-16036167D01*
X13147600Y-16026643D01*
X13176171Y-16026643D01*
X13195219Y-16036167D01*
X13204743Y-16045690D01*
X13214267Y-16064738D01*
X13214267Y-16121881D01*
X13204743Y-16140928D01*
X13195219Y-16150452D01*
X13176171Y-16159976D01*
X13147600Y-16159976D01*
X13271409Y-16026643D02*
X13347600Y-16026643D01*
X13299981Y-15959976D02*
X13299981Y-16131405D01*
X13309505Y-16150452D01*
X13328552Y-16159976D01*
X13347600Y-16159976D01*
X13566648Y-16026643D02*
X13566648Y-16226643D01*
X13566648Y-16036167D02*
X13585695Y-16026643D01*
X13623790Y-16026643D01*
X13642838Y-16036167D01*
X13652362Y-16045690D01*
X13661886Y-16064738D01*
X13661886Y-16121881D01*
X13652362Y-16140928D01*
X13642838Y-16150452D01*
X13623790Y-16159976D01*
X13585695Y-16159976D01*
X13566648Y-16150452D01*
X13776171Y-16159976D02*
X13757124Y-16150452D01*
X13747600Y-16131405D01*
X13747600Y-15959976D01*
X13938076Y-16159976D02*
X13938076Y-16055214D01*
X13928552Y-16036167D01*
X13909505Y-16026643D01*
X13871409Y-16026643D01*
X13852362Y-16036167D01*
X13938076Y-16150452D02*
X13919028Y-16159976D01*
X13871409Y-16159976D01*
X13852362Y-16150452D01*
X13842838Y-16131405D01*
X13842838Y-16112357D01*
X13852362Y-16093309D01*
X13871409Y-16083786D01*
X13919028Y-16083786D01*
X13938076Y-16074262D01*
X14004743Y-16026643D02*
X14080933Y-16026643D01*
X14033314Y-15959976D02*
X14033314Y-16131405D01*
X14042838Y-16150452D01*
X14061886Y-16159976D01*
X14080933Y-16159976D01*
X14223790Y-16150452D02*
X14204743Y-16159976D01*
X14166648Y-16159976D01*
X14147600Y-16150452D01*
X14138076Y-16131405D01*
X14138076Y-16055214D01*
X14147600Y-16036167D01*
X14166648Y-16026643D01*
X14204743Y-16026643D01*
X14223790Y-16036167D01*
X14233314Y-16055214D01*
X14233314Y-16074262D01*
X14138076Y-16093309D01*
X14404743Y-16159976D02*
X14404743Y-15959976D01*
X14404743Y-16150452D02*
X14385695Y-16159976D01*
X14347600Y-16159976D01*
X14328552Y-16150452D01*
X14319028Y-16140928D01*
X14309505Y-16121881D01*
X14309505Y-16064738D01*
X14319028Y-16045690D01*
X14328552Y-16036167D01*
X14347600Y-16026643D01*
X14385695Y-16026643D01*
X14404743Y-16036167D01*
X14480933Y-16236167D02*
X14490457Y-16226643D01*
X14509505Y-16198071D01*
X14519028Y-16179024D01*
X14528552Y-16150452D01*
X14538076Y-16102833D01*
X14538076Y-16064738D01*
X14528552Y-16017119D01*
X14519028Y-15988548D01*
X14509505Y-15969500D01*
X14490457Y-15940928D01*
X14480933Y-15931405D01*
X7508311Y-16440211D02*
X7508311Y-16298789D01*
X7366889Y-16298789D01*
X7366889Y-16440211D01*
X7508311Y-16440211D01*
X7776171Y-16259976D02*
X7899981Y-16259976D01*
X7833314Y-16336167D01*
X7861886Y-16336167D01*
X7880933Y-16345690D01*
X7890457Y-16355214D01*
X7899981Y-16374262D01*
X7899981Y-16421881D01*
X7890457Y-16440928D01*
X7880933Y-16450452D01*
X7861886Y-16459976D01*
X7804743Y-16459976D01*
X7785695Y-16450452D01*
X7776171Y-16440928D01*
X7985695Y-16440928D02*
X7995219Y-16450452D01*
X7985695Y-16459976D01*
X7976171Y-16450452D01*
X7985695Y-16440928D01*
X7985695Y-16459976D01*
X8119028Y-16259976D02*
X8138076Y-16259976D01*
X8157124Y-16269500D01*
X8166648Y-16279024D01*
X8176171Y-16298071D01*
X8185695Y-16336167D01*
X8185695Y-16383786D01*
X8176171Y-16421881D01*
X8166648Y-16440928D01*
X8157124Y-16450452D01*
X8138076Y-16459976D01*
X8119028Y-16459976D01*
X8099981Y-16450452D01*
X8090457Y-16440928D01*
X8080933Y-16421881D01*
X8071409Y-16383786D01*
X8071409Y-16336167D01*
X8080933Y-16298071D01*
X8090457Y-16279024D01*
X8099981Y-16269500D01*
X8119028Y-16259976D01*
X8309505Y-16259976D02*
X8328552Y-16259976D01*
X8347600Y-16269500D01*
X8357124Y-16279024D01*
X8366648Y-16298071D01*
X8376171Y-16336167D01*
X8376171Y-16383786D01*
X8366648Y-16421881D01*
X8357124Y-16440928D01*
X8347600Y-16450452D01*
X8328552Y-16459976D01*
X8309505Y-16459976D01*
X8290457Y-16450452D01*
X8280933Y-16440928D01*
X8271409Y-16421881D01*
X8261886Y-16383786D01*
X8261886Y-16336167D01*
X8271409Y-16298071D01*
X8280933Y-16279024D01*
X8290457Y-16269500D01*
X8309505Y-16259976D01*
X8499981Y-16259976D02*
X8519029Y-16259976D01*
X8538076Y-16269500D01*
X8547600Y-16279024D01*
X8557124Y-16298071D01*
X8566648Y-16336167D01*
X8566648Y-16383786D01*
X8557124Y-16421881D01*
X8547600Y-16440928D01*
X8538076Y-16450452D01*
X8519029Y-16459976D01*
X8499981Y-16459976D01*
X8480933Y-16450452D01*
X8471410Y-16440928D01*
X8461886Y-16421881D01*
X8452362Y-16383786D01*
X8452362Y-16336167D01*
X8461886Y-16298071D01*
X8471410Y-16279024D01*
X8480933Y-16269500D01*
X8499981Y-16259976D01*
X8652362Y-16459976D02*
X8652362Y-16326643D01*
X8652362Y-16345690D02*
X8661886Y-16336167D01*
X8680933Y-16326643D01*
X8709505Y-16326643D01*
X8728552Y-16336167D01*
X8738076Y-16355214D01*
X8738076Y-16459976D01*
X8738076Y-16355214D02*
X8747600Y-16336167D01*
X8766648Y-16326643D01*
X8795219Y-16326643D01*
X8814267Y-16336167D01*
X8823790Y-16355214D01*
X8823790Y-16459976D01*
X8919029Y-16459976D02*
X8919029Y-16326643D01*
X8919029Y-16345690D02*
X8928552Y-16336167D01*
X8947600Y-16326643D01*
X8976171Y-16326643D01*
X8995219Y-16336167D01*
X9004743Y-16355214D01*
X9004743Y-16459976D01*
X9004743Y-16355214D02*
X9014267Y-16336167D01*
X9033314Y-16326643D01*
X9061886Y-16326643D01*
X9080933Y-16336167D01*
X9090457Y-16355214D01*
X9090457Y-16459976D01*
X9480933Y-16250452D02*
X9309505Y-16507595D01*
X9738076Y-16259976D02*
X9757124Y-16259976D01*
X9776171Y-16269500D01*
X9785695Y-16279024D01*
X9795219Y-16298071D01*
X9804743Y-16336167D01*
X9804743Y-16383786D01*
X9795219Y-16421881D01*
X9785695Y-16440928D01*
X9776171Y-16450452D01*
X9757124Y-16459976D01*
X9738076Y-16459976D01*
X9719029Y-16450452D01*
X9709505Y-16440928D01*
X9699981Y-16421881D01*
X9690457Y-16383786D01*
X9690457Y-16336167D01*
X9699981Y-16298071D01*
X9709505Y-16279024D01*
X9719029Y-16269500D01*
X9738076Y-16259976D01*
X9890457Y-16440928D02*
X9899981Y-16450452D01*
X9890457Y-16459976D01*
X9880933Y-16450452D01*
X9890457Y-16440928D01*
X9890457Y-16459976D01*
X10090457Y-16459976D02*
X9976171Y-16459976D01*
X10033314Y-16459976D02*
X10033314Y-16259976D01*
X10014267Y-16288548D01*
X9995219Y-16307595D01*
X9976171Y-16317119D01*
X10280933Y-16459976D02*
X10166648Y-16459976D01*
X10223790Y-16459976D02*
X10223790Y-16259976D01*
X10204743Y-16288548D01*
X10185695Y-16307595D01*
X10166648Y-16317119D01*
X10395219Y-16345690D02*
X10376171Y-16336167D01*
X10366648Y-16326643D01*
X10357124Y-16307595D01*
X10357124Y-16298071D01*
X10366648Y-16279024D01*
X10376171Y-16269500D01*
X10395219Y-16259976D01*
X10433314Y-16259976D01*
X10452362Y-16269500D01*
X10461886Y-16279024D01*
X10471410Y-16298071D01*
X10471410Y-16307595D01*
X10461886Y-16326643D01*
X10452362Y-16336167D01*
X10433314Y-16345690D01*
X10395219Y-16345690D01*
X10376171Y-16355214D01*
X10366648Y-16364738D01*
X10357124Y-16383786D01*
X10357124Y-16421881D01*
X10366648Y-16440928D01*
X10376171Y-16450452D01*
X10395219Y-16459976D01*
X10433314Y-16459976D01*
X10452362Y-16450452D01*
X10461886Y-16440928D01*
X10471410Y-16421881D01*
X10471410Y-16383786D01*
X10461886Y-16364738D01*
X10452362Y-16355214D01*
X10433314Y-16345690D01*
X10661886Y-16459976D02*
X10547600Y-16459976D01*
X10604743Y-16459976D02*
X10604743Y-16259976D01*
X10585695Y-16288548D01*
X10566648Y-16307595D01*
X10547600Y-16317119D01*
X10738076Y-16259976D02*
X10738076Y-16298071D01*
X10814267Y-16259976D02*
X10814267Y-16298071D01*
X11109505Y-16536167D02*
X11099981Y-16526643D01*
X11080933Y-16498071D01*
X11071410Y-16479024D01*
X11061886Y-16450452D01*
X11052362Y-16402833D01*
X11052362Y-16364738D01*
X11061886Y-16317119D01*
X11071410Y-16288548D01*
X11080933Y-16269500D01*
X11099981Y-16240928D01*
X11109505Y-16231405D01*
X11290457Y-16459976D02*
X11176171Y-16459976D01*
X11233314Y-16459976D02*
X11233314Y-16259976D01*
X11214267Y-16288548D01*
X11195219Y-16307595D01*
X11176171Y-16317119D01*
X11366648Y-16279024D02*
X11376171Y-16269500D01*
X11395219Y-16259976D01*
X11442838Y-16259976D01*
X11461886Y-16269500D01*
X11471409Y-16279024D01*
X11480933Y-16298071D01*
X11480933Y-16317119D01*
X11471409Y-16345690D01*
X11357124Y-16459976D01*
X11480933Y-16459976D01*
X11604743Y-16259976D02*
X11623790Y-16259976D01*
X11642838Y-16269500D01*
X11652362Y-16279024D01*
X11661886Y-16298071D01*
X11671409Y-16336167D01*
X11671409Y-16383786D01*
X11661886Y-16421881D01*
X11652362Y-16440928D01*
X11642838Y-16450452D01*
X11623790Y-16459976D01*
X11604743Y-16459976D01*
X11585695Y-16450452D01*
X11576171Y-16440928D01*
X11566648Y-16421881D01*
X11557124Y-16383786D01*
X11557124Y-16336167D01*
X11566648Y-16298071D01*
X11576171Y-16279024D01*
X11585695Y-16269500D01*
X11604743Y-16259976D01*
X11909505Y-16459976D02*
X11909505Y-16259976D01*
X11995219Y-16459976D02*
X11995219Y-16355214D01*
X11985695Y-16336167D01*
X11966648Y-16326643D01*
X11938076Y-16326643D01*
X11919028Y-16336167D01*
X11909505Y-16345690D01*
X12119028Y-16459976D02*
X12099981Y-16450452D01*
X12090457Y-16440928D01*
X12080933Y-16421881D01*
X12080933Y-16364738D01*
X12090457Y-16345690D01*
X12099981Y-16336167D01*
X12119028Y-16326643D01*
X12147600Y-16326643D01*
X12166648Y-16336167D01*
X12176171Y-16345690D01*
X12185695Y-16364738D01*
X12185695Y-16421881D01*
X12176171Y-16440928D01*
X12166648Y-16450452D01*
X12147600Y-16459976D01*
X12119028Y-16459976D01*
X12299981Y-16459976D02*
X12280933Y-16450452D01*
X12271409Y-16431405D01*
X12271409Y-16259976D01*
X12452362Y-16450452D02*
X12433314Y-16459976D01*
X12395219Y-16459976D01*
X12376171Y-16450452D01*
X12366648Y-16431405D01*
X12366648Y-16355214D01*
X12376171Y-16336167D01*
X12395219Y-16326643D01*
X12433314Y-16326643D01*
X12452362Y-16336167D01*
X12461886Y-16355214D01*
X12461886Y-16374262D01*
X12366648Y-16393309D01*
X12538076Y-16450452D02*
X12557124Y-16459976D01*
X12595219Y-16459976D01*
X12614267Y-16450452D01*
X12623790Y-16431405D01*
X12623790Y-16421881D01*
X12614267Y-16402833D01*
X12595219Y-16393309D01*
X12566648Y-16393309D01*
X12547600Y-16383786D01*
X12538076Y-16364738D01*
X12538076Y-16355214D01*
X12547600Y-16336167D01*
X12566648Y-16326643D01*
X12595219Y-16326643D01*
X12614267Y-16336167D01*
X12690457Y-16536167D02*
X12699981Y-16526643D01*
X12719028Y-16498071D01*
X12728552Y-16479024D01*
X12738076Y-16450452D01*
X12747600Y-16402833D01*
X12747600Y-16364738D01*
X12738076Y-16317119D01*
X12728552Y-16288548D01*
X12719028Y-16269500D01*
X12699981Y-16240928D01*
X12690457Y-16231405D01*
X13052362Y-16536167D02*
X13042838Y-16526643D01*
X13023790Y-16498071D01*
X13014267Y-16479024D01*
X13004743Y-16450452D01*
X12995219Y-16402833D01*
X12995219Y-16364738D01*
X13004743Y-16317119D01*
X13014267Y-16288548D01*
X13023790Y-16269500D01*
X13042838Y-16240928D01*
X13052362Y-16231405D01*
X13128552Y-16326643D02*
X13128552Y-16459976D01*
X13128552Y-16345690D02*
X13138076Y-16336167D01*
X13157124Y-16326643D01*
X13185695Y-16326643D01*
X13204743Y-16336167D01*
X13214267Y-16355214D01*
X13214267Y-16459976D01*
X13338076Y-16459976D02*
X13319028Y-16450452D01*
X13309505Y-16440928D01*
X13299981Y-16421881D01*
X13299981Y-16364738D01*
X13309505Y-16345690D01*
X13319028Y-16336167D01*
X13338076Y-16326643D01*
X13366648Y-16326643D01*
X13385695Y-16336167D01*
X13395219Y-16345690D01*
X13404743Y-16364738D01*
X13404743Y-16421881D01*
X13395219Y-16440928D01*
X13385695Y-16450452D01*
X13366648Y-16459976D01*
X13338076Y-16459976D01*
X13461886Y-16326643D02*
X13538076Y-16326643D01*
X13490457Y-16259976D02*
X13490457Y-16431405D01*
X13499981Y-16450452D01*
X13519028Y-16459976D01*
X13538076Y-16459976D01*
X13757124Y-16326643D02*
X13757124Y-16526643D01*
X13757124Y-16336167D02*
X13776171Y-16326643D01*
X13814267Y-16326643D01*
X13833314Y-16336167D01*
X13842838Y-16345690D01*
X13852362Y-16364738D01*
X13852362Y-16421881D01*
X13842838Y-16440928D01*
X13833314Y-16450452D01*
X13814267Y-16459976D01*
X13776171Y-16459976D01*
X13757124Y-16450452D01*
X13966648Y-16459976D02*
X13947600Y-16450452D01*
X13938076Y-16431405D01*
X13938076Y-16259976D01*
X14128552Y-16459976D02*
X14128552Y-16355214D01*
X14119028Y-16336167D01*
X14099981Y-16326643D01*
X14061886Y-16326643D01*
X14042838Y-16336167D01*
X14128552Y-16450452D02*
X14109505Y-16459976D01*
X14061886Y-16459976D01*
X14042838Y-16450452D01*
X14033314Y-16431405D01*
X14033314Y-16412357D01*
X14042838Y-16393309D01*
X14061886Y-16383786D01*
X14109505Y-16383786D01*
X14128552Y-16374262D01*
X14195219Y-16326643D02*
X14271409Y-16326643D01*
X14223790Y-16259976D02*
X14223790Y-16431405D01*
X14233314Y-16450452D01*
X14252362Y-16459976D01*
X14271409Y-16459976D01*
X14414267Y-16450452D02*
X14395219Y-16459976D01*
X14357124Y-16459976D01*
X14338076Y-16450452D01*
X14328552Y-16431405D01*
X14328552Y-16355214D01*
X14338076Y-16336167D01*
X14357124Y-16326643D01*
X14395219Y-16326643D01*
X14414267Y-16336167D01*
X14423790Y-16355214D01*
X14423790Y-16374262D01*
X14328552Y-16393309D01*
X14595219Y-16459976D02*
X14595219Y-16259976D01*
X14595219Y-16450452D02*
X14576171Y-16459976D01*
X14538076Y-16459976D01*
X14519028Y-16450452D01*
X14509505Y-16440928D01*
X14499981Y-16421881D01*
X14499981Y-16364738D01*
X14509505Y-16345690D01*
X14519028Y-16336167D01*
X14538076Y-16326643D01*
X14576171Y-16326643D01*
X14595219Y-16336167D01*
X14671409Y-16536167D02*
X14680933Y-16526643D01*
X14699981Y-16498071D01*
X14709505Y-16479024D01*
X14719028Y-16450452D01*
X14728552Y-16402833D01*
X14728552Y-16364738D01*
X14719028Y-16317119D01*
X14709505Y-16288548D01*
X14699981Y-16269500D01*
X14680933Y-16240928D01*
X14671409Y-16231405D01*
X7437600Y-16789500D02*
X7537600Y-16689500D01*
X7437600Y-16589500D01*
X7337600Y-16689500D01*
X7437600Y-16789500D01*
X7880933Y-16646643D02*
X7880933Y-16779976D01*
X7833314Y-16570452D02*
X7785695Y-16713309D01*
X7909505Y-16713309D01*
X7985695Y-16760928D02*
X7995219Y-16770452D01*
X7985695Y-16779976D01*
X7976171Y-16770452D01*
X7985695Y-16760928D01*
X7985695Y-16779976D01*
X8185695Y-16779976D02*
X8071409Y-16779976D01*
X8128552Y-16779976D02*
X8128552Y-16579976D01*
X8109505Y-16608548D01*
X8090457Y-16627595D01*
X8071409Y-16637119D01*
X8309505Y-16579976D02*
X8328552Y-16579976D01*
X8347600Y-16589500D01*
X8357124Y-16599024D01*
X8366648Y-16618071D01*
X8376171Y-16656167D01*
X8376171Y-16703786D01*
X8366648Y-16741881D01*
X8357124Y-16760928D01*
X8347600Y-16770452D01*
X8328552Y-16779976D01*
X8309505Y-16779976D01*
X8290457Y-16770452D01*
X8280933Y-16760928D01*
X8271409Y-16741881D01*
X8261886Y-16703786D01*
X8261886Y-16656167D01*
X8271409Y-16618071D01*
X8280933Y-16599024D01*
X8290457Y-16589500D01*
X8309505Y-16579976D01*
X8499981Y-16579976D02*
X8519029Y-16579976D01*
X8538076Y-16589500D01*
X8547600Y-16599024D01*
X8557124Y-16618071D01*
X8566648Y-16656167D01*
X8566648Y-16703786D01*
X8557124Y-16741881D01*
X8547600Y-16760928D01*
X8538076Y-16770452D01*
X8519029Y-16779976D01*
X8499981Y-16779976D01*
X8480933Y-16770452D01*
X8471410Y-16760928D01*
X8461886Y-16741881D01*
X8452362Y-16703786D01*
X8452362Y-16656167D01*
X8461886Y-16618071D01*
X8471410Y-16599024D01*
X8480933Y-16589500D01*
X8499981Y-16579976D01*
X8652362Y-16779976D02*
X8652362Y-16646643D01*
X8652362Y-16665690D02*
X8661886Y-16656167D01*
X8680933Y-16646643D01*
X8709505Y-16646643D01*
X8728552Y-16656167D01*
X8738076Y-16675214D01*
X8738076Y-16779976D01*
X8738076Y-16675214D02*
X8747600Y-16656167D01*
X8766648Y-16646643D01*
X8795219Y-16646643D01*
X8814267Y-16656167D01*
X8823790Y-16675214D01*
X8823790Y-16779976D01*
X8919029Y-16779976D02*
X8919029Y-16646643D01*
X8919029Y-16665690D02*
X8928552Y-16656167D01*
X8947600Y-16646643D01*
X8976171Y-16646643D01*
X8995219Y-16656167D01*
X9004743Y-16675214D01*
X9004743Y-16779976D01*
X9004743Y-16675214D02*
X9014267Y-16656167D01*
X9033314Y-16646643D01*
X9061886Y-16646643D01*
X9080933Y-16656167D01*
X9090457Y-16675214D01*
X9090457Y-16779976D01*
X9480933Y-16570452D02*
X9309505Y-16827595D01*
X9738076Y-16579976D02*
X9757124Y-16579976D01*
X9776171Y-16589500D01*
X9785695Y-16599024D01*
X9795219Y-16618071D01*
X9804743Y-16656167D01*
X9804743Y-16703786D01*
X9795219Y-16741881D01*
X9785695Y-16760928D01*
X9776171Y-16770452D01*
X9757124Y-16779976D01*
X9738076Y-16779976D01*
X9719029Y-16770452D01*
X9709505Y-16760928D01*
X9699981Y-16741881D01*
X9690457Y-16703786D01*
X9690457Y-16656167D01*
X9699981Y-16618071D01*
X9709505Y-16599024D01*
X9719029Y-16589500D01*
X9738076Y-16579976D01*
X9890457Y-16760928D02*
X9899981Y-16770452D01*
X9890457Y-16779976D01*
X9880933Y-16770452D01*
X9890457Y-16760928D01*
X9890457Y-16779976D01*
X10090457Y-16779976D02*
X9976171Y-16779976D01*
X10033314Y-16779976D02*
X10033314Y-16579976D01*
X10014267Y-16608548D01*
X9995219Y-16627595D01*
X9976171Y-16637119D01*
X10261886Y-16579976D02*
X10223790Y-16579976D01*
X10204743Y-16589500D01*
X10195219Y-16599024D01*
X10176171Y-16627595D01*
X10166648Y-16665690D01*
X10166648Y-16741881D01*
X10176171Y-16760928D01*
X10185695Y-16770452D01*
X10204743Y-16779976D01*
X10242838Y-16779976D01*
X10261886Y-16770452D01*
X10271410Y-16760928D01*
X10280933Y-16741881D01*
X10280933Y-16694262D01*
X10271410Y-16675214D01*
X10261886Y-16665690D01*
X10242838Y-16656167D01*
X10204743Y-16656167D01*
X10185695Y-16665690D01*
X10176171Y-16675214D01*
X10166648Y-16694262D01*
X10471410Y-16779976D02*
X10357124Y-16779976D01*
X10414267Y-16779976D02*
X10414267Y-16579976D01*
X10395219Y-16608548D01*
X10376171Y-16627595D01*
X10357124Y-16637119D01*
X10642838Y-16646643D02*
X10642838Y-16779976D01*
X10595219Y-16570452D02*
X10547600Y-16713309D01*
X10671410Y-16713309D01*
X10738076Y-16579976D02*
X10738076Y-16618071D01*
X10814267Y-16579976D02*
X10814267Y-16618071D01*
X11109505Y-16856167D02*
X11099981Y-16846643D01*
X11080933Y-16818071D01*
X11071410Y-16799024D01*
X11061886Y-16770452D01*
X11052362Y-16722833D01*
X11052362Y-16684738D01*
X11061886Y-16637119D01*
X11071410Y-16608548D01*
X11080933Y-16589500D01*
X11099981Y-16560928D01*
X11109505Y-16551405D01*
X11166648Y-16579976D02*
X11290457Y-16579976D01*
X11223790Y-16656167D01*
X11252362Y-16656167D01*
X11271409Y-16665690D01*
X11280933Y-16675214D01*
X11290457Y-16694262D01*
X11290457Y-16741881D01*
X11280933Y-16760928D01*
X11271409Y-16770452D01*
X11252362Y-16779976D01*
X11195219Y-16779976D01*
X11176171Y-16770452D01*
X11166648Y-16760928D01*
X11414267Y-16579976D02*
X11433314Y-16579976D01*
X11452362Y-16589500D01*
X11461886Y-16599024D01*
X11471409Y-16618071D01*
X11480933Y-16656167D01*
X11480933Y-16703786D01*
X11471409Y-16741881D01*
X11461886Y-16760928D01*
X11452362Y-16770452D01*
X11433314Y-16779976D01*
X11414267Y-16779976D01*
X11395219Y-16770452D01*
X11385695Y-16760928D01*
X11376171Y-16741881D01*
X11366648Y-16703786D01*
X11366648Y-16656167D01*
X11376171Y-16618071D01*
X11385695Y-16599024D01*
X11395219Y-16589500D01*
X11414267Y-16579976D01*
X11719028Y-16779976D02*
X11719028Y-16579976D01*
X11804743Y-16779976D02*
X11804743Y-16675214D01*
X11795219Y-16656167D01*
X11776171Y-16646643D01*
X11747600Y-16646643D01*
X11728552Y-16656167D01*
X11719028Y-16665690D01*
X11928552Y-16779976D02*
X11909505Y-16770452D01*
X11899981Y-16760928D01*
X11890457Y-16741881D01*
X11890457Y-16684738D01*
X11899981Y-16665690D01*
X11909505Y-16656167D01*
X11928552Y-16646643D01*
X11957124Y-16646643D01*
X11976171Y-16656167D01*
X11985695Y-16665690D01*
X11995219Y-16684738D01*
X11995219Y-16741881D01*
X11985695Y-16760928D01*
X11976171Y-16770452D01*
X11957124Y-16779976D01*
X11928552Y-16779976D01*
X12109505Y-16779976D02*
X12090457Y-16770452D01*
X12080933Y-16751405D01*
X12080933Y-16579976D01*
X12261886Y-16770452D02*
X12242838Y-16779976D01*
X12204743Y-16779976D01*
X12185695Y-16770452D01*
X12176171Y-16751405D01*
X12176171Y-16675214D01*
X12185695Y-16656167D01*
X12204743Y-16646643D01*
X12242838Y-16646643D01*
X12261886Y-16656167D01*
X12271409Y-16675214D01*
X12271409Y-16694262D01*
X12176171Y-16713309D01*
X12347600Y-16770452D02*
X12366648Y-16779976D01*
X12404743Y-16779976D01*
X12423790Y-16770452D01*
X12433314Y-16751405D01*
X12433314Y-16741881D01*
X12423790Y-16722833D01*
X12404743Y-16713309D01*
X12376171Y-16713309D01*
X12357124Y-16703786D01*
X12347600Y-16684738D01*
X12347600Y-16675214D01*
X12357124Y-16656167D01*
X12376171Y-16646643D01*
X12404743Y-16646643D01*
X12423790Y-16656167D01*
X12499981Y-16856167D02*
X12509505Y-16846643D01*
X12528552Y-16818071D01*
X12538076Y-16799024D01*
X12547600Y-16770452D01*
X12557124Y-16722833D01*
X12557124Y-16684738D01*
X12547600Y-16637119D01*
X12538076Y-16608548D01*
X12528552Y-16589500D01*
X12509505Y-16560928D01*
X12499981Y-16551405D01*
X12861886Y-16856167D02*
X12852362Y-16846643D01*
X12833314Y-16818071D01*
X12823790Y-16799024D01*
X12814267Y-16770452D01*
X12804743Y-16722833D01*
X12804743Y-16684738D01*
X12814267Y-16637119D01*
X12823790Y-16608548D01*
X12833314Y-16589500D01*
X12852362Y-16560928D01*
X12861886Y-16551405D01*
X12938076Y-16646643D02*
X12938076Y-16779976D01*
X12938076Y-16665690D02*
X12947600Y-16656167D01*
X12966648Y-16646643D01*
X12995219Y-16646643D01*
X13014267Y-16656167D01*
X13023790Y-16675214D01*
X13023790Y-16779976D01*
X13147600Y-16779976D02*
X13128552Y-16770452D01*
X13119028Y-16760928D01*
X13109505Y-16741881D01*
X13109505Y-16684738D01*
X13119028Y-16665690D01*
X13128552Y-16656167D01*
X13147600Y-16646643D01*
X13176171Y-16646643D01*
X13195219Y-16656167D01*
X13204743Y-16665690D01*
X13214267Y-16684738D01*
X13214267Y-16741881D01*
X13204743Y-16760928D01*
X13195219Y-16770452D01*
X13176171Y-16779976D01*
X13147600Y-16779976D01*
X13271409Y-16646643D02*
X13347600Y-16646643D01*
X13299981Y-16579976D02*
X13299981Y-16751405D01*
X13309505Y-16770452D01*
X13328552Y-16779976D01*
X13347600Y-16779976D01*
X13566648Y-16646643D02*
X13566648Y-16846643D01*
X13566648Y-16656167D02*
X13585695Y-16646643D01*
X13623790Y-16646643D01*
X13642838Y-16656167D01*
X13652362Y-16665690D01*
X13661886Y-16684738D01*
X13661886Y-16741881D01*
X13652362Y-16760928D01*
X13642838Y-16770452D01*
X13623790Y-16779976D01*
X13585695Y-16779976D01*
X13566648Y-16770452D01*
X13776171Y-16779976D02*
X13757124Y-16770452D01*
X13747600Y-16751405D01*
X13747600Y-16579976D01*
X13938076Y-16779976D02*
X13938076Y-16675214D01*
X13928552Y-16656167D01*
X13909505Y-16646643D01*
X13871409Y-16646643D01*
X13852362Y-16656167D01*
X13938076Y-16770452D02*
X13919028Y-16779976D01*
X13871409Y-16779976D01*
X13852362Y-16770452D01*
X13842838Y-16751405D01*
X13842838Y-16732357D01*
X13852362Y-16713309D01*
X13871409Y-16703786D01*
X13919028Y-16703786D01*
X13938076Y-16694262D01*
X14004743Y-16646643D02*
X14080933Y-16646643D01*
X14033314Y-16579976D02*
X14033314Y-16751405D01*
X14042838Y-16770452D01*
X14061886Y-16779976D01*
X14080933Y-16779976D01*
X14223790Y-16770452D02*
X14204743Y-16779976D01*
X14166648Y-16779976D01*
X14147600Y-16770452D01*
X14138076Y-16751405D01*
X14138076Y-16675214D01*
X14147600Y-16656167D01*
X14166648Y-16646643D01*
X14204743Y-16646643D01*
X14223790Y-16656167D01*
X14233314Y-16675214D01*
X14233314Y-16694262D01*
X14138076Y-16713309D01*
X14404743Y-16779976D02*
X14404743Y-16579976D01*
X14404743Y-16770452D02*
X14385695Y-16779976D01*
X14347600Y-16779976D01*
X14328552Y-16770452D01*
X14319028Y-16760928D01*
X14309505Y-16741881D01*
X14309505Y-16684738D01*
X14319028Y-16665690D01*
X14328552Y-16656167D01*
X14347600Y-16646643D01*
X14385695Y-16646643D01*
X14404743Y-16656167D01*
X14480933Y-16856167D02*
X14490457Y-16846643D01*
X14509505Y-16818071D01*
X14519028Y-16799024D01*
X14528552Y-16770452D01*
X14538076Y-16722833D01*
X14538076Y-16684738D01*
X14528552Y-16637119D01*
X14519028Y-16608548D01*
X14509505Y-16589500D01*
X14490457Y-16560928D01*
X14480933Y-16551405D01*
M02*
