G04 #@! TF.GenerationSoftware,KiCad,Pcbnew,(6.0.2-0)*
G04 #@! TF.CreationDate,2022-02-19T09:10:40+00:00*
G04 #@! TF.ProjectId,SofleKeyboard,536f666c-654b-4657-9962-6f6172642e6b,rev?*
G04 #@! TF.SameCoordinates,Original*
G04 #@! TF.FileFunction,Legend,Top*
G04 #@! TF.FilePolarity,Positive*
%FSLAX46Y46*%
G04 Gerber Fmt 4.6, Leading zero omitted, Abs format (unit mm)*
G04 Created by KiCad (PCBNEW (6.0.2-0)) date 2022-02-19 09:10:40*
%MOMM*%
%LPD*%
G01*
G04 APERTURE LIST*
%ADD10C,0.150000*%
%ADD11C,0.400000*%
%ADD12C,0.800000*%
%ADD13C,0.500000*%
%ADD14C,3.500000*%
%ADD15C,3.000000*%
%ADD16C,1.000000*%
%ADD17C,0.300000*%
%ADD18C,0.120000*%
%ADD19C,1.397000*%
%ADD20C,1.524000*%
%ADD21C,1.200000*%
%ADD22O,2.500000X1.700000*%
%ADD23R,0.950000X1.300000*%
%ADD24R,1.143000X0.635000*%
%ADD25C,2.000000*%
%ADD26C,3.000000*%
%ADD27C,1.800000*%
%ADD28C,4.100000*%
%ADD29R,2.300000X2.000000*%
%ADD30O,1.500000X2.800000*%
%ADD31C,4.000000*%
%ADD32C,4.700000*%
%ADD33R,0.635000X1.143000*%
G04 APERTURE END LIST*
D10*
X92867805Y-82625660D02*
X92596872Y-82238612D01*
X92403348Y-82625660D02*
X92403348Y-81812860D01*
X92712986Y-81812860D01*
X92790395Y-81851565D01*
X92829100Y-81890269D01*
X92867805Y-81967679D01*
X92867805Y-82083793D01*
X92829100Y-82161203D01*
X92790395Y-82199907D01*
X92712986Y-82238612D01*
X92403348Y-82238612D01*
X93641900Y-82625660D02*
X93177443Y-82625660D01*
X93409672Y-82625660D02*
X93409672Y-81812860D01*
X93332262Y-81928974D01*
X93254852Y-82006384D01*
X93177443Y-82045088D01*
X92867805Y-80339660D02*
X92596872Y-79952612D01*
X92403348Y-80339660D02*
X92403348Y-79526860D01*
X92712986Y-79526860D01*
X92790395Y-79565565D01*
X92829100Y-79604269D01*
X92867805Y-79681679D01*
X92867805Y-79797793D01*
X92829100Y-79875203D01*
X92790395Y-79913907D01*
X92712986Y-79952612D01*
X92403348Y-79952612D01*
X93177443Y-79604269D02*
X93216148Y-79565565D01*
X93293557Y-79526860D01*
X93487081Y-79526860D01*
X93564491Y-79565565D01*
X93603195Y-79604269D01*
X93641900Y-79681679D01*
X93641900Y-79759088D01*
X93603195Y-79875203D01*
X93138738Y-80339660D01*
X93641900Y-80339660D01*
X83673904Y-80155904D02*
X83292952Y-80422571D01*
X83673904Y-80613047D02*
X82873904Y-80613047D01*
X82873904Y-80308285D01*
X82912000Y-80232095D01*
X82950095Y-80194000D01*
X83026285Y-80155904D01*
X83140571Y-80155904D01*
X83216761Y-80194000D01*
X83254857Y-80232095D01*
X83292952Y-80308285D01*
X83292952Y-80613047D01*
X83254857Y-79813047D02*
X83254857Y-79546380D01*
X83673904Y-79432095D02*
X83673904Y-79813047D01*
X82873904Y-79813047D01*
X82873904Y-79432095D01*
X83635809Y-79127333D02*
X83673904Y-79013047D01*
X83673904Y-78822571D01*
X83635809Y-78746380D01*
X83597714Y-78708285D01*
X83521523Y-78670190D01*
X83445333Y-78670190D01*
X83369142Y-78708285D01*
X83331047Y-78746380D01*
X83292952Y-78822571D01*
X83254857Y-78974952D01*
X83216761Y-79051142D01*
X83178666Y-79089238D01*
X83102476Y-79127333D01*
X83026285Y-79127333D01*
X82950095Y-79089238D01*
X82912000Y-79051142D01*
X82873904Y-78974952D01*
X82873904Y-78784476D01*
X82912000Y-78670190D01*
X83254857Y-78327333D02*
X83254857Y-78060666D01*
X83673904Y-77946380D02*
X83673904Y-78327333D01*
X82873904Y-78327333D01*
X82873904Y-77946380D01*
X82873904Y-77717809D02*
X82873904Y-77260666D01*
X83673904Y-77489238D02*
X82873904Y-77489238D01*
X83673904Y-80155904D02*
X83292952Y-80422571D01*
X83673904Y-80613047D02*
X82873904Y-80613047D01*
X82873904Y-80308285D01*
X82912000Y-80232095D01*
X82950095Y-80194000D01*
X83026285Y-80155904D01*
X83140571Y-80155904D01*
X83216761Y-80194000D01*
X83254857Y-80232095D01*
X83292952Y-80308285D01*
X83292952Y-80613047D01*
X83254857Y-79813047D02*
X83254857Y-79546380D01*
X83673904Y-79432095D02*
X83673904Y-79813047D01*
X82873904Y-79813047D01*
X82873904Y-79432095D01*
X83635809Y-79127333D02*
X83673904Y-79013047D01*
X83673904Y-78822571D01*
X83635809Y-78746380D01*
X83597714Y-78708285D01*
X83521523Y-78670190D01*
X83445333Y-78670190D01*
X83369142Y-78708285D01*
X83331047Y-78746380D01*
X83292952Y-78822571D01*
X83254857Y-78974952D01*
X83216761Y-79051142D01*
X83178666Y-79089238D01*
X83102476Y-79127333D01*
X83026285Y-79127333D01*
X82950095Y-79089238D01*
X82912000Y-79051142D01*
X82873904Y-78974952D01*
X82873904Y-78784476D01*
X82912000Y-78670190D01*
X83254857Y-78327333D02*
X83254857Y-78060666D01*
X83673904Y-77946380D02*
X83673904Y-78327333D01*
X82873904Y-78327333D01*
X82873904Y-77946380D01*
X82873904Y-77717809D02*
X82873904Y-77260666D01*
X83673904Y-77489238D02*
X82873904Y-77489238D01*
X112493846Y-49594141D02*
X112636703Y-49641760D01*
X112874799Y-49641760D01*
X112970037Y-49594141D01*
X113017656Y-49546522D01*
X113065275Y-49451284D01*
X113065275Y-49356046D01*
X113017656Y-49260808D01*
X112970037Y-49213189D01*
X112874799Y-49165570D01*
X112684322Y-49117951D01*
X112589084Y-49070332D01*
X112541465Y-49022713D01*
X112493846Y-48927475D01*
X112493846Y-48832237D01*
X112541465Y-48736999D01*
X112589084Y-48689380D01*
X112684322Y-48641760D01*
X112922418Y-48641760D01*
X113065275Y-48689380D01*
X113398608Y-48641760D02*
X113636703Y-49641760D01*
X113827180Y-48927475D01*
X114017656Y-49641760D01*
X114255751Y-48641760D01*
X115160513Y-49641760D02*
X114589084Y-49641760D01*
X114874799Y-49641760D02*
X114874799Y-48641760D01*
X114779560Y-48784618D01*
X114684322Y-48879856D01*
X114589084Y-48927475D01*
X131492666Y-47092761D02*
X131635523Y-47140380D01*
X131873619Y-47140380D01*
X131968857Y-47092761D01*
X132016476Y-47045142D01*
X132064095Y-46949904D01*
X132064095Y-46854666D01*
X132016476Y-46759428D01*
X131968857Y-46711809D01*
X131873619Y-46664190D01*
X131683142Y-46616571D01*
X131587904Y-46568952D01*
X131540285Y-46521333D01*
X131492666Y-46426095D01*
X131492666Y-46330857D01*
X131540285Y-46235619D01*
X131587904Y-46188000D01*
X131683142Y-46140380D01*
X131921238Y-46140380D01*
X132064095Y-46188000D01*
X132397428Y-46140380D02*
X132635523Y-47140380D01*
X132826000Y-46426095D01*
X133016476Y-47140380D01*
X133254571Y-46140380D01*
X133587904Y-46235619D02*
X133635523Y-46188000D01*
X133730761Y-46140380D01*
X133968857Y-46140380D01*
X134064095Y-46188000D01*
X134111714Y-46235619D01*
X134159333Y-46330857D01*
X134159333Y-46426095D01*
X134111714Y-46568952D01*
X133540285Y-47140380D01*
X134159333Y-47140380D01*
X150592666Y-44574761D02*
X150735523Y-44622380D01*
X150973619Y-44622380D01*
X151068857Y-44574761D01*
X151116476Y-44527142D01*
X151164095Y-44431904D01*
X151164095Y-44336666D01*
X151116476Y-44241428D01*
X151068857Y-44193809D01*
X150973619Y-44146190D01*
X150783142Y-44098571D01*
X150687904Y-44050952D01*
X150640285Y-44003333D01*
X150592666Y-43908095D01*
X150592666Y-43812857D01*
X150640285Y-43717619D01*
X150687904Y-43670000D01*
X150783142Y-43622380D01*
X151021238Y-43622380D01*
X151164095Y-43670000D01*
X151497428Y-43622380D02*
X151735523Y-44622380D01*
X151926000Y-43908095D01*
X152116476Y-44622380D01*
X152354571Y-43622380D01*
X152640285Y-43622380D02*
X153259333Y-43622380D01*
X152926000Y-44003333D01*
X153068857Y-44003333D01*
X153164095Y-44050952D01*
X153211714Y-44098571D01*
X153259333Y-44193809D01*
X153259333Y-44431904D01*
X153211714Y-44527142D01*
X153164095Y-44574761D01*
X153068857Y-44622380D01*
X152783142Y-44622380D01*
X152687904Y-44574761D01*
X152640285Y-44527142D01*
X169593666Y-47193761D02*
X169736523Y-47241380D01*
X169974619Y-47241380D01*
X170069857Y-47193761D01*
X170117476Y-47146142D01*
X170165095Y-47050904D01*
X170165095Y-46955666D01*
X170117476Y-46860428D01*
X170069857Y-46812809D01*
X169974619Y-46765190D01*
X169784142Y-46717571D01*
X169688904Y-46669952D01*
X169641285Y-46622333D01*
X169593666Y-46527095D01*
X169593666Y-46431857D01*
X169641285Y-46336619D01*
X169688904Y-46289000D01*
X169784142Y-46241380D01*
X170022238Y-46241380D01*
X170165095Y-46289000D01*
X170498428Y-46241380D02*
X170736523Y-47241380D01*
X170927000Y-46527095D01*
X171117476Y-47241380D01*
X171355571Y-46241380D01*
X172165095Y-46574714D02*
X172165095Y-47241380D01*
X171927000Y-46193761D02*
X171688904Y-46908047D01*
X172307952Y-46908047D01*
X188692666Y-51993761D02*
X188835523Y-52041380D01*
X189073619Y-52041380D01*
X189168857Y-51993761D01*
X189216476Y-51946142D01*
X189264095Y-51850904D01*
X189264095Y-51755666D01*
X189216476Y-51660428D01*
X189168857Y-51612809D01*
X189073619Y-51565190D01*
X188883142Y-51517571D01*
X188787904Y-51469952D01*
X188740285Y-51422333D01*
X188692666Y-51327095D01*
X188692666Y-51231857D01*
X188740285Y-51136619D01*
X188787904Y-51089000D01*
X188883142Y-51041380D01*
X189121238Y-51041380D01*
X189264095Y-51089000D01*
X189597428Y-51041380D02*
X189835523Y-52041380D01*
X190026000Y-51327095D01*
X190216476Y-52041380D01*
X190454571Y-51041380D01*
X191311714Y-51041380D02*
X190835523Y-51041380D01*
X190787904Y-51517571D01*
X190835523Y-51469952D01*
X190930761Y-51422333D01*
X191168857Y-51422333D01*
X191264095Y-51469952D01*
X191311714Y-51517571D01*
X191359333Y-51612809D01*
X191359333Y-51850904D01*
X191311714Y-51946142D01*
X191264095Y-51993761D01*
X191168857Y-52041380D01*
X190930761Y-52041380D01*
X190835523Y-51993761D01*
X190787904Y-51946142D01*
X207692006Y-51995501D02*
X207834863Y-52043120D01*
X208072959Y-52043120D01*
X208168197Y-51995501D01*
X208215816Y-51947882D01*
X208263435Y-51852644D01*
X208263435Y-51757406D01*
X208215816Y-51662168D01*
X208168197Y-51614549D01*
X208072959Y-51566930D01*
X207882482Y-51519311D01*
X207787244Y-51471692D01*
X207739625Y-51424073D01*
X207692006Y-51328835D01*
X207692006Y-51233597D01*
X207739625Y-51138359D01*
X207787244Y-51090740D01*
X207882482Y-51043120D01*
X208120578Y-51043120D01*
X208263435Y-51090740D01*
X208596768Y-51043120D02*
X208834863Y-52043120D01*
X209025340Y-51328835D01*
X209215816Y-52043120D01*
X209453911Y-51043120D01*
X210263435Y-51043120D02*
X210072959Y-51043120D01*
X209977720Y-51090740D01*
X209930101Y-51138359D01*
X209834863Y-51281216D01*
X209787244Y-51471692D01*
X209787244Y-51852644D01*
X209834863Y-51947882D01*
X209882482Y-51995501D01*
X209977720Y-52043120D01*
X210168197Y-52043120D01*
X210263435Y-51995501D01*
X210311054Y-51947882D01*
X210358673Y-51852644D01*
X210358673Y-51614549D01*
X210311054Y-51519311D01*
X210263435Y-51471692D01*
X210168197Y-51424073D01*
X209977720Y-51424073D01*
X209882482Y-51471692D01*
X209834863Y-51519311D01*
X209787244Y-51614549D01*
X112493846Y-68644141D02*
X112636703Y-68691760D01*
X112874799Y-68691760D01*
X112970037Y-68644141D01*
X113017656Y-68596522D01*
X113065275Y-68501284D01*
X113065275Y-68406046D01*
X113017656Y-68310808D01*
X112970037Y-68263189D01*
X112874799Y-68215570D01*
X112684322Y-68167951D01*
X112589084Y-68120332D01*
X112541465Y-68072713D01*
X112493846Y-67977475D01*
X112493846Y-67882237D01*
X112541465Y-67786999D01*
X112589084Y-67739380D01*
X112684322Y-67691760D01*
X112922418Y-67691760D01*
X113065275Y-67739380D01*
X113398608Y-67691760D02*
X113636703Y-68691760D01*
X113827180Y-67977475D01*
X114017656Y-68691760D01*
X114255751Y-67691760D01*
X114541465Y-67691760D02*
X115208132Y-67691760D01*
X114779560Y-68691760D01*
X131492666Y-66142761D02*
X131635523Y-66190380D01*
X131873619Y-66190380D01*
X131968857Y-66142761D01*
X132016476Y-66095142D01*
X132064095Y-65999904D01*
X132064095Y-65904666D01*
X132016476Y-65809428D01*
X131968857Y-65761809D01*
X131873619Y-65714190D01*
X131683142Y-65666571D01*
X131587904Y-65618952D01*
X131540285Y-65571333D01*
X131492666Y-65476095D01*
X131492666Y-65380857D01*
X131540285Y-65285619D01*
X131587904Y-65238000D01*
X131683142Y-65190380D01*
X131921238Y-65190380D01*
X132064095Y-65238000D01*
X132397428Y-65190380D02*
X132635523Y-66190380D01*
X132826000Y-65476095D01*
X133016476Y-66190380D01*
X133254571Y-65190380D01*
X133778380Y-65618952D02*
X133683142Y-65571333D01*
X133635523Y-65523714D01*
X133587904Y-65428476D01*
X133587904Y-65380857D01*
X133635523Y-65285619D01*
X133683142Y-65238000D01*
X133778380Y-65190380D01*
X133968857Y-65190380D01*
X134064095Y-65238000D01*
X134111714Y-65285619D01*
X134159333Y-65380857D01*
X134159333Y-65428476D01*
X134111714Y-65523714D01*
X134064095Y-65571333D01*
X133968857Y-65618952D01*
X133778380Y-65618952D01*
X133683142Y-65666571D01*
X133635523Y-65714190D01*
X133587904Y-65809428D01*
X133587904Y-65999904D01*
X133635523Y-66095142D01*
X133683142Y-66142761D01*
X133778380Y-66190380D01*
X133968857Y-66190380D01*
X134064095Y-66142761D01*
X134111714Y-66095142D01*
X134159333Y-65999904D01*
X134159333Y-65809428D01*
X134111714Y-65714190D01*
X134064095Y-65666571D01*
X133968857Y-65618952D01*
X150592666Y-63624761D02*
X150735523Y-63672380D01*
X150973619Y-63672380D01*
X151068857Y-63624761D01*
X151116476Y-63577142D01*
X151164095Y-63481904D01*
X151164095Y-63386666D01*
X151116476Y-63291428D01*
X151068857Y-63243809D01*
X150973619Y-63196190D01*
X150783142Y-63148571D01*
X150687904Y-63100952D01*
X150640285Y-63053333D01*
X150592666Y-62958095D01*
X150592666Y-62862857D01*
X150640285Y-62767619D01*
X150687904Y-62720000D01*
X150783142Y-62672380D01*
X151021238Y-62672380D01*
X151164095Y-62720000D01*
X151497428Y-62672380D02*
X151735523Y-63672380D01*
X151926000Y-62958095D01*
X152116476Y-63672380D01*
X152354571Y-62672380D01*
X152783142Y-63672380D02*
X152973619Y-63672380D01*
X153068857Y-63624761D01*
X153116476Y-63577142D01*
X153211714Y-63434285D01*
X153259333Y-63243809D01*
X153259333Y-62862857D01*
X153211714Y-62767619D01*
X153164095Y-62720000D01*
X153068857Y-62672380D01*
X152878380Y-62672380D01*
X152783142Y-62720000D01*
X152735523Y-62767619D01*
X152687904Y-62862857D01*
X152687904Y-63100952D01*
X152735523Y-63196190D01*
X152783142Y-63243809D01*
X152878380Y-63291428D01*
X153068857Y-63291428D01*
X153164095Y-63243809D01*
X153211714Y-63196190D01*
X153259333Y-63100952D01*
X169117476Y-66243761D02*
X169260333Y-66291380D01*
X169498428Y-66291380D01*
X169593666Y-66243761D01*
X169641285Y-66196142D01*
X169688904Y-66100904D01*
X169688904Y-66005666D01*
X169641285Y-65910428D01*
X169593666Y-65862809D01*
X169498428Y-65815190D01*
X169307952Y-65767571D01*
X169212714Y-65719952D01*
X169165095Y-65672333D01*
X169117476Y-65577095D01*
X169117476Y-65481857D01*
X169165095Y-65386619D01*
X169212714Y-65339000D01*
X169307952Y-65291380D01*
X169546047Y-65291380D01*
X169688904Y-65339000D01*
X170022238Y-65291380D02*
X170260333Y-66291380D01*
X170450809Y-65577095D01*
X170641285Y-66291380D01*
X170879380Y-65291380D01*
X171784142Y-66291380D02*
X171212714Y-66291380D01*
X171498428Y-66291380D02*
X171498428Y-65291380D01*
X171403190Y-65434238D01*
X171307952Y-65529476D01*
X171212714Y-65577095D01*
X172403190Y-65291380D02*
X172498428Y-65291380D01*
X172593666Y-65339000D01*
X172641285Y-65386619D01*
X172688904Y-65481857D01*
X172736523Y-65672333D01*
X172736523Y-65910428D01*
X172688904Y-66100904D01*
X172641285Y-66196142D01*
X172593666Y-66243761D01*
X172498428Y-66291380D01*
X172403190Y-66291380D01*
X172307952Y-66243761D01*
X172260333Y-66196142D01*
X172212714Y-66100904D01*
X172165095Y-65910428D01*
X172165095Y-65672333D01*
X172212714Y-65481857D01*
X172260333Y-65386619D01*
X172307952Y-65339000D01*
X172403190Y-65291380D01*
X188216476Y-71043761D02*
X188359333Y-71091380D01*
X188597428Y-71091380D01*
X188692666Y-71043761D01*
X188740285Y-70996142D01*
X188787904Y-70900904D01*
X188787904Y-70805666D01*
X188740285Y-70710428D01*
X188692666Y-70662809D01*
X188597428Y-70615190D01*
X188406952Y-70567571D01*
X188311714Y-70519952D01*
X188264095Y-70472333D01*
X188216476Y-70377095D01*
X188216476Y-70281857D01*
X188264095Y-70186619D01*
X188311714Y-70139000D01*
X188406952Y-70091380D01*
X188645047Y-70091380D01*
X188787904Y-70139000D01*
X189121238Y-70091380D02*
X189359333Y-71091380D01*
X189549809Y-70377095D01*
X189740285Y-71091380D01*
X189978380Y-70091380D01*
X190883142Y-71091380D02*
X190311714Y-71091380D01*
X190597428Y-71091380D02*
X190597428Y-70091380D01*
X190502190Y-70234238D01*
X190406952Y-70329476D01*
X190311714Y-70377095D01*
X191835523Y-71091380D02*
X191264095Y-71091380D01*
X191549809Y-71091380D02*
X191549809Y-70091380D01*
X191454571Y-70234238D01*
X191359333Y-70329476D01*
X191264095Y-70377095D01*
X207215816Y-71045501D02*
X207358673Y-71093120D01*
X207596768Y-71093120D01*
X207692006Y-71045501D01*
X207739625Y-70997882D01*
X207787244Y-70902644D01*
X207787244Y-70807406D01*
X207739625Y-70712168D01*
X207692006Y-70664549D01*
X207596768Y-70616930D01*
X207406292Y-70569311D01*
X207311054Y-70521692D01*
X207263435Y-70474073D01*
X207215816Y-70378835D01*
X207215816Y-70283597D01*
X207263435Y-70188359D01*
X207311054Y-70140740D01*
X207406292Y-70093120D01*
X207644387Y-70093120D01*
X207787244Y-70140740D01*
X208120578Y-70093120D02*
X208358673Y-71093120D01*
X208549149Y-70378835D01*
X208739625Y-71093120D01*
X208977720Y-70093120D01*
X209882482Y-71093120D02*
X209311054Y-71093120D01*
X209596768Y-71093120D02*
X209596768Y-70093120D01*
X209501530Y-70235978D01*
X209406292Y-70331216D01*
X209311054Y-70378835D01*
X210263435Y-70188359D02*
X210311054Y-70140740D01*
X210406292Y-70093120D01*
X210644387Y-70093120D01*
X210739625Y-70140740D01*
X210787244Y-70188359D01*
X210834863Y-70283597D01*
X210834863Y-70378835D01*
X210787244Y-70521692D01*
X210215816Y-71093120D01*
X210834863Y-71093120D01*
X112017656Y-87694141D02*
X112160513Y-87741760D01*
X112398608Y-87741760D01*
X112493846Y-87694141D01*
X112541465Y-87646522D01*
X112589084Y-87551284D01*
X112589084Y-87456046D01*
X112541465Y-87360808D01*
X112493846Y-87313189D01*
X112398608Y-87265570D01*
X112208132Y-87217951D01*
X112112894Y-87170332D01*
X112065275Y-87122713D01*
X112017656Y-87027475D01*
X112017656Y-86932237D01*
X112065275Y-86836999D01*
X112112894Y-86789380D01*
X112208132Y-86741760D01*
X112446227Y-86741760D01*
X112589084Y-86789380D01*
X112922418Y-86741760D02*
X113160513Y-87741760D01*
X113350989Y-87027475D01*
X113541465Y-87741760D01*
X113779560Y-86741760D01*
X114684322Y-87741760D02*
X114112894Y-87741760D01*
X114398608Y-87741760D02*
X114398608Y-86741760D01*
X114303370Y-86884618D01*
X114208132Y-86979856D01*
X114112894Y-87027475D01*
X115017656Y-86741760D02*
X115636703Y-86741760D01*
X115303370Y-87122713D01*
X115446227Y-87122713D01*
X115541465Y-87170332D01*
X115589084Y-87217951D01*
X115636703Y-87313189D01*
X115636703Y-87551284D01*
X115589084Y-87646522D01*
X115541465Y-87694141D01*
X115446227Y-87741760D01*
X115160513Y-87741760D01*
X115065275Y-87694141D01*
X115017656Y-87646522D01*
X131016476Y-85192761D02*
X131159333Y-85240380D01*
X131397428Y-85240380D01*
X131492666Y-85192761D01*
X131540285Y-85145142D01*
X131587904Y-85049904D01*
X131587904Y-84954666D01*
X131540285Y-84859428D01*
X131492666Y-84811809D01*
X131397428Y-84764190D01*
X131206952Y-84716571D01*
X131111714Y-84668952D01*
X131064095Y-84621333D01*
X131016476Y-84526095D01*
X131016476Y-84430857D01*
X131064095Y-84335619D01*
X131111714Y-84288000D01*
X131206952Y-84240380D01*
X131445047Y-84240380D01*
X131587904Y-84288000D01*
X131921238Y-84240380D02*
X132159333Y-85240380D01*
X132349809Y-84526095D01*
X132540285Y-85240380D01*
X132778380Y-84240380D01*
X133683142Y-85240380D02*
X133111714Y-85240380D01*
X133397428Y-85240380D02*
X133397428Y-84240380D01*
X133302190Y-84383238D01*
X133206952Y-84478476D01*
X133111714Y-84526095D01*
X134540285Y-84573714D02*
X134540285Y-85240380D01*
X134302190Y-84192761D02*
X134064095Y-84907047D01*
X134683142Y-84907047D01*
X150116476Y-82674761D02*
X150259333Y-82722380D01*
X150497428Y-82722380D01*
X150592666Y-82674761D01*
X150640285Y-82627142D01*
X150687904Y-82531904D01*
X150687904Y-82436666D01*
X150640285Y-82341428D01*
X150592666Y-82293809D01*
X150497428Y-82246190D01*
X150306952Y-82198571D01*
X150211714Y-82150952D01*
X150164095Y-82103333D01*
X150116476Y-82008095D01*
X150116476Y-81912857D01*
X150164095Y-81817619D01*
X150211714Y-81770000D01*
X150306952Y-81722380D01*
X150545047Y-81722380D01*
X150687904Y-81770000D01*
X151021238Y-81722380D02*
X151259333Y-82722380D01*
X151449809Y-82008095D01*
X151640285Y-82722380D01*
X151878380Y-81722380D01*
X152783142Y-82722380D02*
X152211714Y-82722380D01*
X152497428Y-82722380D02*
X152497428Y-81722380D01*
X152402190Y-81865238D01*
X152306952Y-81960476D01*
X152211714Y-82008095D01*
X153687904Y-81722380D02*
X153211714Y-81722380D01*
X153164095Y-82198571D01*
X153211714Y-82150952D01*
X153306952Y-82103333D01*
X153545047Y-82103333D01*
X153640285Y-82150952D01*
X153687904Y-82198571D01*
X153735523Y-82293809D01*
X153735523Y-82531904D01*
X153687904Y-82627142D01*
X153640285Y-82674761D01*
X153545047Y-82722380D01*
X153306952Y-82722380D01*
X153211714Y-82674761D01*
X153164095Y-82627142D01*
X169117476Y-85293761D02*
X169260333Y-85341380D01*
X169498428Y-85341380D01*
X169593666Y-85293761D01*
X169641285Y-85246142D01*
X169688904Y-85150904D01*
X169688904Y-85055666D01*
X169641285Y-84960428D01*
X169593666Y-84912809D01*
X169498428Y-84865190D01*
X169307952Y-84817571D01*
X169212714Y-84769952D01*
X169165095Y-84722333D01*
X169117476Y-84627095D01*
X169117476Y-84531857D01*
X169165095Y-84436619D01*
X169212714Y-84389000D01*
X169307952Y-84341380D01*
X169546047Y-84341380D01*
X169688904Y-84389000D01*
X170022238Y-84341380D02*
X170260333Y-85341380D01*
X170450809Y-84627095D01*
X170641285Y-85341380D01*
X170879380Y-84341380D01*
X171784142Y-85341380D02*
X171212714Y-85341380D01*
X171498428Y-85341380D02*
X171498428Y-84341380D01*
X171403190Y-84484238D01*
X171307952Y-84579476D01*
X171212714Y-84627095D01*
X172641285Y-84341380D02*
X172450809Y-84341380D01*
X172355571Y-84389000D01*
X172307952Y-84436619D01*
X172212714Y-84579476D01*
X172165095Y-84769952D01*
X172165095Y-85150904D01*
X172212714Y-85246142D01*
X172260333Y-85293761D01*
X172355571Y-85341380D01*
X172546047Y-85341380D01*
X172641285Y-85293761D01*
X172688904Y-85246142D01*
X172736523Y-85150904D01*
X172736523Y-84912809D01*
X172688904Y-84817571D01*
X172641285Y-84769952D01*
X172546047Y-84722333D01*
X172355571Y-84722333D01*
X172260333Y-84769952D01*
X172212714Y-84817571D01*
X172165095Y-84912809D01*
X188216476Y-90093761D02*
X188359333Y-90141380D01*
X188597428Y-90141380D01*
X188692666Y-90093761D01*
X188740285Y-90046142D01*
X188787904Y-89950904D01*
X188787904Y-89855666D01*
X188740285Y-89760428D01*
X188692666Y-89712809D01*
X188597428Y-89665190D01*
X188406952Y-89617571D01*
X188311714Y-89569952D01*
X188264095Y-89522333D01*
X188216476Y-89427095D01*
X188216476Y-89331857D01*
X188264095Y-89236619D01*
X188311714Y-89189000D01*
X188406952Y-89141380D01*
X188645047Y-89141380D01*
X188787904Y-89189000D01*
X189121238Y-89141380D02*
X189359333Y-90141380D01*
X189549809Y-89427095D01*
X189740285Y-90141380D01*
X189978380Y-89141380D01*
X190883142Y-90141380D02*
X190311714Y-90141380D01*
X190597428Y-90141380D02*
X190597428Y-89141380D01*
X190502190Y-89284238D01*
X190406952Y-89379476D01*
X190311714Y-89427095D01*
X191216476Y-89141380D02*
X191883142Y-89141380D01*
X191454571Y-90141380D01*
X112017656Y-106744141D02*
X112160513Y-106791760D01*
X112398608Y-106791760D01*
X112493846Y-106744141D01*
X112541465Y-106696522D01*
X112589084Y-106601284D01*
X112589084Y-106506046D01*
X112541465Y-106410808D01*
X112493846Y-106363189D01*
X112398608Y-106315570D01*
X112208132Y-106267951D01*
X112112894Y-106220332D01*
X112065275Y-106172713D01*
X112017656Y-106077475D01*
X112017656Y-105982237D01*
X112065275Y-105886999D01*
X112112894Y-105839380D01*
X112208132Y-105791760D01*
X112446227Y-105791760D01*
X112589084Y-105839380D01*
X112922418Y-105791760D02*
X113160513Y-106791760D01*
X113350989Y-106077475D01*
X113541465Y-106791760D01*
X113779560Y-105791760D01*
X114684322Y-106791760D02*
X114112894Y-106791760D01*
X114398608Y-106791760D02*
X114398608Y-105791760D01*
X114303370Y-105934618D01*
X114208132Y-106029856D01*
X114112894Y-106077475D01*
X115160513Y-106791760D02*
X115350989Y-106791760D01*
X115446227Y-106744141D01*
X115493846Y-106696522D01*
X115589084Y-106553665D01*
X115636703Y-106363189D01*
X115636703Y-105982237D01*
X115589084Y-105886999D01*
X115541465Y-105839380D01*
X115446227Y-105791760D01*
X115255751Y-105791760D01*
X115160513Y-105839380D01*
X115112894Y-105886999D01*
X115065275Y-105982237D01*
X115065275Y-106220332D01*
X115112894Y-106315570D01*
X115160513Y-106363189D01*
X115255751Y-106410808D01*
X115446227Y-106410808D01*
X115541465Y-106363189D01*
X115589084Y-106315570D01*
X115636703Y-106220332D01*
X131016476Y-104242761D02*
X131159333Y-104290380D01*
X131397428Y-104290380D01*
X131492666Y-104242761D01*
X131540285Y-104195142D01*
X131587904Y-104099904D01*
X131587904Y-104004666D01*
X131540285Y-103909428D01*
X131492666Y-103861809D01*
X131397428Y-103814190D01*
X131206952Y-103766571D01*
X131111714Y-103718952D01*
X131064095Y-103671333D01*
X131016476Y-103576095D01*
X131016476Y-103480857D01*
X131064095Y-103385619D01*
X131111714Y-103338000D01*
X131206952Y-103290380D01*
X131445047Y-103290380D01*
X131587904Y-103338000D01*
X131921238Y-103290380D02*
X132159333Y-104290380D01*
X132349809Y-103576095D01*
X132540285Y-104290380D01*
X132778380Y-103290380D01*
X133111714Y-103385619D02*
X133159333Y-103338000D01*
X133254571Y-103290380D01*
X133492666Y-103290380D01*
X133587904Y-103338000D01*
X133635523Y-103385619D01*
X133683142Y-103480857D01*
X133683142Y-103576095D01*
X133635523Y-103718952D01*
X133064095Y-104290380D01*
X133683142Y-104290380D01*
X134302190Y-103290380D02*
X134397428Y-103290380D01*
X134492666Y-103338000D01*
X134540285Y-103385619D01*
X134587904Y-103480857D01*
X134635523Y-103671333D01*
X134635523Y-103909428D01*
X134587904Y-104099904D01*
X134540285Y-104195142D01*
X134492666Y-104242761D01*
X134397428Y-104290380D01*
X134302190Y-104290380D01*
X134206952Y-104242761D01*
X134159333Y-104195142D01*
X134111714Y-104099904D01*
X134064095Y-103909428D01*
X134064095Y-103671333D01*
X134111714Y-103480857D01*
X134159333Y-103385619D01*
X134206952Y-103338000D01*
X134302190Y-103290380D01*
X150116476Y-101724761D02*
X150259333Y-101772380D01*
X150497428Y-101772380D01*
X150592666Y-101724761D01*
X150640285Y-101677142D01*
X150687904Y-101581904D01*
X150687904Y-101486666D01*
X150640285Y-101391428D01*
X150592666Y-101343809D01*
X150497428Y-101296190D01*
X150306952Y-101248571D01*
X150211714Y-101200952D01*
X150164095Y-101153333D01*
X150116476Y-101058095D01*
X150116476Y-100962857D01*
X150164095Y-100867619D01*
X150211714Y-100820000D01*
X150306952Y-100772380D01*
X150545047Y-100772380D01*
X150687904Y-100820000D01*
X151021238Y-100772380D02*
X151259333Y-101772380D01*
X151449809Y-101058095D01*
X151640285Y-101772380D01*
X151878380Y-100772380D01*
X152211714Y-100867619D02*
X152259333Y-100820000D01*
X152354571Y-100772380D01*
X152592666Y-100772380D01*
X152687904Y-100820000D01*
X152735523Y-100867619D01*
X152783142Y-100962857D01*
X152783142Y-101058095D01*
X152735523Y-101200952D01*
X152164095Y-101772380D01*
X152783142Y-101772380D01*
X153735523Y-101772380D02*
X153164095Y-101772380D01*
X153449809Y-101772380D02*
X153449809Y-100772380D01*
X153354571Y-100915238D01*
X153259333Y-101010476D01*
X153164095Y-101058095D01*
X169117476Y-104343761D02*
X169260333Y-104391380D01*
X169498428Y-104391380D01*
X169593666Y-104343761D01*
X169641285Y-104296142D01*
X169688904Y-104200904D01*
X169688904Y-104105666D01*
X169641285Y-104010428D01*
X169593666Y-103962809D01*
X169498428Y-103915190D01*
X169307952Y-103867571D01*
X169212714Y-103819952D01*
X169165095Y-103772333D01*
X169117476Y-103677095D01*
X169117476Y-103581857D01*
X169165095Y-103486619D01*
X169212714Y-103439000D01*
X169307952Y-103391380D01*
X169546047Y-103391380D01*
X169688904Y-103439000D01*
X170022238Y-103391380D02*
X170260333Y-104391380D01*
X170450809Y-103677095D01*
X170641285Y-104391380D01*
X170879380Y-103391380D01*
X171212714Y-103486619D02*
X171260333Y-103439000D01*
X171355571Y-103391380D01*
X171593666Y-103391380D01*
X171688904Y-103439000D01*
X171736523Y-103486619D01*
X171784142Y-103581857D01*
X171784142Y-103677095D01*
X171736523Y-103819952D01*
X171165095Y-104391380D01*
X171784142Y-104391380D01*
X172165095Y-103486619D02*
X172212714Y-103439000D01*
X172307952Y-103391380D01*
X172546047Y-103391380D01*
X172641285Y-103439000D01*
X172688904Y-103486619D01*
X172736523Y-103581857D01*
X172736523Y-103677095D01*
X172688904Y-103819952D01*
X172117476Y-104391380D01*
X172736523Y-104391380D01*
X188216476Y-109143761D02*
X188359333Y-109191380D01*
X188597428Y-109191380D01*
X188692666Y-109143761D01*
X188740285Y-109096142D01*
X188787904Y-109000904D01*
X188787904Y-108905666D01*
X188740285Y-108810428D01*
X188692666Y-108762809D01*
X188597428Y-108715190D01*
X188406952Y-108667571D01*
X188311714Y-108619952D01*
X188264095Y-108572333D01*
X188216476Y-108477095D01*
X188216476Y-108381857D01*
X188264095Y-108286619D01*
X188311714Y-108239000D01*
X188406952Y-108191380D01*
X188645047Y-108191380D01*
X188787904Y-108239000D01*
X189121238Y-108191380D02*
X189359333Y-109191380D01*
X189549809Y-108477095D01*
X189740285Y-109191380D01*
X189978380Y-108191380D01*
X190311714Y-108286619D02*
X190359333Y-108239000D01*
X190454571Y-108191380D01*
X190692666Y-108191380D01*
X190787904Y-108239000D01*
X190835523Y-108286619D01*
X190883142Y-108381857D01*
X190883142Y-108477095D01*
X190835523Y-108619952D01*
X190264095Y-109191380D01*
X190883142Y-109191380D01*
X191216476Y-108191380D02*
X191835523Y-108191380D01*
X191502190Y-108572333D01*
X191645047Y-108572333D01*
X191740285Y-108619952D01*
X191787904Y-108667571D01*
X191835523Y-108762809D01*
X191835523Y-109000904D01*
X191787904Y-109096142D01*
X191740285Y-109143761D01*
X191645047Y-109191380D01*
X191359333Y-109191380D01*
X191264095Y-109143761D01*
X191216476Y-109096142D01*
X91350780Y-132764287D02*
X91380969Y-132911814D01*
X91500016Y-133118011D01*
X91588875Y-133176680D01*
X91653924Y-133194110D01*
X91760212Y-133187730D01*
X91842690Y-133140111D01*
X91901359Y-133051253D01*
X91918789Y-132986204D01*
X91912409Y-132879916D01*
X91858411Y-132691149D01*
X91852031Y-132584861D01*
X91869461Y-132519812D01*
X91928130Y-132430954D01*
X92010608Y-132383334D01*
X92116897Y-132376955D01*
X92181945Y-132394385D01*
X92270804Y-132453054D01*
X92389851Y-132659250D01*
X92420041Y-132806778D01*
X92627947Y-133071643D02*
X91880969Y-133777840D01*
X92594796Y-133585654D01*
X92071445Y-134107754D01*
X93056518Y-133813951D01*
X93140706Y-134150245D02*
X93205755Y-134167675D01*
X93294613Y-134226344D01*
X93413661Y-134432540D01*
X93420041Y-134538828D01*
X93402611Y-134603877D01*
X93343942Y-134692736D01*
X93261463Y-134740355D01*
X93113936Y-134770544D01*
X92333350Y-134561387D01*
X92642874Y-135097497D01*
X93937470Y-135339805D02*
X93842232Y-135174848D01*
X93753374Y-135116179D01*
X93688325Y-135098749D01*
X93516988Y-135087699D01*
X93328221Y-135141698D01*
X92998307Y-135332174D01*
X92939638Y-135421032D01*
X92922208Y-135486081D01*
X92928588Y-135592369D01*
X93023826Y-135757326D01*
X93112684Y-135815995D01*
X93177733Y-135833425D01*
X93284021Y-135827045D01*
X93490218Y-135707998D01*
X93548887Y-135619139D01*
X93566317Y-135554091D01*
X93559937Y-135447803D01*
X93464699Y-135282845D01*
X93375840Y-135224176D01*
X93310792Y-135206746D01*
X93204503Y-135213126D01*
X108554437Y-128515532D02*
X108704751Y-128524554D01*
X108934733Y-128462930D01*
X109014401Y-128392285D01*
X109048073Y-128333963D01*
X109069420Y-128229646D01*
X109044771Y-128137653D01*
X108974125Y-128057985D01*
X108915804Y-128024313D01*
X108811486Y-128002966D01*
X108615176Y-128006268D01*
X108510858Y-127984921D01*
X108452537Y-127951249D01*
X108381891Y-127871581D01*
X108357241Y-127779588D01*
X108378588Y-127675271D01*
X108412260Y-127616949D01*
X108491928Y-127546303D01*
X108721911Y-127484680D01*
X108872225Y-127493702D01*
X109181875Y-127361433D02*
X109670677Y-128265735D01*
X109669792Y-127526489D01*
X110038648Y-128167137D01*
X110009812Y-127139588D01*
X110356437Y-127145308D02*
X110390108Y-127086987D01*
X110469776Y-127016341D01*
X110699759Y-126954717D01*
X110804076Y-126976064D01*
X110862398Y-127009736D01*
X110933044Y-127089404D01*
X110957693Y-127181397D01*
X110948671Y-127331711D01*
X110544610Y-128031565D01*
X111142564Y-127871344D01*
X111205720Y-126819145D02*
X111849671Y-126646599D01*
X111694521Y-127723447D01*
X131016476Y-123292761D02*
X131159333Y-123340380D01*
X131397428Y-123340380D01*
X131492666Y-123292761D01*
X131540285Y-123245142D01*
X131587904Y-123149904D01*
X131587904Y-123054666D01*
X131540285Y-122959428D01*
X131492666Y-122911809D01*
X131397428Y-122864190D01*
X131206952Y-122816571D01*
X131111714Y-122768952D01*
X131064095Y-122721333D01*
X131016476Y-122626095D01*
X131016476Y-122530857D01*
X131064095Y-122435619D01*
X131111714Y-122388000D01*
X131206952Y-122340380D01*
X131445047Y-122340380D01*
X131587904Y-122388000D01*
X131921238Y-122340380D02*
X132159333Y-123340380D01*
X132349809Y-122626095D01*
X132540285Y-123340380D01*
X132778380Y-122340380D01*
X133111714Y-122435619D02*
X133159333Y-122388000D01*
X133254571Y-122340380D01*
X133492666Y-122340380D01*
X133587904Y-122388000D01*
X133635523Y-122435619D01*
X133683142Y-122530857D01*
X133683142Y-122626095D01*
X133635523Y-122768952D01*
X133064095Y-123340380D01*
X133683142Y-123340380D01*
X134254571Y-122768952D02*
X134159333Y-122721333D01*
X134111714Y-122673714D01*
X134064095Y-122578476D01*
X134064095Y-122530857D01*
X134111714Y-122435619D01*
X134159333Y-122388000D01*
X134254571Y-122340380D01*
X134445047Y-122340380D01*
X134540285Y-122388000D01*
X134587904Y-122435619D01*
X134635523Y-122530857D01*
X134635523Y-122578476D01*
X134587904Y-122673714D01*
X134540285Y-122721333D01*
X134445047Y-122768952D01*
X134254571Y-122768952D01*
X134159333Y-122816571D01*
X134111714Y-122864190D01*
X134064095Y-122959428D01*
X134064095Y-123149904D01*
X134111714Y-123245142D01*
X134159333Y-123292761D01*
X134254571Y-123340380D01*
X134445047Y-123340380D01*
X134540285Y-123292761D01*
X134587904Y-123245142D01*
X134635523Y-123149904D01*
X134635523Y-122959428D01*
X134587904Y-122864190D01*
X134540285Y-122816571D01*
X134445047Y-122768952D01*
X150116476Y-120774761D02*
X150259333Y-120822380D01*
X150497428Y-120822380D01*
X150592666Y-120774761D01*
X150640285Y-120727142D01*
X150687904Y-120631904D01*
X150687904Y-120536666D01*
X150640285Y-120441428D01*
X150592666Y-120393809D01*
X150497428Y-120346190D01*
X150306952Y-120298571D01*
X150211714Y-120250952D01*
X150164095Y-120203333D01*
X150116476Y-120108095D01*
X150116476Y-120012857D01*
X150164095Y-119917619D01*
X150211714Y-119870000D01*
X150306952Y-119822380D01*
X150545047Y-119822380D01*
X150687904Y-119870000D01*
X151021238Y-119822380D02*
X151259333Y-120822380D01*
X151449809Y-120108095D01*
X151640285Y-120822380D01*
X151878380Y-119822380D01*
X152211714Y-119917619D02*
X152259333Y-119870000D01*
X152354571Y-119822380D01*
X152592666Y-119822380D01*
X152687904Y-119870000D01*
X152735523Y-119917619D01*
X152783142Y-120012857D01*
X152783142Y-120108095D01*
X152735523Y-120250952D01*
X152164095Y-120822380D01*
X152783142Y-120822380D01*
X153259333Y-120822380D02*
X153449809Y-120822380D01*
X153545047Y-120774761D01*
X153592666Y-120727142D01*
X153687904Y-120584285D01*
X153735523Y-120393809D01*
X153735523Y-120012857D01*
X153687904Y-119917619D01*
X153640285Y-119870000D01*
X153545047Y-119822380D01*
X153354571Y-119822380D01*
X153259333Y-119870000D01*
X153211714Y-119917619D01*
X153164095Y-120012857D01*
X153164095Y-120250952D01*
X153211714Y-120346190D01*
X153259333Y-120393809D01*
X153354571Y-120441428D01*
X153545047Y-120441428D01*
X153640285Y-120393809D01*
X153687904Y-120346190D01*
X153735523Y-120250952D01*
X207215816Y-128195501D02*
X207358673Y-128243120D01*
X207596768Y-128243120D01*
X207692006Y-128195501D01*
X207739625Y-128147882D01*
X207787244Y-128052644D01*
X207787244Y-127957406D01*
X207739625Y-127862168D01*
X207692006Y-127814549D01*
X207596768Y-127766930D01*
X207406292Y-127719311D01*
X207311054Y-127671692D01*
X207263435Y-127624073D01*
X207215816Y-127528835D01*
X207215816Y-127433597D01*
X207263435Y-127338359D01*
X207311054Y-127290740D01*
X207406292Y-127243120D01*
X207644387Y-127243120D01*
X207787244Y-127290740D01*
X208120578Y-127243120D02*
X208358673Y-128243120D01*
X208549149Y-127528835D01*
X208739625Y-128243120D01*
X208977720Y-127243120D01*
X209263435Y-127243120D02*
X209882482Y-127243120D01*
X209549149Y-127624073D01*
X209692006Y-127624073D01*
X209787244Y-127671692D01*
X209834863Y-127719311D01*
X209882482Y-127814549D01*
X209882482Y-128052644D01*
X209834863Y-128147882D01*
X209787244Y-128195501D01*
X209692006Y-128243120D01*
X209406292Y-128243120D01*
X209311054Y-128195501D01*
X209263435Y-128147882D01*
X210501530Y-127243120D02*
X210596768Y-127243120D01*
X210692006Y-127290740D01*
X210739625Y-127338359D01*
X210787244Y-127433597D01*
X210834863Y-127624073D01*
X210834863Y-127862168D01*
X210787244Y-128052644D01*
X210739625Y-128147882D01*
X210692006Y-128195501D01*
X210596768Y-128243120D01*
X210501530Y-128243120D01*
X210406292Y-128195501D01*
X210358673Y-128147882D01*
X210311054Y-128052644D01*
X210263435Y-127862168D01*
X210263435Y-127624073D01*
X210311054Y-127433597D01*
X210358673Y-127338359D01*
X210406292Y-127290740D01*
X210501530Y-127243120D01*
X87436380Y-89379904D02*
X87436380Y-88808476D01*
X88436380Y-89094190D02*
X87436380Y-89094190D01*
X88436380Y-87903714D02*
X87960190Y-88237047D01*
X88436380Y-88475142D02*
X87436380Y-88475142D01*
X87436380Y-88094190D01*
X87484000Y-87998952D01*
X87531619Y-87951333D01*
X87626857Y-87903714D01*
X87769714Y-87903714D01*
X87864952Y-87951333D01*
X87912571Y-87998952D01*
X87960190Y-88094190D01*
X87960190Y-88475142D01*
X88436380Y-86903714D02*
X87960190Y-87237047D01*
X88436380Y-87475142D02*
X87436380Y-87475142D01*
X87436380Y-87094190D01*
X87484000Y-86998952D01*
X87531619Y-86951333D01*
X87626857Y-86903714D01*
X87769714Y-86903714D01*
X87864952Y-86951333D01*
X87912571Y-86998952D01*
X87960190Y-87094190D01*
X87960190Y-87475142D01*
X88388761Y-86522761D02*
X88436380Y-86379904D01*
X88436380Y-86141809D01*
X88388761Y-86046571D01*
X88341142Y-85998952D01*
X88245904Y-85951333D01*
X88150666Y-85951333D01*
X88055428Y-85998952D01*
X88007809Y-86046571D01*
X87960190Y-86141809D01*
X87912571Y-86332285D01*
X87864952Y-86427523D01*
X87817333Y-86475142D01*
X87722095Y-86522761D01*
X87626857Y-86522761D01*
X87531619Y-86475142D01*
X87484000Y-86427523D01*
X87436380Y-86332285D01*
X87436380Y-86094190D01*
X87484000Y-85951333D01*
X87436380Y-89379904D02*
X87436380Y-88808476D01*
X88436380Y-89094190D02*
X87436380Y-89094190D01*
X88436380Y-87903714D02*
X87960190Y-88237047D01*
X88436380Y-88475142D02*
X87436380Y-88475142D01*
X87436380Y-88094190D01*
X87484000Y-87998952D01*
X87531619Y-87951333D01*
X87626857Y-87903714D01*
X87769714Y-87903714D01*
X87864952Y-87951333D01*
X87912571Y-87998952D01*
X87960190Y-88094190D01*
X87960190Y-88475142D01*
X88436380Y-86903714D02*
X87960190Y-87237047D01*
X88436380Y-87475142D02*
X87436380Y-87475142D01*
X87436380Y-87094190D01*
X87484000Y-86998952D01*
X87531619Y-86951333D01*
X87626857Y-86903714D01*
X87769714Y-86903714D01*
X87864952Y-86951333D01*
X87912571Y-86998952D01*
X87960190Y-87094190D01*
X87960190Y-87475142D01*
X88388761Y-86522761D02*
X88436380Y-86379904D01*
X88436380Y-86141809D01*
X88388761Y-86046571D01*
X88341142Y-85998952D01*
X88245904Y-85951333D01*
X88150666Y-85951333D01*
X88055428Y-85998952D01*
X88007809Y-86046571D01*
X87960190Y-86141809D01*
X87912571Y-86332285D01*
X87864952Y-86427523D01*
X87817333Y-86475142D01*
X87722095Y-86522761D01*
X87626857Y-86522761D01*
X87531619Y-86475142D01*
X87484000Y-86427523D01*
X87436380Y-86332285D01*
X87436380Y-86094190D01*
X87484000Y-85951333D01*
X104800476Y-77578000D02*
X104724285Y-77539904D01*
X104610000Y-77539904D01*
X104495714Y-77578000D01*
X104419523Y-77654190D01*
X104381428Y-77730380D01*
X104343333Y-77882761D01*
X104343333Y-77997047D01*
X104381428Y-78149428D01*
X104419523Y-78225619D01*
X104495714Y-78301809D01*
X104610000Y-78339904D01*
X104686190Y-78339904D01*
X104800476Y-78301809D01*
X104838571Y-78263714D01*
X104838571Y-77997047D01*
X104686190Y-77997047D01*
X105181428Y-78339904D02*
X105181428Y-77539904D01*
X105638571Y-78339904D01*
X105638571Y-77539904D01*
X106019523Y-78339904D02*
X106019523Y-77539904D01*
X106210000Y-77539904D01*
X106324285Y-77578000D01*
X106400476Y-77654190D01*
X106438571Y-77730380D01*
X106476666Y-77882761D01*
X106476666Y-77997047D01*
X106438571Y-78149428D01*
X106400476Y-78225619D01*
X106324285Y-78301809D01*
X106210000Y-78339904D01*
X106019523Y-78339904D01*
X104343333Y-83127904D02*
X104610000Y-83927904D01*
X104876666Y-83127904D01*
X105600476Y-83851714D02*
X105562380Y-83889809D01*
X105448095Y-83927904D01*
X105371904Y-83927904D01*
X105257619Y-83889809D01*
X105181428Y-83813619D01*
X105143333Y-83737428D01*
X105105238Y-83585047D01*
X105105238Y-83470761D01*
X105143333Y-83318380D01*
X105181428Y-83242190D01*
X105257619Y-83166000D01*
X105371904Y-83127904D01*
X105448095Y-83127904D01*
X105562380Y-83166000D01*
X105600476Y-83204095D01*
X106400476Y-83851714D02*
X106362380Y-83889809D01*
X106248095Y-83927904D01*
X106171904Y-83927904D01*
X106057619Y-83889809D01*
X105981428Y-83813619D01*
X105943333Y-83737428D01*
X105905238Y-83585047D01*
X105905238Y-83470761D01*
X105943333Y-83318380D01*
X105981428Y-83242190D01*
X106057619Y-83166000D01*
X106171904Y-83127904D01*
X106248095Y-83127904D01*
X106362380Y-83166000D01*
X106400476Y-83204095D01*
X104895714Y-81133904D02*
X104514761Y-81133904D01*
X104514761Y-80333904D01*
X105162380Y-80714857D02*
X105429047Y-80714857D01*
X105543333Y-81133904D02*
X105162380Y-81133904D01*
X105162380Y-80333904D01*
X105543333Y-80333904D01*
X105886190Y-81133904D02*
X105886190Y-80333904D01*
X106076666Y-80333904D01*
X106190952Y-80372000D01*
X106267142Y-80448190D01*
X106305238Y-80524380D01*
X106343333Y-80676761D01*
X106343333Y-80791047D01*
X106305238Y-80943428D01*
X106267142Y-81019619D01*
X106190952Y-81095809D01*
X106076666Y-81133904D01*
X105886190Y-81133904D01*
X207215816Y-109145501D02*
X207358673Y-109193120D01*
X207596768Y-109193120D01*
X207692006Y-109145501D01*
X207739625Y-109097882D01*
X207787244Y-109002644D01*
X207787244Y-108907406D01*
X207739625Y-108812168D01*
X207692006Y-108764549D01*
X207596768Y-108716930D01*
X207406292Y-108669311D01*
X207311054Y-108621692D01*
X207263435Y-108574073D01*
X207215816Y-108478835D01*
X207215816Y-108383597D01*
X207263435Y-108288359D01*
X207311054Y-108240740D01*
X207406292Y-108193120D01*
X207644387Y-108193120D01*
X207787244Y-108240740D01*
X208120578Y-108193120D02*
X208358673Y-109193120D01*
X208549149Y-108478835D01*
X208739625Y-109193120D01*
X208977720Y-108193120D01*
X209311054Y-108288359D02*
X209358673Y-108240740D01*
X209453911Y-108193120D01*
X209692006Y-108193120D01*
X209787244Y-108240740D01*
X209834863Y-108288359D01*
X209882482Y-108383597D01*
X209882482Y-108478835D01*
X209834863Y-108621692D01*
X209263435Y-109193120D01*
X209882482Y-109193120D01*
X210739625Y-108526454D02*
X210739625Y-109193120D01*
X210501530Y-108145501D02*
X210263435Y-108859787D01*
X210882482Y-108859787D01*
X207215816Y-90095501D02*
X207358673Y-90143120D01*
X207596768Y-90143120D01*
X207692006Y-90095501D01*
X207739625Y-90047882D01*
X207787244Y-89952644D01*
X207787244Y-89857406D01*
X207739625Y-89762168D01*
X207692006Y-89714549D01*
X207596768Y-89666930D01*
X207406292Y-89619311D01*
X207311054Y-89571692D01*
X207263435Y-89524073D01*
X207215816Y-89428835D01*
X207215816Y-89333597D01*
X207263435Y-89238359D01*
X207311054Y-89190740D01*
X207406292Y-89143120D01*
X207644387Y-89143120D01*
X207787244Y-89190740D01*
X208120578Y-89143120D02*
X208358673Y-90143120D01*
X208549149Y-89428835D01*
X208739625Y-90143120D01*
X208977720Y-89143120D01*
X209882482Y-90143120D02*
X209311054Y-90143120D01*
X209596768Y-90143120D02*
X209596768Y-89143120D01*
X209501530Y-89285978D01*
X209406292Y-89381216D01*
X209311054Y-89428835D01*
X210453911Y-89571692D02*
X210358673Y-89524073D01*
X210311054Y-89476454D01*
X210263435Y-89381216D01*
X210263435Y-89333597D01*
X210311054Y-89238359D01*
X210358673Y-89190740D01*
X210453911Y-89143120D01*
X210644387Y-89143120D01*
X210739625Y-89190740D01*
X210787244Y-89238359D01*
X210834863Y-89333597D01*
X210834863Y-89381216D01*
X210787244Y-89476454D01*
X210739625Y-89524073D01*
X210644387Y-89571692D01*
X210453911Y-89571692D01*
X210358673Y-89619311D01*
X210311054Y-89666930D01*
X210263435Y-89762168D01*
X210263435Y-89952644D01*
X210311054Y-90047882D01*
X210358673Y-90095501D01*
X210453911Y-90143120D01*
X210644387Y-90143120D01*
X210739625Y-90095501D01*
X210787244Y-90047882D01*
X210834863Y-89952644D01*
X210834863Y-89762168D01*
X210787244Y-89666930D01*
X210739625Y-89619311D01*
X210644387Y-89571692D01*
X91408476Y-103528761D02*
X91551333Y-103576380D01*
X91789428Y-103576380D01*
X91884666Y-103528761D01*
X91932285Y-103481142D01*
X91979904Y-103385904D01*
X91979904Y-103290666D01*
X91932285Y-103195428D01*
X91884666Y-103147809D01*
X91789428Y-103100190D01*
X91598952Y-103052571D01*
X91503714Y-103004952D01*
X91456095Y-102957333D01*
X91408476Y-102862095D01*
X91408476Y-102766857D01*
X91456095Y-102671619D01*
X91503714Y-102624000D01*
X91598952Y-102576380D01*
X91837047Y-102576380D01*
X91979904Y-102624000D01*
X92313238Y-102576380D02*
X92551333Y-103576380D01*
X92741809Y-102862095D01*
X92932285Y-103576380D01*
X93170380Y-102576380D01*
X93503714Y-102671619D02*
X93551333Y-102624000D01*
X93646571Y-102576380D01*
X93884666Y-102576380D01*
X93979904Y-102624000D01*
X94027523Y-102671619D01*
X94075142Y-102766857D01*
X94075142Y-102862095D01*
X94027523Y-103004952D01*
X93456095Y-103576380D01*
X94075142Y-103576380D01*
X94979904Y-102576380D02*
X94503714Y-102576380D01*
X94456095Y-103052571D01*
X94503714Y-103004952D01*
X94598952Y-102957333D01*
X94837047Y-102957333D01*
X94932285Y-103004952D01*
X94979904Y-103052571D01*
X95027523Y-103147809D01*
X95027523Y-103385904D01*
X94979904Y-103481142D01*
X94932285Y-103528761D01*
X94837047Y-103576380D01*
X94598952Y-103576380D01*
X94503714Y-103528761D01*
X94456095Y-103481142D01*
X101987428Y-91509809D02*
X102101714Y-91547904D01*
X102292190Y-91547904D01*
X102368380Y-91509809D01*
X102406476Y-91471714D01*
X102444571Y-91395523D01*
X102444571Y-91319333D01*
X102406476Y-91243142D01*
X102368380Y-91205047D01*
X102292190Y-91166952D01*
X102139809Y-91128857D01*
X102063619Y-91090761D01*
X102025523Y-91052666D01*
X101987428Y-90976476D01*
X101987428Y-90900285D01*
X102025523Y-90824095D01*
X102063619Y-90786000D01*
X102139809Y-90747904D01*
X102330285Y-90747904D01*
X102444571Y-90786000D01*
X103054095Y-91128857D02*
X103168380Y-91166952D01*
X103206476Y-91205047D01*
X103244571Y-91281238D01*
X103244571Y-91395523D01*
X103206476Y-91471714D01*
X103168380Y-91509809D01*
X103092190Y-91547904D01*
X102787428Y-91547904D01*
X102787428Y-90747904D01*
X103054095Y-90747904D01*
X103130285Y-90786000D01*
X103168380Y-90824095D01*
X103206476Y-90900285D01*
X103206476Y-90976476D01*
X103168380Y-91052666D01*
X103130285Y-91090761D01*
X103054095Y-91128857D01*
X102787428Y-91128857D01*
X96005714Y-86634857D02*
X96272380Y-86634857D01*
X96386666Y-87053904D02*
X96005714Y-87053904D01*
X96005714Y-86253904D01*
X96386666Y-86253904D01*
X96691428Y-86825333D02*
X97072380Y-86825333D01*
X96615238Y-87053904D02*
X96881904Y-86253904D01*
X97148571Y-87053904D01*
X98742571Y-86634857D02*
X99009238Y-86634857D01*
X99123523Y-87053904D02*
X98742571Y-87053904D01*
X98742571Y-86253904D01*
X99123523Y-86253904D01*
X99733047Y-86634857D02*
X99847333Y-86672952D01*
X99885428Y-86711047D01*
X99923523Y-86787238D01*
X99923523Y-86901523D01*
X99885428Y-86977714D01*
X99847333Y-87015809D01*
X99771142Y-87053904D01*
X99466380Y-87053904D01*
X99466380Y-86253904D01*
X99733047Y-86253904D01*
X99809238Y-86292000D01*
X99847333Y-86330095D01*
X99885428Y-86406285D01*
X99885428Y-86482476D01*
X99847333Y-86558666D01*
X99809238Y-86596761D01*
X99733047Y-86634857D01*
X99466380Y-86634857D01*
X101498476Y-86292000D02*
X101422285Y-86253904D01*
X101308000Y-86253904D01*
X101193714Y-86292000D01*
X101117523Y-86368190D01*
X101079428Y-86444380D01*
X101041333Y-86596761D01*
X101041333Y-86711047D01*
X101079428Y-86863428D01*
X101117523Y-86939619D01*
X101193714Y-87015809D01*
X101308000Y-87053904D01*
X101384190Y-87053904D01*
X101498476Y-87015809D01*
X101536571Y-86977714D01*
X101536571Y-86711047D01*
X101384190Y-86711047D01*
X101879428Y-87053904D02*
X101879428Y-86253904D01*
X102336571Y-87053904D01*
X102336571Y-86253904D01*
X102717523Y-87053904D02*
X102717523Y-86253904D01*
X102908000Y-86253904D01*
X103022285Y-86292000D01*
X103098476Y-86368190D01*
X103136571Y-86444380D01*
X103174666Y-86596761D01*
X103174666Y-86711047D01*
X103136571Y-86863428D01*
X103098476Y-86939619D01*
X103022285Y-87015809D01*
X102908000Y-87053904D01*
X102717523Y-87053904D01*
X95186571Y-91509809D02*
X95300857Y-91547904D01*
X95491333Y-91547904D01*
X95567523Y-91509809D01*
X95605619Y-91471714D01*
X95643714Y-91395523D01*
X95643714Y-91319333D01*
X95605619Y-91243142D01*
X95567523Y-91205047D01*
X95491333Y-91166952D01*
X95338952Y-91128857D01*
X95262761Y-91090761D01*
X95224666Y-91052666D01*
X95186571Y-90976476D01*
X95186571Y-90900285D01*
X95224666Y-90824095D01*
X95262761Y-90786000D01*
X95338952Y-90747904D01*
X95529428Y-90747904D01*
X95643714Y-90786000D01*
X95948476Y-91319333D02*
X96329428Y-91319333D01*
X95872285Y-91547904D02*
X96138952Y-90747904D01*
X96405619Y-91547904D01*
X122674000Y-46998000D02*
X121674000Y-46998000D01*
X122924000Y-44798000D02*
X121424000Y-44798000D01*
X122174000Y-47098000D02*
X122674000Y-47998000D01*
X122924000Y-50198000D02*
X122924000Y-44798000D01*
X121674000Y-47998000D02*
X122174000Y-47098000D01*
X121424000Y-44798000D02*
X121424000Y-50198000D01*
X122674000Y-47998000D02*
X121674000Y-47998000D01*
X122924000Y-50198000D02*
X121424000Y-50198000D01*
X124960000Y-46998000D02*
X123960000Y-46998000D01*
X123960000Y-47998000D02*
X124460000Y-47098000D01*
X125210000Y-50198000D02*
X123710000Y-50198000D01*
X124460000Y-47098000D02*
X124960000Y-47998000D01*
X124960000Y-47998000D02*
X123960000Y-47998000D01*
X125210000Y-44798000D02*
X123710000Y-44798000D01*
X125210000Y-50198000D02*
X125210000Y-44798000D01*
X123710000Y-44798000D02*
X123710000Y-50198000D01*
X161024000Y-42512000D02*
X159524000Y-42512000D01*
X160774000Y-45712000D02*
X159774000Y-45712000D01*
X161024000Y-47912000D02*
X161024000Y-42512000D01*
X160274000Y-44812000D02*
X160774000Y-45712000D01*
X159524000Y-42512000D02*
X159524000Y-47912000D01*
X161024000Y-47912000D02*
X159524000Y-47912000D01*
X160774000Y-44712000D02*
X159774000Y-44712000D01*
X159774000Y-45712000D02*
X160274000Y-44812000D01*
X163310000Y-42512000D02*
X161810000Y-42512000D01*
X162560000Y-44812000D02*
X163060000Y-45712000D01*
X162060000Y-45712000D02*
X162560000Y-44812000D01*
X163310000Y-47912000D02*
X163310000Y-42512000D01*
X163310000Y-47912000D02*
X161810000Y-47912000D01*
X161810000Y-42512000D02*
X161810000Y-47912000D01*
X163060000Y-44712000D02*
X162060000Y-44712000D01*
X163060000Y-45712000D02*
X162060000Y-45712000D01*
X198874000Y-52332000D02*
X197874000Y-52332000D01*
X197874000Y-53332000D02*
X198374000Y-52432000D01*
X198874000Y-53332000D02*
X197874000Y-53332000D01*
X197624000Y-50132000D02*
X197624000Y-55532000D01*
X199124000Y-50132000D02*
X197624000Y-50132000D01*
X198374000Y-52432000D02*
X198874000Y-53332000D01*
X199124000Y-55532000D02*
X199124000Y-50132000D01*
X199124000Y-55532000D02*
X197624000Y-55532000D01*
X200160000Y-53332000D02*
X200660000Y-52432000D01*
X200660000Y-52432000D02*
X201160000Y-53332000D01*
X201160000Y-52332000D02*
X200160000Y-52332000D01*
X201160000Y-53332000D02*
X200160000Y-53332000D01*
X201410000Y-55532000D02*
X201410000Y-50132000D01*
X201410000Y-50132000D02*
X199910000Y-50132000D01*
X201410000Y-55532000D02*
X199910000Y-55532000D01*
X199910000Y-50132000D02*
X199910000Y-55532000D01*
X122924000Y-63848000D02*
X121424000Y-63848000D01*
X121674000Y-67048000D02*
X122174000Y-66148000D01*
X122924000Y-69248000D02*
X122924000Y-63848000D01*
X121424000Y-63848000D02*
X121424000Y-69248000D01*
X122924000Y-69248000D02*
X121424000Y-69248000D01*
X122174000Y-66148000D02*
X122674000Y-67048000D01*
X122674000Y-66048000D02*
X121674000Y-66048000D01*
X122674000Y-67048000D02*
X121674000Y-67048000D01*
X124460000Y-66148000D02*
X124960000Y-67048000D01*
X124960000Y-66048000D02*
X123960000Y-66048000D01*
X125210000Y-69248000D02*
X123710000Y-69248000D01*
X123960000Y-67048000D02*
X124460000Y-66148000D01*
X124960000Y-67048000D02*
X123960000Y-67048000D01*
X125210000Y-69248000D02*
X125210000Y-63848000D01*
X123710000Y-63848000D02*
X123710000Y-69248000D01*
X125210000Y-63848000D02*
X123710000Y-63848000D01*
X161024000Y-66962000D02*
X161024000Y-61562000D01*
X160774000Y-63762000D02*
X159774000Y-63762000D01*
X159524000Y-61562000D02*
X159524000Y-66962000D01*
X161024000Y-61562000D02*
X159524000Y-61562000D01*
X160274000Y-63862000D02*
X160774000Y-64762000D01*
X160774000Y-64762000D02*
X159774000Y-64762000D01*
X161024000Y-66962000D02*
X159524000Y-66962000D01*
X159774000Y-64762000D02*
X160274000Y-63862000D01*
X163310000Y-61562000D02*
X161810000Y-61562000D01*
X162060000Y-64762000D02*
X162560000Y-63862000D01*
X163060000Y-63762000D02*
X162060000Y-63762000D01*
X163310000Y-66962000D02*
X161810000Y-66962000D01*
X163060000Y-64762000D02*
X162060000Y-64762000D01*
X161810000Y-61562000D02*
X161810000Y-66962000D01*
X162560000Y-63862000D02*
X163060000Y-64762000D01*
X163310000Y-66962000D02*
X163310000Y-61562000D01*
X198374000Y-71482000D02*
X198874000Y-72382000D01*
X199124000Y-74582000D02*
X197624000Y-74582000D01*
X197874000Y-72382000D02*
X198374000Y-71482000D01*
X199124000Y-74582000D02*
X199124000Y-69182000D01*
X198874000Y-71382000D02*
X197874000Y-71382000D01*
X197624000Y-69182000D02*
X197624000Y-74582000D01*
X198874000Y-72382000D02*
X197874000Y-72382000D01*
X199124000Y-69182000D02*
X197624000Y-69182000D01*
X199910000Y-69182000D02*
X199910000Y-74582000D01*
X201410000Y-74582000D02*
X201410000Y-69182000D01*
X200660000Y-71482000D02*
X201160000Y-72382000D01*
X200160000Y-72382000D02*
X200660000Y-71482000D01*
X201160000Y-72382000D02*
X200160000Y-72382000D01*
X201160000Y-71382000D02*
X200160000Y-71382000D01*
X201410000Y-74582000D02*
X199910000Y-74582000D01*
X201410000Y-69182000D02*
X199910000Y-69182000D01*
X122174000Y-85198000D02*
X122674000Y-86098000D01*
X122674000Y-85098000D02*
X121674000Y-85098000D01*
X122924000Y-88298000D02*
X122924000Y-82898000D01*
X121424000Y-82898000D02*
X121424000Y-88298000D01*
X122924000Y-82898000D02*
X121424000Y-82898000D01*
X122924000Y-88298000D02*
X121424000Y-88298000D01*
X121674000Y-86098000D02*
X122174000Y-85198000D01*
X122674000Y-86098000D02*
X121674000Y-86098000D01*
X123960000Y-86098000D02*
X124460000Y-85198000D01*
X123710000Y-82898000D02*
X123710000Y-88298000D01*
X124960000Y-85098000D02*
X123960000Y-85098000D01*
X125210000Y-82898000D02*
X123710000Y-82898000D01*
X124460000Y-85198000D02*
X124960000Y-86098000D01*
X124960000Y-86098000D02*
X123960000Y-86098000D01*
X125210000Y-88298000D02*
X125210000Y-82898000D01*
X125210000Y-88298000D02*
X123710000Y-88298000D01*
X159524000Y-80612000D02*
X159524000Y-86012000D01*
X160774000Y-83812000D02*
X159774000Y-83812000D01*
X160274000Y-82912000D02*
X160774000Y-83812000D01*
X159774000Y-83812000D02*
X160274000Y-82912000D01*
X161024000Y-80612000D02*
X159524000Y-80612000D01*
X161024000Y-86012000D02*
X161024000Y-80612000D01*
X161024000Y-86012000D02*
X159524000Y-86012000D01*
X160774000Y-82812000D02*
X159774000Y-82812000D01*
X161810000Y-80612000D02*
X161810000Y-86012000D01*
X163060000Y-83812000D02*
X162060000Y-83812000D01*
X163060000Y-82812000D02*
X162060000Y-82812000D01*
X162560000Y-82912000D02*
X163060000Y-83812000D01*
X163310000Y-86012000D02*
X161810000Y-86012000D01*
X163310000Y-80612000D02*
X161810000Y-80612000D01*
X162060000Y-83812000D02*
X162560000Y-82912000D01*
X163310000Y-86012000D02*
X163310000Y-80612000D01*
X199124000Y-88232000D02*
X197624000Y-88232000D01*
X198874000Y-90432000D02*
X197874000Y-90432000D01*
X199124000Y-93632000D02*
X197624000Y-93632000D01*
X198874000Y-91432000D02*
X197874000Y-91432000D01*
X199124000Y-93632000D02*
X199124000Y-88232000D01*
X197874000Y-91432000D02*
X198374000Y-90532000D01*
X198374000Y-90532000D02*
X198874000Y-91432000D01*
X197624000Y-88232000D02*
X197624000Y-93632000D01*
X201410000Y-93632000D02*
X199910000Y-93632000D01*
X201410000Y-88232000D02*
X199910000Y-88232000D01*
X200160000Y-91432000D02*
X200660000Y-90532000D01*
X200660000Y-90532000D02*
X201160000Y-91432000D01*
X201160000Y-91432000D02*
X200160000Y-91432000D01*
X201410000Y-93632000D02*
X201410000Y-88232000D01*
X199910000Y-88232000D02*
X199910000Y-93632000D01*
X201160000Y-90432000D02*
X200160000Y-90432000D01*
X122924000Y-101948000D02*
X121424000Y-101948000D01*
X122674000Y-105148000D02*
X121674000Y-105148000D01*
X122174000Y-104248000D02*
X122674000Y-105148000D01*
X122924000Y-107348000D02*
X122924000Y-101948000D01*
X121424000Y-101948000D02*
X121424000Y-107348000D01*
X122674000Y-104148000D02*
X121674000Y-104148000D01*
X121674000Y-105148000D02*
X122174000Y-104248000D01*
X122924000Y-107348000D02*
X121424000Y-107348000D01*
X123710000Y-101948000D02*
X123710000Y-107348000D01*
X125210000Y-101948000D02*
X123710000Y-101948000D01*
X123960000Y-105148000D02*
X124460000Y-104248000D01*
X124960000Y-104148000D02*
X123960000Y-104148000D01*
X124960000Y-105148000D02*
X123960000Y-105148000D01*
X124460000Y-104248000D02*
X124960000Y-105148000D01*
X125210000Y-107348000D02*
X125210000Y-101948000D01*
X125210000Y-107348000D02*
X123710000Y-107348000D01*
X159524000Y-99662000D02*
X159524000Y-105062000D01*
X160774000Y-101862000D02*
X159774000Y-101862000D01*
X161024000Y-105062000D02*
X161024000Y-99662000D01*
X161024000Y-99662000D02*
X159524000Y-99662000D01*
X160274000Y-101962000D02*
X160774000Y-102862000D01*
X160774000Y-102862000D02*
X159774000Y-102862000D01*
X161024000Y-105062000D02*
X159524000Y-105062000D01*
X159774000Y-102862000D02*
X160274000Y-101962000D01*
X163310000Y-105062000D02*
X161810000Y-105062000D01*
X163310000Y-99662000D02*
X161810000Y-99662000D01*
X163310000Y-105062000D02*
X163310000Y-99662000D01*
X163060000Y-102862000D02*
X162060000Y-102862000D01*
X161810000Y-99662000D02*
X161810000Y-105062000D01*
X162560000Y-101962000D02*
X163060000Y-102862000D01*
X163060000Y-101862000D02*
X162060000Y-101862000D01*
X162060000Y-102862000D02*
X162560000Y-101962000D01*
X198874000Y-109482000D02*
X197874000Y-109482000D01*
X197624000Y-107282000D02*
X197624000Y-112682000D01*
X198374000Y-109582000D02*
X198874000Y-110482000D01*
X199124000Y-107282000D02*
X197624000Y-107282000D01*
X198874000Y-110482000D02*
X197874000Y-110482000D01*
X199124000Y-112682000D02*
X199124000Y-107282000D01*
X199124000Y-112682000D02*
X197624000Y-112682000D01*
X197874000Y-110482000D02*
X198374000Y-109582000D01*
X201160000Y-110482000D02*
X200160000Y-110482000D01*
X201410000Y-112682000D02*
X201410000Y-107282000D01*
X200660000Y-109582000D02*
X201160000Y-110482000D01*
X201410000Y-107282000D02*
X199910000Y-107282000D01*
X201160000Y-109482000D02*
X200160000Y-109482000D01*
X199910000Y-107282000D02*
X199910000Y-112682000D01*
X201410000Y-112682000D02*
X199910000Y-112682000D01*
X200160000Y-110482000D02*
X200660000Y-109582000D01*
X120638000Y-119721000D02*
X119138000Y-119721000D01*
X119388000Y-122921000D02*
X119888000Y-122021000D01*
X119138000Y-119721000D02*
X119138000Y-125121000D01*
X120388000Y-121921000D02*
X119388000Y-121921000D01*
X120638000Y-125121000D02*
X120638000Y-119721000D01*
X119888000Y-122021000D02*
X120388000Y-122921000D01*
X120638000Y-125121000D02*
X119138000Y-125121000D01*
X120388000Y-122921000D02*
X119388000Y-122921000D01*
X121424000Y-119728000D02*
X121424000Y-125128000D01*
X122924000Y-125128000D02*
X121424000Y-125128000D01*
X122174000Y-122028000D02*
X122674000Y-122928000D01*
X122674000Y-121928000D02*
X121674000Y-121928000D01*
X122924000Y-125128000D02*
X122924000Y-119728000D01*
X121674000Y-122928000D02*
X122174000Y-122028000D01*
X122674000Y-122928000D02*
X121674000Y-122928000D01*
X122924000Y-119728000D02*
X121424000Y-119728000D01*
X124960000Y-122921000D02*
X123960000Y-122921000D01*
X123710000Y-119721000D02*
X123710000Y-125121000D01*
X124460000Y-122021000D02*
X124960000Y-122921000D01*
X125210000Y-125121000D02*
X123710000Y-125121000D01*
X124960000Y-121921000D02*
X123960000Y-121921000D01*
X125210000Y-125121000D02*
X125210000Y-119721000D01*
X125210000Y-119721000D02*
X123710000Y-119721000D01*
X123960000Y-122921000D02*
X124460000Y-122021000D01*
X140724000Y-120131000D02*
X141224000Y-119231000D01*
X141224000Y-119231000D02*
X141724000Y-120131000D01*
X141724000Y-119131000D02*
X140724000Y-119131000D01*
X140474000Y-116931000D02*
X140474000Y-122331000D01*
X141974000Y-122331000D02*
X140474000Y-122331000D01*
X141974000Y-122331000D02*
X141974000Y-116931000D01*
X141974000Y-116931000D02*
X140474000Y-116931000D01*
X141724000Y-120131000D02*
X140724000Y-120131000D01*
X144010000Y-119134000D02*
X143010000Y-119134000D01*
X144260000Y-122334000D02*
X144260000Y-116934000D01*
X144010000Y-120134000D02*
X143010000Y-120134000D01*
X144260000Y-122334000D02*
X142760000Y-122334000D01*
X143510000Y-119234000D02*
X144010000Y-120134000D01*
X143010000Y-120134000D02*
X143510000Y-119234000D01*
X144260000Y-116934000D02*
X142760000Y-116934000D01*
X142760000Y-116934000D02*
X142760000Y-122334000D01*
X200160000Y-129278000D02*
X200660000Y-128378000D01*
X200660000Y-128378000D02*
X201160000Y-129278000D01*
X199910000Y-126078000D02*
X199910000Y-131478000D01*
X201410000Y-126078000D02*
X199910000Y-126078000D01*
X201160000Y-129278000D02*
X200160000Y-129278000D01*
X201410000Y-131478000D02*
X199910000Y-131478000D01*
X201410000Y-131478000D02*
X201410000Y-126078000D01*
X201160000Y-128278000D02*
X200160000Y-128278000D01*
X98806000Y-75946000D02*
X98806000Y-78486000D01*
X88646000Y-75946000D02*
X98806000Y-75946000D01*
X88646000Y-78486000D02*
X98806000Y-78486000D01*
X88646000Y-78486000D02*
X88646000Y-75946000D01*
X96647000Y-73533000D02*
X98425000Y-73533000D01*
X96647000Y-75819000D02*
X96647000Y-73533000D01*
X98425000Y-75819000D02*
X96647000Y-75819000D01*
X98425000Y-73533000D02*
X98425000Y-75819000D01*
X94107000Y-75811380D02*
X94107000Y-73525380D01*
X95885000Y-75811380D02*
X94107000Y-75811380D01*
X94107000Y-73525380D02*
X95885000Y-73525380D01*
X95885000Y-73525380D02*
X95885000Y-75811380D01*
X93345000Y-75819000D02*
X91567000Y-75819000D01*
X93345000Y-73533000D02*
X93345000Y-75819000D01*
X91567000Y-73533000D02*
X93345000Y-73533000D01*
X91567000Y-75819000D02*
X91567000Y-73533000D01*
X89027000Y-73525380D02*
X90805000Y-73525380D01*
X89027000Y-75811380D02*
X89027000Y-73525380D01*
X90805000Y-75811380D02*
X89027000Y-75811380D01*
X90805000Y-73525380D02*
X90805000Y-75811380D01*
X94465140Y-83296760D02*
X94465140Y-81295240D01*
X94465140Y-81295240D02*
X91462860Y-81295240D01*
X91462860Y-81295240D02*
X91462860Y-83296760D01*
X91462860Y-83296760D02*
X94465140Y-83296760D01*
X91462860Y-79009240D02*
X91462860Y-81010760D01*
X94465140Y-79009240D02*
X91462860Y-79009240D01*
X91462860Y-81010760D02*
X94465140Y-81010760D01*
X94465140Y-81010760D02*
X94465140Y-79009240D01*
X81612000Y-75994000D02*
X82212000Y-75994000D01*
X81612000Y-75994000D02*
X81612000Y-81994000D01*
X85112000Y-81994000D02*
X84412000Y-81994000D01*
X85112000Y-75994000D02*
X84412000Y-75994000D01*
X85112000Y-81994000D02*
X85112000Y-75994000D01*
X81612000Y-81994000D02*
X82212000Y-81994000D01*
D11*
X118227180Y-56089380D02*
X118227180Y-55389380D01*
D12*
X108527180Y-53789380D02*
X108527180Y-55589380D01*
D11*
X118227180Y-58589380D02*
X116827180Y-58589380D01*
D10*
X107927180Y-55889380D02*
X108127180Y-55889380D01*
D13*
X108127180Y-53489380D02*
X110827180Y-53489380D01*
D10*
X107927180Y-53289380D02*
X107927180Y-53649380D01*
X118427180Y-55189380D02*
X118427180Y-56189380D01*
X118227180Y-58439380D02*
X118427180Y-58439380D01*
D14*
X116427180Y-56989380D02*
X109727180Y-56989380D01*
D10*
X118427180Y-58789380D02*
X110027180Y-58789381D01*
D13*
X118127180Y-55489380D02*
X116727180Y-55489380D01*
D10*
X107927180Y-53289380D02*
X111207180Y-53289380D01*
X118427180Y-56189380D02*
X118227180Y-56189380D01*
X108157180Y-55889380D02*
X108157180Y-53649380D01*
X107927180Y-56889380D02*
X107927180Y-55889380D01*
X118427180Y-58439380D02*
X118427180Y-58789380D01*
D15*
X109657180Y-57289380D02*
X109657180Y-55049380D01*
D16*
X117727180Y-58189380D02*
X117727180Y-55689380D01*
D17*
X108027181Y-55989380D02*
X108027180Y-56889379D01*
D10*
X113427180Y-55189380D02*
X118427180Y-55189380D01*
X108127180Y-53649380D02*
X107927180Y-53649380D01*
X118207180Y-56189380D02*
X118207180Y-58439380D01*
X107927179Y-56889380D02*
G75*
G03*
X110027180Y-58789381I2000000J99999D01*
G01*
D16*
X110810862Y-53710851D02*
G75*
G03*
X113027180Y-55589380I2151317J291470D01*
G01*
D10*
X111210862Y-53310851D02*
G75*
G03*
X113427180Y-55189380I2151317J291470D01*
G01*
D13*
X127126000Y-50988000D02*
X129826000Y-50988000D01*
D10*
X137426000Y-53688000D02*
X137226000Y-53688000D01*
D17*
X127026001Y-53488000D02*
X127026000Y-54387999D01*
D10*
X137226000Y-55938000D02*
X137426000Y-55938000D01*
D11*
X137226000Y-53588000D02*
X137226000Y-52888000D01*
D10*
X126926000Y-50788000D02*
X126926000Y-51148000D01*
X132426000Y-52688000D02*
X137426000Y-52688000D01*
X127156000Y-53388000D02*
X127156000Y-51148000D01*
D13*
X137126000Y-52988000D02*
X135726000Y-52988000D01*
D10*
X137426000Y-56288000D02*
X129026000Y-56288001D01*
D12*
X127526000Y-51288000D02*
X127526000Y-53088000D01*
D15*
X128656000Y-54788000D02*
X128656000Y-52548000D01*
D10*
X137426000Y-55938000D02*
X137426000Y-56288000D01*
D16*
X136726000Y-55688000D02*
X136726000Y-53188000D01*
D10*
X137206000Y-53688000D02*
X137206000Y-55938000D01*
X126926000Y-50788000D02*
X130206000Y-50788000D01*
X126926000Y-53388000D02*
X127126000Y-53388000D01*
D11*
X137226000Y-56088000D02*
X135826000Y-56088000D01*
D10*
X127126000Y-51148000D02*
X126926000Y-51148000D01*
X137426000Y-52688000D02*
X137426000Y-53688000D01*
X126926000Y-54388000D02*
X126926000Y-53388000D01*
D14*
X135426000Y-54488000D02*
X128726000Y-54488000D01*
D10*
X130209682Y-50809471D02*
G75*
G03*
X132426000Y-52688000I2151317J291470D01*
G01*
X126925999Y-54388000D02*
G75*
G03*
X129026000Y-56288001I2000000J99999D01*
G01*
D16*
X129809682Y-51209471D02*
G75*
G03*
X132026000Y-53088000I2151317J291470D01*
G01*
D10*
X146226000Y-48630000D02*
X146026000Y-48630000D01*
X151526000Y-50170000D02*
X156526000Y-50170000D01*
X156526000Y-50170000D02*
X156526000Y-51170000D01*
D11*
X156326000Y-51070000D02*
X156326000Y-50370000D01*
D10*
X156306000Y-51170000D02*
X156306000Y-53420000D01*
X146256000Y-50870000D02*
X146256000Y-48630000D01*
X146026000Y-50870000D02*
X146226000Y-50870000D01*
D11*
X156326000Y-53570000D02*
X154926000Y-53570000D01*
D10*
X156326000Y-53420000D02*
X156526000Y-53420000D01*
X156526000Y-51170000D02*
X156326000Y-51170000D01*
X156526000Y-53770000D02*
X148126000Y-53770001D01*
X146026000Y-48270000D02*
X149306000Y-48270000D01*
D15*
X147756000Y-52270000D02*
X147756000Y-50030000D01*
D14*
X154526000Y-51970000D02*
X147826000Y-51970000D01*
D13*
X146226000Y-48470000D02*
X148926000Y-48470000D01*
D16*
X155826000Y-53170000D02*
X155826000Y-50670000D01*
D10*
X156526000Y-53420000D02*
X156526000Y-53770000D01*
X146026000Y-48270000D02*
X146026000Y-48630000D01*
D12*
X146626000Y-48770000D02*
X146626000Y-50570000D01*
D10*
X146026000Y-51870000D02*
X146026000Y-50870000D01*
D13*
X156226000Y-50470000D02*
X154826000Y-50470000D01*
D17*
X146126001Y-50970000D02*
X146126000Y-51869999D01*
D10*
X146025999Y-51870000D02*
G75*
G03*
X148126000Y-53770001I2000000J99999D01*
G01*
D16*
X148909682Y-48691471D02*
G75*
G03*
X151126000Y-50570000I2151317J291470D01*
G01*
D10*
X149309682Y-48291471D02*
G75*
G03*
X151526000Y-50170000I2151317J291470D01*
G01*
X170527000Y-52789000D02*
X175527000Y-52789000D01*
X165027000Y-50889000D02*
X168307000Y-50889000D01*
X175327000Y-56039000D02*
X175527000Y-56039000D01*
D11*
X175327000Y-56189000D02*
X173927000Y-56189000D01*
D13*
X165227000Y-51089000D02*
X167927000Y-51089000D01*
D10*
X175527000Y-53789000D02*
X175327000Y-53789000D01*
X175307000Y-53789000D02*
X175307000Y-56039000D01*
X175527000Y-52789000D02*
X175527000Y-53789000D01*
X165027000Y-53489000D02*
X165227000Y-53489000D01*
D12*
X165627000Y-51389000D02*
X165627000Y-53189000D01*
D14*
X173527000Y-54589000D02*
X166827000Y-54589000D01*
D10*
X175527000Y-56389000D02*
X167127000Y-56389001D01*
X165027000Y-54489000D02*
X165027000Y-53489000D01*
D11*
X175327000Y-53689000D02*
X175327000Y-52989000D01*
D10*
X175527000Y-56039000D02*
X175527000Y-56389000D01*
X165257000Y-53489000D02*
X165257000Y-51249000D01*
D17*
X165127001Y-53589000D02*
X165127000Y-54488999D01*
D13*
X175227000Y-53089000D02*
X173827000Y-53089000D01*
D10*
X165027000Y-50889000D02*
X165027000Y-51249000D01*
D16*
X174827000Y-55789000D02*
X174827000Y-53289000D01*
D15*
X166757000Y-54889000D02*
X166757000Y-52649000D01*
D10*
X165227000Y-51249000D02*
X165027000Y-51249000D01*
X168310682Y-50910471D02*
G75*
G03*
X170527000Y-52789000I2151317J291470D01*
G01*
X165026999Y-54489000D02*
G75*
G03*
X167127000Y-56389001I2000000J99999D01*
G01*
D16*
X167910682Y-51310471D02*
G75*
G03*
X170127000Y-53189000I2151317J291470D01*
G01*
D11*
X194426000Y-60989000D02*
X193026000Y-60989000D01*
D10*
X194426000Y-60839000D02*
X194626000Y-60839000D01*
X194626000Y-57589000D02*
X194626000Y-58589000D01*
X194406000Y-58589000D02*
X194406000Y-60839000D01*
X189626000Y-57589000D02*
X194626000Y-57589000D01*
X184326000Y-56049000D02*
X184126000Y-56049000D01*
X184126000Y-55689000D02*
X184126000Y-56049000D01*
D12*
X184726000Y-56189000D02*
X184726000Y-57989000D01*
D10*
X184356000Y-58289000D02*
X184356000Y-56049000D01*
X184126000Y-58289000D02*
X184326000Y-58289000D01*
D11*
X194426000Y-58489000D02*
X194426000Y-57789000D01*
D14*
X192626000Y-59389000D02*
X185926000Y-59389000D01*
D10*
X184126000Y-59289000D02*
X184126000Y-58289000D01*
D13*
X184326000Y-55889000D02*
X187026000Y-55889000D01*
X194326000Y-57889000D02*
X192926000Y-57889000D01*
D10*
X194626000Y-58589000D02*
X194426000Y-58589000D01*
D16*
X193926000Y-60589000D02*
X193926000Y-58089000D01*
D10*
X194626000Y-60839000D02*
X194626000Y-61189000D01*
X194626000Y-61189000D02*
X186226000Y-61189001D01*
D15*
X185856000Y-59689000D02*
X185856000Y-57449000D01*
D10*
X184126000Y-55689000D02*
X187406000Y-55689000D01*
D17*
X184226001Y-58389000D02*
X184226000Y-59288999D01*
D16*
X187009682Y-56110471D02*
G75*
G03*
X189226000Y-57989000I2151317J291470D01*
G01*
D10*
X187409682Y-55710471D02*
G75*
G03*
X189626000Y-57589000I2151317J291470D01*
G01*
X184125999Y-59289000D02*
G75*
G03*
X186226000Y-61189001I2000000J99999D01*
G01*
X203125340Y-58290740D02*
X203325340Y-58290740D01*
D15*
X204855340Y-59690740D02*
X204855340Y-57450740D01*
D10*
X203125340Y-55690740D02*
X206405340Y-55690740D01*
X213625340Y-58590740D02*
X213425340Y-58590740D01*
X208625340Y-57590740D02*
X213625340Y-57590740D01*
D11*
X213425340Y-58490740D02*
X213425340Y-57790740D01*
D10*
X203125340Y-55690740D02*
X203125340Y-56050740D01*
X213625340Y-57590740D02*
X213625340Y-58590740D01*
D16*
X212925340Y-60590740D02*
X212925340Y-58090740D01*
D10*
X213425340Y-60840740D02*
X213625340Y-60840740D01*
X203355340Y-58290740D02*
X203355340Y-56050740D01*
X213405340Y-58590740D02*
X213405340Y-60840740D01*
X213625340Y-61190740D02*
X205225340Y-61190741D01*
X203125340Y-59290740D02*
X203125340Y-58290740D01*
D13*
X213325340Y-57890740D02*
X211925340Y-57890740D01*
D14*
X211625340Y-59390740D02*
X204925340Y-59390740D01*
D13*
X203325340Y-55890740D02*
X206025340Y-55890740D01*
D12*
X203725340Y-56190740D02*
X203725340Y-57990740D01*
D11*
X213425340Y-60990740D02*
X212025340Y-60990740D01*
D10*
X203325340Y-56050740D02*
X203125340Y-56050740D01*
D17*
X203225341Y-58390740D02*
X203225340Y-59290739D01*
D10*
X213625340Y-60840740D02*
X213625340Y-61190740D01*
X203125339Y-59290740D02*
G75*
G03*
X205225340Y-61190741I2000000J99999D01*
G01*
X206409022Y-55712211D02*
G75*
G03*
X208625340Y-57590740I2151317J291470D01*
G01*
D16*
X206009022Y-56112211D02*
G75*
G03*
X208225340Y-57990740I2151317J291470D01*
G01*
D10*
X108157180Y-74939380D02*
X108157180Y-72699380D01*
D13*
X118127180Y-74539380D02*
X116727180Y-74539380D01*
D10*
X118207180Y-75239380D02*
X118207180Y-77489380D01*
X113427180Y-74239380D02*
X118427180Y-74239380D01*
X118427180Y-77839380D02*
X110027180Y-77839381D01*
X107927180Y-72339380D02*
X111207180Y-72339380D01*
D11*
X118227180Y-75139380D02*
X118227180Y-74439380D01*
X118227180Y-77639380D02*
X116827180Y-77639380D01*
D10*
X118427180Y-74239380D02*
X118427180Y-75239380D01*
D12*
X108527180Y-72839380D02*
X108527180Y-74639380D01*
D10*
X107927180Y-74939380D02*
X108127180Y-74939380D01*
X118427180Y-75239380D02*
X118227180Y-75239380D01*
X118427180Y-77489380D02*
X118427180Y-77839380D01*
D15*
X109657180Y-76339380D02*
X109657180Y-74099380D01*
D16*
X117727180Y-77239380D02*
X117727180Y-74739380D01*
D10*
X108127180Y-72699380D02*
X107927180Y-72699380D01*
D13*
X108127180Y-72539380D02*
X110827180Y-72539380D01*
D10*
X118227180Y-77489380D02*
X118427180Y-77489380D01*
D17*
X108027181Y-75039380D02*
X108027180Y-75939379D01*
D14*
X116427180Y-76039380D02*
X109727180Y-76039380D01*
D10*
X107927180Y-72339380D02*
X107927180Y-72699380D01*
X107927180Y-75939380D02*
X107927180Y-74939380D01*
X111210862Y-72360851D02*
G75*
G03*
X113427180Y-74239380I2151317J291470D01*
G01*
D16*
X110810862Y-72760851D02*
G75*
G03*
X113027180Y-74639380I2151317J291470D01*
G01*
D10*
X107927179Y-75939380D02*
G75*
G03*
X110027180Y-77839381I2000000J99999D01*
G01*
X137226000Y-74988000D02*
X137426000Y-74988000D01*
X137206000Y-72738000D02*
X137206000Y-74988000D01*
D13*
X127126000Y-70038000D02*
X129826000Y-70038000D01*
D15*
X128656000Y-73838000D02*
X128656000Y-71598000D01*
D10*
X127156000Y-72438000D02*
X127156000Y-70198000D01*
X137426000Y-71738000D02*
X137426000Y-72738000D01*
D13*
X137126000Y-72038000D02*
X135726000Y-72038000D01*
D12*
X127526000Y-70338000D02*
X127526000Y-72138000D01*
D10*
X137426000Y-75338000D02*
X129026000Y-75338001D01*
D14*
X135426000Y-73538000D02*
X128726000Y-73538000D01*
D16*
X136726000Y-74738000D02*
X136726000Y-72238000D01*
D11*
X137226000Y-72638000D02*
X137226000Y-71938000D01*
D10*
X137426000Y-72738000D02*
X137226000Y-72738000D01*
X126926000Y-72438000D02*
X127126000Y-72438000D01*
X137426000Y-74988000D02*
X137426000Y-75338000D01*
X127126000Y-70198000D02*
X126926000Y-70198000D01*
X132426000Y-71738000D02*
X137426000Y-71738000D01*
X126926000Y-69838000D02*
X126926000Y-70198000D01*
X126926000Y-73438000D02*
X126926000Y-72438000D01*
X126926000Y-69838000D02*
X130206000Y-69838000D01*
D11*
X137226000Y-75138000D02*
X135826000Y-75138000D01*
D17*
X127026001Y-72538000D02*
X127026000Y-73437999D01*
D16*
X129809682Y-70259471D02*
G75*
G03*
X132026000Y-72138000I2151317J291470D01*
G01*
D10*
X130209682Y-69859471D02*
G75*
G03*
X132426000Y-71738000I2151317J291470D01*
G01*
X126925999Y-73438000D02*
G75*
G03*
X129026000Y-75338001I2000000J99999D01*
G01*
X151526000Y-69220000D02*
X156526000Y-69220000D01*
D13*
X156226000Y-69520000D02*
X154826000Y-69520000D01*
X146226000Y-67520000D02*
X148926000Y-67520000D01*
D11*
X156326000Y-72620000D02*
X154926000Y-72620000D01*
D10*
X156306000Y-70220000D02*
X156306000Y-72470000D01*
X146256000Y-69920000D02*
X146256000Y-67680000D01*
X156526000Y-70220000D02*
X156326000Y-70220000D01*
D15*
X147756000Y-71320000D02*
X147756000Y-69080000D01*
D10*
X146026000Y-67320000D02*
X146026000Y-67680000D01*
D14*
X154526000Y-71020000D02*
X147826000Y-71020000D01*
D10*
X156526000Y-72820000D02*
X148126000Y-72820001D01*
X146026000Y-70920000D02*
X146026000Y-69920000D01*
X146026000Y-67320000D02*
X149306000Y-67320000D01*
X156526000Y-69220000D02*
X156526000Y-70220000D01*
D17*
X146126001Y-70020000D02*
X146126000Y-70919999D01*
D11*
X156326000Y-70120000D02*
X156326000Y-69420000D01*
D16*
X155826000Y-72220000D02*
X155826000Y-69720000D01*
D10*
X156526000Y-72470000D02*
X156526000Y-72820000D01*
D12*
X146626000Y-67820000D02*
X146626000Y-69620000D01*
D10*
X156326000Y-72470000D02*
X156526000Y-72470000D01*
X146226000Y-67680000D02*
X146026000Y-67680000D01*
X146026000Y-69920000D02*
X146226000Y-69920000D01*
X146025999Y-70920000D02*
G75*
G03*
X148126000Y-72820001I2000000J99999D01*
G01*
X149309682Y-67341471D02*
G75*
G03*
X151526000Y-69220000I2151317J291470D01*
G01*
D16*
X148909682Y-67741471D02*
G75*
G03*
X151126000Y-69620000I2151317J291470D01*
G01*
D13*
X175227000Y-72139000D02*
X173827000Y-72139000D01*
D10*
X175527000Y-71839000D02*
X175527000Y-72839000D01*
D11*
X175327000Y-75239000D02*
X173927000Y-75239000D01*
D10*
X175527000Y-75439000D02*
X167127000Y-75439001D01*
X175527000Y-72839000D02*
X175327000Y-72839000D01*
X165227000Y-70299000D02*
X165027000Y-70299000D01*
X165027000Y-72539000D02*
X165227000Y-72539000D01*
X175527000Y-75089000D02*
X175527000Y-75439000D01*
X165027000Y-73539000D02*
X165027000Y-72539000D01*
D15*
X166757000Y-73939000D02*
X166757000Y-71699000D01*
D11*
X175327000Y-72739000D02*
X175327000Y-72039000D01*
D10*
X170527000Y-71839000D02*
X175527000Y-71839000D01*
X165027000Y-69939000D02*
X165027000Y-70299000D01*
X165257000Y-72539000D02*
X165257000Y-70299000D01*
D13*
X165227000Y-70139000D02*
X167927000Y-70139000D01*
D10*
X175327000Y-75089000D02*
X175527000Y-75089000D01*
D16*
X174827000Y-74839000D02*
X174827000Y-72339000D01*
D12*
X165627000Y-70439000D02*
X165627000Y-72239000D01*
D10*
X175307000Y-72839000D02*
X175307000Y-75089000D01*
D14*
X173527000Y-73639000D02*
X166827000Y-73639000D01*
D17*
X165127001Y-72639000D02*
X165127000Y-73538999D01*
D10*
X165027000Y-69939000D02*
X168307000Y-69939000D01*
X168310682Y-69960471D02*
G75*
G03*
X170527000Y-71839000I2151317J291470D01*
G01*
X165026999Y-73539000D02*
G75*
G03*
X167127000Y-75439001I2000000J99999D01*
G01*
D16*
X167910682Y-70360471D02*
G75*
G03*
X170127000Y-72239000I2151317J291470D01*
G01*
D12*
X184726000Y-75239000D02*
X184726000Y-77039000D01*
D15*
X185856000Y-78739000D02*
X185856000Y-76499000D01*
D10*
X184126000Y-74739000D02*
X187406000Y-74739000D01*
D17*
X184226001Y-77439000D02*
X184226000Y-78338999D01*
D16*
X193926000Y-79639000D02*
X193926000Y-77139000D01*
D10*
X194626000Y-79889000D02*
X194626000Y-80239000D01*
D13*
X184326000Y-74939000D02*
X187026000Y-74939000D01*
D14*
X192626000Y-78439000D02*
X185926000Y-78439000D01*
D10*
X184356000Y-77339000D02*
X184356000Y-75099000D01*
D13*
X194326000Y-76939000D02*
X192926000Y-76939000D01*
D10*
X194426000Y-79889000D02*
X194626000Y-79889000D01*
X184326000Y-75099000D02*
X184126000Y-75099000D01*
X189626000Y-76639000D02*
X194626000Y-76639000D01*
X194626000Y-76639000D02*
X194626000Y-77639000D01*
D11*
X194426000Y-80039000D02*
X193026000Y-80039000D01*
D10*
X184126000Y-74739000D02*
X184126000Y-75099000D01*
X194626000Y-77639000D02*
X194426000Y-77639000D01*
X184126000Y-78339000D02*
X184126000Y-77339000D01*
X194626000Y-80239000D02*
X186226000Y-80239001D01*
D11*
X194426000Y-77539000D02*
X194426000Y-76839000D01*
D10*
X184126000Y-77339000D02*
X184326000Y-77339000D01*
X194406000Y-77639000D02*
X194406000Y-79889000D01*
X187409682Y-74760471D02*
G75*
G03*
X189626000Y-76639000I2151317J291470D01*
G01*
D16*
X187009682Y-75160471D02*
G75*
G03*
X189226000Y-77039000I2151317J291470D01*
G01*
D10*
X184125999Y-78339000D02*
G75*
G03*
X186226000Y-80239001I2000000J99999D01*
G01*
D11*
X213425340Y-80040740D02*
X212025340Y-80040740D01*
D10*
X213405340Y-77640740D02*
X213405340Y-79890740D01*
D17*
X203225341Y-77440740D02*
X203225340Y-78340739D01*
D10*
X213625340Y-80240740D02*
X205225340Y-80240741D01*
D15*
X204855340Y-78740740D02*
X204855340Y-76500740D01*
D10*
X203125340Y-74740740D02*
X206405340Y-74740740D01*
X213625340Y-76640740D02*
X213625340Y-77640740D01*
X203325340Y-75100740D02*
X203125340Y-75100740D01*
X208625340Y-76640740D02*
X213625340Y-76640740D01*
D13*
X203325340Y-74940740D02*
X206025340Y-74940740D01*
D11*
X213425340Y-77540740D02*
X213425340Y-76840740D01*
D12*
X203725340Y-75240740D02*
X203725340Y-77040740D01*
D10*
X213625340Y-77640740D02*
X213425340Y-77640740D01*
D14*
X211625340Y-78440740D02*
X204925340Y-78440740D01*
D10*
X213425340Y-79890740D02*
X213625340Y-79890740D01*
X203355340Y-77340740D02*
X203355340Y-75100740D01*
D13*
X213325340Y-76940740D02*
X211925340Y-76940740D01*
D10*
X203125340Y-74740740D02*
X203125340Y-75100740D01*
X203125340Y-77340740D02*
X203325340Y-77340740D01*
X213625340Y-79890740D02*
X213625340Y-80240740D01*
X203125340Y-78340740D02*
X203125340Y-77340740D01*
D16*
X212925340Y-79640740D02*
X212925340Y-77140740D01*
D10*
X203125339Y-78340740D02*
G75*
G03*
X205225340Y-80240741I2000000J99999D01*
G01*
X206409022Y-74762211D02*
G75*
G03*
X208625340Y-76640740I2151317J291470D01*
G01*
D16*
X206009022Y-75162211D02*
G75*
G03*
X208225340Y-77040740I2151317J291470D01*
G01*
D11*
X118227180Y-96689380D02*
X116827180Y-96689380D01*
D10*
X118207180Y-94289380D02*
X118207180Y-96539380D01*
X118427180Y-94289380D02*
X118227180Y-94289380D01*
X107927180Y-93989380D02*
X108127180Y-93989380D01*
D15*
X109657180Y-95389380D02*
X109657180Y-93149380D01*
D13*
X108127180Y-91589380D02*
X110827180Y-91589380D01*
D11*
X118227180Y-94189380D02*
X118227180Y-93489380D01*
D10*
X107927180Y-94989380D02*
X107927180Y-93989380D01*
X118427180Y-93289380D02*
X118427180Y-94289380D01*
X108157180Y-93989380D02*
X108157180Y-91749380D01*
D13*
X118127180Y-93589380D02*
X116727180Y-93589380D01*
D14*
X116427180Y-95089380D02*
X109727180Y-95089380D01*
D10*
X118427180Y-96539380D02*
X118427180Y-96889380D01*
X107927180Y-91389380D02*
X107927180Y-91749380D01*
D16*
X117727180Y-96289380D02*
X117727180Y-93789380D01*
D10*
X113427180Y-93289380D02*
X118427180Y-93289380D01*
X118227180Y-96539380D02*
X118427180Y-96539380D01*
D17*
X108027181Y-94089380D02*
X108027180Y-94989379D01*
D10*
X107927180Y-91389380D02*
X111207180Y-91389380D01*
X108127180Y-91749380D02*
X107927180Y-91749380D01*
D12*
X108527180Y-91889380D02*
X108527180Y-93689380D01*
D10*
X118427180Y-96889380D02*
X110027180Y-96889381D01*
X107927179Y-94989380D02*
G75*
G03*
X110027180Y-96889381I2000000J99999D01*
G01*
D16*
X110810862Y-91810851D02*
G75*
G03*
X113027180Y-93689380I2151317J291470D01*
G01*
D10*
X111210862Y-91410851D02*
G75*
G03*
X113427180Y-93289380I2151317J291470D01*
G01*
D13*
X137126000Y-91088000D02*
X135726000Y-91088000D01*
D11*
X137226000Y-91688000D02*
X137226000Y-90988000D01*
D12*
X127526000Y-89388000D02*
X127526000Y-91188000D01*
D16*
X136726000Y-93788000D02*
X136726000Y-91288000D01*
D14*
X135426000Y-92588000D02*
X128726000Y-92588000D01*
D10*
X126926000Y-91488000D02*
X127126000Y-91488000D01*
X127156000Y-91488000D02*
X127156000Y-89248000D01*
X132426000Y-90788000D02*
X137426000Y-90788000D01*
X127126000Y-89248000D02*
X126926000Y-89248000D01*
X137226000Y-94038000D02*
X137426000Y-94038000D01*
X126926000Y-92488000D02*
X126926000Y-91488000D01*
X137426000Y-94038000D02*
X137426000Y-94388000D01*
X137426000Y-94388000D02*
X129026000Y-94388001D01*
D15*
X128656000Y-92888000D02*
X128656000Y-90648000D01*
D10*
X126926000Y-88888000D02*
X126926000Y-89248000D01*
X137426000Y-91788000D02*
X137226000Y-91788000D01*
X126926000Y-88888000D02*
X130206000Y-88888000D01*
D13*
X127126000Y-89088000D02*
X129826000Y-89088000D01*
D10*
X137426000Y-90788000D02*
X137426000Y-91788000D01*
X137206000Y-91788000D02*
X137206000Y-94038000D01*
D11*
X137226000Y-94188000D02*
X135826000Y-94188000D01*
D17*
X127026001Y-91588000D02*
X127026000Y-92487999D01*
D16*
X129809682Y-89309471D02*
G75*
G03*
X132026000Y-91188000I2151317J291470D01*
G01*
D10*
X130209682Y-88909471D02*
G75*
G03*
X132426000Y-90788000I2151317J291470D01*
G01*
X126925999Y-92488000D02*
G75*
G03*
X129026000Y-94388001I2000000J99999D01*
G01*
D11*
X156326000Y-91670000D02*
X154926000Y-91670000D01*
D14*
X154526000Y-90070000D02*
X147826000Y-90070000D01*
D11*
X156326000Y-89170000D02*
X156326000Y-88470000D01*
D17*
X146126001Y-89070000D02*
X146126000Y-89969999D01*
D10*
X156526000Y-91870000D02*
X148126000Y-91870001D01*
X156306000Y-89270000D02*
X156306000Y-91520000D01*
X146026000Y-89970000D02*
X146026000Y-88970000D01*
D13*
X146226000Y-86570000D02*
X148926000Y-86570000D01*
X156226000Y-88570000D02*
X154826000Y-88570000D01*
D10*
X156526000Y-91520000D02*
X156526000Y-91870000D01*
X146026000Y-88970000D02*
X146226000Y-88970000D01*
X146026000Y-86370000D02*
X146026000Y-86730000D01*
X156326000Y-91520000D02*
X156526000Y-91520000D01*
X156526000Y-89270000D02*
X156326000Y-89270000D01*
D15*
X147756000Y-90370000D02*
X147756000Y-88130000D01*
D10*
X156526000Y-88270000D02*
X156526000Y-89270000D01*
X146026000Y-86370000D02*
X149306000Y-86370000D01*
X151526000Y-88270000D02*
X156526000Y-88270000D01*
X146256000Y-88970000D02*
X146256000Y-86730000D01*
D16*
X155826000Y-91270000D02*
X155826000Y-88770000D01*
D12*
X146626000Y-86870000D02*
X146626000Y-88670000D01*
D10*
X146226000Y-86730000D02*
X146026000Y-86730000D01*
D16*
X148909682Y-86791471D02*
G75*
G03*
X151126000Y-88670000I2151317J291470D01*
G01*
D10*
X149309682Y-86391471D02*
G75*
G03*
X151526000Y-88270000I2151317J291470D01*
G01*
X146025999Y-89970000D02*
G75*
G03*
X148126000Y-91870001I2000000J99999D01*
G01*
D13*
X165227000Y-89189000D02*
X167927000Y-89189000D01*
X175227000Y-91189000D02*
X173827000Y-91189000D01*
D10*
X175527000Y-94139000D02*
X175527000Y-94489000D01*
D12*
X165627000Y-89489000D02*
X165627000Y-91289000D01*
D10*
X165027000Y-88989000D02*
X165027000Y-89349000D01*
X175527000Y-90889000D02*
X175527000Y-91889000D01*
X165227000Y-89349000D02*
X165027000Y-89349000D01*
X175527000Y-94489000D02*
X167127000Y-94489001D01*
X165027000Y-88989000D02*
X168307000Y-88989000D01*
X175527000Y-91889000D02*
X175327000Y-91889000D01*
D14*
X173527000Y-92689000D02*
X166827000Y-92689000D01*
D17*
X165127001Y-91689000D02*
X165127000Y-92588999D01*
D16*
X174827000Y-93889000D02*
X174827000Y-91389000D01*
D10*
X175327000Y-94139000D02*
X175527000Y-94139000D01*
D15*
X166757000Y-92989000D02*
X166757000Y-90749000D01*
D10*
X170527000Y-90889000D02*
X175527000Y-90889000D01*
D11*
X175327000Y-91789000D02*
X175327000Y-91089000D01*
D10*
X175307000Y-91889000D02*
X175307000Y-94139000D01*
D11*
X175327000Y-94289000D02*
X173927000Y-94289000D01*
D10*
X165027000Y-91589000D02*
X165227000Y-91589000D01*
X165257000Y-91589000D02*
X165257000Y-89349000D01*
X165027000Y-92589000D02*
X165027000Y-91589000D01*
D16*
X167910682Y-89410471D02*
G75*
G03*
X170127000Y-91289000I2151317J291470D01*
G01*
D10*
X168310682Y-89010471D02*
G75*
G03*
X170527000Y-90889000I2151317J291470D01*
G01*
X165026999Y-92589000D02*
G75*
G03*
X167127000Y-94489001I2000000J99999D01*
G01*
D11*
X194426000Y-96589000D02*
X194426000Y-95889000D01*
D10*
X194626000Y-95689000D02*
X194626000Y-96689000D01*
D16*
X193926000Y-98689000D02*
X193926000Y-96189000D01*
D10*
X184126000Y-93789000D02*
X184126000Y-94149000D01*
X194626000Y-96689000D02*
X194426000Y-96689000D01*
X184326000Y-94149000D02*
X184126000Y-94149000D01*
D13*
X184326000Y-93989000D02*
X187026000Y-93989000D01*
D11*
X194426000Y-99089000D02*
X193026000Y-99089000D01*
D12*
X184726000Y-94289000D02*
X184726000Y-96089000D01*
D10*
X184356000Y-96389000D02*
X184356000Y-94149000D01*
X194406000Y-96689000D02*
X194406000Y-98939000D01*
X194626000Y-99289000D02*
X186226000Y-99289001D01*
D14*
X192626000Y-97489000D02*
X185926000Y-97489000D01*
D10*
X194426000Y-98939000D02*
X194626000Y-98939000D01*
X184126000Y-97389000D02*
X184126000Y-96389000D01*
X194626000Y-98939000D02*
X194626000Y-99289000D01*
X184126000Y-93789000D02*
X187406000Y-93789000D01*
D17*
X184226001Y-96489000D02*
X184226000Y-97388999D01*
D10*
X189626000Y-95689000D02*
X194626000Y-95689000D01*
X184126000Y-96389000D02*
X184326000Y-96389000D01*
D15*
X185856000Y-97789000D02*
X185856000Y-95549000D01*
D13*
X194326000Y-95989000D02*
X192926000Y-95989000D01*
D10*
X187409682Y-93810471D02*
G75*
G03*
X189626000Y-95689000I2151317J291470D01*
G01*
X184125999Y-97389000D02*
G75*
G03*
X186226000Y-99289001I2000000J99999D01*
G01*
D16*
X187009682Y-94210471D02*
G75*
G03*
X189226000Y-96089000I2151317J291470D01*
G01*
D10*
X118227180Y-115589380D02*
X118427180Y-115589380D01*
X118427180Y-115939380D02*
X110027180Y-115939381D01*
D11*
X118227180Y-115739380D02*
X116827180Y-115739380D01*
D10*
X113427180Y-112339380D02*
X118427180Y-112339380D01*
X118427180Y-115589380D02*
X118427180Y-115939380D01*
X107927180Y-113039380D02*
X108127180Y-113039380D01*
D13*
X108127180Y-110639380D02*
X110827180Y-110639380D01*
D10*
X107927180Y-110439380D02*
X111207180Y-110439380D01*
D15*
X109657180Y-114439380D02*
X109657180Y-112199380D01*
D10*
X118207180Y-113339380D02*
X118207180Y-115589380D01*
X107927180Y-110439380D02*
X107927180Y-110799380D01*
D17*
X108027181Y-113139380D02*
X108027180Y-114039379D01*
D10*
X108157180Y-113039380D02*
X108157180Y-110799380D01*
D11*
X118227180Y-113239380D02*
X118227180Y-112539380D01*
D10*
X118427180Y-112339380D02*
X118427180Y-113339380D01*
X118427180Y-113339380D02*
X118227180Y-113339380D01*
X108127180Y-110799380D02*
X107927180Y-110799380D01*
X107927180Y-114039380D02*
X107927180Y-113039380D01*
D13*
X118127180Y-112639380D02*
X116727180Y-112639380D01*
D16*
X117727180Y-115339380D02*
X117727180Y-112839380D01*
D14*
X116427180Y-114139380D02*
X109727180Y-114139380D01*
D12*
X108527180Y-110939380D02*
X108527180Y-112739380D01*
D16*
X110810862Y-110860851D02*
G75*
G03*
X113027180Y-112739380I2151317J291470D01*
G01*
D10*
X107927179Y-114039380D02*
G75*
G03*
X110027180Y-115939381I2000000J99999D01*
G01*
X111210862Y-110460851D02*
G75*
G03*
X113427180Y-112339380I2151317J291470D01*
G01*
X137426000Y-113088000D02*
X137426000Y-113438000D01*
D12*
X127526000Y-108438000D02*
X127526000Y-110238000D01*
D13*
X127126000Y-108138000D02*
X129826000Y-108138000D01*
D10*
X127126000Y-108298000D02*
X126926000Y-108298000D01*
D17*
X127026001Y-110638000D02*
X127026000Y-111537999D01*
D10*
X137426000Y-109838000D02*
X137426000Y-110838000D01*
X132426000Y-109838000D02*
X137426000Y-109838000D01*
X127156000Y-110538000D02*
X127156000Y-108298000D01*
D16*
X136726000Y-112838000D02*
X136726000Y-110338000D01*
D10*
X137426000Y-113438000D02*
X129026000Y-113438001D01*
X126926000Y-110538000D02*
X127126000Y-110538000D01*
D15*
X128656000Y-111938000D02*
X128656000Y-109698000D01*
D10*
X137206000Y-110838000D02*
X137206000Y-113088000D01*
D13*
X137126000Y-110138000D02*
X135726000Y-110138000D01*
D11*
X137226000Y-110738000D02*
X137226000Y-110038000D01*
D10*
X137426000Y-110838000D02*
X137226000Y-110838000D01*
D11*
X137226000Y-113238000D02*
X135826000Y-113238000D01*
D10*
X126926000Y-107938000D02*
X126926000Y-108298000D01*
X137226000Y-113088000D02*
X137426000Y-113088000D01*
X126926000Y-111538000D02*
X126926000Y-110538000D01*
D14*
X135426000Y-111638000D02*
X128726000Y-111638000D01*
D10*
X126926000Y-107938000D02*
X130206000Y-107938000D01*
X130209682Y-107959471D02*
G75*
G03*
X132426000Y-109838000I2151317J291470D01*
G01*
D16*
X129809682Y-108359471D02*
G75*
G03*
X132026000Y-110238000I2151317J291470D01*
G01*
D10*
X126925999Y-111538000D02*
G75*
G03*
X129026000Y-113438001I2000000J99999D01*
G01*
X146026000Y-109020000D02*
X146026000Y-108020000D01*
X146026000Y-108020000D02*
X146226000Y-108020000D01*
X156306000Y-108320000D02*
X156306000Y-110570000D01*
D13*
X156226000Y-107620000D02*
X154826000Y-107620000D01*
D15*
X147756000Y-109420000D02*
X147756000Y-107180000D01*
D10*
X156526000Y-110570000D02*
X156526000Y-110920000D01*
X146256000Y-108020000D02*
X146256000Y-105780000D01*
X156326000Y-110570000D02*
X156526000Y-110570000D01*
D13*
X146226000Y-105620000D02*
X148926000Y-105620000D01*
D10*
X146226000Y-105780000D02*
X146026000Y-105780000D01*
D14*
X154526000Y-109120000D02*
X147826000Y-109120000D01*
D17*
X146126001Y-108120000D02*
X146126000Y-109019999D01*
D16*
X155826000Y-110320000D02*
X155826000Y-107820000D01*
D11*
X156326000Y-110720000D02*
X154926000Y-110720000D01*
D10*
X146026000Y-105420000D02*
X149306000Y-105420000D01*
X156526000Y-107320000D02*
X156526000Y-108320000D01*
X156526000Y-110920000D02*
X148126000Y-110920001D01*
X151526000Y-107320000D02*
X156526000Y-107320000D01*
D11*
X156326000Y-108220000D02*
X156326000Y-107520000D01*
D10*
X146026000Y-105420000D02*
X146026000Y-105780000D01*
X156526000Y-108320000D02*
X156326000Y-108320000D01*
D12*
X146626000Y-105920000D02*
X146626000Y-107720000D01*
D10*
X146025999Y-109020000D02*
G75*
G03*
X148126000Y-110920001I2000000J99999D01*
G01*
X149309682Y-105441471D02*
G75*
G03*
X151526000Y-107320000I2151317J291470D01*
G01*
D16*
X148909682Y-105841471D02*
G75*
G03*
X151126000Y-107720000I2151317J291470D01*
G01*
D10*
X165027000Y-111639000D02*
X165027000Y-110639000D01*
X175527000Y-113539000D02*
X167127000Y-113539001D01*
D11*
X175327000Y-110839000D02*
X175327000Y-110139000D01*
D10*
X165257000Y-110639000D02*
X165257000Y-108399000D01*
X170527000Y-109939000D02*
X175527000Y-109939000D01*
X165027000Y-108039000D02*
X165027000Y-108399000D01*
D14*
X173527000Y-111739000D02*
X166827000Y-111739000D01*
D10*
X175527000Y-109939000D02*
X175527000Y-110939000D01*
X165227000Y-108399000D02*
X165027000Y-108399000D01*
D12*
X165627000Y-108539000D02*
X165627000Y-110339000D01*
D10*
X165027000Y-108039000D02*
X168307000Y-108039000D01*
D17*
X165127001Y-110739000D02*
X165127000Y-111638999D01*
D10*
X175527000Y-110939000D02*
X175327000Y-110939000D01*
D13*
X165227000Y-108239000D02*
X167927000Y-108239000D01*
D15*
X166757000Y-112039000D02*
X166757000Y-109799000D01*
D11*
X175327000Y-113339000D02*
X173927000Y-113339000D01*
D16*
X174827000Y-112939000D02*
X174827000Y-110439000D01*
D13*
X175227000Y-110239000D02*
X173827000Y-110239000D01*
D10*
X165027000Y-110639000D02*
X165227000Y-110639000D01*
X175307000Y-110939000D02*
X175307000Y-113189000D01*
X175527000Y-113189000D02*
X175527000Y-113539000D01*
X175327000Y-113189000D02*
X175527000Y-113189000D01*
X168310682Y-108060471D02*
G75*
G03*
X170527000Y-109939000I2151317J291470D01*
G01*
X165026999Y-111639000D02*
G75*
G03*
X167127000Y-113539001I2000000J99999D01*
G01*
D16*
X167910682Y-108460471D02*
G75*
G03*
X170127000Y-110339000I2151317J291470D01*
G01*
D10*
X184126000Y-115439000D02*
X184326000Y-115439000D01*
X194626000Y-118339000D02*
X186226000Y-118339001D01*
X194626000Y-117989000D02*
X194626000Y-118339000D01*
X194626000Y-114739000D02*
X194626000Y-115739000D01*
D13*
X194326000Y-115039000D02*
X192926000Y-115039000D01*
D10*
X184126000Y-112839000D02*
X187406000Y-112839000D01*
D16*
X193926000Y-117739000D02*
X193926000Y-115239000D01*
D10*
X189626000Y-114739000D02*
X194626000Y-114739000D01*
D11*
X194426000Y-118139000D02*
X193026000Y-118139000D01*
D17*
X184226001Y-115539000D02*
X184226000Y-116438999D01*
D15*
X185856000Y-116839000D02*
X185856000Y-114599000D01*
D12*
X184726000Y-113339000D02*
X184726000Y-115139000D01*
D13*
X184326000Y-113039000D02*
X187026000Y-113039000D01*
D10*
X184356000Y-115439000D02*
X184356000Y-113199000D01*
X194406000Y-115739000D02*
X194406000Y-117989000D01*
D14*
X192626000Y-116539000D02*
X185926000Y-116539000D01*
D10*
X194626000Y-115739000D02*
X194426000Y-115739000D01*
X184326000Y-113199000D02*
X184126000Y-113199000D01*
X194426000Y-117989000D02*
X194626000Y-117989000D01*
X184126000Y-112839000D02*
X184126000Y-113199000D01*
X184126000Y-116439000D02*
X184126000Y-115439000D01*
D11*
X194426000Y-115639000D02*
X194426000Y-114939000D01*
D10*
X184125999Y-116439000D02*
G75*
G03*
X186226000Y-118339001I2000000J99999D01*
G01*
X187409682Y-112860471D02*
G75*
G03*
X189626000Y-114739000I2151317J291470D01*
G01*
D16*
X187009682Y-113260471D02*
G75*
G03*
X189226000Y-115139000I2151317J291470D01*
G01*
D18*
X89718000Y-113034000D02*
X87318000Y-113034000D01*
X87318000Y-104934000D02*
X87318000Y-100834000D01*
X87318000Y-113034000D02*
X87318000Y-108934000D01*
X93218000Y-106434000D02*
X93218000Y-107434000D01*
X99118000Y-104934000D02*
X99118000Y-100834000D01*
X99118000Y-108934000D02*
X99118000Y-113034000D01*
X94518000Y-113034000D02*
X91918000Y-113034000D01*
X93718000Y-106934000D02*
X92718000Y-106934000D01*
X99118000Y-100834000D02*
X87318000Y-100834000D01*
X99118000Y-113034000D02*
X96718000Y-113034000D01*
X96218000Y-106934000D02*
G75*
G03*
X96218000Y-106934000I-3000000J0D01*
G01*
D10*
X83853706Y-132369450D02*
X83953706Y-132542655D01*
D15*
X83506270Y-134567674D02*
X85446167Y-133447674D01*
D10*
X86895341Y-142737717D02*
X86592232Y-142912717D01*
D16*
X86761848Y-142006499D02*
X88926911Y-140756499D01*
D13*
X89300116Y-141002909D02*
X88600116Y-139790474D01*
D12*
X85972359Y-131839065D02*
X84413514Y-132739065D01*
D11*
X88830501Y-141389512D02*
X89436719Y-141039512D01*
D10*
X86795341Y-142564512D02*
X86895341Y-142737717D01*
X88843898Y-141612717D02*
X88743898Y-141439512D01*
X87209924Y-136782590D02*
X89709924Y-141112717D01*
X82987681Y-132869450D02*
X83853706Y-132369450D01*
X89709924Y-141112717D02*
X88843898Y-141612717D01*
D13*
X86032167Y-131342655D02*
X87382167Y-133680924D01*
D10*
X86105372Y-131069450D02*
X85793603Y-131249450D01*
D14*
X87151078Y-140280666D02*
X83801078Y-134478296D01*
D10*
X85893603Y-131422655D02*
X85793603Y-131249450D01*
D17*
X83817104Y-132506054D02*
X83037681Y-132956052D01*
D10*
X88733898Y-141422191D02*
X86785341Y-142547191D01*
X86592232Y-142912717D02*
X82392231Y-135638104D01*
D11*
X86665437Y-142639512D02*
X85965437Y-141427076D01*
D10*
X86105372Y-131069450D02*
X87745372Y-133910013D01*
X83968706Y-132568636D02*
X85908603Y-131448636D01*
D16*
X87182208Y-133777528D02*
G75*
G03*
X86663514Y-136636180I1328079J-1717360D01*
G01*
D10*
X87728618Y-133923937D02*
G75*
G03*
X87209924Y-136782590I1328080J-1717361D01*
G01*
X82987680Y-132869449D02*
G75*
G03*
X82392231Y-135638104I1086602J-1682052D01*
G01*
D13*
X115981584Y-132628633D02*
X114629288Y-132990980D01*
D16*
X116294025Y-135340161D02*
X115646977Y-132925346D01*
D10*
X105846099Y-133439520D02*
X105652913Y-133491284D01*
D17*
X106355144Y-135725668D02*
X106588079Y-136595001D01*
D10*
X106491487Y-136620884D02*
X106232668Y-135654958D01*
D11*
X116233468Y-133182307D02*
X116052295Y-132506159D01*
D10*
X111364087Y-133555305D02*
X116193716Y-132261210D01*
X117034878Y-135400469D02*
X117125464Y-135738543D01*
X105559739Y-133143551D02*
X105652913Y-133491284D01*
D12*
X106268704Y-133471222D02*
X106734578Y-135209889D01*
D11*
X116880516Y-135597121D02*
X115528219Y-135959468D01*
D15*
X108266066Y-136559497D02*
X107686312Y-134395823D01*
D10*
X106454831Y-135595430D02*
X105875076Y-133431756D01*
D13*
X105804688Y-133284972D02*
X108412687Y-132586161D01*
D10*
X116452535Y-133227136D02*
X116259350Y-133278900D01*
X116193716Y-132261210D02*
X116452535Y-133227136D01*
X117125464Y-135738543D02*
X109011688Y-137912624D01*
X116841693Y-135452233D02*
X117034878Y-135400469D01*
D14*
X114727739Y-134517514D02*
X108256036Y-136251602D01*
D10*
X105559739Y-133143551D02*
X108727975Y-132294624D01*
X116240031Y-133284076D02*
X116822374Y-135457409D01*
X106232668Y-135654958D02*
X106425853Y-135603194D01*
D16*
X108454246Y-132804309D02*
G75*
G03*
X111081244Y-134045203I2002575J838341D01*
G01*
D10*
X108737089Y-132314411D02*
G75*
G03*
X111364087Y-133555305I2002575J838340D01*
G01*
X106491485Y-136620884D02*
G75*
G03*
X109011688Y-137912624I1905971J614230D01*
G01*
X137426000Y-128888000D02*
X137426000Y-129888000D01*
D13*
X127126000Y-127188000D02*
X129826000Y-127188000D01*
D10*
X126926000Y-126988000D02*
X126926000Y-127348000D01*
X127126000Y-127348000D02*
X126926000Y-127348000D01*
X137426000Y-132488000D02*
X129026000Y-132488001D01*
X126926000Y-129588000D02*
X127126000Y-129588000D01*
X137226000Y-132138000D02*
X137426000Y-132138000D01*
D17*
X127026001Y-129688000D02*
X127026000Y-130587999D01*
D16*
X136726000Y-131888000D02*
X136726000Y-129388000D01*
D10*
X126926000Y-130588000D02*
X126926000Y-129588000D01*
X137206000Y-129888000D02*
X137206000Y-132138000D01*
X126926000Y-126988000D02*
X130206000Y-126988000D01*
X137426000Y-129888000D02*
X137226000Y-129888000D01*
X137426000Y-132138000D02*
X137426000Y-132488000D01*
D14*
X135426000Y-130688000D02*
X128726000Y-130688000D01*
D11*
X137226000Y-129788000D02*
X137226000Y-129088000D01*
D12*
X127526000Y-127488000D02*
X127526000Y-129288000D01*
D15*
X128656000Y-130988000D02*
X128656000Y-128748000D01*
D13*
X137126000Y-129188000D02*
X135726000Y-129188000D01*
D11*
X137226000Y-132288000D02*
X135826000Y-132288000D01*
D10*
X132426000Y-128888000D02*
X137426000Y-128888000D01*
X127156000Y-129588000D02*
X127156000Y-127348000D01*
X126925999Y-130588000D02*
G75*
G03*
X129026000Y-132488001I2000000J99999D01*
G01*
X130209682Y-127009471D02*
G75*
G03*
X132426000Y-128888000I2151317J291470D01*
G01*
D16*
X129809682Y-127409471D02*
G75*
G03*
X132026000Y-129288000I2151317J291470D01*
G01*
D10*
X146026000Y-124470000D02*
X149306000Y-124470000D01*
D14*
X154526000Y-128170000D02*
X147826000Y-128170000D01*
D13*
X146226000Y-124670000D02*
X148926000Y-124670000D01*
D17*
X146126001Y-127170000D02*
X146126000Y-128069999D01*
D10*
X156306000Y-127370000D02*
X156306000Y-129620000D01*
D13*
X156226000Y-126670000D02*
X154826000Y-126670000D01*
D16*
X155826000Y-129370000D02*
X155826000Y-126870000D01*
D10*
X146226000Y-124830000D02*
X146026000Y-124830000D01*
D11*
X156326000Y-127270000D02*
X156326000Y-126570000D01*
D10*
X146026000Y-128070000D02*
X146026000Y-127070000D01*
X156526000Y-129970000D02*
X148126000Y-129970001D01*
X156526000Y-129620000D02*
X156526000Y-129970000D01*
X146256000Y-127070000D02*
X146256000Y-124830000D01*
D12*
X146626000Y-124970000D02*
X146626000Y-126770000D01*
D10*
X151526000Y-126370000D02*
X156526000Y-126370000D01*
X146026000Y-127070000D02*
X146226000Y-127070000D01*
D15*
X147756000Y-128470000D02*
X147756000Y-126230000D01*
D10*
X156526000Y-127370000D02*
X156326000Y-127370000D01*
X156326000Y-129620000D02*
X156526000Y-129620000D01*
X156526000Y-126370000D02*
X156526000Y-127370000D01*
D11*
X156326000Y-129770000D02*
X154926000Y-129770000D01*
D10*
X146026000Y-124470000D02*
X146026000Y-124830000D01*
X149309682Y-124491471D02*
G75*
G03*
X151526000Y-126370000I2151317J291470D01*
G01*
X146025999Y-128070000D02*
G75*
G03*
X148126000Y-129970001I2000000J99999D01*
G01*
D16*
X148909682Y-124891471D02*
G75*
G03*
X151126000Y-126770000I2151317J291470D01*
G01*
D10*
X213625340Y-133790740D02*
X213625340Y-134790740D01*
X213405340Y-134790740D02*
X213405340Y-137040740D01*
D13*
X213325340Y-134090740D02*
X211925340Y-134090740D01*
X203325340Y-132090740D02*
X206025340Y-132090740D01*
D10*
X213625340Y-137390740D02*
X205225340Y-137390741D01*
X213625340Y-134790740D02*
X213425340Y-134790740D01*
X203325340Y-132250740D02*
X203125340Y-132250740D01*
X203355340Y-134490740D02*
X203355340Y-132250740D01*
X203125340Y-131890740D02*
X206405340Y-131890740D01*
D12*
X203725340Y-132390740D02*
X203725340Y-134190740D01*
D15*
X204855340Y-135890740D02*
X204855340Y-133650740D01*
D10*
X203125340Y-135490740D02*
X203125340Y-134490740D01*
X208625340Y-133790740D02*
X213625340Y-133790740D01*
D11*
X213425340Y-137190740D02*
X212025340Y-137190740D01*
D10*
X213425340Y-137040740D02*
X213625340Y-137040740D01*
D14*
X211625340Y-135590740D02*
X204925340Y-135590740D01*
D10*
X203125340Y-134490740D02*
X203325340Y-134490740D01*
D11*
X213425340Y-134690740D02*
X213425340Y-133990740D01*
D10*
X213625340Y-137040740D02*
X213625340Y-137390740D01*
X203125340Y-131890740D02*
X203125340Y-132250740D01*
D16*
X212925340Y-136790740D02*
X212925340Y-134290740D01*
D17*
X203225341Y-134590740D02*
X203225340Y-135490739D01*
D10*
X206409022Y-131912211D02*
G75*
G03*
X208625340Y-133790740I2151317J291470D01*
G01*
X203125339Y-135490740D02*
G75*
G03*
X205225340Y-137390741I2000000J99999D01*
G01*
D16*
X206009022Y-132312211D02*
G75*
G03*
X208225340Y-134190740I2151317J291470D01*
G01*
D10*
X87982815Y-74055745D02*
X87982815Y-43575745D01*
X103222815Y-43575745D02*
X100682815Y-43575745D01*
X85442815Y-43575745D02*
X85442815Y-74055745D01*
X100682815Y-43575745D02*
X100682815Y-74055745D01*
X100682815Y-74055745D02*
X103222815Y-74055745D01*
X87982815Y-43575745D02*
X85442815Y-43575745D01*
X103222815Y-74055745D02*
X103222815Y-41035745D01*
X85442815Y-74055745D02*
X87982815Y-74055745D01*
X85442815Y-41035745D02*
X85442815Y-74055745D01*
X103222815Y-74055745D02*
X103222815Y-43575745D01*
X103222815Y-41035745D02*
X85442815Y-41035745D01*
X87249000Y-78105000D02*
X85471000Y-78105000D01*
X87249000Y-75819000D02*
X87249000Y-78105000D01*
X85471000Y-78105000D02*
X85471000Y-75819000D01*
X85471000Y-75819000D02*
X87249000Y-75819000D01*
X81534000Y-83868000D02*
X93534000Y-83868000D01*
X93534000Y-89868000D02*
X81534000Y-89868000D01*
X81534000Y-89868000D02*
X81534000Y-83868000D01*
X93534000Y-83868000D02*
X93534000Y-89868000D01*
X103616000Y-78978000D02*
X103616000Y-76978000D01*
X101616000Y-78978000D02*
X103616000Y-78978000D01*
X101616000Y-76978000D02*
X101616000Y-78978000D01*
X103616000Y-76978000D02*
X101616000Y-76978000D01*
X103616000Y-84566000D02*
X103616000Y-82566000D01*
X103616000Y-82566000D02*
X101616000Y-82566000D01*
X101616000Y-82566000D02*
X101616000Y-84566000D01*
X101616000Y-84566000D02*
X103616000Y-84566000D01*
X101616000Y-81772000D02*
X103616000Y-81772000D01*
X103616000Y-79772000D02*
X101616000Y-79772000D01*
X103616000Y-81772000D02*
X103616000Y-79772000D01*
X101616000Y-79772000D02*
X101616000Y-81772000D01*
D13*
X203325340Y-113040740D02*
X206025340Y-113040740D01*
D14*
X211625340Y-116540740D02*
X204925340Y-116540740D01*
D10*
X213405340Y-115740740D02*
X213405340Y-117990740D01*
D11*
X213425340Y-115640740D02*
X213425340Y-114940740D01*
D10*
X203125340Y-112840740D02*
X203125340Y-113200740D01*
D17*
X203225341Y-115540740D02*
X203225340Y-116440739D01*
D10*
X213625340Y-114740740D02*
X213625340Y-115740740D01*
X213425340Y-117990740D02*
X213625340Y-117990740D01*
X203325340Y-113200740D02*
X203125340Y-113200740D01*
X203125340Y-115440740D02*
X203325340Y-115440740D01*
D15*
X204855340Y-116840740D02*
X204855340Y-114600740D01*
D16*
X212925340Y-117740740D02*
X212925340Y-115240740D01*
D13*
X213325340Y-115040740D02*
X211925340Y-115040740D01*
D10*
X213625340Y-117990740D02*
X213625340Y-118340740D01*
X208625340Y-114740740D02*
X213625340Y-114740740D01*
D11*
X213425340Y-118140740D02*
X212025340Y-118140740D01*
D10*
X203355340Y-115440740D02*
X203355340Y-113200740D01*
X203125340Y-112840740D02*
X206405340Y-112840740D01*
X203125340Y-116440740D02*
X203125340Y-115440740D01*
X213625340Y-118340740D02*
X205225340Y-118340741D01*
X213625340Y-115740740D02*
X213425340Y-115740740D01*
D12*
X203725340Y-113340740D02*
X203725340Y-115140740D01*
D10*
X206409022Y-112862211D02*
G75*
G03*
X208625340Y-114740740I2151317J291470D01*
G01*
X203125339Y-116440740D02*
G75*
G03*
X205225340Y-118340741I2000000J99999D01*
G01*
D16*
X206009022Y-113262211D02*
G75*
G03*
X208225340Y-115140740I2151317J291470D01*
G01*
D10*
X213625340Y-95690740D02*
X213625340Y-96690740D01*
X203355340Y-96390740D02*
X203355340Y-94150740D01*
X213425340Y-98940740D02*
X213625340Y-98940740D01*
D13*
X203325340Y-93990740D02*
X206025340Y-93990740D01*
D10*
X203125340Y-93790740D02*
X203125340Y-94150740D01*
D14*
X211625340Y-97490740D02*
X204925340Y-97490740D01*
D16*
X212925340Y-98690740D02*
X212925340Y-96190740D01*
D10*
X213405340Y-96690740D02*
X213405340Y-98940740D01*
X208625340Y-95690740D02*
X213625340Y-95690740D01*
X203125340Y-93790740D02*
X206405340Y-93790740D01*
X203125340Y-97390740D02*
X203125340Y-96390740D01*
X203325340Y-94150740D02*
X203125340Y-94150740D01*
D13*
X213325340Y-95990740D02*
X211925340Y-95990740D01*
D11*
X213425340Y-96590740D02*
X213425340Y-95890740D01*
X213425340Y-99090740D02*
X212025340Y-99090740D01*
D17*
X203225341Y-96490740D02*
X203225340Y-97390739D01*
D12*
X203725340Y-94290740D02*
X203725340Y-96090740D01*
D10*
X203125340Y-96390740D02*
X203325340Y-96390740D01*
X213625340Y-99290740D02*
X205225340Y-99290741D01*
D15*
X204855340Y-97790740D02*
X204855340Y-95550740D01*
D10*
X213625340Y-98940740D02*
X213625340Y-99290740D01*
X213625340Y-96690740D02*
X213425340Y-96690740D01*
X206409022Y-93812211D02*
G75*
G03*
X208625340Y-95690740I2151317J291470D01*
G01*
X203125339Y-97390740D02*
G75*
G03*
X205225340Y-99290741I2000000J99999D01*
G01*
D16*
X206009022Y-94212211D02*
G75*
G03*
X208225340Y-96090740I2151317J291470D01*
G01*
D13*
X97518000Y-110234000D02*
X96118000Y-110234000D01*
D10*
X87518000Y-108394000D02*
X87318000Y-108394000D01*
X87548000Y-110634000D02*
X87548000Y-108394000D01*
D15*
X89048000Y-112034000D02*
X89048000Y-109794000D01*
D10*
X87318000Y-108034000D02*
X90598000Y-108034000D01*
X87318000Y-108034000D02*
X87318000Y-108394000D01*
D11*
X97618000Y-110834000D02*
X97618000Y-110134000D01*
D17*
X87418001Y-110734000D02*
X87418000Y-111633999D01*
D14*
X95818000Y-111734000D02*
X89118000Y-111734000D01*
D13*
X87518000Y-108234000D02*
X90218000Y-108234000D01*
D16*
X97118000Y-112934000D02*
X97118000Y-110434000D01*
D10*
X97598000Y-110934000D02*
X97598000Y-113184000D01*
X87318000Y-110634000D02*
X87518000Y-110634000D01*
X97818000Y-110934000D02*
X97618000Y-110934000D01*
X97818000Y-113184000D02*
X97818000Y-113534000D01*
X87318000Y-111634000D02*
X87318000Y-110634000D01*
X97818000Y-113534000D02*
X89418000Y-113534001D01*
X97618000Y-113184000D02*
X97818000Y-113184000D01*
X92818000Y-109934000D02*
X97818000Y-109934000D01*
D11*
X97618000Y-113334000D02*
X96218000Y-113334000D01*
D10*
X97818000Y-109934000D02*
X97818000Y-110934000D01*
D12*
X87918000Y-108534000D02*
X87918000Y-110334000D01*
D10*
X87317999Y-111634000D02*
G75*
G03*
X89418000Y-113534001I2000000J99999D01*
G01*
X90601682Y-108055471D02*
G75*
G03*
X92818000Y-109934000I2151317J291470D01*
G01*
D16*
X90201682Y-108455471D02*
G75*
G03*
X92418000Y-110334000I2151317J291470D01*
G01*
D10*
X89281000Y-83185000D02*
X86995000Y-83185000D01*
X86995000Y-83185000D02*
X86995000Y-81407000D01*
X89281000Y-81407000D02*
X89281000Y-83185000D01*
X86995000Y-81407000D02*
X89281000Y-81407000D01*
X89281000Y-80899000D02*
X86995000Y-80899000D01*
X86995000Y-79121000D02*
X89281000Y-79121000D01*
X89281000Y-79121000D02*
X89281000Y-80899000D01*
X86995000Y-80899000D02*
X86995000Y-79121000D01*
X99584000Y-90186000D02*
X99584000Y-92186000D01*
X101584000Y-92186000D02*
X101584000Y-90186000D01*
X101584000Y-90186000D02*
X99584000Y-90186000D01*
X99584000Y-92186000D02*
X101584000Y-92186000D01*
X97520000Y-89392000D02*
X97520000Y-87392000D01*
X97520000Y-87392000D02*
X95520000Y-87392000D01*
X95520000Y-87392000D02*
X95520000Y-89392000D01*
X95520000Y-89392000D02*
X97520000Y-89392000D01*
X100314000Y-89392000D02*
X100314000Y-87392000D01*
X98314000Y-89392000D02*
X100314000Y-89392000D01*
X100314000Y-87392000D02*
X98314000Y-87392000D01*
X98314000Y-87392000D02*
X98314000Y-89392000D01*
X101108000Y-89392000D02*
X103108000Y-89392000D01*
X101108000Y-87392000D02*
X101108000Y-89392000D01*
X103108000Y-87392000D02*
X101108000Y-87392000D01*
X103108000Y-89392000D02*
X103108000Y-87392000D01*
X98790000Y-90186000D02*
X96790000Y-90186000D01*
X98790000Y-92186000D02*
X98790000Y-90186000D01*
X96790000Y-90186000D02*
X96790000Y-92186000D01*
X96790000Y-92186000D02*
X98790000Y-92186000D01*
D19*
X89916000Y-77216000D03*
X92456000Y-77216000D03*
X94996000Y-77216000D03*
X97536000Y-77216000D03*
X95504000Y-82296000D03*
X90424000Y-82296000D03*
X95504000Y-80010000D03*
X90424000Y-80010000D03*
D20*
X85414000Y-43650000D03*
X85414000Y-46190000D03*
X85414000Y-48730000D03*
X85414000Y-51270000D03*
X85414000Y-53810000D03*
X85414000Y-56350000D03*
X85414000Y-58890000D03*
X85414000Y-61430000D03*
X85414000Y-63970000D03*
X85414000Y-66510000D03*
X85414000Y-69050000D03*
X85414000Y-71590000D03*
X100654000Y-71590000D03*
X100654000Y-69050000D03*
X100654000Y-66510000D03*
X100654000Y-63970000D03*
X100654000Y-61430000D03*
X100654000Y-58890000D03*
X100654000Y-56350000D03*
X100654000Y-53810000D03*
X100654000Y-51270000D03*
X100654000Y-48730000D03*
X100654000Y-46190000D03*
X100654000Y-43650000D03*
D21*
X83034000Y-88618000D03*
X83034000Y-86868000D03*
X90034000Y-88618000D03*
X90034000Y-86868000D03*
D22*
X91834000Y-90718000D03*
X91834000Y-84768000D03*
X87834000Y-84768000D03*
X87834000Y-90718000D03*
X84834000Y-84768000D03*
X84834000Y-90718000D03*
X93334000Y-88968000D03*
X93334000Y-86518000D03*
D19*
X102616000Y-77978000D03*
X102616000Y-83566000D03*
X102616000Y-80772000D03*
X100584000Y-91186000D03*
X96520000Y-88392000D03*
X99314000Y-88392000D03*
X102108000Y-88392000D03*
X97790000Y-91186000D03*
%LPC*%
D23*
X122174000Y-45723000D03*
X122174000Y-49273000D03*
X124460000Y-45723000D03*
X124460000Y-49273000D03*
X160274000Y-43437000D03*
X160274000Y-46987000D03*
X162560000Y-43437000D03*
X162560000Y-46987000D03*
X198374000Y-51057000D03*
X198374000Y-54607000D03*
X200660000Y-51057000D03*
X200660000Y-54607000D03*
X122174000Y-64773000D03*
X122174000Y-68323000D03*
X124460000Y-64773000D03*
X124460000Y-68323000D03*
X160274000Y-62487000D03*
X160274000Y-66037000D03*
X162560000Y-62487000D03*
X162560000Y-66037000D03*
X198374000Y-70107000D03*
X198374000Y-73657000D03*
X200660000Y-70107000D03*
X200660000Y-73657000D03*
X122174000Y-83823000D03*
X122174000Y-87373000D03*
X124460000Y-83823000D03*
X124460000Y-87373000D03*
X160274000Y-81537000D03*
X160274000Y-85087000D03*
X162560000Y-81537000D03*
X162560000Y-85087000D03*
X198374000Y-89157000D03*
X198374000Y-92707000D03*
X200660000Y-89157000D03*
X200660000Y-92707000D03*
X122174000Y-102873000D03*
X122174000Y-106423000D03*
X124460000Y-102873000D03*
X124460000Y-106423000D03*
X160274000Y-100587000D03*
X160274000Y-104137000D03*
X162560000Y-100587000D03*
X162560000Y-104137000D03*
X198374000Y-108207000D03*
X198374000Y-111757000D03*
X200660000Y-108207000D03*
X200660000Y-111757000D03*
X119888000Y-120646000D03*
X119888000Y-124196000D03*
X122174000Y-120653000D03*
X122174000Y-124203000D03*
X124460000Y-120646000D03*
X124460000Y-124196000D03*
X141224000Y-117856000D03*
X141224000Y-121406000D03*
X143510000Y-117859000D03*
X143510000Y-121409000D03*
X200660000Y-127003000D03*
X200660000Y-130553000D03*
D19*
X89916000Y-77216000D03*
X92456000Y-77216000D03*
X94996000Y-77216000D03*
X97536000Y-77216000D03*
D24*
X97536000Y-75176380D03*
X97536000Y-74175620D03*
X94996000Y-75168760D03*
X94996000Y-74168000D03*
X92456000Y-75176380D03*
X92456000Y-74175620D03*
X89916000Y-75168760D03*
X89916000Y-74168000D03*
D19*
X95504000Y-82296000D03*
X90424000Y-82296000D03*
X95504000Y-80010000D03*
X90424000Y-80010000D03*
D25*
X83312000Y-75744000D03*
X83312000Y-82244000D03*
D26*
X111287180Y-57269380D03*
D27*
X118907180Y-52189380D03*
X108747180Y-52189380D03*
D26*
X110017180Y-54729381D03*
X117637180Y-54729380D03*
D28*
X113827180Y-52189380D03*
D26*
X116367180Y-57269380D03*
D29*
X106827180Y-54769380D03*
X119527180Y-57309380D03*
D26*
X135366000Y-54768000D03*
D27*
X127746000Y-49688000D03*
D28*
X132826000Y-49688000D03*
D27*
X137906000Y-49688000D03*
D26*
X130286000Y-54768000D03*
X129016000Y-52228001D03*
X136636000Y-52228000D03*
D29*
X125826000Y-52268000D03*
X138526000Y-54808000D03*
D26*
X148116000Y-49710001D03*
X154466000Y-52250000D03*
D27*
X146846000Y-47170000D03*
D28*
X151926000Y-47170000D03*
D26*
X149386000Y-52250000D03*
D27*
X157006000Y-47170000D03*
D26*
X155736000Y-49710000D03*
D29*
X144926000Y-49750000D03*
X157626000Y-52290000D03*
D27*
X176007000Y-49789000D03*
D26*
X174737000Y-52329000D03*
X167117000Y-52329001D03*
D28*
X170927000Y-49789000D03*
D26*
X168387000Y-54869000D03*
D27*
X165847000Y-49789000D03*
D26*
X173467000Y-54869000D03*
D29*
X163927000Y-52369000D03*
X176627000Y-54909000D03*
D26*
X192566000Y-59669000D03*
X186216000Y-57129001D03*
X193836000Y-57129000D03*
D27*
X195106000Y-54589000D03*
D28*
X190026000Y-54589000D03*
D26*
X187486000Y-59669000D03*
D27*
X184946000Y-54589000D03*
D29*
X183026000Y-57169000D03*
X195726000Y-59709000D03*
D26*
X205215340Y-57130741D03*
X206485340Y-59670740D03*
D28*
X209025340Y-54590740D03*
D27*
X214105340Y-54590740D03*
D26*
X211565340Y-59670740D03*
D27*
X203945340Y-54590740D03*
D26*
X212835340Y-57130740D03*
D29*
X202025340Y-57170740D03*
X214725340Y-59710740D03*
D27*
X118907180Y-71239380D03*
X108747180Y-71239380D03*
D26*
X117637180Y-73779380D03*
X110017180Y-73779381D03*
X116367180Y-76319380D03*
D28*
X113827180Y-71239380D03*
D26*
X111287180Y-76319380D03*
D29*
X106827180Y-73819380D03*
X119527180Y-76359380D03*
D26*
X130286000Y-73818000D03*
X129016000Y-71278001D03*
X136636000Y-71278000D03*
D27*
X137906000Y-68738000D03*
D28*
X132826000Y-68738000D03*
D27*
X127746000Y-68738000D03*
D26*
X135366000Y-73818000D03*
D29*
X125826000Y-71318000D03*
X138526000Y-73858000D03*
D26*
X154466000Y-71300000D03*
D28*
X151926000Y-66220000D03*
D26*
X149386000Y-71300000D03*
X148116000Y-68760001D03*
D27*
X146846000Y-66220000D03*
X157006000Y-66220000D03*
D26*
X155736000Y-68760000D03*
D29*
X144926000Y-68800000D03*
X157626000Y-71340000D03*
D26*
X168387000Y-73919000D03*
X173467000Y-73919000D03*
X167117000Y-71379001D03*
D27*
X165847000Y-68839000D03*
D28*
X170927000Y-68839000D03*
D26*
X174737000Y-71379000D03*
D27*
X176007000Y-68839000D03*
D29*
X163927000Y-71419000D03*
X176627000Y-73959000D03*
D26*
X187486000Y-78719000D03*
D27*
X184946000Y-73639000D03*
D26*
X192566000Y-78719000D03*
X193836000Y-76179000D03*
X186216000Y-76179001D03*
D27*
X195106000Y-73639000D03*
D28*
X190026000Y-73639000D03*
D29*
X183026000Y-76219000D03*
X195726000Y-78759000D03*
D26*
X211565340Y-78720740D03*
X206485340Y-78720740D03*
X212835340Y-76180740D03*
D28*
X209025340Y-73640740D03*
D26*
X205215340Y-76180741D03*
D27*
X214105340Y-73640740D03*
X203945340Y-73640740D03*
D29*
X202025340Y-76220740D03*
X214725340Y-78760740D03*
D26*
X117637180Y-92829380D03*
X111287180Y-95369380D03*
X110017180Y-92829381D03*
X116367180Y-95369380D03*
D27*
X118907180Y-90289380D03*
D28*
X113827180Y-90289380D03*
D27*
X108747180Y-90289380D03*
D29*
X106827180Y-92869380D03*
X119527180Y-95409380D03*
D26*
X136636000Y-90328000D03*
D27*
X127746000Y-87788000D03*
X137906000Y-87788000D03*
D26*
X135366000Y-92868000D03*
X130286000Y-92868000D03*
D28*
X132826000Y-87788000D03*
D26*
X129016000Y-90328001D03*
D29*
X125826000Y-90368000D03*
X138526000Y-92908000D03*
D26*
X154466000Y-90350000D03*
D27*
X146846000Y-85270000D03*
D26*
X148116000Y-87810001D03*
X149386000Y-90350000D03*
X155736000Y-87810000D03*
D28*
X151926000Y-85270000D03*
D27*
X157006000Y-85270000D03*
D29*
X144926000Y-87850000D03*
X157626000Y-90390000D03*
D28*
X170927000Y-87889000D03*
D27*
X165847000Y-87889000D03*
X176007000Y-87889000D03*
D26*
X174737000Y-90429000D03*
X167117000Y-90429001D03*
X173467000Y-92969000D03*
X168387000Y-92969000D03*
D29*
X163927000Y-90469000D03*
X176627000Y-93009000D03*
D28*
X190026000Y-92689000D03*
D26*
X193836000Y-95229000D03*
X187486000Y-97769000D03*
D27*
X195106000Y-92689000D03*
D26*
X192566000Y-97769000D03*
X186216000Y-95229001D03*
D27*
X184946000Y-92689000D03*
D29*
X183026000Y-95269000D03*
X195726000Y-97809000D03*
D27*
X118907180Y-109339380D03*
D26*
X117637180Y-111879380D03*
X110017180Y-111879381D03*
D28*
X113827180Y-109339380D03*
D26*
X111287180Y-114419380D03*
D27*
X108747180Y-109339380D03*
D26*
X116367180Y-114419380D03*
D29*
X106827180Y-111919380D03*
X119527180Y-114459380D03*
D26*
X135366000Y-111918000D03*
X129016000Y-109378001D03*
X130286000Y-111918000D03*
X136636000Y-109378000D03*
D27*
X127746000Y-106838000D03*
X137906000Y-106838000D03*
D28*
X132826000Y-106838000D03*
D29*
X125826000Y-109418000D03*
X138526000Y-111958000D03*
D28*
X151926000Y-104320000D03*
D27*
X157006000Y-104320000D03*
D26*
X149386000Y-109400000D03*
X155736000Y-106860000D03*
X148116000Y-106860001D03*
X154466000Y-109400000D03*
D27*
X146846000Y-104320000D03*
D29*
X144926000Y-106900000D03*
X157626000Y-109440000D03*
D26*
X173467000Y-112019000D03*
D28*
X170927000Y-106939000D03*
D27*
X176007000Y-106939000D03*
X165847000Y-106939000D03*
D26*
X174737000Y-109479000D03*
X168387000Y-112019000D03*
X167117000Y-109479001D03*
D29*
X163927000Y-109519000D03*
X176627000Y-112059000D03*
D27*
X195106000Y-111739000D03*
X184946000Y-111739000D03*
D26*
X192566000Y-116819000D03*
D28*
X190026000Y-111739000D03*
D26*
X193836000Y-114279000D03*
X187486000Y-116819000D03*
X186216000Y-114279001D03*
D29*
X183026000Y-114319000D03*
X195726000Y-116859000D03*
D25*
X95718000Y-99434000D03*
X90718000Y-99434000D03*
X93218000Y-99434000D03*
D30*
X87618000Y-106934000D03*
X98818000Y-106934000D03*
D25*
X90718000Y-113934000D03*
X95718000Y-113934000D03*
D27*
X87468000Y-131229591D03*
D26*
X85903295Y-133599444D03*
X89713295Y-140198557D03*
X86878591Y-140368705D03*
D28*
X90008000Y-135629000D03*
D26*
X84338591Y-135969295D03*
D27*
X92548000Y-140028409D03*
G36*
X82832629Y-130360893D02*
G01*
X84564679Y-129360893D01*
X85714679Y-131352751D01*
X83982629Y-132352751D01*
X82832629Y-130360893D01*
G37*
G36*
X86982925Y-142629416D02*
G01*
X88714975Y-141629416D01*
X89864975Y-143621274D01*
X88132925Y-144621274D01*
X86982925Y-142629416D01*
G37*
D26*
X107951223Y-133993553D03*
X109835349Y-136118304D03*
D28*
X110974000Y-130554000D03*
D26*
X115311578Y-132021351D03*
D27*
X115880903Y-129239199D03*
X106067097Y-131868801D03*
D26*
X114742252Y-134803503D03*
G36*
X104028276Y-136121390D02*
G01*
X103510638Y-134189538D01*
X105732268Y-133594254D01*
X106249906Y-135526106D01*
X104028276Y-136121390D01*
G37*
G36*
X116952935Y-135287840D02*
G01*
X116435297Y-133355988D01*
X118656927Y-132760704D01*
X119174565Y-134692556D01*
X116952935Y-135287840D01*
G37*
D27*
X127746000Y-125888000D03*
D28*
X132826000Y-125888000D03*
D26*
X136636000Y-128428000D03*
X129016000Y-128428001D03*
X135366000Y-130968000D03*
X130286000Y-130968000D03*
D27*
X137906000Y-125888000D03*
D29*
X125826000Y-128468000D03*
X138526000Y-131008000D03*
D28*
X151926000Y-123370000D03*
D26*
X155736000Y-125910000D03*
D27*
X146846000Y-123370000D03*
D26*
X149386000Y-128450000D03*
X148116000Y-125910001D03*
D27*
X157006000Y-123370000D03*
D26*
X154466000Y-128450000D03*
D29*
X144926000Y-125950000D03*
X157626000Y-128490000D03*
D28*
X209025340Y-130790740D03*
D27*
X203945340Y-130790740D03*
D26*
X212835340Y-133330740D03*
D27*
X214105340Y-130790740D03*
D26*
X206485340Y-135870740D03*
X205215340Y-133330741D03*
X211565340Y-135870740D03*
D29*
X202025340Y-133370740D03*
X214725340Y-135910740D03*
D31*
X100330000Y-94742000D03*
X84836000Y-94742000D03*
D32*
X199535000Y-102230000D03*
X96520000Y-121158000D03*
X199527000Y-64116000D03*
X123313000Y-99419000D03*
X123320000Y-59286000D03*
D20*
X85414000Y-43650000D03*
X101952815Y-44845745D03*
X85414000Y-46190000D03*
X101952815Y-47385745D03*
X85414000Y-48730000D03*
X101952815Y-49925745D03*
X101952815Y-52465745D03*
X85414000Y-51270000D03*
X101952815Y-55005745D03*
X85414000Y-53810000D03*
X85414000Y-56350000D03*
X101952815Y-57545745D03*
X101952815Y-60085745D03*
X85414000Y-58890000D03*
X85414000Y-61430000D03*
X101952815Y-62625745D03*
X101952815Y-65165745D03*
X85414000Y-63970000D03*
X101952815Y-67705745D03*
X85414000Y-66510000D03*
X85414000Y-69050000D03*
X101952815Y-70245745D03*
X85414000Y-71590000D03*
X101952815Y-72785745D03*
X100654000Y-71590000D03*
X86712815Y-72785745D03*
X86712815Y-70245745D03*
X100654000Y-69050000D03*
X86712815Y-67705745D03*
X100654000Y-66510000D03*
X86712815Y-65165745D03*
X100654000Y-63970000D03*
X86712815Y-62625745D03*
X100654000Y-61430000D03*
X100654000Y-58890000D03*
X86712815Y-60085745D03*
X86712815Y-57545745D03*
X100654000Y-56350000D03*
X100654000Y-53810000D03*
X86712815Y-55005745D03*
X86712815Y-52465745D03*
X100654000Y-51270000D03*
X100654000Y-48730000D03*
X86712815Y-49925745D03*
X86712815Y-47385745D03*
X100654000Y-46190000D03*
X100654000Y-43650000D03*
X86712815Y-44845745D03*
D24*
X86360000Y-76461620D03*
X86360000Y-77462380D03*
D21*
X83034000Y-88618000D03*
X83034000Y-86868000D03*
X90034000Y-88618000D03*
X90034000Y-86868000D03*
D22*
X91834000Y-90718000D03*
X91834000Y-84768000D03*
X87834000Y-84768000D03*
X87834000Y-90718000D03*
X84834000Y-84768000D03*
X84834000Y-90718000D03*
X93334000Y-88968000D03*
X93334000Y-86518000D03*
D19*
X102616000Y-77978000D03*
D31*
X95758000Y-94742000D03*
D19*
X102616000Y-83566000D03*
X102616000Y-80772000D03*
D26*
X211565340Y-116820740D03*
X205215340Y-114280741D03*
D27*
X203945340Y-111740740D03*
X214105340Y-111740740D03*
D26*
X212835340Y-114280740D03*
D28*
X209025340Y-111740740D03*
D26*
X206485340Y-116820740D03*
D29*
X202025340Y-114320740D03*
X214725340Y-116860740D03*
D26*
X206485340Y-97770740D03*
X211565340Y-97770740D03*
D28*
X209025340Y-92690740D03*
D26*
X205215340Y-95230741D03*
D27*
X203945340Y-92690740D03*
D26*
X212835340Y-95230740D03*
D27*
X214105340Y-92690740D03*
D29*
X202025340Y-95270740D03*
X214725340Y-97810740D03*
D26*
X95758000Y-112014000D03*
D27*
X88138000Y-106934000D03*
X98298000Y-106934000D03*
D26*
X89408000Y-109474001D03*
D28*
X93218000Y-106934000D03*
D26*
X90678000Y-112014000D03*
X97028000Y-109474000D03*
D29*
X86218000Y-109514000D03*
X98918000Y-112054000D03*
D33*
X87637620Y-82296000D03*
X88638380Y-82296000D03*
X87637620Y-80010000D03*
X88638380Y-80010000D03*
D19*
X100584000Y-91186000D03*
X96520000Y-88392000D03*
X99314000Y-88392000D03*
X102108000Y-88392000D03*
X97790000Y-91186000D03*
M02*
