G04 #@! TF.GenerationSoftware,KiCad,Pcbnew,(6.0.2-0)*
G04 #@! TF.CreationDate,2022-02-19T09:10:40+00:00*
G04 #@! TF.ProjectId,SofleKeyboard,536f666c-654b-4657-9962-6f6172642e6b,rev?*
G04 #@! TF.SameCoordinates,Original*
G04 #@! TF.FileFunction,Paste,Top*
G04 #@! TF.FilePolarity,Positive*
%FSLAX46Y46*%
G04 Gerber Fmt 4.6, Leading zero omitted, Abs format (unit mm)*
G04 Created by KiCad (PCBNEW (6.0.2-0)) date 2022-02-19 09:10:40*
%MOMM*%
%LPD*%
G01*
G04 APERTURE LIST*
%ADD10R,0.950000X1.300000*%
%ADD11R,1.143000X0.635000*%
%ADD12R,2.300000X2.000000*%
%ADD13R,0.635000X1.143000*%
G04 APERTURE END LIST*
D10*
X122174000Y-45723000D03*
X122174000Y-49273000D03*
X124460000Y-45723000D03*
X124460000Y-49273000D03*
X160274000Y-43437000D03*
X160274000Y-46987000D03*
X162560000Y-43437000D03*
X162560000Y-46987000D03*
X198374000Y-51057000D03*
X198374000Y-54607000D03*
X200660000Y-51057000D03*
X200660000Y-54607000D03*
X122174000Y-64773000D03*
X122174000Y-68323000D03*
X124460000Y-64773000D03*
X124460000Y-68323000D03*
X160274000Y-62487000D03*
X160274000Y-66037000D03*
X162560000Y-62487000D03*
X162560000Y-66037000D03*
X198374000Y-70107000D03*
X198374000Y-73657000D03*
X200660000Y-70107000D03*
X200660000Y-73657000D03*
X122174000Y-83823000D03*
X122174000Y-87373000D03*
X124460000Y-83823000D03*
X124460000Y-87373000D03*
X160274000Y-81537000D03*
X160274000Y-85087000D03*
X162560000Y-81537000D03*
X162560000Y-85087000D03*
X198374000Y-89157000D03*
X198374000Y-92707000D03*
X200660000Y-89157000D03*
X200660000Y-92707000D03*
X122174000Y-102873000D03*
X122174000Y-106423000D03*
X124460000Y-102873000D03*
X124460000Y-106423000D03*
X160274000Y-100587000D03*
X160274000Y-104137000D03*
X162560000Y-100587000D03*
X162560000Y-104137000D03*
X198374000Y-108207000D03*
X198374000Y-111757000D03*
X200660000Y-108207000D03*
X200660000Y-111757000D03*
X119888000Y-120646000D03*
X119888000Y-124196000D03*
X122174000Y-120653000D03*
X122174000Y-124203000D03*
X124460000Y-120646000D03*
X124460000Y-124196000D03*
X141224000Y-117856000D03*
X141224000Y-121406000D03*
X143510000Y-117859000D03*
X143510000Y-121409000D03*
X200660000Y-127003000D03*
X200660000Y-130553000D03*
D11*
X97536000Y-75176380D03*
X97536000Y-74175620D03*
X94996000Y-75168760D03*
X94996000Y-74168000D03*
X92456000Y-75176380D03*
X92456000Y-74175620D03*
X89916000Y-75168760D03*
X89916000Y-74168000D03*
D12*
X106827180Y-54769380D03*
X125826000Y-52268000D03*
X144926000Y-49750000D03*
X163927000Y-52369000D03*
X183026000Y-57169000D03*
X202025340Y-57170740D03*
X106827180Y-73819380D03*
X125826000Y-71318000D03*
X144926000Y-68800000D03*
X163927000Y-71419000D03*
X183026000Y-76219000D03*
X202025340Y-76220740D03*
X106827180Y-92869380D03*
X125826000Y-90368000D03*
X144926000Y-87850000D03*
X163927000Y-90469000D03*
X183026000Y-95269000D03*
X106827180Y-111919380D03*
X125826000Y-109418000D03*
X144926000Y-106900000D03*
X163927000Y-109519000D03*
X183026000Y-114319000D03*
G36*
X82832629Y-130360893D02*
G01*
X84564679Y-129360893D01*
X85714679Y-131352751D01*
X83982629Y-132352751D01*
X82832629Y-130360893D01*
G37*
G36*
X104028276Y-136121390D02*
G01*
X103510638Y-134189538D01*
X105732268Y-133594254D01*
X106249906Y-135526106D01*
X104028276Y-136121390D01*
G37*
X125826000Y-128468000D03*
X144926000Y-125950000D03*
X202025340Y-133370740D03*
D11*
X86360000Y-76461620D03*
X86360000Y-77462380D03*
D12*
X202025340Y-114320740D03*
X202025340Y-95270740D03*
X86218000Y-109514000D03*
D13*
X87637620Y-82296000D03*
X88638380Y-82296000D03*
X87637620Y-80010000D03*
X88638380Y-80010000D03*
M02*
