G04 #@! TF.GenerationSoftware,KiCad,Pcbnew,(6.0.2-0)*
G04 #@! TF.CreationDate,2022-02-19T09:10:41+00:00*
G04 #@! TF.ProjectId,SofleKeyboard,536f666c-654b-4657-9962-6f6172642e6b,rev?*
G04 #@! TF.SameCoordinates,Original*
G04 #@! TF.FileFunction,Profile,NP*
%FSLAX46Y46*%
G04 Gerber Fmt 4.6, Leading zero omitted, Abs format (unit mm)*
G04 Created by KiCad (PCBNEW (6.0.2-0)) date 2022-02-19 09:10:41*
%MOMM*%
%LPD*%
G01*
G04 APERTURE LIST*
G04 #@! TA.AperFunction,Profile*
%ADD10C,0.100000*%
G04 #@! TD*
G04 APERTURE END LIST*
D10*
X131480128Y-136189000D02*
X180826000Y-136189000D01*
X199434300Y-140448820D02*
X180826000Y-136189000D01*
X75626000Y-130589000D02*
X75476000Y-130089000D01*
X75476000Y-130089000D02*
X75426000Y-129489000D01*
X75426000Y-129489000D02*
X75426000Y-129089000D01*
X75426000Y-129089000D02*
X75526000Y-128589000D01*
X81601257Y-116589000D02*
X81526000Y-117239000D01*
X81526000Y-117239000D02*
X81326000Y-117839000D01*
X85876000Y-148389000D02*
X86226000Y-148689000D01*
X86226000Y-148689000D02*
X86676000Y-148839000D01*
X86676000Y-148839000D02*
X87112000Y-148905000D01*
X75526000Y-128589000D02*
X81326000Y-117839000D01*
X81937259Y-39851831D02*
X82107752Y-39711160D01*
X81690377Y-40218014D02*
X81796590Y-40022327D01*
X218609881Y-46186807D02*
X218696281Y-46367672D01*
X217801441Y-45634146D02*
X218003111Y-45685776D01*
X81796590Y-40022327D02*
X81937259Y-39851831D01*
X218003111Y-45685776D02*
X218187871Y-45770466D01*
X218750381Y-46563571D02*
X218769181Y-46770902D01*
X85876000Y-148389000D02*
X75626000Y-130589000D01*
X217940741Y-140448819D02*
X199434300Y-140448820D01*
X217940741Y-140448819D02*
G75*
G03*
X218768802Y-139625974I6720J821315D01*
G01*
X218769181Y-46770902D02*
X218768802Y-139625974D01*
X81623257Y-40434261D02*
X81690377Y-40218014D01*
X164276000Y-37189000D02*
X217801441Y-45634146D01*
X81599857Y-40666435D02*
X81623257Y-40434261D01*
X218696281Y-46367672D02*
X218750381Y-46563571D01*
X82107752Y-39711160D02*
X82303436Y-39604945D01*
X218187871Y-45770466D02*
X218352621Y-45884600D01*
X218494321Y-46024582D02*
X218609881Y-46186807D01*
X81601257Y-116589000D02*
X81599857Y-40666435D01*
X131480128Y-136189000D02*
X87548720Y-148854160D01*
X82519680Y-39537815D02*
X82751853Y-39514405D01*
X82303436Y-39604945D02*
X82519680Y-39537815D01*
X142326000Y-37189000D02*
X164276000Y-37189000D01*
X218352621Y-45884600D02*
X218494321Y-46024582D01*
X142326000Y-37189000D02*
X82751853Y-39514405D01*
X87112000Y-148905000D02*
X87548720Y-148854160D01*
M02*
