M48
; DRILL file {KiCad (6.0.2-0)} date Saturday, February 19, 2022 at 09:10:48 AM
; FORMAT={-:-/ absolute / metric / decimal}
; #@! TF.CreationDate,2022-02-19T09:10:48+00:00
; #@! TF.GenerationSoftware,Kicad,Pcbnew,(6.0.2-0)
; #@! TF.FileFunction,NonPlated,1,2,NPTH
FMAT,2
METRIC
; #@! TA.AperFunction,NonPlated,NPTH,ComponentDrill
T1C1.200
; #@! TA.AperFunction,NonPlated,NPTH,ComponentDrill
T2C1.500
; #@! TA.AperFunction,NonPlated,NPTH,ComponentDrill
T3C1.800
; #@! TA.AperFunction,NonPlated,NPTH,ComponentDrill
T4C3.000
; #@! TA.AperFunction,NonPlated,NPTH,ComponentDrill
T5C4.100
%
G90
G05
T1
X83.034Y-86.868
X83.034Y-88.618
X90.034Y-86.868
X90.034Y-88.618
T3
X87.468Y-131.23
X88.138Y-106.934
X92.548Y-140.028
X98.298Y-106.934
X106.067Y-131.869
X108.747Y-52.189
X108.747Y-71.239
X108.747Y-90.289
X108.747Y-109.339
X115.881Y-129.239
X118.907Y-52.189
X118.907Y-71.239
X118.907Y-90.289
X118.907Y-109.339
X127.746Y-49.688
X127.746Y-68.738
X127.746Y-87.788
X127.746Y-106.838
X127.746Y-125.888
X137.906Y-49.688
X137.906Y-68.738
X137.906Y-87.788
X137.906Y-106.838
X137.906Y-125.888
X146.846Y-47.17
X146.846Y-66.22
X146.846Y-85.27
X146.846Y-104.32
X146.846Y-123.37
X157.006Y-47.17
X157.006Y-66.22
X157.006Y-85.27
X157.006Y-104.32
X157.006Y-123.37
X165.847Y-49.789
X165.847Y-68.839
X165.847Y-87.889
X165.847Y-106.939
X176.007Y-49.789
X176.007Y-68.839
X176.007Y-87.889
X176.007Y-106.939
X184.946Y-54.589
X184.946Y-73.639
X184.946Y-92.689
X184.946Y-111.739
X195.106Y-54.589
X195.106Y-73.639
X195.106Y-92.689
X195.106Y-111.739
X203.945Y-54.591
X203.945Y-73.641
X203.945Y-92.691
X203.945Y-111.741
X203.945Y-130.791
X214.105Y-54.591
X214.105Y-73.641
X214.105Y-92.691
X214.105Y-111.741
X214.105Y-130.791
T4
X84.339Y-135.969
X85.903Y-133.599
X86.879Y-140.369
X89.408Y-109.474
X89.713Y-140.199
X90.678Y-112.014
X95.758Y-112.014
X97.028Y-109.474
X107.951Y-133.994
X109.835Y-136.118
X110.017Y-54.729
X110.017Y-73.779
X110.017Y-92.829
X110.017Y-111.879
X111.287Y-57.269
X111.287Y-76.319
X111.287Y-95.369
X111.287Y-114.419
X114.742Y-134.804
X115.312Y-132.021
X116.367Y-57.269
X116.367Y-76.319
X116.367Y-95.369
X116.367Y-114.419
X117.637Y-54.729
X117.637Y-73.779
X117.637Y-92.829
X117.637Y-111.879
X129.016Y-52.228
X129.016Y-71.278
X129.016Y-90.328
X129.016Y-109.378
X129.016Y-128.428
X130.286Y-54.768
X130.286Y-73.818
X130.286Y-92.868
X130.286Y-111.918
X130.286Y-130.968
X135.366Y-54.768
X135.366Y-73.818
X135.366Y-92.868
X135.366Y-111.918
X135.366Y-130.968
X136.636Y-52.228
X136.636Y-71.278
X136.636Y-90.328
X136.636Y-109.378
X136.636Y-128.428
X148.116Y-49.71
X148.116Y-68.76
X148.116Y-87.81
X148.116Y-106.86
X148.116Y-125.91
X149.386Y-52.25
X149.386Y-71.3
X149.386Y-90.35
X149.386Y-109.4
X149.386Y-128.45
X154.466Y-52.25
X154.466Y-71.3
X154.466Y-90.35
X154.466Y-109.4
X154.466Y-128.45
X155.736Y-49.71
X155.736Y-68.76
X155.736Y-87.81
X155.736Y-106.86
X155.736Y-125.91
X167.117Y-52.329
X167.117Y-71.379
X167.117Y-90.429
X167.117Y-109.479
X168.387Y-54.869
X168.387Y-73.919
X168.387Y-92.969
X168.387Y-112.019
X173.467Y-54.869
X173.467Y-73.919
X173.467Y-92.969
X173.467Y-112.019
X174.737Y-52.329
X174.737Y-71.379
X174.737Y-90.429
X174.737Y-109.479
X186.216Y-57.129
X186.216Y-76.179
X186.216Y-95.229
X186.216Y-114.279
X187.486Y-59.669
X187.486Y-78.719
X187.486Y-97.769
X187.486Y-116.819
X192.566Y-59.669
X192.566Y-78.719
X192.566Y-97.769
X192.566Y-116.819
X193.836Y-57.129
X193.836Y-76.179
X193.836Y-95.229
X193.836Y-114.279
X205.215Y-57.131
X205.215Y-76.181
X205.215Y-95.231
X205.215Y-114.281
X205.215Y-133.331
X206.485Y-59.671
X206.485Y-78.721
X206.485Y-97.771
X206.485Y-116.821
X206.485Y-135.871
X211.565Y-59.671
X211.565Y-78.721
X211.565Y-97.771
X211.565Y-116.821
X211.565Y-135.871
X212.835Y-57.131
X212.835Y-76.181
X212.835Y-95.231
X212.835Y-114.281
X212.835Y-133.331
T5
X90.008Y-135.629
X93.218Y-106.934
X110.974Y-130.554
X113.827Y-52.189
X113.827Y-71.239
X113.827Y-90.289
X113.827Y-109.339
X132.826Y-49.688
X132.826Y-68.738
X132.826Y-87.788
X132.826Y-106.838
X132.826Y-125.888
X151.926Y-47.17
X151.926Y-66.22
X151.926Y-85.27
X151.926Y-104.32
X151.926Y-123.37
X170.927Y-49.789
X170.927Y-68.839
X170.927Y-87.889
X170.927Y-106.939
X190.026Y-54.589
X190.026Y-73.639
X190.026Y-92.689
X190.026Y-111.739
X209.025Y-54.591
X209.025Y-73.641
X209.025Y-92.691
X209.025Y-111.741
X209.025Y-130.791
T2
X87.618Y-106.284G85X87.618Y-107.584
G05
X98.818Y-106.284G85X98.818Y-107.584
G05
T0
M30
