<?xml version="1.0" standalone="no"?>
 <!DOCTYPE svg PUBLIC "-//W3C//DTD SVG 1.1//EN" 
 "http://www.w3.org/Graphics/SVG/1.1/DTD/svg11.dtd"> 
<svg
  xmlns:svg="http://www.w3.org/2000/svg"
  xmlns="http://www.w3.org/2000/svg"
  xmlns:xlink="http://www.w3.org/1999/xlink"
  version="1.1"
  width="14.503400cm" height="11.333480cm" viewBox="0 0 57100 44620">
<title>SVG Picture created as SofleKeyboardBottomPlate-brd.svg date 2022/01/01 15:16:06 </title>
  <desc>Picture generated by PCBNEW </desc>
<g style="fill:#000000; fill-opacity:1;stroke:#000000; stroke-opacity:1;
stroke-linecap:round; stroke-linejoin:round;"
 transform="translate(0 0) scale(1 1)">
</g>
<g style="fill:#000000; fill-opacity:0.0; 
stroke:#000000; stroke-width:-0.000393701; stroke-opacity:1; 
stroke-linecap:round; stroke-linejoin:round;">
<g >
</g>
<g >
</g>
<g >
</g>
<g >
</g>
<g >
</g>
<g style="fill:#000000; fill-opacity:0.0; 
stroke:#000000; stroke-width:-0.000393701; stroke-opacity:1; 
stroke-linecap:round; stroke-linejoin:round;">
</g>
<g style="fill:#000000; fill-opacity:0.0; 
stroke:#000000; stroke-width:39.3701; stroke-opacity:1; 
stroke-linecap:round; stroke-linejoin:round;">
<circle cx="49232.3" cy="25866.1" r="905.512" /> 
</g>
<g >
</g>
<g style="fill:#000000; fill-opacity:0.0; 
stroke:#000000; stroke-width:39.3701; stroke-opacity:1; 
stroke-linecap:round; stroke-linejoin:round;">
<circle cx="8681.1" cy="33346.5" r="905.512" /> 
</g>
<g >
</g>
<g style="fill:#000000; fill-opacity:0.0; 
stroke:#000000; stroke-width:39.3701; stroke-opacity:1; 
stroke-linecap:round; stroke-linejoin:round;">
<circle cx="19311" cy="24881.9" r="905.512" /> 
</g>
<g >
</g>
<g style="fill:#000000; fill-opacity:0.0; 
stroke:#000000; stroke-width:39.3701; stroke-opacity:1; 
stroke-linecap:round; stroke-linejoin:round;">
<circle cx="19311" cy="8937.01" r="905.512" /> 
</g>
<g >
</g>
<g style="fill:#000000; fill-opacity:0.0; 
stroke:#000000; stroke-width:39.3701; stroke-opacity:1; 
stroke-linecap:round; stroke-linejoin:round;">
<circle cx="49232.3" cy="10708.7" r="905.512" /> 
</g>
<g >
</g>
</g>
<g style="fill:#000000; fill-opacity:0.0; 
stroke:#000000; stroke-width:39.3701; stroke-opacity:1; 
stroke-linecap:round; stroke-linejoin:round;">
<path d="M56660 40928
L49274 40928
" />
<path d="M56660.5 40928.3 A224.009 224.009 0.0 0 0 56886.5 40704.3" />
<path d="M56887 4047
L56886 40704
" />
<path d="M49274 40928
L41947 39251
" />
<path d="M22521 39251
L41947 39251
" />
<path d="M56658 3654
L56723 3699
" />
<path d="M2883 31535
L2883 1644
" />
<path d="M56778 3754
L56824 3818
" />
<path d="M26791 275
L35433 275
" />
<path d="M3160 1226
L3245 1200
" />
<path d="M56723 3699
L56778 3754
" />
<path d="M3245 1200
L3336 1191
" />
<path d="M22521 39251
L5098 44271
" />
<path d="M3016 1323
L3083 1268
" />
<path d="M452 36456
L492 36259
" />
<path d="M2960 1391
L3016 1323
" />
<path d="M531 37047
L472 36850
" />
<path d="M26791 275
L3336 1191
" />
<path d="M56858 3889
L56879 3966
" />
<path d="M3083 1268
L3160 1226
" />
<path d="M2919 1468
L2960 1391
" />
<path d="M492 36259
L2775 32027
" />
<path d="M56879 3966
L56887 4047
" />
<path d="M56506 3600
L56585 3620
" />
<path d="M4566 44055
L4704 44173
" />
<path d="M452 36614
L452 36456
" />
<path d="M2854 31791
L2775 32027
" />
<path d="M2883 1644
L2892 1553
" />
<path d="M2892 1553
L2919 1468
" />
<path d="M56585 3620
L56658 3654
" />
<path d="M4704 44173
L4881 44232
" />
<path d="M472 36850
L452 36614
" />
<path d="M4881 44232
L5098 44271
" />
<path d="M2883 31535
L2854 31791
" />
<path d="M35433 275
L56506 3600
" />
<path d="M4566 44055
L531 37047
" />
<path d="M56824 3818
L56858 3889
" />
<g >
</g>
<g >
</g>
<g >
</g>
<g >
</g>
<g >
</g>
<g >
</g>
<g >
</g>
<g >
</g>
<g >
</g>
<g >
</g>
</g> 
</svg>
