G04 #@! TF.GenerationSoftware,KiCad,Pcbnew,(5.1.12-1-10_14)*
G04 #@! TF.CreationDate,2021-12-27T15:41:04+00:00*
G04 #@! TF.ProjectId,SofleKeyboard,536f666c-654b-4657-9962-6f6172642e6b,rev?*
G04 #@! TF.SameCoordinates,Original*
G04 #@! TF.FileFunction,Legend,Top*
G04 #@! TF.FilePolarity,Positive*
%FSLAX46Y46*%
G04 Gerber Fmt 4.6, Leading zero omitted, Abs format (unit mm)*
G04 Created by KiCad (PCBNEW (5.1.12-1-10_14)) date 2021-12-27 15:41:04*
%MOMM*%
%LPD*%
G01*
G04 APERTURE LIST*
%ADD10C,0.200000*%
%ADD11C,0.150000*%
%ADD12C,0.120000*%
%ADD13C,0.100000*%
%ADD14C,3.000000*%
%ADD15C,1.700000*%
%ADD16C,1.900000*%
%ADD17C,4.000000*%
%ADD18R,2.000000X2.000000*%
%ADD19R,1.800000X2.000000*%
%ADD20C,1.397000*%
%ADD21R,1.800000X1.500000*%
%ADD22R,1.143000X0.635000*%
%ADD23C,2.000000*%
%ADD24C,4.700000*%
%ADD25R,3.200000X2.000000*%
%ADD26R,1.524000X1.524000*%
%ADD27C,1.200000*%
%ADD28O,2.500000X1.700000*%
%ADD29C,1.524000*%
G04 APERTURE END LIST*
D10*
X190509749Y-40068493D02*
X190656763Y-40144811D01*
X190915443Y-40185782D01*
X191027110Y-40150434D01*
X191087040Y-40106893D01*
X191155164Y-40011615D01*
X191171553Y-39908142D01*
X191136205Y-39796476D01*
X191092663Y-39736546D01*
X190997385Y-39668422D01*
X190798635Y-39583909D01*
X190703357Y-39515784D01*
X190659815Y-39455854D01*
X190624468Y-39344188D01*
X190640856Y-39240716D01*
X190708981Y-39145438D01*
X190768911Y-39101896D01*
X190880577Y-39066548D01*
X191139257Y-39107519D01*
X191286271Y-39183838D01*
X191743220Y-40316889D02*
X191647942Y-40248765D01*
X191604401Y-40188834D01*
X191569053Y-40077168D01*
X191618218Y-39766752D01*
X191686342Y-39671474D01*
X191746273Y-39627932D01*
X191857939Y-39592584D01*
X192013147Y-39617167D01*
X192108425Y-39685291D01*
X192151967Y-39745222D01*
X192187315Y-39856888D01*
X192138149Y-40167304D01*
X192070025Y-40262582D01*
X192010095Y-40306124D01*
X191898428Y-40341472D01*
X191743220Y-40316889D01*
X193151340Y-39797439D02*
X193036622Y-40521744D01*
X192685716Y-39723691D02*
X192595580Y-40292788D01*
X192630927Y-40404454D01*
X192726205Y-40472579D01*
X192881414Y-40497161D01*
X192993080Y-40461813D01*
X193053010Y-40418272D01*
X193513493Y-39854798D02*
X193927381Y-39920352D01*
X193553982Y-40603686D02*
X193701478Y-39672437D01*
X193769602Y-39577159D01*
X193881268Y-39541811D01*
X193984740Y-39558199D01*
X194134325Y-39953128D02*
X194548214Y-40018682D01*
X194174815Y-40702016D02*
X194322310Y-39770767D01*
X194390435Y-39675489D01*
X194502101Y-39640141D01*
X194605573Y-39656530D01*
X194950856Y-40824929D02*
X194855578Y-40756804D01*
X194820230Y-40645138D01*
X194967726Y-39713889D01*
X195786827Y-40904300D02*
X195675161Y-40939647D01*
X195468216Y-40906870D01*
X195372938Y-40838746D01*
X195337591Y-40727080D01*
X195403144Y-40313191D01*
X195471269Y-40217913D01*
X195582935Y-40182566D01*
X195789879Y-40215342D01*
X195885157Y-40283467D01*
X195920505Y-40395133D01*
X195904116Y-40498605D01*
X195370367Y-40520136D01*
X195855433Y-39801454D02*
X195675642Y-39932080D01*
X197123770Y-41169084D02*
X197295848Y-40082627D01*
X197744603Y-41267415D02*
X197377309Y-40572834D01*
X197916681Y-40180958D02*
X197197518Y-40703460D01*
X198632310Y-41354980D02*
X198520644Y-41390327D01*
X198313699Y-41357551D01*
X198218422Y-41289426D01*
X198183074Y-41177760D01*
X198248627Y-40763872D01*
X198316752Y-40668594D01*
X198428418Y-40633246D01*
X198635362Y-40666023D01*
X198730640Y-40734147D01*
X198765988Y-40845813D01*
X198749599Y-40949286D01*
X198215851Y-40970816D01*
X199152723Y-40747965D02*
X199296684Y-41513240D01*
X199670083Y-40829906D02*
X199296684Y-41513240D01*
X199152241Y-41755532D01*
X199092311Y-41799074D01*
X198980645Y-41834422D01*
X199969253Y-41619765D02*
X200141331Y-40533308D01*
X200075778Y-40947196D02*
X200187444Y-40911848D01*
X200394388Y-40944625D01*
X200489666Y-41012749D01*
X200533208Y-41072680D01*
X200568556Y-41184346D01*
X200519391Y-41494762D01*
X200451266Y-41590040D01*
X200391336Y-41633582D01*
X200279670Y-41668930D01*
X200072725Y-41636153D01*
X199977447Y-41568029D01*
X201107446Y-41800037D02*
X201012169Y-41731912D01*
X200968627Y-41671982D01*
X200933279Y-41560316D01*
X200982444Y-41249899D01*
X201050569Y-41154622D01*
X201110499Y-41111080D01*
X201222165Y-41075732D01*
X201377373Y-41100315D01*
X201472651Y-41168439D01*
X201516193Y-41228369D01*
X201551541Y-41340036D01*
X201502376Y-41650452D01*
X201434251Y-41745730D01*
X201374321Y-41789272D01*
X201262655Y-41824619D01*
X201107446Y-41800037D01*
X202400848Y-42004891D02*
X202490984Y-41435795D01*
X202455636Y-41324129D01*
X202360358Y-41256004D01*
X202153414Y-41223227D01*
X202041748Y-41258575D01*
X202409042Y-41953155D02*
X202297376Y-41988503D01*
X202038695Y-41947532D01*
X201943418Y-41879408D01*
X201908070Y-41767741D01*
X201924458Y-41664269D01*
X201992583Y-41568991D01*
X202104249Y-41533644D01*
X202362929Y-41574615D01*
X202474596Y-41539267D01*
X202918208Y-42086833D02*
X203032927Y-41362529D01*
X203000150Y-41569473D02*
X203068275Y-41474195D01*
X203128205Y-41430653D01*
X203239871Y-41395305D01*
X203343343Y-41411694D01*
X204056402Y-42267105D02*
X204228480Y-41180648D01*
X204064596Y-42215369D02*
X203952930Y-42250717D01*
X203745985Y-42217940D01*
X203650707Y-42149816D01*
X203607166Y-42089886D01*
X203571818Y-41978219D01*
X203620983Y-41667803D01*
X203689107Y-41572525D01*
X203749038Y-41528983D01*
X203860704Y-41493635D01*
X204067648Y-41526412D01*
X204162926Y-41594537D01*
X205412786Y-41739461D02*
X205556747Y-42504737D01*
X205930146Y-41821403D01*
X206608338Y-41557581D02*
X206711810Y-41573969D01*
X206807088Y-41642094D01*
X206850630Y-41702024D01*
X206885978Y-41813690D01*
X206904937Y-42028829D01*
X206863966Y-42287509D01*
X206779453Y-42486259D01*
X206711329Y-42581537D01*
X206651399Y-42625079D01*
X206539732Y-42660426D01*
X206436260Y-42644038D01*
X206340982Y-42575914D01*
X206297440Y-42515983D01*
X206262093Y-42404317D01*
X206243133Y-42189179D01*
X206284104Y-41930498D01*
X206368617Y-41731748D01*
X206436742Y-41636470D01*
X206496672Y-41592928D01*
X206608338Y-41557581D01*
X207280425Y-42671673D02*
X207323967Y-42731603D01*
X207264037Y-42775145D01*
X207220495Y-42715215D01*
X207280425Y-42671673D01*
X207264037Y-42775145D01*
X208350494Y-42947223D02*
X207729662Y-42848893D01*
X208040078Y-42898058D02*
X208212156Y-41811601D01*
X208084101Y-41950420D01*
X207964241Y-42037504D01*
X207852574Y-42072852D01*
X209643896Y-43152078D02*
X209815974Y-42065620D01*
X209750420Y-42479509D02*
X209862086Y-42444161D01*
X210069031Y-42476938D01*
X210164309Y-42545062D01*
X210207850Y-42604993D01*
X210243198Y-42716659D01*
X210194033Y-43027075D01*
X210125909Y-43122353D01*
X210065978Y-43165895D01*
X209954312Y-43201243D01*
X209747368Y-43168466D01*
X209652090Y-43100341D01*
X210638127Y-42567074D02*
X210782089Y-43332350D01*
X211155488Y-42649016D02*
X210782089Y-43332350D01*
X210637646Y-43574642D01*
X210577716Y-43618183D01*
X210466049Y-43653531D01*
X212764929Y-42532689D02*
X212642016Y-43308730D01*
X212565697Y-43455744D01*
X212445837Y-43542828D01*
X212282435Y-43569981D01*
X212178962Y-43553593D01*
X214575209Y-43827053D02*
X214515279Y-43870595D01*
X214351877Y-43897748D01*
X214248405Y-43881360D01*
X214101391Y-43805041D01*
X214014307Y-43685181D01*
X213978959Y-43573515D01*
X213960000Y-43358376D01*
X213984583Y-43203168D01*
X214069095Y-43004418D01*
X214137220Y-42909140D01*
X214257080Y-42822056D01*
X214420483Y-42794903D01*
X214523955Y-42811291D01*
X214670969Y-42887610D01*
X214714511Y-42947540D01*
X215179654Y-44028855D02*
X215084376Y-43960731D01*
X215049028Y-43849065D01*
X215196523Y-42917816D01*
X215593542Y-44094409D02*
X215708261Y-43370104D01*
X215765620Y-43007952D02*
X215705690Y-43051494D01*
X215749232Y-43111424D01*
X215809162Y-43067882D01*
X215765620Y-43007952D01*
X215749232Y-43111424D01*
X216110903Y-44176351D02*
X216225621Y-43452046D01*
X216209233Y-43555518D02*
X216269163Y-43511976D01*
X216380829Y-43476629D01*
X216536038Y-43501211D01*
X216631316Y-43569336D01*
X216666663Y-43681002D01*
X216576527Y-44250098D01*
X216666663Y-43681002D02*
X216734788Y-43585724D01*
X216846454Y-43550376D01*
X217001662Y-43574959D01*
X217096940Y-43643083D01*
X217132288Y-43754750D01*
X217042152Y-44323846D01*
X217981595Y-44419605D02*
X217869929Y-44454953D01*
X217662984Y-44422176D01*
X217567706Y-44354052D01*
X217532359Y-44242386D01*
X217597912Y-43828497D01*
X217666037Y-43733219D01*
X217777703Y-43697872D01*
X217984647Y-43730648D01*
X218079925Y-43798773D01*
X218115273Y-43910439D01*
X218098884Y-44013911D01*
X217565135Y-44035441D01*
X218605480Y-43828979D02*
X218490761Y-44553283D01*
X218589091Y-43932451D02*
X218649022Y-43888909D01*
X218760688Y-43853561D01*
X218915896Y-43878144D01*
X219011174Y-43946268D01*
X219046522Y-44057934D01*
X218956386Y-44627031D01*
X219433257Y-43960086D02*
X219847145Y-44025639D01*
X219645824Y-43622516D02*
X219498329Y-44553765D01*
X219533677Y-44665431D01*
X219628954Y-44733555D01*
X219732427Y-44749944D01*
D11*
X198980000Y-117000000D02*
X198980000Y-117700000D01*
X203975000Y-110900000D02*
X204000000Y-115499999D01*
X194400001Y-113100000D02*
X194400001Y-117700000D01*
X200200000Y-115525000D02*
X203975000Y-115525000D01*
X199275000Y-110875000D02*
X203975000Y-110875000D01*
X194425000Y-113075000D02*
X196975000Y-113075000D01*
X194425000Y-117725000D02*
X198975000Y-117725000D01*
X191900000Y-106650000D02*
X196950000Y-106696000D01*
X191900000Y-106604000D02*
X191900000Y-102696000D01*
X191900000Y-102696000D02*
X200525000Y-102696000D01*
X202800000Y-104650000D02*
X202800000Y-108595000D01*
X202800000Y-108604000D02*
X199190000Y-108604000D01*
X198979999Y-116949999D02*
G75*
G02*
X200200000Y-115530000I1320000J99999D01*
G01*
X199270000Y-110900000D02*
G75*
G02*
X196900000Y-113070000I-2270000J100000D01*
G01*
X199185001Y-108579999D02*
G75*
G03*
X196925000Y-106700000I-2070000J-190001D01*
G01*
X202789000Y-104580000D02*
G75*
G03*
X200525000Y-102696000I-2074000J-190000D01*
G01*
X95430000Y-75870000D02*
X95430000Y-73330000D01*
X105590000Y-73330000D02*
X105590000Y-75870000D01*
X95430000Y-73330000D02*
X105590000Y-73330000D01*
X95430000Y-75870000D02*
X105590000Y-75870000D01*
X161500000Y-115100000D02*
X161500000Y-116500000D01*
X161500000Y-115800000D02*
X162400000Y-115100000D01*
X162400000Y-116500000D02*
X161500000Y-115800000D01*
X162400000Y-115100000D02*
X162400000Y-116500000D01*
X142400000Y-115100000D02*
X142400000Y-116500000D01*
X142400000Y-115800000D02*
X143300000Y-115100000D01*
X143300000Y-116500000D02*
X142400000Y-115800000D01*
X143300000Y-115100000D02*
X143300000Y-116500000D01*
X123400000Y-117300000D02*
X123400000Y-118700000D01*
X123400000Y-118000000D02*
X124300000Y-117300000D01*
X124300000Y-118700000D02*
X123400000Y-118000000D01*
X124300000Y-117300000D02*
X124300000Y-118700000D01*
X110156218Y-118516987D02*
X108943782Y-119216987D01*
X109550000Y-118866987D02*
X110606218Y-119296410D01*
X109393782Y-119996410D02*
X109550000Y-118866987D01*
X110606218Y-119296410D02*
X109393782Y-119996410D01*
X106500000Y-96300000D02*
X106500000Y-97700000D01*
X106500000Y-97000000D02*
X107400000Y-96300000D01*
X107400000Y-97700000D02*
X106500000Y-97000000D01*
X107400000Y-96300000D02*
X107400000Y-97700000D01*
X221400000Y-102400000D02*
X221400000Y-103800000D01*
X221400000Y-103100000D02*
X222300000Y-102400000D01*
X222300000Y-103800000D02*
X221400000Y-103100000D01*
X222300000Y-102400000D02*
X222300000Y-103800000D01*
X190100000Y-100800000D02*
X190100000Y-102200000D01*
X190100000Y-101500000D02*
X191000000Y-100800000D01*
X191000000Y-102200000D02*
X190100000Y-101500000D01*
X191000000Y-100800000D02*
X191000000Y-102200000D01*
X171000000Y-96100000D02*
X171000000Y-97500000D01*
X171000000Y-96800000D02*
X171900000Y-96100000D01*
X171900000Y-97500000D02*
X171000000Y-96800000D01*
X171900000Y-96100000D02*
X171900000Y-97500000D01*
X152000000Y-94700000D02*
X152000000Y-96100000D01*
X152000000Y-95400000D02*
X152900000Y-94700000D01*
X152900000Y-96100000D02*
X152000000Y-95400000D01*
X152900000Y-94700000D02*
X152900000Y-96100000D01*
X134800000Y-96100000D02*
X134800000Y-97500000D01*
X134800000Y-96800000D02*
X135700000Y-96100000D01*
X135700000Y-97500000D02*
X134800000Y-96800000D01*
X135700000Y-96100000D02*
X135700000Y-97500000D01*
X113900000Y-98400000D02*
X113900000Y-99800000D01*
X113900000Y-99100000D02*
X114800000Y-98400000D01*
X114800000Y-99800000D02*
X113900000Y-99100000D01*
X114800000Y-98400000D02*
X114800000Y-99800000D01*
X221300000Y-99200000D02*
X221300000Y-100600000D01*
X221300000Y-99900000D02*
X222200000Y-99200000D01*
X222200000Y-100600000D02*
X221300000Y-99900000D01*
X222200000Y-99200000D02*
X222200000Y-100600000D01*
X190100000Y-97600000D02*
X190100000Y-99000000D01*
X190100000Y-98300000D02*
X191000000Y-97600000D01*
X191000000Y-99000000D02*
X190100000Y-98300000D01*
X191000000Y-97600000D02*
X191000000Y-99000000D01*
X171000000Y-92900000D02*
X171000000Y-94300000D01*
X171000000Y-93600000D02*
X171900000Y-92900000D01*
X171900000Y-94300000D02*
X171000000Y-93600000D01*
X171900000Y-92900000D02*
X171900000Y-94300000D01*
X152000000Y-91600000D02*
X152000000Y-93000000D01*
X152000000Y-92300000D02*
X152900000Y-91600000D01*
X152900000Y-93000000D02*
X152000000Y-92300000D01*
X152900000Y-91600000D02*
X152900000Y-93000000D01*
X133800000Y-93100000D02*
X133800000Y-94500000D01*
X133800000Y-93800000D02*
X134700000Y-93100000D01*
X134700000Y-94500000D02*
X133800000Y-93800000D01*
X134700000Y-93100000D02*
X134700000Y-94500000D01*
X113900000Y-95300000D02*
X113900000Y-96700000D01*
X113900000Y-96000000D02*
X114800000Y-95300000D01*
X114800000Y-96700000D02*
X113900000Y-96000000D01*
X114800000Y-95300000D02*
X114800000Y-96700000D01*
X221300000Y-64200000D02*
X221300000Y-65600000D01*
X221300000Y-64900000D02*
X222200000Y-64200000D01*
X222200000Y-65600000D02*
X221300000Y-64900000D01*
X222200000Y-64200000D02*
X222200000Y-65600000D01*
X190100000Y-62600000D02*
X190100000Y-64000000D01*
X190100000Y-63300000D02*
X191000000Y-62600000D01*
X191000000Y-64000000D02*
X190100000Y-63300000D01*
X191000000Y-62600000D02*
X191000000Y-64000000D01*
X171000000Y-58000000D02*
X171000000Y-59400000D01*
X171000000Y-58700000D02*
X171900000Y-58000000D01*
X171900000Y-59400000D02*
X171000000Y-58700000D01*
X171900000Y-58000000D02*
X171900000Y-59400000D01*
X152100000Y-56700000D02*
X152100000Y-58100000D01*
X152100000Y-57400000D02*
X153000000Y-56700000D01*
X153000000Y-58100000D02*
X152100000Y-57400000D01*
X153000000Y-56700000D02*
X153000000Y-58100000D01*
X134800000Y-58000000D02*
X134800000Y-59400000D01*
X134800000Y-58700000D02*
X135700000Y-58000000D01*
X135700000Y-59400000D02*
X134800000Y-58700000D01*
X135700000Y-58000000D02*
X135700000Y-59400000D01*
X113900000Y-60400000D02*
X113900000Y-61800000D01*
X113900000Y-61100000D02*
X114800000Y-60400000D01*
X114800000Y-61800000D02*
X113900000Y-61100000D01*
X114800000Y-60400000D02*
X114800000Y-61800000D01*
X221300000Y-61100000D02*
X221300000Y-62500000D01*
X221300000Y-61800000D02*
X222200000Y-61100000D01*
X222200000Y-62500000D02*
X221300000Y-61800000D01*
X222200000Y-61100000D02*
X222200000Y-62500000D01*
X190100000Y-59700000D02*
X190100000Y-61100000D01*
X190100000Y-60400000D02*
X191000000Y-59700000D01*
X191000000Y-61100000D02*
X190100000Y-60400000D01*
X191000000Y-59700000D02*
X191000000Y-61100000D01*
X171000000Y-54900000D02*
X171000000Y-56300000D01*
X171000000Y-55600000D02*
X171900000Y-54900000D01*
X171900000Y-56300000D02*
X171000000Y-55600000D01*
X171900000Y-54900000D02*
X171900000Y-56300000D01*
X152000000Y-53500000D02*
X152000000Y-54900000D01*
X152000000Y-54200000D02*
X152900000Y-53500000D01*
X152900000Y-54900000D02*
X152000000Y-54200000D01*
X152900000Y-53500000D02*
X152900000Y-54900000D01*
X133800000Y-55000000D02*
X133800000Y-56400000D01*
X133800000Y-55700000D02*
X134700000Y-55000000D01*
X134700000Y-56400000D02*
X133800000Y-55700000D01*
X134700000Y-55000000D02*
X134700000Y-56400000D01*
X113900000Y-57300000D02*
X113900000Y-58700000D01*
X113900000Y-58000000D02*
X114800000Y-57300000D01*
X114800000Y-58700000D02*
X113900000Y-58000000D01*
X114800000Y-57300000D02*
X114800000Y-58700000D01*
X94889000Y-73857000D02*
X94889000Y-76143000D01*
X94889000Y-76143000D02*
X93111000Y-76143000D01*
X93111000Y-76143000D02*
X93111000Y-73857000D01*
X93111000Y-73857000D02*
X94889000Y-73857000D01*
X91800000Y-74500000D02*
X91100000Y-74500000D01*
X88300000Y-74500000D02*
X88900000Y-74500000D01*
X88300000Y-80500000D02*
X88900000Y-80500000D01*
X91800000Y-80500000D02*
X91100000Y-80500000D01*
X88300000Y-74500000D02*
X88300000Y-80500000D01*
X91800000Y-80500000D02*
X91800000Y-74500000D01*
X97589000Y-70443000D02*
X95811000Y-70443000D01*
X97589000Y-68157000D02*
X97589000Y-70443000D01*
X95811000Y-68157000D02*
X97589000Y-68157000D01*
X95811000Y-70443000D02*
X95811000Y-68157000D01*
X100089000Y-70443000D02*
X98311000Y-70443000D01*
X100089000Y-68157000D02*
X100089000Y-70443000D01*
X98311000Y-68157000D02*
X100089000Y-68157000D01*
X98311000Y-70443000D02*
X98311000Y-68157000D01*
X102589000Y-70443000D02*
X100811000Y-70443000D01*
X102589000Y-68157000D02*
X102589000Y-70443000D01*
X100811000Y-68157000D02*
X102589000Y-68157000D01*
X100811000Y-70443000D02*
X100811000Y-68157000D01*
X105189000Y-70443000D02*
X103411000Y-70443000D01*
X105189000Y-68157000D02*
X105189000Y-70443000D01*
X103411000Y-68157000D02*
X105189000Y-68157000D01*
X103411000Y-70443000D02*
X103411000Y-68157000D01*
X99540412Y-79311205D02*
X96538132Y-79311205D01*
X99540412Y-81312725D02*
X99540412Y-79311205D01*
X96538132Y-81312725D02*
X99540412Y-81312725D01*
X96538132Y-79311205D02*
X96538132Y-81312725D01*
X99540412Y-77061205D02*
X96538132Y-77061205D01*
X99540412Y-79062725D02*
X99540412Y-77061205D01*
X96538132Y-79062725D02*
X99540412Y-79062725D01*
X96538132Y-77061205D02*
X96538132Y-79062725D01*
X103700000Y-79100000D02*
X103700000Y-77100000D01*
X101700000Y-79100000D02*
X103700000Y-79100000D01*
X101700000Y-77100000D02*
X101700000Y-79100000D01*
X103700000Y-77100000D02*
X101700000Y-77100000D01*
X103700000Y-81300000D02*
X103700000Y-79300000D01*
X101700000Y-81300000D02*
X103700000Y-81300000D01*
X101700000Y-79300000D02*
X101700000Y-81300000D01*
X103700000Y-79300000D02*
X101700000Y-79300000D01*
X208999200Y-121372400D02*
X208999200Y-122772400D01*
X208999200Y-122072400D02*
X209899200Y-121372400D01*
X209899200Y-122772400D02*
X208999200Y-122072400D01*
X209899200Y-121372400D02*
X209899200Y-122772400D01*
X122780000Y-57500000D02*
X122780000Y-58200000D01*
X127775000Y-51400000D02*
X127800000Y-55999999D01*
X118200001Y-53600000D02*
X118200001Y-58200000D01*
X124000000Y-56025000D02*
X127775000Y-56025000D01*
X123075000Y-51375000D02*
X127775000Y-51375000D01*
X118225000Y-53575000D02*
X120775000Y-53575000D01*
X118225000Y-58225000D02*
X122775000Y-58225000D01*
X115700000Y-47150000D02*
X120750000Y-47196000D01*
X115700000Y-47104000D02*
X115700000Y-43196000D01*
X115700000Y-43196000D02*
X124325000Y-43196000D01*
X126600000Y-45150000D02*
X126600000Y-49095000D01*
X126600000Y-49104000D02*
X122990000Y-49104000D01*
X122779999Y-57449999D02*
G75*
G02*
X124000000Y-56030000I1320000J99999D01*
G01*
X123070000Y-51400000D02*
G75*
G02*
X120700000Y-53570000I-2270000J100000D01*
G01*
X122985001Y-49079999D02*
G75*
G03*
X120725000Y-47200000I-2070000J-190001D01*
G01*
X126589000Y-45080000D02*
G75*
G03*
X124325000Y-43196000I-2074000J-190000D01*
G01*
X141780000Y-55100000D02*
X141780000Y-55800000D01*
X146775000Y-49000000D02*
X146800000Y-53599999D01*
X137200001Y-51200000D02*
X137200001Y-55800000D01*
X143000000Y-53625000D02*
X146775000Y-53625000D01*
X142075000Y-48975000D02*
X146775000Y-48975000D01*
X137225000Y-51175000D02*
X139775000Y-51175000D01*
X137225000Y-55825000D02*
X141775000Y-55825000D01*
X134700000Y-44750000D02*
X139750000Y-44796000D01*
X134700000Y-44704000D02*
X134700000Y-40796000D01*
X134700000Y-40796000D02*
X143325000Y-40796000D01*
X145600000Y-42750000D02*
X145600000Y-46695000D01*
X145600000Y-46704000D02*
X141990000Y-46704000D01*
X141779999Y-55049999D02*
G75*
G02*
X143000000Y-53630000I1320000J99999D01*
G01*
X142070000Y-49000000D02*
G75*
G02*
X139700000Y-51170000I-2270000J100000D01*
G01*
X141985001Y-46679999D02*
G75*
G03*
X139725000Y-44800000I-2070000J-190001D01*
G01*
X145589000Y-42680000D02*
G75*
G03*
X143325000Y-40796000I-2074000J-190000D01*
G01*
X160880000Y-53710000D02*
X160880000Y-54410000D01*
X165875000Y-47610000D02*
X165900000Y-52209999D01*
X156300001Y-49810000D02*
X156300001Y-54410000D01*
X162100000Y-52235000D02*
X165875000Y-52235000D01*
X161175000Y-47585000D02*
X165875000Y-47585000D01*
X156325000Y-49785000D02*
X158875000Y-49785000D01*
X156325000Y-54435000D02*
X160875000Y-54435000D01*
X153800000Y-43360000D02*
X158850000Y-43406000D01*
X153800000Y-43314000D02*
X153800000Y-39406000D01*
X153800000Y-39406000D02*
X162425000Y-39406000D01*
X164700000Y-41360000D02*
X164700000Y-45305000D01*
X164700000Y-45314000D02*
X161090000Y-45314000D01*
X160879999Y-53659999D02*
G75*
G02*
X162100000Y-52240000I1320000J99999D01*
G01*
X161170000Y-47610000D02*
G75*
G02*
X158800000Y-49780000I-2270000J100000D01*
G01*
X161085001Y-45289999D02*
G75*
G03*
X158825000Y-43410000I-2070000J-190001D01*
G01*
X164689000Y-41290000D02*
G75*
G03*
X162425000Y-39406000I-2074000J-190000D01*
G01*
X179880000Y-55100000D02*
X179880000Y-55800000D01*
X184875000Y-49000000D02*
X184900000Y-53599999D01*
X175300001Y-51200000D02*
X175300001Y-55800000D01*
X181100000Y-53625000D02*
X184875000Y-53625000D01*
X180175000Y-48975000D02*
X184875000Y-48975000D01*
X175325000Y-51175000D02*
X177875000Y-51175000D01*
X175325000Y-55825000D02*
X179875000Y-55825000D01*
X172800000Y-44750000D02*
X177850000Y-44796000D01*
X172800000Y-44704000D02*
X172800000Y-40796000D01*
X172800000Y-40796000D02*
X181425000Y-40796000D01*
X183700000Y-42750000D02*
X183700000Y-46695000D01*
X183700000Y-46704000D02*
X180090000Y-46704000D01*
X179879999Y-55049999D02*
G75*
G02*
X181100000Y-53630000I1320000J99999D01*
G01*
X180170000Y-49000000D02*
G75*
G02*
X177800000Y-51170000I-2270000J100000D01*
G01*
X180085001Y-46679999D02*
G75*
G03*
X177825000Y-44800000I-2070000J-190001D01*
G01*
X183689000Y-42680000D02*
G75*
G03*
X181425000Y-40796000I-2074000J-190000D01*
G01*
X198980000Y-59900000D02*
X198980000Y-60600000D01*
X203975000Y-53800000D02*
X204000000Y-58399999D01*
X194400001Y-56000000D02*
X194400001Y-60600000D01*
X200200000Y-58425000D02*
X203975000Y-58425000D01*
X199275000Y-53775000D02*
X203975000Y-53775000D01*
X194425000Y-55975000D02*
X196975000Y-55975000D01*
X194425000Y-60625000D02*
X198975000Y-60625000D01*
X191900000Y-49550000D02*
X196950000Y-49596000D01*
X191900000Y-49504000D02*
X191900000Y-45596000D01*
X191900000Y-45596000D02*
X200525000Y-45596000D01*
X202800000Y-47550000D02*
X202800000Y-51495000D01*
X202800000Y-51504000D02*
X199190000Y-51504000D01*
X198979999Y-59849999D02*
G75*
G02*
X200200000Y-58430000I1320000J99999D01*
G01*
X199270000Y-53800000D02*
G75*
G02*
X196900000Y-55970000I-2270000J100000D01*
G01*
X199185001Y-51479999D02*
G75*
G03*
X196925000Y-49600000I-2070000J-190001D01*
G01*
X202789000Y-47480000D02*
G75*
G03*
X200525000Y-45596000I-2074000J-190000D01*
G01*
X217980000Y-61400000D02*
X217980000Y-62100000D01*
X222975000Y-55300000D02*
X223000000Y-59899999D01*
X213400001Y-57500000D02*
X213400001Y-62100000D01*
X219200000Y-59925000D02*
X222975000Y-59925000D01*
X218275000Y-55275000D02*
X222975000Y-55275000D01*
X213425000Y-57475000D02*
X215975000Y-57475000D01*
X213425000Y-62125000D02*
X217975000Y-62125000D01*
X210900000Y-51050000D02*
X215950000Y-51096000D01*
X210900000Y-51004000D02*
X210900000Y-47096000D01*
X210900000Y-47096000D02*
X219525000Y-47096000D01*
X221800000Y-49050000D02*
X221800000Y-52995000D01*
X221800000Y-53004000D02*
X218190000Y-53004000D01*
X217979999Y-61349999D02*
G75*
G02*
X219200000Y-59930000I1320000J99999D01*
G01*
X218270000Y-55300000D02*
G75*
G02*
X215900000Y-57470000I-2270000J100000D01*
G01*
X218185001Y-52979999D02*
G75*
G03*
X215925000Y-51100000I-2070000J-190001D01*
G01*
X221789000Y-48980000D02*
G75*
G03*
X219525000Y-47096000I-2074000J-190000D01*
G01*
X122780000Y-76600000D02*
X122780000Y-77300000D01*
X127775000Y-70500000D02*
X127800000Y-75099999D01*
X118200001Y-72700000D02*
X118200001Y-77300000D01*
X124000000Y-75125000D02*
X127775000Y-75125000D01*
X123075000Y-70475000D02*
X127775000Y-70475000D01*
X118225000Y-72675000D02*
X120775000Y-72675000D01*
X118225000Y-77325000D02*
X122775000Y-77325000D01*
X115700000Y-66250000D02*
X120750000Y-66296000D01*
X115700000Y-66204000D02*
X115700000Y-62296000D01*
X115700000Y-62296000D02*
X124325000Y-62296000D01*
X126600000Y-64250000D02*
X126600000Y-68195000D01*
X126600000Y-68204000D02*
X122990000Y-68204000D01*
X122779999Y-76549999D02*
G75*
G02*
X124000000Y-75130000I1320000J99999D01*
G01*
X123070000Y-70500000D02*
G75*
G02*
X120700000Y-72670000I-2270000J100000D01*
G01*
X122985001Y-68179999D02*
G75*
G03*
X120725000Y-66300000I-2070000J-190001D01*
G01*
X126589000Y-64180000D02*
G75*
G03*
X124325000Y-62296000I-2074000J-190000D01*
G01*
X141780000Y-74200000D02*
X141780000Y-74900000D01*
X146775000Y-68100000D02*
X146800000Y-72699999D01*
X137200001Y-70300000D02*
X137200001Y-74900000D01*
X143000000Y-72725000D02*
X146775000Y-72725000D01*
X142075000Y-68075000D02*
X146775000Y-68075000D01*
X137225000Y-70275000D02*
X139775000Y-70275000D01*
X137225000Y-74925000D02*
X141775000Y-74925000D01*
X134700000Y-63850000D02*
X139750000Y-63896000D01*
X134700000Y-63804000D02*
X134700000Y-59896000D01*
X134700000Y-59896000D02*
X143325000Y-59896000D01*
X145600000Y-61850000D02*
X145600000Y-65795000D01*
X145600000Y-65804000D02*
X141990000Y-65804000D01*
X141779999Y-74149999D02*
G75*
G02*
X143000000Y-72730000I1320000J99999D01*
G01*
X142070000Y-68100000D02*
G75*
G02*
X139700000Y-70270000I-2270000J100000D01*
G01*
X141985001Y-65779999D02*
G75*
G03*
X139725000Y-63900000I-2070000J-190001D01*
G01*
X145589000Y-61780000D02*
G75*
G03*
X143325000Y-59896000I-2074000J-190000D01*
G01*
X160880000Y-72800000D02*
X160880000Y-73500000D01*
X165875000Y-66700000D02*
X165900000Y-71299999D01*
X156300001Y-68900000D02*
X156300001Y-73500000D01*
X162100000Y-71325000D02*
X165875000Y-71325000D01*
X161175000Y-66675000D02*
X165875000Y-66675000D01*
X156325000Y-68875000D02*
X158875000Y-68875000D01*
X156325000Y-73525000D02*
X160875000Y-73525000D01*
X153800000Y-62450000D02*
X158850000Y-62496000D01*
X153800000Y-62404000D02*
X153800000Y-58496000D01*
X153800000Y-58496000D02*
X162425000Y-58496000D01*
X164700000Y-60450000D02*
X164700000Y-64395000D01*
X164700000Y-64404000D02*
X161090000Y-64404000D01*
X160879999Y-72749999D02*
G75*
G02*
X162100000Y-71330000I1320000J99999D01*
G01*
X161170000Y-66700000D02*
G75*
G02*
X158800000Y-68870000I-2270000J100000D01*
G01*
X161085001Y-64379999D02*
G75*
G03*
X158825000Y-62500000I-2070000J-190001D01*
G01*
X164689000Y-60380000D02*
G75*
G03*
X162425000Y-58496000I-2074000J-190000D01*
G01*
X179880000Y-74100000D02*
X179880000Y-74800000D01*
X184875000Y-68000000D02*
X184900000Y-72599999D01*
X175300001Y-70200000D02*
X175300001Y-74800000D01*
X181100000Y-72625000D02*
X184875000Y-72625000D01*
X180175000Y-67975000D02*
X184875000Y-67975000D01*
X175325000Y-70175000D02*
X177875000Y-70175000D01*
X175325000Y-74825000D02*
X179875000Y-74825000D01*
X172800000Y-63750000D02*
X177850000Y-63796000D01*
X172800000Y-63704000D02*
X172800000Y-59796000D01*
X172800000Y-59796000D02*
X181425000Y-59796000D01*
X183700000Y-61750000D02*
X183700000Y-65695000D01*
X183700000Y-65704000D02*
X180090000Y-65704000D01*
X179879999Y-74049999D02*
G75*
G02*
X181100000Y-72630000I1320000J99999D01*
G01*
X180170000Y-68000000D02*
G75*
G02*
X177800000Y-70170000I-2270000J100000D01*
G01*
X180085001Y-65679999D02*
G75*
G03*
X177825000Y-63800000I-2070000J-190001D01*
G01*
X183689000Y-61680000D02*
G75*
G03*
X181425000Y-59796000I-2074000J-190000D01*
G01*
X198980000Y-78800000D02*
X198980000Y-79500000D01*
X203975000Y-72700000D02*
X204000000Y-77299999D01*
X194400001Y-74900000D02*
X194400001Y-79500000D01*
X200200000Y-77325000D02*
X203975000Y-77325000D01*
X199275000Y-72675000D02*
X203975000Y-72675000D01*
X194425000Y-74875000D02*
X196975000Y-74875000D01*
X194425000Y-79525000D02*
X198975000Y-79525000D01*
X191900000Y-68450000D02*
X196950000Y-68496000D01*
X191900000Y-68404000D02*
X191900000Y-64496000D01*
X191900000Y-64496000D02*
X200525000Y-64496000D01*
X202800000Y-66450000D02*
X202800000Y-70395000D01*
X202800000Y-70404000D02*
X199190000Y-70404000D01*
X198979999Y-78749999D02*
G75*
G02*
X200200000Y-77330000I1320000J99999D01*
G01*
X199270000Y-72700000D02*
G75*
G02*
X196900000Y-74870000I-2270000J100000D01*
G01*
X199185001Y-70379999D02*
G75*
G03*
X196925000Y-68500000I-2070000J-190001D01*
G01*
X202789000Y-66380000D02*
G75*
G03*
X200525000Y-64496000I-2074000J-190000D01*
G01*
X217980000Y-80300000D02*
X217980000Y-81000000D01*
X222975000Y-74200000D02*
X223000000Y-78799999D01*
X213400001Y-76400000D02*
X213400001Y-81000000D01*
X219200000Y-78825000D02*
X222975000Y-78825000D01*
X218275000Y-74175000D02*
X222975000Y-74175000D01*
X213425000Y-76375000D02*
X215975000Y-76375000D01*
X213425000Y-81025000D02*
X217975000Y-81025000D01*
X210900000Y-69950000D02*
X215950000Y-69996000D01*
X210900000Y-69904000D02*
X210900000Y-65996000D01*
X210900000Y-65996000D02*
X219525000Y-65996000D01*
X221800000Y-67950000D02*
X221800000Y-71895000D01*
X221800000Y-71904000D02*
X218190000Y-71904000D01*
X217979999Y-80249999D02*
G75*
G02*
X219200000Y-78830000I1320000J99999D01*
G01*
X218270000Y-74200000D02*
G75*
G02*
X215900000Y-76370000I-2270000J100000D01*
G01*
X218185001Y-71879999D02*
G75*
G03*
X215925000Y-70000000I-2070000J-190001D01*
G01*
X221789000Y-67880000D02*
G75*
G03*
X219525000Y-65996000I-2074000J-190000D01*
G01*
X122780000Y-95600000D02*
X122780000Y-96300000D01*
X127775000Y-89500000D02*
X127800000Y-94099999D01*
X118200001Y-91700000D02*
X118200001Y-96300000D01*
X124000000Y-94125000D02*
X127775000Y-94125000D01*
X123075000Y-89475000D02*
X127775000Y-89475000D01*
X118225000Y-91675000D02*
X120775000Y-91675000D01*
X118225000Y-96325000D02*
X122775000Y-96325000D01*
X115700000Y-85250000D02*
X120750000Y-85296000D01*
X115700000Y-85204000D02*
X115700000Y-81296000D01*
X115700000Y-81296000D02*
X124325000Y-81296000D01*
X126600000Y-83250000D02*
X126600000Y-87195000D01*
X126600000Y-87204000D02*
X122990000Y-87204000D01*
X122779999Y-95549999D02*
G75*
G02*
X124000000Y-94130000I1320000J99999D01*
G01*
X123070000Y-89500000D02*
G75*
G02*
X120700000Y-91670000I-2270000J100000D01*
G01*
X122985001Y-87179999D02*
G75*
G03*
X120725000Y-85300000I-2070000J-190001D01*
G01*
X126589000Y-83180000D02*
G75*
G03*
X124325000Y-81296000I-2074000J-190000D01*
G01*
X141780000Y-93200000D02*
X141780000Y-93900000D01*
X146775000Y-87100000D02*
X146800000Y-91699999D01*
X137200001Y-89300000D02*
X137200001Y-93900000D01*
X143000000Y-91725000D02*
X146775000Y-91725000D01*
X142075000Y-87075000D02*
X146775000Y-87075000D01*
X137225000Y-89275000D02*
X139775000Y-89275000D01*
X137225000Y-93925000D02*
X141775000Y-93925000D01*
X134700000Y-82850000D02*
X139750000Y-82896000D01*
X134700000Y-82804000D02*
X134700000Y-78896000D01*
X134700000Y-78896000D02*
X143325000Y-78896000D01*
X145600000Y-80850000D02*
X145600000Y-84795000D01*
X145600000Y-84804000D02*
X141990000Y-84804000D01*
X141779999Y-93149999D02*
G75*
G02*
X143000000Y-91730000I1320000J99999D01*
G01*
X142070000Y-87100000D02*
G75*
G02*
X139700000Y-89270000I-2270000J100000D01*
G01*
X141985001Y-84779999D02*
G75*
G03*
X139725000Y-82900000I-2070000J-190001D01*
G01*
X145589000Y-80780000D02*
G75*
G03*
X143325000Y-78896000I-2074000J-190000D01*
G01*
X160880000Y-91900000D02*
X160880000Y-92600000D01*
X165875000Y-85800000D02*
X165900000Y-90399999D01*
X156300001Y-88000000D02*
X156300001Y-92600000D01*
X162100000Y-90425000D02*
X165875000Y-90425000D01*
X161175000Y-85775000D02*
X165875000Y-85775000D01*
X156325000Y-87975000D02*
X158875000Y-87975000D01*
X156325000Y-92625000D02*
X160875000Y-92625000D01*
X153800000Y-81550000D02*
X158850000Y-81596000D01*
X153800000Y-81504000D02*
X153800000Y-77596000D01*
X153800000Y-77596000D02*
X162425000Y-77596000D01*
X164700000Y-79550000D02*
X164700000Y-83495000D01*
X164700000Y-83504000D02*
X161090000Y-83504000D01*
X160879999Y-91849999D02*
G75*
G02*
X162100000Y-90430000I1320000J99999D01*
G01*
X161170000Y-85800000D02*
G75*
G02*
X158800000Y-87970000I-2270000J100000D01*
G01*
X161085001Y-83479999D02*
G75*
G03*
X158825000Y-81600000I-2070000J-190001D01*
G01*
X164689000Y-79480000D02*
G75*
G03*
X162425000Y-77596000I-2074000J-190000D01*
G01*
X179880000Y-93200000D02*
X179880000Y-93900000D01*
X184875000Y-87100000D02*
X184900000Y-91699999D01*
X175300001Y-89300000D02*
X175300001Y-93900000D01*
X181100000Y-91725000D02*
X184875000Y-91725000D01*
X180175000Y-87075000D02*
X184875000Y-87075000D01*
X175325000Y-89275000D02*
X177875000Y-89275000D01*
X175325000Y-93925000D02*
X179875000Y-93925000D01*
X172800000Y-82850000D02*
X177850000Y-82896000D01*
X172800000Y-82804000D02*
X172800000Y-78896000D01*
X172800000Y-78896000D02*
X181425000Y-78896000D01*
X183700000Y-80850000D02*
X183700000Y-84795000D01*
X183700000Y-84804000D02*
X180090000Y-84804000D01*
X179879999Y-93149999D02*
G75*
G02*
X181100000Y-91730000I1320000J99999D01*
G01*
X180170000Y-87100000D02*
G75*
G02*
X177800000Y-89270000I-2270000J100000D01*
G01*
X180085001Y-84779999D02*
G75*
G03*
X177825000Y-82900000I-2070000J-190001D01*
G01*
X183689000Y-80780000D02*
G75*
G03*
X181425000Y-78896000I-2074000J-190000D01*
G01*
X198980000Y-98000000D02*
X198980000Y-98700000D01*
X203975000Y-91900000D02*
X204000000Y-96499999D01*
X194400001Y-94100000D02*
X194400001Y-98700000D01*
X200200000Y-96525000D02*
X203975000Y-96525000D01*
X199275000Y-91875000D02*
X203975000Y-91875000D01*
X194425000Y-94075000D02*
X196975000Y-94075000D01*
X194425000Y-98725000D02*
X198975000Y-98725000D01*
X191900000Y-87650000D02*
X196950000Y-87696000D01*
X191900000Y-87604000D02*
X191900000Y-83696000D01*
X191900000Y-83696000D02*
X200525000Y-83696000D01*
X202800000Y-85650000D02*
X202800000Y-89595000D01*
X202800000Y-89604000D02*
X199190000Y-89604000D01*
X198979999Y-97949999D02*
G75*
G02*
X200200000Y-96530000I1320000J99999D01*
G01*
X199270000Y-91900000D02*
G75*
G02*
X196900000Y-94070000I-2270000J100000D01*
G01*
X199185001Y-89579999D02*
G75*
G03*
X196925000Y-87700000I-2070000J-190001D01*
G01*
X202789000Y-85580000D02*
G75*
G03*
X200525000Y-83696000I-2074000J-190000D01*
G01*
X217980000Y-99500000D02*
X217980000Y-100200000D01*
X222975000Y-93400000D02*
X223000000Y-97999999D01*
X213400001Y-95600000D02*
X213400001Y-100200000D01*
X219200000Y-98025000D02*
X222975000Y-98025000D01*
X218275000Y-93375000D02*
X222975000Y-93375000D01*
X213425000Y-95575000D02*
X215975000Y-95575000D01*
X213425000Y-100225000D02*
X217975000Y-100225000D01*
X210900000Y-89150000D02*
X215950000Y-89196000D01*
X210900000Y-89104000D02*
X210900000Y-85196000D01*
X210900000Y-85196000D02*
X219525000Y-85196000D01*
X221800000Y-87150000D02*
X221800000Y-91095000D01*
X221800000Y-91104000D02*
X218190000Y-91104000D01*
X217979999Y-99449999D02*
G75*
G02*
X219200000Y-98030000I1320000J99999D01*
G01*
X218270000Y-93400000D02*
G75*
G02*
X215900000Y-95570000I-2270000J100000D01*
G01*
X218185001Y-91079999D02*
G75*
G03*
X215925000Y-89200000I-2070000J-190001D01*
G01*
X221789000Y-87080000D02*
G75*
G03*
X219525000Y-85196000I-2074000J-190000D01*
G01*
X122780000Y-114600000D02*
X122780000Y-115300000D01*
X127775000Y-108500000D02*
X127800000Y-113099999D01*
X118200001Y-110700000D02*
X118200001Y-115300000D01*
X124000000Y-113125000D02*
X127775000Y-113125000D01*
X123075000Y-108475000D02*
X127775000Y-108475000D01*
X118225000Y-110675000D02*
X120775000Y-110675000D01*
X118225000Y-115325000D02*
X122775000Y-115325000D01*
X115700000Y-104250000D02*
X120750000Y-104296000D01*
X115700000Y-104204000D02*
X115700000Y-100296000D01*
X115700000Y-100296000D02*
X124325000Y-100296000D01*
X126600000Y-102250000D02*
X126600000Y-106195000D01*
X126600000Y-106204000D02*
X122990000Y-106204000D01*
X122779999Y-114549999D02*
G75*
G02*
X124000000Y-113130000I1320000J99999D01*
G01*
X123070000Y-108500000D02*
G75*
G02*
X120700000Y-110670000I-2270000J100000D01*
G01*
X122985001Y-106179999D02*
G75*
G03*
X120725000Y-104300000I-2070000J-190001D01*
G01*
X126589000Y-102180000D02*
G75*
G03*
X124325000Y-100296000I-2074000J-190000D01*
G01*
X141780000Y-112300000D02*
X141780000Y-113000000D01*
X146775000Y-106200000D02*
X146800000Y-110799999D01*
X137200001Y-108400000D02*
X137200001Y-113000000D01*
X143000000Y-110825000D02*
X146775000Y-110825000D01*
X142075000Y-106175000D02*
X146775000Y-106175000D01*
X137225000Y-108375000D02*
X139775000Y-108375000D01*
X137225000Y-113025000D02*
X141775000Y-113025000D01*
X134700000Y-101950000D02*
X139750000Y-101996000D01*
X134700000Y-101904000D02*
X134700000Y-97996000D01*
X134700000Y-97996000D02*
X143325000Y-97996000D01*
X145600000Y-99950000D02*
X145600000Y-103895000D01*
X145600000Y-103904000D02*
X141990000Y-103904000D01*
X141779999Y-112249999D02*
G75*
G02*
X143000000Y-110830000I1320000J99999D01*
G01*
X142070000Y-106200000D02*
G75*
G02*
X139700000Y-108370000I-2270000J100000D01*
G01*
X141985001Y-103879999D02*
G75*
G03*
X139725000Y-102000000I-2070000J-190001D01*
G01*
X145589000Y-99880000D02*
G75*
G03*
X143325000Y-97996000I-2074000J-190000D01*
G01*
X160880000Y-110900000D02*
X160880000Y-111600000D01*
X165875000Y-104800000D02*
X165900000Y-109399999D01*
X156300001Y-107000000D02*
X156300001Y-111600000D01*
X162100000Y-109425000D02*
X165875000Y-109425000D01*
X161175000Y-104775000D02*
X165875000Y-104775000D01*
X156325000Y-106975000D02*
X158875000Y-106975000D01*
X156325000Y-111625000D02*
X160875000Y-111625000D01*
X153800000Y-100550000D02*
X158850000Y-100596000D01*
X153800000Y-100504000D02*
X153800000Y-96596000D01*
X153800000Y-96596000D02*
X162425000Y-96596000D01*
X164700000Y-98550000D02*
X164700000Y-102495000D01*
X164700000Y-102504000D02*
X161090000Y-102504000D01*
X160879999Y-110849999D02*
G75*
G02*
X162100000Y-109430000I1320000J99999D01*
G01*
X161170000Y-104800000D02*
G75*
G02*
X158800000Y-106970000I-2270000J100000D01*
G01*
X161085001Y-102479999D02*
G75*
G03*
X158825000Y-100600000I-2070000J-190001D01*
G01*
X164689000Y-98480000D02*
G75*
G03*
X162425000Y-96596000I-2074000J-190000D01*
G01*
X179880000Y-112300000D02*
X179880000Y-113000000D01*
X184875000Y-106200000D02*
X184900000Y-110799999D01*
X175300001Y-108400000D02*
X175300001Y-113000000D01*
X181100000Y-110825000D02*
X184875000Y-110825000D01*
X180175000Y-106175000D02*
X184875000Y-106175000D01*
X175325000Y-108375000D02*
X177875000Y-108375000D01*
X175325000Y-113025000D02*
X179875000Y-113025000D01*
X172800000Y-101950000D02*
X177850000Y-101996000D01*
X172800000Y-101904000D02*
X172800000Y-97996000D01*
X172800000Y-97996000D02*
X181425000Y-97996000D01*
X183700000Y-99950000D02*
X183700000Y-103895000D01*
X183700000Y-103904000D02*
X180090000Y-103904000D01*
X179879999Y-112249999D02*
G75*
G02*
X181100000Y-110830000I1320000J99999D01*
G01*
X180170000Y-106200000D02*
G75*
G02*
X177800000Y-108370000I-2270000J100000D01*
G01*
X180085001Y-103879999D02*
G75*
G03*
X177825000Y-102000000I-2070000J-190001D01*
G01*
X183689000Y-99880000D02*
G75*
G03*
X181425000Y-97996000I-2074000J-190000D01*
G01*
X218030000Y-118500000D02*
X218030000Y-119200000D01*
X223025000Y-112400000D02*
X223050000Y-116999999D01*
X213450001Y-114600000D02*
X213450001Y-119200000D01*
X219250000Y-117025000D02*
X223025000Y-117025000D01*
X218325000Y-112375000D02*
X223025000Y-112375000D01*
X213475000Y-114575000D02*
X216025000Y-114575000D01*
X213475000Y-119225000D02*
X218025000Y-119225000D01*
X210950000Y-108150000D02*
X216000000Y-108196000D01*
X210950000Y-108104000D02*
X210950000Y-104196000D01*
X210950000Y-104196000D02*
X219575000Y-104196000D01*
X221850000Y-106150000D02*
X221850000Y-110095000D01*
X221850000Y-110104000D02*
X218240000Y-110104000D01*
X218029999Y-118449999D02*
G75*
G02*
X219250000Y-117030000I1320000J99999D01*
G01*
X218320000Y-112400000D02*
G75*
G02*
X215950000Y-114570000I-2270000J100000D01*
G01*
X218235001Y-110079999D02*
G75*
G03*
X215975000Y-108200000I-2070000J-190001D01*
G01*
X221839000Y-106080000D02*
G75*
G03*
X219575000Y-104196000I-2074000J-190000D01*
G01*
X100604809Y-135794538D02*
X99998592Y-136144538D01*
X108385064Y-137070335D02*
X104413848Y-139391985D01*
X101692309Y-129878142D02*
X97708592Y-132178142D01*
X102492197Y-136113589D02*
X104379697Y-139382835D01*
X106056715Y-132987515D02*
X108406715Y-137057835D01*
X101726459Y-129887292D02*
X103001459Y-132095657D01*
X97699441Y-132212292D02*
X99974441Y-136152708D01*
X106028172Y-124488078D02*
X108513335Y-128884506D01*
X106068010Y-124465078D02*
X109452437Y-122511078D01*
X109452437Y-122511078D02*
X113764937Y-129980547D01*
X113210223Y-132927755D02*
X109793753Y-134900255D01*
X109785959Y-134904755D02*
X107980959Y-131778403D01*
X100648111Y-135769537D02*
G75*
G02*
X102487867Y-136116089I746602J-1093154D01*
G01*
X106032564Y-132995686D02*
G75*
G02*
X102968289Y-132028205I-1048397J2015878D01*
G01*
X107999244Y-131762073D02*
G75*
G03*
X108497371Y-128864856I-1199545J1697672D01*
G01*
X113265345Y-132883229D02*
G75*
G03*
X113764937Y-129980547I-1201545J1701137D01*
G01*
X132023454Y-133074336D02*
X132204627Y-133750484D01*
X135269457Y-125889388D02*
X136484173Y-130326175D01*
X126590120Y-130492617D02*
X127780688Y-134935875D01*
X132820125Y-131333836D02*
X136466495Y-130356795D01*
X130723135Y-127081689D02*
X135262987Y-125865239D01*
X126607797Y-130461998D02*
X129070908Y-129802010D01*
X127811305Y-134953553D02*
X132206268Y-133775927D01*
X122505922Y-124909443D02*
X127395753Y-123646839D01*
X122494016Y-124865010D02*
X121482551Y-121090172D01*
X121482551Y-121090172D02*
X129813662Y-118857858D01*
X132516875Y-120156464D02*
X133537916Y-123967041D01*
X133540246Y-123975734D02*
X130053253Y-124910071D01*
X132010511Y-133026040D02*
G75*
G02*
X132821419Y-131338666I1249141J438233D01*
G01*
X130724776Y-127107132D02*
G75*
G02*
X128997169Y-129816591I-2218533J-490926D01*
G01*
X130042213Y-124888182D02*
G75*
G03*
X127372640Y-123657173I-1950291J-719282D01*
G01*
X132488132Y-120091696D02*
G75*
G03*
X129813662Y-118857858I-1954154J-720316D01*
G01*
X151280000Y-131250000D02*
X151280000Y-131950000D01*
X156275000Y-125150000D02*
X156300000Y-129749999D01*
X146700001Y-127350000D02*
X146700001Y-131950000D01*
X152500000Y-129775000D02*
X156275000Y-129775000D01*
X151575000Y-125125000D02*
X156275000Y-125125000D01*
X146725000Y-127325000D02*
X149275000Y-127325000D01*
X146725000Y-131975000D02*
X151275000Y-131975000D01*
X144200000Y-120900000D02*
X149250000Y-120946000D01*
X144200000Y-120854000D02*
X144200000Y-116946000D01*
X144200000Y-116946000D02*
X152825000Y-116946000D01*
X155100000Y-118900000D02*
X155100000Y-122845000D01*
X155100000Y-122854000D02*
X151490000Y-122854000D01*
X151279999Y-131199999D02*
G75*
G02*
X152500000Y-129780000I1320000J99999D01*
G01*
X151570000Y-125150000D02*
G75*
G02*
X149200000Y-127320000I-2270000J100000D01*
G01*
X151485001Y-122829999D02*
G75*
G03*
X149225000Y-120950000I-2070000J-190001D01*
G01*
X155089000Y-118830000D02*
G75*
G03*
X152825000Y-116946000I-2074000J-190000D01*
G01*
X170380000Y-131250000D02*
X170380000Y-131950000D01*
X175375000Y-125150000D02*
X175400000Y-129749999D01*
X165800001Y-127350000D02*
X165800001Y-131950000D01*
X171600000Y-129775000D02*
X175375000Y-129775000D01*
X170675000Y-125125000D02*
X175375000Y-125125000D01*
X165825000Y-127325000D02*
X168375000Y-127325000D01*
X165825000Y-131975000D02*
X170375000Y-131975000D01*
X163300000Y-120900000D02*
X168350000Y-120946000D01*
X163300000Y-120854000D02*
X163300000Y-116946000D01*
X163300000Y-116946000D02*
X171925000Y-116946000D01*
X174200000Y-118900000D02*
X174200000Y-122845000D01*
X174200000Y-122854000D02*
X170590000Y-122854000D01*
X170379999Y-131199999D02*
G75*
G02*
X171600000Y-129780000I1320000J99999D01*
G01*
X170670000Y-125150000D02*
G75*
G02*
X168300000Y-127320000I-2270000J100000D01*
G01*
X170585001Y-122829999D02*
G75*
G03*
X168325000Y-120950000I-2070000J-190001D01*
G01*
X174189000Y-118830000D02*
G75*
G03*
X171925000Y-116946000I-2074000J-190000D01*
G01*
X218027600Y-137573401D02*
X218027600Y-138273401D01*
X223022600Y-131473401D02*
X223047600Y-136073400D01*
X213447601Y-133673401D02*
X213447601Y-138273401D01*
X219247600Y-136098401D02*
X223022600Y-136098401D01*
X218322600Y-131448401D02*
X223022600Y-131448401D01*
X213472600Y-133648401D02*
X216022600Y-133648401D01*
X213472600Y-138298401D02*
X218022600Y-138298401D01*
X210947600Y-127223401D02*
X215997600Y-127269401D01*
X210947600Y-127177401D02*
X210947600Y-123269401D01*
X210947600Y-123269401D02*
X219572600Y-123269401D01*
X221847600Y-125223401D02*
X221847600Y-129168401D01*
X221847600Y-129177401D02*
X218237600Y-129177401D01*
X218027599Y-137523400D02*
G75*
G02*
X219247600Y-136103401I1320000J99999D01*
G01*
X218317600Y-131473401D02*
G75*
G02*
X215947600Y-133643401I-2270000J100000D01*
G01*
X218232601Y-129153400D02*
G75*
G03*
X215972600Y-127273401I-2070000J-190001D01*
G01*
X221836600Y-125153401D02*
G75*
G03*
X219572600Y-123269401I-2074000J-190000D01*
G01*
D12*
X99500000Y-104500000D02*
X100500000Y-104500000D01*
X100000000Y-104000000D02*
X100000000Y-105000000D01*
X106100000Y-108000000D02*
X106100000Y-110400000D01*
X106100000Y-103200000D02*
X106100000Y-105800000D01*
X106100000Y-98600000D02*
X106100000Y-101000000D01*
X93900000Y-98600000D02*
X93900000Y-110400000D01*
X98000000Y-98600000D02*
X93900000Y-98600000D01*
X98000000Y-110400000D02*
X93900000Y-110400000D01*
X106100000Y-110400000D02*
X102000000Y-110400000D01*
X102000000Y-98600000D02*
X106100000Y-98600000D01*
X103000000Y-104500000D02*
G75*
G03*
X103000000Y-104500000I-3000000J0D01*
G01*
D11*
X108800000Y-76900000D02*
X108800000Y-75100000D01*
X107000000Y-75100000D02*
X108800000Y-75100000D01*
X107000000Y-76900000D02*
X107000000Y-75100000D01*
X108800000Y-79500000D02*
X108800000Y-77700000D01*
X107000000Y-79500000D02*
X107000000Y-77700000D01*
X107000000Y-77700000D02*
X108800000Y-77700000D01*
X108800000Y-79500000D02*
X107000000Y-79500000D01*
X108800000Y-80200000D02*
X108800000Y-82000000D01*
X107000000Y-80200000D02*
X108800000Y-80200000D01*
X107000000Y-82000000D02*
X107000000Y-80200000D01*
X108800000Y-82000000D02*
X107000000Y-82000000D01*
X108800000Y-76900000D02*
X107000000Y-76900000D01*
X88000000Y-88650000D02*
X88000000Y-82650000D01*
X88000000Y-82650000D02*
X100000000Y-82650000D01*
X100000000Y-82650000D02*
X100000000Y-88650000D01*
X100000000Y-88650000D02*
X88000000Y-88650000D01*
X109988815Y-71635745D02*
X109988815Y-41155745D01*
X94748815Y-71635745D02*
X94748815Y-41155745D01*
X107448815Y-41155745D02*
X107448815Y-71635745D01*
X109988815Y-71635745D02*
X109988815Y-38615745D01*
X109988815Y-41155745D02*
X107448815Y-41155745D01*
X92208815Y-71635745D02*
X94748815Y-71635745D01*
X109988815Y-38615745D02*
X92208815Y-38615745D01*
X92208815Y-38615745D02*
X92208815Y-71635745D01*
X92208815Y-41155745D02*
X92208815Y-71635745D01*
X94748815Y-41155745D02*
X92208815Y-41155745D01*
X107448815Y-71635745D02*
X109988815Y-71635745D01*
X90361904Y-78661904D02*
X89980952Y-78928571D01*
X90361904Y-79119047D02*
X89561904Y-79119047D01*
X89561904Y-78814285D01*
X89600000Y-78738095D01*
X89638095Y-78700000D01*
X89714285Y-78661904D01*
X89828571Y-78661904D01*
X89904761Y-78700000D01*
X89942857Y-78738095D01*
X89980952Y-78814285D01*
X89980952Y-79119047D01*
X89942857Y-78319047D02*
X89942857Y-78052380D01*
X90361904Y-77938095D02*
X90361904Y-78319047D01*
X89561904Y-78319047D01*
X89561904Y-77938095D01*
X90323809Y-77633333D02*
X90361904Y-77519047D01*
X90361904Y-77328571D01*
X90323809Y-77252380D01*
X90285714Y-77214285D01*
X90209523Y-77176190D01*
X90133333Y-77176190D01*
X90057142Y-77214285D01*
X90019047Y-77252380D01*
X89980952Y-77328571D01*
X89942857Y-77480952D01*
X89904761Y-77557142D01*
X89866666Y-77595238D01*
X89790476Y-77633333D01*
X89714285Y-77633333D01*
X89638095Y-77595238D01*
X89600000Y-77557142D01*
X89561904Y-77480952D01*
X89561904Y-77290476D01*
X89600000Y-77176190D01*
X89942857Y-76833333D02*
X89942857Y-76566666D01*
X90361904Y-76452380D02*
X90361904Y-76833333D01*
X89561904Y-76833333D01*
X89561904Y-76452380D01*
X89561904Y-76223809D02*
X89561904Y-75766666D01*
X90361904Y-75995238D02*
X89561904Y-75995238D01*
X90361904Y-78661904D02*
X89980952Y-78928571D01*
X90361904Y-79119047D02*
X89561904Y-79119047D01*
X89561904Y-78814285D01*
X89600000Y-78738095D01*
X89638095Y-78700000D01*
X89714285Y-78661904D01*
X89828571Y-78661904D01*
X89904761Y-78700000D01*
X89942857Y-78738095D01*
X89980952Y-78814285D01*
X89980952Y-79119047D01*
X89942857Y-78319047D02*
X89942857Y-78052380D01*
X90361904Y-77938095D02*
X90361904Y-78319047D01*
X89561904Y-78319047D01*
X89561904Y-77938095D01*
X90323809Y-77633333D02*
X90361904Y-77519047D01*
X90361904Y-77328571D01*
X90323809Y-77252380D01*
X90285714Y-77214285D01*
X90209523Y-77176190D01*
X90133333Y-77176190D01*
X90057142Y-77214285D01*
X90019047Y-77252380D01*
X89980952Y-77328571D01*
X89942857Y-77480952D01*
X89904761Y-77557142D01*
X89866666Y-77595238D01*
X89790476Y-77633333D01*
X89714285Y-77633333D01*
X89638095Y-77595238D01*
X89600000Y-77557142D01*
X89561904Y-77480952D01*
X89561904Y-77290476D01*
X89600000Y-77176190D01*
X89942857Y-76833333D02*
X89942857Y-76566666D01*
X90361904Y-76452380D02*
X90361904Y-76833333D01*
X89561904Y-76833333D01*
X89561904Y-76452380D01*
X89561904Y-76223809D02*
X89561904Y-75766666D01*
X90361904Y-75995238D02*
X89561904Y-75995238D01*
X97864533Y-80667695D02*
X97593600Y-80280647D01*
X97400076Y-80667695D02*
X97400076Y-79854895D01*
X97709714Y-79854895D01*
X97787123Y-79893600D01*
X97825828Y-79932304D01*
X97864533Y-80009714D01*
X97864533Y-80125828D01*
X97825828Y-80203238D01*
X97787123Y-80241942D01*
X97709714Y-80280647D01*
X97400076Y-80280647D01*
X98638628Y-80667695D02*
X98174171Y-80667695D01*
X98406400Y-80667695D02*
X98406400Y-79854895D01*
X98328990Y-79971009D01*
X98251580Y-80048419D01*
X98174171Y-80087123D01*
X97864533Y-78467695D02*
X97593600Y-78080647D01*
X97400076Y-78467695D02*
X97400076Y-77654895D01*
X97709714Y-77654895D01*
X97787123Y-77693600D01*
X97825828Y-77732304D01*
X97864533Y-77809714D01*
X97864533Y-77925828D01*
X97825828Y-78003238D01*
X97787123Y-78041942D01*
X97709714Y-78080647D01*
X97400076Y-78080647D01*
X98174171Y-77732304D02*
X98212876Y-77693600D01*
X98290285Y-77654895D01*
X98483809Y-77654895D01*
X98561219Y-77693600D01*
X98599923Y-77732304D01*
X98638628Y-77809714D01*
X98638628Y-77887123D01*
X98599923Y-78003238D01*
X98135466Y-78467695D01*
X98638628Y-78467695D01*
X104739639Y-78699923D02*
X103926839Y-78699923D01*
X103926839Y-78390285D01*
X103965544Y-78312876D01*
X104004248Y-78274171D01*
X104081658Y-78235466D01*
X104197772Y-78235466D01*
X104275182Y-78274171D01*
X104313886Y-78312876D01*
X104352591Y-78390285D01*
X104352591Y-78699923D01*
X104004248Y-77925828D02*
X103965544Y-77887123D01*
X103926839Y-77809714D01*
X103926839Y-77616190D01*
X103965544Y-77538780D01*
X104004248Y-77500076D01*
X104081658Y-77461371D01*
X104159067Y-77461371D01*
X104275182Y-77500076D01*
X104739639Y-77964533D01*
X104739639Y-77461371D01*
X104739639Y-80899923D02*
X103926839Y-80899923D01*
X103926839Y-80590285D01*
X103965544Y-80512876D01*
X104004248Y-80474171D01*
X104081658Y-80435466D01*
X104197772Y-80435466D01*
X104275182Y-80474171D01*
X104313886Y-80512876D01*
X104352591Y-80590285D01*
X104352591Y-80899923D01*
X104739639Y-79661371D02*
X104739639Y-80125828D01*
X104739639Y-79893600D02*
X103926839Y-79893600D01*
X104042953Y-79971009D01*
X104120363Y-80048419D01*
X104159067Y-80125828D01*
X109390476Y-75600000D02*
X109314285Y-75561904D01*
X109200000Y-75561904D01*
X109085714Y-75600000D01*
X109009523Y-75676190D01*
X108971428Y-75752380D01*
X108933333Y-75904761D01*
X108933333Y-76019047D01*
X108971428Y-76171428D01*
X109009523Y-76247619D01*
X109085714Y-76323809D01*
X109200000Y-76361904D01*
X109276190Y-76361904D01*
X109390476Y-76323809D01*
X109428571Y-76285714D01*
X109428571Y-76019047D01*
X109276190Y-76019047D01*
X109771428Y-76361904D02*
X109771428Y-75561904D01*
X110228571Y-76361904D01*
X110228571Y-75561904D01*
X110609523Y-76361904D02*
X110609523Y-75561904D01*
X110800000Y-75561904D01*
X110914285Y-75600000D01*
X110990476Y-75676190D01*
X111028571Y-75752380D01*
X111066666Y-75904761D01*
X111066666Y-76019047D01*
X111028571Y-76171428D01*
X110990476Y-76247619D01*
X110914285Y-76323809D01*
X110800000Y-76361904D01*
X110609523Y-76361904D01*
X109390476Y-75600000D02*
X109314285Y-75561904D01*
X109200000Y-75561904D01*
X109085714Y-75600000D01*
X109009523Y-75676190D01*
X108971428Y-75752380D01*
X108933333Y-75904761D01*
X108933333Y-76019047D01*
X108971428Y-76171428D01*
X109009523Y-76247619D01*
X109085714Y-76323809D01*
X109200000Y-76361904D01*
X109276190Y-76361904D01*
X109390476Y-76323809D01*
X109428571Y-76285714D01*
X109428571Y-76019047D01*
X109276190Y-76019047D01*
X109771428Y-76361904D02*
X109771428Y-75561904D01*
X110228571Y-76361904D01*
X110228571Y-75561904D01*
X110609523Y-76361904D02*
X110609523Y-75561904D01*
X110800000Y-75561904D01*
X110914285Y-75600000D01*
X110990476Y-75676190D01*
X111028571Y-75752380D01*
X111066666Y-75904761D01*
X111066666Y-76019047D01*
X111028571Y-76171428D01*
X110990476Y-76247619D01*
X110914285Y-76323809D01*
X110800000Y-76361904D01*
X110609523Y-76361904D01*
X93902380Y-88161904D02*
X93902380Y-87590476D01*
X94902380Y-87876190D02*
X93902380Y-87876190D01*
X94902380Y-86685714D02*
X94426190Y-87019047D01*
X94902380Y-87257142D02*
X93902380Y-87257142D01*
X93902380Y-86876190D01*
X93950000Y-86780952D01*
X93997619Y-86733333D01*
X94092857Y-86685714D01*
X94235714Y-86685714D01*
X94330952Y-86733333D01*
X94378571Y-86780952D01*
X94426190Y-86876190D01*
X94426190Y-87257142D01*
X94902380Y-85685714D02*
X94426190Y-86019047D01*
X94902380Y-86257142D02*
X93902380Y-86257142D01*
X93902380Y-85876190D01*
X93950000Y-85780952D01*
X93997619Y-85733333D01*
X94092857Y-85685714D01*
X94235714Y-85685714D01*
X94330952Y-85733333D01*
X94378571Y-85780952D01*
X94426190Y-85876190D01*
X94426190Y-86257142D01*
X94854761Y-85304761D02*
X94902380Y-85161904D01*
X94902380Y-84923809D01*
X94854761Y-84828571D01*
X94807142Y-84780952D01*
X94711904Y-84733333D01*
X94616666Y-84733333D01*
X94521428Y-84780952D01*
X94473809Y-84828571D01*
X94426190Y-84923809D01*
X94378571Y-85114285D01*
X94330952Y-85209523D01*
X94283333Y-85257142D01*
X94188095Y-85304761D01*
X94092857Y-85304761D01*
X93997619Y-85257142D01*
X93950000Y-85209523D01*
X93902380Y-85114285D01*
X93902380Y-84876190D01*
X93950000Y-84733333D01*
X93902380Y-88161904D02*
X93902380Y-87590476D01*
X94902380Y-87876190D02*
X93902380Y-87876190D01*
X94902380Y-86685714D02*
X94426190Y-87019047D01*
X94902380Y-87257142D02*
X93902380Y-87257142D01*
X93902380Y-86876190D01*
X93950000Y-86780952D01*
X93997619Y-86733333D01*
X94092857Y-86685714D01*
X94235714Y-86685714D01*
X94330952Y-86733333D01*
X94378571Y-86780952D01*
X94426190Y-86876190D01*
X94426190Y-87257142D01*
X94902380Y-85685714D02*
X94426190Y-86019047D01*
X94902380Y-86257142D02*
X93902380Y-86257142D01*
X93902380Y-85876190D01*
X93950000Y-85780952D01*
X93997619Y-85733333D01*
X94092857Y-85685714D01*
X94235714Y-85685714D01*
X94330952Y-85733333D01*
X94378571Y-85780952D01*
X94426190Y-85876190D01*
X94426190Y-86257142D01*
X94854761Y-85304761D02*
X94902380Y-85161904D01*
X94902380Y-84923809D01*
X94854761Y-84828571D01*
X94807142Y-84780952D01*
X94711904Y-84733333D01*
X94616666Y-84733333D01*
X94521428Y-84780952D01*
X94473809Y-84828571D01*
X94426190Y-84923809D01*
X94378571Y-85114285D01*
X94330952Y-85209523D01*
X94283333Y-85257142D01*
X94188095Y-85304761D01*
X94092857Y-85304761D01*
X93997619Y-85257142D01*
X93950000Y-85209523D01*
X93902380Y-85114285D01*
X93902380Y-84876190D01*
X93950000Y-84733333D01*
%LPC*%
D13*
G36*
X192209755Y-103150961D02*
G01*
X192219134Y-103153806D01*
X192227779Y-103158427D01*
X192235355Y-103164645D01*
X192241573Y-103172221D01*
X192246194Y-103180866D01*
X192249039Y-103190245D01*
X192250000Y-103200000D01*
X192250000Y-105200000D01*
X192249039Y-105209755D01*
X192246194Y-105219134D01*
X192241573Y-105227779D01*
X192235355Y-105235355D01*
X192227735Y-105241603D01*
X191627735Y-105641603D01*
X191619086Y-105646214D01*
X191609703Y-105649049D01*
X191600000Y-105650000D01*
X189800000Y-105650000D01*
X189790245Y-105649039D01*
X189780866Y-105646194D01*
X189772221Y-105641573D01*
X189764645Y-105635355D01*
X189758427Y-105627779D01*
X189753806Y-105619134D01*
X189750961Y-105609755D01*
X189750000Y-105600000D01*
X189750000Y-105150000D01*
X189150000Y-105150000D01*
X189150000Y-103650000D01*
X189750000Y-103650000D01*
X189750000Y-103200000D01*
X189750961Y-103190245D01*
X189753806Y-103180866D01*
X189758427Y-103172221D01*
X189764645Y-103164645D01*
X189772221Y-103158427D01*
X189780866Y-103153806D01*
X189790245Y-103150961D01*
X189800000Y-103150000D01*
X192200000Y-103150000D01*
X192209755Y-103150961D01*
G37*
G36*
X204809755Y-105750961D02*
G01*
X204819134Y-105753806D01*
X204827779Y-105758427D01*
X204835355Y-105764645D01*
X204841573Y-105772221D01*
X204846194Y-105780866D01*
X204849039Y-105790245D01*
X204850000Y-105800000D01*
X204850000Y-106250000D01*
X205550000Y-106250000D01*
X205550000Y-107750000D01*
X204850000Y-107750000D01*
X204850000Y-108200000D01*
X204849039Y-108209755D01*
X204846194Y-108219134D01*
X204841573Y-108227779D01*
X204835355Y-108235355D01*
X204827779Y-108241573D01*
X204819134Y-108246194D01*
X204809755Y-108249039D01*
X204800000Y-108250000D01*
X202400000Y-108250000D01*
X202390245Y-108249039D01*
X202380866Y-108246194D01*
X202372221Y-108241573D01*
X202364645Y-108235355D01*
X202358427Y-108227779D01*
X202353806Y-108219134D01*
X202350961Y-108209755D01*
X202350000Y-108200000D01*
X202350000Y-105800000D01*
X202350961Y-105790245D01*
X202353806Y-105780866D01*
X202358427Y-105772221D01*
X202364645Y-105764645D01*
X202372221Y-105758427D01*
X202380866Y-105753806D01*
X202390245Y-105750961D01*
X202400000Y-105750000D01*
X204800000Y-105750000D01*
X204809755Y-105750961D01*
G37*
D14*
X192890000Y-106959999D03*
D15*
X191620000Y-109500000D03*
X201780000Y-109500000D03*
D16*
X202200000Y-109500000D03*
X191200000Y-109500000D03*
D17*
X196700000Y-109500000D03*
D14*
X199240000Y-104420000D03*
X196700000Y-115400000D03*
X191700000Y-113200000D03*
D18*
X204800000Y-113200000D03*
D19*
X193900000Y-115400000D03*
D14*
X201700000Y-113200000D03*
X194160000Y-104420000D03*
X200510000Y-106960000D03*
D17*
X107000000Y-93500000D03*
X91500000Y-93500000D03*
D20*
X104320000Y-74600000D03*
X101780000Y-74600000D03*
X99240000Y-74600000D03*
X96700000Y-74600000D03*
D21*
X163700000Y-115800000D03*
X160300000Y-115800000D03*
X144600000Y-115800000D03*
X141200000Y-115800000D03*
X125600000Y-118000000D03*
X122200000Y-118000000D03*
D13*
G36*
X109550481Y-120367820D02*
G01*
X110849519Y-119617820D01*
X111749519Y-121176666D01*
X110450481Y-121926666D01*
X109550481Y-120367820D01*
G37*
G36*
X107850481Y-117423334D02*
G01*
X109149519Y-116673334D01*
X110049519Y-118232180D01*
X108750481Y-118982180D01*
X107850481Y-117423334D01*
G37*
D21*
X108700000Y-97000000D03*
X105300000Y-97000000D03*
X223600000Y-103100000D03*
X220200000Y-103100000D03*
X192300000Y-101500000D03*
X188900000Y-101500000D03*
X173200000Y-96800000D03*
X169800000Y-96800000D03*
X154200000Y-95400000D03*
X150800000Y-95400000D03*
X137000000Y-96800000D03*
X133600000Y-96800000D03*
X116100000Y-99100000D03*
X112700000Y-99100000D03*
X223500000Y-99900000D03*
X220100000Y-99900000D03*
X192300000Y-98300000D03*
X188900000Y-98300000D03*
X173200000Y-93600000D03*
X169800000Y-93600000D03*
X154200000Y-92300000D03*
X150800000Y-92300000D03*
X136000000Y-93800000D03*
X132600000Y-93800000D03*
X116100000Y-96000000D03*
X112700000Y-96000000D03*
X223500000Y-64900000D03*
X220100000Y-64900000D03*
X192300000Y-63300000D03*
X188900000Y-63300000D03*
X173200000Y-58700000D03*
X169800000Y-58700000D03*
X154300000Y-57400000D03*
X150900000Y-57400000D03*
X137000000Y-58700000D03*
X133600000Y-58700000D03*
X116100000Y-61100000D03*
X112700000Y-61100000D03*
X223500000Y-61800000D03*
X220100000Y-61800000D03*
X192300000Y-60400000D03*
X188900000Y-60400000D03*
X173200000Y-55600000D03*
X169800000Y-55600000D03*
X154200000Y-54200000D03*
X150800000Y-54200000D03*
X136000000Y-55700000D03*
X132600000Y-55700000D03*
X116100000Y-58000000D03*
X112700000Y-58000000D03*
D22*
X94000000Y-74499620D03*
X94000000Y-75500380D03*
D23*
X90000000Y-80750000D03*
X90000000Y-74250000D03*
D22*
X96700000Y-68799620D03*
X96700000Y-69800380D03*
X99200000Y-68799620D03*
X99200000Y-69800380D03*
X101700000Y-68799620D03*
X101700000Y-69800380D03*
X104300000Y-68799620D03*
X104300000Y-69800380D03*
D20*
X100579272Y-80311965D03*
X95499272Y-80311965D03*
X100579272Y-78061965D03*
X95499272Y-78061965D03*
X102700000Y-78100000D03*
X102700000Y-80300000D03*
D24*
X205800000Y-100000000D03*
X129600000Y-97600000D03*
X129600000Y-59600000D03*
D21*
X211199200Y-122072400D03*
X207799200Y-122072400D03*
D13*
G36*
X116009755Y-43650961D02*
G01*
X116019134Y-43653806D01*
X116027779Y-43658427D01*
X116035355Y-43664645D01*
X116041573Y-43672221D01*
X116046194Y-43680866D01*
X116049039Y-43690245D01*
X116050000Y-43700000D01*
X116050000Y-45700000D01*
X116049039Y-45709755D01*
X116046194Y-45719134D01*
X116041573Y-45727779D01*
X116035355Y-45735355D01*
X116027735Y-45741603D01*
X115427735Y-46141603D01*
X115419086Y-46146214D01*
X115409703Y-46149049D01*
X115400000Y-46150000D01*
X113600000Y-46150000D01*
X113590245Y-46149039D01*
X113580866Y-46146194D01*
X113572221Y-46141573D01*
X113564645Y-46135355D01*
X113558427Y-46127779D01*
X113553806Y-46119134D01*
X113550961Y-46109755D01*
X113550000Y-46100000D01*
X113550000Y-45650000D01*
X112950000Y-45650000D01*
X112950000Y-44150000D01*
X113550000Y-44150000D01*
X113550000Y-43700000D01*
X113550961Y-43690245D01*
X113553806Y-43680866D01*
X113558427Y-43672221D01*
X113564645Y-43664645D01*
X113572221Y-43658427D01*
X113580866Y-43653806D01*
X113590245Y-43650961D01*
X113600000Y-43650000D01*
X116000000Y-43650000D01*
X116009755Y-43650961D01*
G37*
G36*
X128609755Y-46250961D02*
G01*
X128619134Y-46253806D01*
X128627779Y-46258427D01*
X128635355Y-46264645D01*
X128641573Y-46272221D01*
X128646194Y-46280866D01*
X128649039Y-46290245D01*
X128650000Y-46300000D01*
X128650000Y-46750000D01*
X129350000Y-46750000D01*
X129350000Y-48250000D01*
X128650000Y-48250000D01*
X128650000Y-48700000D01*
X128649039Y-48709755D01*
X128646194Y-48719134D01*
X128641573Y-48727779D01*
X128635355Y-48735355D01*
X128627779Y-48741573D01*
X128619134Y-48746194D01*
X128609755Y-48749039D01*
X128600000Y-48750000D01*
X126200000Y-48750000D01*
X126190245Y-48749039D01*
X126180866Y-48746194D01*
X126172221Y-48741573D01*
X126164645Y-48735355D01*
X126158427Y-48727779D01*
X126153806Y-48719134D01*
X126150961Y-48709755D01*
X126150000Y-48700000D01*
X126150000Y-46300000D01*
X126150961Y-46290245D01*
X126153806Y-46280866D01*
X126158427Y-46272221D01*
X126164645Y-46264645D01*
X126172221Y-46258427D01*
X126180866Y-46253806D01*
X126190245Y-46250961D01*
X126200000Y-46250000D01*
X128600000Y-46250000D01*
X128609755Y-46250961D01*
G37*
D14*
X116690000Y-47459999D03*
D15*
X115420000Y-50000000D03*
X125580000Y-50000000D03*
D16*
X126000000Y-50000000D03*
X115000000Y-50000000D03*
D17*
X120500000Y-50000000D03*
D14*
X123040000Y-44920000D03*
X120500000Y-55900000D03*
X115500000Y-53700000D03*
D18*
X128600000Y-53700000D03*
D19*
X117700000Y-55900000D03*
D14*
X125500000Y-53700000D03*
X117960000Y-44920000D03*
X124310000Y-47460000D03*
D13*
G36*
X135009755Y-41250961D02*
G01*
X135019134Y-41253806D01*
X135027779Y-41258427D01*
X135035355Y-41264645D01*
X135041573Y-41272221D01*
X135046194Y-41280866D01*
X135049039Y-41290245D01*
X135050000Y-41300000D01*
X135050000Y-43300000D01*
X135049039Y-43309755D01*
X135046194Y-43319134D01*
X135041573Y-43327779D01*
X135035355Y-43335355D01*
X135027735Y-43341603D01*
X134427735Y-43741603D01*
X134419086Y-43746214D01*
X134409703Y-43749049D01*
X134400000Y-43750000D01*
X132600000Y-43750000D01*
X132590245Y-43749039D01*
X132580866Y-43746194D01*
X132572221Y-43741573D01*
X132564645Y-43735355D01*
X132558427Y-43727779D01*
X132553806Y-43719134D01*
X132550961Y-43709755D01*
X132550000Y-43700000D01*
X132550000Y-43250000D01*
X131950000Y-43250000D01*
X131950000Y-41750000D01*
X132550000Y-41750000D01*
X132550000Y-41300000D01*
X132550961Y-41290245D01*
X132553806Y-41280866D01*
X132558427Y-41272221D01*
X132564645Y-41264645D01*
X132572221Y-41258427D01*
X132580866Y-41253806D01*
X132590245Y-41250961D01*
X132600000Y-41250000D01*
X135000000Y-41250000D01*
X135009755Y-41250961D01*
G37*
G36*
X147609755Y-43850961D02*
G01*
X147619134Y-43853806D01*
X147627779Y-43858427D01*
X147635355Y-43864645D01*
X147641573Y-43872221D01*
X147646194Y-43880866D01*
X147649039Y-43890245D01*
X147650000Y-43900000D01*
X147650000Y-44350000D01*
X148350000Y-44350000D01*
X148350000Y-45850000D01*
X147650000Y-45850000D01*
X147650000Y-46300000D01*
X147649039Y-46309755D01*
X147646194Y-46319134D01*
X147641573Y-46327779D01*
X147635355Y-46335355D01*
X147627779Y-46341573D01*
X147619134Y-46346194D01*
X147609755Y-46349039D01*
X147600000Y-46350000D01*
X145200000Y-46350000D01*
X145190245Y-46349039D01*
X145180866Y-46346194D01*
X145172221Y-46341573D01*
X145164645Y-46335355D01*
X145158427Y-46327779D01*
X145153806Y-46319134D01*
X145150961Y-46309755D01*
X145150000Y-46300000D01*
X145150000Y-43900000D01*
X145150961Y-43890245D01*
X145153806Y-43880866D01*
X145158427Y-43872221D01*
X145164645Y-43864645D01*
X145172221Y-43858427D01*
X145180866Y-43853806D01*
X145190245Y-43850961D01*
X145200000Y-43850000D01*
X147600000Y-43850000D01*
X147609755Y-43850961D01*
G37*
D14*
X135690000Y-45059999D03*
D15*
X134420000Y-47600000D03*
X144580000Y-47600000D03*
D16*
X145000000Y-47600000D03*
X134000000Y-47600000D03*
D17*
X139500000Y-47600000D03*
D14*
X142040000Y-42520000D03*
X139500000Y-53500000D03*
X134500000Y-51300000D03*
D18*
X147600000Y-51300000D03*
D19*
X136700000Y-53500000D03*
D14*
X144500000Y-51300000D03*
X136960000Y-42520000D03*
X143310000Y-45060000D03*
D13*
G36*
X154109755Y-39860961D02*
G01*
X154119134Y-39863806D01*
X154127779Y-39868427D01*
X154135355Y-39874645D01*
X154141573Y-39882221D01*
X154146194Y-39890866D01*
X154149039Y-39900245D01*
X154150000Y-39910000D01*
X154150000Y-41910000D01*
X154149039Y-41919755D01*
X154146194Y-41929134D01*
X154141573Y-41937779D01*
X154135355Y-41945355D01*
X154127735Y-41951603D01*
X153527735Y-42351603D01*
X153519086Y-42356214D01*
X153509703Y-42359049D01*
X153500000Y-42360000D01*
X151700000Y-42360000D01*
X151690245Y-42359039D01*
X151680866Y-42356194D01*
X151672221Y-42351573D01*
X151664645Y-42345355D01*
X151658427Y-42337779D01*
X151653806Y-42329134D01*
X151650961Y-42319755D01*
X151650000Y-42310000D01*
X151650000Y-41860000D01*
X151050000Y-41860000D01*
X151050000Y-40360000D01*
X151650000Y-40360000D01*
X151650000Y-39910000D01*
X151650961Y-39900245D01*
X151653806Y-39890866D01*
X151658427Y-39882221D01*
X151664645Y-39874645D01*
X151672221Y-39868427D01*
X151680866Y-39863806D01*
X151690245Y-39860961D01*
X151700000Y-39860000D01*
X154100000Y-39860000D01*
X154109755Y-39860961D01*
G37*
G36*
X166709755Y-42460961D02*
G01*
X166719134Y-42463806D01*
X166727779Y-42468427D01*
X166735355Y-42474645D01*
X166741573Y-42482221D01*
X166746194Y-42490866D01*
X166749039Y-42500245D01*
X166750000Y-42510000D01*
X166750000Y-42960000D01*
X167450000Y-42960000D01*
X167450000Y-44460000D01*
X166750000Y-44460000D01*
X166750000Y-44910000D01*
X166749039Y-44919755D01*
X166746194Y-44929134D01*
X166741573Y-44937779D01*
X166735355Y-44945355D01*
X166727779Y-44951573D01*
X166719134Y-44956194D01*
X166709755Y-44959039D01*
X166700000Y-44960000D01*
X164300000Y-44960000D01*
X164290245Y-44959039D01*
X164280866Y-44956194D01*
X164272221Y-44951573D01*
X164264645Y-44945355D01*
X164258427Y-44937779D01*
X164253806Y-44929134D01*
X164250961Y-44919755D01*
X164250000Y-44910000D01*
X164250000Y-42510000D01*
X164250961Y-42500245D01*
X164253806Y-42490866D01*
X164258427Y-42482221D01*
X164264645Y-42474645D01*
X164272221Y-42468427D01*
X164280866Y-42463806D01*
X164290245Y-42460961D01*
X164300000Y-42460000D01*
X166700000Y-42460000D01*
X166709755Y-42460961D01*
G37*
D14*
X154790000Y-43669999D03*
D15*
X153520000Y-46210000D03*
X163680000Y-46210000D03*
D16*
X164100000Y-46210000D03*
X153100000Y-46210000D03*
D17*
X158600000Y-46210000D03*
D14*
X161140000Y-41130000D03*
X158600000Y-52110000D03*
X153600000Y-49910000D03*
D18*
X166700000Y-49910000D03*
D19*
X155800000Y-52110000D03*
D14*
X163600000Y-49910000D03*
X156060000Y-41130000D03*
X162410000Y-43670000D03*
D13*
G36*
X173109755Y-41250961D02*
G01*
X173119134Y-41253806D01*
X173127779Y-41258427D01*
X173135355Y-41264645D01*
X173141573Y-41272221D01*
X173146194Y-41280866D01*
X173149039Y-41290245D01*
X173150000Y-41300000D01*
X173150000Y-43300000D01*
X173149039Y-43309755D01*
X173146194Y-43319134D01*
X173141573Y-43327779D01*
X173135355Y-43335355D01*
X173127735Y-43341603D01*
X172527735Y-43741603D01*
X172519086Y-43746214D01*
X172509703Y-43749049D01*
X172500000Y-43750000D01*
X170700000Y-43750000D01*
X170690245Y-43749039D01*
X170680866Y-43746194D01*
X170672221Y-43741573D01*
X170664645Y-43735355D01*
X170658427Y-43727779D01*
X170653806Y-43719134D01*
X170650961Y-43709755D01*
X170650000Y-43700000D01*
X170650000Y-43250000D01*
X170050000Y-43250000D01*
X170050000Y-41750000D01*
X170650000Y-41750000D01*
X170650000Y-41300000D01*
X170650961Y-41290245D01*
X170653806Y-41280866D01*
X170658427Y-41272221D01*
X170664645Y-41264645D01*
X170672221Y-41258427D01*
X170680866Y-41253806D01*
X170690245Y-41250961D01*
X170700000Y-41250000D01*
X173100000Y-41250000D01*
X173109755Y-41250961D01*
G37*
G36*
X185709755Y-43850961D02*
G01*
X185719134Y-43853806D01*
X185727779Y-43858427D01*
X185735355Y-43864645D01*
X185741573Y-43872221D01*
X185746194Y-43880866D01*
X185749039Y-43890245D01*
X185750000Y-43900000D01*
X185750000Y-44350000D01*
X186450000Y-44350000D01*
X186450000Y-45850000D01*
X185750000Y-45850000D01*
X185750000Y-46300000D01*
X185749039Y-46309755D01*
X185746194Y-46319134D01*
X185741573Y-46327779D01*
X185735355Y-46335355D01*
X185727779Y-46341573D01*
X185719134Y-46346194D01*
X185709755Y-46349039D01*
X185700000Y-46350000D01*
X183300000Y-46350000D01*
X183290245Y-46349039D01*
X183280866Y-46346194D01*
X183272221Y-46341573D01*
X183264645Y-46335355D01*
X183258427Y-46327779D01*
X183253806Y-46319134D01*
X183250961Y-46309755D01*
X183250000Y-46300000D01*
X183250000Y-43900000D01*
X183250961Y-43890245D01*
X183253806Y-43880866D01*
X183258427Y-43872221D01*
X183264645Y-43864645D01*
X183272221Y-43858427D01*
X183280866Y-43853806D01*
X183290245Y-43850961D01*
X183300000Y-43850000D01*
X185700000Y-43850000D01*
X185709755Y-43850961D01*
G37*
D14*
X173790000Y-45059999D03*
D15*
X172520000Y-47600000D03*
X182680000Y-47600000D03*
D16*
X183100000Y-47600000D03*
X172100000Y-47600000D03*
D17*
X177600000Y-47600000D03*
D14*
X180140000Y-42520000D03*
X177600000Y-53500000D03*
X172600000Y-51300000D03*
D18*
X185700000Y-51300000D03*
D19*
X174800000Y-53500000D03*
D14*
X182600000Y-51300000D03*
X175060000Y-42520000D03*
X181410000Y-45060000D03*
D13*
G36*
X192209755Y-46050961D02*
G01*
X192219134Y-46053806D01*
X192227779Y-46058427D01*
X192235355Y-46064645D01*
X192241573Y-46072221D01*
X192246194Y-46080866D01*
X192249039Y-46090245D01*
X192250000Y-46100000D01*
X192250000Y-48100000D01*
X192249039Y-48109755D01*
X192246194Y-48119134D01*
X192241573Y-48127779D01*
X192235355Y-48135355D01*
X192227735Y-48141603D01*
X191627735Y-48541603D01*
X191619086Y-48546214D01*
X191609703Y-48549049D01*
X191600000Y-48550000D01*
X189800000Y-48550000D01*
X189790245Y-48549039D01*
X189780866Y-48546194D01*
X189772221Y-48541573D01*
X189764645Y-48535355D01*
X189758427Y-48527779D01*
X189753806Y-48519134D01*
X189750961Y-48509755D01*
X189750000Y-48500000D01*
X189750000Y-48050000D01*
X189150000Y-48050000D01*
X189150000Y-46550000D01*
X189750000Y-46550000D01*
X189750000Y-46100000D01*
X189750961Y-46090245D01*
X189753806Y-46080866D01*
X189758427Y-46072221D01*
X189764645Y-46064645D01*
X189772221Y-46058427D01*
X189780866Y-46053806D01*
X189790245Y-46050961D01*
X189800000Y-46050000D01*
X192200000Y-46050000D01*
X192209755Y-46050961D01*
G37*
G36*
X204809755Y-48650961D02*
G01*
X204819134Y-48653806D01*
X204827779Y-48658427D01*
X204835355Y-48664645D01*
X204841573Y-48672221D01*
X204846194Y-48680866D01*
X204849039Y-48690245D01*
X204850000Y-48700000D01*
X204850000Y-49150000D01*
X205550000Y-49150000D01*
X205550000Y-50650000D01*
X204850000Y-50650000D01*
X204850000Y-51100000D01*
X204849039Y-51109755D01*
X204846194Y-51119134D01*
X204841573Y-51127779D01*
X204835355Y-51135355D01*
X204827779Y-51141573D01*
X204819134Y-51146194D01*
X204809755Y-51149039D01*
X204800000Y-51150000D01*
X202400000Y-51150000D01*
X202390245Y-51149039D01*
X202380866Y-51146194D01*
X202372221Y-51141573D01*
X202364645Y-51135355D01*
X202358427Y-51127779D01*
X202353806Y-51119134D01*
X202350961Y-51109755D01*
X202350000Y-51100000D01*
X202350000Y-48700000D01*
X202350961Y-48690245D01*
X202353806Y-48680866D01*
X202358427Y-48672221D01*
X202364645Y-48664645D01*
X202372221Y-48658427D01*
X202380866Y-48653806D01*
X202390245Y-48650961D01*
X202400000Y-48650000D01*
X204800000Y-48650000D01*
X204809755Y-48650961D01*
G37*
D14*
X192890000Y-49859999D03*
D15*
X191620000Y-52400000D03*
X201780000Y-52400000D03*
D16*
X202200000Y-52400000D03*
X191200000Y-52400000D03*
D17*
X196700000Y-52400000D03*
D14*
X199240000Y-47320000D03*
X196700000Y-58300000D03*
X191700000Y-56100000D03*
D18*
X204800000Y-56100000D03*
D19*
X193900000Y-58300000D03*
D14*
X201700000Y-56100000D03*
X194160000Y-47320000D03*
X200510000Y-49860000D03*
D13*
G36*
X211209755Y-47550961D02*
G01*
X211219134Y-47553806D01*
X211227779Y-47558427D01*
X211235355Y-47564645D01*
X211241573Y-47572221D01*
X211246194Y-47580866D01*
X211249039Y-47590245D01*
X211250000Y-47600000D01*
X211250000Y-49600000D01*
X211249039Y-49609755D01*
X211246194Y-49619134D01*
X211241573Y-49627779D01*
X211235355Y-49635355D01*
X211227735Y-49641603D01*
X210627735Y-50041603D01*
X210619086Y-50046214D01*
X210609703Y-50049049D01*
X210600000Y-50050000D01*
X208800000Y-50050000D01*
X208790245Y-50049039D01*
X208780866Y-50046194D01*
X208772221Y-50041573D01*
X208764645Y-50035355D01*
X208758427Y-50027779D01*
X208753806Y-50019134D01*
X208750961Y-50009755D01*
X208750000Y-50000000D01*
X208750000Y-49550000D01*
X208150000Y-49550000D01*
X208150000Y-48050000D01*
X208750000Y-48050000D01*
X208750000Y-47600000D01*
X208750961Y-47590245D01*
X208753806Y-47580866D01*
X208758427Y-47572221D01*
X208764645Y-47564645D01*
X208772221Y-47558427D01*
X208780866Y-47553806D01*
X208790245Y-47550961D01*
X208800000Y-47550000D01*
X211200000Y-47550000D01*
X211209755Y-47550961D01*
G37*
G36*
X223809755Y-50150961D02*
G01*
X223819134Y-50153806D01*
X223827779Y-50158427D01*
X223835355Y-50164645D01*
X223841573Y-50172221D01*
X223846194Y-50180866D01*
X223849039Y-50190245D01*
X223850000Y-50200000D01*
X223850000Y-50650000D01*
X224550000Y-50650000D01*
X224550000Y-52150000D01*
X223850000Y-52150000D01*
X223850000Y-52600000D01*
X223849039Y-52609755D01*
X223846194Y-52619134D01*
X223841573Y-52627779D01*
X223835355Y-52635355D01*
X223827779Y-52641573D01*
X223819134Y-52646194D01*
X223809755Y-52649039D01*
X223800000Y-52650000D01*
X221400000Y-52650000D01*
X221390245Y-52649039D01*
X221380866Y-52646194D01*
X221372221Y-52641573D01*
X221364645Y-52635355D01*
X221358427Y-52627779D01*
X221353806Y-52619134D01*
X221350961Y-52609755D01*
X221350000Y-52600000D01*
X221350000Y-50200000D01*
X221350961Y-50190245D01*
X221353806Y-50180866D01*
X221358427Y-50172221D01*
X221364645Y-50164645D01*
X221372221Y-50158427D01*
X221380866Y-50153806D01*
X221390245Y-50150961D01*
X221400000Y-50150000D01*
X223800000Y-50150000D01*
X223809755Y-50150961D01*
G37*
D14*
X211890000Y-51359999D03*
D15*
X210620000Y-53900000D03*
X220780000Y-53900000D03*
D16*
X221200000Y-53900000D03*
X210200000Y-53900000D03*
D17*
X215700000Y-53900000D03*
D14*
X218240000Y-48820000D03*
X215700000Y-59800000D03*
X210700000Y-57600000D03*
D18*
X223800000Y-57600000D03*
D19*
X212900000Y-59800000D03*
D14*
X220700000Y-57600000D03*
X213160000Y-48820000D03*
X219510000Y-51360000D03*
D13*
G36*
X116009755Y-62750961D02*
G01*
X116019134Y-62753806D01*
X116027779Y-62758427D01*
X116035355Y-62764645D01*
X116041573Y-62772221D01*
X116046194Y-62780866D01*
X116049039Y-62790245D01*
X116050000Y-62800000D01*
X116050000Y-64800000D01*
X116049039Y-64809755D01*
X116046194Y-64819134D01*
X116041573Y-64827779D01*
X116035355Y-64835355D01*
X116027735Y-64841603D01*
X115427735Y-65241603D01*
X115419086Y-65246214D01*
X115409703Y-65249049D01*
X115400000Y-65250000D01*
X113600000Y-65250000D01*
X113590245Y-65249039D01*
X113580866Y-65246194D01*
X113572221Y-65241573D01*
X113564645Y-65235355D01*
X113558427Y-65227779D01*
X113553806Y-65219134D01*
X113550961Y-65209755D01*
X113550000Y-65200000D01*
X113550000Y-64750000D01*
X112950000Y-64750000D01*
X112950000Y-63250000D01*
X113550000Y-63250000D01*
X113550000Y-62800000D01*
X113550961Y-62790245D01*
X113553806Y-62780866D01*
X113558427Y-62772221D01*
X113564645Y-62764645D01*
X113572221Y-62758427D01*
X113580866Y-62753806D01*
X113590245Y-62750961D01*
X113600000Y-62750000D01*
X116000000Y-62750000D01*
X116009755Y-62750961D01*
G37*
G36*
X128609755Y-65350961D02*
G01*
X128619134Y-65353806D01*
X128627779Y-65358427D01*
X128635355Y-65364645D01*
X128641573Y-65372221D01*
X128646194Y-65380866D01*
X128649039Y-65390245D01*
X128650000Y-65400000D01*
X128650000Y-65850000D01*
X129350000Y-65850000D01*
X129350000Y-67350000D01*
X128650000Y-67350000D01*
X128650000Y-67800000D01*
X128649039Y-67809755D01*
X128646194Y-67819134D01*
X128641573Y-67827779D01*
X128635355Y-67835355D01*
X128627779Y-67841573D01*
X128619134Y-67846194D01*
X128609755Y-67849039D01*
X128600000Y-67850000D01*
X126200000Y-67850000D01*
X126190245Y-67849039D01*
X126180866Y-67846194D01*
X126172221Y-67841573D01*
X126164645Y-67835355D01*
X126158427Y-67827779D01*
X126153806Y-67819134D01*
X126150961Y-67809755D01*
X126150000Y-67800000D01*
X126150000Y-65400000D01*
X126150961Y-65390245D01*
X126153806Y-65380866D01*
X126158427Y-65372221D01*
X126164645Y-65364645D01*
X126172221Y-65358427D01*
X126180866Y-65353806D01*
X126190245Y-65350961D01*
X126200000Y-65350000D01*
X128600000Y-65350000D01*
X128609755Y-65350961D01*
G37*
D14*
X116690000Y-66559999D03*
D15*
X115420000Y-69100000D03*
X125580000Y-69100000D03*
D16*
X126000000Y-69100000D03*
X115000000Y-69100000D03*
D17*
X120500000Y-69100000D03*
D14*
X123040000Y-64020000D03*
X120500000Y-75000000D03*
X115500000Y-72800000D03*
D18*
X128600000Y-72800000D03*
D19*
X117700000Y-75000000D03*
D14*
X125500000Y-72800000D03*
X117960000Y-64020000D03*
X124310000Y-66560000D03*
D13*
G36*
X135009755Y-60350961D02*
G01*
X135019134Y-60353806D01*
X135027779Y-60358427D01*
X135035355Y-60364645D01*
X135041573Y-60372221D01*
X135046194Y-60380866D01*
X135049039Y-60390245D01*
X135050000Y-60400000D01*
X135050000Y-62400000D01*
X135049039Y-62409755D01*
X135046194Y-62419134D01*
X135041573Y-62427779D01*
X135035355Y-62435355D01*
X135027735Y-62441603D01*
X134427735Y-62841603D01*
X134419086Y-62846214D01*
X134409703Y-62849049D01*
X134400000Y-62850000D01*
X132600000Y-62850000D01*
X132590245Y-62849039D01*
X132580866Y-62846194D01*
X132572221Y-62841573D01*
X132564645Y-62835355D01*
X132558427Y-62827779D01*
X132553806Y-62819134D01*
X132550961Y-62809755D01*
X132550000Y-62800000D01*
X132550000Y-62350000D01*
X131950000Y-62350000D01*
X131950000Y-60850000D01*
X132550000Y-60850000D01*
X132550000Y-60400000D01*
X132550961Y-60390245D01*
X132553806Y-60380866D01*
X132558427Y-60372221D01*
X132564645Y-60364645D01*
X132572221Y-60358427D01*
X132580866Y-60353806D01*
X132590245Y-60350961D01*
X132600000Y-60350000D01*
X135000000Y-60350000D01*
X135009755Y-60350961D01*
G37*
G36*
X147609755Y-62950961D02*
G01*
X147619134Y-62953806D01*
X147627779Y-62958427D01*
X147635355Y-62964645D01*
X147641573Y-62972221D01*
X147646194Y-62980866D01*
X147649039Y-62990245D01*
X147650000Y-63000000D01*
X147650000Y-63450000D01*
X148350000Y-63450000D01*
X148350000Y-64950000D01*
X147650000Y-64950000D01*
X147650000Y-65400000D01*
X147649039Y-65409755D01*
X147646194Y-65419134D01*
X147641573Y-65427779D01*
X147635355Y-65435355D01*
X147627779Y-65441573D01*
X147619134Y-65446194D01*
X147609755Y-65449039D01*
X147600000Y-65450000D01*
X145200000Y-65450000D01*
X145190245Y-65449039D01*
X145180866Y-65446194D01*
X145172221Y-65441573D01*
X145164645Y-65435355D01*
X145158427Y-65427779D01*
X145153806Y-65419134D01*
X145150961Y-65409755D01*
X145150000Y-65400000D01*
X145150000Y-63000000D01*
X145150961Y-62990245D01*
X145153806Y-62980866D01*
X145158427Y-62972221D01*
X145164645Y-62964645D01*
X145172221Y-62958427D01*
X145180866Y-62953806D01*
X145190245Y-62950961D01*
X145200000Y-62950000D01*
X147600000Y-62950000D01*
X147609755Y-62950961D01*
G37*
D14*
X135690000Y-64159999D03*
D15*
X134420000Y-66700000D03*
X144580000Y-66700000D03*
D16*
X145000000Y-66700000D03*
X134000000Y-66700000D03*
D17*
X139500000Y-66700000D03*
D14*
X142040000Y-61620000D03*
X139500000Y-72600000D03*
X134500000Y-70400000D03*
D18*
X147600000Y-70400000D03*
D19*
X136700000Y-72600000D03*
D14*
X144500000Y-70400000D03*
X136960000Y-61620000D03*
X143310000Y-64160000D03*
D13*
G36*
X154109755Y-58950961D02*
G01*
X154119134Y-58953806D01*
X154127779Y-58958427D01*
X154135355Y-58964645D01*
X154141573Y-58972221D01*
X154146194Y-58980866D01*
X154149039Y-58990245D01*
X154150000Y-59000000D01*
X154150000Y-61000000D01*
X154149039Y-61009755D01*
X154146194Y-61019134D01*
X154141573Y-61027779D01*
X154135355Y-61035355D01*
X154127735Y-61041603D01*
X153527735Y-61441603D01*
X153519086Y-61446214D01*
X153509703Y-61449049D01*
X153500000Y-61450000D01*
X151700000Y-61450000D01*
X151690245Y-61449039D01*
X151680866Y-61446194D01*
X151672221Y-61441573D01*
X151664645Y-61435355D01*
X151658427Y-61427779D01*
X151653806Y-61419134D01*
X151650961Y-61409755D01*
X151650000Y-61400000D01*
X151650000Y-60950000D01*
X151050000Y-60950000D01*
X151050000Y-59450000D01*
X151650000Y-59450000D01*
X151650000Y-59000000D01*
X151650961Y-58990245D01*
X151653806Y-58980866D01*
X151658427Y-58972221D01*
X151664645Y-58964645D01*
X151672221Y-58958427D01*
X151680866Y-58953806D01*
X151690245Y-58950961D01*
X151700000Y-58950000D01*
X154100000Y-58950000D01*
X154109755Y-58950961D01*
G37*
G36*
X166709755Y-61550961D02*
G01*
X166719134Y-61553806D01*
X166727779Y-61558427D01*
X166735355Y-61564645D01*
X166741573Y-61572221D01*
X166746194Y-61580866D01*
X166749039Y-61590245D01*
X166750000Y-61600000D01*
X166750000Y-62050000D01*
X167450000Y-62050000D01*
X167450000Y-63550000D01*
X166750000Y-63550000D01*
X166750000Y-64000000D01*
X166749039Y-64009755D01*
X166746194Y-64019134D01*
X166741573Y-64027779D01*
X166735355Y-64035355D01*
X166727779Y-64041573D01*
X166719134Y-64046194D01*
X166709755Y-64049039D01*
X166700000Y-64050000D01*
X164300000Y-64050000D01*
X164290245Y-64049039D01*
X164280866Y-64046194D01*
X164272221Y-64041573D01*
X164264645Y-64035355D01*
X164258427Y-64027779D01*
X164253806Y-64019134D01*
X164250961Y-64009755D01*
X164250000Y-64000000D01*
X164250000Y-61600000D01*
X164250961Y-61590245D01*
X164253806Y-61580866D01*
X164258427Y-61572221D01*
X164264645Y-61564645D01*
X164272221Y-61558427D01*
X164280866Y-61553806D01*
X164290245Y-61550961D01*
X164300000Y-61550000D01*
X166700000Y-61550000D01*
X166709755Y-61550961D01*
G37*
D14*
X154790000Y-62759999D03*
D15*
X153520000Y-65300000D03*
X163680000Y-65300000D03*
D16*
X164100000Y-65300000D03*
X153100000Y-65300000D03*
D17*
X158600000Y-65300000D03*
D14*
X161140000Y-60220000D03*
X158600000Y-71200000D03*
X153600000Y-69000000D03*
D18*
X166700000Y-69000000D03*
D19*
X155800000Y-71200000D03*
D14*
X163600000Y-69000000D03*
X156060000Y-60220000D03*
X162410000Y-62760000D03*
D13*
G36*
X173109755Y-60250961D02*
G01*
X173119134Y-60253806D01*
X173127779Y-60258427D01*
X173135355Y-60264645D01*
X173141573Y-60272221D01*
X173146194Y-60280866D01*
X173149039Y-60290245D01*
X173150000Y-60300000D01*
X173150000Y-62300000D01*
X173149039Y-62309755D01*
X173146194Y-62319134D01*
X173141573Y-62327779D01*
X173135355Y-62335355D01*
X173127735Y-62341603D01*
X172527735Y-62741603D01*
X172519086Y-62746214D01*
X172509703Y-62749049D01*
X172500000Y-62750000D01*
X170700000Y-62750000D01*
X170690245Y-62749039D01*
X170680866Y-62746194D01*
X170672221Y-62741573D01*
X170664645Y-62735355D01*
X170658427Y-62727779D01*
X170653806Y-62719134D01*
X170650961Y-62709755D01*
X170650000Y-62700000D01*
X170650000Y-62250000D01*
X170050000Y-62250000D01*
X170050000Y-60750000D01*
X170650000Y-60750000D01*
X170650000Y-60300000D01*
X170650961Y-60290245D01*
X170653806Y-60280866D01*
X170658427Y-60272221D01*
X170664645Y-60264645D01*
X170672221Y-60258427D01*
X170680866Y-60253806D01*
X170690245Y-60250961D01*
X170700000Y-60250000D01*
X173100000Y-60250000D01*
X173109755Y-60250961D01*
G37*
G36*
X185709755Y-62850961D02*
G01*
X185719134Y-62853806D01*
X185727779Y-62858427D01*
X185735355Y-62864645D01*
X185741573Y-62872221D01*
X185746194Y-62880866D01*
X185749039Y-62890245D01*
X185750000Y-62900000D01*
X185750000Y-63350000D01*
X186450000Y-63350000D01*
X186450000Y-64850000D01*
X185750000Y-64850000D01*
X185750000Y-65300000D01*
X185749039Y-65309755D01*
X185746194Y-65319134D01*
X185741573Y-65327779D01*
X185735355Y-65335355D01*
X185727779Y-65341573D01*
X185719134Y-65346194D01*
X185709755Y-65349039D01*
X185700000Y-65350000D01*
X183300000Y-65350000D01*
X183290245Y-65349039D01*
X183280866Y-65346194D01*
X183272221Y-65341573D01*
X183264645Y-65335355D01*
X183258427Y-65327779D01*
X183253806Y-65319134D01*
X183250961Y-65309755D01*
X183250000Y-65300000D01*
X183250000Y-62900000D01*
X183250961Y-62890245D01*
X183253806Y-62880866D01*
X183258427Y-62872221D01*
X183264645Y-62864645D01*
X183272221Y-62858427D01*
X183280866Y-62853806D01*
X183290245Y-62850961D01*
X183300000Y-62850000D01*
X185700000Y-62850000D01*
X185709755Y-62850961D01*
G37*
D14*
X173790000Y-64059999D03*
D15*
X172520000Y-66600000D03*
X182680000Y-66600000D03*
D16*
X183100000Y-66600000D03*
X172100000Y-66600000D03*
D17*
X177600000Y-66600000D03*
D14*
X180140000Y-61520000D03*
X177600000Y-72500000D03*
X172600000Y-70300000D03*
D18*
X185700000Y-70300000D03*
D19*
X174800000Y-72500000D03*
D14*
X182600000Y-70300000D03*
X175060000Y-61520000D03*
X181410000Y-64060000D03*
D13*
G36*
X192209755Y-64950961D02*
G01*
X192219134Y-64953806D01*
X192227779Y-64958427D01*
X192235355Y-64964645D01*
X192241573Y-64972221D01*
X192246194Y-64980866D01*
X192249039Y-64990245D01*
X192250000Y-65000000D01*
X192250000Y-67000000D01*
X192249039Y-67009755D01*
X192246194Y-67019134D01*
X192241573Y-67027779D01*
X192235355Y-67035355D01*
X192227735Y-67041603D01*
X191627735Y-67441603D01*
X191619086Y-67446214D01*
X191609703Y-67449049D01*
X191600000Y-67450000D01*
X189800000Y-67450000D01*
X189790245Y-67449039D01*
X189780866Y-67446194D01*
X189772221Y-67441573D01*
X189764645Y-67435355D01*
X189758427Y-67427779D01*
X189753806Y-67419134D01*
X189750961Y-67409755D01*
X189750000Y-67400000D01*
X189750000Y-66950000D01*
X189150000Y-66950000D01*
X189150000Y-65450000D01*
X189750000Y-65450000D01*
X189750000Y-65000000D01*
X189750961Y-64990245D01*
X189753806Y-64980866D01*
X189758427Y-64972221D01*
X189764645Y-64964645D01*
X189772221Y-64958427D01*
X189780866Y-64953806D01*
X189790245Y-64950961D01*
X189800000Y-64950000D01*
X192200000Y-64950000D01*
X192209755Y-64950961D01*
G37*
G36*
X204809755Y-67550961D02*
G01*
X204819134Y-67553806D01*
X204827779Y-67558427D01*
X204835355Y-67564645D01*
X204841573Y-67572221D01*
X204846194Y-67580866D01*
X204849039Y-67590245D01*
X204850000Y-67600000D01*
X204850000Y-68050000D01*
X205550000Y-68050000D01*
X205550000Y-69550000D01*
X204850000Y-69550000D01*
X204850000Y-70000000D01*
X204849039Y-70009755D01*
X204846194Y-70019134D01*
X204841573Y-70027779D01*
X204835355Y-70035355D01*
X204827779Y-70041573D01*
X204819134Y-70046194D01*
X204809755Y-70049039D01*
X204800000Y-70050000D01*
X202400000Y-70050000D01*
X202390245Y-70049039D01*
X202380866Y-70046194D01*
X202372221Y-70041573D01*
X202364645Y-70035355D01*
X202358427Y-70027779D01*
X202353806Y-70019134D01*
X202350961Y-70009755D01*
X202350000Y-70000000D01*
X202350000Y-67600000D01*
X202350961Y-67590245D01*
X202353806Y-67580866D01*
X202358427Y-67572221D01*
X202364645Y-67564645D01*
X202372221Y-67558427D01*
X202380866Y-67553806D01*
X202390245Y-67550961D01*
X202400000Y-67550000D01*
X204800000Y-67550000D01*
X204809755Y-67550961D01*
G37*
D14*
X192890000Y-68759999D03*
D15*
X191620000Y-71300000D03*
X201780000Y-71300000D03*
D16*
X202200000Y-71300000D03*
X191200000Y-71300000D03*
D17*
X196700000Y-71300000D03*
D14*
X199240000Y-66220000D03*
X196700000Y-77200000D03*
X191700000Y-75000000D03*
D18*
X204800000Y-75000000D03*
D19*
X193900000Y-77200000D03*
D14*
X201700000Y-75000000D03*
X194160000Y-66220000D03*
X200510000Y-68760000D03*
D13*
G36*
X211209755Y-66450961D02*
G01*
X211219134Y-66453806D01*
X211227779Y-66458427D01*
X211235355Y-66464645D01*
X211241573Y-66472221D01*
X211246194Y-66480866D01*
X211249039Y-66490245D01*
X211250000Y-66500000D01*
X211250000Y-68500000D01*
X211249039Y-68509755D01*
X211246194Y-68519134D01*
X211241573Y-68527779D01*
X211235355Y-68535355D01*
X211227735Y-68541603D01*
X210627735Y-68941603D01*
X210619086Y-68946214D01*
X210609703Y-68949049D01*
X210600000Y-68950000D01*
X208800000Y-68950000D01*
X208790245Y-68949039D01*
X208780866Y-68946194D01*
X208772221Y-68941573D01*
X208764645Y-68935355D01*
X208758427Y-68927779D01*
X208753806Y-68919134D01*
X208750961Y-68909755D01*
X208750000Y-68900000D01*
X208750000Y-68450000D01*
X208150000Y-68450000D01*
X208150000Y-66950000D01*
X208750000Y-66950000D01*
X208750000Y-66500000D01*
X208750961Y-66490245D01*
X208753806Y-66480866D01*
X208758427Y-66472221D01*
X208764645Y-66464645D01*
X208772221Y-66458427D01*
X208780866Y-66453806D01*
X208790245Y-66450961D01*
X208800000Y-66450000D01*
X211200000Y-66450000D01*
X211209755Y-66450961D01*
G37*
G36*
X223809755Y-69050961D02*
G01*
X223819134Y-69053806D01*
X223827779Y-69058427D01*
X223835355Y-69064645D01*
X223841573Y-69072221D01*
X223846194Y-69080866D01*
X223849039Y-69090245D01*
X223850000Y-69100000D01*
X223850000Y-69550000D01*
X224550000Y-69550000D01*
X224550000Y-71050000D01*
X223850000Y-71050000D01*
X223850000Y-71500000D01*
X223849039Y-71509755D01*
X223846194Y-71519134D01*
X223841573Y-71527779D01*
X223835355Y-71535355D01*
X223827779Y-71541573D01*
X223819134Y-71546194D01*
X223809755Y-71549039D01*
X223800000Y-71550000D01*
X221400000Y-71550000D01*
X221390245Y-71549039D01*
X221380866Y-71546194D01*
X221372221Y-71541573D01*
X221364645Y-71535355D01*
X221358427Y-71527779D01*
X221353806Y-71519134D01*
X221350961Y-71509755D01*
X221350000Y-71500000D01*
X221350000Y-69100000D01*
X221350961Y-69090245D01*
X221353806Y-69080866D01*
X221358427Y-69072221D01*
X221364645Y-69064645D01*
X221372221Y-69058427D01*
X221380866Y-69053806D01*
X221390245Y-69050961D01*
X221400000Y-69050000D01*
X223800000Y-69050000D01*
X223809755Y-69050961D01*
G37*
D14*
X211890000Y-70259999D03*
D15*
X210620000Y-72800000D03*
X220780000Y-72800000D03*
D16*
X221200000Y-72800000D03*
X210200000Y-72800000D03*
D17*
X215700000Y-72800000D03*
D14*
X218240000Y-67720000D03*
X215700000Y-78700000D03*
X210700000Y-76500000D03*
D18*
X223800000Y-76500000D03*
D19*
X212900000Y-78700000D03*
D14*
X220700000Y-76500000D03*
X213160000Y-67720000D03*
X219510000Y-70260000D03*
D13*
G36*
X116009755Y-81750961D02*
G01*
X116019134Y-81753806D01*
X116027779Y-81758427D01*
X116035355Y-81764645D01*
X116041573Y-81772221D01*
X116046194Y-81780866D01*
X116049039Y-81790245D01*
X116050000Y-81800000D01*
X116050000Y-83800000D01*
X116049039Y-83809755D01*
X116046194Y-83819134D01*
X116041573Y-83827779D01*
X116035355Y-83835355D01*
X116027735Y-83841603D01*
X115427735Y-84241603D01*
X115419086Y-84246214D01*
X115409703Y-84249049D01*
X115400000Y-84250000D01*
X113600000Y-84250000D01*
X113590245Y-84249039D01*
X113580866Y-84246194D01*
X113572221Y-84241573D01*
X113564645Y-84235355D01*
X113558427Y-84227779D01*
X113553806Y-84219134D01*
X113550961Y-84209755D01*
X113550000Y-84200000D01*
X113550000Y-83750000D01*
X112950000Y-83750000D01*
X112950000Y-82250000D01*
X113550000Y-82250000D01*
X113550000Y-81800000D01*
X113550961Y-81790245D01*
X113553806Y-81780866D01*
X113558427Y-81772221D01*
X113564645Y-81764645D01*
X113572221Y-81758427D01*
X113580866Y-81753806D01*
X113590245Y-81750961D01*
X113600000Y-81750000D01*
X116000000Y-81750000D01*
X116009755Y-81750961D01*
G37*
G36*
X128609755Y-84350961D02*
G01*
X128619134Y-84353806D01*
X128627779Y-84358427D01*
X128635355Y-84364645D01*
X128641573Y-84372221D01*
X128646194Y-84380866D01*
X128649039Y-84390245D01*
X128650000Y-84400000D01*
X128650000Y-84850000D01*
X129350000Y-84850000D01*
X129350000Y-86350000D01*
X128650000Y-86350000D01*
X128650000Y-86800000D01*
X128649039Y-86809755D01*
X128646194Y-86819134D01*
X128641573Y-86827779D01*
X128635355Y-86835355D01*
X128627779Y-86841573D01*
X128619134Y-86846194D01*
X128609755Y-86849039D01*
X128600000Y-86850000D01*
X126200000Y-86850000D01*
X126190245Y-86849039D01*
X126180866Y-86846194D01*
X126172221Y-86841573D01*
X126164645Y-86835355D01*
X126158427Y-86827779D01*
X126153806Y-86819134D01*
X126150961Y-86809755D01*
X126150000Y-86800000D01*
X126150000Y-84400000D01*
X126150961Y-84390245D01*
X126153806Y-84380866D01*
X126158427Y-84372221D01*
X126164645Y-84364645D01*
X126172221Y-84358427D01*
X126180866Y-84353806D01*
X126190245Y-84350961D01*
X126200000Y-84350000D01*
X128600000Y-84350000D01*
X128609755Y-84350961D01*
G37*
D14*
X116690000Y-85559999D03*
D15*
X115420000Y-88100000D03*
X125580000Y-88100000D03*
D16*
X126000000Y-88100000D03*
X115000000Y-88100000D03*
D17*
X120500000Y-88100000D03*
D14*
X123040000Y-83020000D03*
X120500000Y-94000000D03*
X115500000Y-91800000D03*
D18*
X128600000Y-91800000D03*
D19*
X117700000Y-94000000D03*
D14*
X125500000Y-91800000D03*
X117960000Y-83020000D03*
X124310000Y-85560000D03*
D13*
G36*
X135009755Y-79350961D02*
G01*
X135019134Y-79353806D01*
X135027779Y-79358427D01*
X135035355Y-79364645D01*
X135041573Y-79372221D01*
X135046194Y-79380866D01*
X135049039Y-79390245D01*
X135050000Y-79400000D01*
X135050000Y-81400000D01*
X135049039Y-81409755D01*
X135046194Y-81419134D01*
X135041573Y-81427779D01*
X135035355Y-81435355D01*
X135027735Y-81441603D01*
X134427735Y-81841603D01*
X134419086Y-81846214D01*
X134409703Y-81849049D01*
X134400000Y-81850000D01*
X132600000Y-81850000D01*
X132590245Y-81849039D01*
X132580866Y-81846194D01*
X132572221Y-81841573D01*
X132564645Y-81835355D01*
X132558427Y-81827779D01*
X132553806Y-81819134D01*
X132550961Y-81809755D01*
X132550000Y-81800000D01*
X132550000Y-81350000D01*
X131950000Y-81350000D01*
X131950000Y-79850000D01*
X132550000Y-79850000D01*
X132550000Y-79400000D01*
X132550961Y-79390245D01*
X132553806Y-79380866D01*
X132558427Y-79372221D01*
X132564645Y-79364645D01*
X132572221Y-79358427D01*
X132580866Y-79353806D01*
X132590245Y-79350961D01*
X132600000Y-79350000D01*
X135000000Y-79350000D01*
X135009755Y-79350961D01*
G37*
G36*
X147609755Y-81950961D02*
G01*
X147619134Y-81953806D01*
X147627779Y-81958427D01*
X147635355Y-81964645D01*
X147641573Y-81972221D01*
X147646194Y-81980866D01*
X147649039Y-81990245D01*
X147650000Y-82000000D01*
X147650000Y-82450000D01*
X148350000Y-82450000D01*
X148350000Y-83950000D01*
X147650000Y-83950000D01*
X147650000Y-84400000D01*
X147649039Y-84409755D01*
X147646194Y-84419134D01*
X147641573Y-84427779D01*
X147635355Y-84435355D01*
X147627779Y-84441573D01*
X147619134Y-84446194D01*
X147609755Y-84449039D01*
X147600000Y-84450000D01*
X145200000Y-84450000D01*
X145190245Y-84449039D01*
X145180866Y-84446194D01*
X145172221Y-84441573D01*
X145164645Y-84435355D01*
X145158427Y-84427779D01*
X145153806Y-84419134D01*
X145150961Y-84409755D01*
X145150000Y-84400000D01*
X145150000Y-82000000D01*
X145150961Y-81990245D01*
X145153806Y-81980866D01*
X145158427Y-81972221D01*
X145164645Y-81964645D01*
X145172221Y-81958427D01*
X145180866Y-81953806D01*
X145190245Y-81950961D01*
X145200000Y-81950000D01*
X147600000Y-81950000D01*
X147609755Y-81950961D01*
G37*
D14*
X135690000Y-83159999D03*
D15*
X134420000Y-85700000D03*
X144580000Y-85700000D03*
D16*
X145000000Y-85700000D03*
X134000000Y-85700000D03*
D17*
X139500000Y-85700000D03*
D14*
X142040000Y-80620000D03*
X139500000Y-91600000D03*
X134500000Y-89400000D03*
D18*
X147600000Y-89400000D03*
D19*
X136700000Y-91600000D03*
D14*
X144500000Y-89400000D03*
X136960000Y-80620000D03*
X143310000Y-83160000D03*
D13*
G36*
X154109755Y-78050961D02*
G01*
X154119134Y-78053806D01*
X154127779Y-78058427D01*
X154135355Y-78064645D01*
X154141573Y-78072221D01*
X154146194Y-78080866D01*
X154149039Y-78090245D01*
X154150000Y-78100000D01*
X154150000Y-80100000D01*
X154149039Y-80109755D01*
X154146194Y-80119134D01*
X154141573Y-80127779D01*
X154135355Y-80135355D01*
X154127735Y-80141603D01*
X153527735Y-80541603D01*
X153519086Y-80546214D01*
X153509703Y-80549049D01*
X153500000Y-80550000D01*
X151700000Y-80550000D01*
X151690245Y-80549039D01*
X151680866Y-80546194D01*
X151672221Y-80541573D01*
X151664645Y-80535355D01*
X151658427Y-80527779D01*
X151653806Y-80519134D01*
X151650961Y-80509755D01*
X151650000Y-80500000D01*
X151650000Y-80050000D01*
X151050000Y-80050000D01*
X151050000Y-78550000D01*
X151650000Y-78550000D01*
X151650000Y-78100000D01*
X151650961Y-78090245D01*
X151653806Y-78080866D01*
X151658427Y-78072221D01*
X151664645Y-78064645D01*
X151672221Y-78058427D01*
X151680866Y-78053806D01*
X151690245Y-78050961D01*
X151700000Y-78050000D01*
X154100000Y-78050000D01*
X154109755Y-78050961D01*
G37*
G36*
X166709755Y-80650961D02*
G01*
X166719134Y-80653806D01*
X166727779Y-80658427D01*
X166735355Y-80664645D01*
X166741573Y-80672221D01*
X166746194Y-80680866D01*
X166749039Y-80690245D01*
X166750000Y-80700000D01*
X166750000Y-81150000D01*
X167450000Y-81150000D01*
X167450000Y-82650000D01*
X166750000Y-82650000D01*
X166750000Y-83100000D01*
X166749039Y-83109755D01*
X166746194Y-83119134D01*
X166741573Y-83127779D01*
X166735355Y-83135355D01*
X166727779Y-83141573D01*
X166719134Y-83146194D01*
X166709755Y-83149039D01*
X166700000Y-83150000D01*
X164300000Y-83150000D01*
X164290245Y-83149039D01*
X164280866Y-83146194D01*
X164272221Y-83141573D01*
X164264645Y-83135355D01*
X164258427Y-83127779D01*
X164253806Y-83119134D01*
X164250961Y-83109755D01*
X164250000Y-83100000D01*
X164250000Y-80700000D01*
X164250961Y-80690245D01*
X164253806Y-80680866D01*
X164258427Y-80672221D01*
X164264645Y-80664645D01*
X164272221Y-80658427D01*
X164280866Y-80653806D01*
X164290245Y-80650961D01*
X164300000Y-80650000D01*
X166700000Y-80650000D01*
X166709755Y-80650961D01*
G37*
D14*
X154790000Y-81859999D03*
D15*
X153520000Y-84400000D03*
X163680000Y-84400000D03*
D16*
X164100000Y-84400000D03*
X153100000Y-84400000D03*
D17*
X158600000Y-84400000D03*
D14*
X161140000Y-79320000D03*
X158600000Y-90300000D03*
X153600000Y-88100000D03*
D18*
X166700000Y-88100000D03*
D19*
X155800000Y-90300000D03*
D14*
X163600000Y-88100000D03*
X156060000Y-79320000D03*
X162410000Y-81860000D03*
D13*
G36*
X173109755Y-79350961D02*
G01*
X173119134Y-79353806D01*
X173127779Y-79358427D01*
X173135355Y-79364645D01*
X173141573Y-79372221D01*
X173146194Y-79380866D01*
X173149039Y-79390245D01*
X173150000Y-79400000D01*
X173150000Y-81400000D01*
X173149039Y-81409755D01*
X173146194Y-81419134D01*
X173141573Y-81427779D01*
X173135355Y-81435355D01*
X173127735Y-81441603D01*
X172527735Y-81841603D01*
X172519086Y-81846214D01*
X172509703Y-81849049D01*
X172500000Y-81850000D01*
X170700000Y-81850000D01*
X170690245Y-81849039D01*
X170680866Y-81846194D01*
X170672221Y-81841573D01*
X170664645Y-81835355D01*
X170658427Y-81827779D01*
X170653806Y-81819134D01*
X170650961Y-81809755D01*
X170650000Y-81800000D01*
X170650000Y-81350000D01*
X170050000Y-81350000D01*
X170050000Y-79850000D01*
X170650000Y-79850000D01*
X170650000Y-79400000D01*
X170650961Y-79390245D01*
X170653806Y-79380866D01*
X170658427Y-79372221D01*
X170664645Y-79364645D01*
X170672221Y-79358427D01*
X170680866Y-79353806D01*
X170690245Y-79350961D01*
X170700000Y-79350000D01*
X173100000Y-79350000D01*
X173109755Y-79350961D01*
G37*
G36*
X185709755Y-81950961D02*
G01*
X185719134Y-81953806D01*
X185727779Y-81958427D01*
X185735355Y-81964645D01*
X185741573Y-81972221D01*
X185746194Y-81980866D01*
X185749039Y-81990245D01*
X185750000Y-82000000D01*
X185750000Y-82450000D01*
X186450000Y-82450000D01*
X186450000Y-83950000D01*
X185750000Y-83950000D01*
X185750000Y-84400000D01*
X185749039Y-84409755D01*
X185746194Y-84419134D01*
X185741573Y-84427779D01*
X185735355Y-84435355D01*
X185727779Y-84441573D01*
X185719134Y-84446194D01*
X185709755Y-84449039D01*
X185700000Y-84450000D01*
X183300000Y-84450000D01*
X183290245Y-84449039D01*
X183280866Y-84446194D01*
X183272221Y-84441573D01*
X183264645Y-84435355D01*
X183258427Y-84427779D01*
X183253806Y-84419134D01*
X183250961Y-84409755D01*
X183250000Y-84400000D01*
X183250000Y-82000000D01*
X183250961Y-81990245D01*
X183253806Y-81980866D01*
X183258427Y-81972221D01*
X183264645Y-81964645D01*
X183272221Y-81958427D01*
X183280866Y-81953806D01*
X183290245Y-81950961D01*
X183300000Y-81950000D01*
X185700000Y-81950000D01*
X185709755Y-81950961D01*
G37*
D14*
X173790000Y-83159999D03*
D15*
X172520000Y-85700000D03*
X182680000Y-85700000D03*
D16*
X183100000Y-85700000D03*
X172100000Y-85700000D03*
D17*
X177600000Y-85700000D03*
D14*
X180140000Y-80620000D03*
X177600000Y-91600000D03*
X172600000Y-89400000D03*
D18*
X185700000Y-89400000D03*
D19*
X174800000Y-91600000D03*
D14*
X182600000Y-89400000D03*
X175060000Y-80620000D03*
X181410000Y-83160000D03*
D13*
G36*
X192209755Y-84150961D02*
G01*
X192219134Y-84153806D01*
X192227779Y-84158427D01*
X192235355Y-84164645D01*
X192241573Y-84172221D01*
X192246194Y-84180866D01*
X192249039Y-84190245D01*
X192250000Y-84200000D01*
X192250000Y-86200000D01*
X192249039Y-86209755D01*
X192246194Y-86219134D01*
X192241573Y-86227779D01*
X192235355Y-86235355D01*
X192227735Y-86241603D01*
X191627735Y-86641603D01*
X191619086Y-86646214D01*
X191609703Y-86649049D01*
X191600000Y-86650000D01*
X189800000Y-86650000D01*
X189790245Y-86649039D01*
X189780866Y-86646194D01*
X189772221Y-86641573D01*
X189764645Y-86635355D01*
X189758427Y-86627779D01*
X189753806Y-86619134D01*
X189750961Y-86609755D01*
X189750000Y-86600000D01*
X189750000Y-86150000D01*
X189150000Y-86150000D01*
X189150000Y-84650000D01*
X189750000Y-84650000D01*
X189750000Y-84200000D01*
X189750961Y-84190245D01*
X189753806Y-84180866D01*
X189758427Y-84172221D01*
X189764645Y-84164645D01*
X189772221Y-84158427D01*
X189780866Y-84153806D01*
X189790245Y-84150961D01*
X189800000Y-84150000D01*
X192200000Y-84150000D01*
X192209755Y-84150961D01*
G37*
G36*
X204809755Y-86750961D02*
G01*
X204819134Y-86753806D01*
X204827779Y-86758427D01*
X204835355Y-86764645D01*
X204841573Y-86772221D01*
X204846194Y-86780866D01*
X204849039Y-86790245D01*
X204850000Y-86800000D01*
X204850000Y-87250000D01*
X205550000Y-87250000D01*
X205550000Y-88750000D01*
X204850000Y-88750000D01*
X204850000Y-89200000D01*
X204849039Y-89209755D01*
X204846194Y-89219134D01*
X204841573Y-89227779D01*
X204835355Y-89235355D01*
X204827779Y-89241573D01*
X204819134Y-89246194D01*
X204809755Y-89249039D01*
X204800000Y-89250000D01*
X202400000Y-89250000D01*
X202390245Y-89249039D01*
X202380866Y-89246194D01*
X202372221Y-89241573D01*
X202364645Y-89235355D01*
X202358427Y-89227779D01*
X202353806Y-89219134D01*
X202350961Y-89209755D01*
X202350000Y-89200000D01*
X202350000Y-86800000D01*
X202350961Y-86790245D01*
X202353806Y-86780866D01*
X202358427Y-86772221D01*
X202364645Y-86764645D01*
X202372221Y-86758427D01*
X202380866Y-86753806D01*
X202390245Y-86750961D01*
X202400000Y-86750000D01*
X204800000Y-86750000D01*
X204809755Y-86750961D01*
G37*
D14*
X192890000Y-87959999D03*
D15*
X191620000Y-90500000D03*
X201780000Y-90500000D03*
D16*
X202200000Y-90500000D03*
X191200000Y-90500000D03*
D17*
X196700000Y-90500000D03*
D14*
X199240000Y-85420000D03*
X196700000Y-96400000D03*
X191700000Y-94200000D03*
D18*
X204800000Y-94200000D03*
D19*
X193900000Y-96400000D03*
D14*
X201700000Y-94200000D03*
X194160000Y-85420000D03*
X200510000Y-87960000D03*
D13*
G36*
X211209755Y-85650961D02*
G01*
X211219134Y-85653806D01*
X211227779Y-85658427D01*
X211235355Y-85664645D01*
X211241573Y-85672221D01*
X211246194Y-85680866D01*
X211249039Y-85690245D01*
X211250000Y-85700000D01*
X211250000Y-87700000D01*
X211249039Y-87709755D01*
X211246194Y-87719134D01*
X211241573Y-87727779D01*
X211235355Y-87735355D01*
X211227735Y-87741603D01*
X210627735Y-88141603D01*
X210619086Y-88146214D01*
X210609703Y-88149049D01*
X210600000Y-88150000D01*
X208800000Y-88150000D01*
X208790245Y-88149039D01*
X208780866Y-88146194D01*
X208772221Y-88141573D01*
X208764645Y-88135355D01*
X208758427Y-88127779D01*
X208753806Y-88119134D01*
X208750961Y-88109755D01*
X208750000Y-88100000D01*
X208750000Y-87650000D01*
X208150000Y-87650000D01*
X208150000Y-86150000D01*
X208750000Y-86150000D01*
X208750000Y-85700000D01*
X208750961Y-85690245D01*
X208753806Y-85680866D01*
X208758427Y-85672221D01*
X208764645Y-85664645D01*
X208772221Y-85658427D01*
X208780866Y-85653806D01*
X208790245Y-85650961D01*
X208800000Y-85650000D01*
X211200000Y-85650000D01*
X211209755Y-85650961D01*
G37*
G36*
X223809755Y-88250961D02*
G01*
X223819134Y-88253806D01*
X223827779Y-88258427D01*
X223835355Y-88264645D01*
X223841573Y-88272221D01*
X223846194Y-88280866D01*
X223849039Y-88290245D01*
X223850000Y-88300000D01*
X223850000Y-88750000D01*
X224550000Y-88750000D01*
X224550000Y-90250000D01*
X223850000Y-90250000D01*
X223850000Y-90700000D01*
X223849039Y-90709755D01*
X223846194Y-90719134D01*
X223841573Y-90727779D01*
X223835355Y-90735355D01*
X223827779Y-90741573D01*
X223819134Y-90746194D01*
X223809755Y-90749039D01*
X223800000Y-90750000D01*
X221400000Y-90750000D01*
X221390245Y-90749039D01*
X221380866Y-90746194D01*
X221372221Y-90741573D01*
X221364645Y-90735355D01*
X221358427Y-90727779D01*
X221353806Y-90719134D01*
X221350961Y-90709755D01*
X221350000Y-90700000D01*
X221350000Y-88300000D01*
X221350961Y-88290245D01*
X221353806Y-88280866D01*
X221358427Y-88272221D01*
X221364645Y-88264645D01*
X221372221Y-88258427D01*
X221380866Y-88253806D01*
X221390245Y-88250961D01*
X221400000Y-88250000D01*
X223800000Y-88250000D01*
X223809755Y-88250961D01*
G37*
D14*
X211890000Y-89459999D03*
D15*
X210620000Y-92000000D03*
X220780000Y-92000000D03*
D16*
X221200000Y-92000000D03*
X210200000Y-92000000D03*
D17*
X215700000Y-92000000D03*
D14*
X218240000Y-86920000D03*
X215700000Y-97900000D03*
X210700000Y-95700000D03*
D18*
X223800000Y-95700000D03*
D19*
X212900000Y-97900000D03*
D14*
X220700000Y-95700000D03*
X213160000Y-86920000D03*
X219510000Y-89460000D03*
D13*
G36*
X116009755Y-100750961D02*
G01*
X116019134Y-100753806D01*
X116027779Y-100758427D01*
X116035355Y-100764645D01*
X116041573Y-100772221D01*
X116046194Y-100780866D01*
X116049039Y-100790245D01*
X116050000Y-100800000D01*
X116050000Y-102800000D01*
X116049039Y-102809755D01*
X116046194Y-102819134D01*
X116041573Y-102827779D01*
X116035355Y-102835355D01*
X116027735Y-102841603D01*
X115427735Y-103241603D01*
X115419086Y-103246214D01*
X115409703Y-103249049D01*
X115400000Y-103250000D01*
X113600000Y-103250000D01*
X113590245Y-103249039D01*
X113580866Y-103246194D01*
X113572221Y-103241573D01*
X113564645Y-103235355D01*
X113558427Y-103227779D01*
X113553806Y-103219134D01*
X113550961Y-103209755D01*
X113550000Y-103200000D01*
X113550000Y-102750000D01*
X112950000Y-102750000D01*
X112950000Y-101250000D01*
X113550000Y-101250000D01*
X113550000Y-100800000D01*
X113550961Y-100790245D01*
X113553806Y-100780866D01*
X113558427Y-100772221D01*
X113564645Y-100764645D01*
X113572221Y-100758427D01*
X113580866Y-100753806D01*
X113590245Y-100750961D01*
X113600000Y-100750000D01*
X116000000Y-100750000D01*
X116009755Y-100750961D01*
G37*
G36*
X128609755Y-103350961D02*
G01*
X128619134Y-103353806D01*
X128627779Y-103358427D01*
X128635355Y-103364645D01*
X128641573Y-103372221D01*
X128646194Y-103380866D01*
X128649039Y-103390245D01*
X128650000Y-103400000D01*
X128650000Y-103850000D01*
X129350000Y-103850000D01*
X129350000Y-105350000D01*
X128650000Y-105350000D01*
X128650000Y-105800000D01*
X128649039Y-105809755D01*
X128646194Y-105819134D01*
X128641573Y-105827779D01*
X128635355Y-105835355D01*
X128627779Y-105841573D01*
X128619134Y-105846194D01*
X128609755Y-105849039D01*
X128600000Y-105850000D01*
X126200000Y-105850000D01*
X126190245Y-105849039D01*
X126180866Y-105846194D01*
X126172221Y-105841573D01*
X126164645Y-105835355D01*
X126158427Y-105827779D01*
X126153806Y-105819134D01*
X126150961Y-105809755D01*
X126150000Y-105800000D01*
X126150000Y-103400000D01*
X126150961Y-103390245D01*
X126153806Y-103380866D01*
X126158427Y-103372221D01*
X126164645Y-103364645D01*
X126172221Y-103358427D01*
X126180866Y-103353806D01*
X126190245Y-103350961D01*
X126200000Y-103350000D01*
X128600000Y-103350000D01*
X128609755Y-103350961D01*
G37*
D14*
X116690000Y-104559999D03*
D15*
X115420000Y-107100000D03*
X125580000Y-107100000D03*
D16*
X126000000Y-107100000D03*
X115000000Y-107100000D03*
D17*
X120500000Y-107100000D03*
D14*
X123040000Y-102020000D03*
X120500000Y-113000000D03*
X115500000Y-110800000D03*
D18*
X128600000Y-110800000D03*
D19*
X117700000Y-113000000D03*
D14*
X125500000Y-110800000D03*
X117960000Y-102020000D03*
X124310000Y-104560000D03*
D13*
G36*
X135009755Y-98450961D02*
G01*
X135019134Y-98453806D01*
X135027779Y-98458427D01*
X135035355Y-98464645D01*
X135041573Y-98472221D01*
X135046194Y-98480866D01*
X135049039Y-98490245D01*
X135050000Y-98500000D01*
X135050000Y-100500000D01*
X135049039Y-100509755D01*
X135046194Y-100519134D01*
X135041573Y-100527779D01*
X135035355Y-100535355D01*
X135027735Y-100541603D01*
X134427735Y-100941603D01*
X134419086Y-100946214D01*
X134409703Y-100949049D01*
X134400000Y-100950000D01*
X132600000Y-100950000D01*
X132590245Y-100949039D01*
X132580866Y-100946194D01*
X132572221Y-100941573D01*
X132564645Y-100935355D01*
X132558427Y-100927779D01*
X132553806Y-100919134D01*
X132550961Y-100909755D01*
X132550000Y-100900000D01*
X132550000Y-100450000D01*
X131950000Y-100450000D01*
X131950000Y-98950000D01*
X132550000Y-98950000D01*
X132550000Y-98500000D01*
X132550961Y-98490245D01*
X132553806Y-98480866D01*
X132558427Y-98472221D01*
X132564645Y-98464645D01*
X132572221Y-98458427D01*
X132580866Y-98453806D01*
X132590245Y-98450961D01*
X132600000Y-98450000D01*
X135000000Y-98450000D01*
X135009755Y-98450961D01*
G37*
G36*
X147609755Y-101050961D02*
G01*
X147619134Y-101053806D01*
X147627779Y-101058427D01*
X147635355Y-101064645D01*
X147641573Y-101072221D01*
X147646194Y-101080866D01*
X147649039Y-101090245D01*
X147650000Y-101100000D01*
X147650000Y-101550000D01*
X148350000Y-101550000D01*
X148350000Y-103050000D01*
X147650000Y-103050000D01*
X147650000Y-103500000D01*
X147649039Y-103509755D01*
X147646194Y-103519134D01*
X147641573Y-103527779D01*
X147635355Y-103535355D01*
X147627779Y-103541573D01*
X147619134Y-103546194D01*
X147609755Y-103549039D01*
X147600000Y-103550000D01*
X145200000Y-103550000D01*
X145190245Y-103549039D01*
X145180866Y-103546194D01*
X145172221Y-103541573D01*
X145164645Y-103535355D01*
X145158427Y-103527779D01*
X145153806Y-103519134D01*
X145150961Y-103509755D01*
X145150000Y-103500000D01*
X145150000Y-101100000D01*
X145150961Y-101090245D01*
X145153806Y-101080866D01*
X145158427Y-101072221D01*
X145164645Y-101064645D01*
X145172221Y-101058427D01*
X145180866Y-101053806D01*
X145190245Y-101050961D01*
X145200000Y-101050000D01*
X147600000Y-101050000D01*
X147609755Y-101050961D01*
G37*
D14*
X135690000Y-102259999D03*
D15*
X134420000Y-104800000D03*
X144580000Y-104800000D03*
D16*
X145000000Y-104800000D03*
X134000000Y-104800000D03*
D17*
X139500000Y-104800000D03*
D14*
X142040000Y-99720000D03*
X139500000Y-110700000D03*
X134500000Y-108500000D03*
D18*
X147600000Y-108500000D03*
D19*
X136700000Y-110700000D03*
D14*
X144500000Y-108500000D03*
X136960000Y-99720000D03*
X143310000Y-102260000D03*
D13*
G36*
X154109755Y-97050961D02*
G01*
X154119134Y-97053806D01*
X154127779Y-97058427D01*
X154135355Y-97064645D01*
X154141573Y-97072221D01*
X154146194Y-97080866D01*
X154149039Y-97090245D01*
X154150000Y-97100000D01*
X154150000Y-99100000D01*
X154149039Y-99109755D01*
X154146194Y-99119134D01*
X154141573Y-99127779D01*
X154135355Y-99135355D01*
X154127735Y-99141603D01*
X153527735Y-99541603D01*
X153519086Y-99546214D01*
X153509703Y-99549049D01*
X153500000Y-99550000D01*
X151700000Y-99550000D01*
X151690245Y-99549039D01*
X151680866Y-99546194D01*
X151672221Y-99541573D01*
X151664645Y-99535355D01*
X151658427Y-99527779D01*
X151653806Y-99519134D01*
X151650961Y-99509755D01*
X151650000Y-99500000D01*
X151650000Y-99050000D01*
X151050000Y-99050000D01*
X151050000Y-97550000D01*
X151650000Y-97550000D01*
X151650000Y-97100000D01*
X151650961Y-97090245D01*
X151653806Y-97080866D01*
X151658427Y-97072221D01*
X151664645Y-97064645D01*
X151672221Y-97058427D01*
X151680866Y-97053806D01*
X151690245Y-97050961D01*
X151700000Y-97050000D01*
X154100000Y-97050000D01*
X154109755Y-97050961D01*
G37*
G36*
X166709755Y-99650961D02*
G01*
X166719134Y-99653806D01*
X166727779Y-99658427D01*
X166735355Y-99664645D01*
X166741573Y-99672221D01*
X166746194Y-99680866D01*
X166749039Y-99690245D01*
X166750000Y-99700000D01*
X166750000Y-100150000D01*
X167450000Y-100150000D01*
X167450000Y-101650000D01*
X166750000Y-101650000D01*
X166750000Y-102100000D01*
X166749039Y-102109755D01*
X166746194Y-102119134D01*
X166741573Y-102127779D01*
X166735355Y-102135355D01*
X166727779Y-102141573D01*
X166719134Y-102146194D01*
X166709755Y-102149039D01*
X166700000Y-102150000D01*
X164300000Y-102150000D01*
X164290245Y-102149039D01*
X164280866Y-102146194D01*
X164272221Y-102141573D01*
X164264645Y-102135355D01*
X164258427Y-102127779D01*
X164253806Y-102119134D01*
X164250961Y-102109755D01*
X164250000Y-102100000D01*
X164250000Y-99700000D01*
X164250961Y-99690245D01*
X164253806Y-99680866D01*
X164258427Y-99672221D01*
X164264645Y-99664645D01*
X164272221Y-99658427D01*
X164280866Y-99653806D01*
X164290245Y-99650961D01*
X164300000Y-99650000D01*
X166700000Y-99650000D01*
X166709755Y-99650961D01*
G37*
D14*
X154790000Y-100859999D03*
D15*
X153520000Y-103400000D03*
X163680000Y-103400000D03*
D16*
X164100000Y-103400000D03*
X153100000Y-103400000D03*
D17*
X158600000Y-103400000D03*
D14*
X161140000Y-98320000D03*
X158600000Y-109300000D03*
X153600000Y-107100000D03*
D18*
X166700000Y-107100000D03*
D19*
X155800000Y-109300000D03*
D14*
X163600000Y-107100000D03*
X156060000Y-98320000D03*
X162410000Y-100860000D03*
D13*
G36*
X173109755Y-98450961D02*
G01*
X173119134Y-98453806D01*
X173127779Y-98458427D01*
X173135355Y-98464645D01*
X173141573Y-98472221D01*
X173146194Y-98480866D01*
X173149039Y-98490245D01*
X173150000Y-98500000D01*
X173150000Y-100500000D01*
X173149039Y-100509755D01*
X173146194Y-100519134D01*
X173141573Y-100527779D01*
X173135355Y-100535355D01*
X173127735Y-100541603D01*
X172527735Y-100941603D01*
X172519086Y-100946214D01*
X172509703Y-100949049D01*
X172500000Y-100950000D01*
X170700000Y-100950000D01*
X170690245Y-100949039D01*
X170680866Y-100946194D01*
X170672221Y-100941573D01*
X170664645Y-100935355D01*
X170658427Y-100927779D01*
X170653806Y-100919134D01*
X170650961Y-100909755D01*
X170650000Y-100900000D01*
X170650000Y-100450000D01*
X170050000Y-100450000D01*
X170050000Y-98950000D01*
X170650000Y-98950000D01*
X170650000Y-98500000D01*
X170650961Y-98490245D01*
X170653806Y-98480866D01*
X170658427Y-98472221D01*
X170664645Y-98464645D01*
X170672221Y-98458427D01*
X170680866Y-98453806D01*
X170690245Y-98450961D01*
X170700000Y-98450000D01*
X173100000Y-98450000D01*
X173109755Y-98450961D01*
G37*
G36*
X185709755Y-101050961D02*
G01*
X185719134Y-101053806D01*
X185727779Y-101058427D01*
X185735355Y-101064645D01*
X185741573Y-101072221D01*
X185746194Y-101080866D01*
X185749039Y-101090245D01*
X185750000Y-101100000D01*
X185750000Y-101550000D01*
X186450000Y-101550000D01*
X186450000Y-103050000D01*
X185750000Y-103050000D01*
X185750000Y-103500000D01*
X185749039Y-103509755D01*
X185746194Y-103519134D01*
X185741573Y-103527779D01*
X185735355Y-103535355D01*
X185727779Y-103541573D01*
X185719134Y-103546194D01*
X185709755Y-103549039D01*
X185700000Y-103550000D01*
X183300000Y-103550000D01*
X183290245Y-103549039D01*
X183280866Y-103546194D01*
X183272221Y-103541573D01*
X183264645Y-103535355D01*
X183258427Y-103527779D01*
X183253806Y-103519134D01*
X183250961Y-103509755D01*
X183250000Y-103500000D01*
X183250000Y-101100000D01*
X183250961Y-101090245D01*
X183253806Y-101080866D01*
X183258427Y-101072221D01*
X183264645Y-101064645D01*
X183272221Y-101058427D01*
X183280866Y-101053806D01*
X183290245Y-101050961D01*
X183300000Y-101050000D01*
X185700000Y-101050000D01*
X185709755Y-101050961D01*
G37*
D14*
X173790000Y-102259999D03*
D15*
X172520000Y-104800000D03*
X182680000Y-104800000D03*
D16*
X183100000Y-104800000D03*
X172100000Y-104800000D03*
D17*
X177600000Y-104800000D03*
D14*
X180140000Y-99720000D03*
X177600000Y-110700000D03*
X172600000Y-108500000D03*
D18*
X185700000Y-108500000D03*
D19*
X174800000Y-110700000D03*
D14*
X182600000Y-108500000D03*
X175060000Y-99720000D03*
X181410000Y-102260000D03*
D13*
G36*
X211259755Y-104650961D02*
G01*
X211269134Y-104653806D01*
X211277779Y-104658427D01*
X211285355Y-104664645D01*
X211291573Y-104672221D01*
X211296194Y-104680866D01*
X211299039Y-104690245D01*
X211300000Y-104700000D01*
X211300000Y-106700000D01*
X211299039Y-106709755D01*
X211296194Y-106719134D01*
X211291573Y-106727779D01*
X211285355Y-106735355D01*
X211277735Y-106741603D01*
X210677735Y-107141603D01*
X210669086Y-107146214D01*
X210659703Y-107149049D01*
X210650000Y-107150000D01*
X208850000Y-107150000D01*
X208840245Y-107149039D01*
X208830866Y-107146194D01*
X208822221Y-107141573D01*
X208814645Y-107135355D01*
X208808427Y-107127779D01*
X208803806Y-107119134D01*
X208800961Y-107109755D01*
X208800000Y-107100000D01*
X208800000Y-106650000D01*
X208200000Y-106650000D01*
X208200000Y-105150000D01*
X208800000Y-105150000D01*
X208800000Y-104700000D01*
X208800961Y-104690245D01*
X208803806Y-104680866D01*
X208808427Y-104672221D01*
X208814645Y-104664645D01*
X208822221Y-104658427D01*
X208830866Y-104653806D01*
X208840245Y-104650961D01*
X208850000Y-104650000D01*
X211250000Y-104650000D01*
X211259755Y-104650961D01*
G37*
G36*
X223859755Y-107250961D02*
G01*
X223869134Y-107253806D01*
X223877779Y-107258427D01*
X223885355Y-107264645D01*
X223891573Y-107272221D01*
X223896194Y-107280866D01*
X223899039Y-107290245D01*
X223900000Y-107300000D01*
X223900000Y-107750000D01*
X224600000Y-107750000D01*
X224600000Y-109250000D01*
X223900000Y-109250000D01*
X223900000Y-109700000D01*
X223899039Y-109709755D01*
X223896194Y-109719134D01*
X223891573Y-109727779D01*
X223885355Y-109735355D01*
X223877779Y-109741573D01*
X223869134Y-109746194D01*
X223859755Y-109749039D01*
X223850000Y-109750000D01*
X221450000Y-109750000D01*
X221440245Y-109749039D01*
X221430866Y-109746194D01*
X221422221Y-109741573D01*
X221414645Y-109735355D01*
X221408427Y-109727779D01*
X221403806Y-109719134D01*
X221400961Y-109709755D01*
X221400000Y-109700000D01*
X221400000Y-107300000D01*
X221400961Y-107290245D01*
X221403806Y-107280866D01*
X221408427Y-107272221D01*
X221414645Y-107264645D01*
X221422221Y-107258427D01*
X221430866Y-107253806D01*
X221440245Y-107250961D01*
X221450000Y-107250000D01*
X223850000Y-107250000D01*
X223859755Y-107250961D01*
G37*
D14*
X211940000Y-108459999D03*
D15*
X210670000Y-111000000D03*
X220830000Y-111000000D03*
D16*
X221250000Y-111000000D03*
X210250000Y-111000000D03*
D17*
X215750000Y-111000000D03*
D14*
X218290000Y-105920000D03*
X215750000Y-116900000D03*
X210750000Y-114700000D03*
D18*
X223850000Y-114700000D03*
D19*
X212950000Y-116900000D03*
D14*
X220750000Y-114700000D03*
X213210000Y-105920000D03*
X219560000Y-108460000D03*
D13*
G36*
X109213307Y-123006814D02*
G01*
X109215533Y-123016359D01*
X109215853Y-123026156D01*
X109214256Y-123035826D01*
X109210804Y-123044999D01*
X109205628Y-123053324D01*
X109198928Y-123060477D01*
X109190960Y-123066187D01*
X107458910Y-124066187D01*
X107449981Y-124070232D01*
X107440436Y-124072458D01*
X107430639Y-124072778D01*
X107420969Y-124071181D01*
X107411748Y-124067706D01*
X106765338Y-123748091D01*
X106757020Y-123742906D01*
X106749873Y-123736198D01*
X106744198Y-123728270D01*
X105844198Y-122169425D01*
X105840153Y-122160496D01*
X105837927Y-122150951D01*
X105837607Y-122141154D01*
X105839204Y-122131484D01*
X105842656Y-122122311D01*
X105847832Y-122113986D01*
X105854532Y-122106833D01*
X105862500Y-122101123D01*
X106252211Y-121876123D01*
X105952211Y-121356508D01*
X107251249Y-120606508D01*
X107551249Y-121126123D01*
X107940960Y-120901123D01*
X107949889Y-120897078D01*
X107959434Y-120894852D01*
X107969231Y-120894532D01*
X107978901Y-120896129D01*
X107988074Y-120899581D01*
X107996399Y-120904757D01*
X108003552Y-120911457D01*
X108009262Y-120919425D01*
X109209262Y-122997886D01*
X109213307Y-123006814D01*
G37*
G36*
X113261641Y-135218734D02*
G01*
X113263867Y-135228279D01*
X113264187Y-135238077D01*
X113262590Y-135247747D01*
X113259138Y-135256920D01*
X113253962Y-135265244D01*
X113247262Y-135272397D01*
X113239294Y-135278107D01*
X112849583Y-135503107D01*
X113199583Y-136109325D01*
X111900545Y-136859325D01*
X111550545Y-136253107D01*
X111160834Y-136478107D01*
X111151905Y-136482152D01*
X111142360Y-136484378D01*
X111132563Y-136484699D01*
X111122893Y-136483102D01*
X111113720Y-136479650D01*
X111105395Y-136474473D01*
X111098242Y-136467773D01*
X111092532Y-136459806D01*
X109892532Y-134381345D01*
X109888487Y-134372416D01*
X109886261Y-134362871D01*
X109885941Y-134353074D01*
X109887538Y-134343404D01*
X109890990Y-134334231D01*
X109896166Y-134325907D01*
X109902866Y-134318753D01*
X109910834Y-134313044D01*
X111989294Y-133113044D01*
X111998223Y-133108998D01*
X112007768Y-133106773D01*
X112017565Y-133106452D01*
X112027235Y-133108049D01*
X112036408Y-133111501D01*
X112044733Y-133116677D01*
X112051886Y-133123377D01*
X112057596Y-133131345D01*
X113257596Y-135209806D01*
X113261641Y-135218734D01*
G37*
D14*
X106254705Y-125500443D03*
D15*
X103420000Y-125670591D03*
X108500000Y-134469409D03*
D16*
X108710000Y-134833140D03*
X103210000Y-125306860D03*
D17*
X105960000Y-130070000D03*
D14*
X111629409Y-129729705D03*
X100850450Y-133020000D03*
X100255706Y-127589873D03*
D13*
G36*
X108171731Y-139300831D02*
G01*
X106439681Y-140300831D01*
X105439681Y-138568781D01*
X107171731Y-137568781D01*
X108171731Y-139300831D01*
G37*
G36*
X100766475Y-130874552D02*
G01*
X99034425Y-131874552D01*
X98134425Y-130315706D01*
X99866475Y-129315706D01*
X100766475Y-130874552D01*
G37*
D14*
X105255706Y-136250127D03*
X109089409Y-125330295D03*
X110064705Y-132099557D03*
D13*
G36*
X121899504Y-121449460D02*
G01*
X121909300Y-121449780D01*
X121918846Y-121452006D01*
X121927774Y-121456052D01*
X121935741Y-121461760D01*
X121942442Y-121468915D01*
X121947617Y-121477238D01*
X121951070Y-121486412D01*
X122468708Y-123418263D01*
X122470305Y-123427935D01*
X122469984Y-123437730D01*
X122467758Y-123447277D01*
X122463713Y-123456204D01*
X122457970Y-123464211D01*
X121981942Y-124005873D01*
X121974781Y-124012565D01*
X121966451Y-124017732D01*
X121957325Y-124021162D01*
X120218659Y-124487037D01*
X120208987Y-124488633D01*
X120199191Y-124488312D01*
X120189645Y-124486086D01*
X120180718Y-124482041D01*
X120172751Y-124476333D01*
X120166050Y-124469178D01*
X120160874Y-124460855D01*
X120157421Y-124451681D01*
X120040953Y-124017015D01*
X119461397Y-124172306D01*
X119073169Y-122723417D01*
X119652724Y-122568126D01*
X119536256Y-122133459D01*
X119534659Y-122123788D01*
X119534980Y-122113992D01*
X119537206Y-122104446D01*
X119541251Y-122095519D01*
X119546960Y-122087552D01*
X119554114Y-122080851D01*
X119562437Y-122075675D01*
X119571611Y-122072222D01*
X121889833Y-121451056D01*
X121899504Y-121449460D01*
G37*
G36*
X134743099Y-120699748D02*
G01*
X134752895Y-120700068D01*
X134762441Y-120702294D01*
X134771369Y-120706340D01*
X134779336Y-120712048D01*
X134786037Y-120719203D01*
X134791212Y-120727526D01*
X134794665Y-120736700D01*
X134911134Y-121171366D01*
X135587282Y-120990193D01*
X135975510Y-122439082D01*
X135299362Y-122620255D01*
X135415831Y-123054922D01*
X135417427Y-123064593D01*
X135417107Y-123074389D01*
X135414881Y-123083935D01*
X135410835Y-123092862D01*
X135405127Y-123100829D01*
X135397972Y-123107530D01*
X135389649Y-123112706D01*
X135380475Y-123116159D01*
X133062253Y-123737325D01*
X133052582Y-123738921D01*
X133042786Y-123738601D01*
X133033240Y-123736374D01*
X133024313Y-123732329D01*
X133016346Y-123726621D01*
X133009645Y-123719466D01*
X133004469Y-123711143D01*
X133001016Y-123701969D01*
X132379851Y-121383747D01*
X132378254Y-121374076D01*
X132378575Y-121364280D01*
X132380801Y-121354734D01*
X132384846Y-121345807D01*
X132390554Y-121337840D01*
X132397709Y-121331139D01*
X132406032Y-121325963D01*
X132415206Y-121322510D01*
X134733428Y-120701344D01*
X134743099Y-120699748D01*
G37*
D14*
X123542422Y-124952648D03*
D15*
X122973097Y-127734801D03*
X132786903Y-125105199D03*
D16*
X133192592Y-124996495D03*
X122567408Y-127843505D03*
D17*
X127880000Y-126420000D03*
D14*
X129018651Y-120855696D03*
X129407032Y-132118962D03*
X124008001Y-131288021D03*
D13*
G36*
X137368737Y-126672746D02*
G01*
X137886375Y-128604598D01*
X135954523Y-129122236D01*
X135436885Y-127190384D01*
X137368737Y-126672746D01*
G37*
G36*
X127312954Y-131644793D02*
G01*
X127830592Y-133576645D01*
X126091926Y-134042519D01*
X125574288Y-132110667D01*
X127312954Y-131644793D01*
G37*
D14*
X133667260Y-128699830D03*
X124111748Y-122170497D03*
X130902777Y-122980448D03*
D13*
G36*
X144509755Y-117400961D02*
G01*
X144519134Y-117403806D01*
X144527779Y-117408427D01*
X144535355Y-117414645D01*
X144541573Y-117422221D01*
X144546194Y-117430866D01*
X144549039Y-117440245D01*
X144550000Y-117450000D01*
X144550000Y-119450000D01*
X144549039Y-119459755D01*
X144546194Y-119469134D01*
X144541573Y-119477779D01*
X144535355Y-119485355D01*
X144527735Y-119491603D01*
X143927735Y-119891603D01*
X143919086Y-119896214D01*
X143909703Y-119899049D01*
X143900000Y-119900000D01*
X142100000Y-119900000D01*
X142090245Y-119899039D01*
X142080866Y-119896194D01*
X142072221Y-119891573D01*
X142064645Y-119885355D01*
X142058427Y-119877779D01*
X142053806Y-119869134D01*
X142050961Y-119859755D01*
X142050000Y-119850000D01*
X142050000Y-119400000D01*
X141450000Y-119400000D01*
X141450000Y-117900000D01*
X142050000Y-117900000D01*
X142050000Y-117450000D01*
X142050961Y-117440245D01*
X142053806Y-117430866D01*
X142058427Y-117422221D01*
X142064645Y-117414645D01*
X142072221Y-117408427D01*
X142080866Y-117403806D01*
X142090245Y-117400961D01*
X142100000Y-117400000D01*
X144500000Y-117400000D01*
X144509755Y-117400961D01*
G37*
G36*
X157109755Y-120000961D02*
G01*
X157119134Y-120003806D01*
X157127779Y-120008427D01*
X157135355Y-120014645D01*
X157141573Y-120022221D01*
X157146194Y-120030866D01*
X157149039Y-120040245D01*
X157150000Y-120050000D01*
X157150000Y-120500000D01*
X157850000Y-120500000D01*
X157850000Y-122000000D01*
X157150000Y-122000000D01*
X157150000Y-122450000D01*
X157149039Y-122459755D01*
X157146194Y-122469134D01*
X157141573Y-122477779D01*
X157135355Y-122485355D01*
X157127779Y-122491573D01*
X157119134Y-122496194D01*
X157109755Y-122499039D01*
X157100000Y-122500000D01*
X154700000Y-122500000D01*
X154690245Y-122499039D01*
X154680866Y-122496194D01*
X154672221Y-122491573D01*
X154664645Y-122485355D01*
X154658427Y-122477779D01*
X154653806Y-122469134D01*
X154650961Y-122459755D01*
X154650000Y-122450000D01*
X154650000Y-120050000D01*
X154650961Y-120040245D01*
X154653806Y-120030866D01*
X154658427Y-120022221D01*
X154664645Y-120014645D01*
X154672221Y-120008427D01*
X154680866Y-120003806D01*
X154690245Y-120000961D01*
X154700000Y-120000000D01*
X157100000Y-120000000D01*
X157109755Y-120000961D01*
G37*
D14*
X145190000Y-121209999D03*
D15*
X143920000Y-123750000D03*
X154080000Y-123750000D03*
D16*
X154500000Y-123750000D03*
X143500000Y-123750000D03*
D17*
X149000000Y-123750000D03*
D14*
X151540000Y-118670000D03*
X149000000Y-129650000D03*
X144000000Y-127450000D03*
D18*
X157100000Y-127450000D03*
D19*
X146200000Y-129650000D03*
D14*
X154000000Y-127450000D03*
X146460000Y-118670000D03*
X152810000Y-121210000D03*
D13*
G36*
X163609755Y-117400961D02*
G01*
X163619134Y-117403806D01*
X163627779Y-117408427D01*
X163635355Y-117414645D01*
X163641573Y-117422221D01*
X163646194Y-117430866D01*
X163649039Y-117440245D01*
X163650000Y-117450000D01*
X163650000Y-119450000D01*
X163649039Y-119459755D01*
X163646194Y-119469134D01*
X163641573Y-119477779D01*
X163635355Y-119485355D01*
X163627735Y-119491603D01*
X163027735Y-119891603D01*
X163019086Y-119896214D01*
X163009703Y-119899049D01*
X163000000Y-119900000D01*
X161200000Y-119900000D01*
X161190245Y-119899039D01*
X161180866Y-119896194D01*
X161172221Y-119891573D01*
X161164645Y-119885355D01*
X161158427Y-119877779D01*
X161153806Y-119869134D01*
X161150961Y-119859755D01*
X161150000Y-119850000D01*
X161150000Y-119400000D01*
X160550000Y-119400000D01*
X160550000Y-117900000D01*
X161150000Y-117900000D01*
X161150000Y-117450000D01*
X161150961Y-117440245D01*
X161153806Y-117430866D01*
X161158427Y-117422221D01*
X161164645Y-117414645D01*
X161172221Y-117408427D01*
X161180866Y-117403806D01*
X161190245Y-117400961D01*
X161200000Y-117400000D01*
X163600000Y-117400000D01*
X163609755Y-117400961D01*
G37*
G36*
X176209755Y-120000961D02*
G01*
X176219134Y-120003806D01*
X176227779Y-120008427D01*
X176235355Y-120014645D01*
X176241573Y-120022221D01*
X176246194Y-120030866D01*
X176249039Y-120040245D01*
X176250000Y-120050000D01*
X176250000Y-120500000D01*
X176950000Y-120500000D01*
X176950000Y-122000000D01*
X176250000Y-122000000D01*
X176250000Y-122450000D01*
X176249039Y-122459755D01*
X176246194Y-122469134D01*
X176241573Y-122477779D01*
X176235355Y-122485355D01*
X176227779Y-122491573D01*
X176219134Y-122496194D01*
X176209755Y-122499039D01*
X176200000Y-122500000D01*
X173800000Y-122500000D01*
X173790245Y-122499039D01*
X173780866Y-122496194D01*
X173772221Y-122491573D01*
X173764645Y-122485355D01*
X173758427Y-122477779D01*
X173753806Y-122469134D01*
X173750961Y-122459755D01*
X173750000Y-122450000D01*
X173750000Y-120050000D01*
X173750961Y-120040245D01*
X173753806Y-120030866D01*
X173758427Y-120022221D01*
X173764645Y-120014645D01*
X173772221Y-120008427D01*
X173780866Y-120003806D01*
X173790245Y-120000961D01*
X173800000Y-120000000D01*
X176200000Y-120000000D01*
X176209755Y-120000961D01*
G37*
D14*
X164290000Y-121209999D03*
D15*
X163020000Y-123750000D03*
X173180000Y-123750000D03*
D16*
X173600000Y-123750000D03*
X162600000Y-123750000D03*
D17*
X168100000Y-123750000D03*
D14*
X170640000Y-118670000D03*
X168100000Y-129650000D03*
X163100000Y-127450000D03*
D18*
X176200000Y-127450000D03*
D19*
X165300000Y-129650000D03*
D14*
X173100000Y-127450000D03*
X165560000Y-118670000D03*
X171910000Y-121210000D03*
D13*
G36*
X211257355Y-123724362D02*
G01*
X211266734Y-123727207D01*
X211275379Y-123731828D01*
X211282955Y-123738046D01*
X211289173Y-123745622D01*
X211293794Y-123754267D01*
X211296639Y-123763646D01*
X211297600Y-123773401D01*
X211297600Y-125773401D01*
X211296639Y-125783156D01*
X211293794Y-125792535D01*
X211289173Y-125801180D01*
X211282955Y-125808756D01*
X211275335Y-125815004D01*
X210675335Y-126215004D01*
X210666686Y-126219615D01*
X210657303Y-126222450D01*
X210647600Y-126223401D01*
X208847600Y-126223401D01*
X208837845Y-126222440D01*
X208828466Y-126219595D01*
X208819821Y-126214974D01*
X208812245Y-126208756D01*
X208806027Y-126201180D01*
X208801406Y-126192535D01*
X208798561Y-126183156D01*
X208797600Y-126173401D01*
X208797600Y-125723401D01*
X208197600Y-125723401D01*
X208197600Y-124223401D01*
X208797600Y-124223401D01*
X208797600Y-123773401D01*
X208798561Y-123763646D01*
X208801406Y-123754267D01*
X208806027Y-123745622D01*
X208812245Y-123738046D01*
X208819821Y-123731828D01*
X208828466Y-123727207D01*
X208837845Y-123724362D01*
X208847600Y-123723401D01*
X211247600Y-123723401D01*
X211257355Y-123724362D01*
G37*
G36*
X223857355Y-126324362D02*
G01*
X223866734Y-126327207D01*
X223875379Y-126331828D01*
X223882955Y-126338046D01*
X223889173Y-126345622D01*
X223893794Y-126354267D01*
X223896639Y-126363646D01*
X223897600Y-126373401D01*
X223897600Y-126823401D01*
X224597600Y-126823401D01*
X224597600Y-128323401D01*
X223897600Y-128323401D01*
X223897600Y-128773401D01*
X223896639Y-128783156D01*
X223893794Y-128792535D01*
X223889173Y-128801180D01*
X223882955Y-128808756D01*
X223875379Y-128814974D01*
X223866734Y-128819595D01*
X223857355Y-128822440D01*
X223847600Y-128823401D01*
X221447600Y-128823401D01*
X221437845Y-128822440D01*
X221428466Y-128819595D01*
X221419821Y-128814974D01*
X221412245Y-128808756D01*
X221406027Y-128801180D01*
X221401406Y-128792535D01*
X221398561Y-128783156D01*
X221397600Y-128773401D01*
X221397600Y-126373401D01*
X221398561Y-126363646D01*
X221401406Y-126354267D01*
X221406027Y-126345622D01*
X221412245Y-126338046D01*
X221419821Y-126331828D01*
X221428466Y-126327207D01*
X221437845Y-126324362D01*
X221447600Y-126323401D01*
X223847600Y-126323401D01*
X223857355Y-126324362D01*
G37*
D14*
X211937600Y-127533400D03*
D15*
X210667600Y-130073401D03*
X220827600Y-130073401D03*
D16*
X221247600Y-130073401D03*
X210247600Y-130073401D03*
D17*
X215747600Y-130073401D03*
D14*
X218287600Y-124993401D03*
X215747600Y-135973401D03*
X210747600Y-133773401D03*
D18*
X223847600Y-133773401D03*
D19*
X212947600Y-135973401D03*
D14*
X220747600Y-133773401D03*
X213207600Y-124993401D03*
X219557600Y-127533401D03*
D23*
X107000000Y-107000000D03*
X107000000Y-102000000D03*
D25*
X100000000Y-110100000D03*
X100000000Y-98900000D03*
D23*
X92500000Y-107000000D03*
X92500000Y-104500000D03*
X92500000Y-102000000D03*
D24*
X105000000Y-114800000D03*
X205800000Y-61800000D03*
D26*
X107900000Y-81100000D03*
X107900000Y-78600000D03*
X107900000Y-76000000D03*
D27*
X96500000Y-87400000D03*
X89500000Y-87400000D03*
D28*
X98300000Y-89500000D03*
X99800000Y-85300000D03*
X91300000Y-89500000D03*
X94300000Y-89500000D03*
D27*
X89500000Y-85650000D03*
X96500000Y-85650000D03*
D28*
X91300000Y-83550000D03*
X94300000Y-83550000D03*
X98300000Y-83550000D03*
X99800000Y-87750000D03*
D29*
X93478815Y-47505745D03*
X108718815Y-65285745D03*
X93478815Y-57665745D03*
X108718815Y-55125745D03*
X108718815Y-50045745D03*
X93478815Y-67825745D03*
X108718815Y-47505745D03*
X108718815Y-42425745D03*
X93478815Y-62745745D03*
X108718815Y-70365745D03*
X93478815Y-55125745D03*
X93478815Y-44965745D03*
X93478815Y-50045745D03*
X93478815Y-52585745D03*
X93478815Y-65285745D03*
X93478815Y-60205745D03*
X108718815Y-62745745D03*
X108718815Y-60205745D03*
X93478815Y-70365745D03*
X108718815Y-67825745D03*
X108718815Y-44965745D03*
X93478815Y-42425745D03*
X108718815Y-57665745D03*
X108718815Y-52585745D03*
X92180000Y-41230000D03*
X92180000Y-43770000D03*
X92180000Y-46310000D03*
X92180000Y-48850000D03*
X92180000Y-51390000D03*
X92180000Y-53930000D03*
X92180000Y-56470000D03*
X92180000Y-59010000D03*
X92180000Y-61550000D03*
X92180000Y-64090000D03*
X92180000Y-66630000D03*
X92180000Y-69170000D03*
X107420000Y-69170000D03*
X107420000Y-66630000D03*
X107420000Y-64090000D03*
X107420000Y-61550000D03*
X107420000Y-59010000D03*
X107420000Y-56470000D03*
X107420000Y-53930000D03*
X107420000Y-51390000D03*
X107420000Y-48850000D03*
X107420000Y-46310000D03*
X107420000Y-43770000D03*
X107420000Y-41230000D03*
M02*
