G04 #@! TF.GenerationSoftware,KiCad,Pcbnew,(5.1.12-1-10_14)*
G04 #@! TF.CreationDate,2021-12-17T11:34:48+00:00*
G04 #@! TF.ProjectId,SofleKeyboard,536f666c-654b-4657-9962-6f6172642e6b,rev?*
G04 #@! TF.SameCoordinates,Original*
G04 #@! TF.FileFunction,Soldermask,Top*
G04 #@! TF.FilePolarity,Negative*
%FSLAX46Y46*%
G04 Gerber Fmt 4.6, Leading zero omitted, Abs format (unit mm)*
G04 Created by KiCad (PCBNEW (5.1.12-1-10_14)) date 2021-12-17 11:34:48*
%MOMM*%
%LPD*%
G01*
G04 APERTURE LIST*
%ADD10C,0.100000*%
%ADD11C,3.400000*%
%ADD12C,2.100000*%
%ADD13C,2.300000*%
%ADD14C,4.400000*%
%ADD15C,1.797000*%
%ADD16C,2.400000*%
%ADD17C,5.100000*%
%ADD18C,1.600000*%
%ADD19O,2.900000X2.100000*%
%ADD20C,1.924000*%
G04 APERTURE END LIST*
D10*
G36*
X192219608Y-102950963D02*
G01*
X192229363Y-102951924D01*
X192267810Y-102959572D01*
X192277189Y-102962417D01*
X192313416Y-102977423D01*
X192322061Y-102982044D01*
X192354664Y-103003830D01*
X192362240Y-103010048D01*
X192389952Y-103037760D01*
X192396170Y-103045336D01*
X192417956Y-103077939D01*
X192422577Y-103086584D01*
X192437583Y-103122811D01*
X192440428Y-103132190D01*
X192448076Y-103170637D01*
X192449037Y-103180392D01*
X192450000Y-103200000D01*
X192450000Y-105200000D01*
X192449037Y-105219608D01*
X192448076Y-105229363D01*
X192440428Y-105267810D01*
X192437583Y-105277189D01*
X192422577Y-105313416D01*
X192417956Y-105322061D01*
X192396170Y-105354664D01*
X192389952Y-105362240D01*
X192362166Y-105390013D01*
X192354546Y-105396261D01*
X192338675Y-105408013D01*
X191738675Y-105808013D01*
X191721824Y-105818089D01*
X191713175Y-105822700D01*
X191676932Y-105837666D01*
X191667549Y-105840501D01*
X191629212Y-105848095D01*
X191619509Y-105849046D01*
X191600000Y-105850000D01*
X189800000Y-105850000D01*
X189780392Y-105849037D01*
X189770637Y-105848076D01*
X189732190Y-105840428D01*
X189722811Y-105837583D01*
X189686584Y-105822577D01*
X189677939Y-105817956D01*
X189645336Y-105796170D01*
X189637760Y-105789952D01*
X189610048Y-105762240D01*
X189603830Y-105754664D01*
X189582044Y-105722061D01*
X189577423Y-105713416D01*
X189562417Y-105677189D01*
X189559572Y-105667810D01*
X189551924Y-105629363D01*
X189550963Y-105619608D01*
X189550000Y-105600000D01*
X189550000Y-105350000D01*
X189150000Y-105350000D01*
X189110982Y-105346157D01*
X189073463Y-105334776D01*
X189038886Y-105316294D01*
X189008579Y-105291421D01*
X188983706Y-105261114D01*
X188965224Y-105226537D01*
X188953843Y-105189018D01*
X188950000Y-105150000D01*
X188950000Y-103650000D01*
X188953843Y-103610982D01*
X188965224Y-103573463D01*
X188983706Y-103538886D01*
X189008579Y-103508579D01*
X189038886Y-103483706D01*
X189073463Y-103465224D01*
X189110982Y-103453843D01*
X189150000Y-103450000D01*
X189550000Y-103450000D01*
X189550000Y-103200000D01*
X189550963Y-103180392D01*
X189551924Y-103170637D01*
X189559572Y-103132190D01*
X189562417Y-103122811D01*
X189577423Y-103086584D01*
X189582044Y-103077939D01*
X189603830Y-103045336D01*
X189610048Y-103037760D01*
X189637760Y-103010048D01*
X189645336Y-103003830D01*
X189677939Y-102982044D01*
X189686584Y-102977423D01*
X189722811Y-102962417D01*
X189732190Y-102959572D01*
X189770637Y-102951924D01*
X189780392Y-102950963D01*
X189800000Y-102950000D01*
X192200000Y-102950000D01*
X192219608Y-102950963D01*
G37*
G36*
X204819608Y-105550963D02*
G01*
X204829363Y-105551924D01*
X204867810Y-105559572D01*
X204877189Y-105562417D01*
X204913416Y-105577423D01*
X204922061Y-105582044D01*
X204954664Y-105603830D01*
X204962240Y-105610048D01*
X204989952Y-105637760D01*
X204996170Y-105645336D01*
X205017956Y-105677939D01*
X205022577Y-105686584D01*
X205037583Y-105722811D01*
X205040428Y-105732190D01*
X205048076Y-105770637D01*
X205049037Y-105780392D01*
X205050000Y-105800000D01*
X205050000Y-106050000D01*
X205550000Y-106050000D01*
X205589018Y-106053843D01*
X205626537Y-106065224D01*
X205661114Y-106083706D01*
X205691421Y-106108579D01*
X205716294Y-106138886D01*
X205734776Y-106173463D01*
X205746157Y-106210982D01*
X205750000Y-106250000D01*
X205750000Y-107750000D01*
X205746157Y-107789018D01*
X205734776Y-107826537D01*
X205716294Y-107861114D01*
X205691421Y-107891421D01*
X205661114Y-107916294D01*
X205626537Y-107934776D01*
X205589018Y-107946157D01*
X205550000Y-107950000D01*
X205050000Y-107950000D01*
X205050000Y-108200000D01*
X205049037Y-108219608D01*
X205048076Y-108229363D01*
X205040428Y-108267810D01*
X205037583Y-108277189D01*
X205022577Y-108313416D01*
X205017956Y-108322061D01*
X204996170Y-108354664D01*
X204989952Y-108362240D01*
X204962240Y-108389952D01*
X204954664Y-108396170D01*
X204922061Y-108417956D01*
X204913416Y-108422577D01*
X204877189Y-108437583D01*
X204867810Y-108440428D01*
X204829363Y-108448076D01*
X204819608Y-108449037D01*
X204800000Y-108450000D01*
X202400000Y-108450000D01*
X202380392Y-108449037D01*
X202370637Y-108448076D01*
X202332190Y-108440428D01*
X202322811Y-108437583D01*
X202286584Y-108422577D01*
X202277939Y-108417956D01*
X202245336Y-108396170D01*
X202237760Y-108389952D01*
X202210048Y-108362240D01*
X202203830Y-108354664D01*
X202182044Y-108322061D01*
X202177423Y-108313416D01*
X202162417Y-108277189D01*
X202159572Y-108267810D01*
X202151924Y-108229363D01*
X202150963Y-108219608D01*
X202150000Y-108200000D01*
X202150000Y-105800000D01*
X202150963Y-105780392D01*
X202151924Y-105770637D01*
X202159572Y-105732190D01*
X202162417Y-105722811D01*
X202177423Y-105686584D01*
X202182044Y-105677939D01*
X202203830Y-105645336D01*
X202210048Y-105637760D01*
X202237760Y-105610048D01*
X202245336Y-105603830D01*
X202277939Y-105582044D01*
X202286584Y-105577423D01*
X202322811Y-105562417D01*
X202332190Y-105559572D01*
X202370637Y-105551924D01*
X202380392Y-105550963D01*
X202400000Y-105550000D01*
X204800000Y-105550000D01*
X204819608Y-105550963D01*
G37*
D11*
X192890000Y-106959999D03*
D12*
X191620000Y-109500000D03*
X201780000Y-109500000D03*
D13*
X202200000Y-109500000D03*
X191200000Y-109500000D03*
D14*
X196700000Y-109500000D03*
D11*
X199240000Y-104420000D03*
X196700000Y-115400000D03*
X191700000Y-113200000D03*
G36*
G01*
X206000000Y-112200000D02*
X206000000Y-114200000D01*
G75*
G02*
X205800000Y-114400000I-200000J0D01*
G01*
X203800000Y-114400000D01*
G75*
G02*
X203600000Y-114200000I0J200000D01*
G01*
X203600000Y-112200000D01*
G75*
G02*
X203800000Y-112000000I200000J0D01*
G01*
X205800000Y-112000000D01*
G75*
G02*
X206000000Y-112200000I0J-200000D01*
G01*
G37*
G36*
G01*
X195000000Y-114400000D02*
X195000000Y-116400000D01*
G75*
G02*
X194800000Y-116600000I-200000J0D01*
G01*
X193000000Y-116600000D01*
G75*
G02*
X192800000Y-116400000I0J200000D01*
G01*
X192800000Y-114400000D01*
G75*
G02*
X193000000Y-114200000I200000J0D01*
G01*
X194800000Y-114200000D01*
G75*
G02*
X195000000Y-114400000I0J-200000D01*
G01*
G37*
X201700000Y-113200000D03*
X194160000Y-104420000D03*
X200510000Y-106960000D03*
D14*
X107000000Y-93500000D03*
X91500000Y-93500000D03*
D15*
X104320000Y-74600000D03*
X101780000Y-74600000D03*
X99240000Y-74600000D03*
X96700000Y-74600000D03*
G36*
G01*
X162600000Y-116550000D02*
X162600000Y-115050000D01*
G75*
G02*
X162800000Y-114850000I200000J0D01*
G01*
X164600000Y-114850000D01*
G75*
G02*
X164800000Y-115050000I0J-200000D01*
G01*
X164800000Y-116550000D01*
G75*
G02*
X164600000Y-116750000I-200000J0D01*
G01*
X162800000Y-116750000D01*
G75*
G02*
X162600000Y-116550000I0J200000D01*
G01*
G37*
G36*
G01*
X159200000Y-116550000D02*
X159200000Y-115050000D01*
G75*
G02*
X159400000Y-114850000I200000J0D01*
G01*
X161200000Y-114850000D01*
G75*
G02*
X161400000Y-115050000I0J-200000D01*
G01*
X161400000Y-116550000D01*
G75*
G02*
X161200000Y-116750000I-200000J0D01*
G01*
X159400000Y-116750000D01*
G75*
G02*
X159200000Y-116550000I0J200000D01*
G01*
G37*
G36*
G01*
X143500000Y-116550000D02*
X143500000Y-115050000D01*
G75*
G02*
X143700000Y-114850000I200000J0D01*
G01*
X145500000Y-114850000D01*
G75*
G02*
X145700000Y-115050000I0J-200000D01*
G01*
X145700000Y-116550000D01*
G75*
G02*
X145500000Y-116750000I-200000J0D01*
G01*
X143700000Y-116750000D01*
G75*
G02*
X143500000Y-116550000I0J200000D01*
G01*
G37*
G36*
G01*
X140100000Y-116550000D02*
X140100000Y-115050000D01*
G75*
G02*
X140300000Y-114850000I200000J0D01*
G01*
X142100000Y-114850000D01*
G75*
G02*
X142300000Y-115050000I0J-200000D01*
G01*
X142300000Y-116550000D01*
G75*
G02*
X142100000Y-116750000I-200000J0D01*
G01*
X140300000Y-116750000D01*
G75*
G02*
X140100000Y-116550000I0J200000D01*
G01*
G37*
G36*
G01*
X124500000Y-118750000D02*
X124500000Y-117250000D01*
G75*
G02*
X124700000Y-117050000I200000J0D01*
G01*
X126500000Y-117050000D01*
G75*
G02*
X126700000Y-117250000I0J-200000D01*
G01*
X126700000Y-118750000D01*
G75*
G02*
X126500000Y-118950000I-200000J0D01*
G01*
X124700000Y-118950000D01*
G75*
G02*
X124500000Y-118750000I0J200000D01*
G01*
G37*
G36*
G01*
X121100000Y-118750000D02*
X121100000Y-117250000D01*
G75*
G02*
X121300000Y-117050000I200000J0D01*
G01*
X123100000Y-117050000D01*
G75*
G02*
X123300000Y-117250000I0J-200000D01*
G01*
X123300000Y-118750000D01*
G75*
G02*
X123100000Y-118950000I-200000J0D01*
G01*
X121300000Y-118950000D01*
G75*
G02*
X121100000Y-118750000I0J200000D01*
G01*
G37*
G36*
G01*
X109450481Y-120194615D02*
X110749519Y-119444615D01*
G75*
G02*
X111022724Y-119517820I100000J-173205D01*
G01*
X111922724Y-121076666D01*
G75*
G02*
X111849519Y-121349871I-173205J-100000D01*
G01*
X110550481Y-122099871D01*
G75*
G02*
X110277276Y-122026666I-100000J173205D01*
G01*
X109377276Y-120467820D01*
G75*
G02*
X109450481Y-120194615I173205J100000D01*
G01*
G37*
G36*
G01*
X107750481Y-117250129D02*
X109049519Y-116500129D01*
G75*
G02*
X109322724Y-116573334I100000J-173205D01*
G01*
X110222724Y-118132180D01*
G75*
G02*
X110149519Y-118405385I-173205J-100000D01*
G01*
X108850481Y-119155385D01*
G75*
G02*
X108577276Y-119082180I-100000J173205D01*
G01*
X107677276Y-117523334D01*
G75*
G02*
X107750481Y-117250129I173205J100000D01*
G01*
G37*
G36*
G01*
X107600000Y-97750000D02*
X107600000Y-96250000D01*
G75*
G02*
X107800000Y-96050000I200000J0D01*
G01*
X109600000Y-96050000D01*
G75*
G02*
X109800000Y-96250000I0J-200000D01*
G01*
X109800000Y-97750000D01*
G75*
G02*
X109600000Y-97950000I-200000J0D01*
G01*
X107800000Y-97950000D01*
G75*
G02*
X107600000Y-97750000I0J200000D01*
G01*
G37*
G36*
G01*
X104200000Y-97750000D02*
X104200000Y-96250000D01*
G75*
G02*
X104400000Y-96050000I200000J0D01*
G01*
X106200000Y-96050000D01*
G75*
G02*
X106400000Y-96250000I0J-200000D01*
G01*
X106400000Y-97750000D01*
G75*
G02*
X106200000Y-97950000I-200000J0D01*
G01*
X104400000Y-97950000D01*
G75*
G02*
X104200000Y-97750000I0J200000D01*
G01*
G37*
G36*
G01*
X222500000Y-103850000D02*
X222500000Y-102350000D01*
G75*
G02*
X222700000Y-102150000I200000J0D01*
G01*
X224500000Y-102150000D01*
G75*
G02*
X224700000Y-102350000I0J-200000D01*
G01*
X224700000Y-103850000D01*
G75*
G02*
X224500000Y-104050000I-200000J0D01*
G01*
X222700000Y-104050000D01*
G75*
G02*
X222500000Y-103850000I0J200000D01*
G01*
G37*
G36*
G01*
X219100000Y-103850000D02*
X219100000Y-102350000D01*
G75*
G02*
X219300000Y-102150000I200000J0D01*
G01*
X221100000Y-102150000D01*
G75*
G02*
X221300000Y-102350000I0J-200000D01*
G01*
X221300000Y-103850000D01*
G75*
G02*
X221100000Y-104050000I-200000J0D01*
G01*
X219300000Y-104050000D01*
G75*
G02*
X219100000Y-103850000I0J200000D01*
G01*
G37*
G36*
G01*
X191200000Y-102250000D02*
X191200000Y-100750000D01*
G75*
G02*
X191400000Y-100550000I200000J0D01*
G01*
X193200000Y-100550000D01*
G75*
G02*
X193400000Y-100750000I0J-200000D01*
G01*
X193400000Y-102250000D01*
G75*
G02*
X193200000Y-102450000I-200000J0D01*
G01*
X191400000Y-102450000D01*
G75*
G02*
X191200000Y-102250000I0J200000D01*
G01*
G37*
G36*
G01*
X187800000Y-102250000D02*
X187800000Y-100750000D01*
G75*
G02*
X188000000Y-100550000I200000J0D01*
G01*
X189800000Y-100550000D01*
G75*
G02*
X190000000Y-100750000I0J-200000D01*
G01*
X190000000Y-102250000D01*
G75*
G02*
X189800000Y-102450000I-200000J0D01*
G01*
X188000000Y-102450000D01*
G75*
G02*
X187800000Y-102250000I0J200000D01*
G01*
G37*
G36*
G01*
X172100000Y-97550000D02*
X172100000Y-96050000D01*
G75*
G02*
X172300000Y-95850000I200000J0D01*
G01*
X174100000Y-95850000D01*
G75*
G02*
X174300000Y-96050000I0J-200000D01*
G01*
X174300000Y-97550000D01*
G75*
G02*
X174100000Y-97750000I-200000J0D01*
G01*
X172300000Y-97750000D01*
G75*
G02*
X172100000Y-97550000I0J200000D01*
G01*
G37*
G36*
G01*
X168700000Y-97550000D02*
X168700000Y-96050000D01*
G75*
G02*
X168900000Y-95850000I200000J0D01*
G01*
X170700000Y-95850000D01*
G75*
G02*
X170900000Y-96050000I0J-200000D01*
G01*
X170900000Y-97550000D01*
G75*
G02*
X170700000Y-97750000I-200000J0D01*
G01*
X168900000Y-97750000D01*
G75*
G02*
X168700000Y-97550000I0J200000D01*
G01*
G37*
G36*
G01*
X153100000Y-96150000D02*
X153100000Y-94650000D01*
G75*
G02*
X153300000Y-94450000I200000J0D01*
G01*
X155100000Y-94450000D01*
G75*
G02*
X155300000Y-94650000I0J-200000D01*
G01*
X155300000Y-96150000D01*
G75*
G02*
X155100000Y-96350000I-200000J0D01*
G01*
X153300000Y-96350000D01*
G75*
G02*
X153100000Y-96150000I0J200000D01*
G01*
G37*
G36*
G01*
X149700000Y-96150000D02*
X149700000Y-94650000D01*
G75*
G02*
X149900000Y-94450000I200000J0D01*
G01*
X151700000Y-94450000D01*
G75*
G02*
X151900000Y-94650000I0J-200000D01*
G01*
X151900000Y-96150000D01*
G75*
G02*
X151700000Y-96350000I-200000J0D01*
G01*
X149900000Y-96350000D01*
G75*
G02*
X149700000Y-96150000I0J200000D01*
G01*
G37*
G36*
G01*
X135900000Y-97550000D02*
X135900000Y-96050000D01*
G75*
G02*
X136100000Y-95850000I200000J0D01*
G01*
X137900000Y-95850000D01*
G75*
G02*
X138100000Y-96050000I0J-200000D01*
G01*
X138100000Y-97550000D01*
G75*
G02*
X137900000Y-97750000I-200000J0D01*
G01*
X136100000Y-97750000D01*
G75*
G02*
X135900000Y-97550000I0J200000D01*
G01*
G37*
G36*
G01*
X132500000Y-97550000D02*
X132500000Y-96050000D01*
G75*
G02*
X132700000Y-95850000I200000J0D01*
G01*
X134500000Y-95850000D01*
G75*
G02*
X134700000Y-96050000I0J-200000D01*
G01*
X134700000Y-97550000D01*
G75*
G02*
X134500000Y-97750000I-200000J0D01*
G01*
X132700000Y-97750000D01*
G75*
G02*
X132500000Y-97550000I0J200000D01*
G01*
G37*
G36*
G01*
X115000000Y-99850000D02*
X115000000Y-98350000D01*
G75*
G02*
X115200000Y-98150000I200000J0D01*
G01*
X117000000Y-98150000D01*
G75*
G02*
X117200000Y-98350000I0J-200000D01*
G01*
X117200000Y-99850000D01*
G75*
G02*
X117000000Y-100050000I-200000J0D01*
G01*
X115200000Y-100050000D01*
G75*
G02*
X115000000Y-99850000I0J200000D01*
G01*
G37*
G36*
G01*
X111600000Y-99850000D02*
X111600000Y-98350000D01*
G75*
G02*
X111800000Y-98150000I200000J0D01*
G01*
X113600000Y-98150000D01*
G75*
G02*
X113800000Y-98350000I0J-200000D01*
G01*
X113800000Y-99850000D01*
G75*
G02*
X113600000Y-100050000I-200000J0D01*
G01*
X111800000Y-100050000D01*
G75*
G02*
X111600000Y-99850000I0J200000D01*
G01*
G37*
G36*
G01*
X222400000Y-100650000D02*
X222400000Y-99150000D01*
G75*
G02*
X222600000Y-98950000I200000J0D01*
G01*
X224400000Y-98950000D01*
G75*
G02*
X224600000Y-99150000I0J-200000D01*
G01*
X224600000Y-100650000D01*
G75*
G02*
X224400000Y-100850000I-200000J0D01*
G01*
X222600000Y-100850000D01*
G75*
G02*
X222400000Y-100650000I0J200000D01*
G01*
G37*
G36*
G01*
X219000000Y-100650000D02*
X219000000Y-99150000D01*
G75*
G02*
X219200000Y-98950000I200000J0D01*
G01*
X221000000Y-98950000D01*
G75*
G02*
X221200000Y-99150000I0J-200000D01*
G01*
X221200000Y-100650000D01*
G75*
G02*
X221000000Y-100850000I-200000J0D01*
G01*
X219200000Y-100850000D01*
G75*
G02*
X219000000Y-100650000I0J200000D01*
G01*
G37*
G36*
G01*
X191200000Y-99050000D02*
X191200000Y-97550000D01*
G75*
G02*
X191400000Y-97350000I200000J0D01*
G01*
X193200000Y-97350000D01*
G75*
G02*
X193400000Y-97550000I0J-200000D01*
G01*
X193400000Y-99050000D01*
G75*
G02*
X193200000Y-99250000I-200000J0D01*
G01*
X191400000Y-99250000D01*
G75*
G02*
X191200000Y-99050000I0J200000D01*
G01*
G37*
G36*
G01*
X187800000Y-99050000D02*
X187800000Y-97550000D01*
G75*
G02*
X188000000Y-97350000I200000J0D01*
G01*
X189800000Y-97350000D01*
G75*
G02*
X190000000Y-97550000I0J-200000D01*
G01*
X190000000Y-99050000D01*
G75*
G02*
X189800000Y-99250000I-200000J0D01*
G01*
X188000000Y-99250000D01*
G75*
G02*
X187800000Y-99050000I0J200000D01*
G01*
G37*
G36*
G01*
X172100000Y-94350000D02*
X172100000Y-92850000D01*
G75*
G02*
X172300000Y-92650000I200000J0D01*
G01*
X174100000Y-92650000D01*
G75*
G02*
X174300000Y-92850000I0J-200000D01*
G01*
X174300000Y-94350000D01*
G75*
G02*
X174100000Y-94550000I-200000J0D01*
G01*
X172300000Y-94550000D01*
G75*
G02*
X172100000Y-94350000I0J200000D01*
G01*
G37*
G36*
G01*
X168700000Y-94350000D02*
X168700000Y-92850000D01*
G75*
G02*
X168900000Y-92650000I200000J0D01*
G01*
X170700000Y-92650000D01*
G75*
G02*
X170900000Y-92850000I0J-200000D01*
G01*
X170900000Y-94350000D01*
G75*
G02*
X170700000Y-94550000I-200000J0D01*
G01*
X168900000Y-94550000D01*
G75*
G02*
X168700000Y-94350000I0J200000D01*
G01*
G37*
G36*
G01*
X153100000Y-93050000D02*
X153100000Y-91550000D01*
G75*
G02*
X153300000Y-91350000I200000J0D01*
G01*
X155100000Y-91350000D01*
G75*
G02*
X155300000Y-91550000I0J-200000D01*
G01*
X155300000Y-93050000D01*
G75*
G02*
X155100000Y-93250000I-200000J0D01*
G01*
X153300000Y-93250000D01*
G75*
G02*
X153100000Y-93050000I0J200000D01*
G01*
G37*
G36*
G01*
X149700000Y-93050000D02*
X149700000Y-91550000D01*
G75*
G02*
X149900000Y-91350000I200000J0D01*
G01*
X151700000Y-91350000D01*
G75*
G02*
X151900000Y-91550000I0J-200000D01*
G01*
X151900000Y-93050000D01*
G75*
G02*
X151700000Y-93250000I-200000J0D01*
G01*
X149900000Y-93250000D01*
G75*
G02*
X149700000Y-93050000I0J200000D01*
G01*
G37*
G36*
G01*
X134900000Y-94550000D02*
X134900000Y-93050000D01*
G75*
G02*
X135100000Y-92850000I200000J0D01*
G01*
X136900000Y-92850000D01*
G75*
G02*
X137100000Y-93050000I0J-200000D01*
G01*
X137100000Y-94550000D01*
G75*
G02*
X136900000Y-94750000I-200000J0D01*
G01*
X135100000Y-94750000D01*
G75*
G02*
X134900000Y-94550000I0J200000D01*
G01*
G37*
G36*
G01*
X131500000Y-94550000D02*
X131500000Y-93050000D01*
G75*
G02*
X131700000Y-92850000I200000J0D01*
G01*
X133500000Y-92850000D01*
G75*
G02*
X133700000Y-93050000I0J-200000D01*
G01*
X133700000Y-94550000D01*
G75*
G02*
X133500000Y-94750000I-200000J0D01*
G01*
X131700000Y-94750000D01*
G75*
G02*
X131500000Y-94550000I0J200000D01*
G01*
G37*
G36*
G01*
X115000000Y-96750000D02*
X115000000Y-95250000D01*
G75*
G02*
X115200000Y-95050000I200000J0D01*
G01*
X117000000Y-95050000D01*
G75*
G02*
X117200000Y-95250000I0J-200000D01*
G01*
X117200000Y-96750000D01*
G75*
G02*
X117000000Y-96950000I-200000J0D01*
G01*
X115200000Y-96950000D01*
G75*
G02*
X115000000Y-96750000I0J200000D01*
G01*
G37*
G36*
G01*
X111600000Y-96750000D02*
X111600000Y-95250000D01*
G75*
G02*
X111800000Y-95050000I200000J0D01*
G01*
X113600000Y-95050000D01*
G75*
G02*
X113800000Y-95250000I0J-200000D01*
G01*
X113800000Y-96750000D01*
G75*
G02*
X113600000Y-96950000I-200000J0D01*
G01*
X111800000Y-96950000D01*
G75*
G02*
X111600000Y-96750000I0J200000D01*
G01*
G37*
G36*
G01*
X222400000Y-65650000D02*
X222400000Y-64150000D01*
G75*
G02*
X222600000Y-63950000I200000J0D01*
G01*
X224400000Y-63950000D01*
G75*
G02*
X224600000Y-64150000I0J-200000D01*
G01*
X224600000Y-65650000D01*
G75*
G02*
X224400000Y-65850000I-200000J0D01*
G01*
X222600000Y-65850000D01*
G75*
G02*
X222400000Y-65650000I0J200000D01*
G01*
G37*
G36*
G01*
X219000000Y-65650000D02*
X219000000Y-64150000D01*
G75*
G02*
X219200000Y-63950000I200000J0D01*
G01*
X221000000Y-63950000D01*
G75*
G02*
X221200000Y-64150000I0J-200000D01*
G01*
X221200000Y-65650000D01*
G75*
G02*
X221000000Y-65850000I-200000J0D01*
G01*
X219200000Y-65850000D01*
G75*
G02*
X219000000Y-65650000I0J200000D01*
G01*
G37*
G36*
G01*
X191200000Y-64050000D02*
X191200000Y-62550000D01*
G75*
G02*
X191400000Y-62350000I200000J0D01*
G01*
X193200000Y-62350000D01*
G75*
G02*
X193400000Y-62550000I0J-200000D01*
G01*
X193400000Y-64050000D01*
G75*
G02*
X193200000Y-64250000I-200000J0D01*
G01*
X191400000Y-64250000D01*
G75*
G02*
X191200000Y-64050000I0J200000D01*
G01*
G37*
G36*
G01*
X187800000Y-64050000D02*
X187800000Y-62550000D01*
G75*
G02*
X188000000Y-62350000I200000J0D01*
G01*
X189800000Y-62350000D01*
G75*
G02*
X190000000Y-62550000I0J-200000D01*
G01*
X190000000Y-64050000D01*
G75*
G02*
X189800000Y-64250000I-200000J0D01*
G01*
X188000000Y-64250000D01*
G75*
G02*
X187800000Y-64050000I0J200000D01*
G01*
G37*
G36*
G01*
X172100000Y-59450000D02*
X172100000Y-57950000D01*
G75*
G02*
X172300000Y-57750000I200000J0D01*
G01*
X174100000Y-57750000D01*
G75*
G02*
X174300000Y-57950000I0J-200000D01*
G01*
X174300000Y-59450000D01*
G75*
G02*
X174100000Y-59650000I-200000J0D01*
G01*
X172300000Y-59650000D01*
G75*
G02*
X172100000Y-59450000I0J200000D01*
G01*
G37*
G36*
G01*
X168700000Y-59450000D02*
X168700000Y-57950000D01*
G75*
G02*
X168900000Y-57750000I200000J0D01*
G01*
X170700000Y-57750000D01*
G75*
G02*
X170900000Y-57950000I0J-200000D01*
G01*
X170900000Y-59450000D01*
G75*
G02*
X170700000Y-59650000I-200000J0D01*
G01*
X168900000Y-59650000D01*
G75*
G02*
X168700000Y-59450000I0J200000D01*
G01*
G37*
G36*
G01*
X153200000Y-58150000D02*
X153200000Y-56650000D01*
G75*
G02*
X153400000Y-56450000I200000J0D01*
G01*
X155200000Y-56450000D01*
G75*
G02*
X155400000Y-56650000I0J-200000D01*
G01*
X155400000Y-58150000D01*
G75*
G02*
X155200000Y-58350000I-200000J0D01*
G01*
X153400000Y-58350000D01*
G75*
G02*
X153200000Y-58150000I0J200000D01*
G01*
G37*
G36*
G01*
X149800000Y-58150000D02*
X149800000Y-56650000D01*
G75*
G02*
X150000000Y-56450000I200000J0D01*
G01*
X151800000Y-56450000D01*
G75*
G02*
X152000000Y-56650000I0J-200000D01*
G01*
X152000000Y-58150000D01*
G75*
G02*
X151800000Y-58350000I-200000J0D01*
G01*
X150000000Y-58350000D01*
G75*
G02*
X149800000Y-58150000I0J200000D01*
G01*
G37*
G36*
G01*
X135900000Y-59450000D02*
X135900000Y-57950000D01*
G75*
G02*
X136100000Y-57750000I200000J0D01*
G01*
X137900000Y-57750000D01*
G75*
G02*
X138100000Y-57950000I0J-200000D01*
G01*
X138100000Y-59450000D01*
G75*
G02*
X137900000Y-59650000I-200000J0D01*
G01*
X136100000Y-59650000D01*
G75*
G02*
X135900000Y-59450000I0J200000D01*
G01*
G37*
G36*
G01*
X132500000Y-59450000D02*
X132500000Y-57950000D01*
G75*
G02*
X132700000Y-57750000I200000J0D01*
G01*
X134500000Y-57750000D01*
G75*
G02*
X134700000Y-57950000I0J-200000D01*
G01*
X134700000Y-59450000D01*
G75*
G02*
X134500000Y-59650000I-200000J0D01*
G01*
X132700000Y-59650000D01*
G75*
G02*
X132500000Y-59450000I0J200000D01*
G01*
G37*
G36*
G01*
X115000000Y-61850000D02*
X115000000Y-60350000D01*
G75*
G02*
X115200000Y-60150000I200000J0D01*
G01*
X117000000Y-60150000D01*
G75*
G02*
X117200000Y-60350000I0J-200000D01*
G01*
X117200000Y-61850000D01*
G75*
G02*
X117000000Y-62050000I-200000J0D01*
G01*
X115200000Y-62050000D01*
G75*
G02*
X115000000Y-61850000I0J200000D01*
G01*
G37*
G36*
G01*
X111600000Y-61850000D02*
X111600000Y-60350000D01*
G75*
G02*
X111800000Y-60150000I200000J0D01*
G01*
X113600000Y-60150000D01*
G75*
G02*
X113800000Y-60350000I0J-200000D01*
G01*
X113800000Y-61850000D01*
G75*
G02*
X113600000Y-62050000I-200000J0D01*
G01*
X111800000Y-62050000D01*
G75*
G02*
X111600000Y-61850000I0J200000D01*
G01*
G37*
G36*
G01*
X222400000Y-62550000D02*
X222400000Y-61050000D01*
G75*
G02*
X222600000Y-60850000I200000J0D01*
G01*
X224400000Y-60850000D01*
G75*
G02*
X224600000Y-61050000I0J-200000D01*
G01*
X224600000Y-62550000D01*
G75*
G02*
X224400000Y-62750000I-200000J0D01*
G01*
X222600000Y-62750000D01*
G75*
G02*
X222400000Y-62550000I0J200000D01*
G01*
G37*
G36*
G01*
X219000000Y-62550000D02*
X219000000Y-61050000D01*
G75*
G02*
X219200000Y-60850000I200000J0D01*
G01*
X221000000Y-60850000D01*
G75*
G02*
X221200000Y-61050000I0J-200000D01*
G01*
X221200000Y-62550000D01*
G75*
G02*
X221000000Y-62750000I-200000J0D01*
G01*
X219200000Y-62750000D01*
G75*
G02*
X219000000Y-62550000I0J200000D01*
G01*
G37*
G36*
G01*
X191200000Y-61150000D02*
X191200000Y-59650000D01*
G75*
G02*
X191400000Y-59450000I200000J0D01*
G01*
X193200000Y-59450000D01*
G75*
G02*
X193400000Y-59650000I0J-200000D01*
G01*
X193400000Y-61150000D01*
G75*
G02*
X193200000Y-61350000I-200000J0D01*
G01*
X191400000Y-61350000D01*
G75*
G02*
X191200000Y-61150000I0J200000D01*
G01*
G37*
G36*
G01*
X187800000Y-61150000D02*
X187800000Y-59650000D01*
G75*
G02*
X188000000Y-59450000I200000J0D01*
G01*
X189800000Y-59450000D01*
G75*
G02*
X190000000Y-59650000I0J-200000D01*
G01*
X190000000Y-61150000D01*
G75*
G02*
X189800000Y-61350000I-200000J0D01*
G01*
X188000000Y-61350000D01*
G75*
G02*
X187800000Y-61150000I0J200000D01*
G01*
G37*
G36*
G01*
X172100000Y-56350000D02*
X172100000Y-54850000D01*
G75*
G02*
X172300000Y-54650000I200000J0D01*
G01*
X174100000Y-54650000D01*
G75*
G02*
X174300000Y-54850000I0J-200000D01*
G01*
X174300000Y-56350000D01*
G75*
G02*
X174100000Y-56550000I-200000J0D01*
G01*
X172300000Y-56550000D01*
G75*
G02*
X172100000Y-56350000I0J200000D01*
G01*
G37*
G36*
G01*
X168700000Y-56350000D02*
X168700000Y-54850000D01*
G75*
G02*
X168900000Y-54650000I200000J0D01*
G01*
X170700000Y-54650000D01*
G75*
G02*
X170900000Y-54850000I0J-200000D01*
G01*
X170900000Y-56350000D01*
G75*
G02*
X170700000Y-56550000I-200000J0D01*
G01*
X168900000Y-56550000D01*
G75*
G02*
X168700000Y-56350000I0J200000D01*
G01*
G37*
G36*
G01*
X153100000Y-54950000D02*
X153100000Y-53450000D01*
G75*
G02*
X153300000Y-53250000I200000J0D01*
G01*
X155100000Y-53250000D01*
G75*
G02*
X155300000Y-53450000I0J-200000D01*
G01*
X155300000Y-54950000D01*
G75*
G02*
X155100000Y-55150000I-200000J0D01*
G01*
X153300000Y-55150000D01*
G75*
G02*
X153100000Y-54950000I0J200000D01*
G01*
G37*
G36*
G01*
X149700000Y-54950000D02*
X149700000Y-53450000D01*
G75*
G02*
X149900000Y-53250000I200000J0D01*
G01*
X151700000Y-53250000D01*
G75*
G02*
X151900000Y-53450000I0J-200000D01*
G01*
X151900000Y-54950000D01*
G75*
G02*
X151700000Y-55150000I-200000J0D01*
G01*
X149900000Y-55150000D01*
G75*
G02*
X149700000Y-54950000I0J200000D01*
G01*
G37*
G36*
G01*
X134900000Y-56450000D02*
X134900000Y-54950000D01*
G75*
G02*
X135100000Y-54750000I200000J0D01*
G01*
X136900000Y-54750000D01*
G75*
G02*
X137100000Y-54950000I0J-200000D01*
G01*
X137100000Y-56450000D01*
G75*
G02*
X136900000Y-56650000I-200000J0D01*
G01*
X135100000Y-56650000D01*
G75*
G02*
X134900000Y-56450000I0J200000D01*
G01*
G37*
G36*
G01*
X131500000Y-56450000D02*
X131500000Y-54950000D01*
G75*
G02*
X131700000Y-54750000I200000J0D01*
G01*
X133500000Y-54750000D01*
G75*
G02*
X133700000Y-54950000I0J-200000D01*
G01*
X133700000Y-56450000D01*
G75*
G02*
X133500000Y-56650000I-200000J0D01*
G01*
X131700000Y-56650000D01*
G75*
G02*
X131500000Y-56450000I0J200000D01*
G01*
G37*
G36*
G01*
X115000000Y-58750000D02*
X115000000Y-57250000D01*
G75*
G02*
X115200000Y-57050000I200000J0D01*
G01*
X117000000Y-57050000D01*
G75*
G02*
X117200000Y-57250000I0J-200000D01*
G01*
X117200000Y-58750000D01*
G75*
G02*
X117000000Y-58950000I-200000J0D01*
G01*
X115200000Y-58950000D01*
G75*
G02*
X115000000Y-58750000I0J200000D01*
G01*
G37*
G36*
G01*
X111600000Y-58750000D02*
X111600000Y-57250000D01*
G75*
G02*
X111800000Y-57050000I200000J0D01*
G01*
X113600000Y-57050000D01*
G75*
G02*
X113800000Y-57250000I0J-200000D01*
G01*
X113800000Y-58750000D01*
G75*
G02*
X113600000Y-58950000I-200000J0D01*
G01*
X111800000Y-58950000D01*
G75*
G02*
X111600000Y-58750000I0J200000D01*
G01*
G37*
G36*
G01*
X93428500Y-73982120D02*
X94571500Y-73982120D01*
G75*
G02*
X94771500Y-74182120I0J-200000D01*
G01*
X94771500Y-74817120D01*
G75*
G02*
X94571500Y-75017120I-200000J0D01*
G01*
X93428500Y-75017120D01*
G75*
G02*
X93228500Y-74817120I0J200000D01*
G01*
X93228500Y-74182120D01*
G75*
G02*
X93428500Y-73982120I200000J0D01*
G01*
G37*
G36*
G01*
X93428500Y-74982880D02*
X94571500Y-74982880D01*
G75*
G02*
X94771500Y-75182880I0J-200000D01*
G01*
X94771500Y-75817880D01*
G75*
G02*
X94571500Y-76017880I-200000J0D01*
G01*
X93428500Y-76017880D01*
G75*
G02*
X93228500Y-75817880I0J200000D01*
G01*
X93228500Y-75182880D01*
G75*
G02*
X93428500Y-74982880I200000J0D01*
G01*
G37*
D16*
X90000000Y-80750000D03*
X90000000Y-74250000D03*
G36*
G01*
X97271500Y-69317120D02*
X96128500Y-69317120D01*
G75*
G02*
X95928500Y-69117120I0J200000D01*
G01*
X95928500Y-68482120D01*
G75*
G02*
X96128500Y-68282120I200000J0D01*
G01*
X97271500Y-68282120D01*
G75*
G02*
X97471500Y-68482120I0J-200000D01*
G01*
X97471500Y-69117120D01*
G75*
G02*
X97271500Y-69317120I-200000J0D01*
G01*
G37*
G36*
G01*
X97271500Y-70317880D02*
X96128500Y-70317880D01*
G75*
G02*
X95928500Y-70117880I0J200000D01*
G01*
X95928500Y-69482880D01*
G75*
G02*
X96128500Y-69282880I200000J0D01*
G01*
X97271500Y-69282880D01*
G75*
G02*
X97471500Y-69482880I0J-200000D01*
G01*
X97471500Y-70117880D01*
G75*
G02*
X97271500Y-70317880I-200000J0D01*
G01*
G37*
G36*
G01*
X99771500Y-69317120D02*
X98628500Y-69317120D01*
G75*
G02*
X98428500Y-69117120I0J200000D01*
G01*
X98428500Y-68482120D01*
G75*
G02*
X98628500Y-68282120I200000J0D01*
G01*
X99771500Y-68282120D01*
G75*
G02*
X99971500Y-68482120I0J-200000D01*
G01*
X99971500Y-69117120D01*
G75*
G02*
X99771500Y-69317120I-200000J0D01*
G01*
G37*
G36*
G01*
X99771500Y-70317880D02*
X98628500Y-70317880D01*
G75*
G02*
X98428500Y-70117880I0J200000D01*
G01*
X98428500Y-69482880D01*
G75*
G02*
X98628500Y-69282880I200000J0D01*
G01*
X99771500Y-69282880D01*
G75*
G02*
X99971500Y-69482880I0J-200000D01*
G01*
X99971500Y-70117880D01*
G75*
G02*
X99771500Y-70317880I-200000J0D01*
G01*
G37*
G36*
G01*
X102271500Y-69317120D02*
X101128500Y-69317120D01*
G75*
G02*
X100928500Y-69117120I0J200000D01*
G01*
X100928500Y-68482120D01*
G75*
G02*
X101128500Y-68282120I200000J0D01*
G01*
X102271500Y-68282120D01*
G75*
G02*
X102471500Y-68482120I0J-200000D01*
G01*
X102471500Y-69117120D01*
G75*
G02*
X102271500Y-69317120I-200000J0D01*
G01*
G37*
G36*
G01*
X102271500Y-70317880D02*
X101128500Y-70317880D01*
G75*
G02*
X100928500Y-70117880I0J200000D01*
G01*
X100928500Y-69482880D01*
G75*
G02*
X101128500Y-69282880I200000J0D01*
G01*
X102271500Y-69282880D01*
G75*
G02*
X102471500Y-69482880I0J-200000D01*
G01*
X102471500Y-70117880D01*
G75*
G02*
X102271500Y-70317880I-200000J0D01*
G01*
G37*
G36*
G01*
X104871500Y-69317120D02*
X103728500Y-69317120D01*
G75*
G02*
X103528500Y-69117120I0J200000D01*
G01*
X103528500Y-68482120D01*
G75*
G02*
X103728500Y-68282120I200000J0D01*
G01*
X104871500Y-68282120D01*
G75*
G02*
X105071500Y-68482120I0J-200000D01*
G01*
X105071500Y-69117120D01*
G75*
G02*
X104871500Y-69317120I-200000J0D01*
G01*
G37*
G36*
G01*
X104871500Y-70317880D02*
X103728500Y-70317880D01*
G75*
G02*
X103528500Y-70117880I0J200000D01*
G01*
X103528500Y-69482880D01*
G75*
G02*
X103728500Y-69282880I200000J0D01*
G01*
X104871500Y-69282880D01*
G75*
G02*
X105071500Y-69482880I0J-200000D01*
G01*
X105071500Y-70117880D01*
G75*
G02*
X104871500Y-70317880I-200000J0D01*
G01*
G37*
D15*
X100579272Y-80311965D03*
X95499272Y-80311965D03*
X100579272Y-78061965D03*
X95499272Y-78061965D03*
X102700000Y-78100000D03*
X102700000Y-80300000D03*
D17*
X205800000Y-100000000D03*
X129600000Y-97600000D03*
X129600000Y-59600000D03*
G36*
G01*
X210099200Y-122822400D02*
X210099200Y-121322400D01*
G75*
G02*
X210299200Y-121122400I200000J0D01*
G01*
X212099200Y-121122400D01*
G75*
G02*
X212299200Y-121322400I0J-200000D01*
G01*
X212299200Y-122822400D01*
G75*
G02*
X212099200Y-123022400I-200000J0D01*
G01*
X210299200Y-123022400D01*
G75*
G02*
X210099200Y-122822400I0J200000D01*
G01*
G37*
G36*
G01*
X206699200Y-122822400D02*
X206699200Y-121322400D01*
G75*
G02*
X206899200Y-121122400I200000J0D01*
G01*
X208699200Y-121122400D01*
G75*
G02*
X208899200Y-121322400I0J-200000D01*
G01*
X208899200Y-122822400D01*
G75*
G02*
X208699200Y-123022400I-200000J0D01*
G01*
X206899200Y-123022400D01*
G75*
G02*
X206699200Y-122822400I0J200000D01*
G01*
G37*
D10*
G36*
X116019608Y-43450963D02*
G01*
X116029363Y-43451924D01*
X116067810Y-43459572D01*
X116077189Y-43462417D01*
X116113416Y-43477423D01*
X116122061Y-43482044D01*
X116154664Y-43503830D01*
X116162240Y-43510048D01*
X116189952Y-43537760D01*
X116196170Y-43545336D01*
X116217956Y-43577939D01*
X116222577Y-43586584D01*
X116237583Y-43622811D01*
X116240428Y-43632190D01*
X116248076Y-43670637D01*
X116249037Y-43680392D01*
X116250000Y-43700000D01*
X116250000Y-45700000D01*
X116249037Y-45719608D01*
X116248076Y-45729363D01*
X116240428Y-45767810D01*
X116237583Y-45777189D01*
X116222577Y-45813416D01*
X116217956Y-45822061D01*
X116196170Y-45854664D01*
X116189952Y-45862240D01*
X116162166Y-45890013D01*
X116154546Y-45896261D01*
X116138675Y-45908013D01*
X115538675Y-46308013D01*
X115521824Y-46318089D01*
X115513175Y-46322700D01*
X115476932Y-46337666D01*
X115467549Y-46340501D01*
X115429212Y-46348095D01*
X115419509Y-46349046D01*
X115400000Y-46350000D01*
X113600000Y-46350000D01*
X113580392Y-46349037D01*
X113570637Y-46348076D01*
X113532190Y-46340428D01*
X113522811Y-46337583D01*
X113486584Y-46322577D01*
X113477939Y-46317956D01*
X113445336Y-46296170D01*
X113437760Y-46289952D01*
X113410048Y-46262240D01*
X113403830Y-46254664D01*
X113382044Y-46222061D01*
X113377423Y-46213416D01*
X113362417Y-46177189D01*
X113359572Y-46167810D01*
X113351924Y-46129363D01*
X113350963Y-46119608D01*
X113350000Y-46100000D01*
X113350000Y-45850000D01*
X112950000Y-45850000D01*
X112910982Y-45846157D01*
X112873463Y-45834776D01*
X112838886Y-45816294D01*
X112808579Y-45791421D01*
X112783706Y-45761114D01*
X112765224Y-45726537D01*
X112753843Y-45689018D01*
X112750000Y-45650000D01*
X112750000Y-44150000D01*
X112753843Y-44110982D01*
X112765224Y-44073463D01*
X112783706Y-44038886D01*
X112808579Y-44008579D01*
X112838886Y-43983706D01*
X112873463Y-43965224D01*
X112910982Y-43953843D01*
X112950000Y-43950000D01*
X113350000Y-43950000D01*
X113350000Y-43700000D01*
X113350963Y-43680392D01*
X113351924Y-43670637D01*
X113359572Y-43632190D01*
X113362417Y-43622811D01*
X113377423Y-43586584D01*
X113382044Y-43577939D01*
X113403830Y-43545336D01*
X113410048Y-43537760D01*
X113437760Y-43510048D01*
X113445336Y-43503830D01*
X113477939Y-43482044D01*
X113486584Y-43477423D01*
X113522811Y-43462417D01*
X113532190Y-43459572D01*
X113570637Y-43451924D01*
X113580392Y-43450963D01*
X113600000Y-43450000D01*
X116000000Y-43450000D01*
X116019608Y-43450963D01*
G37*
G36*
X128619608Y-46050963D02*
G01*
X128629363Y-46051924D01*
X128667810Y-46059572D01*
X128677189Y-46062417D01*
X128713416Y-46077423D01*
X128722061Y-46082044D01*
X128754664Y-46103830D01*
X128762240Y-46110048D01*
X128789952Y-46137760D01*
X128796170Y-46145336D01*
X128817956Y-46177939D01*
X128822577Y-46186584D01*
X128837583Y-46222811D01*
X128840428Y-46232190D01*
X128848076Y-46270637D01*
X128849037Y-46280392D01*
X128850000Y-46300000D01*
X128850000Y-46550000D01*
X129350000Y-46550000D01*
X129389018Y-46553843D01*
X129426537Y-46565224D01*
X129461114Y-46583706D01*
X129491421Y-46608579D01*
X129516294Y-46638886D01*
X129534776Y-46673463D01*
X129546157Y-46710982D01*
X129550000Y-46750000D01*
X129550000Y-48250000D01*
X129546157Y-48289018D01*
X129534776Y-48326537D01*
X129516294Y-48361114D01*
X129491421Y-48391421D01*
X129461114Y-48416294D01*
X129426537Y-48434776D01*
X129389018Y-48446157D01*
X129350000Y-48450000D01*
X128850000Y-48450000D01*
X128850000Y-48700000D01*
X128849037Y-48719608D01*
X128848076Y-48729363D01*
X128840428Y-48767810D01*
X128837583Y-48777189D01*
X128822577Y-48813416D01*
X128817956Y-48822061D01*
X128796170Y-48854664D01*
X128789952Y-48862240D01*
X128762240Y-48889952D01*
X128754664Y-48896170D01*
X128722061Y-48917956D01*
X128713416Y-48922577D01*
X128677189Y-48937583D01*
X128667810Y-48940428D01*
X128629363Y-48948076D01*
X128619608Y-48949037D01*
X128600000Y-48950000D01*
X126200000Y-48950000D01*
X126180392Y-48949037D01*
X126170637Y-48948076D01*
X126132190Y-48940428D01*
X126122811Y-48937583D01*
X126086584Y-48922577D01*
X126077939Y-48917956D01*
X126045336Y-48896170D01*
X126037760Y-48889952D01*
X126010048Y-48862240D01*
X126003830Y-48854664D01*
X125982044Y-48822061D01*
X125977423Y-48813416D01*
X125962417Y-48777189D01*
X125959572Y-48767810D01*
X125951924Y-48729363D01*
X125950963Y-48719608D01*
X125950000Y-48700000D01*
X125950000Y-46300000D01*
X125950963Y-46280392D01*
X125951924Y-46270637D01*
X125959572Y-46232190D01*
X125962417Y-46222811D01*
X125977423Y-46186584D01*
X125982044Y-46177939D01*
X126003830Y-46145336D01*
X126010048Y-46137760D01*
X126037760Y-46110048D01*
X126045336Y-46103830D01*
X126077939Y-46082044D01*
X126086584Y-46077423D01*
X126122811Y-46062417D01*
X126132190Y-46059572D01*
X126170637Y-46051924D01*
X126180392Y-46050963D01*
X126200000Y-46050000D01*
X128600000Y-46050000D01*
X128619608Y-46050963D01*
G37*
D11*
X116690000Y-47459999D03*
D12*
X115420000Y-50000000D03*
X125580000Y-50000000D03*
D13*
X126000000Y-50000000D03*
X115000000Y-50000000D03*
D14*
X120500000Y-50000000D03*
D11*
X123040000Y-44920000D03*
X120500000Y-55900000D03*
X115500000Y-53700000D03*
G36*
G01*
X129800000Y-52700000D02*
X129800000Y-54700000D01*
G75*
G02*
X129600000Y-54900000I-200000J0D01*
G01*
X127600000Y-54900000D01*
G75*
G02*
X127400000Y-54700000I0J200000D01*
G01*
X127400000Y-52700000D01*
G75*
G02*
X127600000Y-52500000I200000J0D01*
G01*
X129600000Y-52500000D01*
G75*
G02*
X129800000Y-52700000I0J-200000D01*
G01*
G37*
G36*
G01*
X118800000Y-54900000D02*
X118800000Y-56900000D01*
G75*
G02*
X118600000Y-57100000I-200000J0D01*
G01*
X116800000Y-57100000D01*
G75*
G02*
X116600000Y-56900000I0J200000D01*
G01*
X116600000Y-54900000D01*
G75*
G02*
X116800000Y-54700000I200000J0D01*
G01*
X118600000Y-54700000D01*
G75*
G02*
X118800000Y-54900000I0J-200000D01*
G01*
G37*
X125500000Y-53700000D03*
X117960000Y-44920000D03*
X124310000Y-47460000D03*
D10*
G36*
X135019608Y-41050963D02*
G01*
X135029363Y-41051924D01*
X135067810Y-41059572D01*
X135077189Y-41062417D01*
X135113416Y-41077423D01*
X135122061Y-41082044D01*
X135154664Y-41103830D01*
X135162240Y-41110048D01*
X135189952Y-41137760D01*
X135196170Y-41145336D01*
X135217956Y-41177939D01*
X135222577Y-41186584D01*
X135237583Y-41222811D01*
X135240428Y-41232190D01*
X135248076Y-41270637D01*
X135249037Y-41280392D01*
X135250000Y-41300000D01*
X135250000Y-43300000D01*
X135249037Y-43319608D01*
X135248076Y-43329363D01*
X135240428Y-43367810D01*
X135237583Y-43377189D01*
X135222577Y-43413416D01*
X135217956Y-43422061D01*
X135196170Y-43454664D01*
X135189952Y-43462240D01*
X135162166Y-43490013D01*
X135154546Y-43496261D01*
X135138675Y-43508013D01*
X134538675Y-43908013D01*
X134521824Y-43918089D01*
X134513175Y-43922700D01*
X134476932Y-43937666D01*
X134467549Y-43940501D01*
X134429212Y-43948095D01*
X134419509Y-43949046D01*
X134400000Y-43950000D01*
X132600000Y-43950000D01*
X132580392Y-43949037D01*
X132570637Y-43948076D01*
X132532190Y-43940428D01*
X132522811Y-43937583D01*
X132486584Y-43922577D01*
X132477939Y-43917956D01*
X132445336Y-43896170D01*
X132437760Y-43889952D01*
X132410048Y-43862240D01*
X132403830Y-43854664D01*
X132382044Y-43822061D01*
X132377423Y-43813416D01*
X132362417Y-43777189D01*
X132359572Y-43767810D01*
X132351924Y-43729363D01*
X132350963Y-43719608D01*
X132350000Y-43700000D01*
X132350000Y-43450000D01*
X131950000Y-43450000D01*
X131910982Y-43446157D01*
X131873463Y-43434776D01*
X131838886Y-43416294D01*
X131808579Y-43391421D01*
X131783706Y-43361114D01*
X131765224Y-43326537D01*
X131753843Y-43289018D01*
X131750000Y-43250000D01*
X131750000Y-41750000D01*
X131753843Y-41710982D01*
X131765224Y-41673463D01*
X131783706Y-41638886D01*
X131808579Y-41608579D01*
X131838886Y-41583706D01*
X131873463Y-41565224D01*
X131910982Y-41553843D01*
X131950000Y-41550000D01*
X132350000Y-41550000D01*
X132350000Y-41300000D01*
X132350963Y-41280392D01*
X132351924Y-41270637D01*
X132359572Y-41232190D01*
X132362417Y-41222811D01*
X132377423Y-41186584D01*
X132382044Y-41177939D01*
X132403830Y-41145336D01*
X132410048Y-41137760D01*
X132437760Y-41110048D01*
X132445336Y-41103830D01*
X132477939Y-41082044D01*
X132486584Y-41077423D01*
X132522811Y-41062417D01*
X132532190Y-41059572D01*
X132570637Y-41051924D01*
X132580392Y-41050963D01*
X132600000Y-41050000D01*
X135000000Y-41050000D01*
X135019608Y-41050963D01*
G37*
G36*
X147619608Y-43650963D02*
G01*
X147629363Y-43651924D01*
X147667810Y-43659572D01*
X147677189Y-43662417D01*
X147713416Y-43677423D01*
X147722061Y-43682044D01*
X147754664Y-43703830D01*
X147762240Y-43710048D01*
X147789952Y-43737760D01*
X147796170Y-43745336D01*
X147817956Y-43777939D01*
X147822577Y-43786584D01*
X147837583Y-43822811D01*
X147840428Y-43832190D01*
X147848076Y-43870637D01*
X147849037Y-43880392D01*
X147850000Y-43900000D01*
X147850000Y-44150000D01*
X148350000Y-44150000D01*
X148389018Y-44153843D01*
X148426537Y-44165224D01*
X148461114Y-44183706D01*
X148491421Y-44208579D01*
X148516294Y-44238886D01*
X148534776Y-44273463D01*
X148546157Y-44310982D01*
X148550000Y-44350000D01*
X148550000Y-45850000D01*
X148546157Y-45889018D01*
X148534776Y-45926537D01*
X148516294Y-45961114D01*
X148491421Y-45991421D01*
X148461114Y-46016294D01*
X148426537Y-46034776D01*
X148389018Y-46046157D01*
X148350000Y-46050000D01*
X147850000Y-46050000D01*
X147850000Y-46300000D01*
X147849037Y-46319608D01*
X147848076Y-46329363D01*
X147840428Y-46367810D01*
X147837583Y-46377189D01*
X147822577Y-46413416D01*
X147817956Y-46422061D01*
X147796170Y-46454664D01*
X147789952Y-46462240D01*
X147762240Y-46489952D01*
X147754664Y-46496170D01*
X147722061Y-46517956D01*
X147713416Y-46522577D01*
X147677189Y-46537583D01*
X147667810Y-46540428D01*
X147629363Y-46548076D01*
X147619608Y-46549037D01*
X147600000Y-46550000D01*
X145200000Y-46550000D01*
X145180392Y-46549037D01*
X145170637Y-46548076D01*
X145132190Y-46540428D01*
X145122811Y-46537583D01*
X145086584Y-46522577D01*
X145077939Y-46517956D01*
X145045336Y-46496170D01*
X145037760Y-46489952D01*
X145010048Y-46462240D01*
X145003830Y-46454664D01*
X144982044Y-46422061D01*
X144977423Y-46413416D01*
X144962417Y-46377189D01*
X144959572Y-46367810D01*
X144951924Y-46329363D01*
X144950963Y-46319608D01*
X144950000Y-46300000D01*
X144950000Y-43900000D01*
X144950963Y-43880392D01*
X144951924Y-43870637D01*
X144959572Y-43832190D01*
X144962417Y-43822811D01*
X144977423Y-43786584D01*
X144982044Y-43777939D01*
X145003830Y-43745336D01*
X145010048Y-43737760D01*
X145037760Y-43710048D01*
X145045336Y-43703830D01*
X145077939Y-43682044D01*
X145086584Y-43677423D01*
X145122811Y-43662417D01*
X145132190Y-43659572D01*
X145170637Y-43651924D01*
X145180392Y-43650963D01*
X145200000Y-43650000D01*
X147600000Y-43650000D01*
X147619608Y-43650963D01*
G37*
D11*
X135690000Y-45059999D03*
D12*
X134420000Y-47600000D03*
X144580000Y-47600000D03*
D13*
X145000000Y-47600000D03*
X134000000Y-47600000D03*
D14*
X139500000Y-47600000D03*
D11*
X142040000Y-42520000D03*
X139500000Y-53500000D03*
X134500000Y-51300000D03*
G36*
G01*
X148800000Y-50300000D02*
X148800000Y-52300000D01*
G75*
G02*
X148600000Y-52500000I-200000J0D01*
G01*
X146600000Y-52500000D01*
G75*
G02*
X146400000Y-52300000I0J200000D01*
G01*
X146400000Y-50300000D01*
G75*
G02*
X146600000Y-50100000I200000J0D01*
G01*
X148600000Y-50100000D01*
G75*
G02*
X148800000Y-50300000I0J-200000D01*
G01*
G37*
G36*
G01*
X137800000Y-52500000D02*
X137800000Y-54500000D01*
G75*
G02*
X137600000Y-54700000I-200000J0D01*
G01*
X135800000Y-54700000D01*
G75*
G02*
X135600000Y-54500000I0J200000D01*
G01*
X135600000Y-52500000D01*
G75*
G02*
X135800000Y-52300000I200000J0D01*
G01*
X137600000Y-52300000D01*
G75*
G02*
X137800000Y-52500000I0J-200000D01*
G01*
G37*
X144500000Y-51300000D03*
X136960000Y-42520000D03*
X143310000Y-45060000D03*
D10*
G36*
X154119608Y-39660963D02*
G01*
X154129363Y-39661924D01*
X154167810Y-39669572D01*
X154177189Y-39672417D01*
X154213416Y-39687423D01*
X154222061Y-39692044D01*
X154254664Y-39713830D01*
X154262240Y-39720048D01*
X154289952Y-39747760D01*
X154296170Y-39755336D01*
X154317956Y-39787939D01*
X154322577Y-39796584D01*
X154337583Y-39832811D01*
X154340428Y-39842190D01*
X154348076Y-39880637D01*
X154349037Y-39890392D01*
X154350000Y-39910000D01*
X154350000Y-41910000D01*
X154349037Y-41929608D01*
X154348076Y-41939363D01*
X154340428Y-41977810D01*
X154337583Y-41987189D01*
X154322577Y-42023416D01*
X154317956Y-42032061D01*
X154296170Y-42064664D01*
X154289952Y-42072240D01*
X154262166Y-42100013D01*
X154254546Y-42106261D01*
X154238675Y-42118013D01*
X153638675Y-42518013D01*
X153621824Y-42528089D01*
X153613175Y-42532700D01*
X153576932Y-42547666D01*
X153567549Y-42550501D01*
X153529212Y-42558095D01*
X153519509Y-42559046D01*
X153500000Y-42560000D01*
X151700000Y-42560000D01*
X151680392Y-42559037D01*
X151670637Y-42558076D01*
X151632190Y-42550428D01*
X151622811Y-42547583D01*
X151586584Y-42532577D01*
X151577939Y-42527956D01*
X151545336Y-42506170D01*
X151537760Y-42499952D01*
X151510048Y-42472240D01*
X151503830Y-42464664D01*
X151482044Y-42432061D01*
X151477423Y-42423416D01*
X151462417Y-42387189D01*
X151459572Y-42377810D01*
X151451924Y-42339363D01*
X151450963Y-42329608D01*
X151450000Y-42310000D01*
X151450000Y-42060000D01*
X151050000Y-42060000D01*
X151010982Y-42056157D01*
X150973463Y-42044776D01*
X150938886Y-42026294D01*
X150908579Y-42001421D01*
X150883706Y-41971114D01*
X150865224Y-41936537D01*
X150853843Y-41899018D01*
X150850000Y-41860000D01*
X150850000Y-40360000D01*
X150853843Y-40320982D01*
X150865224Y-40283463D01*
X150883706Y-40248886D01*
X150908579Y-40218579D01*
X150938886Y-40193706D01*
X150973463Y-40175224D01*
X151010982Y-40163843D01*
X151050000Y-40160000D01*
X151450000Y-40160000D01*
X151450000Y-39910000D01*
X151450963Y-39890392D01*
X151451924Y-39880637D01*
X151459572Y-39842190D01*
X151462417Y-39832811D01*
X151477423Y-39796584D01*
X151482044Y-39787939D01*
X151503830Y-39755336D01*
X151510048Y-39747760D01*
X151537760Y-39720048D01*
X151545336Y-39713830D01*
X151577939Y-39692044D01*
X151586584Y-39687423D01*
X151622811Y-39672417D01*
X151632190Y-39669572D01*
X151670637Y-39661924D01*
X151680392Y-39660963D01*
X151700000Y-39660000D01*
X154100000Y-39660000D01*
X154119608Y-39660963D01*
G37*
G36*
X166719608Y-42260963D02*
G01*
X166729363Y-42261924D01*
X166767810Y-42269572D01*
X166777189Y-42272417D01*
X166813416Y-42287423D01*
X166822061Y-42292044D01*
X166854664Y-42313830D01*
X166862240Y-42320048D01*
X166889952Y-42347760D01*
X166896170Y-42355336D01*
X166917956Y-42387939D01*
X166922577Y-42396584D01*
X166937583Y-42432811D01*
X166940428Y-42442190D01*
X166948076Y-42480637D01*
X166949037Y-42490392D01*
X166950000Y-42510000D01*
X166950000Y-42760000D01*
X167450000Y-42760000D01*
X167489018Y-42763843D01*
X167526537Y-42775224D01*
X167561114Y-42793706D01*
X167591421Y-42818579D01*
X167616294Y-42848886D01*
X167634776Y-42883463D01*
X167646157Y-42920982D01*
X167650000Y-42960000D01*
X167650000Y-44460000D01*
X167646157Y-44499018D01*
X167634776Y-44536537D01*
X167616294Y-44571114D01*
X167591421Y-44601421D01*
X167561114Y-44626294D01*
X167526537Y-44644776D01*
X167489018Y-44656157D01*
X167450000Y-44660000D01*
X166950000Y-44660000D01*
X166950000Y-44910000D01*
X166949037Y-44929608D01*
X166948076Y-44939363D01*
X166940428Y-44977810D01*
X166937583Y-44987189D01*
X166922577Y-45023416D01*
X166917956Y-45032061D01*
X166896170Y-45064664D01*
X166889952Y-45072240D01*
X166862240Y-45099952D01*
X166854664Y-45106170D01*
X166822061Y-45127956D01*
X166813416Y-45132577D01*
X166777189Y-45147583D01*
X166767810Y-45150428D01*
X166729363Y-45158076D01*
X166719608Y-45159037D01*
X166700000Y-45160000D01*
X164300000Y-45160000D01*
X164280392Y-45159037D01*
X164270637Y-45158076D01*
X164232190Y-45150428D01*
X164222811Y-45147583D01*
X164186584Y-45132577D01*
X164177939Y-45127956D01*
X164145336Y-45106170D01*
X164137760Y-45099952D01*
X164110048Y-45072240D01*
X164103830Y-45064664D01*
X164082044Y-45032061D01*
X164077423Y-45023416D01*
X164062417Y-44987189D01*
X164059572Y-44977810D01*
X164051924Y-44939363D01*
X164050963Y-44929608D01*
X164050000Y-44910000D01*
X164050000Y-42510000D01*
X164050963Y-42490392D01*
X164051924Y-42480637D01*
X164059572Y-42442190D01*
X164062417Y-42432811D01*
X164077423Y-42396584D01*
X164082044Y-42387939D01*
X164103830Y-42355336D01*
X164110048Y-42347760D01*
X164137760Y-42320048D01*
X164145336Y-42313830D01*
X164177939Y-42292044D01*
X164186584Y-42287423D01*
X164222811Y-42272417D01*
X164232190Y-42269572D01*
X164270637Y-42261924D01*
X164280392Y-42260963D01*
X164300000Y-42260000D01*
X166700000Y-42260000D01*
X166719608Y-42260963D01*
G37*
D11*
X154790000Y-43669999D03*
D12*
X153520000Y-46210000D03*
X163680000Y-46210000D03*
D13*
X164100000Y-46210000D03*
X153100000Y-46210000D03*
D14*
X158600000Y-46210000D03*
D11*
X161140000Y-41130000D03*
X158600000Y-52110000D03*
X153600000Y-49910000D03*
G36*
G01*
X167900000Y-48910000D02*
X167900000Y-50910000D01*
G75*
G02*
X167700000Y-51110000I-200000J0D01*
G01*
X165700000Y-51110000D01*
G75*
G02*
X165500000Y-50910000I0J200000D01*
G01*
X165500000Y-48910000D01*
G75*
G02*
X165700000Y-48710000I200000J0D01*
G01*
X167700000Y-48710000D01*
G75*
G02*
X167900000Y-48910000I0J-200000D01*
G01*
G37*
G36*
G01*
X156900000Y-51110000D02*
X156900000Y-53110000D01*
G75*
G02*
X156700000Y-53310000I-200000J0D01*
G01*
X154900000Y-53310000D01*
G75*
G02*
X154700000Y-53110000I0J200000D01*
G01*
X154700000Y-51110000D01*
G75*
G02*
X154900000Y-50910000I200000J0D01*
G01*
X156700000Y-50910000D01*
G75*
G02*
X156900000Y-51110000I0J-200000D01*
G01*
G37*
X163600000Y-49910000D03*
X156060000Y-41130000D03*
X162410000Y-43670000D03*
D10*
G36*
X173119608Y-41050963D02*
G01*
X173129363Y-41051924D01*
X173167810Y-41059572D01*
X173177189Y-41062417D01*
X173213416Y-41077423D01*
X173222061Y-41082044D01*
X173254664Y-41103830D01*
X173262240Y-41110048D01*
X173289952Y-41137760D01*
X173296170Y-41145336D01*
X173317956Y-41177939D01*
X173322577Y-41186584D01*
X173337583Y-41222811D01*
X173340428Y-41232190D01*
X173348076Y-41270637D01*
X173349037Y-41280392D01*
X173350000Y-41300000D01*
X173350000Y-43300000D01*
X173349037Y-43319608D01*
X173348076Y-43329363D01*
X173340428Y-43367810D01*
X173337583Y-43377189D01*
X173322577Y-43413416D01*
X173317956Y-43422061D01*
X173296170Y-43454664D01*
X173289952Y-43462240D01*
X173262166Y-43490013D01*
X173254546Y-43496261D01*
X173238675Y-43508013D01*
X172638675Y-43908013D01*
X172621824Y-43918089D01*
X172613175Y-43922700D01*
X172576932Y-43937666D01*
X172567549Y-43940501D01*
X172529212Y-43948095D01*
X172519509Y-43949046D01*
X172500000Y-43950000D01*
X170700000Y-43950000D01*
X170680392Y-43949037D01*
X170670637Y-43948076D01*
X170632190Y-43940428D01*
X170622811Y-43937583D01*
X170586584Y-43922577D01*
X170577939Y-43917956D01*
X170545336Y-43896170D01*
X170537760Y-43889952D01*
X170510048Y-43862240D01*
X170503830Y-43854664D01*
X170482044Y-43822061D01*
X170477423Y-43813416D01*
X170462417Y-43777189D01*
X170459572Y-43767810D01*
X170451924Y-43729363D01*
X170450963Y-43719608D01*
X170450000Y-43700000D01*
X170450000Y-43450000D01*
X170050000Y-43450000D01*
X170010982Y-43446157D01*
X169973463Y-43434776D01*
X169938886Y-43416294D01*
X169908579Y-43391421D01*
X169883706Y-43361114D01*
X169865224Y-43326537D01*
X169853843Y-43289018D01*
X169850000Y-43250000D01*
X169850000Y-41750000D01*
X169853843Y-41710982D01*
X169865224Y-41673463D01*
X169883706Y-41638886D01*
X169908579Y-41608579D01*
X169938886Y-41583706D01*
X169973463Y-41565224D01*
X170010982Y-41553843D01*
X170050000Y-41550000D01*
X170450000Y-41550000D01*
X170450000Y-41300000D01*
X170450963Y-41280392D01*
X170451924Y-41270637D01*
X170459572Y-41232190D01*
X170462417Y-41222811D01*
X170477423Y-41186584D01*
X170482044Y-41177939D01*
X170503830Y-41145336D01*
X170510048Y-41137760D01*
X170537760Y-41110048D01*
X170545336Y-41103830D01*
X170577939Y-41082044D01*
X170586584Y-41077423D01*
X170622811Y-41062417D01*
X170632190Y-41059572D01*
X170670637Y-41051924D01*
X170680392Y-41050963D01*
X170700000Y-41050000D01*
X173100000Y-41050000D01*
X173119608Y-41050963D01*
G37*
G36*
X185719608Y-43650963D02*
G01*
X185729363Y-43651924D01*
X185767810Y-43659572D01*
X185777189Y-43662417D01*
X185813416Y-43677423D01*
X185822061Y-43682044D01*
X185854664Y-43703830D01*
X185862240Y-43710048D01*
X185889952Y-43737760D01*
X185896170Y-43745336D01*
X185917956Y-43777939D01*
X185922577Y-43786584D01*
X185937583Y-43822811D01*
X185940428Y-43832190D01*
X185948076Y-43870637D01*
X185949037Y-43880392D01*
X185950000Y-43900000D01*
X185950000Y-44150000D01*
X186450000Y-44150000D01*
X186489018Y-44153843D01*
X186526537Y-44165224D01*
X186561114Y-44183706D01*
X186591421Y-44208579D01*
X186616294Y-44238886D01*
X186634776Y-44273463D01*
X186646157Y-44310982D01*
X186650000Y-44350000D01*
X186650000Y-45850000D01*
X186646157Y-45889018D01*
X186634776Y-45926537D01*
X186616294Y-45961114D01*
X186591421Y-45991421D01*
X186561114Y-46016294D01*
X186526537Y-46034776D01*
X186489018Y-46046157D01*
X186450000Y-46050000D01*
X185950000Y-46050000D01*
X185950000Y-46300000D01*
X185949037Y-46319608D01*
X185948076Y-46329363D01*
X185940428Y-46367810D01*
X185937583Y-46377189D01*
X185922577Y-46413416D01*
X185917956Y-46422061D01*
X185896170Y-46454664D01*
X185889952Y-46462240D01*
X185862240Y-46489952D01*
X185854664Y-46496170D01*
X185822061Y-46517956D01*
X185813416Y-46522577D01*
X185777189Y-46537583D01*
X185767810Y-46540428D01*
X185729363Y-46548076D01*
X185719608Y-46549037D01*
X185700000Y-46550000D01*
X183300000Y-46550000D01*
X183280392Y-46549037D01*
X183270637Y-46548076D01*
X183232190Y-46540428D01*
X183222811Y-46537583D01*
X183186584Y-46522577D01*
X183177939Y-46517956D01*
X183145336Y-46496170D01*
X183137760Y-46489952D01*
X183110048Y-46462240D01*
X183103830Y-46454664D01*
X183082044Y-46422061D01*
X183077423Y-46413416D01*
X183062417Y-46377189D01*
X183059572Y-46367810D01*
X183051924Y-46329363D01*
X183050963Y-46319608D01*
X183050000Y-46300000D01*
X183050000Y-43900000D01*
X183050963Y-43880392D01*
X183051924Y-43870637D01*
X183059572Y-43832190D01*
X183062417Y-43822811D01*
X183077423Y-43786584D01*
X183082044Y-43777939D01*
X183103830Y-43745336D01*
X183110048Y-43737760D01*
X183137760Y-43710048D01*
X183145336Y-43703830D01*
X183177939Y-43682044D01*
X183186584Y-43677423D01*
X183222811Y-43662417D01*
X183232190Y-43659572D01*
X183270637Y-43651924D01*
X183280392Y-43650963D01*
X183300000Y-43650000D01*
X185700000Y-43650000D01*
X185719608Y-43650963D01*
G37*
D11*
X173790000Y-45059999D03*
D12*
X172520000Y-47600000D03*
X182680000Y-47600000D03*
D13*
X183100000Y-47600000D03*
X172100000Y-47600000D03*
D14*
X177600000Y-47600000D03*
D11*
X180140000Y-42520000D03*
X177600000Y-53500000D03*
X172600000Y-51300000D03*
G36*
G01*
X186900000Y-50300000D02*
X186900000Y-52300000D01*
G75*
G02*
X186700000Y-52500000I-200000J0D01*
G01*
X184700000Y-52500000D01*
G75*
G02*
X184500000Y-52300000I0J200000D01*
G01*
X184500000Y-50300000D01*
G75*
G02*
X184700000Y-50100000I200000J0D01*
G01*
X186700000Y-50100000D01*
G75*
G02*
X186900000Y-50300000I0J-200000D01*
G01*
G37*
G36*
G01*
X175900000Y-52500000D02*
X175900000Y-54500000D01*
G75*
G02*
X175700000Y-54700000I-200000J0D01*
G01*
X173900000Y-54700000D01*
G75*
G02*
X173700000Y-54500000I0J200000D01*
G01*
X173700000Y-52500000D01*
G75*
G02*
X173900000Y-52300000I200000J0D01*
G01*
X175700000Y-52300000D01*
G75*
G02*
X175900000Y-52500000I0J-200000D01*
G01*
G37*
X182600000Y-51300000D03*
X175060000Y-42520000D03*
X181410000Y-45060000D03*
D10*
G36*
X192219608Y-45850963D02*
G01*
X192229363Y-45851924D01*
X192267810Y-45859572D01*
X192277189Y-45862417D01*
X192313416Y-45877423D01*
X192322061Y-45882044D01*
X192354664Y-45903830D01*
X192362240Y-45910048D01*
X192389952Y-45937760D01*
X192396170Y-45945336D01*
X192417956Y-45977939D01*
X192422577Y-45986584D01*
X192437583Y-46022811D01*
X192440428Y-46032190D01*
X192448076Y-46070637D01*
X192449037Y-46080392D01*
X192450000Y-46100000D01*
X192450000Y-48100000D01*
X192449037Y-48119608D01*
X192448076Y-48129363D01*
X192440428Y-48167810D01*
X192437583Y-48177189D01*
X192422577Y-48213416D01*
X192417956Y-48222061D01*
X192396170Y-48254664D01*
X192389952Y-48262240D01*
X192362166Y-48290013D01*
X192354546Y-48296261D01*
X192338675Y-48308013D01*
X191738675Y-48708013D01*
X191721824Y-48718089D01*
X191713175Y-48722700D01*
X191676932Y-48737666D01*
X191667549Y-48740501D01*
X191629212Y-48748095D01*
X191619509Y-48749046D01*
X191600000Y-48750000D01*
X189800000Y-48750000D01*
X189780392Y-48749037D01*
X189770637Y-48748076D01*
X189732190Y-48740428D01*
X189722811Y-48737583D01*
X189686584Y-48722577D01*
X189677939Y-48717956D01*
X189645336Y-48696170D01*
X189637760Y-48689952D01*
X189610048Y-48662240D01*
X189603830Y-48654664D01*
X189582044Y-48622061D01*
X189577423Y-48613416D01*
X189562417Y-48577189D01*
X189559572Y-48567810D01*
X189551924Y-48529363D01*
X189550963Y-48519608D01*
X189550000Y-48500000D01*
X189550000Y-48250000D01*
X189150000Y-48250000D01*
X189110982Y-48246157D01*
X189073463Y-48234776D01*
X189038886Y-48216294D01*
X189008579Y-48191421D01*
X188983706Y-48161114D01*
X188965224Y-48126537D01*
X188953843Y-48089018D01*
X188950000Y-48050000D01*
X188950000Y-46550000D01*
X188953843Y-46510982D01*
X188965224Y-46473463D01*
X188983706Y-46438886D01*
X189008579Y-46408579D01*
X189038886Y-46383706D01*
X189073463Y-46365224D01*
X189110982Y-46353843D01*
X189150000Y-46350000D01*
X189550000Y-46350000D01*
X189550000Y-46100000D01*
X189550963Y-46080392D01*
X189551924Y-46070637D01*
X189559572Y-46032190D01*
X189562417Y-46022811D01*
X189577423Y-45986584D01*
X189582044Y-45977939D01*
X189603830Y-45945336D01*
X189610048Y-45937760D01*
X189637760Y-45910048D01*
X189645336Y-45903830D01*
X189677939Y-45882044D01*
X189686584Y-45877423D01*
X189722811Y-45862417D01*
X189732190Y-45859572D01*
X189770637Y-45851924D01*
X189780392Y-45850963D01*
X189800000Y-45850000D01*
X192200000Y-45850000D01*
X192219608Y-45850963D01*
G37*
G36*
X204819608Y-48450963D02*
G01*
X204829363Y-48451924D01*
X204867810Y-48459572D01*
X204877189Y-48462417D01*
X204913416Y-48477423D01*
X204922061Y-48482044D01*
X204954664Y-48503830D01*
X204962240Y-48510048D01*
X204989952Y-48537760D01*
X204996170Y-48545336D01*
X205017956Y-48577939D01*
X205022577Y-48586584D01*
X205037583Y-48622811D01*
X205040428Y-48632190D01*
X205048076Y-48670637D01*
X205049037Y-48680392D01*
X205050000Y-48700000D01*
X205050000Y-48950000D01*
X205550000Y-48950000D01*
X205589018Y-48953843D01*
X205626537Y-48965224D01*
X205661114Y-48983706D01*
X205691421Y-49008579D01*
X205716294Y-49038886D01*
X205734776Y-49073463D01*
X205746157Y-49110982D01*
X205750000Y-49150000D01*
X205750000Y-50650000D01*
X205746157Y-50689018D01*
X205734776Y-50726537D01*
X205716294Y-50761114D01*
X205691421Y-50791421D01*
X205661114Y-50816294D01*
X205626537Y-50834776D01*
X205589018Y-50846157D01*
X205550000Y-50850000D01*
X205050000Y-50850000D01*
X205050000Y-51100000D01*
X205049037Y-51119608D01*
X205048076Y-51129363D01*
X205040428Y-51167810D01*
X205037583Y-51177189D01*
X205022577Y-51213416D01*
X205017956Y-51222061D01*
X204996170Y-51254664D01*
X204989952Y-51262240D01*
X204962240Y-51289952D01*
X204954664Y-51296170D01*
X204922061Y-51317956D01*
X204913416Y-51322577D01*
X204877189Y-51337583D01*
X204867810Y-51340428D01*
X204829363Y-51348076D01*
X204819608Y-51349037D01*
X204800000Y-51350000D01*
X202400000Y-51350000D01*
X202380392Y-51349037D01*
X202370637Y-51348076D01*
X202332190Y-51340428D01*
X202322811Y-51337583D01*
X202286584Y-51322577D01*
X202277939Y-51317956D01*
X202245336Y-51296170D01*
X202237760Y-51289952D01*
X202210048Y-51262240D01*
X202203830Y-51254664D01*
X202182044Y-51222061D01*
X202177423Y-51213416D01*
X202162417Y-51177189D01*
X202159572Y-51167810D01*
X202151924Y-51129363D01*
X202150963Y-51119608D01*
X202150000Y-51100000D01*
X202150000Y-48700000D01*
X202150963Y-48680392D01*
X202151924Y-48670637D01*
X202159572Y-48632190D01*
X202162417Y-48622811D01*
X202177423Y-48586584D01*
X202182044Y-48577939D01*
X202203830Y-48545336D01*
X202210048Y-48537760D01*
X202237760Y-48510048D01*
X202245336Y-48503830D01*
X202277939Y-48482044D01*
X202286584Y-48477423D01*
X202322811Y-48462417D01*
X202332190Y-48459572D01*
X202370637Y-48451924D01*
X202380392Y-48450963D01*
X202400000Y-48450000D01*
X204800000Y-48450000D01*
X204819608Y-48450963D01*
G37*
D11*
X192890000Y-49859999D03*
D12*
X191620000Y-52400000D03*
X201780000Y-52400000D03*
D13*
X202200000Y-52400000D03*
X191200000Y-52400000D03*
D14*
X196700000Y-52400000D03*
D11*
X199240000Y-47320000D03*
X196700000Y-58300000D03*
X191700000Y-56100000D03*
G36*
G01*
X206000000Y-55100000D02*
X206000000Y-57100000D01*
G75*
G02*
X205800000Y-57300000I-200000J0D01*
G01*
X203800000Y-57300000D01*
G75*
G02*
X203600000Y-57100000I0J200000D01*
G01*
X203600000Y-55100000D01*
G75*
G02*
X203800000Y-54900000I200000J0D01*
G01*
X205800000Y-54900000D01*
G75*
G02*
X206000000Y-55100000I0J-200000D01*
G01*
G37*
G36*
G01*
X195000000Y-57300000D02*
X195000000Y-59300000D01*
G75*
G02*
X194800000Y-59500000I-200000J0D01*
G01*
X193000000Y-59500000D01*
G75*
G02*
X192800000Y-59300000I0J200000D01*
G01*
X192800000Y-57300000D01*
G75*
G02*
X193000000Y-57100000I200000J0D01*
G01*
X194800000Y-57100000D01*
G75*
G02*
X195000000Y-57300000I0J-200000D01*
G01*
G37*
X201700000Y-56100000D03*
X194160000Y-47320000D03*
X200510000Y-49860000D03*
D10*
G36*
X211219608Y-47350963D02*
G01*
X211229363Y-47351924D01*
X211267810Y-47359572D01*
X211277189Y-47362417D01*
X211313416Y-47377423D01*
X211322061Y-47382044D01*
X211354664Y-47403830D01*
X211362240Y-47410048D01*
X211389952Y-47437760D01*
X211396170Y-47445336D01*
X211417956Y-47477939D01*
X211422577Y-47486584D01*
X211437583Y-47522811D01*
X211440428Y-47532190D01*
X211448076Y-47570637D01*
X211449037Y-47580392D01*
X211450000Y-47600000D01*
X211450000Y-49600000D01*
X211449037Y-49619608D01*
X211448076Y-49629363D01*
X211440428Y-49667810D01*
X211437583Y-49677189D01*
X211422577Y-49713416D01*
X211417956Y-49722061D01*
X211396170Y-49754664D01*
X211389952Y-49762240D01*
X211362166Y-49790013D01*
X211354546Y-49796261D01*
X211338675Y-49808013D01*
X210738675Y-50208013D01*
X210721824Y-50218089D01*
X210713175Y-50222700D01*
X210676932Y-50237666D01*
X210667549Y-50240501D01*
X210629212Y-50248095D01*
X210619509Y-50249046D01*
X210600000Y-50250000D01*
X208800000Y-50250000D01*
X208780392Y-50249037D01*
X208770637Y-50248076D01*
X208732190Y-50240428D01*
X208722811Y-50237583D01*
X208686584Y-50222577D01*
X208677939Y-50217956D01*
X208645336Y-50196170D01*
X208637760Y-50189952D01*
X208610048Y-50162240D01*
X208603830Y-50154664D01*
X208582044Y-50122061D01*
X208577423Y-50113416D01*
X208562417Y-50077189D01*
X208559572Y-50067810D01*
X208551924Y-50029363D01*
X208550963Y-50019608D01*
X208550000Y-50000000D01*
X208550000Y-49750000D01*
X208150000Y-49750000D01*
X208110982Y-49746157D01*
X208073463Y-49734776D01*
X208038886Y-49716294D01*
X208008579Y-49691421D01*
X207983706Y-49661114D01*
X207965224Y-49626537D01*
X207953843Y-49589018D01*
X207950000Y-49550000D01*
X207950000Y-48050000D01*
X207953843Y-48010982D01*
X207965224Y-47973463D01*
X207983706Y-47938886D01*
X208008579Y-47908579D01*
X208038886Y-47883706D01*
X208073463Y-47865224D01*
X208110982Y-47853843D01*
X208150000Y-47850000D01*
X208550000Y-47850000D01*
X208550000Y-47600000D01*
X208550963Y-47580392D01*
X208551924Y-47570637D01*
X208559572Y-47532190D01*
X208562417Y-47522811D01*
X208577423Y-47486584D01*
X208582044Y-47477939D01*
X208603830Y-47445336D01*
X208610048Y-47437760D01*
X208637760Y-47410048D01*
X208645336Y-47403830D01*
X208677939Y-47382044D01*
X208686584Y-47377423D01*
X208722811Y-47362417D01*
X208732190Y-47359572D01*
X208770637Y-47351924D01*
X208780392Y-47350963D01*
X208800000Y-47350000D01*
X211200000Y-47350000D01*
X211219608Y-47350963D01*
G37*
G36*
X223819608Y-49950963D02*
G01*
X223829363Y-49951924D01*
X223867810Y-49959572D01*
X223877189Y-49962417D01*
X223913416Y-49977423D01*
X223922061Y-49982044D01*
X223954664Y-50003830D01*
X223962240Y-50010048D01*
X223989952Y-50037760D01*
X223996170Y-50045336D01*
X224017956Y-50077939D01*
X224022577Y-50086584D01*
X224037583Y-50122811D01*
X224040428Y-50132190D01*
X224048076Y-50170637D01*
X224049037Y-50180392D01*
X224050000Y-50200000D01*
X224050000Y-50450000D01*
X224550000Y-50450000D01*
X224589018Y-50453843D01*
X224626537Y-50465224D01*
X224661114Y-50483706D01*
X224691421Y-50508579D01*
X224716294Y-50538886D01*
X224734776Y-50573463D01*
X224746157Y-50610982D01*
X224750000Y-50650000D01*
X224750000Y-52150000D01*
X224746157Y-52189018D01*
X224734776Y-52226537D01*
X224716294Y-52261114D01*
X224691421Y-52291421D01*
X224661114Y-52316294D01*
X224626537Y-52334776D01*
X224589018Y-52346157D01*
X224550000Y-52350000D01*
X224050000Y-52350000D01*
X224050000Y-52600000D01*
X224049037Y-52619608D01*
X224048076Y-52629363D01*
X224040428Y-52667810D01*
X224037583Y-52677189D01*
X224022577Y-52713416D01*
X224017956Y-52722061D01*
X223996170Y-52754664D01*
X223989952Y-52762240D01*
X223962240Y-52789952D01*
X223954664Y-52796170D01*
X223922061Y-52817956D01*
X223913416Y-52822577D01*
X223877189Y-52837583D01*
X223867810Y-52840428D01*
X223829363Y-52848076D01*
X223819608Y-52849037D01*
X223800000Y-52850000D01*
X221400000Y-52850000D01*
X221380392Y-52849037D01*
X221370637Y-52848076D01*
X221332190Y-52840428D01*
X221322811Y-52837583D01*
X221286584Y-52822577D01*
X221277939Y-52817956D01*
X221245336Y-52796170D01*
X221237760Y-52789952D01*
X221210048Y-52762240D01*
X221203830Y-52754664D01*
X221182044Y-52722061D01*
X221177423Y-52713416D01*
X221162417Y-52677189D01*
X221159572Y-52667810D01*
X221151924Y-52629363D01*
X221150963Y-52619608D01*
X221150000Y-52600000D01*
X221150000Y-50200000D01*
X221150963Y-50180392D01*
X221151924Y-50170637D01*
X221159572Y-50132190D01*
X221162417Y-50122811D01*
X221177423Y-50086584D01*
X221182044Y-50077939D01*
X221203830Y-50045336D01*
X221210048Y-50037760D01*
X221237760Y-50010048D01*
X221245336Y-50003830D01*
X221277939Y-49982044D01*
X221286584Y-49977423D01*
X221322811Y-49962417D01*
X221332190Y-49959572D01*
X221370637Y-49951924D01*
X221380392Y-49950963D01*
X221400000Y-49950000D01*
X223800000Y-49950000D01*
X223819608Y-49950963D01*
G37*
D11*
X211890000Y-51359999D03*
D12*
X210620000Y-53900000D03*
X220780000Y-53900000D03*
D13*
X221200000Y-53900000D03*
X210200000Y-53900000D03*
D14*
X215700000Y-53900000D03*
D11*
X218240000Y-48820000D03*
X215700000Y-59800000D03*
X210700000Y-57600000D03*
G36*
G01*
X225000000Y-56600000D02*
X225000000Y-58600000D01*
G75*
G02*
X224800000Y-58800000I-200000J0D01*
G01*
X222800000Y-58800000D01*
G75*
G02*
X222600000Y-58600000I0J200000D01*
G01*
X222600000Y-56600000D01*
G75*
G02*
X222800000Y-56400000I200000J0D01*
G01*
X224800000Y-56400000D01*
G75*
G02*
X225000000Y-56600000I0J-200000D01*
G01*
G37*
G36*
G01*
X214000000Y-58800000D02*
X214000000Y-60800000D01*
G75*
G02*
X213800000Y-61000000I-200000J0D01*
G01*
X212000000Y-61000000D01*
G75*
G02*
X211800000Y-60800000I0J200000D01*
G01*
X211800000Y-58800000D01*
G75*
G02*
X212000000Y-58600000I200000J0D01*
G01*
X213800000Y-58600000D01*
G75*
G02*
X214000000Y-58800000I0J-200000D01*
G01*
G37*
X220700000Y-57600000D03*
X213160000Y-48820000D03*
X219510000Y-51360000D03*
D10*
G36*
X116019608Y-62550963D02*
G01*
X116029363Y-62551924D01*
X116067810Y-62559572D01*
X116077189Y-62562417D01*
X116113416Y-62577423D01*
X116122061Y-62582044D01*
X116154664Y-62603830D01*
X116162240Y-62610048D01*
X116189952Y-62637760D01*
X116196170Y-62645336D01*
X116217956Y-62677939D01*
X116222577Y-62686584D01*
X116237583Y-62722811D01*
X116240428Y-62732190D01*
X116248076Y-62770637D01*
X116249037Y-62780392D01*
X116250000Y-62800000D01*
X116250000Y-64800000D01*
X116249037Y-64819608D01*
X116248076Y-64829363D01*
X116240428Y-64867810D01*
X116237583Y-64877189D01*
X116222577Y-64913416D01*
X116217956Y-64922061D01*
X116196170Y-64954664D01*
X116189952Y-64962240D01*
X116162166Y-64990013D01*
X116154546Y-64996261D01*
X116138675Y-65008013D01*
X115538675Y-65408013D01*
X115521824Y-65418089D01*
X115513175Y-65422700D01*
X115476932Y-65437666D01*
X115467549Y-65440501D01*
X115429212Y-65448095D01*
X115419509Y-65449046D01*
X115400000Y-65450000D01*
X113600000Y-65450000D01*
X113580392Y-65449037D01*
X113570637Y-65448076D01*
X113532190Y-65440428D01*
X113522811Y-65437583D01*
X113486584Y-65422577D01*
X113477939Y-65417956D01*
X113445336Y-65396170D01*
X113437760Y-65389952D01*
X113410048Y-65362240D01*
X113403830Y-65354664D01*
X113382044Y-65322061D01*
X113377423Y-65313416D01*
X113362417Y-65277189D01*
X113359572Y-65267810D01*
X113351924Y-65229363D01*
X113350963Y-65219608D01*
X113350000Y-65200000D01*
X113350000Y-64950000D01*
X112950000Y-64950000D01*
X112910982Y-64946157D01*
X112873463Y-64934776D01*
X112838886Y-64916294D01*
X112808579Y-64891421D01*
X112783706Y-64861114D01*
X112765224Y-64826537D01*
X112753843Y-64789018D01*
X112750000Y-64750000D01*
X112750000Y-63250000D01*
X112753843Y-63210982D01*
X112765224Y-63173463D01*
X112783706Y-63138886D01*
X112808579Y-63108579D01*
X112838886Y-63083706D01*
X112873463Y-63065224D01*
X112910982Y-63053843D01*
X112950000Y-63050000D01*
X113350000Y-63050000D01*
X113350000Y-62800000D01*
X113350963Y-62780392D01*
X113351924Y-62770637D01*
X113359572Y-62732190D01*
X113362417Y-62722811D01*
X113377423Y-62686584D01*
X113382044Y-62677939D01*
X113403830Y-62645336D01*
X113410048Y-62637760D01*
X113437760Y-62610048D01*
X113445336Y-62603830D01*
X113477939Y-62582044D01*
X113486584Y-62577423D01*
X113522811Y-62562417D01*
X113532190Y-62559572D01*
X113570637Y-62551924D01*
X113580392Y-62550963D01*
X113600000Y-62550000D01*
X116000000Y-62550000D01*
X116019608Y-62550963D01*
G37*
G36*
X128619608Y-65150963D02*
G01*
X128629363Y-65151924D01*
X128667810Y-65159572D01*
X128677189Y-65162417D01*
X128713416Y-65177423D01*
X128722061Y-65182044D01*
X128754664Y-65203830D01*
X128762240Y-65210048D01*
X128789952Y-65237760D01*
X128796170Y-65245336D01*
X128817956Y-65277939D01*
X128822577Y-65286584D01*
X128837583Y-65322811D01*
X128840428Y-65332190D01*
X128848076Y-65370637D01*
X128849037Y-65380392D01*
X128850000Y-65400000D01*
X128850000Y-65650000D01*
X129350000Y-65650000D01*
X129389018Y-65653843D01*
X129426537Y-65665224D01*
X129461114Y-65683706D01*
X129491421Y-65708579D01*
X129516294Y-65738886D01*
X129534776Y-65773463D01*
X129546157Y-65810982D01*
X129550000Y-65850000D01*
X129550000Y-67350000D01*
X129546157Y-67389018D01*
X129534776Y-67426537D01*
X129516294Y-67461114D01*
X129491421Y-67491421D01*
X129461114Y-67516294D01*
X129426537Y-67534776D01*
X129389018Y-67546157D01*
X129350000Y-67550000D01*
X128850000Y-67550000D01*
X128850000Y-67800000D01*
X128849037Y-67819608D01*
X128848076Y-67829363D01*
X128840428Y-67867810D01*
X128837583Y-67877189D01*
X128822577Y-67913416D01*
X128817956Y-67922061D01*
X128796170Y-67954664D01*
X128789952Y-67962240D01*
X128762240Y-67989952D01*
X128754664Y-67996170D01*
X128722061Y-68017956D01*
X128713416Y-68022577D01*
X128677189Y-68037583D01*
X128667810Y-68040428D01*
X128629363Y-68048076D01*
X128619608Y-68049037D01*
X128600000Y-68050000D01*
X126200000Y-68050000D01*
X126180392Y-68049037D01*
X126170637Y-68048076D01*
X126132190Y-68040428D01*
X126122811Y-68037583D01*
X126086584Y-68022577D01*
X126077939Y-68017956D01*
X126045336Y-67996170D01*
X126037760Y-67989952D01*
X126010048Y-67962240D01*
X126003830Y-67954664D01*
X125982044Y-67922061D01*
X125977423Y-67913416D01*
X125962417Y-67877189D01*
X125959572Y-67867810D01*
X125951924Y-67829363D01*
X125950963Y-67819608D01*
X125950000Y-67800000D01*
X125950000Y-65400000D01*
X125950963Y-65380392D01*
X125951924Y-65370637D01*
X125959572Y-65332190D01*
X125962417Y-65322811D01*
X125977423Y-65286584D01*
X125982044Y-65277939D01*
X126003830Y-65245336D01*
X126010048Y-65237760D01*
X126037760Y-65210048D01*
X126045336Y-65203830D01*
X126077939Y-65182044D01*
X126086584Y-65177423D01*
X126122811Y-65162417D01*
X126132190Y-65159572D01*
X126170637Y-65151924D01*
X126180392Y-65150963D01*
X126200000Y-65150000D01*
X128600000Y-65150000D01*
X128619608Y-65150963D01*
G37*
D11*
X116690000Y-66559999D03*
D12*
X115420000Y-69100000D03*
X125580000Y-69100000D03*
D13*
X126000000Y-69100000D03*
X115000000Y-69100000D03*
D14*
X120500000Y-69100000D03*
D11*
X123040000Y-64020000D03*
X120500000Y-75000000D03*
X115500000Y-72800000D03*
G36*
G01*
X129800000Y-71800000D02*
X129800000Y-73800000D01*
G75*
G02*
X129600000Y-74000000I-200000J0D01*
G01*
X127600000Y-74000000D01*
G75*
G02*
X127400000Y-73800000I0J200000D01*
G01*
X127400000Y-71800000D01*
G75*
G02*
X127600000Y-71600000I200000J0D01*
G01*
X129600000Y-71600000D01*
G75*
G02*
X129800000Y-71800000I0J-200000D01*
G01*
G37*
G36*
G01*
X118800000Y-74000000D02*
X118800000Y-76000000D01*
G75*
G02*
X118600000Y-76200000I-200000J0D01*
G01*
X116800000Y-76200000D01*
G75*
G02*
X116600000Y-76000000I0J200000D01*
G01*
X116600000Y-74000000D01*
G75*
G02*
X116800000Y-73800000I200000J0D01*
G01*
X118600000Y-73800000D01*
G75*
G02*
X118800000Y-74000000I0J-200000D01*
G01*
G37*
X125500000Y-72800000D03*
X117960000Y-64020000D03*
X124310000Y-66560000D03*
D10*
G36*
X135019608Y-60150963D02*
G01*
X135029363Y-60151924D01*
X135067810Y-60159572D01*
X135077189Y-60162417D01*
X135113416Y-60177423D01*
X135122061Y-60182044D01*
X135154664Y-60203830D01*
X135162240Y-60210048D01*
X135189952Y-60237760D01*
X135196170Y-60245336D01*
X135217956Y-60277939D01*
X135222577Y-60286584D01*
X135237583Y-60322811D01*
X135240428Y-60332190D01*
X135248076Y-60370637D01*
X135249037Y-60380392D01*
X135250000Y-60400000D01*
X135250000Y-62400000D01*
X135249037Y-62419608D01*
X135248076Y-62429363D01*
X135240428Y-62467810D01*
X135237583Y-62477189D01*
X135222577Y-62513416D01*
X135217956Y-62522061D01*
X135196170Y-62554664D01*
X135189952Y-62562240D01*
X135162166Y-62590013D01*
X135154546Y-62596261D01*
X135138675Y-62608013D01*
X134538675Y-63008013D01*
X134521824Y-63018089D01*
X134513175Y-63022700D01*
X134476932Y-63037666D01*
X134467549Y-63040501D01*
X134429212Y-63048095D01*
X134419509Y-63049046D01*
X134400000Y-63050000D01*
X132600000Y-63050000D01*
X132580392Y-63049037D01*
X132570637Y-63048076D01*
X132532190Y-63040428D01*
X132522811Y-63037583D01*
X132486584Y-63022577D01*
X132477939Y-63017956D01*
X132445336Y-62996170D01*
X132437760Y-62989952D01*
X132410048Y-62962240D01*
X132403830Y-62954664D01*
X132382044Y-62922061D01*
X132377423Y-62913416D01*
X132362417Y-62877189D01*
X132359572Y-62867810D01*
X132351924Y-62829363D01*
X132350963Y-62819608D01*
X132350000Y-62800000D01*
X132350000Y-62550000D01*
X131950000Y-62550000D01*
X131910982Y-62546157D01*
X131873463Y-62534776D01*
X131838886Y-62516294D01*
X131808579Y-62491421D01*
X131783706Y-62461114D01*
X131765224Y-62426537D01*
X131753843Y-62389018D01*
X131750000Y-62350000D01*
X131750000Y-60850000D01*
X131753843Y-60810982D01*
X131765224Y-60773463D01*
X131783706Y-60738886D01*
X131808579Y-60708579D01*
X131838886Y-60683706D01*
X131873463Y-60665224D01*
X131910982Y-60653843D01*
X131950000Y-60650000D01*
X132350000Y-60650000D01*
X132350000Y-60400000D01*
X132350963Y-60380392D01*
X132351924Y-60370637D01*
X132359572Y-60332190D01*
X132362417Y-60322811D01*
X132377423Y-60286584D01*
X132382044Y-60277939D01*
X132403830Y-60245336D01*
X132410048Y-60237760D01*
X132437760Y-60210048D01*
X132445336Y-60203830D01*
X132477939Y-60182044D01*
X132486584Y-60177423D01*
X132522811Y-60162417D01*
X132532190Y-60159572D01*
X132570637Y-60151924D01*
X132580392Y-60150963D01*
X132600000Y-60150000D01*
X135000000Y-60150000D01*
X135019608Y-60150963D01*
G37*
G36*
X147619608Y-62750963D02*
G01*
X147629363Y-62751924D01*
X147667810Y-62759572D01*
X147677189Y-62762417D01*
X147713416Y-62777423D01*
X147722061Y-62782044D01*
X147754664Y-62803830D01*
X147762240Y-62810048D01*
X147789952Y-62837760D01*
X147796170Y-62845336D01*
X147817956Y-62877939D01*
X147822577Y-62886584D01*
X147837583Y-62922811D01*
X147840428Y-62932190D01*
X147848076Y-62970637D01*
X147849037Y-62980392D01*
X147850000Y-63000000D01*
X147850000Y-63250000D01*
X148350000Y-63250000D01*
X148389018Y-63253843D01*
X148426537Y-63265224D01*
X148461114Y-63283706D01*
X148491421Y-63308579D01*
X148516294Y-63338886D01*
X148534776Y-63373463D01*
X148546157Y-63410982D01*
X148550000Y-63450000D01*
X148550000Y-64950000D01*
X148546157Y-64989018D01*
X148534776Y-65026537D01*
X148516294Y-65061114D01*
X148491421Y-65091421D01*
X148461114Y-65116294D01*
X148426537Y-65134776D01*
X148389018Y-65146157D01*
X148350000Y-65150000D01*
X147850000Y-65150000D01*
X147850000Y-65400000D01*
X147849037Y-65419608D01*
X147848076Y-65429363D01*
X147840428Y-65467810D01*
X147837583Y-65477189D01*
X147822577Y-65513416D01*
X147817956Y-65522061D01*
X147796170Y-65554664D01*
X147789952Y-65562240D01*
X147762240Y-65589952D01*
X147754664Y-65596170D01*
X147722061Y-65617956D01*
X147713416Y-65622577D01*
X147677189Y-65637583D01*
X147667810Y-65640428D01*
X147629363Y-65648076D01*
X147619608Y-65649037D01*
X147600000Y-65650000D01*
X145200000Y-65650000D01*
X145180392Y-65649037D01*
X145170637Y-65648076D01*
X145132190Y-65640428D01*
X145122811Y-65637583D01*
X145086584Y-65622577D01*
X145077939Y-65617956D01*
X145045336Y-65596170D01*
X145037760Y-65589952D01*
X145010048Y-65562240D01*
X145003830Y-65554664D01*
X144982044Y-65522061D01*
X144977423Y-65513416D01*
X144962417Y-65477189D01*
X144959572Y-65467810D01*
X144951924Y-65429363D01*
X144950963Y-65419608D01*
X144950000Y-65400000D01*
X144950000Y-63000000D01*
X144950963Y-62980392D01*
X144951924Y-62970637D01*
X144959572Y-62932190D01*
X144962417Y-62922811D01*
X144977423Y-62886584D01*
X144982044Y-62877939D01*
X145003830Y-62845336D01*
X145010048Y-62837760D01*
X145037760Y-62810048D01*
X145045336Y-62803830D01*
X145077939Y-62782044D01*
X145086584Y-62777423D01*
X145122811Y-62762417D01*
X145132190Y-62759572D01*
X145170637Y-62751924D01*
X145180392Y-62750963D01*
X145200000Y-62750000D01*
X147600000Y-62750000D01*
X147619608Y-62750963D01*
G37*
D11*
X135690000Y-64159999D03*
D12*
X134420000Y-66700000D03*
X144580000Y-66700000D03*
D13*
X145000000Y-66700000D03*
X134000000Y-66700000D03*
D14*
X139500000Y-66700000D03*
D11*
X142040000Y-61620000D03*
X139500000Y-72600000D03*
X134500000Y-70400000D03*
G36*
G01*
X148800000Y-69400000D02*
X148800000Y-71400000D01*
G75*
G02*
X148600000Y-71600000I-200000J0D01*
G01*
X146600000Y-71600000D01*
G75*
G02*
X146400000Y-71400000I0J200000D01*
G01*
X146400000Y-69400000D01*
G75*
G02*
X146600000Y-69200000I200000J0D01*
G01*
X148600000Y-69200000D01*
G75*
G02*
X148800000Y-69400000I0J-200000D01*
G01*
G37*
G36*
G01*
X137800000Y-71600000D02*
X137800000Y-73600000D01*
G75*
G02*
X137600000Y-73800000I-200000J0D01*
G01*
X135800000Y-73800000D01*
G75*
G02*
X135600000Y-73600000I0J200000D01*
G01*
X135600000Y-71600000D01*
G75*
G02*
X135800000Y-71400000I200000J0D01*
G01*
X137600000Y-71400000D01*
G75*
G02*
X137800000Y-71600000I0J-200000D01*
G01*
G37*
X144500000Y-70400000D03*
X136960000Y-61620000D03*
X143310000Y-64160000D03*
D10*
G36*
X154119608Y-58750963D02*
G01*
X154129363Y-58751924D01*
X154167810Y-58759572D01*
X154177189Y-58762417D01*
X154213416Y-58777423D01*
X154222061Y-58782044D01*
X154254664Y-58803830D01*
X154262240Y-58810048D01*
X154289952Y-58837760D01*
X154296170Y-58845336D01*
X154317956Y-58877939D01*
X154322577Y-58886584D01*
X154337583Y-58922811D01*
X154340428Y-58932190D01*
X154348076Y-58970637D01*
X154349037Y-58980392D01*
X154350000Y-59000000D01*
X154350000Y-61000000D01*
X154349037Y-61019608D01*
X154348076Y-61029363D01*
X154340428Y-61067810D01*
X154337583Y-61077189D01*
X154322577Y-61113416D01*
X154317956Y-61122061D01*
X154296170Y-61154664D01*
X154289952Y-61162240D01*
X154262166Y-61190013D01*
X154254546Y-61196261D01*
X154238675Y-61208013D01*
X153638675Y-61608013D01*
X153621824Y-61618089D01*
X153613175Y-61622700D01*
X153576932Y-61637666D01*
X153567549Y-61640501D01*
X153529212Y-61648095D01*
X153519509Y-61649046D01*
X153500000Y-61650000D01*
X151700000Y-61650000D01*
X151680392Y-61649037D01*
X151670637Y-61648076D01*
X151632190Y-61640428D01*
X151622811Y-61637583D01*
X151586584Y-61622577D01*
X151577939Y-61617956D01*
X151545336Y-61596170D01*
X151537760Y-61589952D01*
X151510048Y-61562240D01*
X151503830Y-61554664D01*
X151482044Y-61522061D01*
X151477423Y-61513416D01*
X151462417Y-61477189D01*
X151459572Y-61467810D01*
X151451924Y-61429363D01*
X151450963Y-61419608D01*
X151450000Y-61400000D01*
X151450000Y-61150000D01*
X151050000Y-61150000D01*
X151010982Y-61146157D01*
X150973463Y-61134776D01*
X150938886Y-61116294D01*
X150908579Y-61091421D01*
X150883706Y-61061114D01*
X150865224Y-61026537D01*
X150853843Y-60989018D01*
X150850000Y-60950000D01*
X150850000Y-59450000D01*
X150853843Y-59410982D01*
X150865224Y-59373463D01*
X150883706Y-59338886D01*
X150908579Y-59308579D01*
X150938886Y-59283706D01*
X150973463Y-59265224D01*
X151010982Y-59253843D01*
X151050000Y-59250000D01*
X151450000Y-59250000D01*
X151450000Y-59000000D01*
X151450963Y-58980392D01*
X151451924Y-58970637D01*
X151459572Y-58932190D01*
X151462417Y-58922811D01*
X151477423Y-58886584D01*
X151482044Y-58877939D01*
X151503830Y-58845336D01*
X151510048Y-58837760D01*
X151537760Y-58810048D01*
X151545336Y-58803830D01*
X151577939Y-58782044D01*
X151586584Y-58777423D01*
X151622811Y-58762417D01*
X151632190Y-58759572D01*
X151670637Y-58751924D01*
X151680392Y-58750963D01*
X151700000Y-58750000D01*
X154100000Y-58750000D01*
X154119608Y-58750963D01*
G37*
G36*
X166719608Y-61350963D02*
G01*
X166729363Y-61351924D01*
X166767810Y-61359572D01*
X166777189Y-61362417D01*
X166813416Y-61377423D01*
X166822061Y-61382044D01*
X166854664Y-61403830D01*
X166862240Y-61410048D01*
X166889952Y-61437760D01*
X166896170Y-61445336D01*
X166917956Y-61477939D01*
X166922577Y-61486584D01*
X166937583Y-61522811D01*
X166940428Y-61532190D01*
X166948076Y-61570637D01*
X166949037Y-61580392D01*
X166950000Y-61600000D01*
X166950000Y-61850000D01*
X167450000Y-61850000D01*
X167489018Y-61853843D01*
X167526537Y-61865224D01*
X167561114Y-61883706D01*
X167591421Y-61908579D01*
X167616294Y-61938886D01*
X167634776Y-61973463D01*
X167646157Y-62010982D01*
X167650000Y-62050000D01*
X167650000Y-63550000D01*
X167646157Y-63589018D01*
X167634776Y-63626537D01*
X167616294Y-63661114D01*
X167591421Y-63691421D01*
X167561114Y-63716294D01*
X167526537Y-63734776D01*
X167489018Y-63746157D01*
X167450000Y-63750000D01*
X166950000Y-63750000D01*
X166950000Y-64000000D01*
X166949037Y-64019608D01*
X166948076Y-64029363D01*
X166940428Y-64067810D01*
X166937583Y-64077189D01*
X166922577Y-64113416D01*
X166917956Y-64122061D01*
X166896170Y-64154664D01*
X166889952Y-64162240D01*
X166862240Y-64189952D01*
X166854664Y-64196170D01*
X166822061Y-64217956D01*
X166813416Y-64222577D01*
X166777189Y-64237583D01*
X166767810Y-64240428D01*
X166729363Y-64248076D01*
X166719608Y-64249037D01*
X166700000Y-64250000D01*
X164300000Y-64250000D01*
X164280392Y-64249037D01*
X164270637Y-64248076D01*
X164232190Y-64240428D01*
X164222811Y-64237583D01*
X164186584Y-64222577D01*
X164177939Y-64217956D01*
X164145336Y-64196170D01*
X164137760Y-64189952D01*
X164110048Y-64162240D01*
X164103830Y-64154664D01*
X164082044Y-64122061D01*
X164077423Y-64113416D01*
X164062417Y-64077189D01*
X164059572Y-64067810D01*
X164051924Y-64029363D01*
X164050963Y-64019608D01*
X164050000Y-64000000D01*
X164050000Y-61600000D01*
X164050963Y-61580392D01*
X164051924Y-61570637D01*
X164059572Y-61532190D01*
X164062417Y-61522811D01*
X164077423Y-61486584D01*
X164082044Y-61477939D01*
X164103830Y-61445336D01*
X164110048Y-61437760D01*
X164137760Y-61410048D01*
X164145336Y-61403830D01*
X164177939Y-61382044D01*
X164186584Y-61377423D01*
X164222811Y-61362417D01*
X164232190Y-61359572D01*
X164270637Y-61351924D01*
X164280392Y-61350963D01*
X164300000Y-61350000D01*
X166700000Y-61350000D01*
X166719608Y-61350963D01*
G37*
D11*
X154790000Y-62759999D03*
D12*
X153520000Y-65300000D03*
X163680000Y-65300000D03*
D13*
X164100000Y-65300000D03*
X153100000Y-65300000D03*
D14*
X158600000Y-65300000D03*
D11*
X161140000Y-60220000D03*
X158600000Y-71200000D03*
X153600000Y-69000000D03*
G36*
G01*
X167900000Y-68000000D02*
X167900000Y-70000000D01*
G75*
G02*
X167700000Y-70200000I-200000J0D01*
G01*
X165700000Y-70200000D01*
G75*
G02*
X165500000Y-70000000I0J200000D01*
G01*
X165500000Y-68000000D01*
G75*
G02*
X165700000Y-67800000I200000J0D01*
G01*
X167700000Y-67800000D01*
G75*
G02*
X167900000Y-68000000I0J-200000D01*
G01*
G37*
G36*
G01*
X156900000Y-70200000D02*
X156900000Y-72200000D01*
G75*
G02*
X156700000Y-72400000I-200000J0D01*
G01*
X154900000Y-72400000D01*
G75*
G02*
X154700000Y-72200000I0J200000D01*
G01*
X154700000Y-70200000D01*
G75*
G02*
X154900000Y-70000000I200000J0D01*
G01*
X156700000Y-70000000D01*
G75*
G02*
X156900000Y-70200000I0J-200000D01*
G01*
G37*
X163600000Y-69000000D03*
X156060000Y-60220000D03*
X162410000Y-62760000D03*
D10*
G36*
X173119608Y-60050963D02*
G01*
X173129363Y-60051924D01*
X173167810Y-60059572D01*
X173177189Y-60062417D01*
X173213416Y-60077423D01*
X173222061Y-60082044D01*
X173254664Y-60103830D01*
X173262240Y-60110048D01*
X173289952Y-60137760D01*
X173296170Y-60145336D01*
X173317956Y-60177939D01*
X173322577Y-60186584D01*
X173337583Y-60222811D01*
X173340428Y-60232190D01*
X173348076Y-60270637D01*
X173349037Y-60280392D01*
X173350000Y-60300000D01*
X173350000Y-62300000D01*
X173349037Y-62319608D01*
X173348076Y-62329363D01*
X173340428Y-62367810D01*
X173337583Y-62377189D01*
X173322577Y-62413416D01*
X173317956Y-62422061D01*
X173296170Y-62454664D01*
X173289952Y-62462240D01*
X173262166Y-62490013D01*
X173254546Y-62496261D01*
X173238675Y-62508013D01*
X172638675Y-62908013D01*
X172621824Y-62918089D01*
X172613175Y-62922700D01*
X172576932Y-62937666D01*
X172567549Y-62940501D01*
X172529212Y-62948095D01*
X172519509Y-62949046D01*
X172500000Y-62950000D01*
X170700000Y-62950000D01*
X170680392Y-62949037D01*
X170670637Y-62948076D01*
X170632190Y-62940428D01*
X170622811Y-62937583D01*
X170586584Y-62922577D01*
X170577939Y-62917956D01*
X170545336Y-62896170D01*
X170537760Y-62889952D01*
X170510048Y-62862240D01*
X170503830Y-62854664D01*
X170482044Y-62822061D01*
X170477423Y-62813416D01*
X170462417Y-62777189D01*
X170459572Y-62767810D01*
X170451924Y-62729363D01*
X170450963Y-62719608D01*
X170450000Y-62700000D01*
X170450000Y-62450000D01*
X170050000Y-62450000D01*
X170010982Y-62446157D01*
X169973463Y-62434776D01*
X169938886Y-62416294D01*
X169908579Y-62391421D01*
X169883706Y-62361114D01*
X169865224Y-62326537D01*
X169853843Y-62289018D01*
X169850000Y-62250000D01*
X169850000Y-60750000D01*
X169853843Y-60710982D01*
X169865224Y-60673463D01*
X169883706Y-60638886D01*
X169908579Y-60608579D01*
X169938886Y-60583706D01*
X169973463Y-60565224D01*
X170010982Y-60553843D01*
X170050000Y-60550000D01*
X170450000Y-60550000D01*
X170450000Y-60300000D01*
X170450963Y-60280392D01*
X170451924Y-60270637D01*
X170459572Y-60232190D01*
X170462417Y-60222811D01*
X170477423Y-60186584D01*
X170482044Y-60177939D01*
X170503830Y-60145336D01*
X170510048Y-60137760D01*
X170537760Y-60110048D01*
X170545336Y-60103830D01*
X170577939Y-60082044D01*
X170586584Y-60077423D01*
X170622811Y-60062417D01*
X170632190Y-60059572D01*
X170670637Y-60051924D01*
X170680392Y-60050963D01*
X170700000Y-60050000D01*
X173100000Y-60050000D01*
X173119608Y-60050963D01*
G37*
G36*
X185719608Y-62650963D02*
G01*
X185729363Y-62651924D01*
X185767810Y-62659572D01*
X185777189Y-62662417D01*
X185813416Y-62677423D01*
X185822061Y-62682044D01*
X185854664Y-62703830D01*
X185862240Y-62710048D01*
X185889952Y-62737760D01*
X185896170Y-62745336D01*
X185917956Y-62777939D01*
X185922577Y-62786584D01*
X185937583Y-62822811D01*
X185940428Y-62832190D01*
X185948076Y-62870637D01*
X185949037Y-62880392D01*
X185950000Y-62900000D01*
X185950000Y-63150000D01*
X186450000Y-63150000D01*
X186489018Y-63153843D01*
X186526537Y-63165224D01*
X186561114Y-63183706D01*
X186591421Y-63208579D01*
X186616294Y-63238886D01*
X186634776Y-63273463D01*
X186646157Y-63310982D01*
X186650000Y-63350000D01*
X186650000Y-64850000D01*
X186646157Y-64889018D01*
X186634776Y-64926537D01*
X186616294Y-64961114D01*
X186591421Y-64991421D01*
X186561114Y-65016294D01*
X186526537Y-65034776D01*
X186489018Y-65046157D01*
X186450000Y-65050000D01*
X185950000Y-65050000D01*
X185950000Y-65300000D01*
X185949037Y-65319608D01*
X185948076Y-65329363D01*
X185940428Y-65367810D01*
X185937583Y-65377189D01*
X185922577Y-65413416D01*
X185917956Y-65422061D01*
X185896170Y-65454664D01*
X185889952Y-65462240D01*
X185862240Y-65489952D01*
X185854664Y-65496170D01*
X185822061Y-65517956D01*
X185813416Y-65522577D01*
X185777189Y-65537583D01*
X185767810Y-65540428D01*
X185729363Y-65548076D01*
X185719608Y-65549037D01*
X185700000Y-65550000D01*
X183300000Y-65550000D01*
X183280392Y-65549037D01*
X183270637Y-65548076D01*
X183232190Y-65540428D01*
X183222811Y-65537583D01*
X183186584Y-65522577D01*
X183177939Y-65517956D01*
X183145336Y-65496170D01*
X183137760Y-65489952D01*
X183110048Y-65462240D01*
X183103830Y-65454664D01*
X183082044Y-65422061D01*
X183077423Y-65413416D01*
X183062417Y-65377189D01*
X183059572Y-65367810D01*
X183051924Y-65329363D01*
X183050963Y-65319608D01*
X183050000Y-65300000D01*
X183050000Y-62900000D01*
X183050963Y-62880392D01*
X183051924Y-62870637D01*
X183059572Y-62832190D01*
X183062417Y-62822811D01*
X183077423Y-62786584D01*
X183082044Y-62777939D01*
X183103830Y-62745336D01*
X183110048Y-62737760D01*
X183137760Y-62710048D01*
X183145336Y-62703830D01*
X183177939Y-62682044D01*
X183186584Y-62677423D01*
X183222811Y-62662417D01*
X183232190Y-62659572D01*
X183270637Y-62651924D01*
X183280392Y-62650963D01*
X183300000Y-62650000D01*
X185700000Y-62650000D01*
X185719608Y-62650963D01*
G37*
D11*
X173790000Y-64059999D03*
D12*
X172520000Y-66600000D03*
X182680000Y-66600000D03*
D13*
X183100000Y-66600000D03*
X172100000Y-66600000D03*
D14*
X177600000Y-66600000D03*
D11*
X180140000Y-61520000D03*
X177600000Y-72500000D03*
X172600000Y-70300000D03*
G36*
G01*
X186900000Y-69300000D02*
X186900000Y-71300000D01*
G75*
G02*
X186700000Y-71500000I-200000J0D01*
G01*
X184700000Y-71500000D01*
G75*
G02*
X184500000Y-71300000I0J200000D01*
G01*
X184500000Y-69300000D01*
G75*
G02*
X184700000Y-69100000I200000J0D01*
G01*
X186700000Y-69100000D01*
G75*
G02*
X186900000Y-69300000I0J-200000D01*
G01*
G37*
G36*
G01*
X175900000Y-71500000D02*
X175900000Y-73500000D01*
G75*
G02*
X175700000Y-73700000I-200000J0D01*
G01*
X173900000Y-73700000D01*
G75*
G02*
X173700000Y-73500000I0J200000D01*
G01*
X173700000Y-71500000D01*
G75*
G02*
X173900000Y-71300000I200000J0D01*
G01*
X175700000Y-71300000D01*
G75*
G02*
X175900000Y-71500000I0J-200000D01*
G01*
G37*
X182600000Y-70300000D03*
X175060000Y-61520000D03*
X181410000Y-64060000D03*
D10*
G36*
X192219608Y-64750963D02*
G01*
X192229363Y-64751924D01*
X192267810Y-64759572D01*
X192277189Y-64762417D01*
X192313416Y-64777423D01*
X192322061Y-64782044D01*
X192354664Y-64803830D01*
X192362240Y-64810048D01*
X192389952Y-64837760D01*
X192396170Y-64845336D01*
X192417956Y-64877939D01*
X192422577Y-64886584D01*
X192437583Y-64922811D01*
X192440428Y-64932190D01*
X192448076Y-64970637D01*
X192449037Y-64980392D01*
X192450000Y-65000000D01*
X192450000Y-67000000D01*
X192449037Y-67019608D01*
X192448076Y-67029363D01*
X192440428Y-67067810D01*
X192437583Y-67077189D01*
X192422577Y-67113416D01*
X192417956Y-67122061D01*
X192396170Y-67154664D01*
X192389952Y-67162240D01*
X192362166Y-67190013D01*
X192354546Y-67196261D01*
X192338675Y-67208013D01*
X191738675Y-67608013D01*
X191721824Y-67618089D01*
X191713175Y-67622700D01*
X191676932Y-67637666D01*
X191667549Y-67640501D01*
X191629212Y-67648095D01*
X191619509Y-67649046D01*
X191600000Y-67650000D01*
X189800000Y-67650000D01*
X189780392Y-67649037D01*
X189770637Y-67648076D01*
X189732190Y-67640428D01*
X189722811Y-67637583D01*
X189686584Y-67622577D01*
X189677939Y-67617956D01*
X189645336Y-67596170D01*
X189637760Y-67589952D01*
X189610048Y-67562240D01*
X189603830Y-67554664D01*
X189582044Y-67522061D01*
X189577423Y-67513416D01*
X189562417Y-67477189D01*
X189559572Y-67467810D01*
X189551924Y-67429363D01*
X189550963Y-67419608D01*
X189550000Y-67400000D01*
X189550000Y-67150000D01*
X189150000Y-67150000D01*
X189110982Y-67146157D01*
X189073463Y-67134776D01*
X189038886Y-67116294D01*
X189008579Y-67091421D01*
X188983706Y-67061114D01*
X188965224Y-67026537D01*
X188953843Y-66989018D01*
X188950000Y-66950000D01*
X188950000Y-65450000D01*
X188953843Y-65410982D01*
X188965224Y-65373463D01*
X188983706Y-65338886D01*
X189008579Y-65308579D01*
X189038886Y-65283706D01*
X189073463Y-65265224D01*
X189110982Y-65253843D01*
X189150000Y-65250000D01*
X189550000Y-65250000D01*
X189550000Y-65000000D01*
X189550963Y-64980392D01*
X189551924Y-64970637D01*
X189559572Y-64932190D01*
X189562417Y-64922811D01*
X189577423Y-64886584D01*
X189582044Y-64877939D01*
X189603830Y-64845336D01*
X189610048Y-64837760D01*
X189637760Y-64810048D01*
X189645336Y-64803830D01*
X189677939Y-64782044D01*
X189686584Y-64777423D01*
X189722811Y-64762417D01*
X189732190Y-64759572D01*
X189770637Y-64751924D01*
X189780392Y-64750963D01*
X189800000Y-64750000D01*
X192200000Y-64750000D01*
X192219608Y-64750963D01*
G37*
G36*
X204819608Y-67350963D02*
G01*
X204829363Y-67351924D01*
X204867810Y-67359572D01*
X204877189Y-67362417D01*
X204913416Y-67377423D01*
X204922061Y-67382044D01*
X204954664Y-67403830D01*
X204962240Y-67410048D01*
X204989952Y-67437760D01*
X204996170Y-67445336D01*
X205017956Y-67477939D01*
X205022577Y-67486584D01*
X205037583Y-67522811D01*
X205040428Y-67532190D01*
X205048076Y-67570637D01*
X205049037Y-67580392D01*
X205050000Y-67600000D01*
X205050000Y-67850000D01*
X205550000Y-67850000D01*
X205589018Y-67853843D01*
X205626537Y-67865224D01*
X205661114Y-67883706D01*
X205691421Y-67908579D01*
X205716294Y-67938886D01*
X205734776Y-67973463D01*
X205746157Y-68010982D01*
X205750000Y-68050000D01*
X205750000Y-69550000D01*
X205746157Y-69589018D01*
X205734776Y-69626537D01*
X205716294Y-69661114D01*
X205691421Y-69691421D01*
X205661114Y-69716294D01*
X205626537Y-69734776D01*
X205589018Y-69746157D01*
X205550000Y-69750000D01*
X205050000Y-69750000D01*
X205050000Y-70000000D01*
X205049037Y-70019608D01*
X205048076Y-70029363D01*
X205040428Y-70067810D01*
X205037583Y-70077189D01*
X205022577Y-70113416D01*
X205017956Y-70122061D01*
X204996170Y-70154664D01*
X204989952Y-70162240D01*
X204962240Y-70189952D01*
X204954664Y-70196170D01*
X204922061Y-70217956D01*
X204913416Y-70222577D01*
X204877189Y-70237583D01*
X204867810Y-70240428D01*
X204829363Y-70248076D01*
X204819608Y-70249037D01*
X204800000Y-70250000D01*
X202400000Y-70250000D01*
X202380392Y-70249037D01*
X202370637Y-70248076D01*
X202332190Y-70240428D01*
X202322811Y-70237583D01*
X202286584Y-70222577D01*
X202277939Y-70217956D01*
X202245336Y-70196170D01*
X202237760Y-70189952D01*
X202210048Y-70162240D01*
X202203830Y-70154664D01*
X202182044Y-70122061D01*
X202177423Y-70113416D01*
X202162417Y-70077189D01*
X202159572Y-70067810D01*
X202151924Y-70029363D01*
X202150963Y-70019608D01*
X202150000Y-70000000D01*
X202150000Y-67600000D01*
X202150963Y-67580392D01*
X202151924Y-67570637D01*
X202159572Y-67532190D01*
X202162417Y-67522811D01*
X202177423Y-67486584D01*
X202182044Y-67477939D01*
X202203830Y-67445336D01*
X202210048Y-67437760D01*
X202237760Y-67410048D01*
X202245336Y-67403830D01*
X202277939Y-67382044D01*
X202286584Y-67377423D01*
X202322811Y-67362417D01*
X202332190Y-67359572D01*
X202370637Y-67351924D01*
X202380392Y-67350963D01*
X202400000Y-67350000D01*
X204800000Y-67350000D01*
X204819608Y-67350963D01*
G37*
D11*
X192890000Y-68759999D03*
D12*
X191620000Y-71300000D03*
X201780000Y-71300000D03*
D13*
X202200000Y-71300000D03*
X191200000Y-71300000D03*
D14*
X196700000Y-71300000D03*
D11*
X199240000Y-66220000D03*
X196700000Y-77200000D03*
X191700000Y-75000000D03*
G36*
G01*
X206000000Y-74000000D02*
X206000000Y-76000000D01*
G75*
G02*
X205800000Y-76200000I-200000J0D01*
G01*
X203800000Y-76200000D01*
G75*
G02*
X203600000Y-76000000I0J200000D01*
G01*
X203600000Y-74000000D01*
G75*
G02*
X203800000Y-73800000I200000J0D01*
G01*
X205800000Y-73800000D01*
G75*
G02*
X206000000Y-74000000I0J-200000D01*
G01*
G37*
G36*
G01*
X195000000Y-76200000D02*
X195000000Y-78200000D01*
G75*
G02*
X194800000Y-78400000I-200000J0D01*
G01*
X193000000Y-78400000D01*
G75*
G02*
X192800000Y-78200000I0J200000D01*
G01*
X192800000Y-76200000D01*
G75*
G02*
X193000000Y-76000000I200000J0D01*
G01*
X194800000Y-76000000D01*
G75*
G02*
X195000000Y-76200000I0J-200000D01*
G01*
G37*
X201700000Y-75000000D03*
X194160000Y-66220000D03*
X200510000Y-68760000D03*
D10*
G36*
X211219608Y-66250963D02*
G01*
X211229363Y-66251924D01*
X211267810Y-66259572D01*
X211277189Y-66262417D01*
X211313416Y-66277423D01*
X211322061Y-66282044D01*
X211354664Y-66303830D01*
X211362240Y-66310048D01*
X211389952Y-66337760D01*
X211396170Y-66345336D01*
X211417956Y-66377939D01*
X211422577Y-66386584D01*
X211437583Y-66422811D01*
X211440428Y-66432190D01*
X211448076Y-66470637D01*
X211449037Y-66480392D01*
X211450000Y-66500000D01*
X211450000Y-68500000D01*
X211449037Y-68519608D01*
X211448076Y-68529363D01*
X211440428Y-68567810D01*
X211437583Y-68577189D01*
X211422577Y-68613416D01*
X211417956Y-68622061D01*
X211396170Y-68654664D01*
X211389952Y-68662240D01*
X211362166Y-68690013D01*
X211354546Y-68696261D01*
X211338675Y-68708013D01*
X210738675Y-69108013D01*
X210721824Y-69118089D01*
X210713175Y-69122700D01*
X210676932Y-69137666D01*
X210667549Y-69140501D01*
X210629212Y-69148095D01*
X210619509Y-69149046D01*
X210600000Y-69150000D01*
X208800000Y-69150000D01*
X208780392Y-69149037D01*
X208770637Y-69148076D01*
X208732190Y-69140428D01*
X208722811Y-69137583D01*
X208686584Y-69122577D01*
X208677939Y-69117956D01*
X208645336Y-69096170D01*
X208637760Y-69089952D01*
X208610048Y-69062240D01*
X208603830Y-69054664D01*
X208582044Y-69022061D01*
X208577423Y-69013416D01*
X208562417Y-68977189D01*
X208559572Y-68967810D01*
X208551924Y-68929363D01*
X208550963Y-68919608D01*
X208550000Y-68900000D01*
X208550000Y-68650000D01*
X208150000Y-68650000D01*
X208110982Y-68646157D01*
X208073463Y-68634776D01*
X208038886Y-68616294D01*
X208008579Y-68591421D01*
X207983706Y-68561114D01*
X207965224Y-68526537D01*
X207953843Y-68489018D01*
X207950000Y-68450000D01*
X207950000Y-66950000D01*
X207953843Y-66910982D01*
X207965224Y-66873463D01*
X207983706Y-66838886D01*
X208008579Y-66808579D01*
X208038886Y-66783706D01*
X208073463Y-66765224D01*
X208110982Y-66753843D01*
X208150000Y-66750000D01*
X208550000Y-66750000D01*
X208550000Y-66500000D01*
X208550963Y-66480392D01*
X208551924Y-66470637D01*
X208559572Y-66432190D01*
X208562417Y-66422811D01*
X208577423Y-66386584D01*
X208582044Y-66377939D01*
X208603830Y-66345336D01*
X208610048Y-66337760D01*
X208637760Y-66310048D01*
X208645336Y-66303830D01*
X208677939Y-66282044D01*
X208686584Y-66277423D01*
X208722811Y-66262417D01*
X208732190Y-66259572D01*
X208770637Y-66251924D01*
X208780392Y-66250963D01*
X208800000Y-66250000D01*
X211200000Y-66250000D01*
X211219608Y-66250963D01*
G37*
G36*
X223819608Y-68850963D02*
G01*
X223829363Y-68851924D01*
X223867810Y-68859572D01*
X223877189Y-68862417D01*
X223913416Y-68877423D01*
X223922061Y-68882044D01*
X223954664Y-68903830D01*
X223962240Y-68910048D01*
X223989952Y-68937760D01*
X223996170Y-68945336D01*
X224017956Y-68977939D01*
X224022577Y-68986584D01*
X224037583Y-69022811D01*
X224040428Y-69032190D01*
X224048076Y-69070637D01*
X224049037Y-69080392D01*
X224050000Y-69100000D01*
X224050000Y-69350000D01*
X224550000Y-69350000D01*
X224589018Y-69353843D01*
X224626537Y-69365224D01*
X224661114Y-69383706D01*
X224691421Y-69408579D01*
X224716294Y-69438886D01*
X224734776Y-69473463D01*
X224746157Y-69510982D01*
X224750000Y-69550000D01*
X224750000Y-71050000D01*
X224746157Y-71089018D01*
X224734776Y-71126537D01*
X224716294Y-71161114D01*
X224691421Y-71191421D01*
X224661114Y-71216294D01*
X224626537Y-71234776D01*
X224589018Y-71246157D01*
X224550000Y-71250000D01*
X224050000Y-71250000D01*
X224050000Y-71500000D01*
X224049037Y-71519608D01*
X224048076Y-71529363D01*
X224040428Y-71567810D01*
X224037583Y-71577189D01*
X224022577Y-71613416D01*
X224017956Y-71622061D01*
X223996170Y-71654664D01*
X223989952Y-71662240D01*
X223962240Y-71689952D01*
X223954664Y-71696170D01*
X223922061Y-71717956D01*
X223913416Y-71722577D01*
X223877189Y-71737583D01*
X223867810Y-71740428D01*
X223829363Y-71748076D01*
X223819608Y-71749037D01*
X223800000Y-71750000D01*
X221400000Y-71750000D01*
X221380392Y-71749037D01*
X221370637Y-71748076D01*
X221332190Y-71740428D01*
X221322811Y-71737583D01*
X221286584Y-71722577D01*
X221277939Y-71717956D01*
X221245336Y-71696170D01*
X221237760Y-71689952D01*
X221210048Y-71662240D01*
X221203830Y-71654664D01*
X221182044Y-71622061D01*
X221177423Y-71613416D01*
X221162417Y-71577189D01*
X221159572Y-71567810D01*
X221151924Y-71529363D01*
X221150963Y-71519608D01*
X221150000Y-71500000D01*
X221150000Y-69100000D01*
X221150963Y-69080392D01*
X221151924Y-69070637D01*
X221159572Y-69032190D01*
X221162417Y-69022811D01*
X221177423Y-68986584D01*
X221182044Y-68977939D01*
X221203830Y-68945336D01*
X221210048Y-68937760D01*
X221237760Y-68910048D01*
X221245336Y-68903830D01*
X221277939Y-68882044D01*
X221286584Y-68877423D01*
X221322811Y-68862417D01*
X221332190Y-68859572D01*
X221370637Y-68851924D01*
X221380392Y-68850963D01*
X221400000Y-68850000D01*
X223800000Y-68850000D01*
X223819608Y-68850963D01*
G37*
D11*
X211890000Y-70259999D03*
D12*
X210620000Y-72800000D03*
X220780000Y-72800000D03*
D13*
X221200000Y-72800000D03*
X210200000Y-72800000D03*
D14*
X215700000Y-72800000D03*
D11*
X218240000Y-67720000D03*
X215700000Y-78700000D03*
X210700000Y-76500000D03*
G36*
G01*
X225000000Y-75500000D02*
X225000000Y-77500000D01*
G75*
G02*
X224800000Y-77700000I-200000J0D01*
G01*
X222800000Y-77700000D01*
G75*
G02*
X222600000Y-77500000I0J200000D01*
G01*
X222600000Y-75500000D01*
G75*
G02*
X222800000Y-75300000I200000J0D01*
G01*
X224800000Y-75300000D01*
G75*
G02*
X225000000Y-75500000I0J-200000D01*
G01*
G37*
G36*
G01*
X214000000Y-77700000D02*
X214000000Y-79700000D01*
G75*
G02*
X213800000Y-79900000I-200000J0D01*
G01*
X212000000Y-79900000D01*
G75*
G02*
X211800000Y-79700000I0J200000D01*
G01*
X211800000Y-77700000D01*
G75*
G02*
X212000000Y-77500000I200000J0D01*
G01*
X213800000Y-77500000D01*
G75*
G02*
X214000000Y-77700000I0J-200000D01*
G01*
G37*
X220700000Y-76500000D03*
X213160000Y-67720000D03*
X219510000Y-70260000D03*
D10*
G36*
X116019608Y-81550963D02*
G01*
X116029363Y-81551924D01*
X116067810Y-81559572D01*
X116077189Y-81562417D01*
X116113416Y-81577423D01*
X116122061Y-81582044D01*
X116154664Y-81603830D01*
X116162240Y-81610048D01*
X116189952Y-81637760D01*
X116196170Y-81645336D01*
X116217956Y-81677939D01*
X116222577Y-81686584D01*
X116237583Y-81722811D01*
X116240428Y-81732190D01*
X116248076Y-81770637D01*
X116249037Y-81780392D01*
X116250000Y-81800000D01*
X116250000Y-83800000D01*
X116249037Y-83819608D01*
X116248076Y-83829363D01*
X116240428Y-83867810D01*
X116237583Y-83877189D01*
X116222577Y-83913416D01*
X116217956Y-83922061D01*
X116196170Y-83954664D01*
X116189952Y-83962240D01*
X116162166Y-83990013D01*
X116154546Y-83996261D01*
X116138675Y-84008013D01*
X115538675Y-84408013D01*
X115521824Y-84418089D01*
X115513175Y-84422700D01*
X115476932Y-84437666D01*
X115467549Y-84440501D01*
X115429212Y-84448095D01*
X115419509Y-84449046D01*
X115400000Y-84450000D01*
X113600000Y-84450000D01*
X113580392Y-84449037D01*
X113570637Y-84448076D01*
X113532190Y-84440428D01*
X113522811Y-84437583D01*
X113486584Y-84422577D01*
X113477939Y-84417956D01*
X113445336Y-84396170D01*
X113437760Y-84389952D01*
X113410048Y-84362240D01*
X113403830Y-84354664D01*
X113382044Y-84322061D01*
X113377423Y-84313416D01*
X113362417Y-84277189D01*
X113359572Y-84267810D01*
X113351924Y-84229363D01*
X113350963Y-84219608D01*
X113350000Y-84200000D01*
X113350000Y-83950000D01*
X112950000Y-83950000D01*
X112910982Y-83946157D01*
X112873463Y-83934776D01*
X112838886Y-83916294D01*
X112808579Y-83891421D01*
X112783706Y-83861114D01*
X112765224Y-83826537D01*
X112753843Y-83789018D01*
X112750000Y-83750000D01*
X112750000Y-82250000D01*
X112753843Y-82210982D01*
X112765224Y-82173463D01*
X112783706Y-82138886D01*
X112808579Y-82108579D01*
X112838886Y-82083706D01*
X112873463Y-82065224D01*
X112910982Y-82053843D01*
X112950000Y-82050000D01*
X113350000Y-82050000D01*
X113350000Y-81800000D01*
X113350963Y-81780392D01*
X113351924Y-81770637D01*
X113359572Y-81732190D01*
X113362417Y-81722811D01*
X113377423Y-81686584D01*
X113382044Y-81677939D01*
X113403830Y-81645336D01*
X113410048Y-81637760D01*
X113437760Y-81610048D01*
X113445336Y-81603830D01*
X113477939Y-81582044D01*
X113486584Y-81577423D01*
X113522811Y-81562417D01*
X113532190Y-81559572D01*
X113570637Y-81551924D01*
X113580392Y-81550963D01*
X113600000Y-81550000D01*
X116000000Y-81550000D01*
X116019608Y-81550963D01*
G37*
G36*
X128619608Y-84150963D02*
G01*
X128629363Y-84151924D01*
X128667810Y-84159572D01*
X128677189Y-84162417D01*
X128713416Y-84177423D01*
X128722061Y-84182044D01*
X128754664Y-84203830D01*
X128762240Y-84210048D01*
X128789952Y-84237760D01*
X128796170Y-84245336D01*
X128817956Y-84277939D01*
X128822577Y-84286584D01*
X128837583Y-84322811D01*
X128840428Y-84332190D01*
X128848076Y-84370637D01*
X128849037Y-84380392D01*
X128850000Y-84400000D01*
X128850000Y-84650000D01*
X129350000Y-84650000D01*
X129389018Y-84653843D01*
X129426537Y-84665224D01*
X129461114Y-84683706D01*
X129491421Y-84708579D01*
X129516294Y-84738886D01*
X129534776Y-84773463D01*
X129546157Y-84810982D01*
X129550000Y-84850000D01*
X129550000Y-86350000D01*
X129546157Y-86389018D01*
X129534776Y-86426537D01*
X129516294Y-86461114D01*
X129491421Y-86491421D01*
X129461114Y-86516294D01*
X129426537Y-86534776D01*
X129389018Y-86546157D01*
X129350000Y-86550000D01*
X128850000Y-86550000D01*
X128850000Y-86800000D01*
X128849037Y-86819608D01*
X128848076Y-86829363D01*
X128840428Y-86867810D01*
X128837583Y-86877189D01*
X128822577Y-86913416D01*
X128817956Y-86922061D01*
X128796170Y-86954664D01*
X128789952Y-86962240D01*
X128762240Y-86989952D01*
X128754664Y-86996170D01*
X128722061Y-87017956D01*
X128713416Y-87022577D01*
X128677189Y-87037583D01*
X128667810Y-87040428D01*
X128629363Y-87048076D01*
X128619608Y-87049037D01*
X128600000Y-87050000D01*
X126200000Y-87050000D01*
X126180392Y-87049037D01*
X126170637Y-87048076D01*
X126132190Y-87040428D01*
X126122811Y-87037583D01*
X126086584Y-87022577D01*
X126077939Y-87017956D01*
X126045336Y-86996170D01*
X126037760Y-86989952D01*
X126010048Y-86962240D01*
X126003830Y-86954664D01*
X125982044Y-86922061D01*
X125977423Y-86913416D01*
X125962417Y-86877189D01*
X125959572Y-86867810D01*
X125951924Y-86829363D01*
X125950963Y-86819608D01*
X125950000Y-86800000D01*
X125950000Y-84400000D01*
X125950963Y-84380392D01*
X125951924Y-84370637D01*
X125959572Y-84332190D01*
X125962417Y-84322811D01*
X125977423Y-84286584D01*
X125982044Y-84277939D01*
X126003830Y-84245336D01*
X126010048Y-84237760D01*
X126037760Y-84210048D01*
X126045336Y-84203830D01*
X126077939Y-84182044D01*
X126086584Y-84177423D01*
X126122811Y-84162417D01*
X126132190Y-84159572D01*
X126170637Y-84151924D01*
X126180392Y-84150963D01*
X126200000Y-84150000D01*
X128600000Y-84150000D01*
X128619608Y-84150963D01*
G37*
D11*
X116690000Y-85559999D03*
D12*
X115420000Y-88100000D03*
X125580000Y-88100000D03*
D13*
X126000000Y-88100000D03*
X115000000Y-88100000D03*
D14*
X120500000Y-88100000D03*
D11*
X123040000Y-83020000D03*
X120500000Y-94000000D03*
X115500000Y-91800000D03*
G36*
G01*
X129800000Y-90800000D02*
X129800000Y-92800000D01*
G75*
G02*
X129600000Y-93000000I-200000J0D01*
G01*
X127600000Y-93000000D01*
G75*
G02*
X127400000Y-92800000I0J200000D01*
G01*
X127400000Y-90800000D01*
G75*
G02*
X127600000Y-90600000I200000J0D01*
G01*
X129600000Y-90600000D01*
G75*
G02*
X129800000Y-90800000I0J-200000D01*
G01*
G37*
G36*
G01*
X118800000Y-93000000D02*
X118800000Y-95000000D01*
G75*
G02*
X118600000Y-95200000I-200000J0D01*
G01*
X116800000Y-95200000D01*
G75*
G02*
X116600000Y-95000000I0J200000D01*
G01*
X116600000Y-93000000D01*
G75*
G02*
X116800000Y-92800000I200000J0D01*
G01*
X118600000Y-92800000D01*
G75*
G02*
X118800000Y-93000000I0J-200000D01*
G01*
G37*
X125500000Y-91800000D03*
X117960000Y-83020000D03*
X124310000Y-85560000D03*
D10*
G36*
X135019608Y-79150963D02*
G01*
X135029363Y-79151924D01*
X135067810Y-79159572D01*
X135077189Y-79162417D01*
X135113416Y-79177423D01*
X135122061Y-79182044D01*
X135154664Y-79203830D01*
X135162240Y-79210048D01*
X135189952Y-79237760D01*
X135196170Y-79245336D01*
X135217956Y-79277939D01*
X135222577Y-79286584D01*
X135237583Y-79322811D01*
X135240428Y-79332190D01*
X135248076Y-79370637D01*
X135249037Y-79380392D01*
X135250000Y-79400000D01*
X135250000Y-81400000D01*
X135249037Y-81419608D01*
X135248076Y-81429363D01*
X135240428Y-81467810D01*
X135237583Y-81477189D01*
X135222577Y-81513416D01*
X135217956Y-81522061D01*
X135196170Y-81554664D01*
X135189952Y-81562240D01*
X135162166Y-81590013D01*
X135154546Y-81596261D01*
X135138675Y-81608013D01*
X134538675Y-82008013D01*
X134521824Y-82018089D01*
X134513175Y-82022700D01*
X134476932Y-82037666D01*
X134467549Y-82040501D01*
X134429212Y-82048095D01*
X134419509Y-82049046D01*
X134400000Y-82050000D01*
X132600000Y-82050000D01*
X132580392Y-82049037D01*
X132570637Y-82048076D01*
X132532190Y-82040428D01*
X132522811Y-82037583D01*
X132486584Y-82022577D01*
X132477939Y-82017956D01*
X132445336Y-81996170D01*
X132437760Y-81989952D01*
X132410048Y-81962240D01*
X132403830Y-81954664D01*
X132382044Y-81922061D01*
X132377423Y-81913416D01*
X132362417Y-81877189D01*
X132359572Y-81867810D01*
X132351924Y-81829363D01*
X132350963Y-81819608D01*
X132350000Y-81800000D01*
X132350000Y-81550000D01*
X131950000Y-81550000D01*
X131910982Y-81546157D01*
X131873463Y-81534776D01*
X131838886Y-81516294D01*
X131808579Y-81491421D01*
X131783706Y-81461114D01*
X131765224Y-81426537D01*
X131753843Y-81389018D01*
X131750000Y-81350000D01*
X131750000Y-79850000D01*
X131753843Y-79810982D01*
X131765224Y-79773463D01*
X131783706Y-79738886D01*
X131808579Y-79708579D01*
X131838886Y-79683706D01*
X131873463Y-79665224D01*
X131910982Y-79653843D01*
X131950000Y-79650000D01*
X132350000Y-79650000D01*
X132350000Y-79400000D01*
X132350963Y-79380392D01*
X132351924Y-79370637D01*
X132359572Y-79332190D01*
X132362417Y-79322811D01*
X132377423Y-79286584D01*
X132382044Y-79277939D01*
X132403830Y-79245336D01*
X132410048Y-79237760D01*
X132437760Y-79210048D01*
X132445336Y-79203830D01*
X132477939Y-79182044D01*
X132486584Y-79177423D01*
X132522811Y-79162417D01*
X132532190Y-79159572D01*
X132570637Y-79151924D01*
X132580392Y-79150963D01*
X132600000Y-79150000D01*
X135000000Y-79150000D01*
X135019608Y-79150963D01*
G37*
G36*
X147619608Y-81750963D02*
G01*
X147629363Y-81751924D01*
X147667810Y-81759572D01*
X147677189Y-81762417D01*
X147713416Y-81777423D01*
X147722061Y-81782044D01*
X147754664Y-81803830D01*
X147762240Y-81810048D01*
X147789952Y-81837760D01*
X147796170Y-81845336D01*
X147817956Y-81877939D01*
X147822577Y-81886584D01*
X147837583Y-81922811D01*
X147840428Y-81932190D01*
X147848076Y-81970637D01*
X147849037Y-81980392D01*
X147850000Y-82000000D01*
X147850000Y-82250000D01*
X148350000Y-82250000D01*
X148389018Y-82253843D01*
X148426537Y-82265224D01*
X148461114Y-82283706D01*
X148491421Y-82308579D01*
X148516294Y-82338886D01*
X148534776Y-82373463D01*
X148546157Y-82410982D01*
X148550000Y-82450000D01*
X148550000Y-83950000D01*
X148546157Y-83989018D01*
X148534776Y-84026537D01*
X148516294Y-84061114D01*
X148491421Y-84091421D01*
X148461114Y-84116294D01*
X148426537Y-84134776D01*
X148389018Y-84146157D01*
X148350000Y-84150000D01*
X147850000Y-84150000D01*
X147850000Y-84400000D01*
X147849037Y-84419608D01*
X147848076Y-84429363D01*
X147840428Y-84467810D01*
X147837583Y-84477189D01*
X147822577Y-84513416D01*
X147817956Y-84522061D01*
X147796170Y-84554664D01*
X147789952Y-84562240D01*
X147762240Y-84589952D01*
X147754664Y-84596170D01*
X147722061Y-84617956D01*
X147713416Y-84622577D01*
X147677189Y-84637583D01*
X147667810Y-84640428D01*
X147629363Y-84648076D01*
X147619608Y-84649037D01*
X147600000Y-84650000D01*
X145200000Y-84650000D01*
X145180392Y-84649037D01*
X145170637Y-84648076D01*
X145132190Y-84640428D01*
X145122811Y-84637583D01*
X145086584Y-84622577D01*
X145077939Y-84617956D01*
X145045336Y-84596170D01*
X145037760Y-84589952D01*
X145010048Y-84562240D01*
X145003830Y-84554664D01*
X144982044Y-84522061D01*
X144977423Y-84513416D01*
X144962417Y-84477189D01*
X144959572Y-84467810D01*
X144951924Y-84429363D01*
X144950963Y-84419608D01*
X144950000Y-84400000D01*
X144950000Y-82000000D01*
X144950963Y-81980392D01*
X144951924Y-81970637D01*
X144959572Y-81932190D01*
X144962417Y-81922811D01*
X144977423Y-81886584D01*
X144982044Y-81877939D01*
X145003830Y-81845336D01*
X145010048Y-81837760D01*
X145037760Y-81810048D01*
X145045336Y-81803830D01*
X145077939Y-81782044D01*
X145086584Y-81777423D01*
X145122811Y-81762417D01*
X145132190Y-81759572D01*
X145170637Y-81751924D01*
X145180392Y-81750963D01*
X145200000Y-81750000D01*
X147600000Y-81750000D01*
X147619608Y-81750963D01*
G37*
D11*
X135690000Y-83159999D03*
D12*
X134420000Y-85700000D03*
X144580000Y-85700000D03*
D13*
X145000000Y-85700000D03*
X134000000Y-85700000D03*
D14*
X139500000Y-85700000D03*
D11*
X142040000Y-80620000D03*
X139500000Y-91600000D03*
X134500000Y-89400000D03*
G36*
G01*
X148800000Y-88400000D02*
X148800000Y-90400000D01*
G75*
G02*
X148600000Y-90600000I-200000J0D01*
G01*
X146600000Y-90600000D01*
G75*
G02*
X146400000Y-90400000I0J200000D01*
G01*
X146400000Y-88400000D01*
G75*
G02*
X146600000Y-88200000I200000J0D01*
G01*
X148600000Y-88200000D01*
G75*
G02*
X148800000Y-88400000I0J-200000D01*
G01*
G37*
G36*
G01*
X137800000Y-90600000D02*
X137800000Y-92600000D01*
G75*
G02*
X137600000Y-92800000I-200000J0D01*
G01*
X135800000Y-92800000D01*
G75*
G02*
X135600000Y-92600000I0J200000D01*
G01*
X135600000Y-90600000D01*
G75*
G02*
X135800000Y-90400000I200000J0D01*
G01*
X137600000Y-90400000D01*
G75*
G02*
X137800000Y-90600000I0J-200000D01*
G01*
G37*
X144500000Y-89400000D03*
X136960000Y-80620000D03*
X143310000Y-83160000D03*
D10*
G36*
X154119608Y-77850963D02*
G01*
X154129363Y-77851924D01*
X154167810Y-77859572D01*
X154177189Y-77862417D01*
X154213416Y-77877423D01*
X154222061Y-77882044D01*
X154254664Y-77903830D01*
X154262240Y-77910048D01*
X154289952Y-77937760D01*
X154296170Y-77945336D01*
X154317956Y-77977939D01*
X154322577Y-77986584D01*
X154337583Y-78022811D01*
X154340428Y-78032190D01*
X154348076Y-78070637D01*
X154349037Y-78080392D01*
X154350000Y-78100000D01*
X154350000Y-80100000D01*
X154349037Y-80119608D01*
X154348076Y-80129363D01*
X154340428Y-80167810D01*
X154337583Y-80177189D01*
X154322577Y-80213416D01*
X154317956Y-80222061D01*
X154296170Y-80254664D01*
X154289952Y-80262240D01*
X154262166Y-80290013D01*
X154254546Y-80296261D01*
X154238675Y-80308013D01*
X153638675Y-80708013D01*
X153621824Y-80718089D01*
X153613175Y-80722700D01*
X153576932Y-80737666D01*
X153567549Y-80740501D01*
X153529212Y-80748095D01*
X153519509Y-80749046D01*
X153500000Y-80750000D01*
X151700000Y-80750000D01*
X151680392Y-80749037D01*
X151670637Y-80748076D01*
X151632190Y-80740428D01*
X151622811Y-80737583D01*
X151586584Y-80722577D01*
X151577939Y-80717956D01*
X151545336Y-80696170D01*
X151537760Y-80689952D01*
X151510048Y-80662240D01*
X151503830Y-80654664D01*
X151482044Y-80622061D01*
X151477423Y-80613416D01*
X151462417Y-80577189D01*
X151459572Y-80567810D01*
X151451924Y-80529363D01*
X151450963Y-80519608D01*
X151450000Y-80500000D01*
X151450000Y-80250000D01*
X151050000Y-80250000D01*
X151010982Y-80246157D01*
X150973463Y-80234776D01*
X150938886Y-80216294D01*
X150908579Y-80191421D01*
X150883706Y-80161114D01*
X150865224Y-80126537D01*
X150853843Y-80089018D01*
X150850000Y-80050000D01*
X150850000Y-78550000D01*
X150853843Y-78510982D01*
X150865224Y-78473463D01*
X150883706Y-78438886D01*
X150908579Y-78408579D01*
X150938886Y-78383706D01*
X150973463Y-78365224D01*
X151010982Y-78353843D01*
X151050000Y-78350000D01*
X151450000Y-78350000D01*
X151450000Y-78100000D01*
X151450963Y-78080392D01*
X151451924Y-78070637D01*
X151459572Y-78032190D01*
X151462417Y-78022811D01*
X151477423Y-77986584D01*
X151482044Y-77977939D01*
X151503830Y-77945336D01*
X151510048Y-77937760D01*
X151537760Y-77910048D01*
X151545336Y-77903830D01*
X151577939Y-77882044D01*
X151586584Y-77877423D01*
X151622811Y-77862417D01*
X151632190Y-77859572D01*
X151670637Y-77851924D01*
X151680392Y-77850963D01*
X151700000Y-77850000D01*
X154100000Y-77850000D01*
X154119608Y-77850963D01*
G37*
G36*
X166719608Y-80450963D02*
G01*
X166729363Y-80451924D01*
X166767810Y-80459572D01*
X166777189Y-80462417D01*
X166813416Y-80477423D01*
X166822061Y-80482044D01*
X166854664Y-80503830D01*
X166862240Y-80510048D01*
X166889952Y-80537760D01*
X166896170Y-80545336D01*
X166917956Y-80577939D01*
X166922577Y-80586584D01*
X166937583Y-80622811D01*
X166940428Y-80632190D01*
X166948076Y-80670637D01*
X166949037Y-80680392D01*
X166950000Y-80700000D01*
X166950000Y-80950000D01*
X167450000Y-80950000D01*
X167489018Y-80953843D01*
X167526537Y-80965224D01*
X167561114Y-80983706D01*
X167591421Y-81008579D01*
X167616294Y-81038886D01*
X167634776Y-81073463D01*
X167646157Y-81110982D01*
X167650000Y-81150000D01*
X167650000Y-82650000D01*
X167646157Y-82689018D01*
X167634776Y-82726537D01*
X167616294Y-82761114D01*
X167591421Y-82791421D01*
X167561114Y-82816294D01*
X167526537Y-82834776D01*
X167489018Y-82846157D01*
X167450000Y-82850000D01*
X166950000Y-82850000D01*
X166950000Y-83100000D01*
X166949037Y-83119608D01*
X166948076Y-83129363D01*
X166940428Y-83167810D01*
X166937583Y-83177189D01*
X166922577Y-83213416D01*
X166917956Y-83222061D01*
X166896170Y-83254664D01*
X166889952Y-83262240D01*
X166862240Y-83289952D01*
X166854664Y-83296170D01*
X166822061Y-83317956D01*
X166813416Y-83322577D01*
X166777189Y-83337583D01*
X166767810Y-83340428D01*
X166729363Y-83348076D01*
X166719608Y-83349037D01*
X166700000Y-83350000D01*
X164300000Y-83350000D01*
X164280392Y-83349037D01*
X164270637Y-83348076D01*
X164232190Y-83340428D01*
X164222811Y-83337583D01*
X164186584Y-83322577D01*
X164177939Y-83317956D01*
X164145336Y-83296170D01*
X164137760Y-83289952D01*
X164110048Y-83262240D01*
X164103830Y-83254664D01*
X164082044Y-83222061D01*
X164077423Y-83213416D01*
X164062417Y-83177189D01*
X164059572Y-83167810D01*
X164051924Y-83129363D01*
X164050963Y-83119608D01*
X164050000Y-83100000D01*
X164050000Y-80700000D01*
X164050963Y-80680392D01*
X164051924Y-80670637D01*
X164059572Y-80632190D01*
X164062417Y-80622811D01*
X164077423Y-80586584D01*
X164082044Y-80577939D01*
X164103830Y-80545336D01*
X164110048Y-80537760D01*
X164137760Y-80510048D01*
X164145336Y-80503830D01*
X164177939Y-80482044D01*
X164186584Y-80477423D01*
X164222811Y-80462417D01*
X164232190Y-80459572D01*
X164270637Y-80451924D01*
X164280392Y-80450963D01*
X164300000Y-80450000D01*
X166700000Y-80450000D01*
X166719608Y-80450963D01*
G37*
D11*
X154790000Y-81859999D03*
D12*
X153520000Y-84400000D03*
X163680000Y-84400000D03*
D13*
X164100000Y-84400000D03*
X153100000Y-84400000D03*
D14*
X158600000Y-84400000D03*
D11*
X161140000Y-79320000D03*
X158600000Y-90300000D03*
X153600000Y-88100000D03*
G36*
G01*
X167900000Y-87100000D02*
X167900000Y-89100000D01*
G75*
G02*
X167700000Y-89300000I-200000J0D01*
G01*
X165700000Y-89300000D01*
G75*
G02*
X165500000Y-89100000I0J200000D01*
G01*
X165500000Y-87100000D01*
G75*
G02*
X165700000Y-86900000I200000J0D01*
G01*
X167700000Y-86900000D01*
G75*
G02*
X167900000Y-87100000I0J-200000D01*
G01*
G37*
G36*
G01*
X156900000Y-89300000D02*
X156900000Y-91300000D01*
G75*
G02*
X156700000Y-91500000I-200000J0D01*
G01*
X154900000Y-91500000D01*
G75*
G02*
X154700000Y-91300000I0J200000D01*
G01*
X154700000Y-89300000D01*
G75*
G02*
X154900000Y-89100000I200000J0D01*
G01*
X156700000Y-89100000D01*
G75*
G02*
X156900000Y-89300000I0J-200000D01*
G01*
G37*
X163600000Y-88100000D03*
X156060000Y-79320000D03*
X162410000Y-81860000D03*
D10*
G36*
X173119608Y-79150963D02*
G01*
X173129363Y-79151924D01*
X173167810Y-79159572D01*
X173177189Y-79162417D01*
X173213416Y-79177423D01*
X173222061Y-79182044D01*
X173254664Y-79203830D01*
X173262240Y-79210048D01*
X173289952Y-79237760D01*
X173296170Y-79245336D01*
X173317956Y-79277939D01*
X173322577Y-79286584D01*
X173337583Y-79322811D01*
X173340428Y-79332190D01*
X173348076Y-79370637D01*
X173349037Y-79380392D01*
X173350000Y-79400000D01*
X173350000Y-81400000D01*
X173349037Y-81419608D01*
X173348076Y-81429363D01*
X173340428Y-81467810D01*
X173337583Y-81477189D01*
X173322577Y-81513416D01*
X173317956Y-81522061D01*
X173296170Y-81554664D01*
X173289952Y-81562240D01*
X173262166Y-81590013D01*
X173254546Y-81596261D01*
X173238675Y-81608013D01*
X172638675Y-82008013D01*
X172621824Y-82018089D01*
X172613175Y-82022700D01*
X172576932Y-82037666D01*
X172567549Y-82040501D01*
X172529212Y-82048095D01*
X172519509Y-82049046D01*
X172500000Y-82050000D01*
X170700000Y-82050000D01*
X170680392Y-82049037D01*
X170670637Y-82048076D01*
X170632190Y-82040428D01*
X170622811Y-82037583D01*
X170586584Y-82022577D01*
X170577939Y-82017956D01*
X170545336Y-81996170D01*
X170537760Y-81989952D01*
X170510048Y-81962240D01*
X170503830Y-81954664D01*
X170482044Y-81922061D01*
X170477423Y-81913416D01*
X170462417Y-81877189D01*
X170459572Y-81867810D01*
X170451924Y-81829363D01*
X170450963Y-81819608D01*
X170450000Y-81800000D01*
X170450000Y-81550000D01*
X170050000Y-81550000D01*
X170010982Y-81546157D01*
X169973463Y-81534776D01*
X169938886Y-81516294D01*
X169908579Y-81491421D01*
X169883706Y-81461114D01*
X169865224Y-81426537D01*
X169853843Y-81389018D01*
X169850000Y-81350000D01*
X169850000Y-79850000D01*
X169853843Y-79810982D01*
X169865224Y-79773463D01*
X169883706Y-79738886D01*
X169908579Y-79708579D01*
X169938886Y-79683706D01*
X169973463Y-79665224D01*
X170010982Y-79653843D01*
X170050000Y-79650000D01*
X170450000Y-79650000D01*
X170450000Y-79400000D01*
X170450963Y-79380392D01*
X170451924Y-79370637D01*
X170459572Y-79332190D01*
X170462417Y-79322811D01*
X170477423Y-79286584D01*
X170482044Y-79277939D01*
X170503830Y-79245336D01*
X170510048Y-79237760D01*
X170537760Y-79210048D01*
X170545336Y-79203830D01*
X170577939Y-79182044D01*
X170586584Y-79177423D01*
X170622811Y-79162417D01*
X170632190Y-79159572D01*
X170670637Y-79151924D01*
X170680392Y-79150963D01*
X170700000Y-79150000D01*
X173100000Y-79150000D01*
X173119608Y-79150963D01*
G37*
G36*
X185719608Y-81750963D02*
G01*
X185729363Y-81751924D01*
X185767810Y-81759572D01*
X185777189Y-81762417D01*
X185813416Y-81777423D01*
X185822061Y-81782044D01*
X185854664Y-81803830D01*
X185862240Y-81810048D01*
X185889952Y-81837760D01*
X185896170Y-81845336D01*
X185917956Y-81877939D01*
X185922577Y-81886584D01*
X185937583Y-81922811D01*
X185940428Y-81932190D01*
X185948076Y-81970637D01*
X185949037Y-81980392D01*
X185950000Y-82000000D01*
X185950000Y-82250000D01*
X186450000Y-82250000D01*
X186489018Y-82253843D01*
X186526537Y-82265224D01*
X186561114Y-82283706D01*
X186591421Y-82308579D01*
X186616294Y-82338886D01*
X186634776Y-82373463D01*
X186646157Y-82410982D01*
X186650000Y-82450000D01*
X186650000Y-83950000D01*
X186646157Y-83989018D01*
X186634776Y-84026537D01*
X186616294Y-84061114D01*
X186591421Y-84091421D01*
X186561114Y-84116294D01*
X186526537Y-84134776D01*
X186489018Y-84146157D01*
X186450000Y-84150000D01*
X185950000Y-84150000D01*
X185950000Y-84400000D01*
X185949037Y-84419608D01*
X185948076Y-84429363D01*
X185940428Y-84467810D01*
X185937583Y-84477189D01*
X185922577Y-84513416D01*
X185917956Y-84522061D01*
X185896170Y-84554664D01*
X185889952Y-84562240D01*
X185862240Y-84589952D01*
X185854664Y-84596170D01*
X185822061Y-84617956D01*
X185813416Y-84622577D01*
X185777189Y-84637583D01*
X185767810Y-84640428D01*
X185729363Y-84648076D01*
X185719608Y-84649037D01*
X185700000Y-84650000D01*
X183300000Y-84650000D01*
X183280392Y-84649037D01*
X183270637Y-84648076D01*
X183232190Y-84640428D01*
X183222811Y-84637583D01*
X183186584Y-84622577D01*
X183177939Y-84617956D01*
X183145336Y-84596170D01*
X183137760Y-84589952D01*
X183110048Y-84562240D01*
X183103830Y-84554664D01*
X183082044Y-84522061D01*
X183077423Y-84513416D01*
X183062417Y-84477189D01*
X183059572Y-84467810D01*
X183051924Y-84429363D01*
X183050963Y-84419608D01*
X183050000Y-84400000D01*
X183050000Y-82000000D01*
X183050963Y-81980392D01*
X183051924Y-81970637D01*
X183059572Y-81932190D01*
X183062417Y-81922811D01*
X183077423Y-81886584D01*
X183082044Y-81877939D01*
X183103830Y-81845336D01*
X183110048Y-81837760D01*
X183137760Y-81810048D01*
X183145336Y-81803830D01*
X183177939Y-81782044D01*
X183186584Y-81777423D01*
X183222811Y-81762417D01*
X183232190Y-81759572D01*
X183270637Y-81751924D01*
X183280392Y-81750963D01*
X183300000Y-81750000D01*
X185700000Y-81750000D01*
X185719608Y-81750963D01*
G37*
D11*
X173790000Y-83159999D03*
D12*
X172520000Y-85700000D03*
X182680000Y-85700000D03*
D13*
X183100000Y-85700000D03*
X172100000Y-85700000D03*
D14*
X177600000Y-85700000D03*
D11*
X180140000Y-80620000D03*
X177600000Y-91600000D03*
X172600000Y-89400000D03*
G36*
G01*
X186900000Y-88400000D02*
X186900000Y-90400000D01*
G75*
G02*
X186700000Y-90600000I-200000J0D01*
G01*
X184700000Y-90600000D01*
G75*
G02*
X184500000Y-90400000I0J200000D01*
G01*
X184500000Y-88400000D01*
G75*
G02*
X184700000Y-88200000I200000J0D01*
G01*
X186700000Y-88200000D01*
G75*
G02*
X186900000Y-88400000I0J-200000D01*
G01*
G37*
G36*
G01*
X175900000Y-90600000D02*
X175900000Y-92600000D01*
G75*
G02*
X175700000Y-92800000I-200000J0D01*
G01*
X173900000Y-92800000D01*
G75*
G02*
X173700000Y-92600000I0J200000D01*
G01*
X173700000Y-90600000D01*
G75*
G02*
X173900000Y-90400000I200000J0D01*
G01*
X175700000Y-90400000D01*
G75*
G02*
X175900000Y-90600000I0J-200000D01*
G01*
G37*
X182600000Y-89400000D03*
X175060000Y-80620000D03*
X181410000Y-83160000D03*
D10*
G36*
X192219608Y-83950963D02*
G01*
X192229363Y-83951924D01*
X192267810Y-83959572D01*
X192277189Y-83962417D01*
X192313416Y-83977423D01*
X192322061Y-83982044D01*
X192354664Y-84003830D01*
X192362240Y-84010048D01*
X192389952Y-84037760D01*
X192396170Y-84045336D01*
X192417956Y-84077939D01*
X192422577Y-84086584D01*
X192437583Y-84122811D01*
X192440428Y-84132190D01*
X192448076Y-84170637D01*
X192449037Y-84180392D01*
X192450000Y-84200000D01*
X192450000Y-86200000D01*
X192449037Y-86219608D01*
X192448076Y-86229363D01*
X192440428Y-86267810D01*
X192437583Y-86277189D01*
X192422577Y-86313416D01*
X192417956Y-86322061D01*
X192396170Y-86354664D01*
X192389952Y-86362240D01*
X192362166Y-86390013D01*
X192354546Y-86396261D01*
X192338675Y-86408013D01*
X191738675Y-86808013D01*
X191721824Y-86818089D01*
X191713175Y-86822700D01*
X191676932Y-86837666D01*
X191667549Y-86840501D01*
X191629212Y-86848095D01*
X191619509Y-86849046D01*
X191600000Y-86850000D01*
X189800000Y-86850000D01*
X189780392Y-86849037D01*
X189770637Y-86848076D01*
X189732190Y-86840428D01*
X189722811Y-86837583D01*
X189686584Y-86822577D01*
X189677939Y-86817956D01*
X189645336Y-86796170D01*
X189637760Y-86789952D01*
X189610048Y-86762240D01*
X189603830Y-86754664D01*
X189582044Y-86722061D01*
X189577423Y-86713416D01*
X189562417Y-86677189D01*
X189559572Y-86667810D01*
X189551924Y-86629363D01*
X189550963Y-86619608D01*
X189550000Y-86600000D01*
X189550000Y-86350000D01*
X189150000Y-86350000D01*
X189110982Y-86346157D01*
X189073463Y-86334776D01*
X189038886Y-86316294D01*
X189008579Y-86291421D01*
X188983706Y-86261114D01*
X188965224Y-86226537D01*
X188953843Y-86189018D01*
X188950000Y-86150000D01*
X188950000Y-84650000D01*
X188953843Y-84610982D01*
X188965224Y-84573463D01*
X188983706Y-84538886D01*
X189008579Y-84508579D01*
X189038886Y-84483706D01*
X189073463Y-84465224D01*
X189110982Y-84453843D01*
X189150000Y-84450000D01*
X189550000Y-84450000D01*
X189550000Y-84200000D01*
X189550963Y-84180392D01*
X189551924Y-84170637D01*
X189559572Y-84132190D01*
X189562417Y-84122811D01*
X189577423Y-84086584D01*
X189582044Y-84077939D01*
X189603830Y-84045336D01*
X189610048Y-84037760D01*
X189637760Y-84010048D01*
X189645336Y-84003830D01*
X189677939Y-83982044D01*
X189686584Y-83977423D01*
X189722811Y-83962417D01*
X189732190Y-83959572D01*
X189770637Y-83951924D01*
X189780392Y-83950963D01*
X189800000Y-83950000D01*
X192200000Y-83950000D01*
X192219608Y-83950963D01*
G37*
G36*
X204819608Y-86550963D02*
G01*
X204829363Y-86551924D01*
X204867810Y-86559572D01*
X204877189Y-86562417D01*
X204913416Y-86577423D01*
X204922061Y-86582044D01*
X204954664Y-86603830D01*
X204962240Y-86610048D01*
X204989952Y-86637760D01*
X204996170Y-86645336D01*
X205017956Y-86677939D01*
X205022577Y-86686584D01*
X205037583Y-86722811D01*
X205040428Y-86732190D01*
X205048076Y-86770637D01*
X205049037Y-86780392D01*
X205050000Y-86800000D01*
X205050000Y-87050000D01*
X205550000Y-87050000D01*
X205589018Y-87053843D01*
X205626537Y-87065224D01*
X205661114Y-87083706D01*
X205691421Y-87108579D01*
X205716294Y-87138886D01*
X205734776Y-87173463D01*
X205746157Y-87210982D01*
X205750000Y-87250000D01*
X205750000Y-88750000D01*
X205746157Y-88789018D01*
X205734776Y-88826537D01*
X205716294Y-88861114D01*
X205691421Y-88891421D01*
X205661114Y-88916294D01*
X205626537Y-88934776D01*
X205589018Y-88946157D01*
X205550000Y-88950000D01*
X205050000Y-88950000D01*
X205050000Y-89200000D01*
X205049037Y-89219608D01*
X205048076Y-89229363D01*
X205040428Y-89267810D01*
X205037583Y-89277189D01*
X205022577Y-89313416D01*
X205017956Y-89322061D01*
X204996170Y-89354664D01*
X204989952Y-89362240D01*
X204962240Y-89389952D01*
X204954664Y-89396170D01*
X204922061Y-89417956D01*
X204913416Y-89422577D01*
X204877189Y-89437583D01*
X204867810Y-89440428D01*
X204829363Y-89448076D01*
X204819608Y-89449037D01*
X204800000Y-89450000D01*
X202400000Y-89450000D01*
X202380392Y-89449037D01*
X202370637Y-89448076D01*
X202332190Y-89440428D01*
X202322811Y-89437583D01*
X202286584Y-89422577D01*
X202277939Y-89417956D01*
X202245336Y-89396170D01*
X202237760Y-89389952D01*
X202210048Y-89362240D01*
X202203830Y-89354664D01*
X202182044Y-89322061D01*
X202177423Y-89313416D01*
X202162417Y-89277189D01*
X202159572Y-89267810D01*
X202151924Y-89229363D01*
X202150963Y-89219608D01*
X202150000Y-89200000D01*
X202150000Y-86800000D01*
X202150963Y-86780392D01*
X202151924Y-86770637D01*
X202159572Y-86732190D01*
X202162417Y-86722811D01*
X202177423Y-86686584D01*
X202182044Y-86677939D01*
X202203830Y-86645336D01*
X202210048Y-86637760D01*
X202237760Y-86610048D01*
X202245336Y-86603830D01*
X202277939Y-86582044D01*
X202286584Y-86577423D01*
X202322811Y-86562417D01*
X202332190Y-86559572D01*
X202370637Y-86551924D01*
X202380392Y-86550963D01*
X202400000Y-86550000D01*
X204800000Y-86550000D01*
X204819608Y-86550963D01*
G37*
D11*
X192890000Y-87959999D03*
D12*
X191620000Y-90500000D03*
X201780000Y-90500000D03*
D13*
X202200000Y-90500000D03*
X191200000Y-90500000D03*
D14*
X196700000Y-90500000D03*
D11*
X199240000Y-85420000D03*
X196700000Y-96400000D03*
X191700000Y-94200000D03*
G36*
G01*
X206000000Y-93200000D02*
X206000000Y-95200000D01*
G75*
G02*
X205800000Y-95400000I-200000J0D01*
G01*
X203800000Y-95400000D01*
G75*
G02*
X203600000Y-95200000I0J200000D01*
G01*
X203600000Y-93200000D01*
G75*
G02*
X203800000Y-93000000I200000J0D01*
G01*
X205800000Y-93000000D01*
G75*
G02*
X206000000Y-93200000I0J-200000D01*
G01*
G37*
G36*
G01*
X195000000Y-95400000D02*
X195000000Y-97400000D01*
G75*
G02*
X194800000Y-97600000I-200000J0D01*
G01*
X193000000Y-97600000D01*
G75*
G02*
X192800000Y-97400000I0J200000D01*
G01*
X192800000Y-95400000D01*
G75*
G02*
X193000000Y-95200000I200000J0D01*
G01*
X194800000Y-95200000D01*
G75*
G02*
X195000000Y-95400000I0J-200000D01*
G01*
G37*
X201700000Y-94200000D03*
X194160000Y-85420000D03*
X200510000Y-87960000D03*
D10*
G36*
X211219608Y-85450963D02*
G01*
X211229363Y-85451924D01*
X211267810Y-85459572D01*
X211277189Y-85462417D01*
X211313416Y-85477423D01*
X211322061Y-85482044D01*
X211354664Y-85503830D01*
X211362240Y-85510048D01*
X211389952Y-85537760D01*
X211396170Y-85545336D01*
X211417956Y-85577939D01*
X211422577Y-85586584D01*
X211437583Y-85622811D01*
X211440428Y-85632190D01*
X211448076Y-85670637D01*
X211449037Y-85680392D01*
X211450000Y-85700000D01*
X211450000Y-87700000D01*
X211449037Y-87719608D01*
X211448076Y-87729363D01*
X211440428Y-87767810D01*
X211437583Y-87777189D01*
X211422577Y-87813416D01*
X211417956Y-87822061D01*
X211396170Y-87854664D01*
X211389952Y-87862240D01*
X211362166Y-87890013D01*
X211354546Y-87896261D01*
X211338675Y-87908013D01*
X210738675Y-88308013D01*
X210721824Y-88318089D01*
X210713175Y-88322700D01*
X210676932Y-88337666D01*
X210667549Y-88340501D01*
X210629212Y-88348095D01*
X210619509Y-88349046D01*
X210600000Y-88350000D01*
X208800000Y-88350000D01*
X208780392Y-88349037D01*
X208770637Y-88348076D01*
X208732190Y-88340428D01*
X208722811Y-88337583D01*
X208686584Y-88322577D01*
X208677939Y-88317956D01*
X208645336Y-88296170D01*
X208637760Y-88289952D01*
X208610048Y-88262240D01*
X208603830Y-88254664D01*
X208582044Y-88222061D01*
X208577423Y-88213416D01*
X208562417Y-88177189D01*
X208559572Y-88167810D01*
X208551924Y-88129363D01*
X208550963Y-88119608D01*
X208550000Y-88100000D01*
X208550000Y-87850000D01*
X208150000Y-87850000D01*
X208110982Y-87846157D01*
X208073463Y-87834776D01*
X208038886Y-87816294D01*
X208008579Y-87791421D01*
X207983706Y-87761114D01*
X207965224Y-87726537D01*
X207953843Y-87689018D01*
X207950000Y-87650000D01*
X207950000Y-86150000D01*
X207953843Y-86110982D01*
X207965224Y-86073463D01*
X207983706Y-86038886D01*
X208008579Y-86008579D01*
X208038886Y-85983706D01*
X208073463Y-85965224D01*
X208110982Y-85953843D01*
X208150000Y-85950000D01*
X208550000Y-85950000D01*
X208550000Y-85700000D01*
X208550963Y-85680392D01*
X208551924Y-85670637D01*
X208559572Y-85632190D01*
X208562417Y-85622811D01*
X208577423Y-85586584D01*
X208582044Y-85577939D01*
X208603830Y-85545336D01*
X208610048Y-85537760D01*
X208637760Y-85510048D01*
X208645336Y-85503830D01*
X208677939Y-85482044D01*
X208686584Y-85477423D01*
X208722811Y-85462417D01*
X208732190Y-85459572D01*
X208770637Y-85451924D01*
X208780392Y-85450963D01*
X208800000Y-85450000D01*
X211200000Y-85450000D01*
X211219608Y-85450963D01*
G37*
G36*
X223819608Y-88050963D02*
G01*
X223829363Y-88051924D01*
X223867810Y-88059572D01*
X223877189Y-88062417D01*
X223913416Y-88077423D01*
X223922061Y-88082044D01*
X223954664Y-88103830D01*
X223962240Y-88110048D01*
X223989952Y-88137760D01*
X223996170Y-88145336D01*
X224017956Y-88177939D01*
X224022577Y-88186584D01*
X224037583Y-88222811D01*
X224040428Y-88232190D01*
X224048076Y-88270637D01*
X224049037Y-88280392D01*
X224050000Y-88300000D01*
X224050000Y-88550000D01*
X224550000Y-88550000D01*
X224589018Y-88553843D01*
X224626537Y-88565224D01*
X224661114Y-88583706D01*
X224691421Y-88608579D01*
X224716294Y-88638886D01*
X224734776Y-88673463D01*
X224746157Y-88710982D01*
X224750000Y-88750000D01*
X224750000Y-90250000D01*
X224746157Y-90289018D01*
X224734776Y-90326537D01*
X224716294Y-90361114D01*
X224691421Y-90391421D01*
X224661114Y-90416294D01*
X224626537Y-90434776D01*
X224589018Y-90446157D01*
X224550000Y-90450000D01*
X224050000Y-90450000D01*
X224050000Y-90700000D01*
X224049037Y-90719608D01*
X224048076Y-90729363D01*
X224040428Y-90767810D01*
X224037583Y-90777189D01*
X224022577Y-90813416D01*
X224017956Y-90822061D01*
X223996170Y-90854664D01*
X223989952Y-90862240D01*
X223962240Y-90889952D01*
X223954664Y-90896170D01*
X223922061Y-90917956D01*
X223913416Y-90922577D01*
X223877189Y-90937583D01*
X223867810Y-90940428D01*
X223829363Y-90948076D01*
X223819608Y-90949037D01*
X223800000Y-90950000D01*
X221400000Y-90950000D01*
X221380392Y-90949037D01*
X221370637Y-90948076D01*
X221332190Y-90940428D01*
X221322811Y-90937583D01*
X221286584Y-90922577D01*
X221277939Y-90917956D01*
X221245336Y-90896170D01*
X221237760Y-90889952D01*
X221210048Y-90862240D01*
X221203830Y-90854664D01*
X221182044Y-90822061D01*
X221177423Y-90813416D01*
X221162417Y-90777189D01*
X221159572Y-90767810D01*
X221151924Y-90729363D01*
X221150963Y-90719608D01*
X221150000Y-90700000D01*
X221150000Y-88300000D01*
X221150963Y-88280392D01*
X221151924Y-88270637D01*
X221159572Y-88232190D01*
X221162417Y-88222811D01*
X221177423Y-88186584D01*
X221182044Y-88177939D01*
X221203830Y-88145336D01*
X221210048Y-88137760D01*
X221237760Y-88110048D01*
X221245336Y-88103830D01*
X221277939Y-88082044D01*
X221286584Y-88077423D01*
X221322811Y-88062417D01*
X221332190Y-88059572D01*
X221370637Y-88051924D01*
X221380392Y-88050963D01*
X221400000Y-88050000D01*
X223800000Y-88050000D01*
X223819608Y-88050963D01*
G37*
D11*
X211890000Y-89459999D03*
D12*
X210620000Y-92000000D03*
X220780000Y-92000000D03*
D13*
X221200000Y-92000000D03*
X210200000Y-92000000D03*
D14*
X215700000Y-92000000D03*
D11*
X218240000Y-86920000D03*
X215700000Y-97900000D03*
X210700000Y-95700000D03*
G36*
G01*
X225000000Y-94700000D02*
X225000000Y-96700000D01*
G75*
G02*
X224800000Y-96900000I-200000J0D01*
G01*
X222800000Y-96900000D01*
G75*
G02*
X222600000Y-96700000I0J200000D01*
G01*
X222600000Y-94700000D01*
G75*
G02*
X222800000Y-94500000I200000J0D01*
G01*
X224800000Y-94500000D01*
G75*
G02*
X225000000Y-94700000I0J-200000D01*
G01*
G37*
G36*
G01*
X214000000Y-96900000D02*
X214000000Y-98900000D01*
G75*
G02*
X213800000Y-99100000I-200000J0D01*
G01*
X212000000Y-99100000D01*
G75*
G02*
X211800000Y-98900000I0J200000D01*
G01*
X211800000Y-96900000D01*
G75*
G02*
X212000000Y-96700000I200000J0D01*
G01*
X213800000Y-96700000D01*
G75*
G02*
X214000000Y-96900000I0J-200000D01*
G01*
G37*
X220700000Y-95700000D03*
X213160000Y-86920000D03*
X219510000Y-89460000D03*
D10*
G36*
X116019608Y-100550963D02*
G01*
X116029363Y-100551924D01*
X116067810Y-100559572D01*
X116077189Y-100562417D01*
X116113416Y-100577423D01*
X116122061Y-100582044D01*
X116154664Y-100603830D01*
X116162240Y-100610048D01*
X116189952Y-100637760D01*
X116196170Y-100645336D01*
X116217956Y-100677939D01*
X116222577Y-100686584D01*
X116237583Y-100722811D01*
X116240428Y-100732190D01*
X116248076Y-100770637D01*
X116249037Y-100780392D01*
X116250000Y-100800000D01*
X116250000Y-102800000D01*
X116249037Y-102819608D01*
X116248076Y-102829363D01*
X116240428Y-102867810D01*
X116237583Y-102877189D01*
X116222577Y-102913416D01*
X116217956Y-102922061D01*
X116196170Y-102954664D01*
X116189952Y-102962240D01*
X116162166Y-102990013D01*
X116154546Y-102996261D01*
X116138675Y-103008013D01*
X115538675Y-103408013D01*
X115521824Y-103418089D01*
X115513175Y-103422700D01*
X115476932Y-103437666D01*
X115467549Y-103440501D01*
X115429212Y-103448095D01*
X115419509Y-103449046D01*
X115400000Y-103450000D01*
X113600000Y-103450000D01*
X113580392Y-103449037D01*
X113570637Y-103448076D01*
X113532190Y-103440428D01*
X113522811Y-103437583D01*
X113486584Y-103422577D01*
X113477939Y-103417956D01*
X113445336Y-103396170D01*
X113437760Y-103389952D01*
X113410048Y-103362240D01*
X113403830Y-103354664D01*
X113382044Y-103322061D01*
X113377423Y-103313416D01*
X113362417Y-103277189D01*
X113359572Y-103267810D01*
X113351924Y-103229363D01*
X113350963Y-103219608D01*
X113350000Y-103200000D01*
X113350000Y-102950000D01*
X112950000Y-102950000D01*
X112910982Y-102946157D01*
X112873463Y-102934776D01*
X112838886Y-102916294D01*
X112808579Y-102891421D01*
X112783706Y-102861114D01*
X112765224Y-102826537D01*
X112753843Y-102789018D01*
X112750000Y-102750000D01*
X112750000Y-101250000D01*
X112753843Y-101210982D01*
X112765224Y-101173463D01*
X112783706Y-101138886D01*
X112808579Y-101108579D01*
X112838886Y-101083706D01*
X112873463Y-101065224D01*
X112910982Y-101053843D01*
X112950000Y-101050000D01*
X113350000Y-101050000D01*
X113350000Y-100800000D01*
X113350963Y-100780392D01*
X113351924Y-100770637D01*
X113359572Y-100732190D01*
X113362417Y-100722811D01*
X113377423Y-100686584D01*
X113382044Y-100677939D01*
X113403830Y-100645336D01*
X113410048Y-100637760D01*
X113437760Y-100610048D01*
X113445336Y-100603830D01*
X113477939Y-100582044D01*
X113486584Y-100577423D01*
X113522811Y-100562417D01*
X113532190Y-100559572D01*
X113570637Y-100551924D01*
X113580392Y-100550963D01*
X113600000Y-100550000D01*
X116000000Y-100550000D01*
X116019608Y-100550963D01*
G37*
G36*
X128619608Y-103150963D02*
G01*
X128629363Y-103151924D01*
X128667810Y-103159572D01*
X128677189Y-103162417D01*
X128713416Y-103177423D01*
X128722061Y-103182044D01*
X128754664Y-103203830D01*
X128762240Y-103210048D01*
X128789952Y-103237760D01*
X128796170Y-103245336D01*
X128817956Y-103277939D01*
X128822577Y-103286584D01*
X128837583Y-103322811D01*
X128840428Y-103332190D01*
X128848076Y-103370637D01*
X128849037Y-103380392D01*
X128850000Y-103400000D01*
X128850000Y-103650000D01*
X129350000Y-103650000D01*
X129389018Y-103653843D01*
X129426537Y-103665224D01*
X129461114Y-103683706D01*
X129491421Y-103708579D01*
X129516294Y-103738886D01*
X129534776Y-103773463D01*
X129546157Y-103810982D01*
X129550000Y-103850000D01*
X129550000Y-105350000D01*
X129546157Y-105389018D01*
X129534776Y-105426537D01*
X129516294Y-105461114D01*
X129491421Y-105491421D01*
X129461114Y-105516294D01*
X129426537Y-105534776D01*
X129389018Y-105546157D01*
X129350000Y-105550000D01*
X128850000Y-105550000D01*
X128850000Y-105800000D01*
X128849037Y-105819608D01*
X128848076Y-105829363D01*
X128840428Y-105867810D01*
X128837583Y-105877189D01*
X128822577Y-105913416D01*
X128817956Y-105922061D01*
X128796170Y-105954664D01*
X128789952Y-105962240D01*
X128762240Y-105989952D01*
X128754664Y-105996170D01*
X128722061Y-106017956D01*
X128713416Y-106022577D01*
X128677189Y-106037583D01*
X128667810Y-106040428D01*
X128629363Y-106048076D01*
X128619608Y-106049037D01*
X128600000Y-106050000D01*
X126200000Y-106050000D01*
X126180392Y-106049037D01*
X126170637Y-106048076D01*
X126132190Y-106040428D01*
X126122811Y-106037583D01*
X126086584Y-106022577D01*
X126077939Y-106017956D01*
X126045336Y-105996170D01*
X126037760Y-105989952D01*
X126010048Y-105962240D01*
X126003830Y-105954664D01*
X125982044Y-105922061D01*
X125977423Y-105913416D01*
X125962417Y-105877189D01*
X125959572Y-105867810D01*
X125951924Y-105829363D01*
X125950963Y-105819608D01*
X125950000Y-105800000D01*
X125950000Y-103400000D01*
X125950963Y-103380392D01*
X125951924Y-103370637D01*
X125959572Y-103332190D01*
X125962417Y-103322811D01*
X125977423Y-103286584D01*
X125982044Y-103277939D01*
X126003830Y-103245336D01*
X126010048Y-103237760D01*
X126037760Y-103210048D01*
X126045336Y-103203830D01*
X126077939Y-103182044D01*
X126086584Y-103177423D01*
X126122811Y-103162417D01*
X126132190Y-103159572D01*
X126170637Y-103151924D01*
X126180392Y-103150963D01*
X126200000Y-103150000D01*
X128600000Y-103150000D01*
X128619608Y-103150963D01*
G37*
D11*
X116690000Y-104559999D03*
D12*
X115420000Y-107100000D03*
X125580000Y-107100000D03*
D13*
X126000000Y-107100000D03*
X115000000Y-107100000D03*
D14*
X120500000Y-107100000D03*
D11*
X123040000Y-102020000D03*
X120500000Y-113000000D03*
X115500000Y-110800000D03*
G36*
G01*
X129800000Y-109800000D02*
X129800000Y-111800000D01*
G75*
G02*
X129600000Y-112000000I-200000J0D01*
G01*
X127600000Y-112000000D01*
G75*
G02*
X127400000Y-111800000I0J200000D01*
G01*
X127400000Y-109800000D01*
G75*
G02*
X127600000Y-109600000I200000J0D01*
G01*
X129600000Y-109600000D01*
G75*
G02*
X129800000Y-109800000I0J-200000D01*
G01*
G37*
G36*
G01*
X118800000Y-112000000D02*
X118800000Y-114000000D01*
G75*
G02*
X118600000Y-114200000I-200000J0D01*
G01*
X116800000Y-114200000D01*
G75*
G02*
X116600000Y-114000000I0J200000D01*
G01*
X116600000Y-112000000D01*
G75*
G02*
X116800000Y-111800000I200000J0D01*
G01*
X118600000Y-111800000D01*
G75*
G02*
X118800000Y-112000000I0J-200000D01*
G01*
G37*
X125500000Y-110800000D03*
X117960000Y-102020000D03*
X124310000Y-104560000D03*
D10*
G36*
X135019608Y-98250963D02*
G01*
X135029363Y-98251924D01*
X135067810Y-98259572D01*
X135077189Y-98262417D01*
X135113416Y-98277423D01*
X135122061Y-98282044D01*
X135154664Y-98303830D01*
X135162240Y-98310048D01*
X135189952Y-98337760D01*
X135196170Y-98345336D01*
X135217956Y-98377939D01*
X135222577Y-98386584D01*
X135237583Y-98422811D01*
X135240428Y-98432190D01*
X135248076Y-98470637D01*
X135249037Y-98480392D01*
X135250000Y-98500000D01*
X135250000Y-100500000D01*
X135249037Y-100519608D01*
X135248076Y-100529363D01*
X135240428Y-100567810D01*
X135237583Y-100577189D01*
X135222577Y-100613416D01*
X135217956Y-100622061D01*
X135196170Y-100654664D01*
X135189952Y-100662240D01*
X135162166Y-100690013D01*
X135154546Y-100696261D01*
X135138675Y-100708013D01*
X134538675Y-101108013D01*
X134521824Y-101118089D01*
X134513175Y-101122700D01*
X134476932Y-101137666D01*
X134467549Y-101140501D01*
X134429212Y-101148095D01*
X134419509Y-101149046D01*
X134400000Y-101150000D01*
X132600000Y-101150000D01*
X132580392Y-101149037D01*
X132570637Y-101148076D01*
X132532190Y-101140428D01*
X132522811Y-101137583D01*
X132486584Y-101122577D01*
X132477939Y-101117956D01*
X132445336Y-101096170D01*
X132437760Y-101089952D01*
X132410048Y-101062240D01*
X132403830Y-101054664D01*
X132382044Y-101022061D01*
X132377423Y-101013416D01*
X132362417Y-100977189D01*
X132359572Y-100967810D01*
X132351924Y-100929363D01*
X132350963Y-100919608D01*
X132350000Y-100900000D01*
X132350000Y-100650000D01*
X131950000Y-100650000D01*
X131910982Y-100646157D01*
X131873463Y-100634776D01*
X131838886Y-100616294D01*
X131808579Y-100591421D01*
X131783706Y-100561114D01*
X131765224Y-100526537D01*
X131753843Y-100489018D01*
X131750000Y-100450000D01*
X131750000Y-98950000D01*
X131753843Y-98910982D01*
X131765224Y-98873463D01*
X131783706Y-98838886D01*
X131808579Y-98808579D01*
X131838886Y-98783706D01*
X131873463Y-98765224D01*
X131910982Y-98753843D01*
X131950000Y-98750000D01*
X132350000Y-98750000D01*
X132350000Y-98500000D01*
X132350963Y-98480392D01*
X132351924Y-98470637D01*
X132359572Y-98432190D01*
X132362417Y-98422811D01*
X132377423Y-98386584D01*
X132382044Y-98377939D01*
X132403830Y-98345336D01*
X132410048Y-98337760D01*
X132437760Y-98310048D01*
X132445336Y-98303830D01*
X132477939Y-98282044D01*
X132486584Y-98277423D01*
X132522811Y-98262417D01*
X132532190Y-98259572D01*
X132570637Y-98251924D01*
X132580392Y-98250963D01*
X132600000Y-98250000D01*
X135000000Y-98250000D01*
X135019608Y-98250963D01*
G37*
G36*
X147619608Y-100850963D02*
G01*
X147629363Y-100851924D01*
X147667810Y-100859572D01*
X147677189Y-100862417D01*
X147713416Y-100877423D01*
X147722061Y-100882044D01*
X147754664Y-100903830D01*
X147762240Y-100910048D01*
X147789952Y-100937760D01*
X147796170Y-100945336D01*
X147817956Y-100977939D01*
X147822577Y-100986584D01*
X147837583Y-101022811D01*
X147840428Y-101032190D01*
X147848076Y-101070637D01*
X147849037Y-101080392D01*
X147850000Y-101100000D01*
X147850000Y-101350000D01*
X148350000Y-101350000D01*
X148389018Y-101353843D01*
X148426537Y-101365224D01*
X148461114Y-101383706D01*
X148491421Y-101408579D01*
X148516294Y-101438886D01*
X148534776Y-101473463D01*
X148546157Y-101510982D01*
X148550000Y-101550000D01*
X148550000Y-103050000D01*
X148546157Y-103089018D01*
X148534776Y-103126537D01*
X148516294Y-103161114D01*
X148491421Y-103191421D01*
X148461114Y-103216294D01*
X148426537Y-103234776D01*
X148389018Y-103246157D01*
X148350000Y-103250000D01*
X147850000Y-103250000D01*
X147850000Y-103500000D01*
X147849037Y-103519608D01*
X147848076Y-103529363D01*
X147840428Y-103567810D01*
X147837583Y-103577189D01*
X147822577Y-103613416D01*
X147817956Y-103622061D01*
X147796170Y-103654664D01*
X147789952Y-103662240D01*
X147762240Y-103689952D01*
X147754664Y-103696170D01*
X147722061Y-103717956D01*
X147713416Y-103722577D01*
X147677189Y-103737583D01*
X147667810Y-103740428D01*
X147629363Y-103748076D01*
X147619608Y-103749037D01*
X147600000Y-103750000D01*
X145200000Y-103750000D01*
X145180392Y-103749037D01*
X145170637Y-103748076D01*
X145132190Y-103740428D01*
X145122811Y-103737583D01*
X145086584Y-103722577D01*
X145077939Y-103717956D01*
X145045336Y-103696170D01*
X145037760Y-103689952D01*
X145010048Y-103662240D01*
X145003830Y-103654664D01*
X144982044Y-103622061D01*
X144977423Y-103613416D01*
X144962417Y-103577189D01*
X144959572Y-103567810D01*
X144951924Y-103529363D01*
X144950963Y-103519608D01*
X144950000Y-103500000D01*
X144950000Y-101100000D01*
X144950963Y-101080392D01*
X144951924Y-101070637D01*
X144959572Y-101032190D01*
X144962417Y-101022811D01*
X144977423Y-100986584D01*
X144982044Y-100977939D01*
X145003830Y-100945336D01*
X145010048Y-100937760D01*
X145037760Y-100910048D01*
X145045336Y-100903830D01*
X145077939Y-100882044D01*
X145086584Y-100877423D01*
X145122811Y-100862417D01*
X145132190Y-100859572D01*
X145170637Y-100851924D01*
X145180392Y-100850963D01*
X145200000Y-100850000D01*
X147600000Y-100850000D01*
X147619608Y-100850963D01*
G37*
D11*
X135690000Y-102259999D03*
D12*
X134420000Y-104800000D03*
X144580000Y-104800000D03*
D13*
X145000000Y-104800000D03*
X134000000Y-104800000D03*
D14*
X139500000Y-104800000D03*
D11*
X142040000Y-99720000D03*
X139500000Y-110700000D03*
X134500000Y-108500000D03*
G36*
G01*
X148800000Y-107500000D02*
X148800000Y-109500000D01*
G75*
G02*
X148600000Y-109700000I-200000J0D01*
G01*
X146600000Y-109700000D01*
G75*
G02*
X146400000Y-109500000I0J200000D01*
G01*
X146400000Y-107500000D01*
G75*
G02*
X146600000Y-107300000I200000J0D01*
G01*
X148600000Y-107300000D01*
G75*
G02*
X148800000Y-107500000I0J-200000D01*
G01*
G37*
G36*
G01*
X137800000Y-109700000D02*
X137800000Y-111700000D01*
G75*
G02*
X137600000Y-111900000I-200000J0D01*
G01*
X135800000Y-111900000D01*
G75*
G02*
X135600000Y-111700000I0J200000D01*
G01*
X135600000Y-109700000D01*
G75*
G02*
X135800000Y-109500000I200000J0D01*
G01*
X137600000Y-109500000D01*
G75*
G02*
X137800000Y-109700000I0J-200000D01*
G01*
G37*
X144500000Y-108500000D03*
X136960000Y-99720000D03*
X143310000Y-102260000D03*
D10*
G36*
X154119608Y-96850963D02*
G01*
X154129363Y-96851924D01*
X154167810Y-96859572D01*
X154177189Y-96862417D01*
X154213416Y-96877423D01*
X154222061Y-96882044D01*
X154254664Y-96903830D01*
X154262240Y-96910048D01*
X154289952Y-96937760D01*
X154296170Y-96945336D01*
X154317956Y-96977939D01*
X154322577Y-96986584D01*
X154337583Y-97022811D01*
X154340428Y-97032190D01*
X154348076Y-97070637D01*
X154349037Y-97080392D01*
X154350000Y-97100000D01*
X154350000Y-99100000D01*
X154349037Y-99119608D01*
X154348076Y-99129363D01*
X154340428Y-99167810D01*
X154337583Y-99177189D01*
X154322577Y-99213416D01*
X154317956Y-99222061D01*
X154296170Y-99254664D01*
X154289952Y-99262240D01*
X154262166Y-99290013D01*
X154254546Y-99296261D01*
X154238675Y-99308013D01*
X153638675Y-99708013D01*
X153621824Y-99718089D01*
X153613175Y-99722700D01*
X153576932Y-99737666D01*
X153567549Y-99740501D01*
X153529212Y-99748095D01*
X153519509Y-99749046D01*
X153500000Y-99750000D01*
X151700000Y-99750000D01*
X151680392Y-99749037D01*
X151670637Y-99748076D01*
X151632190Y-99740428D01*
X151622811Y-99737583D01*
X151586584Y-99722577D01*
X151577939Y-99717956D01*
X151545336Y-99696170D01*
X151537760Y-99689952D01*
X151510048Y-99662240D01*
X151503830Y-99654664D01*
X151482044Y-99622061D01*
X151477423Y-99613416D01*
X151462417Y-99577189D01*
X151459572Y-99567810D01*
X151451924Y-99529363D01*
X151450963Y-99519608D01*
X151450000Y-99500000D01*
X151450000Y-99250000D01*
X151050000Y-99250000D01*
X151010982Y-99246157D01*
X150973463Y-99234776D01*
X150938886Y-99216294D01*
X150908579Y-99191421D01*
X150883706Y-99161114D01*
X150865224Y-99126537D01*
X150853843Y-99089018D01*
X150850000Y-99050000D01*
X150850000Y-97550000D01*
X150853843Y-97510982D01*
X150865224Y-97473463D01*
X150883706Y-97438886D01*
X150908579Y-97408579D01*
X150938886Y-97383706D01*
X150973463Y-97365224D01*
X151010982Y-97353843D01*
X151050000Y-97350000D01*
X151450000Y-97350000D01*
X151450000Y-97100000D01*
X151450963Y-97080392D01*
X151451924Y-97070637D01*
X151459572Y-97032190D01*
X151462417Y-97022811D01*
X151477423Y-96986584D01*
X151482044Y-96977939D01*
X151503830Y-96945336D01*
X151510048Y-96937760D01*
X151537760Y-96910048D01*
X151545336Y-96903830D01*
X151577939Y-96882044D01*
X151586584Y-96877423D01*
X151622811Y-96862417D01*
X151632190Y-96859572D01*
X151670637Y-96851924D01*
X151680392Y-96850963D01*
X151700000Y-96850000D01*
X154100000Y-96850000D01*
X154119608Y-96850963D01*
G37*
G36*
X166719608Y-99450963D02*
G01*
X166729363Y-99451924D01*
X166767810Y-99459572D01*
X166777189Y-99462417D01*
X166813416Y-99477423D01*
X166822061Y-99482044D01*
X166854664Y-99503830D01*
X166862240Y-99510048D01*
X166889952Y-99537760D01*
X166896170Y-99545336D01*
X166917956Y-99577939D01*
X166922577Y-99586584D01*
X166937583Y-99622811D01*
X166940428Y-99632190D01*
X166948076Y-99670637D01*
X166949037Y-99680392D01*
X166950000Y-99700000D01*
X166950000Y-99950000D01*
X167450000Y-99950000D01*
X167489018Y-99953843D01*
X167526537Y-99965224D01*
X167561114Y-99983706D01*
X167591421Y-100008579D01*
X167616294Y-100038886D01*
X167634776Y-100073463D01*
X167646157Y-100110982D01*
X167650000Y-100150000D01*
X167650000Y-101650000D01*
X167646157Y-101689018D01*
X167634776Y-101726537D01*
X167616294Y-101761114D01*
X167591421Y-101791421D01*
X167561114Y-101816294D01*
X167526537Y-101834776D01*
X167489018Y-101846157D01*
X167450000Y-101850000D01*
X166950000Y-101850000D01*
X166950000Y-102100000D01*
X166949037Y-102119608D01*
X166948076Y-102129363D01*
X166940428Y-102167810D01*
X166937583Y-102177189D01*
X166922577Y-102213416D01*
X166917956Y-102222061D01*
X166896170Y-102254664D01*
X166889952Y-102262240D01*
X166862240Y-102289952D01*
X166854664Y-102296170D01*
X166822061Y-102317956D01*
X166813416Y-102322577D01*
X166777189Y-102337583D01*
X166767810Y-102340428D01*
X166729363Y-102348076D01*
X166719608Y-102349037D01*
X166700000Y-102350000D01*
X164300000Y-102350000D01*
X164280392Y-102349037D01*
X164270637Y-102348076D01*
X164232190Y-102340428D01*
X164222811Y-102337583D01*
X164186584Y-102322577D01*
X164177939Y-102317956D01*
X164145336Y-102296170D01*
X164137760Y-102289952D01*
X164110048Y-102262240D01*
X164103830Y-102254664D01*
X164082044Y-102222061D01*
X164077423Y-102213416D01*
X164062417Y-102177189D01*
X164059572Y-102167810D01*
X164051924Y-102129363D01*
X164050963Y-102119608D01*
X164050000Y-102100000D01*
X164050000Y-99700000D01*
X164050963Y-99680392D01*
X164051924Y-99670637D01*
X164059572Y-99632190D01*
X164062417Y-99622811D01*
X164077423Y-99586584D01*
X164082044Y-99577939D01*
X164103830Y-99545336D01*
X164110048Y-99537760D01*
X164137760Y-99510048D01*
X164145336Y-99503830D01*
X164177939Y-99482044D01*
X164186584Y-99477423D01*
X164222811Y-99462417D01*
X164232190Y-99459572D01*
X164270637Y-99451924D01*
X164280392Y-99450963D01*
X164300000Y-99450000D01*
X166700000Y-99450000D01*
X166719608Y-99450963D01*
G37*
D11*
X154790000Y-100859999D03*
D12*
X153520000Y-103400000D03*
X163680000Y-103400000D03*
D13*
X164100000Y-103400000D03*
X153100000Y-103400000D03*
D14*
X158600000Y-103400000D03*
D11*
X161140000Y-98320000D03*
X158600000Y-109300000D03*
X153600000Y-107100000D03*
G36*
G01*
X167900000Y-106100000D02*
X167900000Y-108100000D01*
G75*
G02*
X167700000Y-108300000I-200000J0D01*
G01*
X165700000Y-108300000D01*
G75*
G02*
X165500000Y-108100000I0J200000D01*
G01*
X165500000Y-106100000D01*
G75*
G02*
X165700000Y-105900000I200000J0D01*
G01*
X167700000Y-105900000D01*
G75*
G02*
X167900000Y-106100000I0J-200000D01*
G01*
G37*
G36*
G01*
X156900000Y-108300000D02*
X156900000Y-110300000D01*
G75*
G02*
X156700000Y-110500000I-200000J0D01*
G01*
X154900000Y-110500000D01*
G75*
G02*
X154700000Y-110300000I0J200000D01*
G01*
X154700000Y-108300000D01*
G75*
G02*
X154900000Y-108100000I200000J0D01*
G01*
X156700000Y-108100000D01*
G75*
G02*
X156900000Y-108300000I0J-200000D01*
G01*
G37*
X163600000Y-107100000D03*
X156060000Y-98320000D03*
X162410000Y-100860000D03*
D10*
G36*
X173119608Y-98250963D02*
G01*
X173129363Y-98251924D01*
X173167810Y-98259572D01*
X173177189Y-98262417D01*
X173213416Y-98277423D01*
X173222061Y-98282044D01*
X173254664Y-98303830D01*
X173262240Y-98310048D01*
X173289952Y-98337760D01*
X173296170Y-98345336D01*
X173317956Y-98377939D01*
X173322577Y-98386584D01*
X173337583Y-98422811D01*
X173340428Y-98432190D01*
X173348076Y-98470637D01*
X173349037Y-98480392D01*
X173350000Y-98500000D01*
X173350000Y-100500000D01*
X173349037Y-100519608D01*
X173348076Y-100529363D01*
X173340428Y-100567810D01*
X173337583Y-100577189D01*
X173322577Y-100613416D01*
X173317956Y-100622061D01*
X173296170Y-100654664D01*
X173289952Y-100662240D01*
X173262166Y-100690013D01*
X173254546Y-100696261D01*
X173238675Y-100708013D01*
X172638675Y-101108013D01*
X172621824Y-101118089D01*
X172613175Y-101122700D01*
X172576932Y-101137666D01*
X172567549Y-101140501D01*
X172529212Y-101148095D01*
X172519509Y-101149046D01*
X172500000Y-101150000D01*
X170700000Y-101150000D01*
X170680392Y-101149037D01*
X170670637Y-101148076D01*
X170632190Y-101140428D01*
X170622811Y-101137583D01*
X170586584Y-101122577D01*
X170577939Y-101117956D01*
X170545336Y-101096170D01*
X170537760Y-101089952D01*
X170510048Y-101062240D01*
X170503830Y-101054664D01*
X170482044Y-101022061D01*
X170477423Y-101013416D01*
X170462417Y-100977189D01*
X170459572Y-100967810D01*
X170451924Y-100929363D01*
X170450963Y-100919608D01*
X170450000Y-100900000D01*
X170450000Y-100650000D01*
X170050000Y-100650000D01*
X170010982Y-100646157D01*
X169973463Y-100634776D01*
X169938886Y-100616294D01*
X169908579Y-100591421D01*
X169883706Y-100561114D01*
X169865224Y-100526537D01*
X169853843Y-100489018D01*
X169850000Y-100450000D01*
X169850000Y-98950000D01*
X169853843Y-98910982D01*
X169865224Y-98873463D01*
X169883706Y-98838886D01*
X169908579Y-98808579D01*
X169938886Y-98783706D01*
X169973463Y-98765224D01*
X170010982Y-98753843D01*
X170050000Y-98750000D01*
X170450000Y-98750000D01*
X170450000Y-98500000D01*
X170450963Y-98480392D01*
X170451924Y-98470637D01*
X170459572Y-98432190D01*
X170462417Y-98422811D01*
X170477423Y-98386584D01*
X170482044Y-98377939D01*
X170503830Y-98345336D01*
X170510048Y-98337760D01*
X170537760Y-98310048D01*
X170545336Y-98303830D01*
X170577939Y-98282044D01*
X170586584Y-98277423D01*
X170622811Y-98262417D01*
X170632190Y-98259572D01*
X170670637Y-98251924D01*
X170680392Y-98250963D01*
X170700000Y-98250000D01*
X173100000Y-98250000D01*
X173119608Y-98250963D01*
G37*
G36*
X185719608Y-100850963D02*
G01*
X185729363Y-100851924D01*
X185767810Y-100859572D01*
X185777189Y-100862417D01*
X185813416Y-100877423D01*
X185822061Y-100882044D01*
X185854664Y-100903830D01*
X185862240Y-100910048D01*
X185889952Y-100937760D01*
X185896170Y-100945336D01*
X185917956Y-100977939D01*
X185922577Y-100986584D01*
X185937583Y-101022811D01*
X185940428Y-101032190D01*
X185948076Y-101070637D01*
X185949037Y-101080392D01*
X185950000Y-101100000D01*
X185950000Y-101350000D01*
X186450000Y-101350000D01*
X186489018Y-101353843D01*
X186526537Y-101365224D01*
X186561114Y-101383706D01*
X186591421Y-101408579D01*
X186616294Y-101438886D01*
X186634776Y-101473463D01*
X186646157Y-101510982D01*
X186650000Y-101550000D01*
X186650000Y-103050000D01*
X186646157Y-103089018D01*
X186634776Y-103126537D01*
X186616294Y-103161114D01*
X186591421Y-103191421D01*
X186561114Y-103216294D01*
X186526537Y-103234776D01*
X186489018Y-103246157D01*
X186450000Y-103250000D01*
X185950000Y-103250000D01*
X185950000Y-103500000D01*
X185949037Y-103519608D01*
X185948076Y-103529363D01*
X185940428Y-103567810D01*
X185937583Y-103577189D01*
X185922577Y-103613416D01*
X185917956Y-103622061D01*
X185896170Y-103654664D01*
X185889952Y-103662240D01*
X185862240Y-103689952D01*
X185854664Y-103696170D01*
X185822061Y-103717956D01*
X185813416Y-103722577D01*
X185777189Y-103737583D01*
X185767810Y-103740428D01*
X185729363Y-103748076D01*
X185719608Y-103749037D01*
X185700000Y-103750000D01*
X183300000Y-103750000D01*
X183280392Y-103749037D01*
X183270637Y-103748076D01*
X183232190Y-103740428D01*
X183222811Y-103737583D01*
X183186584Y-103722577D01*
X183177939Y-103717956D01*
X183145336Y-103696170D01*
X183137760Y-103689952D01*
X183110048Y-103662240D01*
X183103830Y-103654664D01*
X183082044Y-103622061D01*
X183077423Y-103613416D01*
X183062417Y-103577189D01*
X183059572Y-103567810D01*
X183051924Y-103529363D01*
X183050963Y-103519608D01*
X183050000Y-103500000D01*
X183050000Y-101100000D01*
X183050963Y-101080392D01*
X183051924Y-101070637D01*
X183059572Y-101032190D01*
X183062417Y-101022811D01*
X183077423Y-100986584D01*
X183082044Y-100977939D01*
X183103830Y-100945336D01*
X183110048Y-100937760D01*
X183137760Y-100910048D01*
X183145336Y-100903830D01*
X183177939Y-100882044D01*
X183186584Y-100877423D01*
X183222811Y-100862417D01*
X183232190Y-100859572D01*
X183270637Y-100851924D01*
X183280392Y-100850963D01*
X183300000Y-100850000D01*
X185700000Y-100850000D01*
X185719608Y-100850963D01*
G37*
D11*
X173790000Y-102259999D03*
D12*
X172520000Y-104800000D03*
X182680000Y-104800000D03*
D13*
X183100000Y-104800000D03*
X172100000Y-104800000D03*
D14*
X177600000Y-104800000D03*
D11*
X180140000Y-99720000D03*
X177600000Y-110700000D03*
X172600000Y-108500000D03*
G36*
G01*
X186900000Y-107500000D02*
X186900000Y-109500000D01*
G75*
G02*
X186700000Y-109700000I-200000J0D01*
G01*
X184700000Y-109700000D01*
G75*
G02*
X184500000Y-109500000I0J200000D01*
G01*
X184500000Y-107500000D01*
G75*
G02*
X184700000Y-107300000I200000J0D01*
G01*
X186700000Y-107300000D01*
G75*
G02*
X186900000Y-107500000I0J-200000D01*
G01*
G37*
G36*
G01*
X175900000Y-109700000D02*
X175900000Y-111700000D01*
G75*
G02*
X175700000Y-111900000I-200000J0D01*
G01*
X173900000Y-111900000D01*
G75*
G02*
X173700000Y-111700000I0J200000D01*
G01*
X173700000Y-109700000D01*
G75*
G02*
X173900000Y-109500000I200000J0D01*
G01*
X175700000Y-109500000D01*
G75*
G02*
X175900000Y-109700000I0J-200000D01*
G01*
G37*
X182600000Y-108500000D03*
X175060000Y-99720000D03*
X181410000Y-102260000D03*
D10*
G36*
X211269608Y-104450963D02*
G01*
X211279363Y-104451924D01*
X211317810Y-104459572D01*
X211327189Y-104462417D01*
X211363416Y-104477423D01*
X211372061Y-104482044D01*
X211404664Y-104503830D01*
X211412240Y-104510048D01*
X211439952Y-104537760D01*
X211446170Y-104545336D01*
X211467956Y-104577939D01*
X211472577Y-104586584D01*
X211487583Y-104622811D01*
X211490428Y-104632190D01*
X211498076Y-104670637D01*
X211499037Y-104680392D01*
X211500000Y-104700000D01*
X211500000Y-106700000D01*
X211499037Y-106719608D01*
X211498076Y-106729363D01*
X211490428Y-106767810D01*
X211487583Y-106777189D01*
X211472577Y-106813416D01*
X211467956Y-106822061D01*
X211446170Y-106854664D01*
X211439952Y-106862240D01*
X211412166Y-106890013D01*
X211404546Y-106896261D01*
X211388675Y-106908013D01*
X210788675Y-107308013D01*
X210771824Y-107318089D01*
X210763175Y-107322700D01*
X210726932Y-107337666D01*
X210717549Y-107340501D01*
X210679212Y-107348095D01*
X210669509Y-107349046D01*
X210650000Y-107350000D01*
X208850000Y-107350000D01*
X208830392Y-107349037D01*
X208820637Y-107348076D01*
X208782190Y-107340428D01*
X208772811Y-107337583D01*
X208736584Y-107322577D01*
X208727939Y-107317956D01*
X208695336Y-107296170D01*
X208687760Y-107289952D01*
X208660048Y-107262240D01*
X208653830Y-107254664D01*
X208632044Y-107222061D01*
X208627423Y-107213416D01*
X208612417Y-107177189D01*
X208609572Y-107167810D01*
X208601924Y-107129363D01*
X208600963Y-107119608D01*
X208600000Y-107100000D01*
X208600000Y-106850000D01*
X208200000Y-106850000D01*
X208160982Y-106846157D01*
X208123463Y-106834776D01*
X208088886Y-106816294D01*
X208058579Y-106791421D01*
X208033706Y-106761114D01*
X208015224Y-106726537D01*
X208003843Y-106689018D01*
X208000000Y-106650000D01*
X208000000Y-105150000D01*
X208003843Y-105110982D01*
X208015224Y-105073463D01*
X208033706Y-105038886D01*
X208058579Y-105008579D01*
X208088886Y-104983706D01*
X208123463Y-104965224D01*
X208160982Y-104953843D01*
X208200000Y-104950000D01*
X208600000Y-104950000D01*
X208600000Y-104700000D01*
X208600963Y-104680392D01*
X208601924Y-104670637D01*
X208609572Y-104632190D01*
X208612417Y-104622811D01*
X208627423Y-104586584D01*
X208632044Y-104577939D01*
X208653830Y-104545336D01*
X208660048Y-104537760D01*
X208687760Y-104510048D01*
X208695336Y-104503830D01*
X208727939Y-104482044D01*
X208736584Y-104477423D01*
X208772811Y-104462417D01*
X208782190Y-104459572D01*
X208820637Y-104451924D01*
X208830392Y-104450963D01*
X208850000Y-104450000D01*
X211250000Y-104450000D01*
X211269608Y-104450963D01*
G37*
G36*
X223869608Y-107050963D02*
G01*
X223879363Y-107051924D01*
X223917810Y-107059572D01*
X223927189Y-107062417D01*
X223963416Y-107077423D01*
X223972061Y-107082044D01*
X224004664Y-107103830D01*
X224012240Y-107110048D01*
X224039952Y-107137760D01*
X224046170Y-107145336D01*
X224067956Y-107177939D01*
X224072577Y-107186584D01*
X224087583Y-107222811D01*
X224090428Y-107232190D01*
X224098076Y-107270637D01*
X224099037Y-107280392D01*
X224100000Y-107300000D01*
X224100000Y-107550000D01*
X224600000Y-107550000D01*
X224639018Y-107553843D01*
X224676537Y-107565224D01*
X224711114Y-107583706D01*
X224741421Y-107608579D01*
X224766294Y-107638886D01*
X224784776Y-107673463D01*
X224796157Y-107710982D01*
X224800000Y-107750000D01*
X224800000Y-109250000D01*
X224796157Y-109289018D01*
X224784776Y-109326537D01*
X224766294Y-109361114D01*
X224741421Y-109391421D01*
X224711114Y-109416294D01*
X224676537Y-109434776D01*
X224639018Y-109446157D01*
X224600000Y-109450000D01*
X224100000Y-109450000D01*
X224100000Y-109700000D01*
X224099037Y-109719608D01*
X224098076Y-109729363D01*
X224090428Y-109767810D01*
X224087583Y-109777189D01*
X224072577Y-109813416D01*
X224067956Y-109822061D01*
X224046170Y-109854664D01*
X224039952Y-109862240D01*
X224012240Y-109889952D01*
X224004664Y-109896170D01*
X223972061Y-109917956D01*
X223963416Y-109922577D01*
X223927189Y-109937583D01*
X223917810Y-109940428D01*
X223879363Y-109948076D01*
X223869608Y-109949037D01*
X223850000Y-109950000D01*
X221450000Y-109950000D01*
X221430392Y-109949037D01*
X221420637Y-109948076D01*
X221382190Y-109940428D01*
X221372811Y-109937583D01*
X221336584Y-109922577D01*
X221327939Y-109917956D01*
X221295336Y-109896170D01*
X221287760Y-109889952D01*
X221260048Y-109862240D01*
X221253830Y-109854664D01*
X221232044Y-109822061D01*
X221227423Y-109813416D01*
X221212417Y-109777189D01*
X221209572Y-109767810D01*
X221201924Y-109729363D01*
X221200963Y-109719608D01*
X221200000Y-109700000D01*
X221200000Y-107300000D01*
X221200963Y-107280392D01*
X221201924Y-107270637D01*
X221209572Y-107232190D01*
X221212417Y-107222811D01*
X221227423Y-107186584D01*
X221232044Y-107177939D01*
X221253830Y-107145336D01*
X221260048Y-107137760D01*
X221287760Y-107110048D01*
X221295336Y-107103830D01*
X221327939Y-107082044D01*
X221336584Y-107077423D01*
X221372811Y-107062417D01*
X221382190Y-107059572D01*
X221420637Y-107051924D01*
X221430392Y-107050963D01*
X221450000Y-107050000D01*
X223850000Y-107050000D01*
X223869608Y-107050963D01*
G37*
D11*
X211940000Y-108459999D03*
D12*
X210670000Y-111000000D03*
X220830000Y-111000000D03*
D13*
X221250000Y-111000000D03*
X210250000Y-111000000D03*
D14*
X215750000Y-111000000D03*
D11*
X218290000Y-105920000D03*
X215750000Y-116900000D03*
X210750000Y-114700000D03*
G36*
G01*
X225050000Y-113700000D02*
X225050000Y-115700000D01*
G75*
G02*
X224850000Y-115900000I-200000J0D01*
G01*
X222850000Y-115900000D01*
G75*
G02*
X222650000Y-115700000I0J200000D01*
G01*
X222650000Y-113700000D01*
G75*
G02*
X222850000Y-113500000I200000J0D01*
G01*
X224850000Y-113500000D01*
G75*
G02*
X225050000Y-113700000I0J-200000D01*
G01*
G37*
G36*
G01*
X214050000Y-115900000D02*
X214050000Y-117900000D01*
G75*
G02*
X213850000Y-118100000I-200000J0D01*
G01*
X212050000Y-118100000D01*
G75*
G02*
X211850000Y-117900000I0J200000D01*
G01*
X211850000Y-115900000D01*
G75*
G02*
X212050000Y-115700000I200000J0D01*
G01*
X213850000Y-115700000D01*
G75*
G02*
X214050000Y-115900000I0J-200000D01*
G01*
G37*
X220750000Y-114700000D03*
X213210000Y-105920000D03*
X219560000Y-108460000D03*
D10*
G36*
X109391437Y-122915348D02*
G01*
X109395482Y-122924277D01*
X109408082Y-122961397D01*
X109410308Y-122970942D01*
X109415426Y-123009818D01*
X109415746Y-123019616D01*
X109413181Y-123058744D01*
X109411584Y-123068414D01*
X109401440Y-123106269D01*
X109397988Y-123115442D01*
X109380646Y-123150611D01*
X109375470Y-123158935D01*
X109351600Y-123190044D01*
X109344900Y-123197197D01*
X109315428Y-123223044D01*
X109307460Y-123228754D01*
X109290960Y-123239392D01*
X107558910Y-124239392D01*
X107541447Y-124248362D01*
X107532519Y-124252407D01*
X107495398Y-124265007D01*
X107485854Y-124267233D01*
X107446977Y-124272351D01*
X107437180Y-124272672D01*
X107398052Y-124270106D01*
X107388382Y-124268509D01*
X107350437Y-124258332D01*
X107341216Y-124254857D01*
X107323103Y-124246988D01*
X106676692Y-123927373D01*
X106659541Y-123917818D01*
X106651223Y-123912633D01*
X106620141Y-123888728D01*
X106612994Y-123882020D01*
X106587249Y-123852616D01*
X106581574Y-123844689D01*
X106570993Y-123828270D01*
X105670993Y-122269425D01*
X105662023Y-122251962D01*
X105657978Y-122243034D01*
X105645378Y-122205913D01*
X105643152Y-122196368D01*
X105638034Y-122157492D01*
X105637714Y-122147695D01*
X105640279Y-122108567D01*
X105641876Y-122098897D01*
X105652020Y-122061041D01*
X105655472Y-122051868D01*
X105672814Y-122016700D01*
X105677990Y-122008375D01*
X105701860Y-121977266D01*
X105708560Y-121970113D01*
X105738032Y-121944266D01*
X105746000Y-121938556D01*
X105762500Y-121927918D01*
X105979006Y-121802918D01*
X105779006Y-121456508D01*
X105762825Y-121420796D01*
X105753922Y-121382613D01*
X105752639Y-121343428D01*
X105759026Y-121304744D01*
X105772836Y-121268050D01*
X105793540Y-121234756D01*
X105820342Y-121206140D01*
X105852211Y-121183303D01*
X107151249Y-120433303D01*
X107186961Y-120417122D01*
X107225144Y-120408219D01*
X107264330Y-120406936D01*
X107303013Y-120413323D01*
X107339707Y-120427134D01*
X107373001Y-120447837D01*
X107401617Y-120474639D01*
X107424454Y-120506508D01*
X107624454Y-120852918D01*
X107840960Y-120727918D01*
X107858423Y-120718948D01*
X107867352Y-120714903D01*
X107904472Y-120702303D01*
X107914017Y-120700077D01*
X107952893Y-120694959D01*
X107962690Y-120694639D01*
X108001818Y-120697204D01*
X108011488Y-120698801D01*
X108049344Y-120708945D01*
X108058517Y-120712397D01*
X108093685Y-120729739D01*
X108102010Y-120734915D01*
X108133119Y-120758785D01*
X108140272Y-120765485D01*
X108166119Y-120794958D01*
X108171829Y-120802925D01*
X108182467Y-120819425D01*
X109382467Y-122897886D01*
X109391437Y-122915348D01*
G37*
G36*
X113439771Y-135127268D02*
G01*
X113443816Y-135136197D01*
X113456416Y-135173317D01*
X113458642Y-135182862D01*
X113463760Y-135221738D01*
X113464080Y-135231536D01*
X113461515Y-135270664D01*
X113459918Y-135280334D01*
X113449774Y-135318189D01*
X113446322Y-135327362D01*
X113428980Y-135362531D01*
X113423804Y-135370855D01*
X113399934Y-135401964D01*
X113393234Y-135409118D01*
X113363762Y-135434964D01*
X113355794Y-135440674D01*
X113339294Y-135451312D01*
X113122788Y-135576312D01*
X113372788Y-136009325D01*
X113388969Y-136045037D01*
X113397872Y-136083220D01*
X113399155Y-136122405D01*
X113392768Y-136161089D01*
X113378958Y-136197783D01*
X113358254Y-136231077D01*
X113331452Y-136259693D01*
X113299583Y-136282530D01*
X112000545Y-137032530D01*
X111964833Y-137048711D01*
X111926650Y-137057614D01*
X111887464Y-137058897D01*
X111848781Y-137052510D01*
X111812087Y-137038699D01*
X111778793Y-137017996D01*
X111750177Y-136991194D01*
X111727340Y-136959325D01*
X111477340Y-136526312D01*
X111260834Y-136651312D01*
X111243371Y-136660282D01*
X111234442Y-136664327D01*
X111197322Y-136676928D01*
X111187777Y-136679153D01*
X111148901Y-136684271D01*
X111139104Y-136684592D01*
X111099976Y-136682026D01*
X111090306Y-136680429D01*
X111052450Y-136670286D01*
X111043277Y-136666834D01*
X111008109Y-136649492D01*
X110999784Y-136644315D01*
X110968675Y-136620445D01*
X110961522Y-136613745D01*
X110935675Y-136584273D01*
X110929965Y-136576305D01*
X110919327Y-136559806D01*
X109719327Y-134481345D01*
X109710357Y-134463882D01*
X109706312Y-134454954D01*
X109693712Y-134417834D01*
X109691486Y-134408289D01*
X109686368Y-134369412D01*
X109686048Y-134359615D01*
X109688613Y-134320487D01*
X109690210Y-134310817D01*
X109700354Y-134272962D01*
X109703806Y-134263789D01*
X109721148Y-134228620D01*
X109726324Y-134220296D01*
X109750194Y-134189186D01*
X109756894Y-134182033D01*
X109786366Y-134156186D01*
X109794334Y-134150477D01*
X109810834Y-134139839D01*
X111889294Y-132939839D01*
X111906757Y-132930869D01*
X111915686Y-132926823D01*
X111952806Y-132914223D01*
X111962351Y-132911997D01*
X112001227Y-132906880D01*
X112011024Y-132906559D01*
X112050152Y-132909125D01*
X112059822Y-132910722D01*
X112097678Y-132920865D01*
X112106851Y-132924317D01*
X112142019Y-132941659D01*
X112150344Y-132946835D01*
X112181453Y-132970706D01*
X112188606Y-132977406D01*
X112214453Y-133006878D01*
X112220163Y-133014845D01*
X112230801Y-133031345D01*
X113430801Y-135109806D01*
X113439771Y-135127268D01*
G37*
D11*
X106254705Y-125500443D03*
D12*
X103420000Y-125670591D03*
X108500000Y-134469409D03*
D13*
X108710000Y-134833140D03*
X103210000Y-125306860D03*
D14*
X105960000Y-130070000D03*
D11*
X111629409Y-129729705D03*
X100850450Y-133020000D03*
X100255706Y-127589873D03*
G36*
G01*
X108271731Y-139474036D02*
X106539681Y-140474036D01*
G75*
G02*
X106266476Y-140400831I-100000J173205D01*
G01*
X105266476Y-138668781D01*
G75*
G02*
X105339681Y-138395576I173205J100000D01*
G01*
X107071731Y-137395576D01*
G75*
G02*
X107344936Y-137468781I100000J-173205D01*
G01*
X108344936Y-139200831D01*
G75*
G02*
X108271731Y-139474036I-173205J-100000D01*
G01*
G37*
G36*
G01*
X100866475Y-131047757D02*
X99134425Y-132047757D01*
G75*
G02*
X98861220Y-131974552I-100000J173205D01*
G01*
X97961220Y-130415706D01*
G75*
G02*
X98034425Y-130142501I173205J100000D01*
G01*
X99766475Y-129142501D01*
G75*
G02*
X100039680Y-129215706I100000J-173205D01*
G01*
X100939680Y-130774552D01*
G75*
G02*
X100866475Y-131047757I-173205J-100000D01*
G01*
G37*
X105255706Y-136250127D03*
X109089409Y-125330295D03*
X110064705Y-132099557D03*
D10*
G36*
X121857258Y-121253726D02*
G01*
X121866930Y-121252130D01*
X121906046Y-121249566D01*
X121915842Y-121249887D01*
X121954718Y-121255005D01*
X121964265Y-121257232D01*
X122001395Y-121269837D01*
X122010322Y-121273882D01*
X122044263Y-121293478D01*
X122052230Y-121299186D01*
X122081711Y-121325040D01*
X122088413Y-121332194D01*
X122112283Y-121363303D01*
X122117459Y-121371626D01*
X122134797Y-121406783D01*
X122138250Y-121415957D01*
X122144255Y-121434648D01*
X122661893Y-123366499D01*
X122666038Y-123385689D01*
X122667635Y-123395360D01*
X122670198Y-123434476D01*
X122669878Y-123444272D01*
X122664759Y-123483149D01*
X122662533Y-123492695D01*
X122649928Y-123529826D01*
X122645882Y-123538753D01*
X122626231Y-123572771D01*
X122620488Y-123580778D01*
X122608199Y-123596238D01*
X122132172Y-124137899D01*
X122118503Y-124151993D01*
X122111342Y-124158686D01*
X122080207Y-124182522D01*
X122071878Y-124187689D01*
X122036812Y-124204947D01*
X122027686Y-124208377D01*
X122009089Y-124214347D01*
X120270422Y-124680222D01*
X120251233Y-124684366D01*
X120241562Y-124685963D01*
X120202446Y-124688526D01*
X120192650Y-124688206D01*
X120153773Y-124683087D01*
X120144227Y-124680861D01*
X120107096Y-124668256D01*
X120098169Y-124664211D01*
X120064229Y-124644615D01*
X120056262Y-124638907D01*
X120026780Y-124613053D01*
X120020079Y-124605899D01*
X119996208Y-124574790D01*
X119991033Y-124566467D01*
X119973694Y-124531310D01*
X119970241Y-124522136D01*
X119964236Y-124503445D01*
X119899531Y-124261964D01*
X119513161Y-124365491D01*
X119474478Y-124371878D01*
X119435292Y-124370595D01*
X119397109Y-124361692D01*
X119361397Y-124345511D01*
X119329528Y-124322674D01*
X119302727Y-124294059D01*
X119282023Y-124260764D01*
X119268212Y-124224070D01*
X118879984Y-122775181D01*
X118873597Y-122736498D01*
X118874880Y-122697312D01*
X118883783Y-122659129D01*
X118899964Y-122623418D01*
X118922801Y-122591548D01*
X118951416Y-122564747D01*
X118984711Y-122544043D01*
X119021405Y-122530232D01*
X119407775Y-122426705D01*
X119343070Y-122185223D01*
X119338926Y-122166034D01*
X119337329Y-122156363D01*
X119334766Y-122117246D01*
X119335086Y-122107450D01*
X119340205Y-122068574D01*
X119342431Y-122059028D01*
X119355036Y-122021897D01*
X119359082Y-122012970D01*
X119378677Y-121979030D01*
X119384385Y-121971063D01*
X119410239Y-121941581D01*
X119417393Y-121934880D01*
X119448502Y-121911009D01*
X119456825Y-121905833D01*
X119491983Y-121888495D01*
X119501157Y-121885042D01*
X119519847Y-121879037D01*
X121838069Y-121257871D01*
X121857258Y-121253726D01*
G37*
G36*
X134700853Y-120504014D02*
G01*
X134710525Y-120502418D01*
X134749641Y-120499854D01*
X134759437Y-120500175D01*
X134798313Y-120505294D01*
X134807860Y-120507520D01*
X134844990Y-120520125D01*
X134853917Y-120524170D01*
X134887858Y-120543766D01*
X134895824Y-120549474D01*
X134925306Y-120575328D01*
X134932007Y-120582482D01*
X134955878Y-120613591D01*
X134961054Y-120621914D01*
X134978392Y-120657071D01*
X134981845Y-120666245D01*
X134987850Y-120684936D01*
X135052555Y-120926417D01*
X135535518Y-120797008D01*
X135574201Y-120790621D01*
X135613387Y-120791904D01*
X135651570Y-120800807D01*
X135687282Y-120816988D01*
X135719151Y-120839825D01*
X135745952Y-120868440D01*
X135766656Y-120901735D01*
X135780467Y-120938429D01*
X136168695Y-122387318D01*
X136175082Y-122426001D01*
X136173799Y-122465187D01*
X136164896Y-122503370D01*
X136148715Y-122539081D01*
X136125878Y-122570951D01*
X136097263Y-122597752D01*
X136063968Y-122618456D01*
X136027274Y-122632267D01*
X135544311Y-122761676D01*
X135609016Y-123003158D01*
X135613161Y-123022347D01*
X135614757Y-123032018D01*
X135617321Y-123071135D01*
X135617000Y-123080930D01*
X135611882Y-123119807D01*
X135609656Y-123129353D01*
X135597050Y-123166484D01*
X135593005Y-123175411D01*
X135573410Y-123209351D01*
X135567701Y-123217318D01*
X135541848Y-123246800D01*
X135534693Y-123253501D01*
X135503584Y-123277372D01*
X135495261Y-123282548D01*
X135460104Y-123299886D01*
X135450930Y-123303339D01*
X135432239Y-123309344D01*
X133114017Y-123930510D01*
X133094828Y-123934655D01*
X133085157Y-123936251D01*
X133046040Y-123938814D01*
X133036245Y-123938494D01*
X132997368Y-123933375D01*
X132987822Y-123931149D01*
X132950691Y-123918544D01*
X132941764Y-123914499D01*
X132907824Y-123894903D01*
X132899857Y-123889195D01*
X132870375Y-123863341D01*
X132863674Y-123856187D01*
X132839803Y-123825078D01*
X132834627Y-123816755D01*
X132817289Y-123781598D01*
X132813836Y-123772424D01*
X132807831Y-123753733D01*
X132186665Y-121435511D01*
X132182521Y-121416322D01*
X132180924Y-121406651D01*
X132178361Y-121367534D01*
X132178681Y-121357738D01*
X132183800Y-121318862D01*
X132186026Y-121309316D01*
X132198631Y-121272185D01*
X132202676Y-121263258D01*
X132222272Y-121229318D01*
X132227980Y-121221351D01*
X132253834Y-121191869D01*
X132260988Y-121185168D01*
X132292097Y-121161297D01*
X132300420Y-121156121D01*
X132335578Y-121138783D01*
X132344751Y-121135330D01*
X132363442Y-121129325D01*
X134681664Y-120508159D01*
X134700853Y-120504014D01*
G37*
D11*
X123542422Y-124952648D03*
D12*
X122973097Y-127734801D03*
X132786903Y-125105199D03*
D13*
X133192592Y-124996495D03*
X122567408Y-127843505D03*
D14*
X127880000Y-126420000D03*
D11*
X129018651Y-120855696D03*
X129407032Y-132118962D03*
X124008001Y-131288021D03*
G36*
G01*
X137561922Y-126620982D02*
X138079560Y-128552834D01*
G75*
G02*
X137938139Y-128797783I-193185J-51764D01*
G01*
X136006287Y-129315421D01*
G75*
G02*
X135761338Y-129174000I-51764J193185D01*
G01*
X135243700Y-127242148D01*
G75*
G02*
X135385121Y-126997199I193185J51764D01*
G01*
X137316973Y-126479561D01*
G75*
G02*
X137561922Y-126620982I51764J-193185D01*
G01*
G37*
G36*
G01*
X127506139Y-131593029D02*
X128023777Y-133524881D01*
G75*
G02*
X127882356Y-133769830I-193185J-51764D01*
G01*
X126143690Y-134235704D01*
G75*
G02*
X125898741Y-134094283I-51764J193185D01*
G01*
X125381103Y-132162431D01*
G75*
G02*
X125522524Y-131917482I193185J51764D01*
G01*
X127261190Y-131451608D01*
G75*
G02*
X127506139Y-131593029I51764J-193185D01*
G01*
G37*
X133667260Y-128699830D03*
X124111748Y-122170497D03*
X130902777Y-122980448D03*
D10*
G36*
X144519608Y-117200963D02*
G01*
X144529363Y-117201924D01*
X144567810Y-117209572D01*
X144577189Y-117212417D01*
X144613416Y-117227423D01*
X144622061Y-117232044D01*
X144654664Y-117253830D01*
X144662240Y-117260048D01*
X144689952Y-117287760D01*
X144696170Y-117295336D01*
X144717956Y-117327939D01*
X144722577Y-117336584D01*
X144737583Y-117372811D01*
X144740428Y-117382190D01*
X144748076Y-117420637D01*
X144749037Y-117430392D01*
X144750000Y-117450000D01*
X144750000Y-119450000D01*
X144749037Y-119469608D01*
X144748076Y-119479363D01*
X144740428Y-119517810D01*
X144737583Y-119527189D01*
X144722577Y-119563416D01*
X144717956Y-119572061D01*
X144696170Y-119604664D01*
X144689952Y-119612240D01*
X144662166Y-119640013D01*
X144654546Y-119646261D01*
X144638675Y-119658013D01*
X144038675Y-120058013D01*
X144021824Y-120068089D01*
X144013175Y-120072700D01*
X143976932Y-120087666D01*
X143967549Y-120090501D01*
X143929212Y-120098095D01*
X143919509Y-120099046D01*
X143900000Y-120100000D01*
X142100000Y-120100000D01*
X142080392Y-120099037D01*
X142070637Y-120098076D01*
X142032190Y-120090428D01*
X142022811Y-120087583D01*
X141986584Y-120072577D01*
X141977939Y-120067956D01*
X141945336Y-120046170D01*
X141937760Y-120039952D01*
X141910048Y-120012240D01*
X141903830Y-120004664D01*
X141882044Y-119972061D01*
X141877423Y-119963416D01*
X141862417Y-119927189D01*
X141859572Y-119917810D01*
X141851924Y-119879363D01*
X141850963Y-119869608D01*
X141850000Y-119850000D01*
X141850000Y-119600000D01*
X141450000Y-119600000D01*
X141410982Y-119596157D01*
X141373463Y-119584776D01*
X141338886Y-119566294D01*
X141308579Y-119541421D01*
X141283706Y-119511114D01*
X141265224Y-119476537D01*
X141253843Y-119439018D01*
X141250000Y-119400000D01*
X141250000Y-117900000D01*
X141253843Y-117860982D01*
X141265224Y-117823463D01*
X141283706Y-117788886D01*
X141308579Y-117758579D01*
X141338886Y-117733706D01*
X141373463Y-117715224D01*
X141410982Y-117703843D01*
X141450000Y-117700000D01*
X141850000Y-117700000D01*
X141850000Y-117450000D01*
X141850963Y-117430392D01*
X141851924Y-117420637D01*
X141859572Y-117382190D01*
X141862417Y-117372811D01*
X141877423Y-117336584D01*
X141882044Y-117327939D01*
X141903830Y-117295336D01*
X141910048Y-117287760D01*
X141937760Y-117260048D01*
X141945336Y-117253830D01*
X141977939Y-117232044D01*
X141986584Y-117227423D01*
X142022811Y-117212417D01*
X142032190Y-117209572D01*
X142070637Y-117201924D01*
X142080392Y-117200963D01*
X142100000Y-117200000D01*
X144500000Y-117200000D01*
X144519608Y-117200963D01*
G37*
G36*
X157119608Y-119800963D02*
G01*
X157129363Y-119801924D01*
X157167810Y-119809572D01*
X157177189Y-119812417D01*
X157213416Y-119827423D01*
X157222061Y-119832044D01*
X157254664Y-119853830D01*
X157262240Y-119860048D01*
X157289952Y-119887760D01*
X157296170Y-119895336D01*
X157317956Y-119927939D01*
X157322577Y-119936584D01*
X157337583Y-119972811D01*
X157340428Y-119982190D01*
X157348076Y-120020637D01*
X157349037Y-120030392D01*
X157350000Y-120050000D01*
X157350000Y-120300000D01*
X157850000Y-120300000D01*
X157889018Y-120303843D01*
X157926537Y-120315224D01*
X157961114Y-120333706D01*
X157991421Y-120358579D01*
X158016294Y-120388886D01*
X158034776Y-120423463D01*
X158046157Y-120460982D01*
X158050000Y-120500000D01*
X158050000Y-122000000D01*
X158046157Y-122039018D01*
X158034776Y-122076537D01*
X158016294Y-122111114D01*
X157991421Y-122141421D01*
X157961114Y-122166294D01*
X157926537Y-122184776D01*
X157889018Y-122196157D01*
X157850000Y-122200000D01*
X157350000Y-122200000D01*
X157350000Y-122450000D01*
X157349037Y-122469608D01*
X157348076Y-122479363D01*
X157340428Y-122517810D01*
X157337583Y-122527189D01*
X157322577Y-122563416D01*
X157317956Y-122572061D01*
X157296170Y-122604664D01*
X157289952Y-122612240D01*
X157262240Y-122639952D01*
X157254664Y-122646170D01*
X157222061Y-122667956D01*
X157213416Y-122672577D01*
X157177189Y-122687583D01*
X157167810Y-122690428D01*
X157129363Y-122698076D01*
X157119608Y-122699037D01*
X157100000Y-122700000D01*
X154700000Y-122700000D01*
X154680392Y-122699037D01*
X154670637Y-122698076D01*
X154632190Y-122690428D01*
X154622811Y-122687583D01*
X154586584Y-122672577D01*
X154577939Y-122667956D01*
X154545336Y-122646170D01*
X154537760Y-122639952D01*
X154510048Y-122612240D01*
X154503830Y-122604664D01*
X154482044Y-122572061D01*
X154477423Y-122563416D01*
X154462417Y-122527189D01*
X154459572Y-122517810D01*
X154451924Y-122479363D01*
X154450963Y-122469608D01*
X154450000Y-122450000D01*
X154450000Y-120050000D01*
X154450963Y-120030392D01*
X154451924Y-120020637D01*
X154459572Y-119982190D01*
X154462417Y-119972811D01*
X154477423Y-119936584D01*
X154482044Y-119927939D01*
X154503830Y-119895336D01*
X154510048Y-119887760D01*
X154537760Y-119860048D01*
X154545336Y-119853830D01*
X154577939Y-119832044D01*
X154586584Y-119827423D01*
X154622811Y-119812417D01*
X154632190Y-119809572D01*
X154670637Y-119801924D01*
X154680392Y-119800963D01*
X154700000Y-119800000D01*
X157100000Y-119800000D01*
X157119608Y-119800963D01*
G37*
D11*
X145190000Y-121209999D03*
D12*
X143920000Y-123750000D03*
X154080000Y-123750000D03*
D13*
X154500000Y-123750000D03*
X143500000Y-123750000D03*
D14*
X149000000Y-123750000D03*
D11*
X151540000Y-118670000D03*
X149000000Y-129650000D03*
X144000000Y-127450000D03*
G36*
G01*
X158300000Y-126450000D02*
X158300000Y-128450000D01*
G75*
G02*
X158100000Y-128650000I-200000J0D01*
G01*
X156100000Y-128650000D01*
G75*
G02*
X155900000Y-128450000I0J200000D01*
G01*
X155900000Y-126450000D01*
G75*
G02*
X156100000Y-126250000I200000J0D01*
G01*
X158100000Y-126250000D01*
G75*
G02*
X158300000Y-126450000I0J-200000D01*
G01*
G37*
G36*
G01*
X147300000Y-128650000D02*
X147300000Y-130650000D01*
G75*
G02*
X147100000Y-130850000I-200000J0D01*
G01*
X145300000Y-130850000D01*
G75*
G02*
X145100000Y-130650000I0J200000D01*
G01*
X145100000Y-128650000D01*
G75*
G02*
X145300000Y-128450000I200000J0D01*
G01*
X147100000Y-128450000D01*
G75*
G02*
X147300000Y-128650000I0J-200000D01*
G01*
G37*
X154000000Y-127450000D03*
X146460000Y-118670000D03*
X152810000Y-121210000D03*
D10*
G36*
X163619608Y-117200963D02*
G01*
X163629363Y-117201924D01*
X163667810Y-117209572D01*
X163677189Y-117212417D01*
X163713416Y-117227423D01*
X163722061Y-117232044D01*
X163754664Y-117253830D01*
X163762240Y-117260048D01*
X163789952Y-117287760D01*
X163796170Y-117295336D01*
X163817956Y-117327939D01*
X163822577Y-117336584D01*
X163837583Y-117372811D01*
X163840428Y-117382190D01*
X163848076Y-117420637D01*
X163849037Y-117430392D01*
X163850000Y-117450000D01*
X163850000Y-119450000D01*
X163849037Y-119469608D01*
X163848076Y-119479363D01*
X163840428Y-119517810D01*
X163837583Y-119527189D01*
X163822577Y-119563416D01*
X163817956Y-119572061D01*
X163796170Y-119604664D01*
X163789952Y-119612240D01*
X163762166Y-119640013D01*
X163754546Y-119646261D01*
X163738675Y-119658013D01*
X163138675Y-120058013D01*
X163121824Y-120068089D01*
X163113175Y-120072700D01*
X163076932Y-120087666D01*
X163067549Y-120090501D01*
X163029212Y-120098095D01*
X163019509Y-120099046D01*
X163000000Y-120100000D01*
X161200000Y-120100000D01*
X161180392Y-120099037D01*
X161170637Y-120098076D01*
X161132190Y-120090428D01*
X161122811Y-120087583D01*
X161086584Y-120072577D01*
X161077939Y-120067956D01*
X161045336Y-120046170D01*
X161037760Y-120039952D01*
X161010048Y-120012240D01*
X161003830Y-120004664D01*
X160982044Y-119972061D01*
X160977423Y-119963416D01*
X160962417Y-119927189D01*
X160959572Y-119917810D01*
X160951924Y-119879363D01*
X160950963Y-119869608D01*
X160950000Y-119850000D01*
X160950000Y-119600000D01*
X160550000Y-119600000D01*
X160510982Y-119596157D01*
X160473463Y-119584776D01*
X160438886Y-119566294D01*
X160408579Y-119541421D01*
X160383706Y-119511114D01*
X160365224Y-119476537D01*
X160353843Y-119439018D01*
X160350000Y-119400000D01*
X160350000Y-117900000D01*
X160353843Y-117860982D01*
X160365224Y-117823463D01*
X160383706Y-117788886D01*
X160408579Y-117758579D01*
X160438886Y-117733706D01*
X160473463Y-117715224D01*
X160510982Y-117703843D01*
X160550000Y-117700000D01*
X160950000Y-117700000D01*
X160950000Y-117450000D01*
X160950963Y-117430392D01*
X160951924Y-117420637D01*
X160959572Y-117382190D01*
X160962417Y-117372811D01*
X160977423Y-117336584D01*
X160982044Y-117327939D01*
X161003830Y-117295336D01*
X161010048Y-117287760D01*
X161037760Y-117260048D01*
X161045336Y-117253830D01*
X161077939Y-117232044D01*
X161086584Y-117227423D01*
X161122811Y-117212417D01*
X161132190Y-117209572D01*
X161170637Y-117201924D01*
X161180392Y-117200963D01*
X161200000Y-117200000D01*
X163600000Y-117200000D01*
X163619608Y-117200963D01*
G37*
G36*
X176219608Y-119800963D02*
G01*
X176229363Y-119801924D01*
X176267810Y-119809572D01*
X176277189Y-119812417D01*
X176313416Y-119827423D01*
X176322061Y-119832044D01*
X176354664Y-119853830D01*
X176362240Y-119860048D01*
X176389952Y-119887760D01*
X176396170Y-119895336D01*
X176417956Y-119927939D01*
X176422577Y-119936584D01*
X176437583Y-119972811D01*
X176440428Y-119982190D01*
X176448076Y-120020637D01*
X176449037Y-120030392D01*
X176450000Y-120050000D01*
X176450000Y-120300000D01*
X176950000Y-120300000D01*
X176989018Y-120303843D01*
X177026537Y-120315224D01*
X177061114Y-120333706D01*
X177091421Y-120358579D01*
X177116294Y-120388886D01*
X177134776Y-120423463D01*
X177146157Y-120460982D01*
X177150000Y-120500000D01*
X177150000Y-122000000D01*
X177146157Y-122039018D01*
X177134776Y-122076537D01*
X177116294Y-122111114D01*
X177091421Y-122141421D01*
X177061114Y-122166294D01*
X177026537Y-122184776D01*
X176989018Y-122196157D01*
X176950000Y-122200000D01*
X176450000Y-122200000D01*
X176450000Y-122450000D01*
X176449037Y-122469608D01*
X176448076Y-122479363D01*
X176440428Y-122517810D01*
X176437583Y-122527189D01*
X176422577Y-122563416D01*
X176417956Y-122572061D01*
X176396170Y-122604664D01*
X176389952Y-122612240D01*
X176362240Y-122639952D01*
X176354664Y-122646170D01*
X176322061Y-122667956D01*
X176313416Y-122672577D01*
X176277189Y-122687583D01*
X176267810Y-122690428D01*
X176229363Y-122698076D01*
X176219608Y-122699037D01*
X176200000Y-122700000D01*
X173800000Y-122700000D01*
X173780392Y-122699037D01*
X173770637Y-122698076D01*
X173732190Y-122690428D01*
X173722811Y-122687583D01*
X173686584Y-122672577D01*
X173677939Y-122667956D01*
X173645336Y-122646170D01*
X173637760Y-122639952D01*
X173610048Y-122612240D01*
X173603830Y-122604664D01*
X173582044Y-122572061D01*
X173577423Y-122563416D01*
X173562417Y-122527189D01*
X173559572Y-122517810D01*
X173551924Y-122479363D01*
X173550963Y-122469608D01*
X173550000Y-122450000D01*
X173550000Y-120050000D01*
X173550963Y-120030392D01*
X173551924Y-120020637D01*
X173559572Y-119982190D01*
X173562417Y-119972811D01*
X173577423Y-119936584D01*
X173582044Y-119927939D01*
X173603830Y-119895336D01*
X173610048Y-119887760D01*
X173637760Y-119860048D01*
X173645336Y-119853830D01*
X173677939Y-119832044D01*
X173686584Y-119827423D01*
X173722811Y-119812417D01*
X173732190Y-119809572D01*
X173770637Y-119801924D01*
X173780392Y-119800963D01*
X173800000Y-119800000D01*
X176200000Y-119800000D01*
X176219608Y-119800963D01*
G37*
D11*
X164290000Y-121209999D03*
D12*
X163020000Y-123750000D03*
X173180000Y-123750000D03*
D13*
X173600000Y-123750000D03*
X162600000Y-123750000D03*
D14*
X168100000Y-123750000D03*
D11*
X170640000Y-118670000D03*
X168100000Y-129650000D03*
X163100000Y-127450000D03*
G36*
G01*
X177400000Y-126450000D02*
X177400000Y-128450000D01*
G75*
G02*
X177200000Y-128650000I-200000J0D01*
G01*
X175200000Y-128650000D01*
G75*
G02*
X175000000Y-128450000I0J200000D01*
G01*
X175000000Y-126450000D01*
G75*
G02*
X175200000Y-126250000I200000J0D01*
G01*
X177200000Y-126250000D01*
G75*
G02*
X177400000Y-126450000I0J-200000D01*
G01*
G37*
G36*
G01*
X166400000Y-128650000D02*
X166400000Y-130650000D01*
G75*
G02*
X166200000Y-130850000I-200000J0D01*
G01*
X164400000Y-130850000D01*
G75*
G02*
X164200000Y-130650000I0J200000D01*
G01*
X164200000Y-128650000D01*
G75*
G02*
X164400000Y-128450000I200000J0D01*
G01*
X166200000Y-128450000D01*
G75*
G02*
X166400000Y-128650000I0J-200000D01*
G01*
G37*
X173100000Y-127450000D03*
X165560000Y-118670000D03*
X171910000Y-121210000D03*
D10*
G36*
X211267208Y-123524364D02*
G01*
X211276963Y-123525325D01*
X211315410Y-123532973D01*
X211324789Y-123535818D01*
X211361016Y-123550824D01*
X211369661Y-123555445D01*
X211402264Y-123577231D01*
X211409840Y-123583449D01*
X211437552Y-123611161D01*
X211443770Y-123618737D01*
X211465556Y-123651340D01*
X211470177Y-123659985D01*
X211485183Y-123696212D01*
X211488028Y-123705591D01*
X211495676Y-123744038D01*
X211496637Y-123753793D01*
X211497600Y-123773401D01*
X211497600Y-125773401D01*
X211496637Y-125793009D01*
X211495676Y-125802764D01*
X211488028Y-125841211D01*
X211485183Y-125850590D01*
X211470177Y-125886817D01*
X211465556Y-125895462D01*
X211443770Y-125928065D01*
X211437552Y-125935641D01*
X211409766Y-125963414D01*
X211402146Y-125969662D01*
X211386275Y-125981414D01*
X210786275Y-126381414D01*
X210769424Y-126391490D01*
X210760775Y-126396101D01*
X210724532Y-126411067D01*
X210715149Y-126413902D01*
X210676812Y-126421496D01*
X210667109Y-126422447D01*
X210647600Y-126423401D01*
X208847600Y-126423401D01*
X208827992Y-126422438D01*
X208818237Y-126421477D01*
X208779790Y-126413829D01*
X208770411Y-126410984D01*
X208734184Y-126395978D01*
X208725539Y-126391357D01*
X208692936Y-126369571D01*
X208685360Y-126363353D01*
X208657648Y-126335641D01*
X208651430Y-126328065D01*
X208629644Y-126295462D01*
X208625023Y-126286817D01*
X208610017Y-126250590D01*
X208607172Y-126241211D01*
X208599524Y-126202764D01*
X208598563Y-126193009D01*
X208597600Y-126173401D01*
X208597600Y-125923401D01*
X208197600Y-125923401D01*
X208158582Y-125919558D01*
X208121063Y-125908177D01*
X208086486Y-125889695D01*
X208056179Y-125864822D01*
X208031306Y-125834515D01*
X208012824Y-125799938D01*
X208001443Y-125762419D01*
X207997600Y-125723401D01*
X207997600Y-124223401D01*
X208001443Y-124184383D01*
X208012824Y-124146864D01*
X208031306Y-124112287D01*
X208056179Y-124081980D01*
X208086486Y-124057107D01*
X208121063Y-124038625D01*
X208158582Y-124027244D01*
X208197600Y-124023401D01*
X208597600Y-124023401D01*
X208597600Y-123773401D01*
X208598563Y-123753793D01*
X208599524Y-123744038D01*
X208607172Y-123705591D01*
X208610017Y-123696212D01*
X208625023Y-123659985D01*
X208629644Y-123651340D01*
X208651430Y-123618737D01*
X208657648Y-123611161D01*
X208685360Y-123583449D01*
X208692936Y-123577231D01*
X208725539Y-123555445D01*
X208734184Y-123550824D01*
X208770411Y-123535818D01*
X208779790Y-123532973D01*
X208818237Y-123525325D01*
X208827992Y-123524364D01*
X208847600Y-123523401D01*
X211247600Y-123523401D01*
X211267208Y-123524364D01*
G37*
G36*
X223867208Y-126124364D02*
G01*
X223876963Y-126125325D01*
X223915410Y-126132973D01*
X223924789Y-126135818D01*
X223961016Y-126150824D01*
X223969661Y-126155445D01*
X224002264Y-126177231D01*
X224009840Y-126183449D01*
X224037552Y-126211161D01*
X224043770Y-126218737D01*
X224065556Y-126251340D01*
X224070177Y-126259985D01*
X224085183Y-126296212D01*
X224088028Y-126305591D01*
X224095676Y-126344038D01*
X224096637Y-126353793D01*
X224097600Y-126373401D01*
X224097600Y-126623401D01*
X224597600Y-126623401D01*
X224636618Y-126627244D01*
X224674137Y-126638625D01*
X224708714Y-126657107D01*
X224739021Y-126681980D01*
X224763894Y-126712287D01*
X224782376Y-126746864D01*
X224793757Y-126784383D01*
X224797600Y-126823401D01*
X224797600Y-128323401D01*
X224793757Y-128362419D01*
X224782376Y-128399938D01*
X224763894Y-128434515D01*
X224739021Y-128464822D01*
X224708714Y-128489695D01*
X224674137Y-128508177D01*
X224636618Y-128519558D01*
X224597600Y-128523401D01*
X224097600Y-128523401D01*
X224097600Y-128773401D01*
X224096637Y-128793009D01*
X224095676Y-128802764D01*
X224088028Y-128841211D01*
X224085183Y-128850590D01*
X224070177Y-128886817D01*
X224065556Y-128895462D01*
X224043770Y-128928065D01*
X224037552Y-128935641D01*
X224009840Y-128963353D01*
X224002264Y-128969571D01*
X223969661Y-128991357D01*
X223961016Y-128995978D01*
X223924789Y-129010984D01*
X223915410Y-129013829D01*
X223876963Y-129021477D01*
X223867208Y-129022438D01*
X223847600Y-129023401D01*
X221447600Y-129023401D01*
X221427992Y-129022438D01*
X221418237Y-129021477D01*
X221379790Y-129013829D01*
X221370411Y-129010984D01*
X221334184Y-128995978D01*
X221325539Y-128991357D01*
X221292936Y-128969571D01*
X221285360Y-128963353D01*
X221257648Y-128935641D01*
X221251430Y-128928065D01*
X221229644Y-128895462D01*
X221225023Y-128886817D01*
X221210017Y-128850590D01*
X221207172Y-128841211D01*
X221199524Y-128802764D01*
X221198563Y-128793009D01*
X221197600Y-128773401D01*
X221197600Y-126373401D01*
X221198563Y-126353793D01*
X221199524Y-126344038D01*
X221207172Y-126305591D01*
X221210017Y-126296212D01*
X221225023Y-126259985D01*
X221229644Y-126251340D01*
X221251430Y-126218737D01*
X221257648Y-126211161D01*
X221285360Y-126183449D01*
X221292936Y-126177231D01*
X221325539Y-126155445D01*
X221334184Y-126150824D01*
X221370411Y-126135818D01*
X221379790Y-126132973D01*
X221418237Y-126125325D01*
X221427992Y-126124364D01*
X221447600Y-126123401D01*
X223847600Y-126123401D01*
X223867208Y-126124364D01*
G37*
D11*
X211937600Y-127533400D03*
D12*
X210667600Y-130073401D03*
X220827600Y-130073401D03*
D13*
X221247600Y-130073401D03*
X210247600Y-130073401D03*
D14*
X215747600Y-130073401D03*
D11*
X218287600Y-124993401D03*
X215747600Y-135973401D03*
X210747600Y-133773401D03*
G36*
G01*
X225047600Y-132773401D02*
X225047600Y-134773401D01*
G75*
G02*
X224847600Y-134973401I-200000J0D01*
G01*
X222847600Y-134973401D01*
G75*
G02*
X222647600Y-134773401I0J200000D01*
G01*
X222647600Y-132773401D01*
G75*
G02*
X222847600Y-132573401I200000J0D01*
G01*
X224847600Y-132573401D01*
G75*
G02*
X225047600Y-132773401I0J-200000D01*
G01*
G37*
G36*
G01*
X214047600Y-134973401D02*
X214047600Y-136973401D01*
G75*
G02*
X213847600Y-137173401I-200000J0D01*
G01*
X212047600Y-137173401D01*
G75*
G02*
X211847600Y-136973401I0J200000D01*
G01*
X211847600Y-134973401D01*
G75*
G02*
X212047600Y-134773401I200000J0D01*
G01*
X213847600Y-134773401D01*
G75*
G02*
X214047600Y-134973401I0J-200000D01*
G01*
G37*
X220747600Y-133773401D03*
X213207600Y-124993401D03*
X219557600Y-127533401D03*
D16*
X107000000Y-107000000D03*
X107000000Y-102000000D03*
G36*
G01*
X98200000Y-111100000D02*
X98200000Y-109100000D01*
G75*
G02*
X98400000Y-108900000I200000J0D01*
G01*
X101600000Y-108900000D01*
G75*
G02*
X101800000Y-109100000I0J-200000D01*
G01*
X101800000Y-111100000D01*
G75*
G02*
X101600000Y-111300000I-200000J0D01*
G01*
X98400000Y-111300000D01*
G75*
G02*
X98200000Y-111100000I0J200000D01*
G01*
G37*
G36*
G01*
X98200000Y-99900000D02*
X98200000Y-97900000D01*
G75*
G02*
X98400000Y-97700000I200000J0D01*
G01*
X101600000Y-97700000D01*
G75*
G02*
X101800000Y-97900000I0J-200000D01*
G01*
X101800000Y-99900000D01*
G75*
G02*
X101600000Y-100100000I-200000J0D01*
G01*
X98400000Y-100100000D01*
G75*
G02*
X98200000Y-99900000I0J200000D01*
G01*
G37*
X92500000Y-107000000D03*
X92500000Y-104500000D03*
X92500000Y-102000000D03*
D17*
X105000000Y-114800000D03*
X205800000Y-61800000D03*
G36*
G01*
X107138000Y-80138000D02*
X108662000Y-80138000D01*
G75*
G02*
X108862000Y-80338000I0J-200000D01*
G01*
X108862000Y-81862000D01*
G75*
G02*
X108662000Y-82062000I-200000J0D01*
G01*
X107138000Y-82062000D01*
G75*
G02*
X106938000Y-81862000I0J200000D01*
G01*
X106938000Y-80338000D01*
G75*
G02*
X107138000Y-80138000I200000J0D01*
G01*
G37*
G36*
G01*
X108862000Y-77838000D02*
X108862000Y-79362000D01*
G75*
G02*
X108662000Y-79562000I-200000J0D01*
G01*
X107138000Y-79562000D01*
G75*
G02*
X106938000Y-79362000I0J200000D01*
G01*
X106938000Y-77838000D01*
G75*
G02*
X107138000Y-77638000I200000J0D01*
G01*
X108662000Y-77638000D01*
G75*
G02*
X108862000Y-77838000I0J-200000D01*
G01*
G37*
G36*
G01*
X108862000Y-75238000D02*
X108862000Y-76762000D01*
G75*
G02*
X108662000Y-76962000I-200000J0D01*
G01*
X107138000Y-76962000D01*
G75*
G02*
X106938000Y-76762000I0J200000D01*
G01*
X106938000Y-75238000D01*
G75*
G02*
X107138000Y-75038000I200000J0D01*
G01*
X108662000Y-75038000D01*
G75*
G02*
X108862000Y-75238000I0J-200000D01*
G01*
G37*
D18*
X96500000Y-87400000D03*
X89500000Y-87400000D03*
D19*
X98300000Y-89500000D03*
X99800000Y-85300000D03*
X91300000Y-89500000D03*
X94300000Y-89500000D03*
D18*
X89500000Y-85650000D03*
X96500000Y-85650000D03*
D19*
X91300000Y-83550000D03*
X94300000Y-83550000D03*
X98300000Y-83550000D03*
X99800000Y-87750000D03*
D20*
X93478815Y-47505745D03*
X108718815Y-65285745D03*
X93478815Y-57665745D03*
X108718815Y-55125745D03*
X108718815Y-50045745D03*
X93478815Y-67825745D03*
X108718815Y-47505745D03*
X108718815Y-42425745D03*
X93478815Y-62745745D03*
X108718815Y-70365745D03*
X93478815Y-55125745D03*
X93478815Y-44965745D03*
X93478815Y-50045745D03*
X93478815Y-52585745D03*
X93478815Y-65285745D03*
X93478815Y-60205745D03*
X108718815Y-62745745D03*
X108718815Y-60205745D03*
X93478815Y-70365745D03*
X108718815Y-67825745D03*
X108718815Y-44965745D03*
X93478815Y-42425745D03*
X108718815Y-57665745D03*
X108718815Y-52585745D03*
X92180000Y-41230000D03*
X92180000Y-43770000D03*
X92180000Y-46310000D03*
X92180000Y-48850000D03*
X92180000Y-51390000D03*
X92180000Y-53930000D03*
X92180000Y-56470000D03*
X92180000Y-59010000D03*
X92180000Y-61550000D03*
X92180000Y-64090000D03*
X92180000Y-66630000D03*
X92180000Y-69170000D03*
X107420000Y-69170000D03*
X107420000Y-66630000D03*
X107420000Y-64090000D03*
X107420000Y-61550000D03*
X107420000Y-59010000D03*
X107420000Y-56470000D03*
X107420000Y-53930000D03*
X107420000Y-51390000D03*
X107420000Y-48850000D03*
X107420000Y-46310000D03*
X107420000Y-43770000D03*
X107420000Y-41230000D03*
M02*
