G04 #@! TF.GenerationSoftware,KiCad,Pcbnew,(5.1.12-1-10_14)*
G04 #@! TF.CreationDate,2021-12-27T15:41:04+00:00*
G04 #@! TF.ProjectId,SofleKeyboard,536f666c-654b-4657-9962-6f6172642e6b,rev?*
G04 #@! TF.SameCoordinates,Original*
G04 #@! TF.FileFunction,Legend,Bot*
G04 #@! TF.FilePolarity,Positive*
%FSLAX46Y46*%
G04 Gerber Fmt 4.6, Leading zero omitted, Abs format (unit mm)*
G04 Created by KiCad (PCBNEW (5.1.12-1-10_14)) date 2021-12-27 15:41:04*
%MOMM*%
%LPD*%
G01*
G04 APERTURE LIST*
%ADD10C,0.200000*%
%ADD11C,0.150000*%
%ADD12C,0.120000*%
%ADD13C,0.100000*%
%ADD14C,3.000000*%
%ADD15C,1.700000*%
%ADD16C,1.900000*%
%ADD17C,4.000000*%
%ADD18R,1.900000X2.000000*%
%ADD19R,2.000000X2.000000*%
%ADD20C,1.397000*%
%ADD21R,1.800000X1.500000*%
%ADD22C,2.000000*%
%ADD23R,1.143000X0.635000*%
%ADD24C,4.700000*%
%ADD25R,3.200000X2.000000*%
%ADD26R,1.524000X1.524000*%
%ADD27C,1.200000*%
%ADD28O,2.500000X1.700000*%
%ADD29C,1.524000*%
G04 APERTURE END LIST*
D10*
X219594049Y-44646419D02*
X219430646Y-44673573D01*
X219171966Y-44632602D01*
X219076688Y-44564478D01*
X219033146Y-44504547D01*
X218997799Y-44392881D01*
X219014187Y-44289409D01*
X219082311Y-44194131D01*
X219142242Y-44150589D01*
X219253908Y-44115241D01*
X219469046Y-44096282D01*
X219580713Y-44060934D01*
X219640643Y-44017393D01*
X219708767Y-43922115D01*
X219725156Y-43818643D01*
X219689808Y-43706976D01*
X219646266Y-43647046D01*
X219550988Y-43578922D01*
X219292308Y-43537951D01*
X219128906Y-43565104D01*
X218344189Y-44501495D02*
X218455855Y-44466147D01*
X218515786Y-44422605D01*
X218583910Y-44327328D01*
X218633075Y-44016911D01*
X218597728Y-43905245D01*
X218554186Y-43845315D01*
X218458908Y-43777190D01*
X218303700Y-43752608D01*
X218192033Y-43787955D01*
X218132103Y-43831497D01*
X218063979Y-43926775D01*
X218014813Y-44237191D01*
X218050161Y-44348858D01*
X218093703Y-44408788D01*
X218188981Y-44476912D01*
X218344189Y-44501495D01*
X217165506Y-43572336D02*
X217050788Y-44296640D01*
X217631131Y-43646083D02*
X217540995Y-44215180D01*
X217472870Y-44310458D01*
X217361204Y-44345805D01*
X217205996Y-44321223D01*
X217110718Y-44253098D01*
X217067176Y-44193168D01*
X216803354Y-43514976D02*
X216389466Y-43449423D01*
X216533427Y-44214698D02*
X216680923Y-43283449D01*
X216645575Y-43171783D01*
X216550297Y-43103659D01*
X216446825Y-43087270D01*
X216182521Y-43416646D02*
X215768633Y-43351093D01*
X215912595Y-44116368D02*
X216060090Y-43185119D01*
X216024742Y-43073453D01*
X215929464Y-43005329D01*
X215825992Y-42988940D01*
X215136554Y-43993455D02*
X215248220Y-43958108D01*
X215316344Y-43862830D01*
X215463840Y-42931581D01*
X214316971Y-43810612D02*
X214412249Y-43878737D01*
X214619193Y-43911514D01*
X214730859Y-43876166D01*
X214798984Y-43780888D01*
X214864537Y-43367000D01*
X214829190Y-43255333D01*
X214733912Y-43187209D01*
X214526967Y-43154432D01*
X214415301Y-43189780D01*
X214347177Y-43285058D01*
X214330788Y-43388530D01*
X214831761Y-43573944D01*
X214592521Y-42740544D02*
X214723147Y-42920334D01*
X212963639Y-43649300D02*
X213135717Y-42562842D01*
X212342807Y-43550969D02*
X212906761Y-43003884D01*
X212514885Y-42464512D02*
X213037387Y-43183675D01*
X211471488Y-43359932D02*
X211566766Y-43428057D01*
X211773710Y-43460833D01*
X211885376Y-43425486D01*
X211953501Y-43330208D01*
X212019054Y-42916319D01*
X211983707Y-42804653D01*
X211888429Y-42736529D01*
X211681484Y-42703752D01*
X211569818Y-42739099D01*
X211501694Y-42834377D01*
X211485305Y-42937850D01*
X211986278Y-43123264D01*
X211164124Y-42621810D02*
X210790725Y-43305144D01*
X210646763Y-42539868D02*
X210790725Y-43305144D01*
X210853226Y-43580212D01*
X210896768Y-43640143D01*
X210992046Y-43708267D01*
X210118156Y-43198619D02*
X210290234Y-42112162D01*
X210224681Y-42526051D02*
X210129403Y-42457926D01*
X209922459Y-42425149D01*
X209810792Y-42460497D01*
X209750862Y-42504039D01*
X209682738Y-42599317D01*
X209633572Y-42909733D01*
X209668920Y-43021400D01*
X209712462Y-43081330D01*
X209807740Y-43149454D01*
X210014684Y-43182231D01*
X210126350Y-43146883D01*
X208979963Y-43018347D02*
X209091629Y-42983000D01*
X209151560Y-42939458D01*
X209219684Y-42844180D01*
X209268849Y-42533763D01*
X209233501Y-42422097D01*
X209189960Y-42362167D01*
X209094682Y-42294042D01*
X208939473Y-42269460D01*
X208827807Y-42304808D01*
X208767877Y-42348349D01*
X208699752Y-42443627D01*
X208650587Y-42754044D01*
X208685935Y-42865710D01*
X208729477Y-42925640D01*
X208824755Y-42993765D01*
X208979963Y-43018347D01*
X207686562Y-42813493D02*
X207776698Y-42244396D01*
X207844822Y-42149118D01*
X207956488Y-42113770D01*
X208163433Y-42146547D01*
X208258711Y-42214672D01*
X207694756Y-42761757D02*
X207790034Y-42829881D01*
X208048714Y-42870852D01*
X208160380Y-42835504D01*
X208228505Y-42740226D01*
X208244893Y-42636754D01*
X208209545Y-42525088D01*
X208114267Y-42456963D01*
X207855587Y-42415993D01*
X207760309Y-42347868D01*
X207169201Y-42731551D02*
X207283920Y-42007246D01*
X207251143Y-42214190D02*
X207215795Y-42102524D01*
X207172253Y-42042594D01*
X207076975Y-41974469D01*
X206973503Y-41958081D01*
X206031008Y-42551279D02*
X206203086Y-41464821D01*
X206039202Y-42499543D02*
X206134480Y-42567667D01*
X206341424Y-42600444D01*
X206453090Y-42565096D01*
X206513021Y-42521554D01*
X206581145Y-42426276D01*
X206630310Y-42115860D01*
X206594963Y-42004194D01*
X206551421Y-41944263D01*
X206456143Y-41876139D01*
X206249199Y-41843362D01*
X206137532Y-41878710D01*
X204904061Y-41630313D02*
X204530662Y-42313647D01*
X204386701Y-41548372D01*
X203823227Y-41087889D02*
X203719755Y-41071501D01*
X203608089Y-41106848D01*
X203548159Y-41150390D01*
X203480034Y-41245668D01*
X203395521Y-41444418D01*
X203354550Y-41703098D01*
X203373510Y-41918237D01*
X203408857Y-42029903D01*
X203452399Y-42089833D01*
X203547677Y-42157958D01*
X203651149Y-42174346D01*
X203762816Y-42138998D01*
X203822746Y-42095457D01*
X203890870Y-42000179D01*
X203975383Y-41801429D01*
X204016354Y-41542748D01*
X203997395Y-41327610D01*
X203962047Y-41215944D01*
X203918505Y-41156013D01*
X203823227Y-41087889D01*
X202839761Y-41939767D02*
X202779830Y-41983309D01*
X202823372Y-42043239D01*
X202883303Y-41999697D01*
X202839761Y-41939767D01*
X202823372Y-42043239D01*
X201736915Y-41871161D02*
X202357748Y-41969491D01*
X202047332Y-41920326D02*
X202219409Y-40833869D01*
X202298299Y-41005466D01*
X202385383Y-41125326D01*
X202480661Y-41193451D01*
X200443514Y-41666307D02*
X200615592Y-40579849D01*
X200550038Y-40993738D02*
X200454760Y-40925613D01*
X200247816Y-40892837D01*
X200136150Y-40928184D01*
X200076220Y-40971726D01*
X200008095Y-41067004D01*
X199958930Y-41377420D01*
X199994278Y-41489087D01*
X200037820Y-41549017D01*
X200133097Y-41617141D01*
X200340042Y-41649918D01*
X200451708Y-41614570D01*
X199678719Y-40802701D02*
X199305321Y-41486034D01*
X199161359Y-40720759D02*
X199305321Y-41486034D01*
X199367822Y-41761103D01*
X199411364Y-41821033D01*
X199506642Y-41889158D01*
X197666637Y-40112781D02*
X197543724Y-40888822D01*
X197570877Y-41052224D01*
X197657961Y-41172084D01*
X197804975Y-41248403D01*
X197908447Y-41264791D01*
X195544977Y-40784387D02*
X195588519Y-40844317D01*
X195735533Y-40920636D01*
X195839005Y-40937024D01*
X196002407Y-40909870D01*
X196122268Y-40822787D01*
X196190392Y-40727509D01*
X196274905Y-40528759D01*
X196299487Y-40373551D01*
X196280528Y-40158412D01*
X196245180Y-40046746D01*
X196158097Y-39926885D01*
X196011083Y-39850567D01*
X195907611Y-39834178D01*
X195744208Y-39861332D01*
X195684278Y-39904874D01*
X194907756Y-40789529D02*
X195019422Y-40754181D01*
X195087547Y-40658903D01*
X195235042Y-39727654D01*
X194493867Y-40723975D02*
X194608586Y-39999670D01*
X194665945Y-39637518D02*
X194709487Y-39697448D01*
X194649557Y-39740990D01*
X194606015Y-39681060D01*
X194665945Y-39637518D01*
X194649557Y-39740990D01*
X193976507Y-40642033D02*
X194091225Y-39917728D01*
X194074837Y-40021201D02*
X194031295Y-39961270D01*
X193936017Y-39893146D01*
X193780809Y-39868563D01*
X193669143Y-39903911D01*
X193601018Y-39999189D01*
X193510882Y-40568286D01*
X193601018Y-39999189D02*
X193565671Y-39887523D01*
X193470393Y-39819398D01*
X193315185Y-39794816D01*
X193203518Y-39830163D01*
X193135394Y-39925441D01*
X193045258Y-40494538D01*
X192122203Y-40295307D02*
X192217481Y-40363431D01*
X192424425Y-40396208D01*
X192536091Y-40360860D01*
X192604216Y-40265582D01*
X192669769Y-39851694D01*
X192634422Y-39740027D01*
X192539144Y-39671903D01*
X192332199Y-39639126D01*
X192220533Y-39674474D01*
X192152409Y-39769752D01*
X192136020Y-39873224D01*
X192636993Y-40058638D01*
X191711367Y-39540796D02*
X191596648Y-40265101D01*
X191694978Y-39644268D02*
X191651437Y-39584338D01*
X191556159Y-39516213D01*
X191400950Y-39491631D01*
X191289284Y-39526978D01*
X191221160Y-39622256D01*
X191131024Y-40191353D01*
X190883590Y-39409689D02*
X190469701Y-39344135D01*
X190785741Y-39022954D02*
X190638246Y-39954203D01*
X190570121Y-40049481D01*
X190458455Y-40084829D01*
X190354983Y-40068440D01*
D11*
X190600000Y-108604000D02*
X194210000Y-108604000D01*
X190600000Y-104650000D02*
X190600000Y-108595000D01*
X201500000Y-102696000D02*
X192875000Y-102696000D01*
X201500000Y-106604000D02*
X201500000Y-102696000D01*
X201500000Y-106650000D02*
X196450000Y-106696000D01*
X198975000Y-117725000D02*
X194425000Y-117725000D01*
X198975000Y-113075000D02*
X196425000Y-113075000D01*
X194125000Y-110875000D02*
X189425000Y-110875000D01*
X193200000Y-115525000D02*
X189425000Y-115525000D01*
X199000000Y-113099999D02*
X199000000Y-117700000D01*
X189425000Y-110900000D02*
X189400001Y-115500000D01*
X194420000Y-117000000D02*
X194420000Y-117700000D01*
X190611000Y-104580000D02*
G75*
G02*
X192875000Y-102696000I2074000J-190000D01*
G01*
X194215001Y-108579999D02*
G75*
G02*
X196475000Y-106700000I2069999J-190000D01*
G01*
X194130000Y-110900000D02*
G75*
G03*
X196500000Y-113070000I2270000J100000D01*
G01*
X194420000Y-116950000D02*
G75*
G03*
X193200000Y-115530000I-1320000J100000D01*
G01*
X95430000Y-75870000D02*
X95430000Y-73330000D01*
X105590000Y-75870000D02*
X95430000Y-75870000D01*
X105590000Y-73330000D02*
X105590000Y-75870000D01*
X95430000Y-73330000D02*
X105590000Y-73330000D01*
X161500000Y-115100000D02*
X161500000Y-116500000D01*
X162400000Y-116500000D02*
X161500000Y-115800000D01*
X162400000Y-115100000D02*
X162400000Y-116500000D01*
X161500000Y-115800000D02*
X162400000Y-115100000D01*
X142400000Y-115100000D02*
X142400000Y-116500000D01*
X143300000Y-116500000D02*
X142400000Y-115800000D01*
X143300000Y-115100000D02*
X143300000Y-116500000D01*
X142400000Y-115800000D02*
X143300000Y-115100000D01*
X123400000Y-117300000D02*
X123400000Y-118700000D01*
X124300000Y-118700000D02*
X123400000Y-118000000D01*
X124300000Y-117300000D02*
X124300000Y-118700000D01*
X123400000Y-118000000D02*
X124300000Y-117300000D01*
X110156218Y-118516987D02*
X108943782Y-119216987D01*
X109393782Y-119996410D02*
X109550000Y-118866987D01*
X110606218Y-119296410D02*
X109393782Y-119996410D01*
X109550000Y-118866987D02*
X110606218Y-119296410D01*
X106500000Y-96300000D02*
X106500000Y-97700000D01*
X107400000Y-97700000D02*
X106500000Y-97000000D01*
X107400000Y-96300000D02*
X107400000Y-97700000D01*
X106500000Y-97000000D02*
X107400000Y-96300000D01*
X221400000Y-102400000D02*
X221400000Y-103800000D01*
X222300000Y-103800000D02*
X221400000Y-103100000D01*
X222300000Y-102400000D02*
X222300000Y-103800000D01*
X221400000Y-103100000D02*
X222300000Y-102400000D01*
X190100000Y-100800000D02*
X190100000Y-102200000D01*
X191000000Y-102200000D02*
X190100000Y-101500000D01*
X191000000Y-100800000D02*
X191000000Y-102200000D01*
X190100000Y-101500000D02*
X191000000Y-100800000D01*
X171000000Y-96100000D02*
X171000000Y-97500000D01*
X171900000Y-97500000D02*
X171000000Y-96800000D01*
X171900000Y-96100000D02*
X171900000Y-97500000D01*
X171000000Y-96800000D02*
X171900000Y-96100000D01*
X152000000Y-94700000D02*
X152000000Y-96100000D01*
X152900000Y-96100000D02*
X152000000Y-95400000D01*
X152900000Y-94700000D02*
X152900000Y-96100000D01*
X152000000Y-95400000D02*
X152900000Y-94700000D01*
X134800000Y-96100000D02*
X134800000Y-97500000D01*
X135700000Y-97500000D02*
X134800000Y-96800000D01*
X135700000Y-96100000D02*
X135700000Y-97500000D01*
X134800000Y-96800000D02*
X135700000Y-96100000D01*
X113900000Y-98400000D02*
X113900000Y-99800000D01*
X114800000Y-99800000D02*
X113900000Y-99100000D01*
X114800000Y-98400000D02*
X114800000Y-99800000D01*
X113900000Y-99100000D02*
X114800000Y-98400000D01*
X221300000Y-99200000D02*
X221300000Y-100600000D01*
X222200000Y-100600000D02*
X221300000Y-99900000D01*
X222200000Y-99200000D02*
X222200000Y-100600000D01*
X221300000Y-99900000D02*
X222200000Y-99200000D01*
X190100000Y-97600000D02*
X190100000Y-99000000D01*
X191000000Y-99000000D02*
X190100000Y-98300000D01*
X191000000Y-97600000D02*
X191000000Y-99000000D01*
X190100000Y-98300000D02*
X191000000Y-97600000D01*
X171000000Y-92900000D02*
X171000000Y-94300000D01*
X171900000Y-94300000D02*
X171000000Y-93600000D01*
X171900000Y-92900000D02*
X171900000Y-94300000D01*
X171000000Y-93600000D02*
X171900000Y-92900000D01*
X152000000Y-91600000D02*
X152000000Y-93000000D01*
X152900000Y-93000000D02*
X152000000Y-92300000D01*
X152900000Y-91600000D02*
X152900000Y-93000000D01*
X152000000Y-92300000D02*
X152900000Y-91600000D01*
X133800000Y-93100000D02*
X133800000Y-94500000D01*
X134700000Y-94500000D02*
X133800000Y-93800000D01*
X134700000Y-93100000D02*
X134700000Y-94500000D01*
X133800000Y-93800000D02*
X134700000Y-93100000D01*
X113900000Y-95300000D02*
X113900000Y-96700000D01*
X114800000Y-96700000D02*
X113900000Y-96000000D01*
X114800000Y-95300000D02*
X114800000Y-96700000D01*
X113900000Y-96000000D02*
X114800000Y-95300000D01*
X221300000Y-64200000D02*
X221300000Y-65600000D01*
X222200000Y-65600000D02*
X221300000Y-64900000D01*
X222200000Y-64200000D02*
X222200000Y-65600000D01*
X221300000Y-64900000D02*
X222200000Y-64200000D01*
X190100000Y-62600000D02*
X190100000Y-64000000D01*
X191000000Y-64000000D02*
X190100000Y-63300000D01*
X191000000Y-62600000D02*
X191000000Y-64000000D01*
X190100000Y-63300000D02*
X191000000Y-62600000D01*
X171000000Y-58000000D02*
X171000000Y-59400000D01*
X171900000Y-59400000D02*
X171000000Y-58700000D01*
X171900000Y-58000000D02*
X171900000Y-59400000D01*
X171000000Y-58700000D02*
X171900000Y-58000000D01*
X152100000Y-56700000D02*
X152100000Y-58100000D01*
X153000000Y-58100000D02*
X152100000Y-57400000D01*
X153000000Y-56700000D02*
X153000000Y-58100000D01*
X152100000Y-57400000D02*
X153000000Y-56700000D01*
X134800000Y-58000000D02*
X134800000Y-59400000D01*
X135700000Y-59400000D02*
X134800000Y-58700000D01*
X135700000Y-58000000D02*
X135700000Y-59400000D01*
X134800000Y-58700000D02*
X135700000Y-58000000D01*
X113900000Y-60400000D02*
X113900000Y-61800000D01*
X114800000Y-61800000D02*
X113900000Y-61100000D01*
X114800000Y-60400000D02*
X114800000Y-61800000D01*
X113900000Y-61100000D02*
X114800000Y-60400000D01*
X221300000Y-61100000D02*
X221300000Y-62500000D01*
X222200000Y-62500000D02*
X221300000Y-61800000D01*
X222200000Y-61100000D02*
X222200000Y-62500000D01*
X221300000Y-61800000D02*
X222200000Y-61100000D01*
X190100000Y-59700000D02*
X190100000Y-61100000D01*
X191000000Y-61100000D02*
X190100000Y-60400000D01*
X191000000Y-59700000D02*
X191000000Y-61100000D01*
X190100000Y-60400000D02*
X191000000Y-59700000D01*
X171000000Y-54900000D02*
X171000000Y-56300000D01*
X171900000Y-56300000D02*
X171000000Y-55600000D01*
X171900000Y-54900000D02*
X171900000Y-56300000D01*
X171000000Y-55600000D02*
X171900000Y-54900000D01*
X152000000Y-53500000D02*
X152000000Y-54900000D01*
X152900000Y-54900000D02*
X152000000Y-54200000D01*
X152900000Y-53500000D02*
X152900000Y-54900000D01*
X152000000Y-54200000D02*
X152900000Y-53500000D01*
X133800000Y-55000000D02*
X133800000Y-56400000D01*
X134700000Y-56400000D02*
X133800000Y-55700000D01*
X134700000Y-55000000D02*
X134700000Y-56400000D01*
X133800000Y-55700000D02*
X134700000Y-55000000D01*
X113900000Y-57300000D02*
X113900000Y-58700000D01*
X114800000Y-58700000D02*
X113900000Y-58000000D01*
X114800000Y-57300000D02*
X114800000Y-58700000D01*
X113900000Y-58000000D02*
X114800000Y-57300000D01*
X91800000Y-74500000D02*
X91100000Y-74500000D01*
X88300000Y-74500000D02*
X88900000Y-74500000D01*
X88300000Y-80500000D02*
X88900000Y-80500000D01*
X91800000Y-80500000D02*
X91100000Y-80500000D01*
X88300000Y-80500000D02*
X88300000Y-74500000D01*
X91800000Y-74500000D02*
X91800000Y-80500000D01*
X91800000Y-74500000D02*
X91800000Y-80400000D01*
X95811000Y-70443000D02*
X97589000Y-70443000D01*
X95811000Y-68157000D02*
X95811000Y-70443000D01*
X97589000Y-68157000D02*
X95811000Y-68157000D01*
X97589000Y-70443000D02*
X97589000Y-68157000D01*
X98311000Y-70443000D02*
X100089000Y-70443000D01*
X98311000Y-68157000D02*
X98311000Y-70443000D01*
X100089000Y-68157000D02*
X98311000Y-68157000D01*
X100089000Y-70443000D02*
X100089000Y-68157000D01*
X100811000Y-70443000D02*
X102589000Y-70443000D01*
X100811000Y-68157000D02*
X100811000Y-70443000D01*
X102589000Y-68157000D02*
X100811000Y-68157000D01*
X102589000Y-70443000D02*
X102589000Y-68157000D01*
X103411000Y-70443000D02*
X105189000Y-70443000D01*
X103411000Y-68157000D02*
X103411000Y-70443000D01*
X105189000Y-68157000D02*
X103411000Y-68157000D01*
X105189000Y-70443000D02*
X105189000Y-68157000D01*
X96539272Y-81311965D02*
X96539272Y-79311965D01*
X99539272Y-81311965D02*
X96539272Y-81311965D01*
X99539272Y-79311965D02*
X99539272Y-81311965D01*
X96539272Y-79311965D02*
X99539272Y-79311965D01*
X96539272Y-79061965D02*
X96539272Y-77061965D01*
X99539272Y-79061965D02*
X96539272Y-79061965D01*
X99539272Y-77061965D02*
X99539272Y-79061965D01*
X96539272Y-77061965D02*
X99539272Y-77061965D01*
X101700000Y-77100000D02*
X103700000Y-77100000D01*
X101700000Y-79100000D02*
X101700000Y-77100000D01*
X103700000Y-79100000D02*
X101700000Y-79100000D01*
X103700000Y-77100000D02*
X103700000Y-79100000D01*
X101700000Y-79300000D02*
X103700000Y-79300000D01*
X101700000Y-81300000D02*
X101700000Y-79300000D01*
X103700000Y-81300000D02*
X101700000Y-81300000D01*
X103700000Y-79300000D02*
X103700000Y-81300000D01*
X208999200Y-121372400D02*
X208999200Y-122772400D01*
X209899200Y-122772400D02*
X208999200Y-122072400D01*
X209899200Y-121372400D02*
X209899200Y-122772400D01*
X208999200Y-122072400D02*
X209899200Y-121372400D01*
X114400000Y-49104000D02*
X118010000Y-49104000D01*
X114400000Y-45150000D02*
X114400000Y-49095000D01*
X125300000Y-43196000D02*
X116675000Y-43196000D01*
X125300000Y-47104000D02*
X125300000Y-43196000D01*
X125300000Y-47150000D02*
X120250000Y-47196000D01*
X122775000Y-58225000D02*
X118225000Y-58225000D01*
X122775000Y-53575000D02*
X120225000Y-53575000D01*
X117925000Y-51375000D02*
X113225000Y-51375000D01*
X117000000Y-56025000D02*
X113225000Y-56025000D01*
X122800000Y-53599999D02*
X122800000Y-58200000D01*
X113225000Y-51400000D02*
X113200001Y-56000000D01*
X118220000Y-57500000D02*
X118220000Y-58200000D01*
X114411000Y-45080000D02*
G75*
G02*
X116675000Y-43196000I2074000J-190000D01*
G01*
X118015001Y-49079999D02*
G75*
G02*
X120275000Y-47200000I2069999J-190000D01*
G01*
X117930000Y-51400000D02*
G75*
G03*
X120300000Y-53570000I2270000J100000D01*
G01*
X118220000Y-57450000D02*
G75*
G03*
X117000000Y-56030000I-1320000J100000D01*
G01*
X133400000Y-46704000D02*
X137010000Y-46704000D01*
X133400000Y-42750000D02*
X133400000Y-46695000D01*
X144300000Y-40796000D02*
X135675000Y-40796000D01*
X144300000Y-44704000D02*
X144300000Y-40796000D01*
X144300000Y-44750000D02*
X139250000Y-44796000D01*
X141775000Y-55825000D02*
X137225000Y-55825000D01*
X141775000Y-51175000D02*
X139225000Y-51175000D01*
X136925000Y-48975000D02*
X132225000Y-48975000D01*
X136000000Y-53625000D02*
X132225000Y-53625000D01*
X141800000Y-51199999D02*
X141800000Y-55800000D01*
X132225000Y-49000000D02*
X132200001Y-53600000D01*
X137220000Y-55100000D02*
X137220000Y-55800000D01*
X133411000Y-42680000D02*
G75*
G02*
X135675000Y-40796000I2074000J-190000D01*
G01*
X137015001Y-46679999D02*
G75*
G02*
X139275000Y-44800000I2069999J-190000D01*
G01*
X136930000Y-49000000D02*
G75*
G03*
X139300000Y-51170000I2270000J100000D01*
G01*
X137220000Y-55050000D02*
G75*
G03*
X136000000Y-53630000I-1320000J100000D01*
G01*
X152500000Y-45314000D02*
X156110000Y-45314000D01*
X152500000Y-41360000D02*
X152500000Y-45305000D01*
X163400000Y-39406000D02*
X154775000Y-39406000D01*
X163400000Y-43314000D02*
X163400000Y-39406000D01*
X163400000Y-43360000D02*
X158350000Y-43406000D01*
X160875000Y-54435000D02*
X156325000Y-54435000D01*
X160875000Y-49785000D02*
X158325000Y-49785000D01*
X156025000Y-47585000D02*
X151325000Y-47585000D01*
X155100000Y-52235000D02*
X151325000Y-52235000D01*
X160900000Y-49809999D02*
X160900000Y-54410000D01*
X151325000Y-47610000D02*
X151300001Y-52210000D01*
X156320000Y-53710000D02*
X156320000Y-54410000D01*
X152511000Y-41290000D02*
G75*
G02*
X154775000Y-39406000I2074000J-190000D01*
G01*
X156115001Y-45289999D02*
G75*
G02*
X158375000Y-43410000I2069999J-190000D01*
G01*
X156030000Y-47610000D02*
G75*
G03*
X158400000Y-49780000I2270000J100000D01*
G01*
X156320000Y-53660000D02*
G75*
G03*
X155100000Y-52240000I-1320000J100000D01*
G01*
X171500000Y-46704000D02*
X175110000Y-46704000D01*
X171500000Y-42750000D02*
X171500000Y-46695000D01*
X182400000Y-40796000D02*
X173775000Y-40796000D01*
X182400000Y-44704000D02*
X182400000Y-40796000D01*
X182400000Y-44750000D02*
X177350000Y-44796000D01*
X179875000Y-55825000D02*
X175325000Y-55825000D01*
X179875000Y-51175000D02*
X177325000Y-51175000D01*
X175025000Y-48975000D02*
X170325000Y-48975000D01*
X174100000Y-53625000D02*
X170325000Y-53625000D01*
X179900000Y-51199999D02*
X179900000Y-55800000D01*
X170325000Y-49000000D02*
X170300001Y-53600000D01*
X175320000Y-55100000D02*
X175320000Y-55800000D01*
X171511000Y-42680000D02*
G75*
G02*
X173775000Y-40796000I2074000J-190000D01*
G01*
X175115001Y-46679999D02*
G75*
G02*
X177375000Y-44800000I2069999J-190000D01*
G01*
X175030000Y-49000000D02*
G75*
G03*
X177400000Y-51170000I2270000J100000D01*
G01*
X175320000Y-55050000D02*
G75*
G03*
X174100000Y-53630000I-1320000J100000D01*
G01*
X190600000Y-51504000D02*
X194210000Y-51504000D01*
X190600000Y-47550000D02*
X190600000Y-51495000D01*
X201500000Y-45596000D02*
X192875000Y-45596000D01*
X201500000Y-49504000D02*
X201500000Y-45596000D01*
X201500000Y-49550000D02*
X196450000Y-49596000D01*
X198975000Y-60625000D02*
X194425000Y-60625000D01*
X198975000Y-55975000D02*
X196425000Y-55975000D01*
X194125000Y-53775000D02*
X189425000Y-53775000D01*
X193200000Y-58425000D02*
X189425000Y-58425000D01*
X199000000Y-55999999D02*
X199000000Y-60600000D01*
X189425000Y-53800000D02*
X189400001Y-58400000D01*
X194420000Y-59900000D02*
X194420000Y-60600000D01*
X190611000Y-47480000D02*
G75*
G02*
X192875000Y-45596000I2074000J-190000D01*
G01*
X194215001Y-51479999D02*
G75*
G02*
X196475000Y-49600000I2069999J-190000D01*
G01*
X194130000Y-53800000D02*
G75*
G03*
X196500000Y-55970000I2270000J100000D01*
G01*
X194420000Y-59850000D02*
G75*
G03*
X193200000Y-58430000I-1320000J100000D01*
G01*
X209600000Y-53004000D02*
X213210000Y-53004000D01*
X209600000Y-49050000D02*
X209600000Y-52995000D01*
X220500000Y-47096000D02*
X211875000Y-47096000D01*
X220500000Y-51004000D02*
X220500000Y-47096000D01*
X220500000Y-51050000D02*
X215450000Y-51096000D01*
X217975000Y-62125000D02*
X213425000Y-62125000D01*
X217975000Y-57475000D02*
X215425000Y-57475000D01*
X213125000Y-55275000D02*
X208425000Y-55275000D01*
X212200000Y-59925000D02*
X208425000Y-59925000D01*
X218000000Y-57499999D02*
X218000000Y-62100000D01*
X208425000Y-55300000D02*
X208400001Y-59900000D01*
X213420000Y-61400000D02*
X213420000Y-62100000D01*
X209611000Y-48980000D02*
G75*
G02*
X211875000Y-47096000I2074000J-190000D01*
G01*
X213215001Y-52979999D02*
G75*
G02*
X215475000Y-51100000I2069999J-190000D01*
G01*
X213130000Y-55300000D02*
G75*
G03*
X215500000Y-57470000I2270000J100000D01*
G01*
X213420000Y-61350000D02*
G75*
G03*
X212200000Y-59930000I-1320000J100000D01*
G01*
X114400000Y-68204000D02*
X118010000Y-68204000D01*
X114400000Y-64250000D02*
X114400000Y-68195000D01*
X125300000Y-62296000D02*
X116675000Y-62296000D01*
X125300000Y-66204000D02*
X125300000Y-62296000D01*
X125300000Y-66250000D02*
X120250000Y-66296000D01*
X122775000Y-77325000D02*
X118225000Y-77325000D01*
X122775000Y-72675000D02*
X120225000Y-72675000D01*
X117925000Y-70475000D02*
X113225000Y-70475000D01*
X117000000Y-75125000D02*
X113225000Y-75125000D01*
X122800000Y-72699999D02*
X122800000Y-77300000D01*
X113225000Y-70500000D02*
X113200001Y-75100000D01*
X118220000Y-76600000D02*
X118220000Y-77300000D01*
X114411000Y-64180000D02*
G75*
G02*
X116675000Y-62296000I2074000J-190000D01*
G01*
X118015001Y-68179999D02*
G75*
G02*
X120275000Y-66300000I2069999J-190000D01*
G01*
X117930000Y-70500000D02*
G75*
G03*
X120300000Y-72670000I2270000J100000D01*
G01*
X118220000Y-76550000D02*
G75*
G03*
X117000000Y-75130000I-1320000J100000D01*
G01*
X133400000Y-65804000D02*
X137010000Y-65804000D01*
X133400000Y-61850000D02*
X133400000Y-65795000D01*
X144300000Y-59896000D02*
X135675000Y-59896000D01*
X144300000Y-63804000D02*
X144300000Y-59896000D01*
X144300000Y-63850000D02*
X139250000Y-63896000D01*
X141775000Y-74925000D02*
X137225000Y-74925000D01*
X141775000Y-70275000D02*
X139225000Y-70275000D01*
X136925000Y-68075000D02*
X132225000Y-68075000D01*
X136000000Y-72725000D02*
X132225000Y-72725000D01*
X141800000Y-70299999D02*
X141800000Y-74900000D01*
X132225000Y-68100000D02*
X132200001Y-72700000D01*
X137220000Y-74200000D02*
X137220000Y-74900000D01*
X133411000Y-61780000D02*
G75*
G02*
X135675000Y-59896000I2074000J-190000D01*
G01*
X137015001Y-65779999D02*
G75*
G02*
X139275000Y-63900000I2069999J-190000D01*
G01*
X136930000Y-68100000D02*
G75*
G03*
X139300000Y-70270000I2270000J100000D01*
G01*
X137220000Y-74150000D02*
G75*
G03*
X136000000Y-72730000I-1320000J100000D01*
G01*
X152500000Y-64404000D02*
X156110000Y-64404000D01*
X152500000Y-60450000D02*
X152500000Y-64395000D01*
X163400000Y-58496000D02*
X154775000Y-58496000D01*
X163400000Y-62404000D02*
X163400000Y-58496000D01*
X163400000Y-62450000D02*
X158350000Y-62496000D01*
X160875000Y-73525000D02*
X156325000Y-73525000D01*
X160875000Y-68875000D02*
X158325000Y-68875000D01*
X156025000Y-66675000D02*
X151325000Y-66675000D01*
X155100000Y-71325000D02*
X151325000Y-71325000D01*
X160900000Y-68899999D02*
X160900000Y-73500000D01*
X151325000Y-66700000D02*
X151300001Y-71300000D01*
X156320000Y-72800000D02*
X156320000Y-73500000D01*
X152511000Y-60380000D02*
G75*
G02*
X154775000Y-58496000I2074000J-190000D01*
G01*
X156115001Y-64379999D02*
G75*
G02*
X158375000Y-62500000I2069999J-190000D01*
G01*
X156030000Y-66700000D02*
G75*
G03*
X158400000Y-68870000I2270000J100000D01*
G01*
X156320000Y-72750000D02*
G75*
G03*
X155100000Y-71330000I-1320000J100000D01*
G01*
X171500000Y-65704000D02*
X175110000Y-65704000D01*
X171500000Y-61750000D02*
X171500000Y-65695000D01*
X182400000Y-59796000D02*
X173775000Y-59796000D01*
X182400000Y-63704000D02*
X182400000Y-59796000D01*
X182400000Y-63750000D02*
X177350000Y-63796000D01*
X179875000Y-74825000D02*
X175325000Y-74825000D01*
X179875000Y-70175000D02*
X177325000Y-70175000D01*
X175025000Y-67975000D02*
X170325000Y-67975000D01*
X174100000Y-72625000D02*
X170325000Y-72625000D01*
X179900000Y-70199999D02*
X179900000Y-74800000D01*
X170325000Y-68000000D02*
X170300001Y-72600000D01*
X175320000Y-74100000D02*
X175320000Y-74800000D01*
X171511000Y-61680000D02*
G75*
G02*
X173775000Y-59796000I2074000J-190000D01*
G01*
X175115001Y-65679999D02*
G75*
G02*
X177375000Y-63800000I2069999J-190000D01*
G01*
X175030000Y-68000000D02*
G75*
G03*
X177400000Y-70170000I2270000J100000D01*
G01*
X175320000Y-74050000D02*
G75*
G03*
X174100000Y-72630000I-1320000J100000D01*
G01*
X190600000Y-70404000D02*
X194210000Y-70404000D01*
X190600000Y-66450000D02*
X190600000Y-70395000D01*
X201500000Y-64496000D02*
X192875000Y-64496000D01*
X201500000Y-68404000D02*
X201500000Y-64496000D01*
X201500000Y-68450000D02*
X196450000Y-68496000D01*
X198975000Y-79525000D02*
X194425000Y-79525000D01*
X198975000Y-74875000D02*
X196425000Y-74875000D01*
X194125000Y-72675000D02*
X189425000Y-72675000D01*
X193200000Y-77325000D02*
X189425000Y-77325000D01*
X199000000Y-74899999D02*
X199000000Y-79500000D01*
X189425000Y-72700000D02*
X189400001Y-77300000D01*
X194420000Y-78800000D02*
X194420000Y-79500000D01*
X190611000Y-66380000D02*
G75*
G02*
X192875000Y-64496000I2074000J-190000D01*
G01*
X194215001Y-70379999D02*
G75*
G02*
X196475000Y-68500000I2069999J-190000D01*
G01*
X194130000Y-72700000D02*
G75*
G03*
X196500000Y-74870000I2270000J100000D01*
G01*
X194420000Y-78750000D02*
G75*
G03*
X193200000Y-77330000I-1320000J100000D01*
G01*
X209600000Y-71904000D02*
X213210000Y-71904000D01*
X209600000Y-67950000D02*
X209600000Y-71895000D01*
X220500000Y-65996000D02*
X211875000Y-65996000D01*
X220500000Y-69904000D02*
X220500000Y-65996000D01*
X220500000Y-69950000D02*
X215450000Y-69996000D01*
X217975000Y-81025000D02*
X213425000Y-81025000D01*
X217975000Y-76375000D02*
X215425000Y-76375000D01*
X213125000Y-74175000D02*
X208425000Y-74175000D01*
X212200000Y-78825000D02*
X208425000Y-78825000D01*
X218000000Y-76399999D02*
X218000000Y-81000000D01*
X208425000Y-74200000D02*
X208400001Y-78800000D01*
X213420000Y-80300000D02*
X213420000Y-81000000D01*
X209611000Y-67880000D02*
G75*
G02*
X211875000Y-65996000I2074000J-190000D01*
G01*
X213215001Y-71879999D02*
G75*
G02*
X215475000Y-70000000I2069999J-190000D01*
G01*
X213130000Y-74200000D02*
G75*
G03*
X215500000Y-76370000I2270000J100000D01*
G01*
X213420000Y-80250000D02*
G75*
G03*
X212200000Y-78830000I-1320000J100000D01*
G01*
X114400000Y-87204000D02*
X118010000Y-87204000D01*
X114400000Y-83250000D02*
X114400000Y-87195000D01*
X125300000Y-81296000D02*
X116675000Y-81296000D01*
X125300000Y-85204000D02*
X125300000Y-81296000D01*
X125300000Y-85250000D02*
X120250000Y-85296000D01*
X122775000Y-96325000D02*
X118225000Y-96325000D01*
X122775000Y-91675000D02*
X120225000Y-91675000D01*
X117925000Y-89475000D02*
X113225000Y-89475000D01*
X117000000Y-94125000D02*
X113225000Y-94125000D01*
X122800000Y-91699999D02*
X122800000Y-96300000D01*
X113225000Y-89500000D02*
X113200001Y-94100000D01*
X118220000Y-95600000D02*
X118220000Y-96300000D01*
X114411000Y-83180000D02*
G75*
G02*
X116675000Y-81296000I2074000J-190000D01*
G01*
X118015001Y-87179999D02*
G75*
G02*
X120275000Y-85300000I2069999J-190000D01*
G01*
X117930000Y-89500000D02*
G75*
G03*
X120300000Y-91670000I2270000J100000D01*
G01*
X118220000Y-95550000D02*
G75*
G03*
X117000000Y-94130000I-1320000J100000D01*
G01*
X133400000Y-84804000D02*
X137010000Y-84804000D01*
X133400000Y-80850000D02*
X133400000Y-84795000D01*
X144300000Y-78896000D02*
X135675000Y-78896000D01*
X144300000Y-82804000D02*
X144300000Y-78896000D01*
X144300000Y-82850000D02*
X139250000Y-82896000D01*
X141775000Y-93925000D02*
X137225000Y-93925000D01*
X141775000Y-89275000D02*
X139225000Y-89275000D01*
X136925000Y-87075000D02*
X132225000Y-87075000D01*
X136000000Y-91725000D02*
X132225000Y-91725000D01*
X141800000Y-89299999D02*
X141800000Y-93900000D01*
X132225000Y-87100000D02*
X132200001Y-91700000D01*
X137220000Y-93200000D02*
X137220000Y-93900000D01*
X133411000Y-80780000D02*
G75*
G02*
X135675000Y-78896000I2074000J-190000D01*
G01*
X137015001Y-84779999D02*
G75*
G02*
X139275000Y-82900000I2069999J-190000D01*
G01*
X136930000Y-87100000D02*
G75*
G03*
X139300000Y-89270000I2270000J100000D01*
G01*
X137220000Y-93150000D02*
G75*
G03*
X136000000Y-91730000I-1320000J100000D01*
G01*
X152500000Y-83504000D02*
X156110000Y-83504000D01*
X152500000Y-79550000D02*
X152500000Y-83495000D01*
X163400000Y-77596000D02*
X154775000Y-77596000D01*
X163400000Y-81504000D02*
X163400000Y-77596000D01*
X163400000Y-81550000D02*
X158350000Y-81596000D01*
X160875000Y-92625000D02*
X156325000Y-92625000D01*
X160875000Y-87975000D02*
X158325000Y-87975000D01*
X156025000Y-85775000D02*
X151325000Y-85775000D01*
X155100000Y-90425000D02*
X151325000Y-90425000D01*
X160900000Y-87999999D02*
X160900000Y-92600000D01*
X151325000Y-85800000D02*
X151300001Y-90400000D01*
X156320000Y-91900000D02*
X156320000Y-92600000D01*
X152511000Y-79480000D02*
G75*
G02*
X154775000Y-77596000I2074000J-190000D01*
G01*
X156115001Y-83479999D02*
G75*
G02*
X158375000Y-81600000I2069999J-190000D01*
G01*
X156030000Y-85800000D02*
G75*
G03*
X158400000Y-87970000I2270000J100000D01*
G01*
X156320000Y-91850000D02*
G75*
G03*
X155100000Y-90430000I-1320000J100000D01*
G01*
X171500000Y-84804000D02*
X175110000Y-84804000D01*
X171500000Y-80850000D02*
X171500000Y-84795000D01*
X182400000Y-78896000D02*
X173775000Y-78896000D01*
X182400000Y-82804000D02*
X182400000Y-78896000D01*
X182400000Y-82850000D02*
X177350000Y-82896000D01*
X179875000Y-93925000D02*
X175325000Y-93925000D01*
X179875000Y-89275000D02*
X177325000Y-89275000D01*
X175025000Y-87075000D02*
X170325000Y-87075000D01*
X174100000Y-91725000D02*
X170325000Y-91725000D01*
X179900000Y-89299999D02*
X179900000Y-93900000D01*
X170325000Y-87100000D02*
X170300001Y-91700000D01*
X175320000Y-93200000D02*
X175320000Y-93900000D01*
X171511000Y-80780000D02*
G75*
G02*
X173775000Y-78896000I2074000J-190000D01*
G01*
X175115001Y-84779999D02*
G75*
G02*
X177375000Y-82900000I2069999J-190000D01*
G01*
X175030000Y-87100000D02*
G75*
G03*
X177400000Y-89270000I2270000J100000D01*
G01*
X175320000Y-93150000D02*
G75*
G03*
X174100000Y-91730000I-1320000J100000D01*
G01*
X190600000Y-89604000D02*
X194210000Y-89604000D01*
X190600000Y-85650000D02*
X190600000Y-89595000D01*
X201500000Y-83696000D02*
X192875000Y-83696000D01*
X201500000Y-87604000D02*
X201500000Y-83696000D01*
X201500000Y-87650000D02*
X196450000Y-87696000D01*
X198975000Y-98725000D02*
X194425000Y-98725000D01*
X198975000Y-94075000D02*
X196425000Y-94075000D01*
X194125000Y-91875000D02*
X189425000Y-91875000D01*
X193200000Y-96525000D02*
X189425000Y-96525000D01*
X199000000Y-94099999D02*
X199000000Y-98700000D01*
X189425000Y-91900000D02*
X189400001Y-96500000D01*
X194420000Y-98000000D02*
X194420000Y-98700000D01*
X190611000Y-85580000D02*
G75*
G02*
X192875000Y-83696000I2074000J-190000D01*
G01*
X194215001Y-89579999D02*
G75*
G02*
X196475000Y-87700000I2069999J-190000D01*
G01*
X194130000Y-91900000D02*
G75*
G03*
X196500000Y-94070000I2270000J100000D01*
G01*
X194420000Y-97950000D02*
G75*
G03*
X193200000Y-96530000I-1320000J100000D01*
G01*
X209600000Y-91104000D02*
X213210000Y-91104000D01*
X209600000Y-87150000D02*
X209600000Y-91095000D01*
X220500000Y-85196000D02*
X211875000Y-85196000D01*
X220500000Y-89104000D02*
X220500000Y-85196000D01*
X220500000Y-89150000D02*
X215450000Y-89196000D01*
X217975000Y-100225000D02*
X213425000Y-100225000D01*
X217975000Y-95575000D02*
X215425000Y-95575000D01*
X213125000Y-93375000D02*
X208425000Y-93375000D01*
X212200000Y-98025000D02*
X208425000Y-98025000D01*
X218000000Y-95599999D02*
X218000000Y-100200000D01*
X208425000Y-93400000D02*
X208400001Y-98000000D01*
X213420000Y-99500000D02*
X213420000Y-100200000D01*
X209611000Y-87080000D02*
G75*
G02*
X211875000Y-85196000I2074000J-190000D01*
G01*
X213215001Y-91079999D02*
G75*
G02*
X215475000Y-89200000I2069999J-190000D01*
G01*
X213130000Y-93400000D02*
G75*
G03*
X215500000Y-95570000I2270000J100000D01*
G01*
X213420000Y-99450000D02*
G75*
G03*
X212200000Y-98030000I-1320000J100000D01*
G01*
X114400000Y-106204000D02*
X118010000Y-106204000D01*
X114400000Y-102250000D02*
X114400000Y-106195000D01*
X125300000Y-100296000D02*
X116675000Y-100296000D01*
X125300000Y-104204000D02*
X125300000Y-100296000D01*
X125300000Y-104250000D02*
X120250000Y-104296000D01*
X122775000Y-115325000D02*
X118225000Y-115325000D01*
X122775000Y-110675000D02*
X120225000Y-110675000D01*
X117925000Y-108475000D02*
X113225000Y-108475000D01*
X117000000Y-113125000D02*
X113225000Y-113125000D01*
X122800000Y-110699999D02*
X122800000Y-115300000D01*
X113225000Y-108500000D02*
X113200001Y-113100000D01*
X118220000Y-114600000D02*
X118220000Y-115300000D01*
X114411000Y-102180000D02*
G75*
G02*
X116675000Y-100296000I2074000J-190000D01*
G01*
X118015001Y-106179999D02*
G75*
G02*
X120275000Y-104300000I2069999J-190000D01*
G01*
X117930000Y-108500000D02*
G75*
G03*
X120300000Y-110670000I2270000J100000D01*
G01*
X118220000Y-114550000D02*
G75*
G03*
X117000000Y-113130000I-1320000J100000D01*
G01*
X133400000Y-103904000D02*
X137010000Y-103904000D01*
X133400000Y-99950000D02*
X133400000Y-103895000D01*
X144300000Y-97996000D02*
X135675000Y-97996000D01*
X144300000Y-101904000D02*
X144300000Y-97996000D01*
X144300000Y-101950000D02*
X139250000Y-101996000D01*
X141775000Y-113025000D02*
X137225000Y-113025000D01*
X141775000Y-108375000D02*
X139225000Y-108375000D01*
X136925000Y-106175000D02*
X132225000Y-106175000D01*
X136000000Y-110825000D02*
X132225000Y-110825000D01*
X141800000Y-108399999D02*
X141800000Y-113000000D01*
X132225000Y-106200000D02*
X132200001Y-110800000D01*
X137220000Y-112300000D02*
X137220000Y-113000000D01*
X133411000Y-99880000D02*
G75*
G02*
X135675000Y-97996000I2074000J-190000D01*
G01*
X137015001Y-103879999D02*
G75*
G02*
X139275000Y-102000000I2069999J-190000D01*
G01*
X136930000Y-106200000D02*
G75*
G03*
X139300000Y-108370000I2270000J100000D01*
G01*
X137220000Y-112250000D02*
G75*
G03*
X136000000Y-110830000I-1320000J100000D01*
G01*
X152500000Y-102504000D02*
X156110000Y-102504000D01*
X152500000Y-98550000D02*
X152500000Y-102495000D01*
X163400000Y-96596000D02*
X154775000Y-96596000D01*
X163400000Y-100504000D02*
X163400000Y-96596000D01*
X163400000Y-100550000D02*
X158350000Y-100596000D01*
X160875000Y-111625000D02*
X156325000Y-111625000D01*
X160875000Y-106975000D02*
X158325000Y-106975000D01*
X156025000Y-104775000D02*
X151325000Y-104775000D01*
X155100000Y-109425000D02*
X151325000Y-109425000D01*
X160900000Y-106999999D02*
X160900000Y-111600000D01*
X151325000Y-104800000D02*
X151300001Y-109400000D01*
X156320000Y-110900000D02*
X156320000Y-111600000D01*
X152511000Y-98480000D02*
G75*
G02*
X154775000Y-96596000I2074000J-190000D01*
G01*
X156115001Y-102479999D02*
G75*
G02*
X158375000Y-100600000I2069999J-190000D01*
G01*
X156030000Y-104800000D02*
G75*
G03*
X158400000Y-106970000I2270000J100000D01*
G01*
X156320000Y-110850000D02*
G75*
G03*
X155100000Y-109430000I-1320000J100000D01*
G01*
X171500000Y-103904000D02*
X175110000Y-103904000D01*
X171500000Y-99950000D02*
X171500000Y-103895000D01*
X182400000Y-97996000D02*
X173775000Y-97996000D01*
X182400000Y-101904000D02*
X182400000Y-97996000D01*
X182400000Y-101950000D02*
X177350000Y-101996000D01*
X179875000Y-113025000D02*
X175325000Y-113025000D01*
X179875000Y-108375000D02*
X177325000Y-108375000D01*
X175025000Y-106175000D02*
X170325000Y-106175000D01*
X174100000Y-110825000D02*
X170325000Y-110825000D01*
X179900000Y-108399999D02*
X179900000Y-113000000D01*
X170325000Y-106200000D02*
X170300001Y-110800000D01*
X175320000Y-112300000D02*
X175320000Y-113000000D01*
X171511000Y-99880000D02*
G75*
G02*
X173775000Y-97996000I2074000J-190000D01*
G01*
X175115001Y-103879999D02*
G75*
G02*
X177375000Y-102000000I2069999J-190000D01*
G01*
X175030000Y-106200000D02*
G75*
G03*
X177400000Y-108370000I2270000J100000D01*
G01*
X175320000Y-112250000D02*
G75*
G03*
X174100000Y-110830000I-1320000J100000D01*
G01*
X209650000Y-110104000D02*
X213260000Y-110104000D01*
X209650000Y-106150000D02*
X209650000Y-110095000D01*
X220550000Y-104196000D02*
X211925000Y-104196000D01*
X220550000Y-108104000D02*
X220550000Y-104196000D01*
X220550000Y-108150000D02*
X215500000Y-108196000D01*
X218025000Y-119225000D02*
X213475000Y-119225000D01*
X218025000Y-114575000D02*
X215475000Y-114575000D01*
X213175000Y-112375000D02*
X208475000Y-112375000D01*
X212250000Y-117025000D02*
X208475000Y-117025000D01*
X218050000Y-114599999D02*
X218050000Y-119200000D01*
X208475000Y-112400000D02*
X208450001Y-117000000D01*
X213470000Y-118500000D02*
X213470000Y-119200000D01*
X209661000Y-106080000D02*
G75*
G02*
X211925000Y-104196000I2074000J-190000D01*
G01*
X213265001Y-110079999D02*
G75*
G02*
X215525000Y-108200000I2069999J-190000D01*
G01*
X213180000Y-112400000D02*
G75*
G03*
X215550000Y-114570000I2270000J100000D01*
G01*
X213470000Y-118450000D02*
G75*
G03*
X212250000Y-117030000I-1320000J100000D01*
G01*
X103685959Y-124339245D02*
X105490959Y-127465597D01*
X107110223Y-122362245D02*
X103693753Y-124334745D01*
X114252437Y-130824922D02*
X109939937Y-123355453D01*
X110868010Y-132778922D02*
X114252437Y-130824922D01*
X110828172Y-132801922D02*
X108263335Y-128451494D01*
X99974441Y-136152708D02*
X97699441Y-132212292D01*
X104001459Y-133827708D02*
X102726459Y-131619343D01*
X103481715Y-128527485D02*
X101131715Y-124457165D01*
X98992197Y-130051411D02*
X97104697Y-126782165D01*
X103992309Y-133861858D02*
X100008592Y-136161858D01*
X101110064Y-124469665D02*
X97113848Y-126748015D01*
X98324809Y-131845462D02*
X97718592Y-132195462D01*
X107176345Y-122336771D02*
G75*
G02*
X109939937Y-123355453I872455J-1891137D01*
G01*
X105514244Y-127457927D02*
G75*
G02*
X108272371Y-128475144I870455J-1887672D01*
G01*
X103462564Y-128544314D02*
G75*
G03*
X102768289Y-131681795I1221603J-1915878D01*
G01*
X98368111Y-131820463D02*
G75*
G03*
X98987867Y-130053911I-573398J1193154D01*
G01*
X121755951Y-127133327D02*
X125242943Y-126198990D01*
X120732580Y-123314056D02*
X121753621Y-127124633D01*
X130755439Y-118605509D02*
X122424329Y-120837824D01*
X131766904Y-122380347D02*
X130755439Y-118605509D01*
X131778810Y-122424780D02*
X126912790Y-123776249D01*
X132206268Y-133775927D02*
X127811305Y-134953553D01*
X131002759Y-129284372D02*
X128539648Y-129944360D01*
X125748617Y-128414607D02*
X121208766Y-129631057D01*
X126058644Y-133145570D02*
X122412274Y-134122612D01*
X131033378Y-129302048D02*
X132223946Y-133745308D01*
X121215236Y-129655205D02*
X122381657Y-134104934D01*
X127618832Y-134254551D02*
X127800005Y-134930699D01*
X120725089Y-123243594D02*
G75*
G02*
X122424329Y-120837824I2052505J353265D01*
G01*
X125241562Y-126174513D02*
G75*
G02*
X126937973Y-123773642I2048641J352230D01*
G01*
X125759917Y-128437461D02*
G75*
G03*
X128610799Y-129920119I2166770J684112D01*
G01*
X127605891Y-134206254D02*
G75*
G03*
X126059938Y-133150399I-1300904J-245049D01*
G01*
X142900000Y-122854000D02*
X146510000Y-122854000D01*
X142900000Y-118900000D02*
X142900000Y-122845000D01*
X153800000Y-116946000D02*
X145175000Y-116946000D01*
X153800000Y-120854000D02*
X153800000Y-116946000D01*
X153800000Y-120900000D02*
X148750000Y-120946000D01*
X151275000Y-131975000D02*
X146725000Y-131975000D01*
X151275000Y-127325000D02*
X148725000Y-127325000D01*
X146425000Y-125125000D02*
X141725000Y-125125000D01*
X145500000Y-129775000D02*
X141725000Y-129775000D01*
X151300000Y-127349999D02*
X151300000Y-131950000D01*
X141725000Y-125150000D02*
X141700001Y-129750000D01*
X146720000Y-131250000D02*
X146720000Y-131950000D01*
X142911000Y-118830000D02*
G75*
G02*
X145175000Y-116946000I2074000J-190000D01*
G01*
X146515001Y-122829999D02*
G75*
G02*
X148775000Y-120950000I2069999J-190000D01*
G01*
X146430000Y-125150000D02*
G75*
G03*
X148800000Y-127320000I2270000J100000D01*
G01*
X146720000Y-131200000D02*
G75*
G03*
X145500000Y-129780000I-1320000J100000D01*
G01*
X162000000Y-122854000D02*
X165610000Y-122854000D01*
X162000000Y-118900000D02*
X162000000Y-122845000D01*
X172900000Y-116946000D02*
X164275000Y-116946000D01*
X172900000Y-120854000D02*
X172900000Y-116946000D01*
X172900000Y-120900000D02*
X167850000Y-120946000D01*
X170375000Y-131975000D02*
X165825000Y-131975000D01*
X170375000Y-127325000D02*
X167825000Y-127325000D01*
X165525000Y-125125000D02*
X160825000Y-125125000D01*
X164600000Y-129775000D02*
X160825000Y-129775000D01*
X170400000Y-127349999D02*
X170400000Y-131950000D01*
X160825000Y-125150000D02*
X160800001Y-129750000D01*
X165820000Y-131250000D02*
X165820000Y-131950000D01*
X162011000Y-118830000D02*
G75*
G02*
X164275000Y-116946000I2074000J-190000D01*
G01*
X165615001Y-122829999D02*
G75*
G02*
X167875000Y-120950000I2069999J-190000D01*
G01*
X165530000Y-125150000D02*
G75*
G03*
X167900000Y-127320000I2270000J100000D01*
G01*
X165820000Y-131200000D02*
G75*
G03*
X164600000Y-129780000I-1320000J100000D01*
G01*
X209647600Y-129177401D02*
X213257600Y-129177401D01*
X209647600Y-125223401D02*
X209647600Y-129168401D01*
X220547600Y-123269401D02*
X211922600Y-123269401D01*
X220547600Y-127177401D02*
X220547600Y-123269401D01*
X220547600Y-127223401D02*
X215497600Y-127269401D01*
X218022600Y-138298401D02*
X213472600Y-138298401D01*
X218022600Y-133648401D02*
X215472600Y-133648401D01*
X213172600Y-131448401D02*
X208472600Y-131448401D01*
X212247600Y-136098401D02*
X208472600Y-136098401D01*
X218047600Y-133673400D02*
X218047600Y-138273401D01*
X208472600Y-131473401D02*
X208447601Y-136073401D01*
X213467600Y-137573401D02*
X213467600Y-138273401D01*
X209658600Y-125153401D02*
G75*
G02*
X211922600Y-123269401I2074000J-190000D01*
G01*
X213262601Y-129153400D02*
G75*
G02*
X215522600Y-127273401I2069999J-190000D01*
G01*
X213177600Y-131473401D02*
G75*
G03*
X215547600Y-133643401I2270000J100000D01*
G01*
X213467600Y-137523401D02*
G75*
G03*
X212247600Y-136103401I-1320000J100000D01*
G01*
D12*
X99500000Y-104500000D02*
X100500000Y-104500000D01*
X100000000Y-104000000D02*
X100000000Y-105000000D01*
X103000000Y-104500000D02*
G75*
G03*
X103000000Y-104500000I-3000000J0D01*
G01*
X102000000Y-98600000D02*
X106100000Y-98600000D01*
X106100000Y-98600000D02*
X106100000Y-101000000D01*
X106100000Y-103200000D02*
X106100000Y-105800000D01*
X106100000Y-108000000D02*
X106100000Y-110400000D01*
X106100000Y-110400000D02*
X102000000Y-110400000D01*
X98000000Y-110400000D02*
X93900000Y-110400000D01*
X93900000Y-98600000D02*
X93900000Y-110400000D01*
X98000000Y-98600000D02*
X93900000Y-98600000D01*
D11*
X108800000Y-79500000D02*
X107000000Y-79500000D01*
X107000000Y-79500000D02*
X107000000Y-77700000D01*
X107000000Y-77700000D02*
X108800000Y-77700000D01*
X108800000Y-77700000D02*
X108800000Y-79500000D01*
X108800000Y-82000000D02*
X107000000Y-82000000D01*
X107000000Y-82000000D02*
X107000000Y-80200000D01*
X107000000Y-80200000D02*
X108800000Y-80200000D01*
X108800000Y-80200000D02*
X108800000Y-82000000D01*
X108800000Y-76900000D02*
X107000000Y-76900000D01*
X107000000Y-76900000D02*
X107000000Y-75100000D01*
X107000000Y-75100000D02*
X108800000Y-75100000D01*
X108800000Y-75100000D02*
X108800000Y-76900000D01*
X100000000Y-90400000D02*
X88000000Y-90400000D01*
X100000000Y-84400000D02*
X100000000Y-90400000D01*
X88000000Y-84400000D02*
X100000000Y-84400000D01*
X88000000Y-90400000D02*
X88000000Y-84400000D01*
X90910000Y-37420000D02*
X108690000Y-37420000D01*
X108690000Y-37420000D02*
X108690000Y-70440000D01*
X90910000Y-70440000D02*
X90910000Y-37420000D01*
X106150000Y-39960000D02*
X108690000Y-39960000D01*
X108690000Y-39960000D02*
X108690000Y-70440000D01*
X108690000Y-70440000D02*
X106150000Y-70440000D01*
X106150000Y-70440000D02*
X106150000Y-39960000D01*
X90910000Y-39960000D02*
X93450000Y-39960000D01*
X93450000Y-39960000D02*
X93450000Y-70440000D01*
X93450000Y-70440000D02*
X90910000Y-70440000D01*
X90910000Y-70440000D02*
X90910000Y-39960000D01*
X98172605Y-80661904D02*
X98439272Y-80280952D01*
X98629748Y-80661904D02*
X98629748Y-79861904D01*
X98324986Y-79861904D01*
X98248795Y-79900000D01*
X98210700Y-79938095D01*
X98172605Y-80014285D01*
X98172605Y-80128571D01*
X98210700Y-80204761D01*
X98248795Y-80242857D01*
X98324986Y-80280952D01*
X98629748Y-80280952D01*
X97410700Y-80661904D02*
X97867843Y-80661904D01*
X97639272Y-80661904D02*
X97639272Y-79861904D01*
X97715462Y-79976190D01*
X97791652Y-80052380D01*
X97867843Y-80090476D01*
X98172605Y-78423869D02*
X98439272Y-78042917D01*
X98629748Y-78423869D02*
X98629748Y-77623869D01*
X98324986Y-77623869D01*
X98248795Y-77661965D01*
X98210700Y-77700060D01*
X98172605Y-77776250D01*
X98172605Y-77890536D01*
X98210700Y-77966726D01*
X98248795Y-78004822D01*
X98324986Y-78042917D01*
X98629748Y-78042917D01*
X97410700Y-78423869D02*
X97867843Y-78423869D01*
X97639272Y-78423869D02*
X97639272Y-77623869D01*
X97715462Y-77738155D01*
X97791652Y-77814345D01*
X97867843Y-77852441D01*
X98172605Y-78423869D02*
X98439272Y-78042917D01*
X98629748Y-78423869D02*
X98629748Y-77623869D01*
X98324986Y-77623869D01*
X98248795Y-77661965D01*
X98210700Y-77700060D01*
X98172605Y-77776250D01*
X98172605Y-77890536D01*
X98210700Y-77966726D01*
X98248795Y-78004822D01*
X98324986Y-78042917D01*
X98629748Y-78042917D01*
X97867843Y-77700060D02*
X97829748Y-77661965D01*
X97753557Y-77623869D01*
X97563081Y-77623869D01*
X97486891Y-77661965D01*
X97448795Y-77700060D01*
X97410700Y-77776250D01*
X97410700Y-77852441D01*
X97448795Y-77966726D01*
X97905938Y-78423869D01*
X97410700Y-78423869D01*
X104761904Y-77509523D02*
X103961904Y-77509523D01*
X103961904Y-77814285D01*
X104000000Y-77890476D01*
X104038095Y-77928571D01*
X104114285Y-77966666D01*
X104228571Y-77966666D01*
X104304761Y-77928571D01*
X104342857Y-77890476D01*
X104380952Y-77814285D01*
X104380952Y-77509523D01*
X104038095Y-78271428D02*
X104000000Y-78309523D01*
X103961904Y-78385714D01*
X103961904Y-78576190D01*
X104000000Y-78652380D01*
X104038095Y-78690476D01*
X104114285Y-78728571D01*
X104190476Y-78728571D01*
X104304761Y-78690476D01*
X104761904Y-78233333D01*
X104761904Y-78728571D01*
X104761904Y-79909523D02*
X103961904Y-79909523D01*
X103961904Y-80214285D01*
X104000000Y-80290476D01*
X104038095Y-80328571D01*
X104114285Y-80366666D01*
X104228571Y-80366666D01*
X104304761Y-80328571D01*
X104342857Y-80290476D01*
X104380952Y-80214285D01*
X104380952Y-79909523D01*
X104761904Y-81128571D02*
X104761904Y-80671428D01*
X104761904Y-80900000D02*
X103961904Y-80900000D01*
X104076190Y-80823809D01*
X104152380Y-80747619D01*
X104190476Y-80671428D01*
X110614285Y-78961904D02*
X110995238Y-78961904D01*
X110995238Y-78161904D01*
X110347619Y-78542857D02*
X110080952Y-78542857D01*
X109966666Y-78961904D02*
X110347619Y-78961904D01*
X110347619Y-78161904D01*
X109966666Y-78161904D01*
X109623809Y-78961904D02*
X109623809Y-78161904D01*
X109433333Y-78161904D01*
X109319047Y-78200000D01*
X109242857Y-78276190D01*
X109204761Y-78352380D01*
X109166666Y-78504761D01*
X109166666Y-78619047D01*
X109204761Y-78771428D01*
X109242857Y-78847619D01*
X109319047Y-78923809D01*
X109433333Y-78961904D01*
X109623809Y-78961904D01*
X110614285Y-78961904D02*
X110995238Y-78961904D01*
X110995238Y-78161904D01*
X110347619Y-78542857D02*
X110080952Y-78542857D01*
X109966666Y-78961904D02*
X110347619Y-78961904D01*
X110347619Y-78161904D01*
X109966666Y-78161904D01*
X109623809Y-78961904D02*
X109623809Y-78161904D01*
X109433333Y-78161904D01*
X109319047Y-78200000D01*
X109242857Y-78276190D01*
X109204761Y-78352380D01*
X109166666Y-78504761D01*
X109166666Y-78619047D01*
X109204761Y-78771428D01*
X109242857Y-78847619D01*
X109319047Y-78923809D01*
X109433333Y-78961904D01*
X109623809Y-78961904D01*
X111166666Y-80561904D02*
X110900000Y-81361904D01*
X110633333Y-80561904D01*
X109909523Y-81285714D02*
X109947619Y-81323809D01*
X110061904Y-81361904D01*
X110138095Y-81361904D01*
X110252380Y-81323809D01*
X110328571Y-81247619D01*
X110366666Y-81171428D01*
X110404761Y-81019047D01*
X110404761Y-80904761D01*
X110366666Y-80752380D01*
X110328571Y-80676190D01*
X110252380Y-80600000D01*
X110138095Y-80561904D01*
X110061904Y-80561904D01*
X109947619Y-80600000D01*
X109909523Y-80638095D01*
X109109523Y-81285714D02*
X109147619Y-81323809D01*
X109261904Y-81361904D01*
X109338095Y-81361904D01*
X109452380Y-81323809D01*
X109528571Y-81247619D01*
X109566666Y-81171428D01*
X109604761Y-81019047D01*
X109604761Y-80904761D01*
X109566666Y-80752380D01*
X109528571Y-80676190D01*
X109452380Y-80600000D01*
X109338095Y-80561904D01*
X109261904Y-80561904D01*
X109147619Y-80600000D01*
X109109523Y-80638095D01*
X111166666Y-80561904D02*
X110900000Y-81361904D01*
X110633333Y-80561904D01*
X109909523Y-81285714D02*
X109947619Y-81323809D01*
X110061904Y-81361904D01*
X110138095Y-81361904D01*
X110252380Y-81323809D01*
X110328571Y-81247619D01*
X110366666Y-81171428D01*
X110404761Y-81019047D01*
X110404761Y-80904761D01*
X110366666Y-80752380D01*
X110328571Y-80676190D01*
X110252380Y-80600000D01*
X110138095Y-80561904D01*
X110061904Y-80561904D01*
X109947619Y-80600000D01*
X109909523Y-80638095D01*
X109109523Y-81285714D02*
X109147619Y-81323809D01*
X109261904Y-81361904D01*
X109338095Y-81361904D01*
X109452380Y-81323809D01*
X109528571Y-81247619D01*
X109566666Y-81171428D01*
X109604761Y-81019047D01*
X109604761Y-80904761D01*
X109566666Y-80752380D01*
X109528571Y-80676190D01*
X109452380Y-80600000D01*
X109338095Y-80561904D01*
X109261904Y-80561904D01*
X109147619Y-80600000D01*
X109109523Y-80638095D01*
%LPC*%
D13*
G36*
X203509755Y-103150961D02*
G01*
X203519134Y-103153806D01*
X203527779Y-103158427D01*
X203535355Y-103164645D01*
X203541573Y-103172221D01*
X203546194Y-103180866D01*
X203549039Y-103190245D01*
X203550000Y-103200000D01*
X203550000Y-103650000D01*
X204250000Y-103650000D01*
X204250000Y-105150000D01*
X203550000Y-105150000D01*
X203550000Y-105600000D01*
X203549039Y-105609755D01*
X203546194Y-105619134D01*
X203541573Y-105627779D01*
X203535355Y-105635355D01*
X203527779Y-105641573D01*
X203519134Y-105646194D01*
X203509755Y-105649039D01*
X203500000Y-105650000D01*
X201600000Y-105650000D01*
X201590245Y-105649039D01*
X201580866Y-105646194D01*
X201568765Y-105639043D01*
X201068765Y-105239043D01*
X201061748Y-105232200D01*
X201056202Y-105224118D01*
X201052338Y-105215110D01*
X201050306Y-105205522D01*
X201050000Y-105200000D01*
X201050000Y-103200000D01*
X201050961Y-103190245D01*
X201053806Y-103180866D01*
X201058427Y-103172221D01*
X201064645Y-103164645D01*
X201072221Y-103158427D01*
X201080866Y-103153806D01*
X201090245Y-103150961D01*
X201100000Y-103150000D01*
X203500000Y-103150000D01*
X203509755Y-103150961D01*
G37*
G36*
X190909755Y-105750961D02*
G01*
X190919134Y-105753806D01*
X190927779Y-105758427D01*
X190935355Y-105764645D01*
X190941573Y-105772221D01*
X190946194Y-105780866D01*
X190949039Y-105790245D01*
X190950000Y-105800000D01*
X190950000Y-108200000D01*
X190949039Y-108209755D01*
X190946194Y-108219134D01*
X190941573Y-108227779D01*
X190935355Y-108235355D01*
X190927779Y-108241573D01*
X190919134Y-108246194D01*
X190909755Y-108249039D01*
X190900000Y-108250000D01*
X188500000Y-108250000D01*
X188490245Y-108249039D01*
X188480866Y-108246194D01*
X188472221Y-108241573D01*
X188464645Y-108235355D01*
X188458427Y-108227779D01*
X188453806Y-108219134D01*
X188450961Y-108209755D01*
X188450000Y-108200000D01*
X188450000Y-107750000D01*
X187850000Y-107750000D01*
X187850000Y-106250000D01*
X188450000Y-106250000D01*
X188450000Y-105800000D01*
X188450961Y-105790245D01*
X188453806Y-105780866D01*
X188458427Y-105772221D01*
X188464645Y-105764645D01*
X188472221Y-105758427D01*
X188480866Y-105753806D01*
X188490245Y-105750961D01*
X188500000Y-105750000D01*
X190900000Y-105750000D01*
X190909755Y-105750961D01*
G37*
D14*
X192890000Y-106959999D03*
D15*
X191620000Y-109500000D03*
X201780000Y-109500000D03*
D16*
X202200000Y-109500000D03*
X191200000Y-109500000D03*
D17*
X196700000Y-109500000D03*
D14*
X199240000Y-104420000D03*
X196700000Y-115400000D03*
X191700000Y-113200000D03*
D18*
X199500000Y-115400000D03*
D19*
X188600000Y-113200000D03*
D14*
X201700000Y-113200000D03*
X194160000Y-104420000D03*
X200510000Y-106960000D03*
D17*
X107000000Y-93500000D03*
X91500000Y-93500000D03*
D20*
X104320000Y-74600000D03*
X101780000Y-74600000D03*
X99240000Y-74600000D03*
X96700000Y-74600000D03*
D21*
X163700000Y-115800000D03*
X160300000Y-115800000D03*
X144600000Y-115800000D03*
X141200000Y-115800000D03*
X125600000Y-118000000D03*
X122200000Y-118000000D03*
D13*
G36*
X109550481Y-120367820D02*
G01*
X110849519Y-119617820D01*
X111749519Y-121176666D01*
X110450481Y-121926666D01*
X109550481Y-120367820D01*
G37*
G36*
X107850481Y-117423334D02*
G01*
X109149519Y-116673334D01*
X110049519Y-118232180D01*
X108750481Y-118982180D01*
X107850481Y-117423334D01*
G37*
D21*
X108700000Y-97000000D03*
X105300000Y-97000000D03*
X223600000Y-103100000D03*
X220200000Y-103100000D03*
X192300000Y-101500000D03*
X188900000Y-101500000D03*
X173200000Y-96800000D03*
X169800000Y-96800000D03*
X154200000Y-95400000D03*
X150800000Y-95400000D03*
X137000000Y-96800000D03*
X133600000Y-96800000D03*
X116100000Y-99100000D03*
X112700000Y-99100000D03*
X223500000Y-99900000D03*
X220100000Y-99900000D03*
X192300000Y-98300000D03*
X188900000Y-98300000D03*
X173200000Y-93600000D03*
X169800000Y-93600000D03*
X154200000Y-92300000D03*
X150800000Y-92300000D03*
X136000000Y-93800000D03*
X132600000Y-93800000D03*
X116100000Y-96000000D03*
X112700000Y-96000000D03*
X223500000Y-64900000D03*
X220100000Y-64900000D03*
X192300000Y-63300000D03*
X188900000Y-63300000D03*
X173200000Y-58700000D03*
X169800000Y-58700000D03*
X154300000Y-57400000D03*
X150900000Y-57400000D03*
X137000000Y-58700000D03*
X133600000Y-58700000D03*
X116100000Y-61100000D03*
X112700000Y-61100000D03*
X223500000Y-61800000D03*
X220100000Y-61800000D03*
X192300000Y-60400000D03*
X188900000Y-60400000D03*
X173200000Y-55600000D03*
X169800000Y-55600000D03*
X154200000Y-54200000D03*
X150800000Y-54200000D03*
X136000000Y-55700000D03*
X132600000Y-55700000D03*
X116100000Y-58000000D03*
X112700000Y-58000000D03*
D22*
X90000000Y-80750000D03*
X90000000Y-74250000D03*
D23*
X96700000Y-68799620D03*
X96700000Y-69800380D03*
X99200000Y-68799620D03*
X99200000Y-69800380D03*
X101700000Y-68799620D03*
X101700000Y-69800380D03*
X104300000Y-68799620D03*
X104300000Y-69800380D03*
D20*
X100579272Y-80311965D03*
X95499272Y-80311965D03*
X100579272Y-78061965D03*
X95499272Y-78061965D03*
X102700000Y-78100000D03*
X102700000Y-80300000D03*
D24*
X205800000Y-100000000D03*
X129600000Y-97600000D03*
X129600000Y-59600000D03*
D21*
X211199200Y-122072400D03*
X207799200Y-122072400D03*
D13*
G36*
X127309755Y-43650961D02*
G01*
X127319134Y-43653806D01*
X127327779Y-43658427D01*
X127335355Y-43664645D01*
X127341573Y-43672221D01*
X127346194Y-43680866D01*
X127349039Y-43690245D01*
X127350000Y-43700000D01*
X127350000Y-44150000D01*
X128050000Y-44150000D01*
X128050000Y-45650000D01*
X127350000Y-45650000D01*
X127350000Y-46100000D01*
X127349039Y-46109755D01*
X127346194Y-46119134D01*
X127341573Y-46127779D01*
X127335355Y-46135355D01*
X127327779Y-46141573D01*
X127319134Y-46146194D01*
X127309755Y-46149039D01*
X127300000Y-46150000D01*
X125400000Y-46150000D01*
X125390245Y-46149039D01*
X125380866Y-46146194D01*
X125368765Y-46139043D01*
X124868765Y-45739043D01*
X124861748Y-45732200D01*
X124856202Y-45724118D01*
X124852338Y-45715110D01*
X124850306Y-45705522D01*
X124850000Y-45700000D01*
X124850000Y-43700000D01*
X124850961Y-43690245D01*
X124853806Y-43680866D01*
X124858427Y-43672221D01*
X124864645Y-43664645D01*
X124872221Y-43658427D01*
X124880866Y-43653806D01*
X124890245Y-43650961D01*
X124900000Y-43650000D01*
X127300000Y-43650000D01*
X127309755Y-43650961D01*
G37*
G36*
X114709755Y-46250961D02*
G01*
X114719134Y-46253806D01*
X114727779Y-46258427D01*
X114735355Y-46264645D01*
X114741573Y-46272221D01*
X114746194Y-46280866D01*
X114749039Y-46290245D01*
X114750000Y-46300000D01*
X114750000Y-48700000D01*
X114749039Y-48709755D01*
X114746194Y-48719134D01*
X114741573Y-48727779D01*
X114735355Y-48735355D01*
X114727779Y-48741573D01*
X114719134Y-48746194D01*
X114709755Y-48749039D01*
X114700000Y-48750000D01*
X112300000Y-48750000D01*
X112290245Y-48749039D01*
X112280866Y-48746194D01*
X112272221Y-48741573D01*
X112264645Y-48735355D01*
X112258427Y-48727779D01*
X112253806Y-48719134D01*
X112250961Y-48709755D01*
X112250000Y-48700000D01*
X112250000Y-48250000D01*
X111650000Y-48250000D01*
X111650000Y-46750000D01*
X112250000Y-46750000D01*
X112250000Y-46300000D01*
X112250961Y-46290245D01*
X112253806Y-46280866D01*
X112258427Y-46272221D01*
X112264645Y-46264645D01*
X112272221Y-46258427D01*
X112280866Y-46253806D01*
X112290245Y-46250961D01*
X112300000Y-46250000D01*
X114700000Y-46250000D01*
X114709755Y-46250961D01*
G37*
D14*
X116690000Y-47459999D03*
D15*
X115420000Y-50000000D03*
X125580000Y-50000000D03*
D16*
X126000000Y-50000000D03*
X115000000Y-50000000D03*
D17*
X120500000Y-50000000D03*
D14*
X123040000Y-44920000D03*
X120500000Y-55900000D03*
X115500000Y-53700000D03*
D18*
X123300000Y-55900000D03*
D19*
X112400000Y-53700000D03*
D14*
X125500000Y-53700000D03*
X117960000Y-44920000D03*
X124310000Y-47460000D03*
D13*
G36*
X146309755Y-41250961D02*
G01*
X146319134Y-41253806D01*
X146327779Y-41258427D01*
X146335355Y-41264645D01*
X146341573Y-41272221D01*
X146346194Y-41280866D01*
X146349039Y-41290245D01*
X146350000Y-41300000D01*
X146350000Y-41750000D01*
X147050000Y-41750000D01*
X147050000Y-43250000D01*
X146350000Y-43250000D01*
X146350000Y-43700000D01*
X146349039Y-43709755D01*
X146346194Y-43719134D01*
X146341573Y-43727779D01*
X146335355Y-43735355D01*
X146327779Y-43741573D01*
X146319134Y-43746194D01*
X146309755Y-43749039D01*
X146300000Y-43750000D01*
X144400000Y-43750000D01*
X144390245Y-43749039D01*
X144380866Y-43746194D01*
X144368765Y-43739043D01*
X143868765Y-43339043D01*
X143861748Y-43332200D01*
X143856202Y-43324118D01*
X143852338Y-43315110D01*
X143850306Y-43305522D01*
X143850000Y-43300000D01*
X143850000Y-41300000D01*
X143850961Y-41290245D01*
X143853806Y-41280866D01*
X143858427Y-41272221D01*
X143864645Y-41264645D01*
X143872221Y-41258427D01*
X143880866Y-41253806D01*
X143890245Y-41250961D01*
X143900000Y-41250000D01*
X146300000Y-41250000D01*
X146309755Y-41250961D01*
G37*
G36*
X133709755Y-43850961D02*
G01*
X133719134Y-43853806D01*
X133727779Y-43858427D01*
X133735355Y-43864645D01*
X133741573Y-43872221D01*
X133746194Y-43880866D01*
X133749039Y-43890245D01*
X133750000Y-43900000D01*
X133750000Y-46300000D01*
X133749039Y-46309755D01*
X133746194Y-46319134D01*
X133741573Y-46327779D01*
X133735355Y-46335355D01*
X133727779Y-46341573D01*
X133719134Y-46346194D01*
X133709755Y-46349039D01*
X133700000Y-46350000D01*
X131300000Y-46350000D01*
X131290245Y-46349039D01*
X131280866Y-46346194D01*
X131272221Y-46341573D01*
X131264645Y-46335355D01*
X131258427Y-46327779D01*
X131253806Y-46319134D01*
X131250961Y-46309755D01*
X131250000Y-46300000D01*
X131250000Y-45850000D01*
X130650000Y-45850000D01*
X130650000Y-44350000D01*
X131250000Y-44350000D01*
X131250000Y-43900000D01*
X131250961Y-43890245D01*
X131253806Y-43880866D01*
X131258427Y-43872221D01*
X131264645Y-43864645D01*
X131272221Y-43858427D01*
X131280866Y-43853806D01*
X131290245Y-43850961D01*
X131300000Y-43850000D01*
X133700000Y-43850000D01*
X133709755Y-43850961D01*
G37*
D14*
X135690000Y-45059999D03*
D15*
X134420000Y-47600000D03*
X144580000Y-47600000D03*
D16*
X145000000Y-47600000D03*
X134000000Y-47600000D03*
D17*
X139500000Y-47600000D03*
D14*
X142040000Y-42520000D03*
X139500000Y-53500000D03*
X134500000Y-51300000D03*
D18*
X142300000Y-53500000D03*
D19*
X131400000Y-51300000D03*
D14*
X144500000Y-51300000D03*
X136960000Y-42520000D03*
X143310000Y-45060000D03*
D13*
G36*
X165409755Y-39860961D02*
G01*
X165419134Y-39863806D01*
X165427779Y-39868427D01*
X165435355Y-39874645D01*
X165441573Y-39882221D01*
X165446194Y-39890866D01*
X165449039Y-39900245D01*
X165450000Y-39910000D01*
X165450000Y-40360000D01*
X166150000Y-40360000D01*
X166150000Y-41860000D01*
X165450000Y-41860000D01*
X165450000Y-42310000D01*
X165449039Y-42319755D01*
X165446194Y-42329134D01*
X165441573Y-42337779D01*
X165435355Y-42345355D01*
X165427779Y-42351573D01*
X165419134Y-42356194D01*
X165409755Y-42359039D01*
X165400000Y-42360000D01*
X163500000Y-42360000D01*
X163490245Y-42359039D01*
X163480866Y-42356194D01*
X163468765Y-42349043D01*
X162968765Y-41949043D01*
X162961748Y-41942200D01*
X162956202Y-41934118D01*
X162952338Y-41925110D01*
X162950306Y-41915522D01*
X162950000Y-41910000D01*
X162950000Y-39910000D01*
X162950961Y-39900245D01*
X162953806Y-39890866D01*
X162958427Y-39882221D01*
X162964645Y-39874645D01*
X162972221Y-39868427D01*
X162980866Y-39863806D01*
X162990245Y-39860961D01*
X163000000Y-39860000D01*
X165400000Y-39860000D01*
X165409755Y-39860961D01*
G37*
G36*
X152809755Y-42460961D02*
G01*
X152819134Y-42463806D01*
X152827779Y-42468427D01*
X152835355Y-42474645D01*
X152841573Y-42482221D01*
X152846194Y-42490866D01*
X152849039Y-42500245D01*
X152850000Y-42510000D01*
X152850000Y-44910000D01*
X152849039Y-44919755D01*
X152846194Y-44929134D01*
X152841573Y-44937779D01*
X152835355Y-44945355D01*
X152827779Y-44951573D01*
X152819134Y-44956194D01*
X152809755Y-44959039D01*
X152800000Y-44960000D01*
X150400000Y-44960000D01*
X150390245Y-44959039D01*
X150380866Y-44956194D01*
X150372221Y-44951573D01*
X150364645Y-44945355D01*
X150358427Y-44937779D01*
X150353806Y-44929134D01*
X150350961Y-44919755D01*
X150350000Y-44910000D01*
X150350000Y-44460000D01*
X149750000Y-44460000D01*
X149750000Y-42960000D01*
X150350000Y-42960000D01*
X150350000Y-42510000D01*
X150350961Y-42500245D01*
X150353806Y-42490866D01*
X150358427Y-42482221D01*
X150364645Y-42474645D01*
X150372221Y-42468427D01*
X150380866Y-42463806D01*
X150390245Y-42460961D01*
X150400000Y-42460000D01*
X152800000Y-42460000D01*
X152809755Y-42460961D01*
G37*
D14*
X154790000Y-43669999D03*
D15*
X153520000Y-46210000D03*
X163680000Y-46210000D03*
D16*
X164100000Y-46210000D03*
X153100000Y-46210000D03*
D17*
X158600000Y-46210000D03*
D14*
X161140000Y-41130000D03*
X158600000Y-52110000D03*
X153600000Y-49910000D03*
D18*
X161400000Y-52110000D03*
D19*
X150500000Y-49910000D03*
D14*
X163600000Y-49910000D03*
X156060000Y-41130000D03*
X162410000Y-43670000D03*
D13*
G36*
X184409755Y-41250961D02*
G01*
X184419134Y-41253806D01*
X184427779Y-41258427D01*
X184435355Y-41264645D01*
X184441573Y-41272221D01*
X184446194Y-41280866D01*
X184449039Y-41290245D01*
X184450000Y-41300000D01*
X184450000Y-41750000D01*
X185150000Y-41750000D01*
X185150000Y-43250000D01*
X184450000Y-43250000D01*
X184450000Y-43700000D01*
X184449039Y-43709755D01*
X184446194Y-43719134D01*
X184441573Y-43727779D01*
X184435355Y-43735355D01*
X184427779Y-43741573D01*
X184419134Y-43746194D01*
X184409755Y-43749039D01*
X184400000Y-43750000D01*
X182500000Y-43750000D01*
X182490245Y-43749039D01*
X182480866Y-43746194D01*
X182468765Y-43739043D01*
X181968765Y-43339043D01*
X181961748Y-43332200D01*
X181956202Y-43324118D01*
X181952338Y-43315110D01*
X181950306Y-43305522D01*
X181950000Y-43300000D01*
X181950000Y-41300000D01*
X181950961Y-41290245D01*
X181953806Y-41280866D01*
X181958427Y-41272221D01*
X181964645Y-41264645D01*
X181972221Y-41258427D01*
X181980866Y-41253806D01*
X181990245Y-41250961D01*
X182000000Y-41250000D01*
X184400000Y-41250000D01*
X184409755Y-41250961D01*
G37*
G36*
X171809755Y-43850961D02*
G01*
X171819134Y-43853806D01*
X171827779Y-43858427D01*
X171835355Y-43864645D01*
X171841573Y-43872221D01*
X171846194Y-43880866D01*
X171849039Y-43890245D01*
X171850000Y-43900000D01*
X171850000Y-46300000D01*
X171849039Y-46309755D01*
X171846194Y-46319134D01*
X171841573Y-46327779D01*
X171835355Y-46335355D01*
X171827779Y-46341573D01*
X171819134Y-46346194D01*
X171809755Y-46349039D01*
X171800000Y-46350000D01*
X169400000Y-46350000D01*
X169390245Y-46349039D01*
X169380866Y-46346194D01*
X169372221Y-46341573D01*
X169364645Y-46335355D01*
X169358427Y-46327779D01*
X169353806Y-46319134D01*
X169350961Y-46309755D01*
X169350000Y-46300000D01*
X169350000Y-45850000D01*
X168750000Y-45850000D01*
X168750000Y-44350000D01*
X169350000Y-44350000D01*
X169350000Y-43900000D01*
X169350961Y-43890245D01*
X169353806Y-43880866D01*
X169358427Y-43872221D01*
X169364645Y-43864645D01*
X169372221Y-43858427D01*
X169380866Y-43853806D01*
X169390245Y-43850961D01*
X169400000Y-43850000D01*
X171800000Y-43850000D01*
X171809755Y-43850961D01*
G37*
D14*
X173790000Y-45059999D03*
D15*
X172520000Y-47600000D03*
X182680000Y-47600000D03*
D16*
X183100000Y-47600000D03*
X172100000Y-47600000D03*
D17*
X177600000Y-47600000D03*
D14*
X180140000Y-42520000D03*
X177600000Y-53500000D03*
X172600000Y-51300000D03*
D18*
X180400000Y-53500000D03*
D19*
X169500000Y-51300000D03*
D14*
X182600000Y-51300000D03*
X175060000Y-42520000D03*
X181410000Y-45060000D03*
D13*
G36*
X203509755Y-46050961D02*
G01*
X203519134Y-46053806D01*
X203527779Y-46058427D01*
X203535355Y-46064645D01*
X203541573Y-46072221D01*
X203546194Y-46080866D01*
X203549039Y-46090245D01*
X203550000Y-46100000D01*
X203550000Y-46550000D01*
X204250000Y-46550000D01*
X204250000Y-48050000D01*
X203550000Y-48050000D01*
X203550000Y-48500000D01*
X203549039Y-48509755D01*
X203546194Y-48519134D01*
X203541573Y-48527779D01*
X203535355Y-48535355D01*
X203527779Y-48541573D01*
X203519134Y-48546194D01*
X203509755Y-48549039D01*
X203500000Y-48550000D01*
X201600000Y-48550000D01*
X201590245Y-48549039D01*
X201580866Y-48546194D01*
X201568765Y-48539043D01*
X201068765Y-48139043D01*
X201061748Y-48132200D01*
X201056202Y-48124118D01*
X201052338Y-48115110D01*
X201050306Y-48105522D01*
X201050000Y-48100000D01*
X201050000Y-46100000D01*
X201050961Y-46090245D01*
X201053806Y-46080866D01*
X201058427Y-46072221D01*
X201064645Y-46064645D01*
X201072221Y-46058427D01*
X201080866Y-46053806D01*
X201090245Y-46050961D01*
X201100000Y-46050000D01*
X203500000Y-46050000D01*
X203509755Y-46050961D01*
G37*
G36*
X190909755Y-48650961D02*
G01*
X190919134Y-48653806D01*
X190927779Y-48658427D01*
X190935355Y-48664645D01*
X190941573Y-48672221D01*
X190946194Y-48680866D01*
X190949039Y-48690245D01*
X190950000Y-48700000D01*
X190950000Y-51100000D01*
X190949039Y-51109755D01*
X190946194Y-51119134D01*
X190941573Y-51127779D01*
X190935355Y-51135355D01*
X190927779Y-51141573D01*
X190919134Y-51146194D01*
X190909755Y-51149039D01*
X190900000Y-51150000D01*
X188500000Y-51150000D01*
X188490245Y-51149039D01*
X188480866Y-51146194D01*
X188472221Y-51141573D01*
X188464645Y-51135355D01*
X188458427Y-51127779D01*
X188453806Y-51119134D01*
X188450961Y-51109755D01*
X188450000Y-51100000D01*
X188450000Y-50650000D01*
X187850000Y-50650000D01*
X187850000Y-49150000D01*
X188450000Y-49150000D01*
X188450000Y-48700000D01*
X188450961Y-48690245D01*
X188453806Y-48680866D01*
X188458427Y-48672221D01*
X188464645Y-48664645D01*
X188472221Y-48658427D01*
X188480866Y-48653806D01*
X188490245Y-48650961D01*
X188500000Y-48650000D01*
X190900000Y-48650000D01*
X190909755Y-48650961D01*
G37*
D14*
X192890000Y-49859999D03*
D15*
X191620000Y-52400000D03*
X201780000Y-52400000D03*
D16*
X202200000Y-52400000D03*
X191200000Y-52400000D03*
D17*
X196700000Y-52400000D03*
D14*
X199240000Y-47320000D03*
X196700000Y-58300000D03*
X191700000Y-56100000D03*
D18*
X199500000Y-58300000D03*
D19*
X188600000Y-56100000D03*
D14*
X201700000Y-56100000D03*
X194160000Y-47320000D03*
X200510000Y-49860000D03*
D13*
G36*
X222509755Y-47550961D02*
G01*
X222519134Y-47553806D01*
X222527779Y-47558427D01*
X222535355Y-47564645D01*
X222541573Y-47572221D01*
X222546194Y-47580866D01*
X222549039Y-47590245D01*
X222550000Y-47600000D01*
X222550000Y-48050000D01*
X223250000Y-48050000D01*
X223250000Y-49550000D01*
X222550000Y-49550000D01*
X222550000Y-50000000D01*
X222549039Y-50009755D01*
X222546194Y-50019134D01*
X222541573Y-50027779D01*
X222535355Y-50035355D01*
X222527779Y-50041573D01*
X222519134Y-50046194D01*
X222509755Y-50049039D01*
X222500000Y-50050000D01*
X220600000Y-50050000D01*
X220590245Y-50049039D01*
X220580866Y-50046194D01*
X220568765Y-50039043D01*
X220068765Y-49639043D01*
X220061748Y-49632200D01*
X220056202Y-49624118D01*
X220052338Y-49615110D01*
X220050306Y-49605522D01*
X220050000Y-49600000D01*
X220050000Y-47600000D01*
X220050961Y-47590245D01*
X220053806Y-47580866D01*
X220058427Y-47572221D01*
X220064645Y-47564645D01*
X220072221Y-47558427D01*
X220080866Y-47553806D01*
X220090245Y-47550961D01*
X220100000Y-47550000D01*
X222500000Y-47550000D01*
X222509755Y-47550961D01*
G37*
G36*
X209909755Y-50150961D02*
G01*
X209919134Y-50153806D01*
X209927779Y-50158427D01*
X209935355Y-50164645D01*
X209941573Y-50172221D01*
X209946194Y-50180866D01*
X209949039Y-50190245D01*
X209950000Y-50200000D01*
X209950000Y-52600000D01*
X209949039Y-52609755D01*
X209946194Y-52619134D01*
X209941573Y-52627779D01*
X209935355Y-52635355D01*
X209927779Y-52641573D01*
X209919134Y-52646194D01*
X209909755Y-52649039D01*
X209900000Y-52650000D01*
X207500000Y-52650000D01*
X207490245Y-52649039D01*
X207480866Y-52646194D01*
X207472221Y-52641573D01*
X207464645Y-52635355D01*
X207458427Y-52627779D01*
X207453806Y-52619134D01*
X207450961Y-52609755D01*
X207450000Y-52600000D01*
X207450000Y-52150000D01*
X206850000Y-52150000D01*
X206850000Y-50650000D01*
X207450000Y-50650000D01*
X207450000Y-50200000D01*
X207450961Y-50190245D01*
X207453806Y-50180866D01*
X207458427Y-50172221D01*
X207464645Y-50164645D01*
X207472221Y-50158427D01*
X207480866Y-50153806D01*
X207490245Y-50150961D01*
X207500000Y-50150000D01*
X209900000Y-50150000D01*
X209909755Y-50150961D01*
G37*
D14*
X211890000Y-51359999D03*
D15*
X210620000Y-53900000D03*
X220780000Y-53900000D03*
D16*
X221200000Y-53900000D03*
X210200000Y-53900000D03*
D17*
X215700000Y-53900000D03*
D14*
X218240000Y-48820000D03*
X215700000Y-59800000D03*
X210700000Y-57600000D03*
D18*
X218500000Y-59800000D03*
D19*
X207600000Y-57600000D03*
D14*
X220700000Y-57600000D03*
X213160000Y-48820000D03*
X219510000Y-51360000D03*
D13*
G36*
X127309755Y-62750961D02*
G01*
X127319134Y-62753806D01*
X127327779Y-62758427D01*
X127335355Y-62764645D01*
X127341573Y-62772221D01*
X127346194Y-62780866D01*
X127349039Y-62790245D01*
X127350000Y-62800000D01*
X127350000Y-63250000D01*
X128050000Y-63250000D01*
X128050000Y-64750000D01*
X127350000Y-64750000D01*
X127350000Y-65200000D01*
X127349039Y-65209755D01*
X127346194Y-65219134D01*
X127341573Y-65227779D01*
X127335355Y-65235355D01*
X127327779Y-65241573D01*
X127319134Y-65246194D01*
X127309755Y-65249039D01*
X127300000Y-65250000D01*
X125400000Y-65250000D01*
X125390245Y-65249039D01*
X125380866Y-65246194D01*
X125368765Y-65239043D01*
X124868765Y-64839043D01*
X124861748Y-64832200D01*
X124856202Y-64824118D01*
X124852338Y-64815110D01*
X124850306Y-64805522D01*
X124850000Y-64800000D01*
X124850000Y-62800000D01*
X124850961Y-62790245D01*
X124853806Y-62780866D01*
X124858427Y-62772221D01*
X124864645Y-62764645D01*
X124872221Y-62758427D01*
X124880866Y-62753806D01*
X124890245Y-62750961D01*
X124900000Y-62750000D01*
X127300000Y-62750000D01*
X127309755Y-62750961D01*
G37*
G36*
X114709755Y-65350961D02*
G01*
X114719134Y-65353806D01*
X114727779Y-65358427D01*
X114735355Y-65364645D01*
X114741573Y-65372221D01*
X114746194Y-65380866D01*
X114749039Y-65390245D01*
X114750000Y-65400000D01*
X114750000Y-67800000D01*
X114749039Y-67809755D01*
X114746194Y-67819134D01*
X114741573Y-67827779D01*
X114735355Y-67835355D01*
X114727779Y-67841573D01*
X114719134Y-67846194D01*
X114709755Y-67849039D01*
X114700000Y-67850000D01*
X112300000Y-67850000D01*
X112290245Y-67849039D01*
X112280866Y-67846194D01*
X112272221Y-67841573D01*
X112264645Y-67835355D01*
X112258427Y-67827779D01*
X112253806Y-67819134D01*
X112250961Y-67809755D01*
X112250000Y-67800000D01*
X112250000Y-67350000D01*
X111650000Y-67350000D01*
X111650000Y-65850000D01*
X112250000Y-65850000D01*
X112250000Y-65400000D01*
X112250961Y-65390245D01*
X112253806Y-65380866D01*
X112258427Y-65372221D01*
X112264645Y-65364645D01*
X112272221Y-65358427D01*
X112280866Y-65353806D01*
X112290245Y-65350961D01*
X112300000Y-65350000D01*
X114700000Y-65350000D01*
X114709755Y-65350961D01*
G37*
D14*
X116690000Y-66559999D03*
D15*
X115420000Y-69100000D03*
X125580000Y-69100000D03*
D16*
X126000000Y-69100000D03*
X115000000Y-69100000D03*
D17*
X120500000Y-69100000D03*
D14*
X123040000Y-64020000D03*
X120500000Y-75000000D03*
X115500000Y-72800000D03*
D18*
X123300000Y-75000000D03*
D19*
X112400000Y-72800000D03*
D14*
X125500000Y-72800000D03*
X117960000Y-64020000D03*
X124310000Y-66560000D03*
D13*
G36*
X146309755Y-60350961D02*
G01*
X146319134Y-60353806D01*
X146327779Y-60358427D01*
X146335355Y-60364645D01*
X146341573Y-60372221D01*
X146346194Y-60380866D01*
X146349039Y-60390245D01*
X146350000Y-60400000D01*
X146350000Y-60850000D01*
X147050000Y-60850000D01*
X147050000Y-62350000D01*
X146350000Y-62350000D01*
X146350000Y-62800000D01*
X146349039Y-62809755D01*
X146346194Y-62819134D01*
X146341573Y-62827779D01*
X146335355Y-62835355D01*
X146327779Y-62841573D01*
X146319134Y-62846194D01*
X146309755Y-62849039D01*
X146300000Y-62850000D01*
X144400000Y-62850000D01*
X144390245Y-62849039D01*
X144380866Y-62846194D01*
X144368765Y-62839043D01*
X143868765Y-62439043D01*
X143861748Y-62432200D01*
X143856202Y-62424118D01*
X143852338Y-62415110D01*
X143850306Y-62405522D01*
X143850000Y-62400000D01*
X143850000Y-60400000D01*
X143850961Y-60390245D01*
X143853806Y-60380866D01*
X143858427Y-60372221D01*
X143864645Y-60364645D01*
X143872221Y-60358427D01*
X143880866Y-60353806D01*
X143890245Y-60350961D01*
X143900000Y-60350000D01*
X146300000Y-60350000D01*
X146309755Y-60350961D01*
G37*
G36*
X133709755Y-62950961D02*
G01*
X133719134Y-62953806D01*
X133727779Y-62958427D01*
X133735355Y-62964645D01*
X133741573Y-62972221D01*
X133746194Y-62980866D01*
X133749039Y-62990245D01*
X133750000Y-63000000D01*
X133750000Y-65400000D01*
X133749039Y-65409755D01*
X133746194Y-65419134D01*
X133741573Y-65427779D01*
X133735355Y-65435355D01*
X133727779Y-65441573D01*
X133719134Y-65446194D01*
X133709755Y-65449039D01*
X133700000Y-65450000D01*
X131300000Y-65450000D01*
X131290245Y-65449039D01*
X131280866Y-65446194D01*
X131272221Y-65441573D01*
X131264645Y-65435355D01*
X131258427Y-65427779D01*
X131253806Y-65419134D01*
X131250961Y-65409755D01*
X131250000Y-65400000D01*
X131250000Y-64950000D01*
X130650000Y-64950000D01*
X130650000Y-63450000D01*
X131250000Y-63450000D01*
X131250000Y-63000000D01*
X131250961Y-62990245D01*
X131253806Y-62980866D01*
X131258427Y-62972221D01*
X131264645Y-62964645D01*
X131272221Y-62958427D01*
X131280866Y-62953806D01*
X131290245Y-62950961D01*
X131300000Y-62950000D01*
X133700000Y-62950000D01*
X133709755Y-62950961D01*
G37*
D14*
X135690000Y-64159999D03*
D15*
X134420000Y-66700000D03*
X144580000Y-66700000D03*
D16*
X145000000Y-66700000D03*
X134000000Y-66700000D03*
D17*
X139500000Y-66700000D03*
D14*
X142040000Y-61620000D03*
X139500000Y-72600000D03*
X134500000Y-70400000D03*
D18*
X142300000Y-72600000D03*
D19*
X131400000Y-70400000D03*
D14*
X144500000Y-70400000D03*
X136960000Y-61620000D03*
X143310000Y-64160000D03*
D13*
G36*
X165409755Y-58950961D02*
G01*
X165419134Y-58953806D01*
X165427779Y-58958427D01*
X165435355Y-58964645D01*
X165441573Y-58972221D01*
X165446194Y-58980866D01*
X165449039Y-58990245D01*
X165450000Y-59000000D01*
X165450000Y-59450000D01*
X166150000Y-59450000D01*
X166150000Y-60950000D01*
X165450000Y-60950000D01*
X165450000Y-61400000D01*
X165449039Y-61409755D01*
X165446194Y-61419134D01*
X165441573Y-61427779D01*
X165435355Y-61435355D01*
X165427779Y-61441573D01*
X165419134Y-61446194D01*
X165409755Y-61449039D01*
X165400000Y-61450000D01*
X163500000Y-61450000D01*
X163490245Y-61449039D01*
X163480866Y-61446194D01*
X163468765Y-61439043D01*
X162968765Y-61039043D01*
X162961748Y-61032200D01*
X162956202Y-61024118D01*
X162952338Y-61015110D01*
X162950306Y-61005522D01*
X162950000Y-61000000D01*
X162950000Y-59000000D01*
X162950961Y-58990245D01*
X162953806Y-58980866D01*
X162958427Y-58972221D01*
X162964645Y-58964645D01*
X162972221Y-58958427D01*
X162980866Y-58953806D01*
X162990245Y-58950961D01*
X163000000Y-58950000D01*
X165400000Y-58950000D01*
X165409755Y-58950961D01*
G37*
G36*
X152809755Y-61550961D02*
G01*
X152819134Y-61553806D01*
X152827779Y-61558427D01*
X152835355Y-61564645D01*
X152841573Y-61572221D01*
X152846194Y-61580866D01*
X152849039Y-61590245D01*
X152850000Y-61600000D01*
X152850000Y-64000000D01*
X152849039Y-64009755D01*
X152846194Y-64019134D01*
X152841573Y-64027779D01*
X152835355Y-64035355D01*
X152827779Y-64041573D01*
X152819134Y-64046194D01*
X152809755Y-64049039D01*
X152800000Y-64050000D01*
X150400000Y-64050000D01*
X150390245Y-64049039D01*
X150380866Y-64046194D01*
X150372221Y-64041573D01*
X150364645Y-64035355D01*
X150358427Y-64027779D01*
X150353806Y-64019134D01*
X150350961Y-64009755D01*
X150350000Y-64000000D01*
X150350000Y-63550000D01*
X149750000Y-63550000D01*
X149750000Y-62050000D01*
X150350000Y-62050000D01*
X150350000Y-61600000D01*
X150350961Y-61590245D01*
X150353806Y-61580866D01*
X150358427Y-61572221D01*
X150364645Y-61564645D01*
X150372221Y-61558427D01*
X150380866Y-61553806D01*
X150390245Y-61550961D01*
X150400000Y-61550000D01*
X152800000Y-61550000D01*
X152809755Y-61550961D01*
G37*
D14*
X154790000Y-62759999D03*
D15*
X153520000Y-65300000D03*
X163680000Y-65300000D03*
D16*
X164100000Y-65300000D03*
X153100000Y-65300000D03*
D17*
X158600000Y-65300000D03*
D14*
X161140000Y-60220000D03*
X158600000Y-71200000D03*
X153600000Y-69000000D03*
D18*
X161400000Y-71200000D03*
D19*
X150500000Y-69000000D03*
D14*
X163600000Y-69000000D03*
X156060000Y-60220000D03*
X162410000Y-62760000D03*
D13*
G36*
X184409755Y-60250961D02*
G01*
X184419134Y-60253806D01*
X184427779Y-60258427D01*
X184435355Y-60264645D01*
X184441573Y-60272221D01*
X184446194Y-60280866D01*
X184449039Y-60290245D01*
X184450000Y-60300000D01*
X184450000Y-60750000D01*
X185150000Y-60750000D01*
X185150000Y-62250000D01*
X184450000Y-62250000D01*
X184450000Y-62700000D01*
X184449039Y-62709755D01*
X184446194Y-62719134D01*
X184441573Y-62727779D01*
X184435355Y-62735355D01*
X184427779Y-62741573D01*
X184419134Y-62746194D01*
X184409755Y-62749039D01*
X184400000Y-62750000D01*
X182500000Y-62750000D01*
X182490245Y-62749039D01*
X182480866Y-62746194D01*
X182468765Y-62739043D01*
X181968765Y-62339043D01*
X181961748Y-62332200D01*
X181956202Y-62324118D01*
X181952338Y-62315110D01*
X181950306Y-62305522D01*
X181950000Y-62300000D01*
X181950000Y-60300000D01*
X181950961Y-60290245D01*
X181953806Y-60280866D01*
X181958427Y-60272221D01*
X181964645Y-60264645D01*
X181972221Y-60258427D01*
X181980866Y-60253806D01*
X181990245Y-60250961D01*
X182000000Y-60250000D01*
X184400000Y-60250000D01*
X184409755Y-60250961D01*
G37*
G36*
X171809755Y-62850961D02*
G01*
X171819134Y-62853806D01*
X171827779Y-62858427D01*
X171835355Y-62864645D01*
X171841573Y-62872221D01*
X171846194Y-62880866D01*
X171849039Y-62890245D01*
X171850000Y-62900000D01*
X171850000Y-65300000D01*
X171849039Y-65309755D01*
X171846194Y-65319134D01*
X171841573Y-65327779D01*
X171835355Y-65335355D01*
X171827779Y-65341573D01*
X171819134Y-65346194D01*
X171809755Y-65349039D01*
X171800000Y-65350000D01*
X169400000Y-65350000D01*
X169390245Y-65349039D01*
X169380866Y-65346194D01*
X169372221Y-65341573D01*
X169364645Y-65335355D01*
X169358427Y-65327779D01*
X169353806Y-65319134D01*
X169350961Y-65309755D01*
X169350000Y-65300000D01*
X169350000Y-64850000D01*
X168750000Y-64850000D01*
X168750000Y-63350000D01*
X169350000Y-63350000D01*
X169350000Y-62900000D01*
X169350961Y-62890245D01*
X169353806Y-62880866D01*
X169358427Y-62872221D01*
X169364645Y-62864645D01*
X169372221Y-62858427D01*
X169380866Y-62853806D01*
X169390245Y-62850961D01*
X169400000Y-62850000D01*
X171800000Y-62850000D01*
X171809755Y-62850961D01*
G37*
D14*
X173790000Y-64059999D03*
D15*
X172520000Y-66600000D03*
X182680000Y-66600000D03*
D16*
X183100000Y-66600000D03*
X172100000Y-66600000D03*
D17*
X177600000Y-66600000D03*
D14*
X180140000Y-61520000D03*
X177600000Y-72500000D03*
X172600000Y-70300000D03*
D18*
X180400000Y-72500000D03*
D19*
X169500000Y-70300000D03*
D14*
X182600000Y-70300000D03*
X175060000Y-61520000D03*
X181410000Y-64060000D03*
D13*
G36*
X203509755Y-64950961D02*
G01*
X203519134Y-64953806D01*
X203527779Y-64958427D01*
X203535355Y-64964645D01*
X203541573Y-64972221D01*
X203546194Y-64980866D01*
X203549039Y-64990245D01*
X203550000Y-65000000D01*
X203550000Y-65450000D01*
X204250000Y-65450000D01*
X204250000Y-66950000D01*
X203550000Y-66950000D01*
X203550000Y-67400000D01*
X203549039Y-67409755D01*
X203546194Y-67419134D01*
X203541573Y-67427779D01*
X203535355Y-67435355D01*
X203527779Y-67441573D01*
X203519134Y-67446194D01*
X203509755Y-67449039D01*
X203500000Y-67450000D01*
X201600000Y-67450000D01*
X201590245Y-67449039D01*
X201580866Y-67446194D01*
X201568765Y-67439043D01*
X201068765Y-67039043D01*
X201061748Y-67032200D01*
X201056202Y-67024118D01*
X201052338Y-67015110D01*
X201050306Y-67005522D01*
X201050000Y-67000000D01*
X201050000Y-65000000D01*
X201050961Y-64990245D01*
X201053806Y-64980866D01*
X201058427Y-64972221D01*
X201064645Y-64964645D01*
X201072221Y-64958427D01*
X201080866Y-64953806D01*
X201090245Y-64950961D01*
X201100000Y-64950000D01*
X203500000Y-64950000D01*
X203509755Y-64950961D01*
G37*
G36*
X190909755Y-67550961D02*
G01*
X190919134Y-67553806D01*
X190927779Y-67558427D01*
X190935355Y-67564645D01*
X190941573Y-67572221D01*
X190946194Y-67580866D01*
X190949039Y-67590245D01*
X190950000Y-67600000D01*
X190950000Y-70000000D01*
X190949039Y-70009755D01*
X190946194Y-70019134D01*
X190941573Y-70027779D01*
X190935355Y-70035355D01*
X190927779Y-70041573D01*
X190919134Y-70046194D01*
X190909755Y-70049039D01*
X190900000Y-70050000D01*
X188500000Y-70050000D01*
X188490245Y-70049039D01*
X188480866Y-70046194D01*
X188472221Y-70041573D01*
X188464645Y-70035355D01*
X188458427Y-70027779D01*
X188453806Y-70019134D01*
X188450961Y-70009755D01*
X188450000Y-70000000D01*
X188450000Y-69550000D01*
X187850000Y-69550000D01*
X187850000Y-68050000D01*
X188450000Y-68050000D01*
X188450000Y-67600000D01*
X188450961Y-67590245D01*
X188453806Y-67580866D01*
X188458427Y-67572221D01*
X188464645Y-67564645D01*
X188472221Y-67558427D01*
X188480866Y-67553806D01*
X188490245Y-67550961D01*
X188500000Y-67550000D01*
X190900000Y-67550000D01*
X190909755Y-67550961D01*
G37*
D14*
X192890000Y-68759999D03*
D15*
X191620000Y-71300000D03*
X201780000Y-71300000D03*
D16*
X202200000Y-71300000D03*
X191200000Y-71300000D03*
D17*
X196700000Y-71300000D03*
D14*
X199240000Y-66220000D03*
X196700000Y-77200000D03*
X191700000Y-75000000D03*
D18*
X199500000Y-77200000D03*
D19*
X188600000Y-75000000D03*
D14*
X201700000Y-75000000D03*
X194160000Y-66220000D03*
X200510000Y-68760000D03*
D13*
G36*
X222509755Y-66450961D02*
G01*
X222519134Y-66453806D01*
X222527779Y-66458427D01*
X222535355Y-66464645D01*
X222541573Y-66472221D01*
X222546194Y-66480866D01*
X222549039Y-66490245D01*
X222550000Y-66500000D01*
X222550000Y-66950000D01*
X223250000Y-66950000D01*
X223250000Y-68450000D01*
X222550000Y-68450000D01*
X222550000Y-68900000D01*
X222549039Y-68909755D01*
X222546194Y-68919134D01*
X222541573Y-68927779D01*
X222535355Y-68935355D01*
X222527779Y-68941573D01*
X222519134Y-68946194D01*
X222509755Y-68949039D01*
X222500000Y-68950000D01*
X220600000Y-68950000D01*
X220590245Y-68949039D01*
X220580866Y-68946194D01*
X220568765Y-68939043D01*
X220068765Y-68539043D01*
X220061748Y-68532200D01*
X220056202Y-68524118D01*
X220052338Y-68515110D01*
X220050306Y-68505522D01*
X220050000Y-68500000D01*
X220050000Y-66500000D01*
X220050961Y-66490245D01*
X220053806Y-66480866D01*
X220058427Y-66472221D01*
X220064645Y-66464645D01*
X220072221Y-66458427D01*
X220080866Y-66453806D01*
X220090245Y-66450961D01*
X220100000Y-66450000D01*
X222500000Y-66450000D01*
X222509755Y-66450961D01*
G37*
G36*
X209909755Y-69050961D02*
G01*
X209919134Y-69053806D01*
X209927779Y-69058427D01*
X209935355Y-69064645D01*
X209941573Y-69072221D01*
X209946194Y-69080866D01*
X209949039Y-69090245D01*
X209950000Y-69100000D01*
X209950000Y-71500000D01*
X209949039Y-71509755D01*
X209946194Y-71519134D01*
X209941573Y-71527779D01*
X209935355Y-71535355D01*
X209927779Y-71541573D01*
X209919134Y-71546194D01*
X209909755Y-71549039D01*
X209900000Y-71550000D01*
X207500000Y-71550000D01*
X207490245Y-71549039D01*
X207480866Y-71546194D01*
X207472221Y-71541573D01*
X207464645Y-71535355D01*
X207458427Y-71527779D01*
X207453806Y-71519134D01*
X207450961Y-71509755D01*
X207450000Y-71500000D01*
X207450000Y-71050000D01*
X206850000Y-71050000D01*
X206850000Y-69550000D01*
X207450000Y-69550000D01*
X207450000Y-69100000D01*
X207450961Y-69090245D01*
X207453806Y-69080866D01*
X207458427Y-69072221D01*
X207464645Y-69064645D01*
X207472221Y-69058427D01*
X207480866Y-69053806D01*
X207490245Y-69050961D01*
X207500000Y-69050000D01*
X209900000Y-69050000D01*
X209909755Y-69050961D01*
G37*
D14*
X211890000Y-70259999D03*
D15*
X210620000Y-72800000D03*
X220780000Y-72800000D03*
D16*
X221200000Y-72800000D03*
X210200000Y-72800000D03*
D17*
X215700000Y-72800000D03*
D14*
X218240000Y-67720000D03*
X215700000Y-78700000D03*
X210700000Y-76500000D03*
D18*
X218500000Y-78700000D03*
D19*
X207600000Y-76500000D03*
D14*
X220700000Y-76500000D03*
X213160000Y-67720000D03*
X219510000Y-70260000D03*
D13*
G36*
X127309755Y-81750961D02*
G01*
X127319134Y-81753806D01*
X127327779Y-81758427D01*
X127335355Y-81764645D01*
X127341573Y-81772221D01*
X127346194Y-81780866D01*
X127349039Y-81790245D01*
X127350000Y-81800000D01*
X127350000Y-82250000D01*
X128050000Y-82250000D01*
X128050000Y-83750000D01*
X127350000Y-83750000D01*
X127350000Y-84200000D01*
X127349039Y-84209755D01*
X127346194Y-84219134D01*
X127341573Y-84227779D01*
X127335355Y-84235355D01*
X127327779Y-84241573D01*
X127319134Y-84246194D01*
X127309755Y-84249039D01*
X127300000Y-84250000D01*
X125400000Y-84250000D01*
X125390245Y-84249039D01*
X125380866Y-84246194D01*
X125368765Y-84239043D01*
X124868765Y-83839043D01*
X124861748Y-83832200D01*
X124856202Y-83824118D01*
X124852338Y-83815110D01*
X124850306Y-83805522D01*
X124850000Y-83800000D01*
X124850000Y-81800000D01*
X124850961Y-81790245D01*
X124853806Y-81780866D01*
X124858427Y-81772221D01*
X124864645Y-81764645D01*
X124872221Y-81758427D01*
X124880866Y-81753806D01*
X124890245Y-81750961D01*
X124900000Y-81750000D01*
X127300000Y-81750000D01*
X127309755Y-81750961D01*
G37*
G36*
X114709755Y-84350961D02*
G01*
X114719134Y-84353806D01*
X114727779Y-84358427D01*
X114735355Y-84364645D01*
X114741573Y-84372221D01*
X114746194Y-84380866D01*
X114749039Y-84390245D01*
X114750000Y-84400000D01*
X114750000Y-86800000D01*
X114749039Y-86809755D01*
X114746194Y-86819134D01*
X114741573Y-86827779D01*
X114735355Y-86835355D01*
X114727779Y-86841573D01*
X114719134Y-86846194D01*
X114709755Y-86849039D01*
X114700000Y-86850000D01*
X112300000Y-86850000D01*
X112290245Y-86849039D01*
X112280866Y-86846194D01*
X112272221Y-86841573D01*
X112264645Y-86835355D01*
X112258427Y-86827779D01*
X112253806Y-86819134D01*
X112250961Y-86809755D01*
X112250000Y-86800000D01*
X112250000Y-86350000D01*
X111650000Y-86350000D01*
X111650000Y-84850000D01*
X112250000Y-84850000D01*
X112250000Y-84400000D01*
X112250961Y-84390245D01*
X112253806Y-84380866D01*
X112258427Y-84372221D01*
X112264645Y-84364645D01*
X112272221Y-84358427D01*
X112280866Y-84353806D01*
X112290245Y-84350961D01*
X112300000Y-84350000D01*
X114700000Y-84350000D01*
X114709755Y-84350961D01*
G37*
D14*
X116690000Y-85559999D03*
D15*
X115420000Y-88100000D03*
X125580000Y-88100000D03*
D16*
X126000000Y-88100000D03*
X115000000Y-88100000D03*
D17*
X120500000Y-88100000D03*
D14*
X123040000Y-83020000D03*
X120500000Y-94000000D03*
X115500000Y-91800000D03*
D18*
X123300000Y-94000000D03*
D19*
X112400000Y-91800000D03*
D14*
X125500000Y-91800000D03*
X117960000Y-83020000D03*
X124310000Y-85560000D03*
D13*
G36*
X146309755Y-79350961D02*
G01*
X146319134Y-79353806D01*
X146327779Y-79358427D01*
X146335355Y-79364645D01*
X146341573Y-79372221D01*
X146346194Y-79380866D01*
X146349039Y-79390245D01*
X146350000Y-79400000D01*
X146350000Y-79850000D01*
X147050000Y-79850000D01*
X147050000Y-81350000D01*
X146350000Y-81350000D01*
X146350000Y-81800000D01*
X146349039Y-81809755D01*
X146346194Y-81819134D01*
X146341573Y-81827779D01*
X146335355Y-81835355D01*
X146327779Y-81841573D01*
X146319134Y-81846194D01*
X146309755Y-81849039D01*
X146300000Y-81850000D01*
X144400000Y-81850000D01*
X144390245Y-81849039D01*
X144380866Y-81846194D01*
X144368765Y-81839043D01*
X143868765Y-81439043D01*
X143861748Y-81432200D01*
X143856202Y-81424118D01*
X143852338Y-81415110D01*
X143850306Y-81405522D01*
X143850000Y-81400000D01*
X143850000Y-79400000D01*
X143850961Y-79390245D01*
X143853806Y-79380866D01*
X143858427Y-79372221D01*
X143864645Y-79364645D01*
X143872221Y-79358427D01*
X143880866Y-79353806D01*
X143890245Y-79350961D01*
X143900000Y-79350000D01*
X146300000Y-79350000D01*
X146309755Y-79350961D01*
G37*
G36*
X133709755Y-81950961D02*
G01*
X133719134Y-81953806D01*
X133727779Y-81958427D01*
X133735355Y-81964645D01*
X133741573Y-81972221D01*
X133746194Y-81980866D01*
X133749039Y-81990245D01*
X133750000Y-82000000D01*
X133750000Y-84400000D01*
X133749039Y-84409755D01*
X133746194Y-84419134D01*
X133741573Y-84427779D01*
X133735355Y-84435355D01*
X133727779Y-84441573D01*
X133719134Y-84446194D01*
X133709755Y-84449039D01*
X133700000Y-84450000D01*
X131300000Y-84450000D01*
X131290245Y-84449039D01*
X131280866Y-84446194D01*
X131272221Y-84441573D01*
X131264645Y-84435355D01*
X131258427Y-84427779D01*
X131253806Y-84419134D01*
X131250961Y-84409755D01*
X131250000Y-84400000D01*
X131250000Y-83950000D01*
X130650000Y-83950000D01*
X130650000Y-82450000D01*
X131250000Y-82450000D01*
X131250000Y-82000000D01*
X131250961Y-81990245D01*
X131253806Y-81980866D01*
X131258427Y-81972221D01*
X131264645Y-81964645D01*
X131272221Y-81958427D01*
X131280866Y-81953806D01*
X131290245Y-81950961D01*
X131300000Y-81950000D01*
X133700000Y-81950000D01*
X133709755Y-81950961D01*
G37*
D14*
X135690000Y-83159999D03*
D15*
X134420000Y-85700000D03*
X144580000Y-85700000D03*
D16*
X145000000Y-85700000D03*
X134000000Y-85700000D03*
D17*
X139500000Y-85700000D03*
D14*
X142040000Y-80620000D03*
X139500000Y-91600000D03*
X134500000Y-89400000D03*
D18*
X142300000Y-91600000D03*
D19*
X131400000Y-89400000D03*
D14*
X144500000Y-89400000D03*
X136960000Y-80620000D03*
X143310000Y-83160000D03*
D13*
G36*
X165409755Y-78050961D02*
G01*
X165419134Y-78053806D01*
X165427779Y-78058427D01*
X165435355Y-78064645D01*
X165441573Y-78072221D01*
X165446194Y-78080866D01*
X165449039Y-78090245D01*
X165450000Y-78100000D01*
X165450000Y-78550000D01*
X166150000Y-78550000D01*
X166150000Y-80050000D01*
X165450000Y-80050000D01*
X165450000Y-80500000D01*
X165449039Y-80509755D01*
X165446194Y-80519134D01*
X165441573Y-80527779D01*
X165435355Y-80535355D01*
X165427779Y-80541573D01*
X165419134Y-80546194D01*
X165409755Y-80549039D01*
X165400000Y-80550000D01*
X163500000Y-80550000D01*
X163490245Y-80549039D01*
X163480866Y-80546194D01*
X163468765Y-80539043D01*
X162968765Y-80139043D01*
X162961748Y-80132200D01*
X162956202Y-80124118D01*
X162952338Y-80115110D01*
X162950306Y-80105522D01*
X162950000Y-80100000D01*
X162950000Y-78100000D01*
X162950961Y-78090245D01*
X162953806Y-78080866D01*
X162958427Y-78072221D01*
X162964645Y-78064645D01*
X162972221Y-78058427D01*
X162980866Y-78053806D01*
X162990245Y-78050961D01*
X163000000Y-78050000D01*
X165400000Y-78050000D01*
X165409755Y-78050961D01*
G37*
G36*
X152809755Y-80650961D02*
G01*
X152819134Y-80653806D01*
X152827779Y-80658427D01*
X152835355Y-80664645D01*
X152841573Y-80672221D01*
X152846194Y-80680866D01*
X152849039Y-80690245D01*
X152850000Y-80700000D01*
X152850000Y-83100000D01*
X152849039Y-83109755D01*
X152846194Y-83119134D01*
X152841573Y-83127779D01*
X152835355Y-83135355D01*
X152827779Y-83141573D01*
X152819134Y-83146194D01*
X152809755Y-83149039D01*
X152800000Y-83150000D01*
X150400000Y-83150000D01*
X150390245Y-83149039D01*
X150380866Y-83146194D01*
X150372221Y-83141573D01*
X150364645Y-83135355D01*
X150358427Y-83127779D01*
X150353806Y-83119134D01*
X150350961Y-83109755D01*
X150350000Y-83100000D01*
X150350000Y-82650000D01*
X149750000Y-82650000D01*
X149750000Y-81150000D01*
X150350000Y-81150000D01*
X150350000Y-80700000D01*
X150350961Y-80690245D01*
X150353806Y-80680866D01*
X150358427Y-80672221D01*
X150364645Y-80664645D01*
X150372221Y-80658427D01*
X150380866Y-80653806D01*
X150390245Y-80650961D01*
X150400000Y-80650000D01*
X152800000Y-80650000D01*
X152809755Y-80650961D01*
G37*
D14*
X154790000Y-81859999D03*
D15*
X153520000Y-84400000D03*
X163680000Y-84400000D03*
D16*
X164100000Y-84400000D03*
X153100000Y-84400000D03*
D17*
X158600000Y-84400000D03*
D14*
X161140000Y-79320000D03*
X158600000Y-90300000D03*
X153600000Y-88100000D03*
D18*
X161400000Y-90300000D03*
D19*
X150500000Y-88100000D03*
D14*
X163600000Y-88100000D03*
X156060000Y-79320000D03*
X162410000Y-81860000D03*
D13*
G36*
X184409755Y-79350961D02*
G01*
X184419134Y-79353806D01*
X184427779Y-79358427D01*
X184435355Y-79364645D01*
X184441573Y-79372221D01*
X184446194Y-79380866D01*
X184449039Y-79390245D01*
X184450000Y-79400000D01*
X184450000Y-79850000D01*
X185150000Y-79850000D01*
X185150000Y-81350000D01*
X184450000Y-81350000D01*
X184450000Y-81800000D01*
X184449039Y-81809755D01*
X184446194Y-81819134D01*
X184441573Y-81827779D01*
X184435355Y-81835355D01*
X184427779Y-81841573D01*
X184419134Y-81846194D01*
X184409755Y-81849039D01*
X184400000Y-81850000D01*
X182500000Y-81850000D01*
X182490245Y-81849039D01*
X182480866Y-81846194D01*
X182468765Y-81839043D01*
X181968765Y-81439043D01*
X181961748Y-81432200D01*
X181956202Y-81424118D01*
X181952338Y-81415110D01*
X181950306Y-81405522D01*
X181950000Y-81400000D01*
X181950000Y-79400000D01*
X181950961Y-79390245D01*
X181953806Y-79380866D01*
X181958427Y-79372221D01*
X181964645Y-79364645D01*
X181972221Y-79358427D01*
X181980866Y-79353806D01*
X181990245Y-79350961D01*
X182000000Y-79350000D01*
X184400000Y-79350000D01*
X184409755Y-79350961D01*
G37*
G36*
X171809755Y-81950961D02*
G01*
X171819134Y-81953806D01*
X171827779Y-81958427D01*
X171835355Y-81964645D01*
X171841573Y-81972221D01*
X171846194Y-81980866D01*
X171849039Y-81990245D01*
X171850000Y-82000000D01*
X171850000Y-84400000D01*
X171849039Y-84409755D01*
X171846194Y-84419134D01*
X171841573Y-84427779D01*
X171835355Y-84435355D01*
X171827779Y-84441573D01*
X171819134Y-84446194D01*
X171809755Y-84449039D01*
X171800000Y-84450000D01*
X169400000Y-84450000D01*
X169390245Y-84449039D01*
X169380866Y-84446194D01*
X169372221Y-84441573D01*
X169364645Y-84435355D01*
X169358427Y-84427779D01*
X169353806Y-84419134D01*
X169350961Y-84409755D01*
X169350000Y-84400000D01*
X169350000Y-83950000D01*
X168750000Y-83950000D01*
X168750000Y-82450000D01*
X169350000Y-82450000D01*
X169350000Y-82000000D01*
X169350961Y-81990245D01*
X169353806Y-81980866D01*
X169358427Y-81972221D01*
X169364645Y-81964645D01*
X169372221Y-81958427D01*
X169380866Y-81953806D01*
X169390245Y-81950961D01*
X169400000Y-81950000D01*
X171800000Y-81950000D01*
X171809755Y-81950961D01*
G37*
D14*
X173790000Y-83159999D03*
D15*
X172520000Y-85700000D03*
X182680000Y-85700000D03*
D16*
X183100000Y-85700000D03*
X172100000Y-85700000D03*
D17*
X177600000Y-85700000D03*
D14*
X180140000Y-80620000D03*
X177600000Y-91600000D03*
X172600000Y-89400000D03*
D18*
X180400000Y-91600000D03*
D19*
X169500000Y-89400000D03*
D14*
X182600000Y-89400000D03*
X175060000Y-80620000D03*
X181410000Y-83160000D03*
D13*
G36*
X203509755Y-84150961D02*
G01*
X203519134Y-84153806D01*
X203527779Y-84158427D01*
X203535355Y-84164645D01*
X203541573Y-84172221D01*
X203546194Y-84180866D01*
X203549039Y-84190245D01*
X203550000Y-84200000D01*
X203550000Y-84650000D01*
X204250000Y-84650000D01*
X204250000Y-86150000D01*
X203550000Y-86150000D01*
X203550000Y-86600000D01*
X203549039Y-86609755D01*
X203546194Y-86619134D01*
X203541573Y-86627779D01*
X203535355Y-86635355D01*
X203527779Y-86641573D01*
X203519134Y-86646194D01*
X203509755Y-86649039D01*
X203500000Y-86650000D01*
X201600000Y-86650000D01*
X201590245Y-86649039D01*
X201580866Y-86646194D01*
X201568765Y-86639043D01*
X201068765Y-86239043D01*
X201061748Y-86232200D01*
X201056202Y-86224118D01*
X201052338Y-86215110D01*
X201050306Y-86205522D01*
X201050000Y-86200000D01*
X201050000Y-84200000D01*
X201050961Y-84190245D01*
X201053806Y-84180866D01*
X201058427Y-84172221D01*
X201064645Y-84164645D01*
X201072221Y-84158427D01*
X201080866Y-84153806D01*
X201090245Y-84150961D01*
X201100000Y-84150000D01*
X203500000Y-84150000D01*
X203509755Y-84150961D01*
G37*
G36*
X190909755Y-86750961D02*
G01*
X190919134Y-86753806D01*
X190927779Y-86758427D01*
X190935355Y-86764645D01*
X190941573Y-86772221D01*
X190946194Y-86780866D01*
X190949039Y-86790245D01*
X190950000Y-86800000D01*
X190950000Y-89200000D01*
X190949039Y-89209755D01*
X190946194Y-89219134D01*
X190941573Y-89227779D01*
X190935355Y-89235355D01*
X190927779Y-89241573D01*
X190919134Y-89246194D01*
X190909755Y-89249039D01*
X190900000Y-89250000D01*
X188500000Y-89250000D01*
X188490245Y-89249039D01*
X188480866Y-89246194D01*
X188472221Y-89241573D01*
X188464645Y-89235355D01*
X188458427Y-89227779D01*
X188453806Y-89219134D01*
X188450961Y-89209755D01*
X188450000Y-89200000D01*
X188450000Y-88750000D01*
X187850000Y-88750000D01*
X187850000Y-87250000D01*
X188450000Y-87250000D01*
X188450000Y-86800000D01*
X188450961Y-86790245D01*
X188453806Y-86780866D01*
X188458427Y-86772221D01*
X188464645Y-86764645D01*
X188472221Y-86758427D01*
X188480866Y-86753806D01*
X188490245Y-86750961D01*
X188500000Y-86750000D01*
X190900000Y-86750000D01*
X190909755Y-86750961D01*
G37*
D14*
X192890000Y-87959999D03*
D15*
X191620000Y-90500000D03*
X201780000Y-90500000D03*
D16*
X202200000Y-90500000D03*
X191200000Y-90500000D03*
D17*
X196700000Y-90500000D03*
D14*
X199240000Y-85420000D03*
X196700000Y-96400000D03*
X191700000Y-94200000D03*
D18*
X199500000Y-96400000D03*
D19*
X188600000Y-94200000D03*
D14*
X201700000Y-94200000D03*
X194160000Y-85420000D03*
X200510000Y-87960000D03*
D13*
G36*
X222509755Y-85650961D02*
G01*
X222519134Y-85653806D01*
X222527779Y-85658427D01*
X222535355Y-85664645D01*
X222541573Y-85672221D01*
X222546194Y-85680866D01*
X222549039Y-85690245D01*
X222550000Y-85700000D01*
X222550000Y-86150000D01*
X223250000Y-86150000D01*
X223250000Y-87650000D01*
X222550000Y-87650000D01*
X222550000Y-88100000D01*
X222549039Y-88109755D01*
X222546194Y-88119134D01*
X222541573Y-88127779D01*
X222535355Y-88135355D01*
X222527779Y-88141573D01*
X222519134Y-88146194D01*
X222509755Y-88149039D01*
X222500000Y-88150000D01*
X220600000Y-88150000D01*
X220590245Y-88149039D01*
X220580866Y-88146194D01*
X220568765Y-88139043D01*
X220068765Y-87739043D01*
X220061748Y-87732200D01*
X220056202Y-87724118D01*
X220052338Y-87715110D01*
X220050306Y-87705522D01*
X220050000Y-87700000D01*
X220050000Y-85700000D01*
X220050961Y-85690245D01*
X220053806Y-85680866D01*
X220058427Y-85672221D01*
X220064645Y-85664645D01*
X220072221Y-85658427D01*
X220080866Y-85653806D01*
X220090245Y-85650961D01*
X220100000Y-85650000D01*
X222500000Y-85650000D01*
X222509755Y-85650961D01*
G37*
G36*
X209909755Y-88250961D02*
G01*
X209919134Y-88253806D01*
X209927779Y-88258427D01*
X209935355Y-88264645D01*
X209941573Y-88272221D01*
X209946194Y-88280866D01*
X209949039Y-88290245D01*
X209950000Y-88300000D01*
X209950000Y-90700000D01*
X209949039Y-90709755D01*
X209946194Y-90719134D01*
X209941573Y-90727779D01*
X209935355Y-90735355D01*
X209927779Y-90741573D01*
X209919134Y-90746194D01*
X209909755Y-90749039D01*
X209900000Y-90750000D01*
X207500000Y-90750000D01*
X207490245Y-90749039D01*
X207480866Y-90746194D01*
X207472221Y-90741573D01*
X207464645Y-90735355D01*
X207458427Y-90727779D01*
X207453806Y-90719134D01*
X207450961Y-90709755D01*
X207450000Y-90700000D01*
X207450000Y-90250000D01*
X206850000Y-90250000D01*
X206850000Y-88750000D01*
X207450000Y-88750000D01*
X207450000Y-88300000D01*
X207450961Y-88290245D01*
X207453806Y-88280866D01*
X207458427Y-88272221D01*
X207464645Y-88264645D01*
X207472221Y-88258427D01*
X207480866Y-88253806D01*
X207490245Y-88250961D01*
X207500000Y-88250000D01*
X209900000Y-88250000D01*
X209909755Y-88250961D01*
G37*
D14*
X211890000Y-89459999D03*
D15*
X210620000Y-92000000D03*
X220780000Y-92000000D03*
D16*
X221200000Y-92000000D03*
X210200000Y-92000000D03*
D17*
X215700000Y-92000000D03*
D14*
X218240000Y-86920000D03*
X215700000Y-97900000D03*
X210700000Y-95700000D03*
D18*
X218500000Y-97900000D03*
D19*
X207600000Y-95700000D03*
D14*
X220700000Y-95700000D03*
X213160000Y-86920000D03*
X219510000Y-89460000D03*
D13*
G36*
X127309755Y-100750961D02*
G01*
X127319134Y-100753806D01*
X127327779Y-100758427D01*
X127335355Y-100764645D01*
X127341573Y-100772221D01*
X127346194Y-100780866D01*
X127349039Y-100790245D01*
X127350000Y-100800000D01*
X127350000Y-101250000D01*
X128050000Y-101250000D01*
X128050000Y-102750000D01*
X127350000Y-102750000D01*
X127350000Y-103200000D01*
X127349039Y-103209755D01*
X127346194Y-103219134D01*
X127341573Y-103227779D01*
X127335355Y-103235355D01*
X127327779Y-103241573D01*
X127319134Y-103246194D01*
X127309755Y-103249039D01*
X127300000Y-103250000D01*
X125400000Y-103250000D01*
X125390245Y-103249039D01*
X125380866Y-103246194D01*
X125368765Y-103239043D01*
X124868765Y-102839043D01*
X124861748Y-102832200D01*
X124856202Y-102824118D01*
X124852338Y-102815110D01*
X124850306Y-102805522D01*
X124850000Y-102800000D01*
X124850000Y-100800000D01*
X124850961Y-100790245D01*
X124853806Y-100780866D01*
X124858427Y-100772221D01*
X124864645Y-100764645D01*
X124872221Y-100758427D01*
X124880866Y-100753806D01*
X124890245Y-100750961D01*
X124900000Y-100750000D01*
X127300000Y-100750000D01*
X127309755Y-100750961D01*
G37*
G36*
X114709755Y-103350961D02*
G01*
X114719134Y-103353806D01*
X114727779Y-103358427D01*
X114735355Y-103364645D01*
X114741573Y-103372221D01*
X114746194Y-103380866D01*
X114749039Y-103390245D01*
X114750000Y-103400000D01*
X114750000Y-105800000D01*
X114749039Y-105809755D01*
X114746194Y-105819134D01*
X114741573Y-105827779D01*
X114735355Y-105835355D01*
X114727779Y-105841573D01*
X114719134Y-105846194D01*
X114709755Y-105849039D01*
X114700000Y-105850000D01*
X112300000Y-105850000D01*
X112290245Y-105849039D01*
X112280866Y-105846194D01*
X112272221Y-105841573D01*
X112264645Y-105835355D01*
X112258427Y-105827779D01*
X112253806Y-105819134D01*
X112250961Y-105809755D01*
X112250000Y-105800000D01*
X112250000Y-105350000D01*
X111650000Y-105350000D01*
X111650000Y-103850000D01*
X112250000Y-103850000D01*
X112250000Y-103400000D01*
X112250961Y-103390245D01*
X112253806Y-103380866D01*
X112258427Y-103372221D01*
X112264645Y-103364645D01*
X112272221Y-103358427D01*
X112280866Y-103353806D01*
X112290245Y-103350961D01*
X112300000Y-103350000D01*
X114700000Y-103350000D01*
X114709755Y-103350961D01*
G37*
D14*
X116690000Y-104559999D03*
D15*
X115420000Y-107100000D03*
X125580000Y-107100000D03*
D16*
X126000000Y-107100000D03*
X115000000Y-107100000D03*
D17*
X120500000Y-107100000D03*
D14*
X123040000Y-102020000D03*
X120500000Y-113000000D03*
X115500000Y-110800000D03*
D18*
X123300000Y-113000000D03*
D19*
X112400000Y-110800000D03*
D14*
X125500000Y-110800000D03*
X117960000Y-102020000D03*
X124310000Y-104560000D03*
D13*
G36*
X146309755Y-98450961D02*
G01*
X146319134Y-98453806D01*
X146327779Y-98458427D01*
X146335355Y-98464645D01*
X146341573Y-98472221D01*
X146346194Y-98480866D01*
X146349039Y-98490245D01*
X146350000Y-98500000D01*
X146350000Y-98950000D01*
X147050000Y-98950000D01*
X147050000Y-100450000D01*
X146350000Y-100450000D01*
X146350000Y-100900000D01*
X146349039Y-100909755D01*
X146346194Y-100919134D01*
X146341573Y-100927779D01*
X146335355Y-100935355D01*
X146327779Y-100941573D01*
X146319134Y-100946194D01*
X146309755Y-100949039D01*
X146300000Y-100950000D01*
X144400000Y-100950000D01*
X144390245Y-100949039D01*
X144380866Y-100946194D01*
X144368765Y-100939043D01*
X143868765Y-100539043D01*
X143861748Y-100532200D01*
X143856202Y-100524118D01*
X143852338Y-100515110D01*
X143850306Y-100505522D01*
X143850000Y-100500000D01*
X143850000Y-98500000D01*
X143850961Y-98490245D01*
X143853806Y-98480866D01*
X143858427Y-98472221D01*
X143864645Y-98464645D01*
X143872221Y-98458427D01*
X143880866Y-98453806D01*
X143890245Y-98450961D01*
X143900000Y-98450000D01*
X146300000Y-98450000D01*
X146309755Y-98450961D01*
G37*
G36*
X133709755Y-101050961D02*
G01*
X133719134Y-101053806D01*
X133727779Y-101058427D01*
X133735355Y-101064645D01*
X133741573Y-101072221D01*
X133746194Y-101080866D01*
X133749039Y-101090245D01*
X133750000Y-101100000D01*
X133750000Y-103500000D01*
X133749039Y-103509755D01*
X133746194Y-103519134D01*
X133741573Y-103527779D01*
X133735355Y-103535355D01*
X133727779Y-103541573D01*
X133719134Y-103546194D01*
X133709755Y-103549039D01*
X133700000Y-103550000D01*
X131300000Y-103550000D01*
X131290245Y-103549039D01*
X131280866Y-103546194D01*
X131272221Y-103541573D01*
X131264645Y-103535355D01*
X131258427Y-103527779D01*
X131253806Y-103519134D01*
X131250961Y-103509755D01*
X131250000Y-103500000D01*
X131250000Y-103050000D01*
X130650000Y-103050000D01*
X130650000Y-101550000D01*
X131250000Y-101550000D01*
X131250000Y-101100000D01*
X131250961Y-101090245D01*
X131253806Y-101080866D01*
X131258427Y-101072221D01*
X131264645Y-101064645D01*
X131272221Y-101058427D01*
X131280866Y-101053806D01*
X131290245Y-101050961D01*
X131300000Y-101050000D01*
X133700000Y-101050000D01*
X133709755Y-101050961D01*
G37*
D14*
X135690000Y-102259999D03*
D15*
X134420000Y-104800000D03*
X144580000Y-104800000D03*
D16*
X145000000Y-104800000D03*
X134000000Y-104800000D03*
D17*
X139500000Y-104800000D03*
D14*
X142040000Y-99720000D03*
X139500000Y-110700000D03*
X134500000Y-108500000D03*
D18*
X142300000Y-110700000D03*
D19*
X131400000Y-108500000D03*
D14*
X144500000Y-108500000D03*
X136960000Y-99720000D03*
X143310000Y-102260000D03*
D13*
G36*
X165409755Y-97050961D02*
G01*
X165419134Y-97053806D01*
X165427779Y-97058427D01*
X165435355Y-97064645D01*
X165441573Y-97072221D01*
X165446194Y-97080866D01*
X165449039Y-97090245D01*
X165450000Y-97100000D01*
X165450000Y-97550000D01*
X166150000Y-97550000D01*
X166150000Y-99050000D01*
X165450000Y-99050000D01*
X165450000Y-99500000D01*
X165449039Y-99509755D01*
X165446194Y-99519134D01*
X165441573Y-99527779D01*
X165435355Y-99535355D01*
X165427779Y-99541573D01*
X165419134Y-99546194D01*
X165409755Y-99549039D01*
X165400000Y-99550000D01*
X163500000Y-99550000D01*
X163490245Y-99549039D01*
X163480866Y-99546194D01*
X163468765Y-99539043D01*
X162968765Y-99139043D01*
X162961748Y-99132200D01*
X162956202Y-99124118D01*
X162952338Y-99115110D01*
X162950306Y-99105522D01*
X162950000Y-99100000D01*
X162950000Y-97100000D01*
X162950961Y-97090245D01*
X162953806Y-97080866D01*
X162958427Y-97072221D01*
X162964645Y-97064645D01*
X162972221Y-97058427D01*
X162980866Y-97053806D01*
X162990245Y-97050961D01*
X163000000Y-97050000D01*
X165400000Y-97050000D01*
X165409755Y-97050961D01*
G37*
G36*
X152809755Y-99650961D02*
G01*
X152819134Y-99653806D01*
X152827779Y-99658427D01*
X152835355Y-99664645D01*
X152841573Y-99672221D01*
X152846194Y-99680866D01*
X152849039Y-99690245D01*
X152850000Y-99700000D01*
X152850000Y-102100000D01*
X152849039Y-102109755D01*
X152846194Y-102119134D01*
X152841573Y-102127779D01*
X152835355Y-102135355D01*
X152827779Y-102141573D01*
X152819134Y-102146194D01*
X152809755Y-102149039D01*
X152800000Y-102150000D01*
X150400000Y-102150000D01*
X150390245Y-102149039D01*
X150380866Y-102146194D01*
X150372221Y-102141573D01*
X150364645Y-102135355D01*
X150358427Y-102127779D01*
X150353806Y-102119134D01*
X150350961Y-102109755D01*
X150350000Y-102100000D01*
X150350000Y-101650000D01*
X149750000Y-101650000D01*
X149750000Y-100150000D01*
X150350000Y-100150000D01*
X150350000Y-99700000D01*
X150350961Y-99690245D01*
X150353806Y-99680866D01*
X150358427Y-99672221D01*
X150364645Y-99664645D01*
X150372221Y-99658427D01*
X150380866Y-99653806D01*
X150390245Y-99650961D01*
X150400000Y-99650000D01*
X152800000Y-99650000D01*
X152809755Y-99650961D01*
G37*
D14*
X154790000Y-100859999D03*
D15*
X153520000Y-103400000D03*
X163680000Y-103400000D03*
D16*
X164100000Y-103400000D03*
X153100000Y-103400000D03*
D17*
X158600000Y-103400000D03*
D14*
X161140000Y-98320000D03*
X158600000Y-109300000D03*
X153600000Y-107100000D03*
D18*
X161400000Y-109300000D03*
D19*
X150500000Y-107100000D03*
D14*
X163600000Y-107100000D03*
X156060000Y-98320000D03*
X162410000Y-100860000D03*
D13*
G36*
X184409755Y-98450961D02*
G01*
X184419134Y-98453806D01*
X184427779Y-98458427D01*
X184435355Y-98464645D01*
X184441573Y-98472221D01*
X184446194Y-98480866D01*
X184449039Y-98490245D01*
X184450000Y-98500000D01*
X184450000Y-98950000D01*
X185150000Y-98950000D01*
X185150000Y-100450000D01*
X184450000Y-100450000D01*
X184450000Y-100900000D01*
X184449039Y-100909755D01*
X184446194Y-100919134D01*
X184441573Y-100927779D01*
X184435355Y-100935355D01*
X184427779Y-100941573D01*
X184419134Y-100946194D01*
X184409755Y-100949039D01*
X184400000Y-100950000D01*
X182500000Y-100950000D01*
X182490245Y-100949039D01*
X182480866Y-100946194D01*
X182468765Y-100939043D01*
X181968765Y-100539043D01*
X181961748Y-100532200D01*
X181956202Y-100524118D01*
X181952338Y-100515110D01*
X181950306Y-100505522D01*
X181950000Y-100500000D01*
X181950000Y-98500000D01*
X181950961Y-98490245D01*
X181953806Y-98480866D01*
X181958427Y-98472221D01*
X181964645Y-98464645D01*
X181972221Y-98458427D01*
X181980866Y-98453806D01*
X181990245Y-98450961D01*
X182000000Y-98450000D01*
X184400000Y-98450000D01*
X184409755Y-98450961D01*
G37*
G36*
X171809755Y-101050961D02*
G01*
X171819134Y-101053806D01*
X171827779Y-101058427D01*
X171835355Y-101064645D01*
X171841573Y-101072221D01*
X171846194Y-101080866D01*
X171849039Y-101090245D01*
X171850000Y-101100000D01*
X171850000Y-103500000D01*
X171849039Y-103509755D01*
X171846194Y-103519134D01*
X171841573Y-103527779D01*
X171835355Y-103535355D01*
X171827779Y-103541573D01*
X171819134Y-103546194D01*
X171809755Y-103549039D01*
X171800000Y-103550000D01*
X169400000Y-103550000D01*
X169390245Y-103549039D01*
X169380866Y-103546194D01*
X169372221Y-103541573D01*
X169364645Y-103535355D01*
X169358427Y-103527779D01*
X169353806Y-103519134D01*
X169350961Y-103509755D01*
X169350000Y-103500000D01*
X169350000Y-103050000D01*
X168750000Y-103050000D01*
X168750000Y-101550000D01*
X169350000Y-101550000D01*
X169350000Y-101100000D01*
X169350961Y-101090245D01*
X169353806Y-101080866D01*
X169358427Y-101072221D01*
X169364645Y-101064645D01*
X169372221Y-101058427D01*
X169380866Y-101053806D01*
X169390245Y-101050961D01*
X169400000Y-101050000D01*
X171800000Y-101050000D01*
X171809755Y-101050961D01*
G37*
D14*
X173790000Y-102259999D03*
D15*
X172520000Y-104800000D03*
X182680000Y-104800000D03*
D16*
X183100000Y-104800000D03*
X172100000Y-104800000D03*
D17*
X177600000Y-104800000D03*
D14*
X180140000Y-99720000D03*
X177600000Y-110700000D03*
X172600000Y-108500000D03*
D18*
X180400000Y-110700000D03*
D19*
X169500000Y-108500000D03*
D14*
X182600000Y-108500000D03*
X175060000Y-99720000D03*
X181410000Y-102260000D03*
D13*
G36*
X222559755Y-104650961D02*
G01*
X222569134Y-104653806D01*
X222577779Y-104658427D01*
X222585355Y-104664645D01*
X222591573Y-104672221D01*
X222596194Y-104680866D01*
X222599039Y-104690245D01*
X222600000Y-104700000D01*
X222600000Y-105150000D01*
X223300000Y-105150000D01*
X223300000Y-106650000D01*
X222600000Y-106650000D01*
X222600000Y-107100000D01*
X222599039Y-107109755D01*
X222596194Y-107119134D01*
X222591573Y-107127779D01*
X222585355Y-107135355D01*
X222577779Y-107141573D01*
X222569134Y-107146194D01*
X222559755Y-107149039D01*
X222550000Y-107150000D01*
X220650000Y-107150000D01*
X220640245Y-107149039D01*
X220630866Y-107146194D01*
X220618765Y-107139043D01*
X220118765Y-106739043D01*
X220111748Y-106732200D01*
X220106202Y-106724118D01*
X220102338Y-106715110D01*
X220100306Y-106705522D01*
X220100000Y-106700000D01*
X220100000Y-104700000D01*
X220100961Y-104690245D01*
X220103806Y-104680866D01*
X220108427Y-104672221D01*
X220114645Y-104664645D01*
X220122221Y-104658427D01*
X220130866Y-104653806D01*
X220140245Y-104650961D01*
X220150000Y-104650000D01*
X222550000Y-104650000D01*
X222559755Y-104650961D01*
G37*
G36*
X209959755Y-107250961D02*
G01*
X209969134Y-107253806D01*
X209977779Y-107258427D01*
X209985355Y-107264645D01*
X209991573Y-107272221D01*
X209996194Y-107280866D01*
X209999039Y-107290245D01*
X210000000Y-107300000D01*
X210000000Y-109700000D01*
X209999039Y-109709755D01*
X209996194Y-109719134D01*
X209991573Y-109727779D01*
X209985355Y-109735355D01*
X209977779Y-109741573D01*
X209969134Y-109746194D01*
X209959755Y-109749039D01*
X209950000Y-109750000D01*
X207550000Y-109750000D01*
X207540245Y-109749039D01*
X207530866Y-109746194D01*
X207522221Y-109741573D01*
X207514645Y-109735355D01*
X207508427Y-109727779D01*
X207503806Y-109719134D01*
X207500961Y-109709755D01*
X207500000Y-109700000D01*
X207500000Y-109250000D01*
X206900000Y-109250000D01*
X206900000Y-107750000D01*
X207500000Y-107750000D01*
X207500000Y-107300000D01*
X207500961Y-107290245D01*
X207503806Y-107280866D01*
X207508427Y-107272221D01*
X207514645Y-107264645D01*
X207522221Y-107258427D01*
X207530866Y-107253806D01*
X207540245Y-107250961D01*
X207550000Y-107250000D01*
X209950000Y-107250000D01*
X209959755Y-107250961D01*
G37*
D14*
X211940000Y-108459999D03*
D15*
X210670000Y-111000000D03*
X220830000Y-111000000D03*
D16*
X221250000Y-111000000D03*
X210250000Y-111000000D03*
D17*
X215750000Y-111000000D03*
D14*
X218290000Y-105920000D03*
X215750000Y-116900000D03*
X210750000Y-114700000D03*
D18*
X218550000Y-116900000D03*
D19*
X207650000Y-114700000D03*
D14*
X220750000Y-114700000D03*
X213210000Y-105920000D03*
X219560000Y-108460000D03*
D13*
G36*
X114863307Y-132792901D02*
G01*
X114865533Y-132802446D01*
X114865853Y-132812244D01*
X114864256Y-132821914D01*
X114860804Y-132831087D01*
X114855628Y-132839411D01*
X114848928Y-132846564D01*
X114840960Y-132852274D01*
X114451249Y-133077274D01*
X114801249Y-133683492D01*
X113502211Y-134433492D01*
X113152211Y-133827274D01*
X112762500Y-134052274D01*
X112753571Y-134056319D01*
X112744026Y-134058545D01*
X112734229Y-134058866D01*
X112724559Y-134057269D01*
X112715386Y-134053817D01*
X112707061Y-134048640D01*
X112699908Y-134041940D01*
X112694198Y-134033973D01*
X111744198Y-132388525D01*
X111740153Y-132379596D01*
X111737927Y-132370051D01*
X111738070Y-132355996D01*
X111834480Y-131722983D01*
X111836898Y-131713485D01*
X111841124Y-131704641D01*
X111846993Y-131696790D01*
X111854280Y-131690237D01*
X111858910Y-131687211D01*
X113590960Y-130687211D01*
X113599889Y-130683165D01*
X113609434Y-130680940D01*
X113619231Y-130680619D01*
X113628901Y-130682216D01*
X113638074Y-130685668D01*
X113646399Y-130690844D01*
X113653552Y-130697544D01*
X113659262Y-130705512D01*
X114859262Y-132783973D01*
X114863307Y-132792901D01*
G37*
G36*
X106311641Y-123180981D02*
G01*
X106313867Y-123190526D01*
X106314187Y-123200323D01*
X106312590Y-123209993D01*
X106309138Y-123219166D01*
X106303962Y-123227491D01*
X106297262Y-123234644D01*
X106289294Y-123240354D01*
X104210834Y-124440354D01*
X104201905Y-124444399D01*
X104192360Y-124446625D01*
X104182563Y-124446945D01*
X104172893Y-124445348D01*
X104163720Y-124441896D01*
X104155395Y-124436720D01*
X104148242Y-124430020D01*
X104142532Y-124422053D01*
X102942532Y-122343592D01*
X102938487Y-122334663D01*
X102936261Y-122325118D01*
X102935941Y-122315321D01*
X102937538Y-122305651D01*
X102940990Y-122296478D01*
X102946166Y-122288153D01*
X102952866Y-122281000D01*
X102960834Y-122275290D01*
X103350545Y-122050290D01*
X103050545Y-121530675D01*
X104349583Y-120780675D01*
X104649583Y-121300290D01*
X105039294Y-121075290D01*
X105048223Y-121071245D01*
X105057768Y-121069019D01*
X105067565Y-121068699D01*
X105077235Y-121070296D01*
X105086408Y-121073748D01*
X105094733Y-121078924D01*
X105101886Y-121085624D01*
X105107596Y-121093592D01*
X106307596Y-123172053D01*
X106311641Y-123180981D01*
G37*
D14*
X106254705Y-125500443D03*
D15*
X103420000Y-125670591D03*
X108500000Y-134469409D03*
D16*
X108710000Y-134833140D03*
X103210000Y-125306860D03*
D17*
X105960000Y-130070000D03*
D14*
X111629409Y-129729705D03*
X100850450Y-133020000D03*
X100255706Y-127589873D03*
D13*
G36*
X103591475Y-135767595D02*
G01*
X101859425Y-136767595D01*
X100909425Y-135122147D01*
X102641475Y-134122147D01*
X103591475Y-135767595D01*
G37*
G36*
X100071731Y-125271219D02*
G01*
X98339681Y-126271219D01*
X97339681Y-124539169D01*
X99071731Y-123539169D01*
X100071731Y-125271219D01*
G37*
D14*
X105255706Y-136250127D03*
X109089409Y-125330295D03*
X110064705Y-132099557D03*
D13*
G36*
X132814466Y-118524805D02*
G01*
X132824262Y-118525125D01*
X132833808Y-118527351D01*
X132842736Y-118531397D01*
X132850703Y-118537105D01*
X132857404Y-118544260D01*
X132862579Y-118552583D01*
X132866032Y-118561757D01*
X132982501Y-118996423D01*
X133658649Y-118815250D01*
X134046877Y-120264139D01*
X133370729Y-120445312D01*
X133487198Y-120879979D01*
X133488794Y-120889650D01*
X133488474Y-120899446D01*
X133486248Y-120908992D01*
X133482202Y-120917919D01*
X133476494Y-120925886D01*
X133469339Y-120932587D01*
X133461016Y-120937763D01*
X133451842Y-120941216D01*
X131616583Y-121432972D01*
X131606912Y-121434569D01*
X131597116Y-121434248D01*
X131583577Y-121430473D01*
X130997086Y-121173512D01*
X130988537Y-121168718D01*
X130981089Y-121162347D01*
X130975025Y-121154646D01*
X130970580Y-121145911D01*
X130968856Y-121140656D01*
X130451218Y-119208804D01*
X130449621Y-119199133D01*
X130449942Y-119189337D01*
X130452168Y-119179791D01*
X130456213Y-119170864D01*
X130461921Y-119162897D01*
X130469076Y-119156196D01*
X130477399Y-119151020D01*
X130486573Y-119147567D01*
X132804795Y-118526401D01*
X132814466Y-118524805D01*
G37*
G36*
X121316730Y-124297332D02*
G01*
X121326526Y-124297652D01*
X121336072Y-124299878D01*
X121345000Y-124303924D01*
X121352967Y-124309632D01*
X121359668Y-124316787D01*
X121364843Y-124325110D01*
X121368296Y-124334284D01*
X121989462Y-126652506D01*
X121991058Y-126662177D01*
X121990738Y-126671973D01*
X121988512Y-126681519D01*
X121984466Y-126690446D01*
X121978758Y-126698413D01*
X121971603Y-126705114D01*
X121963280Y-126710290D01*
X121954107Y-126713743D01*
X119635885Y-127334909D01*
X119626213Y-127336505D01*
X119616417Y-127336184D01*
X119606871Y-127333958D01*
X119597944Y-127329913D01*
X119589977Y-127324205D01*
X119583276Y-127317050D01*
X119578100Y-127308727D01*
X119574647Y-127299553D01*
X119458179Y-126864887D01*
X118878623Y-127020178D01*
X118490395Y-125571289D01*
X119069950Y-125415998D01*
X118953482Y-124981331D01*
X118951885Y-124971660D01*
X118952206Y-124961864D01*
X118954432Y-124952318D01*
X118958477Y-124943391D01*
X118964186Y-124935424D01*
X118971340Y-124928723D01*
X118979663Y-124923547D01*
X118988837Y-124920094D01*
X121307059Y-124298928D01*
X121316730Y-124297332D01*
G37*
D14*
X123542422Y-124952648D03*
D15*
X122973097Y-127734801D03*
X132786903Y-125105199D03*
D16*
X133192592Y-124996495D03*
X122567408Y-127843505D03*
D17*
X127880000Y-126420000D03*
D14*
X129018651Y-120855696D03*
X129407032Y-132118962D03*
X124008001Y-131288021D03*
D13*
G36*
X132770435Y-130182465D02*
G01*
X133288074Y-132114317D01*
X131452815Y-132606073D01*
X130935176Y-130674221D01*
X132770435Y-130182465D01*
G37*
G36*
X121720738Y-130865615D02*
G01*
X122238376Y-132797467D01*
X120306524Y-133315105D01*
X119788886Y-131383253D01*
X121720738Y-130865615D01*
G37*
D14*
X133667260Y-128699830D03*
X124111748Y-122170497D03*
X130902777Y-122980448D03*
D13*
G36*
X155809755Y-117400961D02*
G01*
X155819134Y-117403806D01*
X155827779Y-117408427D01*
X155835355Y-117414645D01*
X155841573Y-117422221D01*
X155846194Y-117430866D01*
X155849039Y-117440245D01*
X155850000Y-117450000D01*
X155850000Y-117900000D01*
X156550000Y-117900000D01*
X156550000Y-119400000D01*
X155850000Y-119400000D01*
X155850000Y-119850000D01*
X155849039Y-119859755D01*
X155846194Y-119869134D01*
X155841573Y-119877779D01*
X155835355Y-119885355D01*
X155827779Y-119891573D01*
X155819134Y-119896194D01*
X155809755Y-119899039D01*
X155800000Y-119900000D01*
X153900000Y-119900000D01*
X153890245Y-119899039D01*
X153880866Y-119896194D01*
X153868765Y-119889043D01*
X153368765Y-119489043D01*
X153361748Y-119482200D01*
X153356202Y-119474118D01*
X153352338Y-119465110D01*
X153350306Y-119455522D01*
X153350000Y-119450000D01*
X153350000Y-117450000D01*
X153350961Y-117440245D01*
X153353806Y-117430866D01*
X153358427Y-117422221D01*
X153364645Y-117414645D01*
X153372221Y-117408427D01*
X153380866Y-117403806D01*
X153390245Y-117400961D01*
X153400000Y-117400000D01*
X155800000Y-117400000D01*
X155809755Y-117400961D01*
G37*
G36*
X143209755Y-120000961D02*
G01*
X143219134Y-120003806D01*
X143227779Y-120008427D01*
X143235355Y-120014645D01*
X143241573Y-120022221D01*
X143246194Y-120030866D01*
X143249039Y-120040245D01*
X143250000Y-120050000D01*
X143250000Y-122450000D01*
X143249039Y-122459755D01*
X143246194Y-122469134D01*
X143241573Y-122477779D01*
X143235355Y-122485355D01*
X143227779Y-122491573D01*
X143219134Y-122496194D01*
X143209755Y-122499039D01*
X143200000Y-122500000D01*
X140800000Y-122500000D01*
X140790245Y-122499039D01*
X140780866Y-122496194D01*
X140772221Y-122491573D01*
X140764645Y-122485355D01*
X140758427Y-122477779D01*
X140753806Y-122469134D01*
X140750961Y-122459755D01*
X140750000Y-122450000D01*
X140750000Y-122000000D01*
X140150000Y-122000000D01*
X140150000Y-120500000D01*
X140750000Y-120500000D01*
X140750000Y-120050000D01*
X140750961Y-120040245D01*
X140753806Y-120030866D01*
X140758427Y-120022221D01*
X140764645Y-120014645D01*
X140772221Y-120008427D01*
X140780866Y-120003806D01*
X140790245Y-120000961D01*
X140800000Y-120000000D01*
X143200000Y-120000000D01*
X143209755Y-120000961D01*
G37*
D14*
X145190000Y-121209999D03*
D15*
X143920000Y-123750000D03*
X154080000Y-123750000D03*
D16*
X154500000Y-123750000D03*
X143500000Y-123750000D03*
D17*
X149000000Y-123750000D03*
D14*
X151540000Y-118670000D03*
X149000000Y-129650000D03*
X144000000Y-127450000D03*
D18*
X151800000Y-129650000D03*
D19*
X140900000Y-127450000D03*
D14*
X154000000Y-127450000D03*
X146460000Y-118670000D03*
X152810000Y-121210000D03*
D13*
G36*
X174909755Y-117400961D02*
G01*
X174919134Y-117403806D01*
X174927779Y-117408427D01*
X174935355Y-117414645D01*
X174941573Y-117422221D01*
X174946194Y-117430866D01*
X174949039Y-117440245D01*
X174950000Y-117450000D01*
X174950000Y-117900000D01*
X175650000Y-117900000D01*
X175650000Y-119400000D01*
X174950000Y-119400000D01*
X174950000Y-119850000D01*
X174949039Y-119859755D01*
X174946194Y-119869134D01*
X174941573Y-119877779D01*
X174935355Y-119885355D01*
X174927779Y-119891573D01*
X174919134Y-119896194D01*
X174909755Y-119899039D01*
X174900000Y-119900000D01*
X173000000Y-119900000D01*
X172990245Y-119899039D01*
X172980866Y-119896194D01*
X172968765Y-119889043D01*
X172468765Y-119489043D01*
X172461748Y-119482200D01*
X172456202Y-119474118D01*
X172452338Y-119465110D01*
X172450306Y-119455522D01*
X172450000Y-119450000D01*
X172450000Y-117450000D01*
X172450961Y-117440245D01*
X172453806Y-117430866D01*
X172458427Y-117422221D01*
X172464645Y-117414645D01*
X172472221Y-117408427D01*
X172480866Y-117403806D01*
X172490245Y-117400961D01*
X172500000Y-117400000D01*
X174900000Y-117400000D01*
X174909755Y-117400961D01*
G37*
G36*
X162309755Y-120000961D02*
G01*
X162319134Y-120003806D01*
X162327779Y-120008427D01*
X162335355Y-120014645D01*
X162341573Y-120022221D01*
X162346194Y-120030866D01*
X162349039Y-120040245D01*
X162350000Y-120050000D01*
X162350000Y-122450000D01*
X162349039Y-122459755D01*
X162346194Y-122469134D01*
X162341573Y-122477779D01*
X162335355Y-122485355D01*
X162327779Y-122491573D01*
X162319134Y-122496194D01*
X162309755Y-122499039D01*
X162300000Y-122500000D01*
X159900000Y-122500000D01*
X159890245Y-122499039D01*
X159880866Y-122496194D01*
X159872221Y-122491573D01*
X159864645Y-122485355D01*
X159858427Y-122477779D01*
X159853806Y-122469134D01*
X159850961Y-122459755D01*
X159850000Y-122450000D01*
X159850000Y-122000000D01*
X159250000Y-122000000D01*
X159250000Y-120500000D01*
X159850000Y-120500000D01*
X159850000Y-120050000D01*
X159850961Y-120040245D01*
X159853806Y-120030866D01*
X159858427Y-120022221D01*
X159864645Y-120014645D01*
X159872221Y-120008427D01*
X159880866Y-120003806D01*
X159890245Y-120000961D01*
X159900000Y-120000000D01*
X162300000Y-120000000D01*
X162309755Y-120000961D01*
G37*
D14*
X164290000Y-121209999D03*
D15*
X163020000Y-123750000D03*
X173180000Y-123750000D03*
D16*
X173600000Y-123750000D03*
X162600000Y-123750000D03*
D17*
X168100000Y-123750000D03*
D14*
X170640000Y-118670000D03*
X168100000Y-129650000D03*
X163100000Y-127450000D03*
D18*
X170900000Y-129650000D03*
D19*
X160000000Y-127450000D03*
D14*
X173100000Y-127450000D03*
X165560000Y-118670000D03*
X171910000Y-121210000D03*
D13*
G36*
X222557355Y-123724362D02*
G01*
X222566734Y-123727207D01*
X222575379Y-123731828D01*
X222582955Y-123738046D01*
X222589173Y-123745622D01*
X222593794Y-123754267D01*
X222596639Y-123763646D01*
X222597600Y-123773401D01*
X222597600Y-124223401D01*
X223297600Y-124223401D01*
X223297600Y-125723401D01*
X222597600Y-125723401D01*
X222597600Y-126173401D01*
X222596639Y-126183156D01*
X222593794Y-126192535D01*
X222589173Y-126201180D01*
X222582955Y-126208756D01*
X222575379Y-126214974D01*
X222566734Y-126219595D01*
X222557355Y-126222440D01*
X222547600Y-126223401D01*
X220647600Y-126223401D01*
X220637845Y-126222440D01*
X220628466Y-126219595D01*
X220616365Y-126212444D01*
X220116365Y-125812444D01*
X220109348Y-125805601D01*
X220103802Y-125797519D01*
X220099938Y-125788511D01*
X220097906Y-125778923D01*
X220097600Y-125773401D01*
X220097600Y-123773401D01*
X220098561Y-123763646D01*
X220101406Y-123754267D01*
X220106027Y-123745622D01*
X220112245Y-123738046D01*
X220119821Y-123731828D01*
X220128466Y-123727207D01*
X220137845Y-123724362D01*
X220147600Y-123723401D01*
X222547600Y-123723401D01*
X222557355Y-123724362D01*
G37*
G36*
X209957355Y-126324362D02*
G01*
X209966734Y-126327207D01*
X209975379Y-126331828D01*
X209982955Y-126338046D01*
X209989173Y-126345622D01*
X209993794Y-126354267D01*
X209996639Y-126363646D01*
X209997600Y-126373401D01*
X209997600Y-128773401D01*
X209996639Y-128783156D01*
X209993794Y-128792535D01*
X209989173Y-128801180D01*
X209982955Y-128808756D01*
X209975379Y-128814974D01*
X209966734Y-128819595D01*
X209957355Y-128822440D01*
X209947600Y-128823401D01*
X207547600Y-128823401D01*
X207537845Y-128822440D01*
X207528466Y-128819595D01*
X207519821Y-128814974D01*
X207512245Y-128808756D01*
X207506027Y-128801180D01*
X207501406Y-128792535D01*
X207498561Y-128783156D01*
X207497600Y-128773401D01*
X207497600Y-128323401D01*
X206897600Y-128323401D01*
X206897600Y-126823401D01*
X207497600Y-126823401D01*
X207497600Y-126373401D01*
X207498561Y-126363646D01*
X207501406Y-126354267D01*
X207506027Y-126345622D01*
X207512245Y-126338046D01*
X207519821Y-126331828D01*
X207528466Y-126327207D01*
X207537845Y-126324362D01*
X207547600Y-126323401D01*
X209947600Y-126323401D01*
X209957355Y-126324362D01*
G37*
D14*
X211937600Y-127533400D03*
D15*
X210667600Y-130073401D03*
X220827600Y-130073401D03*
D16*
X221247600Y-130073401D03*
X210247600Y-130073401D03*
D17*
X215747600Y-130073401D03*
D14*
X218287600Y-124993401D03*
X215747600Y-135973401D03*
X210747600Y-133773401D03*
D18*
X218547600Y-135973401D03*
D19*
X207647600Y-133773401D03*
D14*
X220747600Y-133773401D03*
X213207600Y-124993401D03*
X219557600Y-127533401D03*
D22*
X107000000Y-107000000D03*
X107000000Y-102000000D03*
D25*
X100000000Y-110100000D03*
X100000000Y-98900000D03*
D22*
X92500000Y-107000000D03*
X92500000Y-104500000D03*
X92500000Y-102000000D03*
D24*
X105000000Y-114800000D03*
X205800000Y-61800000D03*
D26*
X107900000Y-81100000D03*
X107900000Y-78600000D03*
X107900000Y-76000000D03*
D27*
X96500000Y-87400000D03*
X89500000Y-87400000D03*
D28*
X98300000Y-89500000D03*
X99800000Y-85300000D03*
X91300000Y-89500000D03*
X94300000Y-89500000D03*
D27*
X89500000Y-85650000D03*
X96500000Y-85650000D03*
D28*
X91300000Y-83550000D03*
X94300000Y-83550000D03*
X98300000Y-83550000D03*
X99800000Y-87750000D03*
D29*
X93478815Y-47505745D03*
X108718815Y-65285745D03*
X93478815Y-57665745D03*
X108718815Y-55125745D03*
X108718815Y-50045745D03*
X93478815Y-67825745D03*
X108718815Y-47505745D03*
X108718815Y-42425745D03*
X93478815Y-62745745D03*
X108718815Y-70365745D03*
X93478815Y-55125745D03*
X93478815Y-44965745D03*
X93478815Y-50045745D03*
X93478815Y-52585745D03*
X93478815Y-65285745D03*
X93478815Y-60205745D03*
X108718815Y-62745745D03*
X108718815Y-60205745D03*
X93478815Y-70365745D03*
X108718815Y-67825745D03*
X108718815Y-44965745D03*
X93478815Y-42425745D03*
X108718815Y-57665745D03*
X108718815Y-52585745D03*
X92180000Y-41230000D03*
X92180000Y-43770000D03*
X92180000Y-46310000D03*
X92180000Y-48850000D03*
X92180000Y-51390000D03*
X92180000Y-53930000D03*
X92180000Y-56470000D03*
X92180000Y-59010000D03*
X92180000Y-61550000D03*
X92180000Y-64090000D03*
X92180000Y-66630000D03*
X92180000Y-69170000D03*
X107420000Y-69170000D03*
X107420000Y-66630000D03*
X107420000Y-64090000D03*
X107420000Y-61550000D03*
X107420000Y-59010000D03*
X107420000Y-56470000D03*
X107420000Y-53930000D03*
X107420000Y-51390000D03*
X107420000Y-48850000D03*
X107420000Y-46310000D03*
X107420000Y-43770000D03*
X107420000Y-41230000D03*
M02*
