G04 #@! TF.GenerationSoftware,KiCad,Pcbnew,(5.1.12-1-10_14)*
G04 #@! TF.CreationDate,2021-12-27T15:41:04+00:00*
G04 #@! TF.ProjectId,SofleKeyboard,536f666c-654b-4657-9962-6f6172642e6b,rev?*
G04 #@! TF.SameCoordinates,Original*
G04 #@! TF.FileFunction,Paste,Top*
G04 #@! TF.FilePolarity,Positive*
%FSLAX46Y46*%
G04 Gerber Fmt 4.6, Leading zero omitted, Abs format (unit mm)*
G04 Created by KiCad (PCBNEW (5.1.12-1-10_14)) date 2021-12-27 15:41:04*
%MOMM*%
%LPD*%
G01*
G04 APERTURE LIST*
%ADD10C,0.100000*%
%ADD11R,2.000000X2.000000*%
%ADD12R,1.800000X2.000000*%
%ADD13R,1.143000X0.635000*%
G04 APERTURE END LIST*
D10*
G36*
X192209755Y-103150961D02*
G01*
X192219134Y-103153806D01*
X192227779Y-103158427D01*
X192235355Y-103164645D01*
X192241573Y-103172221D01*
X192246194Y-103180866D01*
X192249039Y-103190245D01*
X192250000Y-103200000D01*
X192250000Y-105200000D01*
X192249039Y-105209755D01*
X192246194Y-105219134D01*
X192241573Y-105227779D01*
X192235355Y-105235355D01*
X192227735Y-105241603D01*
X191627735Y-105641603D01*
X191619086Y-105646214D01*
X191609703Y-105649049D01*
X191600000Y-105650000D01*
X189800000Y-105650000D01*
X189790245Y-105649039D01*
X189780866Y-105646194D01*
X189772221Y-105641573D01*
X189764645Y-105635355D01*
X189758427Y-105627779D01*
X189753806Y-105619134D01*
X189750961Y-105609755D01*
X189750000Y-105600000D01*
X189750000Y-105150000D01*
X189150000Y-105150000D01*
X189150000Y-103650000D01*
X189750000Y-103650000D01*
X189750000Y-103200000D01*
X189750961Y-103190245D01*
X189753806Y-103180866D01*
X189758427Y-103172221D01*
X189764645Y-103164645D01*
X189772221Y-103158427D01*
X189780866Y-103153806D01*
X189790245Y-103150961D01*
X189800000Y-103150000D01*
X192200000Y-103150000D01*
X192209755Y-103150961D01*
G37*
G36*
X204809755Y-105750961D02*
G01*
X204819134Y-105753806D01*
X204827779Y-105758427D01*
X204835355Y-105764645D01*
X204841573Y-105772221D01*
X204846194Y-105780866D01*
X204849039Y-105790245D01*
X204850000Y-105800000D01*
X204850000Y-106250000D01*
X205550000Y-106250000D01*
X205550000Y-107750000D01*
X204850000Y-107750000D01*
X204850000Y-108200000D01*
X204849039Y-108209755D01*
X204846194Y-108219134D01*
X204841573Y-108227779D01*
X204835355Y-108235355D01*
X204827779Y-108241573D01*
X204819134Y-108246194D01*
X204809755Y-108249039D01*
X204800000Y-108250000D01*
X202400000Y-108250000D01*
X202390245Y-108249039D01*
X202380866Y-108246194D01*
X202372221Y-108241573D01*
X202364645Y-108235355D01*
X202358427Y-108227779D01*
X202353806Y-108219134D01*
X202350961Y-108209755D01*
X202350000Y-108200000D01*
X202350000Y-105800000D01*
X202350961Y-105790245D01*
X202353806Y-105780866D01*
X202358427Y-105772221D01*
X202364645Y-105764645D01*
X202372221Y-105758427D01*
X202380866Y-105753806D01*
X202390245Y-105750961D01*
X202400000Y-105750000D01*
X204800000Y-105750000D01*
X204809755Y-105750961D01*
G37*
D11*
X204800000Y-113200000D03*
D12*
X193900000Y-115400000D03*
D13*
X94000000Y-74499620D03*
X94000000Y-75500380D03*
X96700000Y-68799620D03*
X96700000Y-69800380D03*
X99200000Y-68799620D03*
X99200000Y-69800380D03*
X101700000Y-68799620D03*
X101700000Y-69800380D03*
X104300000Y-68799620D03*
X104300000Y-69800380D03*
D10*
G36*
X116009755Y-43650961D02*
G01*
X116019134Y-43653806D01*
X116027779Y-43658427D01*
X116035355Y-43664645D01*
X116041573Y-43672221D01*
X116046194Y-43680866D01*
X116049039Y-43690245D01*
X116050000Y-43700000D01*
X116050000Y-45700000D01*
X116049039Y-45709755D01*
X116046194Y-45719134D01*
X116041573Y-45727779D01*
X116035355Y-45735355D01*
X116027735Y-45741603D01*
X115427735Y-46141603D01*
X115419086Y-46146214D01*
X115409703Y-46149049D01*
X115400000Y-46150000D01*
X113600000Y-46150000D01*
X113590245Y-46149039D01*
X113580866Y-46146194D01*
X113572221Y-46141573D01*
X113564645Y-46135355D01*
X113558427Y-46127779D01*
X113553806Y-46119134D01*
X113550961Y-46109755D01*
X113550000Y-46100000D01*
X113550000Y-45650000D01*
X112950000Y-45650000D01*
X112950000Y-44150000D01*
X113550000Y-44150000D01*
X113550000Y-43700000D01*
X113550961Y-43690245D01*
X113553806Y-43680866D01*
X113558427Y-43672221D01*
X113564645Y-43664645D01*
X113572221Y-43658427D01*
X113580866Y-43653806D01*
X113590245Y-43650961D01*
X113600000Y-43650000D01*
X116000000Y-43650000D01*
X116009755Y-43650961D01*
G37*
G36*
X128609755Y-46250961D02*
G01*
X128619134Y-46253806D01*
X128627779Y-46258427D01*
X128635355Y-46264645D01*
X128641573Y-46272221D01*
X128646194Y-46280866D01*
X128649039Y-46290245D01*
X128650000Y-46300000D01*
X128650000Y-46750000D01*
X129350000Y-46750000D01*
X129350000Y-48250000D01*
X128650000Y-48250000D01*
X128650000Y-48700000D01*
X128649039Y-48709755D01*
X128646194Y-48719134D01*
X128641573Y-48727779D01*
X128635355Y-48735355D01*
X128627779Y-48741573D01*
X128619134Y-48746194D01*
X128609755Y-48749039D01*
X128600000Y-48750000D01*
X126200000Y-48750000D01*
X126190245Y-48749039D01*
X126180866Y-48746194D01*
X126172221Y-48741573D01*
X126164645Y-48735355D01*
X126158427Y-48727779D01*
X126153806Y-48719134D01*
X126150961Y-48709755D01*
X126150000Y-48700000D01*
X126150000Y-46300000D01*
X126150961Y-46290245D01*
X126153806Y-46280866D01*
X126158427Y-46272221D01*
X126164645Y-46264645D01*
X126172221Y-46258427D01*
X126180866Y-46253806D01*
X126190245Y-46250961D01*
X126200000Y-46250000D01*
X128600000Y-46250000D01*
X128609755Y-46250961D01*
G37*
D11*
X128600000Y-53700000D03*
D12*
X117700000Y-55900000D03*
D10*
G36*
X135009755Y-41250961D02*
G01*
X135019134Y-41253806D01*
X135027779Y-41258427D01*
X135035355Y-41264645D01*
X135041573Y-41272221D01*
X135046194Y-41280866D01*
X135049039Y-41290245D01*
X135050000Y-41300000D01*
X135050000Y-43300000D01*
X135049039Y-43309755D01*
X135046194Y-43319134D01*
X135041573Y-43327779D01*
X135035355Y-43335355D01*
X135027735Y-43341603D01*
X134427735Y-43741603D01*
X134419086Y-43746214D01*
X134409703Y-43749049D01*
X134400000Y-43750000D01*
X132600000Y-43750000D01*
X132590245Y-43749039D01*
X132580866Y-43746194D01*
X132572221Y-43741573D01*
X132564645Y-43735355D01*
X132558427Y-43727779D01*
X132553806Y-43719134D01*
X132550961Y-43709755D01*
X132550000Y-43700000D01*
X132550000Y-43250000D01*
X131950000Y-43250000D01*
X131950000Y-41750000D01*
X132550000Y-41750000D01*
X132550000Y-41300000D01*
X132550961Y-41290245D01*
X132553806Y-41280866D01*
X132558427Y-41272221D01*
X132564645Y-41264645D01*
X132572221Y-41258427D01*
X132580866Y-41253806D01*
X132590245Y-41250961D01*
X132600000Y-41250000D01*
X135000000Y-41250000D01*
X135009755Y-41250961D01*
G37*
G36*
X147609755Y-43850961D02*
G01*
X147619134Y-43853806D01*
X147627779Y-43858427D01*
X147635355Y-43864645D01*
X147641573Y-43872221D01*
X147646194Y-43880866D01*
X147649039Y-43890245D01*
X147650000Y-43900000D01*
X147650000Y-44350000D01*
X148350000Y-44350000D01*
X148350000Y-45850000D01*
X147650000Y-45850000D01*
X147650000Y-46300000D01*
X147649039Y-46309755D01*
X147646194Y-46319134D01*
X147641573Y-46327779D01*
X147635355Y-46335355D01*
X147627779Y-46341573D01*
X147619134Y-46346194D01*
X147609755Y-46349039D01*
X147600000Y-46350000D01*
X145200000Y-46350000D01*
X145190245Y-46349039D01*
X145180866Y-46346194D01*
X145172221Y-46341573D01*
X145164645Y-46335355D01*
X145158427Y-46327779D01*
X145153806Y-46319134D01*
X145150961Y-46309755D01*
X145150000Y-46300000D01*
X145150000Y-43900000D01*
X145150961Y-43890245D01*
X145153806Y-43880866D01*
X145158427Y-43872221D01*
X145164645Y-43864645D01*
X145172221Y-43858427D01*
X145180866Y-43853806D01*
X145190245Y-43850961D01*
X145200000Y-43850000D01*
X147600000Y-43850000D01*
X147609755Y-43850961D01*
G37*
D11*
X147600000Y-51300000D03*
D12*
X136700000Y-53500000D03*
D10*
G36*
X154109755Y-39860961D02*
G01*
X154119134Y-39863806D01*
X154127779Y-39868427D01*
X154135355Y-39874645D01*
X154141573Y-39882221D01*
X154146194Y-39890866D01*
X154149039Y-39900245D01*
X154150000Y-39910000D01*
X154150000Y-41910000D01*
X154149039Y-41919755D01*
X154146194Y-41929134D01*
X154141573Y-41937779D01*
X154135355Y-41945355D01*
X154127735Y-41951603D01*
X153527735Y-42351603D01*
X153519086Y-42356214D01*
X153509703Y-42359049D01*
X153500000Y-42360000D01*
X151700000Y-42360000D01*
X151690245Y-42359039D01*
X151680866Y-42356194D01*
X151672221Y-42351573D01*
X151664645Y-42345355D01*
X151658427Y-42337779D01*
X151653806Y-42329134D01*
X151650961Y-42319755D01*
X151650000Y-42310000D01*
X151650000Y-41860000D01*
X151050000Y-41860000D01*
X151050000Y-40360000D01*
X151650000Y-40360000D01*
X151650000Y-39910000D01*
X151650961Y-39900245D01*
X151653806Y-39890866D01*
X151658427Y-39882221D01*
X151664645Y-39874645D01*
X151672221Y-39868427D01*
X151680866Y-39863806D01*
X151690245Y-39860961D01*
X151700000Y-39860000D01*
X154100000Y-39860000D01*
X154109755Y-39860961D01*
G37*
G36*
X166709755Y-42460961D02*
G01*
X166719134Y-42463806D01*
X166727779Y-42468427D01*
X166735355Y-42474645D01*
X166741573Y-42482221D01*
X166746194Y-42490866D01*
X166749039Y-42500245D01*
X166750000Y-42510000D01*
X166750000Y-42960000D01*
X167450000Y-42960000D01*
X167450000Y-44460000D01*
X166750000Y-44460000D01*
X166750000Y-44910000D01*
X166749039Y-44919755D01*
X166746194Y-44929134D01*
X166741573Y-44937779D01*
X166735355Y-44945355D01*
X166727779Y-44951573D01*
X166719134Y-44956194D01*
X166709755Y-44959039D01*
X166700000Y-44960000D01*
X164300000Y-44960000D01*
X164290245Y-44959039D01*
X164280866Y-44956194D01*
X164272221Y-44951573D01*
X164264645Y-44945355D01*
X164258427Y-44937779D01*
X164253806Y-44929134D01*
X164250961Y-44919755D01*
X164250000Y-44910000D01*
X164250000Y-42510000D01*
X164250961Y-42500245D01*
X164253806Y-42490866D01*
X164258427Y-42482221D01*
X164264645Y-42474645D01*
X164272221Y-42468427D01*
X164280866Y-42463806D01*
X164290245Y-42460961D01*
X164300000Y-42460000D01*
X166700000Y-42460000D01*
X166709755Y-42460961D01*
G37*
D11*
X166700000Y-49910000D03*
D12*
X155800000Y-52110000D03*
D10*
G36*
X173109755Y-41250961D02*
G01*
X173119134Y-41253806D01*
X173127779Y-41258427D01*
X173135355Y-41264645D01*
X173141573Y-41272221D01*
X173146194Y-41280866D01*
X173149039Y-41290245D01*
X173150000Y-41300000D01*
X173150000Y-43300000D01*
X173149039Y-43309755D01*
X173146194Y-43319134D01*
X173141573Y-43327779D01*
X173135355Y-43335355D01*
X173127735Y-43341603D01*
X172527735Y-43741603D01*
X172519086Y-43746214D01*
X172509703Y-43749049D01*
X172500000Y-43750000D01*
X170700000Y-43750000D01*
X170690245Y-43749039D01*
X170680866Y-43746194D01*
X170672221Y-43741573D01*
X170664645Y-43735355D01*
X170658427Y-43727779D01*
X170653806Y-43719134D01*
X170650961Y-43709755D01*
X170650000Y-43700000D01*
X170650000Y-43250000D01*
X170050000Y-43250000D01*
X170050000Y-41750000D01*
X170650000Y-41750000D01*
X170650000Y-41300000D01*
X170650961Y-41290245D01*
X170653806Y-41280866D01*
X170658427Y-41272221D01*
X170664645Y-41264645D01*
X170672221Y-41258427D01*
X170680866Y-41253806D01*
X170690245Y-41250961D01*
X170700000Y-41250000D01*
X173100000Y-41250000D01*
X173109755Y-41250961D01*
G37*
G36*
X185709755Y-43850961D02*
G01*
X185719134Y-43853806D01*
X185727779Y-43858427D01*
X185735355Y-43864645D01*
X185741573Y-43872221D01*
X185746194Y-43880866D01*
X185749039Y-43890245D01*
X185750000Y-43900000D01*
X185750000Y-44350000D01*
X186450000Y-44350000D01*
X186450000Y-45850000D01*
X185750000Y-45850000D01*
X185750000Y-46300000D01*
X185749039Y-46309755D01*
X185746194Y-46319134D01*
X185741573Y-46327779D01*
X185735355Y-46335355D01*
X185727779Y-46341573D01*
X185719134Y-46346194D01*
X185709755Y-46349039D01*
X185700000Y-46350000D01*
X183300000Y-46350000D01*
X183290245Y-46349039D01*
X183280866Y-46346194D01*
X183272221Y-46341573D01*
X183264645Y-46335355D01*
X183258427Y-46327779D01*
X183253806Y-46319134D01*
X183250961Y-46309755D01*
X183250000Y-46300000D01*
X183250000Y-43900000D01*
X183250961Y-43890245D01*
X183253806Y-43880866D01*
X183258427Y-43872221D01*
X183264645Y-43864645D01*
X183272221Y-43858427D01*
X183280866Y-43853806D01*
X183290245Y-43850961D01*
X183300000Y-43850000D01*
X185700000Y-43850000D01*
X185709755Y-43850961D01*
G37*
D11*
X185700000Y-51300000D03*
D12*
X174800000Y-53500000D03*
D10*
G36*
X192209755Y-46050961D02*
G01*
X192219134Y-46053806D01*
X192227779Y-46058427D01*
X192235355Y-46064645D01*
X192241573Y-46072221D01*
X192246194Y-46080866D01*
X192249039Y-46090245D01*
X192250000Y-46100000D01*
X192250000Y-48100000D01*
X192249039Y-48109755D01*
X192246194Y-48119134D01*
X192241573Y-48127779D01*
X192235355Y-48135355D01*
X192227735Y-48141603D01*
X191627735Y-48541603D01*
X191619086Y-48546214D01*
X191609703Y-48549049D01*
X191600000Y-48550000D01*
X189800000Y-48550000D01*
X189790245Y-48549039D01*
X189780866Y-48546194D01*
X189772221Y-48541573D01*
X189764645Y-48535355D01*
X189758427Y-48527779D01*
X189753806Y-48519134D01*
X189750961Y-48509755D01*
X189750000Y-48500000D01*
X189750000Y-48050000D01*
X189150000Y-48050000D01*
X189150000Y-46550000D01*
X189750000Y-46550000D01*
X189750000Y-46100000D01*
X189750961Y-46090245D01*
X189753806Y-46080866D01*
X189758427Y-46072221D01*
X189764645Y-46064645D01*
X189772221Y-46058427D01*
X189780866Y-46053806D01*
X189790245Y-46050961D01*
X189800000Y-46050000D01*
X192200000Y-46050000D01*
X192209755Y-46050961D01*
G37*
G36*
X204809755Y-48650961D02*
G01*
X204819134Y-48653806D01*
X204827779Y-48658427D01*
X204835355Y-48664645D01*
X204841573Y-48672221D01*
X204846194Y-48680866D01*
X204849039Y-48690245D01*
X204850000Y-48700000D01*
X204850000Y-49150000D01*
X205550000Y-49150000D01*
X205550000Y-50650000D01*
X204850000Y-50650000D01*
X204850000Y-51100000D01*
X204849039Y-51109755D01*
X204846194Y-51119134D01*
X204841573Y-51127779D01*
X204835355Y-51135355D01*
X204827779Y-51141573D01*
X204819134Y-51146194D01*
X204809755Y-51149039D01*
X204800000Y-51150000D01*
X202400000Y-51150000D01*
X202390245Y-51149039D01*
X202380866Y-51146194D01*
X202372221Y-51141573D01*
X202364645Y-51135355D01*
X202358427Y-51127779D01*
X202353806Y-51119134D01*
X202350961Y-51109755D01*
X202350000Y-51100000D01*
X202350000Y-48700000D01*
X202350961Y-48690245D01*
X202353806Y-48680866D01*
X202358427Y-48672221D01*
X202364645Y-48664645D01*
X202372221Y-48658427D01*
X202380866Y-48653806D01*
X202390245Y-48650961D01*
X202400000Y-48650000D01*
X204800000Y-48650000D01*
X204809755Y-48650961D01*
G37*
D11*
X204800000Y-56100000D03*
D12*
X193900000Y-58300000D03*
D10*
G36*
X211209755Y-47550961D02*
G01*
X211219134Y-47553806D01*
X211227779Y-47558427D01*
X211235355Y-47564645D01*
X211241573Y-47572221D01*
X211246194Y-47580866D01*
X211249039Y-47590245D01*
X211250000Y-47600000D01*
X211250000Y-49600000D01*
X211249039Y-49609755D01*
X211246194Y-49619134D01*
X211241573Y-49627779D01*
X211235355Y-49635355D01*
X211227735Y-49641603D01*
X210627735Y-50041603D01*
X210619086Y-50046214D01*
X210609703Y-50049049D01*
X210600000Y-50050000D01*
X208800000Y-50050000D01*
X208790245Y-50049039D01*
X208780866Y-50046194D01*
X208772221Y-50041573D01*
X208764645Y-50035355D01*
X208758427Y-50027779D01*
X208753806Y-50019134D01*
X208750961Y-50009755D01*
X208750000Y-50000000D01*
X208750000Y-49550000D01*
X208150000Y-49550000D01*
X208150000Y-48050000D01*
X208750000Y-48050000D01*
X208750000Y-47600000D01*
X208750961Y-47590245D01*
X208753806Y-47580866D01*
X208758427Y-47572221D01*
X208764645Y-47564645D01*
X208772221Y-47558427D01*
X208780866Y-47553806D01*
X208790245Y-47550961D01*
X208800000Y-47550000D01*
X211200000Y-47550000D01*
X211209755Y-47550961D01*
G37*
G36*
X223809755Y-50150961D02*
G01*
X223819134Y-50153806D01*
X223827779Y-50158427D01*
X223835355Y-50164645D01*
X223841573Y-50172221D01*
X223846194Y-50180866D01*
X223849039Y-50190245D01*
X223850000Y-50200000D01*
X223850000Y-50650000D01*
X224550000Y-50650000D01*
X224550000Y-52150000D01*
X223850000Y-52150000D01*
X223850000Y-52600000D01*
X223849039Y-52609755D01*
X223846194Y-52619134D01*
X223841573Y-52627779D01*
X223835355Y-52635355D01*
X223827779Y-52641573D01*
X223819134Y-52646194D01*
X223809755Y-52649039D01*
X223800000Y-52650000D01*
X221400000Y-52650000D01*
X221390245Y-52649039D01*
X221380866Y-52646194D01*
X221372221Y-52641573D01*
X221364645Y-52635355D01*
X221358427Y-52627779D01*
X221353806Y-52619134D01*
X221350961Y-52609755D01*
X221350000Y-52600000D01*
X221350000Y-50200000D01*
X221350961Y-50190245D01*
X221353806Y-50180866D01*
X221358427Y-50172221D01*
X221364645Y-50164645D01*
X221372221Y-50158427D01*
X221380866Y-50153806D01*
X221390245Y-50150961D01*
X221400000Y-50150000D01*
X223800000Y-50150000D01*
X223809755Y-50150961D01*
G37*
D11*
X223800000Y-57600000D03*
D12*
X212900000Y-59800000D03*
D10*
G36*
X116009755Y-62750961D02*
G01*
X116019134Y-62753806D01*
X116027779Y-62758427D01*
X116035355Y-62764645D01*
X116041573Y-62772221D01*
X116046194Y-62780866D01*
X116049039Y-62790245D01*
X116050000Y-62800000D01*
X116050000Y-64800000D01*
X116049039Y-64809755D01*
X116046194Y-64819134D01*
X116041573Y-64827779D01*
X116035355Y-64835355D01*
X116027735Y-64841603D01*
X115427735Y-65241603D01*
X115419086Y-65246214D01*
X115409703Y-65249049D01*
X115400000Y-65250000D01*
X113600000Y-65250000D01*
X113590245Y-65249039D01*
X113580866Y-65246194D01*
X113572221Y-65241573D01*
X113564645Y-65235355D01*
X113558427Y-65227779D01*
X113553806Y-65219134D01*
X113550961Y-65209755D01*
X113550000Y-65200000D01*
X113550000Y-64750000D01*
X112950000Y-64750000D01*
X112950000Y-63250000D01*
X113550000Y-63250000D01*
X113550000Y-62800000D01*
X113550961Y-62790245D01*
X113553806Y-62780866D01*
X113558427Y-62772221D01*
X113564645Y-62764645D01*
X113572221Y-62758427D01*
X113580866Y-62753806D01*
X113590245Y-62750961D01*
X113600000Y-62750000D01*
X116000000Y-62750000D01*
X116009755Y-62750961D01*
G37*
G36*
X128609755Y-65350961D02*
G01*
X128619134Y-65353806D01*
X128627779Y-65358427D01*
X128635355Y-65364645D01*
X128641573Y-65372221D01*
X128646194Y-65380866D01*
X128649039Y-65390245D01*
X128650000Y-65400000D01*
X128650000Y-65850000D01*
X129350000Y-65850000D01*
X129350000Y-67350000D01*
X128650000Y-67350000D01*
X128650000Y-67800000D01*
X128649039Y-67809755D01*
X128646194Y-67819134D01*
X128641573Y-67827779D01*
X128635355Y-67835355D01*
X128627779Y-67841573D01*
X128619134Y-67846194D01*
X128609755Y-67849039D01*
X128600000Y-67850000D01*
X126200000Y-67850000D01*
X126190245Y-67849039D01*
X126180866Y-67846194D01*
X126172221Y-67841573D01*
X126164645Y-67835355D01*
X126158427Y-67827779D01*
X126153806Y-67819134D01*
X126150961Y-67809755D01*
X126150000Y-67800000D01*
X126150000Y-65400000D01*
X126150961Y-65390245D01*
X126153806Y-65380866D01*
X126158427Y-65372221D01*
X126164645Y-65364645D01*
X126172221Y-65358427D01*
X126180866Y-65353806D01*
X126190245Y-65350961D01*
X126200000Y-65350000D01*
X128600000Y-65350000D01*
X128609755Y-65350961D01*
G37*
D11*
X128600000Y-72800000D03*
D12*
X117700000Y-75000000D03*
D10*
G36*
X135009755Y-60350961D02*
G01*
X135019134Y-60353806D01*
X135027779Y-60358427D01*
X135035355Y-60364645D01*
X135041573Y-60372221D01*
X135046194Y-60380866D01*
X135049039Y-60390245D01*
X135050000Y-60400000D01*
X135050000Y-62400000D01*
X135049039Y-62409755D01*
X135046194Y-62419134D01*
X135041573Y-62427779D01*
X135035355Y-62435355D01*
X135027735Y-62441603D01*
X134427735Y-62841603D01*
X134419086Y-62846214D01*
X134409703Y-62849049D01*
X134400000Y-62850000D01*
X132600000Y-62850000D01*
X132590245Y-62849039D01*
X132580866Y-62846194D01*
X132572221Y-62841573D01*
X132564645Y-62835355D01*
X132558427Y-62827779D01*
X132553806Y-62819134D01*
X132550961Y-62809755D01*
X132550000Y-62800000D01*
X132550000Y-62350000D01*
X131950000Y-62350000D01*
X131950000Y-60850000D01*
X132550000Y-60850000D01*
X132550000Y-60400000D01*
X132550961Y-60390245D01*
X132553806Y-60380866D01*
X132558427Y-60372221D01*
X132564645Y-60364645D01*
X132572221Y-60358427D01*
X132580866Y-60353806D01*
X132590245Y-60350961D01*
X132600000Y-60350000D01*
X135000000Y-60350000D01*
X135009755Y-60350961D01*
G37*
G36*
X147609755Y-62950961D02*
G01*
X147619134Y-62953806D01*
X147627779Y-62958427D01*
X147635355Y-62964645D01*
X147641573Y-62972221D01*
X147646194Y-62980866D01*
X147649039Y-62990245D01*
X147650000Y-63000000D01*
X147650000Y-63450000D01*
X148350000Y-63450000D01*
X148350000Y-64950000D01*
X147650000Y-64950000D01*
X147650000Y-65400000D01*
X147649039Y-65409755D01*
X147646194Y-65419134D01*
X147641573Y-65427779D01*
X147635355Y-65435355D01*
X147627779Y-65441573D01*
X147619134Y-65446194D01*
X147609755Y-65449039D01*
X147600000Y-65450000D01*
X145200000Y-65450000D01*
X145190245Y-65449039D01*
X145180866Y-65446194D01*
X145172221Y-65441573D01*
X145164645Y-65435355D01*
X145158427Y-65427779D01*
X145153806Y-65419134D01*
X145150961Y-65409755D01*
X145150000Y-65400000D01*
X145150000Y-63000000D01*
X145150961Y-62990245D01*
X145153806Y-62980866D01*
X145158427Y-62972221D01*
X145164645Y-62964645D01*
X145172221Y-62958427D01*
X145180866Y-62953806D01*
X145190245Y-62950961D01*
X145200000Y-62950000D01*
X147600000Y-62950000D01*
X147609755Y-62950961D01*
G37*
D11*
X147600000Y-70400000D03*
D12*
X136700000Y-72600000D03*
D10*
G36*
X154109755Y-58950961D02*
G01*
X154119134Y-58953806D01*
X154127779Y-58958427D01*
X154135355Y-58964645D01*
X154141573Y-58972221D01*
X154146194Y-58980866D01*
X154149039Y-58990245D01*
X154150000Y-59000000D01*
X154150000Y-61000000D01*
X154149039Y-61009755D01*
X154146194Y-61019134D01*
X154141573Y-61027779D01*
X154135355Y-61035355D01*
X154127735Y-61041603D01*
X153527735Y-61441603D01*
X153519086Y-61446214D01*
X153509703Y-61449049D01*
X153500000Y-61450000D01*
X151700000Y-61450000D01*
X151690245Y-61449039D01*
X151680866Y-61446194D01*
X151672221Y-61441573D01*
X151664645Y-61435355D01*
X151658427Y-61427779D01*
X151653806Y-61419134D01*
X151650961Y-61409755D01*
X151650000Y-61400000D01*
X151650000Y-60950000D01*
X151050000Y-60950000D01*
X151050000Y-59450000D01*
X151650000Y-59450000D01*
X151650000Y-59000000D01*
X151650961Y-58990245D01*
X151653806Y-58980866D01*
X151658427Y-58972221D01*
X151664645Y-58964645D01*
X151672221Y-58958427D01*
X151680866Y-58953806D01*
X151690245Y-58950961D01*
X151700000Y-58950000D01*
X154100000Y-58950000D01*
X154109755Y-58950961D01*
G37*
G36*
X166709755Y-61550961D02*
G01*
X166719134Y-61553806D01*
X166727779Y-61558427D01*
X166735355Y-61564645D01*
X166741573Y-61572221D01*
X166746194Y-61580866D01*
X166749039Y-61590245D01*
X166750000Y-61600000D01*
X166750000Y-62050000D01*
X167450000Y-62050000D01*
X167450000Y-63550000D01*
X166750000Y-63550000D01*
X166750000Y-64000000D01*
X166749039Y-64009755D01*
X166746194Y-64019134D01*
X166741573Y-64027779D01*
X166735355Y-64035355D01*
X166727779Y-64041573D01*
X166719134Y-64046194D01*
X166709755Y-64049039D01*
X166700000Y-64050000D01*
X164300000Y-64050000D01*
X164290245Y-64049039D01*
X164280866Y-64046194D01*
X164272221Y-64041573D01*
X164264645Y-64035355D01*
X164258427Y-64027779D01*
X164253806Y-64019134D01*
X164250961Y-64009755D01*
X164250000Y-64000000D01*
X164250000Y-61600000D01*
X164250961Y-61590245D01*
X164253806Y-61580866D01*
X164258427Y-61572221D01*
X164264645Y-61564645D01*
X164272221Y-61558427D01*
X164280866Y-61553806D01*
X164290245Y-61550961D01*
X164300000Y-61550000D01*
X166700000Y-61550000D01*
X166709755Y-61550961D01*
G37*
D11*
X166700000Y-69000000D03*
D12*
X155800000Y-71200000D03*
D10*
G36*
X173109755Y-60250961D02*
G01*
X173119134Y-60253806D01*
X173127779Y-60258427D01*
X173135355Y-60264645D01*
X173141573Y-60272221D01*
X173146194Y-60280866D01*
X173149039Y-60290245D01*
X173150000Y-60300000D01*
X173150000Y-62300000D01*
X173149039Y-62309755D01*
X173146194Y-62319134D01*
X173141573Y-62327779D01*
X173135355Y-62335355D01*
X173127735Y-62341603D01*
X172527735Y-62741603D01*
X172519086Y-62746214D01*
X172509703Y-62749049D01*
X172500000Y-62750000D01*
X170700000Y-62750000D01*
X170690245Y-62749039D01*
X170680866Y-62746194D01*
X170672221Y-62741573D01*
X170664645Y-62735355D01*
X170658427Y-62727779D01*
X170653806Y-62719134D01*
X170650961Y-62709755D01*
X170650000Y-62700000D01*
X170650000Y-62250000D01*
X170050000Y-62250000D01*
X170050000Y-60750000D01*
X170650000Y-60750000D01*
X170650000Y-60300000D01*
X170650961Y-60290245D01*
X170653806Y-60280866D01*
X170658427Y-60272221D01*
X170664645Y-60264645D01*
X170672221Y-60258427D01*
X170680866Y-60253806D01*
X170690245Y-60250961D01*
X170700000Y-60250000D01*
X173100000Y-60250000D01*
X173109755Y-60250961D01*
G37*
G36*
X185709755Y-62850961D02*
G01*
X185719134Y-62853806D01*
X185727779Y-62858427D01*
X185735355Y-62864645D01*
X185741573Y-62872221D01*
X185746194Y-62880866D01*
X185749039Y-62890245D01*
X185750000Y-62900000D01*
X185750000Y-63350000D01*
X186450000Y-63350000D01*
X186450000Y-64850000D01*
X185750000Y-64850000D01*
X185750000Y-65300000D01*
X185749039Y-65309755D01*
X185746194Y-65319134D01*
X185741573Y-65327779D01*
X185735355Y-65335355D01*
X185727779Y-65341573D01*
X185719134Y-65346194D01*
X185709755Y-65349039D01*
X185700000Y-65350000D01*
X183300000Y-65350000D01*
X183290245Y-65349039D01*
X183280866Y-65346194D01*
X183272221Y-65341573D01*
X183264645Y-65335355D01*
X183258427Y-65327779D01*
X183253806Y-65319134D01*
X183250961Y-65309755D01*
X183250000Y-65300000D01*
X183250000Y-62900000D01*
X183250961Y-62890245D01*
X183253806Y-62880866D01*
X183258427Y-62872221D01*
X183264645Y-62864645D01*
X183272221Y-62858427D01*
X183280866Y-62853806D01*
X183290245Y-62850961D01*
X183300000Y-62850000D01*
X185700000Y-62850000D01*
X185709755Y-62850961D01*
G37*
D11*
X185700000Y-70300000D03*
D12*
X174800000Y-72500000D03*
D10*
G36*
X192209755Y-64950961D02*
G01*
X192219134Y-64953806D01*
X192227779Y-64958427D01*
X192235355Y-64964645D01*
X192241573Y-64972221D01*
X192246194Y-64980866D01*
X192249039Y-64990245D01*
X192250000Y-65000000D01*
X192250000Y-67000000D01*
X192249039Y-67009755D01*
X192246194Y-67019134D01*
X192241573Y-67027779D01*
X192235355Y-67035355D01*
X192227735Y-67041603D01*
X191627735Y-67441603D01*
X191619086Y-67446214D01*
X191609703Y-67449049D01*
X191600000Y-67450000D01*
X189800000Y-67450000D01*
X189790245Y-67449039D01*
X189780866Y-67446194D01*
X189772221Y-67441573D01*
X189764645Y-67435355D01*
X189758427Y-67427779D01*
X189753806Y-67419134D01*
X189750961Y-67409755D01*
X189750000Y-67400000D01*
X189750000Y-66950000D01*
X189150000Y-66950000D01*
X189150000Y-65450000D01*
X189750000Y-65450000D01*
X189750000Y-65000000D01*
X189750961Y-64990245D01*
X189753806Y-64980866D01*
X189758427Y-64972221D01*
X189764645Y-64964645D01*
X189772221Y-64958427D01*
X189780866Y-64953806D01*
X189790245Y-64950961D01*
X189800000Y-64950000D01*
X192200000Y-64950000D01*
X192209755Y-64950961D01*
G37*
G36*
X204809755Y-67550961D02*
G01*
X204819134Y-67553806D01*
X204827779Y-67558427D01*
X204835355Y-67564645D01*
X204841573Y-67572221D01*
X204846194Y-67580866D01*
X204849039Y-67590245D01*
X204850000Y-67600000D01*
X204850000Y-68050000D01*
X205550000Y-68050000D01*
X205550000Y-69550000D01*
X204850000Y-69550000D01*
X204850000Y-70000000D01*
X204849039Y-70009755D01*
X204846194Y-70019134D01*
X204841573Y-70027779D01*
X204835355Y-70035355D01*
X204827779Y-70041573D01*
X204819134Y-70046194D01*
X204809755Y-70049039D01*
X204800000Y-70050000D01*
X202400000Y-70050000D01*
X202390245Y-70049039D01*
X202380866Y-70046194D01*
X202372221Y-70041573D01*
X202364645Y-70035355D01*
X202358427Y-70027779D01*
X202353806Y-70019134D01*
X202350961Y-70009755D01*
X202350000Y-70000000D01*
X202350000Y-67600000D01*
X202350961Y-67590245D01*
X202353806Y-67580866D01*
X202358427Y-67572221D01*
X202364645Y-67564645D01*
X202372221Y-67558427D01*
X202380866Y-67553806D01*
X202390245Y-67550961D01*
X202400000Y-67550000D01*
X204800000Y-67550000D01*
X204809755Y-67550961D01*
G37*
D11*
X204800000Y-75000000D03*
D12*
X193900000Y-77200000D03*
D10*
G36*
X211209755Y-66450961D02*
G01*
X211219134Y-66453806D01*
X211227779Y-66458427D01*
X211235355Y-66464645D01*
X211241573Y-66472221D01*
X211246194Y-66480866D01*
X211249039Y-66490245D01*
X211250000Y-66500000D01*
X211250000Y-68500000D01*
X211249039Y-68509755D01*
X211246194Y-68519134D01*
X211241573Y-68527779D01*
X211235355Y-68535355D01*
X211227735Y-68541603D01*
X210627735Y-68941603D01*
X210619086Y-68946214D01*
X210609703Y-68949049D01*
X210600000Y-68950000D01*
X208800000Y-68950000D01*
X208790245Y-68949039D01*
X208780866Y-68946194D01*
X208772221Y-68941573D01*
X208764645Y-68935355D01*
X208758427Y-68927779D01*
X208753806Y-68919134D01*
X208750961Y-68909755D01*
X208750000Y-68900000D01*
X208750000Y-68450000D01*
X208150000Y-68450000D01*
X208150000Y-66950000D01*
X208750000Y-66950000D01*
X208750000Y-66500000D01*
X208750961Y-66490245D01*
X208753806Y-66480866D01*
X208758427Y-66472221D01*
X208764645Y-66464645D01*
X208772221Y-66458427D01*
X208780866Y-66453806D01*
X208790245Y-66450961D01*
X208800000Y-66450000D01*
X211200000Y-66450000D01*
X211209755Y-66450961D01*
G37*
G36*
X223809755Y-69050961D02*
G01*
X223819134Y-69053806D01*
X223827779Y-69058427D01*
X223835355Y-69064645D01*
X223841573Y-69072221D01*
X223846194Y-69080866D01*
X223849039Y-69090245D01*
X223850000Y-69100000D01*
X223850000Y-69550000D01*
X224550000Y-69550000D01*
X224550000Y-71050000D01*
X223850000Y-71050000D01*
X223850000Y-71500000D01*
X223849039Y-71509755D01*
X223846194Y-71519134D01*
X223841573Y-71527779D01*
X223835355Y-71535355D01*
X223827779Y-71541573D01*
X223819134Y-71546194D01*
X223809755Y-71549039D01*
X223800000Y-71550000D01*
X221400000Y-71550000D01*
X221390245Y-71549039D01*
X221380866Y-71546194D01*
X221372221Y-71541573D01*
X221364645Y-71535355D01*
X221358427Y-71527779D01*
X221353806Y-71519134D01*
X221350961Y-71509755D01*
X221350000Y-71500000D01*
X221350000Y-69100000D01*
X221350961Y-69090245D01*
X221353806Y-69080866D01*
X221358427Y-69072221D01*
X221364645Y-69064645D01*
X221372221Y-69058427D01*
X221380866Y-69053806D01*
X221390245Y-69050961D01*
X221400000Y-69050000D01*
X223800000Y-69050000D01*
X223809755Y-69050961D01*
G37*
D11*
X223800000Y-76500000D03*
D12*
X212900000Y-78700000D03*
D10*
G36*
X116009755Y-81750961D02*
G01*
X116019134Y-81753806D01*
X116027779Y-81758427D01*
X116035355Y-81764645D01*
X116041573Y-81772221D01*
X116046194Y-81780866D01*
X116049039Y-81790245D01*
X116050000Y-81800000D01*
X116050000Y-83800000D01*
X116049039Y-83809755D01*
X116046194Y-83819134D01*
X116041573Y-83827779D01*
X116035355Y-83835355D01*
X116027735Y-83841603D01*
X115427735Y-84241603D01*
X115419086Y-84246214D01*
X115409703Y-84249049D01*
X115400000Y-84250000D01*
X113600000Y-84250000D01*
X113590245Y-84249039D01*
X113580866Y-84246194D01*
X113572221Y-84241573D01*
X113564645Y-84235355D01*
X113558427Y-84227779D01*
X113553806Y-84219134D01*
X113550961Y-84209755D01*
X113550000Y-84200000D01*
X113550000Y-83750000D01*
X112950000Y-83750000D01*
X112950000Y-82250000D01*
X113550000Y-82250000D01*
X113550000Y-81800000D01*
X113550961Y-81790245D01*
X113553806Y-81780866D01*
X113558427Y-81772221D01*
X113564645Y-81764645D01*
X113572221Y-81758427D01*
X113580866Y-81753806D01*
X113590245Y-81750961D01*
X113600000Y-81750000D01*
X116000000Y-81750000D01*
X116009755Y-81750961D01*
G37*
G36*
X128609755Y-84350961D02*
G01*
X128619134Y-84353806D01*
X128627779Y-84358427D01*
X128635355Y-84364645D01*
X128641573Y-84372221D01*
X128646194Y-84380866D01*
X128649039Y-84390245D01*
X128650000Y-84400000D01*
X128650000Y-84850000D01*
X129350000Y-84850000D01*
X129350000Y-86350000D01*
X128650000Y-86350000D01*
X128650000Y-86800000D01*
X128649039Y-86809755D01*
X128646194Y-86819134D01*
X128641573Y-86827779D01*
X128635355Y-86835355D01*
X128627779Y-86841573D01*
X128619134Y-86846194D01*
X128609755Y-86849039D01*
X128600000Y-86850000D01*
X126200000Y-86850000D01*
X126190245Y-86849039D01*
X126180866Y-86846194D01*
X126172221Y-86841573D01*
X126164645Y-86835355D01*
X126158427Y-86827779D01*
X126153806Y-86819134D01*
X126150961Y-86809755D01*
X126150000Y-86800000D01*
X126150000Y-84400000D01*
X126150961Y-84390245D01*
X126153806Y-84380866D01*
X126158427Y-84372221D01*
X126164645Y-84364645D01*
X126172221Y-84358427D01*
X126180866Y-84353806D01*
X126190245Y-84350961D01*
X126200000Y-84350000D01*
X128600000Y-84350000D01*
X128609755Y-84350961D01*
G37*
D11*
X128600000Y-91800000D03*
D12*
X117700000Y-94000000D03*
D10*
G36*
X135009755Y-79350961D02*
G01*
X135019134Y-79353806D01*
X135027779Y-79358427D01*
X135035355Y-79364645D01*
X135041573Y-79372221D01*
X135046194Y-79380866D01*
X135049039Y-79390245D01*
X135050000Y-79400000D01*
X135050000Y-81400000D01*
X135049039Y-81409755D01*
X135046194Y-81419134D01*
X135041573Y-81427779D01*
X135035355Y-81435355D01*
X135027735Y-81441603D01*
X134427735Y-81841603D01*
X134419086Y-81846214D01*
X134409703Y-81849049D01*
X134400000Y-81850000D01*
X132600000Y-81850000D01*
X132590245Y-81849039D01*
X132580866Y-81846194D01*
X132572221Y-81841573D01*
X132564645Y-81835355D01*
X132558427Y-81827779D01*
X132553806Y-81819134D01*
X132550961Y-81809755D01*
X132550000Y-81800000D01*
X132550000Y-81350000D01*
X131950000Y-81350000D01*
X131950000Y-79850000D01*
X132550000Y-79850000D01*
X132550000Y-79400000D01*
X132550961Y-79390245D01*
X132553806Y-79380866D01*
X132558427Y-79372221D01*
X132564645Y-79364645D01*
X132572221Y-79358427D01*
X132580866Y-79353806D01*
X132590245Y-79350961D01*
X132600000Y-79350000D01*
X135000000Y-79350000D01*
X135009755Y-79350961D01*
G37*
G36*
X147609755Y-81950961D02*
G01*
X147619134Y-81953806D01*
X147627779Y-81958427D01*
X147635355Y-81964645D01*
X147641573Y-81972221D01*
X147646194Y-81980866D01*
X147649039Y-81990245D01*
X147650000Y-82000000D01*
X147650000Y-82450000D01*
X148350000Y-82450000D01*
X148350000Y-83950000D01*
X147650000Y-83950000D01*
X147650000Y-84400000D01*
X147649039Y-84409755D01*
X147646194Y-84419134D01*
X147641573Y-84427779D01*
X147635355Y-84435355D01*
X147627779Y-84441573D01*
X147619134Y-84446194D01*
X147609755Y-84449039D01*
X147600000Y-84450000D01*
X145200000Y-84450000D01*
X145190245Y-84449039D01*
X145180866Y-84446194D01*
X145172221Y-84441573D01*
X145164645Y-84435355D01*
X145158427Y-84427779D01*
X145153806Y-84419134D01*
X145150961Y-84409755D01*
X145150000Y-84400000D01*
X145150000Y-82000000D01*
X145150961Y-81990245D01*
X145153806Y-81980866D01*
X145158427Y-81972221D01*
X145164645Y-81964645D01*
X145172221Y-81958427D01*
X145180866Y-81953806D01*
X145190245Y-81950961D01*
X145200000Y-81950000D01*
X147600000Y-81950000D01*
X147609755Y-81950961D01*
G37*
D11*
X147600000Y-89400000D03*
D12*
X136700000Y-91600000D03*
D10*
G36*
X154109755Y-78050961D02*
G01*
X154119134Y-78053806D01*
X154127779Y-78058427D01*
X154135355Y-78064645D01*
X154141573Y-78072221D01*
X154146194Y-78080866D01*
X154149039Y-78090245D01*
X154150000Y-78100000D01*
X154150000Y-80100000D01*
X154149039Y-80109755D01*
X154146194Y-80119134D01*
X154141573Y-80127779D01*
X154135355Y-80135355D01*
X154127735Y-80141603D01*
X153527735Y-80541603D01*
X153519086Y-80546214D01*
X153509703Y-80549049D01*
X153500000Y-80550000D01*
X151700000Y-80550000D01*
X151690245Y-80549039D01*
X151680866Y-80546194D01*
X151672221Y-80541573D01*
X151664645Y-80535355D01*
X151658427Y-80527779D01*
X151653806Y-80519134D01*
X151650961Y-80509755D01*
X151650000Y-80500000D01*
X151650000Y-80050000D01*
X151050000Y-80050000D01*
X151050000Y-78550000D01*
X151650000Y-78550000D01*
X151650000Y-78100000D01*
X151650961Y-78090245D01*
X151653806Y-78080866D01*
X151658427Y-78072221D01*
X151664645Y-78064645D01*
X151672221Y-78058427D01*
X151680866Y-78053806D01*
X151690245Y-78050961D01*
X151700000Y-78050000D01*
X154100000Y-78050000D01*
X154109755Y-78050961D01*
G37*
G36*
X166709755Y-80650961D02*
G01*
X166719134Y-80653806D01*
X166727779Y-80658427D01*
X166735355Y-80664645D01*
X166741573Y-80672221D01*
X166746194Y-80680866D01*
X166749039Y-80690245D01*
X166750000Y-80700000D01*
X166750000Y-81150000D01*
X167450000Y-81150000D01*
X167450000Y-82650000D01*
X166750000Y-82650000D01*
X166750000Y-83100000D01*
X166749039Y-83109755D01*
X166746194Y-83119134D01*
X166741573Y-83127779D01*
X166735355Y-83135355D01*
X166727779Y-83141573D01*
X166719134Y-83146194D01*
X166709755Y-83149039D01*
X166700000Y-83150000D01*
X164300000Y-83150000D01*
X164290245Y-83149039D01*
X164280866Y-83146194D01*
X164272221Y-83141573D01*
X164264645Y-83135355D01*
X164258427Y-83127779D01*
X164253806Y-83119134D01*
X164250961Y-83109755D01*
X164250000Y-83100000D01*
X164250000Y-80700000D01*
X164250961Y-80690245D01*
X164253806Y-80680866D01*
X164258427Y-80672221D01*
X164264645Y-80664645D01*
X164272221Y-80658427D01*
X164280866Y-80653806D01*
X164290245Y-80650961D01*
X164300000Y-80650000D01*
X166700000Y-80650000D01*
X166709755Y-80650961D01*
G37*
D11*
X166700000Y-88100000D03*
D12*
X155800000Y-90300000D03*
D10*
G36*
X173109755Y-79350961D02*
G01*
X173119134Y-79353806D01*
X173127779Y-79358427D01*
X173135355Y-79364645D01*
X173141573Y-79372221D01*
X173146194Y-79380866D01*
X173149039Y-79390245D01*
X173150000Y-79400000D01*
X173150000Y-81400000D01*
X173149039Y-81409755D01*
X173146194Y-81419134D01*
X173141573Y-81427779D01*
X173135355Y-81435355D01*
X173127735Y-81441603D01*
X172527735Y-81841603D01*
X172519086Y-81846214D01*
X172509703Y-81849049D01*
X172500000Y-81850000D01*
X170700000Y-81850000D01*
X170690245Y-81849039D01*
X170680866Y-81846194D01*
X170672221Y-81841573D01*
X170664645Y-81835355D01*
X170658427Y-81827779D01*
X170653806Y-81819134D01*
X170650961Y-81809755D01*
X170650000Y-81800000D01*
X170650000Y-81350000D01*
X170050000Y-81350000D01*
X170050000Y-79850000D01*
X170650000Y-79850000D01*
X170650000Y-79400000D01*
X170650961Y-79390245D01*
X170653806Y-79380866D01*
X170658427Y-79372221D01*
X170664645Y-79364645D01*
X170672221Y-79358427D01*
X170680866Y-79353806D01*
X170690245Y-79350961D01*
X170700000Y-79350000D01*
X173100000Y-79350000D01*
X173109755Y-79350961D01*
G37*
G36*
X185709755Y-81950961D02*
G01*
X185719134Y-81953806D01*
X185727779Y-81958427D01*
X185735355Y-81964645D01*
X185741573Y-81972221D01*
X185746194Y-81980866D01*
X185749039Y-81990245D01*
X185750000Y-82000000D01*
X185750000Y-82450000D01*
X186450000Y-82450000D01*
X186450000Y-83950000D01*
X185750000Y-83950000D01*
X185750000Y-84400000D01*
X185749039Y-84409755D01*
X185746194Y-84419134D01*
X185741573Y-84427779D01*
X185735355Y-84435355D01*
X185727779Y-84441573D01*
X185719134Y-84446194D01*
X185709755Y-84449039D01*
X185700000Y-84450000D01*
X183300000Y-84450000D01*
X183290245Y-84449039D01*
X183280866Y-84446194D01*
X183272221Y-84441573D01*
X183264645Y-84435355D01*
X183258427Y-84427779D01*
X183253806Y-84419134D01*
X183250961Y-84409755D01*
X183250000Y-84400000D01*
X183250000Y-82000000D01*
X183250961Y-81990245D01*
X183253806Y-81980866D01*
X183258427Y-81972221D01*
X183264645Y-81964645D01*
X183272221Y-81958427D01*
X183280866Y-81953806D01*
X183290245Y-81950961D01*
X183300000Y-81950000D01*
X185700000Y-81950000D01*
X185709755Y-81950961D01*
G37*
D11*
X185700000Y-89400000D03*
D12*
X174800000Y-91600000D03*
D10*
G36*
X192209755Y-84150961D02*
G01*
X192219134Y-84153806D01*
X192227779Y-84158427D01*
X192235355Y-84164645D01*
X192241573Y-84172221D01*
X192246194Y-84180866D01*
X192249039Y-84190245D01*
X192250000Y-84200000D01*
X192250000Y-86200000D01*
X192249039Y-86209755D01*
X192246194Y-86219134D01*
X192241573Y-86227779D01*
X192235355Y-86235355D01*
X192227735Y-86241603D01*
X191627735Y-86641603D01*
X191619086Y-86646214D01*
X191609703Y-86649049D01*
X191600000Y-86650000D01*
X189800000Y-86650000D01*
X189790245Y-86649039D01*
X189780866Y-86646194D01*
X189772221Y-86641573D01*
X189764645Y-86635355D01*
X189758427Y-86627779D01*
X189753806Y-86619134D01*
X189750961Y-86609755D01*
X189750000Y-86600000D01*
X189750000Y-86150000D01*
X189150000Y-86150000D01*
X189150000Y-84650000D01*
X189750000Y-84650000D01*
X189750000Y-84200000D01*
X189750961Y-84190245D01*
X189753806Y-84180866D01*
X189758427Y-84172221D01*
X189764645Y-84164645D01*
X189772221Y-84158427D01*
X189780866Y-84153806D01*
X189790245Y-84150961D01*
X189800000Y-84150000D01*
X192200000Y-84150000D01*
X192209755Y-84150961D01*
G37*
G36*
X204809755Y-86750961D02*
G01*
X204819134Y-86753806D01*
X204827779Y-86758427D01*
X204835355Y-86764645D01*
X204841573Y-86772221D01*
X204846194Y-86780866D01*
X204849039Y-86790245D01*
X204850000Y-86800000D01*
X204850000Y-87250000D01*
X205550000Y-87250000D01*
X205550000Y-88750000D01*
X204850000Y-88750000D01*
X204850000Y-89200000D01*
X204849039Y-89209755D01*
X204846194Y-89219134D01*
X204841573Y-89227779D01*
X204835355Y-89235355D01*
X204827779Y-89241573D01*
X204819134Y-89246194D01*
X204809755Y-89249039D01*
X204800000Y-89250000D01*
X202400000Y-89250000D01*
X202390245Y-89249039D01*
X202380866Y-89246194D01*
X202372221Y-89241573D01*
X202364645Y-89235355D01*
X202358427Y-89227779D01*
X202353806Y-89219134D01*
X202350961Y-89209755D01*
X202350000Y-89200000D01*
X202350000Y-86800000D01*
X202350961Y-86790245D01*
X202353806Y-86780866D01*
X202358427Y-86772221D01*
X202364645Y-86764645D01*
X202372221Y-86758427D01*
X202380866Y-86753806D01*
X202390245Y-86750961D01*
X202400000Y-86750000D01*
X204800000Y-86750000D01*
X204809755Y-86750961D01*
G37*
D11*
X204800000Y-94200000D03*
D12*
X193900000Y-96400000D03*
D10*
G36*
X211209755Y-85650961D02*
G01*
X211219134Y-85653806D01*
X211227779Y-85658427D01*
X211235355Y-85664645D01*
X211241573Y-85672221D01*
X211246194Y-85680866D01*
X211249039Y-85690245D01*
X211250000Y-85700000D01*
X211250000Y-87700000D01*
X211249039Y-87709755D01*
X211246194Y-87719134D01*
X211241573Y-87727779D01*
X211235355Y-87735355D01*
X211227735Y-87741603D01*
X210627735Y-88141603D01*
X210619086Y-88146214D01*
X210609703Y-88149049D01*
X210600000Y-88150000D01*
X208800000Y-88150000D01*
X208790245Y-88149039D01*
X208780866Y-88146194D01*
X208772221Y-88141573D01*
X208764645Y-88135355D01*
X208758427Y-88127779D01*
X208753806Y-88119134D01*
X208750961Y-88109755D01*
X208750000Y-88100000D01*
X208750000Y-87650000D01*
X208150000Y-87650000D01*
X208150000Y-86150000D01*
X208750000Y-86150000D01*
X208750000Y-85700000D01*
X208750961Y-85690245D01*
X208753806Y-85680866D01*
X208758427Y-85672221D01*
X208764645Y-85664645D01*
X208772221Y-85658427D01*
X208780866Y-85653806D01*
X208790245Y-85650961D01*
X208800000Y-85650000D01*
X211200000Y-85650000D01*
X211209755Y-85650961D01*
G37*
G36*
X223809755Y-88250961D02*
G01*
X223819134Y-88253806D01*
X223827779Y-88258427D01*
X223835355Y-88264645D01*
X223841573Y-88272221D01*
X223846194Y-88280866D01*
X223849039Y-88290245D01*
X223850000Y-88300000D01*
X223850000Y-88750000D01*
X224550000Y-88750000D01*
X224550000Y-90250000D01*
X223850000Y-90250000D01*
X223850000Y-90700000D01*
X223849039Y-90709755D01*
X223846194Y-90719134D01*
X223841573Y-90727779D01*
X223835355Y-90735355D01*
X223827779Y-90741573D01*
X223819134Y-90746194D01*
X223809755Y-90749039D01*
X223800000Y-90750000D01*
X221400000Y-90750000D01*
X221390245Y-90749039D01*
X221380866Y-90746194D01*
X221372221Y-90741573D01*
X221364645Y-90735355D01*
X221358427Y-90727779D01*
X221353806Y-90719134D01*
X221350961Y-90709755D01*
X221350000Y-90700000D01*
X221350000Y-88300000D01*
X221350961Y-88290245D01*
X221353806Y-88280866D01*
X221358427Y-88272221D01*
X221364645Y-88264645D01*
X221372221Y-88258427D01*
X221380866Y-88253806D01*
X221390245Y-88250961D01*
X221400000Y-88250000D01*
X223800000Y-88250000D01*
X223809755Y-88250961D01*
G37*
D11*
X223800000Y-95700000D03*
D12*
X212900000Y-97900000D03*
D10*
G36*
X116009755Y-100750961D02*
G01*
X116019134Y-100753806D01*
X116027779Y-100758427D01*
X116035355Y-100764645D01*
X116041573Y-100772221D01*
X116046194Y-100780866D01*
X116049039Y-100790245D01*
X116050000Y-100800000D01*
X116050000Y-102800000D01*
X116049039Y-102809755D01*
X116046194Y-102819134D01*
X116041573Y-102827779D01*
X116035355Y-102835355D01*
X116027735Y-102841603D01*
X115427735Y-103241603D01*
X115419086Y-103246214D01*
X115409703Y-103249049D01*
X115400000Y-103250000D01*
X113600000Y-103250000D01*
X113590245Y-103249039D01*
X113580866Y-103246194D01*
X113572221Y-103241573D01*
X113564645Y-103235355D01*
X113558427Y-103227779D01*
X113553806Y-103219134D01*
X113550961Y-103209755D01*
X113550000Y-103200000D01*
X113550000Y-102750000D01*
X112950000Y-102750000D01*
X112950000Y-101250000D01*
X113550000Y-101250000D01*
X113550000Y-100800000D01*
X113550961Y-100790245D01*
X113553806Y-100780866D01*
X113558427Y-100772221D01*
X113564645Y-100764645D01*
X113572221Y-100758427D01*
X113580866Y-100753806D01*
X113590245Y-100750961D01*
X113600000Y-100750000D01*
X116000000Y-100750000D01*
X116009755Y-100750961D01*
G37*
G36*
X128609755Y-103350961D02*
G01*
X128619134Y-103353806D01*
X128627779Y-103358427D01*
X128635355Y-103364645D01*
X128641573Y-103372221D01*
X128646194Y-103380866D01*
X128649039Y-103390245D01*
X128650000Y-103400000D01*
X128650000Y-103850000D01*
X129350000Y-103850000D01*
X129350000Y-105350000D01*
X128650000Y-105350000D01*
X128650000Y-105800000D01*
X128649039Y-105809755D01*
X128646194Y-105819134D01*
X128641573Y-105827779D01*
X128635355Y-105835355D01*
X128627779Y-105841573D01*
X128619134Y-105846194D01*
X128609755Y-105849039D01*
X128600000Y-105850000D01*
X126200000Y-105850000D01*
X126190245Y-105849039D01*
X126180866Y-105846194D01*
X126172221Y-105841573D01*
X126164645Y-105835355D01*
X126158427Y-105827779D01*
X126153806Y-105819134D01*
X126150961Y-105809755D01*
X126150000Y-105800000D01*
X126150000Y-103400000D01*
X126150961Y-103390245D01*
X126153806Y-103380866D01*
X126158427Y-103372221D01*
X126164645Y-103364645D01*
X126172221Y-103358427D01*
X126180866Y-103353806D01*
X126190245Y-103350961D01*
X126200000Y-103350000D01*
X128600000Y-103350000D01*
X128609755Y-103350961D01*
G37*
D11*
X128600000Y-110800000D03*
D12*
X117700000Y-113000000D03*
D10*
G36*
X135009755Y-98450961D02*
G01*
X135019134Y-98453806D01*
X135027779Y-98458427D01*
X135035355Y-98464645D01*
X135041573Y-98472221D01*
X135046194Y-98480866D01*
X135049039Y-98490245D01*
X135050000Y-98500000D01*
X135050000Y-100500000D01*
X135049039Y-100509755D01*
X135046194Y-100519134D01*
X135041573Y-100527779D01*
X135035355Y-100535355D01*
X135027735Y-100541603D01*
X134427735Y-100941603D01*
X134419086Y-100946214D01*
X134409703Y-100949049D01*
X134400000Y-100950000D01*
X132600000Y-100950000D01*
X132590245Y-100949039D01*
X132580866Y-100946194D01*
X132572221Y-100941573D01*
X132564645Y-100935355D01*
X132558427Y-100927779D01*
X132553806Y-100919134D01*
X132550961Y-100909755D01*
X132550000Y-100900000D01*
X132550000Y-100450000D01*
X131950000Y-100450000D01*
X131950000Y-98950000D01*
X132550000Y-98950000D01*
X132550000Y-98500000D01*
X132550961Y-98490245D01*
X132553806Y-98480866D01*
X132558427Y-98472221D01*
X132564645Y-98464645D01*
X132572221Y-98458427D01*
X132580866Y-98453806D01*
X132590245Y-98450961D01*
X132600000Y-98450000D01*
X135000000Y-98450000D01*
X135009755Y-98450961D01*
G37*
G36*
X147609755Y-101050961D02*
G01*
X147619134Y-101053806D01*
X147627779Y-101058427D01*
X147635355Y-101064645D01*
X147641573Y-101072221D01*
X147646194Y-101080866D01*
X147649039Y-101090245D01*
X147650000Y-101100000D01*
X147650000Y-101550000D01*
X148350000Y-101550000D01*
X148350000Y-103050000D01*
X147650000Y-103050000D01*
X147650000Y-103500000D01*
X147649039Y-103509755D01*
X147646194Y-103519134D01*
X147641573Y-103527779D01*
X147635355Y-103535355D01*
X147627779Y-103541573D01*
X147619134Y-103546194D01*
X147609755Y-103549039D01*
X147600000Y-103550000D01*
X145200000Y-103550000D01*
X145190245Y-103549039D01*
X145180866Y-103546194D01*
X145172221Y-103541573D01*
X145164645Y-103535355D01*
X145158427Y-103527779D01*
X145153806Y-103519134D01*
X145150961Y-103509755D01*
X145150000Y-103500000D01*
X145150000Y-101100000D01*
X145150961Y-101090245D01*
X145153806Y-101080866D01*
X145158427Y-101072221D01*
X145164645Y-101064645D01*
X145172221Y-101058427D01*
X145180866Y-101053806D01*
X145190245Y-101050961D01*
X145200000Y-101050000D01*
X147600000Y-101050000D01*
X147609755Y-101050961D01*
G37*
D11*
X147600000Y-108500000D03*
D12*
X136700000Y-110700000D03*
D10*
G36*
X154109755Y-97050961D02*
G01*
X154119134Y-97053806D01*
X154127779Y-97058427D01*
X154135355Y-97064645D01*
X154141573Y-97072221D01*
X154146194Y-97080866D01*
X154149039Y-97090245D01*
X154150000Y-97100000D01*
X154150000Y-99100000D01*
X154149039Y-99109755D01*
X154146194Y-99119134D01*
X154141573Y-99127779D01*
X154135355Y-99135355D01*
X154127735Y-99141603D01*
X153527735Y-99541603D01*
X153519086Y-99546214D01*
X153509703Y-99549049D01*
X153500000Y-99550000D01*
X151700000Y-99550000D01*
X151690245Y-99549039D01*
X151680866Y-99546194D01*
X151672221Y-99541573D01*
X151664645Y-99535355D01*
X151658427Y-99527779D01*
X151653806Y-99519134D01*
X151650961Y-99509755D01*
X151650000Y-99500000D01*
X151650000Y-99050000D01*
X151050000Y-99050000D01*
X151050000Y-97550000D01*
X151650000Y-97550000D01*
X151650000Y-97100000D01*
X151650961Y-97090245D01*
X151653806Y-97080866D01*
X151658427Y-97072221D01*
X151664645Y-97064645D01*
X151672221Y-97058427D01*
X151680866Y-97053806D01*
X151690245Y-97050961D01*
X151700000Y-97050000D01*
X154100000Y-97050000D01*
X154109755Y-97050961D01*
G37*
G36*
X166709755Y-99650961D02*
G01*
X166719134Y-99653806D01*
X166727779Y-99658427D01*
X166735355Y-99664645D01*
X166741573Y-99672221D01*
X166746194Y-99680866D01*
X166749039Y-99690245D01*
X166750000Y-99700000D01*
X166750000Y-100150000D01*
X167450000Y-100150000D01*
X167450000Y-101650000D01*
X166750000Y-101650000D01*
X166750000Y-102100000D01*
X166749039Y-102109755D01*
X166746194Y-102119134D01*
X166741573Y-102127779D01*
X166735355Y-102135355D01*
X166727779Y-102141573D01*
X166719134Y-102146194D01*
X166709755Y-102149039D01*
X166700000Y-102150000D01*
X164300000Y-102150000D01*
X164290245Y-102149039D01*
X164280866Y-102146194D01*
X164272221Y-102141573D01*
X164264645Y-102135355D01*
X164258427Y-102127779D01*
X164253806Y-102119134D01*
X164250961Y-102109755D01*
X164250000Y-102100000D01*
X164250000Y-99700000D01*
X164250961Y-99690245D01*
X164253806Y-99680866D01*
X164258427Y-99672221D01*
X164264645Y-99664645D01*
X164272221Y-99658427D01*
X164280866Y-99653806D01*
X164290245Y-99650961D01*
X164300000Y-99650000D01*
X166700000Y-99650000D01*
X166709755Y-99650961D01*
G37*
D11*
X166700000Y-107100000D03*
D12*
X155800000Y-109300000D03*
D10*
G36*
X173109755Y-98450961D02*
G01*
X173119134Y-98453806D01*
X173127779Y-98458427D01*
X173135355Y-98464645D01*
X173141573Y-98472221D01*
X173146194Y-98480866D01*
X173149039Y-98490245D01*
X173150000Y-98500000D01*
X173150000Y-100500000D01*
X173149039Y-100509755D01*
X173146194Y-100519134D01*
X173141573Y-100527779D01*
X173135355Y-100535355D01*
X173127735Y-100541603D01*
X172527735Y-100941603D01*
X172519086Y-100946214D01*
X172509703Y-100949049D01*
X172500000Y-100950000D01*
X170700000Y-100950000D01*
X170690245Y-100949039D01*
X170680866Y-100946194D01*
X170672221Y-100941573D01*
X170664645Y-100935355D01*
X170658427Y-100927779D01*
X170653806Y-100919134D01*
X170650961Y-100909755D01*
X170650000Y-100900000D01*
X170650000Y-100450000D01*
X170050000Y-100450000D01*
X170050000Y-98950000D01*
X170650000Y-98950000D01*
X170650000Y-98500000D01*
X170650961Y-98490245D01*
X170653806Y-98480866D01*
X170658427Y-98472221D01*
X170664645Y-98464645D01*
X170672221Y-98458427D01*
X170680866Y-98453806D01*
X170690245Y-98450961D01*
X170700000Y-98450000D01*
X173100000Y-98450000D01*
X173109755Y-98450961D01*
G37*
G36*
X185709755Y-101050961D02*
G01*
X185719134Y-101053806D01*
X185727779Y-101058427D01*
X185735355Y-101064645D01*
X185741573Y-101072221D01*
X185746194Y-101080866D01*
X185749039Y-101090245D01*
X185750000Y-101100000D01*
X185750000Y-101550000D01*
X186450000Y-101550000D01*
X186450000Y-103050000D01*
X185750000Y-103050000D01*
X185750000Y-103500000D01*
X185749039Y-103509755D01*
X185746194Y-103519134D01*
X185741573Y-103527779D01*
X185735355Y-103535355D01*
X185727779Y-103541573D01*
X185719134Y-103546194D01*
X185709755Y-103549039D01*
X185700000Y-103550000D01*
X183300000Y-103550000D01*
X183290245Y-103549039D01*
X183280866Y-103546194D01*
X183272221Y-103541573D01*
X183264645Y-103535355D01*
X183258427Y-103527779D01*
X183253806Y-103519134D01*
X183250961Y-103509755D01*
X183250000Y-103500000D01*
X183250000Y-101100000D01*
X183250961Y-101090245D01*
X183253806Y-101080866D01*
X183258427Y-101072221D01*
X183264645Y-101064645D01*
X183272221Y-101058427D01*
X183280866Y-101053806D01*
X183290245Y-101050961D01*
X183300000Y-101050000D01*
X185700000Y-101050000D01*
X185709755Y-101050961D01*
G37*
D11*
X185700000Y-108500000D03*
D12*
X174800000Y-110700000D03*
D10*
G36*
X211259755Y-104650961D02*
G01*
X211269134Y-104653806D01*
X211277779Y-104658427D01*
X211285355Y-104664645D01*
X211291573Y-104672221D01*
X211296194Y-104680866D01*
X211299039Y-104690245D01*
X211300000Y-104700000D01*
X211300000Y-106700000D01*
X211299039Y-106709755D01*
X211296194Y-106719134D01*
X211291573Y-106727779D01*
X211285355Y-106735355D01*
X211277735Y-106741603D01*
X210677735Y-107141603D01*
X210669086Y-107146214D01*
X210659703Y-107149049D01*
X210650000Y-107150000D01*
X208850000Y-107150000D01*
X208840245Y-107149039D01*
X208830866Y-107146194D01*
X208822221Y-107141573D01*
X208814645Y-107135355D01*
X208808427Y-107127779D01*
X208803806Y-107119134D01*
X208800961Y-107109755D01*
X208800000Y-107100000D01*
X208800000Y-106650000D01*
X208200000Y-106650000D01*
X208200000Y-105150000D01*
X208800000Y-105150000D01*
X208800000Y-104700000D01*
X208800961Y-104690245D01*
X208803806Y-104680866D01*
X208808427Y-104672221D01*
X208814645Y-104664645D01*
X208822221Y-104658427D01*
X208830866Y-104653806D01*
X208840245Y-104650961D01*
X208850000Y-104650000D01*
X211250000Y-104650000D01*
X211259755Y-104650961D01*
G37*
G36*
X223859755Y-107250961D02*
G01*
X223869134Y-107253806D01*
X223877779Y-107258427D01*
X223885355Y-107264645D01*
X223891573Y-107272221D01*
X223896194Y-107280866D01*
X223899039Y-107290245D01*
X223900000Y-107300000D01*
X223900000Y-107750000D01*
X224600000Y-107750000D01*
X224600000Y-109250000D01*
X223900000Y-109250000D01*
X223900000Y-109700000D01*
X223899039Y-109709755D01*
X223896194Y-109719134D01*
X223891573Y-109727779D01*
X223885355Y-109735355D01*
X223877779Y-109741573D01*
X223869134Y-109746194D01*
X223859755Y-109749039D01*
X223850000Y-109750000D01*
X221450000Y-109750000D01*
X221440245Y-109749039D01*
X221430866Y-109746194D01*
X221422221Y-109741573D01*
X221414645Y-109735355D01*
X221408427Y-109727779D01*
X221403806Y-109719134D01*
X221400961Y-109709755D01*
X221400000Y-109700000D01*
X221400000Y-107300000D01*
X221400961Y-107290245D01*
X221403806Y-107280866D01*
X221408427Y-107272221D01*
X221414645Y-107264645D01*
X221422221Y-107258427D01*
X221430866Y-107253806D01*
X221440245Y-107250961D01*
X221450000Y-107250000D01*
X223850000Y-107250000D01*
X223859755Y-107250961D01*
G37*
D11*
X223850000Y-114700000D03*
D12*
X212950000Y-116900000D03*
D10*
G36*
X109213307Y-123006814D02*
G01*
X109215533Y-123016359D01*
X109215853Y-123026156D01*
X109214256Y-123035826D01*
X109210804Y-123044999D01*
X109205628Y-123053324D01*
X109198928Y-123060477D01*
X109190960Y-123066187D01*
X107458910Y-124066187D01*
X107449981Y-124070232D01*
X107440436Y-124072458D01*
X107430639Y-124072778D01*
X107420969Y-124071181D01*
X107411748Y-124067706D01*
X106765338Y-123748091D01*
X106757020Y-123742906D01*
X106749873Y-123736198D01*
X106744198Y-123728270D01*
X105844198Y-122169425D01*
X105840153Y-122160496D01*
X105837927Y-122150951D01*
X105837607Y-122141154D01*
X105839204Y-122131484D01*
X105842656Y-122122311D01*
X105847832Y-122113986D01*
X105854532Y-122106833D01*
X105862500Y-122101123D01*
X106252211Y-121876123D01*
X105952211Y-121356508D01*
X107251249Y-120606508D01*
X107551249Y-121126123D01*
X107940960Y-120901123D01*
X107949889Y-120897078D01*
X107959434Y-120894852D01*
X107969231Y-120894532D01*
X107978901Y-120896129D01*
X107988074Y-120899581D01*
X107996399Y-120904757D01*
X108003552Y-120911457D01*
X108009262Y-120919425D01*
X109209262Y-122997886D01*
X109213307Y-123006814D01*
G37*
G36*
X113261641Y-135218734D02*
G01*
X113263867Y-135228279D01*
X113264187Y-135238077D01*
X113262590Y-135247747D01*
X113259138Y-135256920D01*
X113253962Y-135265244D01*
X113247262Y-135272397D01*
X113239294Y-135278107D01*
X112849583Y-135503107D01*
X113199583Y-136109325D01*
X111900545Y-136859325D01*
X111550545Y-136253107D01*
X111160834Y-136478107D01*
X111151905Y-136482152D01*
X111142360Y-136484378D01*
X111132563Y-136484699D01*
X111122893Y-136483102D01*
X111113720Y-136479650D01*
X111105395Y-136474473D01*
X111098242Y-136467773D01*
X111092532Y-136459806D01*
X109892532Y-134381345D01*
X109888487Y-134372416D01*
X109886261Y-134362871D01*
X109885941Y-134353074D01*
X109887538Y-134343404D01*
X109890990Y-134334231D01*
X109896166Y-134325907D01*
X109902866Y-134318753D01*
X109910834Y-134313044D01*
X111989294Y-133113044D01*
X111998223Y-133108998D01*
X112007768Y-133106773D01*
X112017565Y-133106452D01*
X112027235Y-133108049D01*
X112036408Y-133111501D01*
X112044733Y-133116677D01*
X112051886Y-133123377D01*
X112057596Y-133131345D01*
X113257596Y-135209806D01*
X113261641Y-135218734D01*
G37*
G36*
X108171731Y-139300831D02*
G01*
X106439681Y-140300831D01*
X105439681Y-138568781D01*
X107171731Y-137568781D01*
X108171731Y-139300831D01*
G37*
G36*
X100766475Y-130874552D02*
G01*
X99034425Y-131874552D01*
X98134425Y-130315706D01*
X99866475Y-129315706D01*
X100766475Y-130874552D01*
G37*
G36*
X121899504Y-121449460D02*
G01*
X121909300Y-121449780D01*
X121918846Y-121452006D01*
X121927774Y-121456052D01*
X121935741Y-121461760D01*
X121942442Y-121468915D01*
X121947617Y-121477238D01*
X121951070Y-121486412D01*
X122468708Y-123418263D01*
X122470305Y-123427935D01*
X122469984Y-123437730D01*
X122467758Y-123447277D01*
X122463713Y-123456204D01*
X122457970Y-123464211D01*
X121981942Y-124005873D01*
X121974781Y-124012565D01*
X121966451Y-124017732D01*
X121957325Y-124021162D01*
X120218659Y-124487037D01*
X120208987Y-124488633D01*
X120199191Y-124488312D01*
X120189645Y-124486086D01*
X120180718Y-124482041D01*
X120172751Y-124476333D01*
X120166050Y-124469178D01*
X120160874Y-124460855D01*
X120157421Y-124451681D01*
X120040953Y-124017015D01*
X119461397Y-124172306D01*
X119073169Y-122723417D01*
X119652724Y-122568126D01*
X119536256Y-122133459D01*
X119534659Y-122123788D01*
X119534980Y-122113992D01*
X119537206Y-122104446D01*
X119541251Y-122095519D01*
X119546960Y-122087552D01*
X119554114Y-122080851D01*
X119562437Y-122075675D01*
X119571611Y-122072222D01*
X121889833Y-121451056D01*
X121899504Y-121449460D01*
G37*
G36*
X134743099Y-120699748D02*
G01*
X134752895Y-120700068D01*
X134762441Y-120702294D01*
X134771369Y-120706340D01*
X134779336Y-120712048D01*
X134786037Y-120719203D01*
X134791212Y-120727526D01*
X134794665Y-120736700D01*
X134911134Y-121171366D01*
X135587282Y-120990193D01*
X135975510Y-122439082D01*
X135299362Y-122620255D01*
X135415831Y-123054922D01*
X135417427Y-123064593D01*
X135417107Y-123074389D01*
X135414881Y-123083935D01*
X135410835Y-123092862D01*
X135405127Y-123100829D01*
X135397972Y-123107530D01*
X135389649Y-123112706D01*
X135380475Y-123116159D01*
X133062253Y-123737325D01*
X133052582Y-123738921D01*
X133042786Y-123738601D01*
X133033240Y-123736374D01*
X133024313Y-123732329D01*
X133016346Y-123726621D01*
X133009645Y-123719466D01*
X133004469Y-123711143D01*
X133001016Y-123701969D01*
X132379851Y-121383747D01*
X132378254Y-121374076D01*
X132378575Y-121364280D01*
X132380801Y-121354734D01*
X132384846Y-121345807D01*
X132390554Y-121337840D01*
X132397709Y-121331139D01*
X132406032Y-121325963D01*
X132415206Y-121322510D01*
X134733428Y-120701344D01*
X134743099Y-120699748D01*
G37*
G36*
X137368737Y-126672746D02*
G01*
X137886375Y-128604598D01*
X135954523Y-129122236D01*
X135436885Y-127190384D01*
X137368737Y-126672746D01*
G37*
G36*
X127312954Y-131644793D02*
G01*
X127830592Y-133576645D01*
X126091926Y-134042519D01*
X125574288Y-132110667D01*
X127312954Y-131644793D01*
G37*
G36*
X144509755Y-117400961D02*
G01*
X144519134Y-117403806D01*
X144527779Y-117408427D01*
X144535355Y-117414645D01*
X144541573Y-117422221D01*
X144546194Y-117430866D01*
X144549039Y-117440245D01*
X144550000Y-117450000D01*
X144550000Y-119450000D01*
X144549039Y-119459755D01*
X144546194Y-119469134D01*
X144541573Y-119477779D01*
X144535355Y-119485355D01*
X144527735Y-119491603D01*
X143927735Y-119891603D01*
X143919086Y-119896214D01*
X143909703Y-119899049D01*
X143900000Y-119900000D01*
X142100000Y-119900000D01*
X142090245Y-119899039D01*
X142080866Y-119896194D01*
X142072221Y-119891573D01*
X142064645Y-119885355D01*
X142058427Y-119877779D01*
X142053806Y-119869134D01*
X142050961Y-119859755D01*
X142050000Y-119850000D01*
X142050000Y-119400000D01*
X141450000Y-119400000D01*
X141450000Y-117900000D01*
X142050000Y-117900000D01*
X142050000Y-117450000D01*
X142050961Y-117440245D01*
X142053806Y-117430866D01*
X142058427Y-117422221D01*
X142064645Y-117414645D01*
X142072221Y-117408427D01*
X142080866Y-117403806D01*
X142090245Y-117400961D01*
X142100000Y-117400000D01*
X144500000Y-117400000D01*
X144509755Y-117400961D01*
G37*
G36*
X157109755Y-120000961D02*
G01*
X157119134Y-120003806D01*
X157127779Y-120008427D01*
X157135355Y-120014645D01*
X157141573Y-120022221D01*
X157146194Y-120030866D01*
X157149039Y-120040245D01*
X157150000Y-120050000D01*
X157150000Y-120500000D01*
X157850000Y-120500000D01*
X157850000Y-122000000D01*
X157150000Y-122000000D01*
X157150000Y-122450000D01*
X157149039Y-122459755D01*
X157146194Y-122469134D01*
X157141573Y-122477779D01*
X157135355Y-122485355D01*
X157127779Y-122491573D01*
X157119134Y-122496194D01*
X157109755Y-122499039D01*
X157100000Y-122500000D01*
X154700000Y-122500000D01*
X154690245Y-122499039D01*
X154680866Y-122496194D01*
X154672221Y-122491573D01*
X154664645Y-122485355D01*
X154658427Y-122477779D01*
X154653806Y-122469134D01*
X154650961Y-122459755D01*
X154650000Y-122450000D01*
X154650000Y-120050000D01*
X154650961Y-120040245D01*
X154653806Y-120030866D01*
X154658427Y-120022221D01*
X154664645Y-120014645D01*
X154672221Y-120008427D01*
X154680866Y-120003806D01*
X154690245Y-120000961D01*
X154700000Y-120000000D01*
X157100000Y-120000000D01*
X157109755Y-120000961D01*
G37*
D11*
X157100000Y-127450000D03*
D12*
X146200000Y-129650000D03*
D10*
G36*
X163609755Y-117400961D02*
G01*
X163619134Y-117403806D01*
X163627779Y-117408427D01*
X163635355Y-117414645D01*
X163641573Y-117422221D01*
X163646194Y-117430866D01*
X163649039Y-117440245D01*
X163650000Y-117450000D01*
X163650000Y-119450000D01*
X163649039Y-119459755D01*
X163646194Y-119469134D01*
X163641573Y-119477779D01*
X163635355Y-119485355D01*
X163627735Y-119491603D01*
X163027735Y-119891603D01*
X163019086Y-119896214D01*
X163009703Y-119899049D01*
X163000000Y-119900000D01*
X161200000Y-119900000D01*
X161190245Y-119899039D01*
X161180866Y-119896194D01*
X161172221Y-119891573D01*
X161164645Y-119885355D01*
X161158427Y-119877779D01*
X161153806Y-119869134D01*
X161150961Y-119859755D01*
X161150000Y-119850000D01*
X161150000Y-119400000D01*
X160550000Y-119400000D01*
X160550000Y-117900000D01*
X161150000Y-117900000D01*
X161150000Y-117450000D01*
X161150961Y-117440245D01*
X161153806Y-117430866D01*
X161158427Y-117422221D01*
X161164645Y-117414645D01*
X161172221Y-117408427D01*
X161180866Y-117403806D01*
X161190245Y-117400961D01*
X161200000Y-117400000D01*
X163600000Y-117400000D01*
X163609755Y-117400961D01*
G37*
G36*
X176209755Y-120000961D02*
G01*
X176219134Y-120003806D01*
X176227779Y-120008427D01*
X176235355Y-120014645D01*
X176241573Y-120022221D01*
X176246194Y-120030866D01*
X176249039Y-120040245D01*
X176250000Y-120050000D01*
X176250000Y-120500000D01*
X176950000Y-120500000D01*
X176950000Y-122000000D01*
X176250000Y-122000000D01*
X176250000Y-122450000D01*
X176249039Y-122459755D01*
X176246194Y-122469134D01*
X176241573Y-122477779D01*
X176235355Y-122485355D01*
X176227779Y-122491573D01*
X176219134Y-122496194D01*
X176209755Y-122499039D01*
X176200000Y-122500000D01*
X173800000Y-122500000D01*
X173790245Y-122499039D01*
X173780866Y-122496194D01*
X173772221Y-122491573D01*
X173764645Y-122485355D01*
X173758427Y-122477779D01*
X173753806Y-122469134D01*
X173750961Y-122459755D01*
X173750000Y-122450000D01*
X173750000Y-120050000D01*
X173750961Y-120040245D01*
X173753806Y-120030866D01*
X173758427Y-120022221D01*
X173764645Y-120014645D01*
X173772221Y-120008427D01*
X173780866Y-120003806D01*
X173790245Y-120000961D01*
X173800000Y-120000000D01*
X176200000Y-120000000D01*
X176209755Y-120000961D01*
G37*
D11*
X176200000Y-127450000D03*
D12*
X165300000Y-129650000D03*
D10*
G36*
X211257355Y-123724362D02*
G01*
X211266734Y-123727207D01*
X211275379Y-123731828D01*
X211282955Y-123738046D01*
X211289173Y-123745622D01*
X211293794Y-123754267D01*
X211296639Y-123763646D01*
X211297600Y-123773401D01*
X211297600Y-125773401D01*
X211296639Y-125783156D01*
X211293794Y-125792535D01*
X211289173Y-125801180D01*
X211282955Y-125808756D01*
X211275335Y-125815004D01*
X210675335Y-126215004D01*
X210666686Y-126219615D01*
X210657303Y-126222450D01*
X210647600Y-126223401D01*
X208847600Y-126223401D01*
X208837845Y-126222440D01*
X208828466Y-126219595D01*
X208819821Y-126214974D01*
X208812245Y-126208756D01*
X208806027Y-126201180D01*
X208801406Y-126192535D01*
X208798561Y-126183156D01*
X208797600Y-126173401D01*
X208797600Y-125723401D01*
X208197600Y-125723401D01*
X208197600Y-124223401D01*
X208797600Y-124223401D01*
X208797600Y-123773401D01*
X208798561Y-123763646D01*
X208801406Y-123754267D01*
X208806027Y-123745622D01*
X208812245Y-123738046D01*
X208819821Y-123731828D01*
X208828466Y-123727207D01*
X208837845Y-123724362D01*
X208847600Y-123723401D01*
X211247600Y-123723401D01*
X211257355Y-123724362D01*
G37*
G36*
X223857355Y-126324362D02*
G01*
X223866734Y-126327207D01*
X223875379Y-126331828D01*
X223882955Y-126338046D01*
X223889173Y-126345622D01*
X223893794Y-126354267D01*
X223896639Y-126363646D01*
X223897600Y-126373401D01*
X223897600Y-126823401D01*
X224597600Y-126823401D01*
X224597600Y-128323401D01*
X223897600Y-128323401D01*
X223897600Y-128773401D01*
X223896639Y-128783156D01*
X223893794Y-128792535D01*
X223889173Y-128801180D01*
X223882955Y-128808756D01*
X223875379Y-128814974D01*
X223866734Y-128819595D01*
X223857355Y-128822440D01*
X223847600Y-128823401D01*
X221447600Y-128823401D01*
X221437845Y-128822440D01*
X221428466Y-128819595D01*
X221419821Y-128814974D01*
X221412245Y-128808756D01*
X221406027Y-128801180D01*
X221401406Y-128792535D01*
X221398561Y-128783156D01*
X221397600Y-128773401D01*
X221397600Y-126373401D01*
X221398561Y-126363646D01*
X221401406Y-126354267D01*
X221406027Y-126345622D01*
X221412245Y-126338046D01*
X221419821Y-126331828D01*
X221428466Y-126327207D01*
X221437845Y-126324362D01*
X221447600Y-126323401D01*
X223847600Y-126323401D01*
X223857355Y-126324362D01*
G37*
D11*
X223847600Y-133773401D03*
D12*
X212947600Y-135973401D03*
M02*
