M48
; DRILL file {KiCad (5.1.12-1-10_14)} date Monday, December 27, 2021 at 03:41:12 PM
; FORMAT={-:-/ absolute / metric / decimal}
; #@! TF.CreationDate,2021-12-27T15:41:12+00:00
; #@! TF.GenerationSoftware,Kicad,Pcbnew,(5.1.12-1-10_14)
; #@! TF.FileFunction,Plated,1,2,PTH
FMAT,2
METRIC
T1C0.300
T2C0.400
T3C0.813
T4C1.000
T5C1.300
T6C1.500
T7C2.200
T8C4.100
%
G90
G05
T1
X92.2Y-74.9
X92.9Y-79.0
X93.177Y-99.177
X94.8Y-70.6
X95.1Y-44.2
X95.1Y-101.6
X96.05Y-67.806
X96.1Y-51.39
X96.7Y-67.8
X96.9Y-44.966
X96.9Y-48.8
X98.514Y-52.586
X99.2Y-79.2
X100.4Y-50.046
X100.4Y-91.4
X100.4Y-68.8
X101.2Y-53.9
X101.874Y-55.126
X102.5Y-91.3
X102.675Y-57.666
X103.0Y-68.8
X103.1Y-67.9
X103.175Y-60.206
X103.6Y-133.7
X103.7Y-62.746
X104.3Y-64.575
X104.3Y-77.8
X104.5Y-89.4
X105.0Y-66.0
X105.328Y-67.072
X105.6Y-51.4
X105.6Y-65.2
X105.7Y-56.7
X105.7Y-44.0
X105.7Y-59.0
X105.7Y-61.9
X105.7Y-64.0
X105.7Y-41.6
X105.7Y-54.2
X106.17Y-120.2
X106.2Y-80.7
X106.3Y-89.4
X106.7Y-74.7
X107.5Y-136.8
X109.5Y-78.6
X110.3Y-64.1
X112.3Y-64.1
X112.3Y-83.0
X112.4Y-44.9
X112.4Y-102.0
X112.8Y-78.6
X114.1Y-134.8
X114.2Y-119.4
X114.3Y-115.6
X118.35Y-123.86
X123.3Y-53.5
X123.3Y-91.5
X123.3Y-110.5
X123.3Y-72.6
X127.4Y-52.3
X127.4Y-71.4
X127.4Y-90.4
X127.4Y-109.4
X128.5Y-44.9
X128.6Y-102.0
X128.7Y-64.0
X128.7Y-83.0
X131.2Y-129.3
X131.3Y-80.6
X131.3Y-100.4
X131.4Y-42.5
X131.4Y-62.2
X132.4Y-113.4
X132.4Y-117.1
X134.8Y-126.6
X134.93Y-119.28
X140.8Y-118.7
X142.3Y-89.3
X142.3Y-51.0
X142.3Y-108.3
X142.3Y-70.2
X142.4Y-75.7
X146.2Y-55.3
X146.4Y-49.9
X146.4Y-69.0
X146.4Y-88.0
X146.4Y-107.1
X147.5Y-61.6
X147.6Y-42.5
X147.6Y-99.7
X147.8Y-80.6
X150.3Y-98.3
X150.4Y-79.3
X150.5Y-41.1
X150.6Y-60.2
X151.8Y-127.1
X151.9Y-112.4
X155.9Y-126.1
X157.1Y-118.7
X159.9Y-118.7
X160.3Y-75.2
X161.4Y-68.7
X161.4Y-49.6
X161.4Y-87.8
X161.4Y-106.9
X164.0Y-92.3
X165.5Y-48.5
X165.5Y-54.2
X165.5Y-67.6
X165.5Y-86.7
X165.5Y-105.7
X166.6Y-60.2
X166.7Y-41.1
X166.8Y-79.3
X166.8Y-98.3
X168.5Y-112.3
X169.4Y-42.5
X169.4Y-99.7
X169.5Y-61.5
X169.5Y-80.6
X170.9Y-127.3
X173.08Y-115.59
X175.0Y-126.0
X176.2Y-118.7
X177.64Y-97.49
X179.8Y-76.5
X180.4Y-108.2
X180.4Y-51.0
X180.4Y-70.0
X180.4Y-89.1
X182.4Y-93.4
X182.82Y-96.87
X183.8Y-115.8
X184.42Y-95.59
X184.5Y-49.9
X184.5Y-68.9
X184.5Y-88.0
X184.5Y-107.1
X185.6Y-61.5
X185.6Y-99.7
X185.7Y-42.5
X185.9Y-80.6
X186.4Y-56.2
X188.5Y-85.4
X188.5Y-104.4
X188.6Y-47.3
X188.6Y-66.2
X192.4Y-42.4
X196.55Y-101.11
X198.4Y-80.9
X199.3Y-99.7
X199.5Y-55.8
X199.5Y-93.9
X199.5Y-74.7
X199.5Y-113.1
X200.4Y-122.2
X203.6Y-54.7
X203.6Y-73.6
X203.6Y-92.8
X203.6Y-111.8
X204.7Y-47.3
X204.7Y-66.2
X204.9Y-85.4
X204.9Y-104.4
X207.2Y-48.8
X207.48Y-124.955
X207.5Y-105.9
X207.6Y-67.7
X207.6Y-86.9
X207.81Y-64.34
X210.46Y-98.43
X210.5Y-101.7
X215.8Y-82.6
X216.713Y-120.561
X218.313Y-133.68
X218.5Y-57.2
X218.5Y-76.2
X218.5Y-95.3
X218.5Y-114.6
X222.6Y-56.2
X222.6Y-75.1
X222.6Y-94.3
X222.6Y-113.3
X223.101Y-132.029
X223.7Y-48.8
X223.7Y-67.7
X223.9Y-86.9
X223.9Y-105.9
X224.148Y-124.866
T2
X105.3Y-97.0
X108.7Y-97.0
X108.95Y-117.828
X110.65Y-120.772
X112.7Y-58.0
X112.7Y-61.1
X112.7Y-96.0
X112.7Y-99.1
X116.1Y-58.0
X116.1Y-61.1
X116.1Y-96.0
X116.1Y-99.1
X122.2Y-118.0
X125.6Y-118.0
X132.6Y-55.7
X132.6Y-93.8
X133.6Y-58.7
X133.6Y-96.8
X136.0Y-55.7
X136.0Y-93.8
X137.0Y-58.7
X137.0Y-96.8
X141.2Y-115.8
X144.6Y-115.8
X150.8Y-54.2
X150.8Y-92.3
X150.8Y-95.4
X150.9Y-57.4
X154.2Y-54.2
X154.2Y-92.3
X154.2Y-95.4
X154.3Y-57.4
X160.3Y-115.8
X163.7Y-115.8
X169.8Y-55.6
X169.8Y-58.7
X169.8Y-93.6
X169.8Y-96.8
X173.2Y-55.6
X173.2Y-58.7
X173.2Y-93.6
X173.2Y-96.8
X188.9Y-60.4
X188.9Y-63.3
X188.9Y-98.3
X188.9Y-101.5
X192.3Y-60.4
X192.3Y-63.3
X192.3Y-98.3
X192.3Y-101.5
X207.799Y-122.072
X211.199Y-122.072
X220.1Y-61.8
X220.1Y-64.9
X220.1Y-99.9
X220.2Y-103.1
X223.5Y-61.8
X223.5Y-64.9
X223.5Y-99.9
X223.6Y-103.1
T3
X92.18Y-41.23
X92.18Y-43.77
X92.18Y-46.31
X92.18Y-48.85
X92.18Y-51.39
X92.18Y-53.93
X92.18Y-56.47
X92.18Y-59.01
X92.18Y-61.55
X92.18Y-64.09
X92.18Y-66.63
X92.18Y-69.17
X93.479Y-42.426
X93.479Y-44.966
X93.479Y-47.506
X93.479Y-50.046
X93.479Y-52.586
X93.479Y-55.126
X93.479Y-57.666
X93.479Y-60.206
X93.479Y-62.746
X93.479Y-65.286
X93.479Y-67.826
X93.479Y-70.366
X95.499Y-78.062
X95.499Y-80.312
X96.7Y-74.6
X99.24Y-74.6
X100.579Y-78.062
X100.579Y-80.312
X101.78Y-74.6
X102.7Y-78.1
X102.7Y-80.3
X104.32Y-74.6
X107.42Y-41.23
X107.42Y-43.77
X107.42Y-46.31
X107.42Y-48.85
X107.42Y-51.39
X107.42Y-53.93
X107.42Y-56.47
X107.42Y-59.01
X107.42Y-61.55
X107.42Y-64.09
X107.42Y-66.63
X107.42Y-69.17
X108.719Y-42.426
X108.719Y-44.966
X108.719Y-47.506
X108.719Y-50.046
X108.719Y-52.586
X108.719Y-55.126
X108.719Y-57.666
X108.719Y-60.206
X108.719Y-62.746
X108.719Y-65.286
X108.719Y-67.826
X108.719Y-70.366
T4
X92.5Y-102.0
X92.5Y-104.5
X92.5Y-107.0
X107.0Y-102.0
X107.0Y-107.0
X107.9Y-76.0
X107.9Y-78.6
X107.9Y-81.1
T5
X90.0Y-74.25
X90.0Y-80.75
T7
X91.5Y-93.5
X107.0Y-93.5
T8
X105.0Y-114.8
X129.6Y-59.6
X129.6Y-97.6
X205.8Y-61.8
X205.8Y-100.0
T4
G00X91.05Y-83.55
M15
G01X91.55Y-83.55
M16
G05
G00X91.05Y-89.5
M15
G01X91.55Y-89.5
M16
G05
G00X94.05Y-83.55
M15
G01X94.55Y-83.55
M16
G05
G00X94.05Y-89.5
M15
G01X94.55Y-89.5
M16
G05
G00X98.05Y-83.55
M15
G01X98.55Y-83.55
M16
G05
G00X98.05Y-89.5
M15
G01X98.55Y-89.5
M16
G05
G00X99.55Y-85.3
M15
G01X100.05Y-85.3
M16
G05
G00X99.55Y-87.75
M15
G01X100.05Y-87.75
M16
G05
T6
G00X99.35Y-98.9
M15
G01X100.65Y-98.9
M16
G05
G00X99.35Y-110.1
M15
G01X100.65Y-110.1
M16
G05
T0
M30
