%FSLAX45Y45*%
G04 Gerber Fmt 4.5, Leading zero omitted, Abs format (unit mm)*
G04 Created by KiCad (PCBNEW (5.1.12-1-10_14)) date 2021-12-27 15:41:10*
%MOMM*%
%LPD*%
G01*
G04 APERTURE LIST*
%TA.AperFunction,Profile*%
%ADD10C,0.100000*%
%TD*%
%ADD11C,0.200000*%
%ADD12C,0.300000*%
G04 APERTURE END LIST*
D10*
X20400945Y-13926640D02*
X18116501Y-13342648D01*
X22412960Y-13970000D02*
X22390100Y-13970000D01*
X22438519Y-13968150D02*
X22412960Y-13970000D01*
X22502662Y-4369560D02*
X22516832Y-4383558D01*
X8942585Y-3732540D02*
X18451081Y-3732548D01*
X8828406Y-11550347D02*
X8827526Y-11518249D01*
X8831044Y-11582276D02*
X8828406Y-11550347D01*
X18671653Y-3742925D02*
X18788573Y-3754187D01*
X22543770Y-13854430D02*
X22542388Y-13875257D01*
X8897744Y-3741594D02*
X8919368Y-3734881D01*
X8849332Y-11676341D02*
X8841523Y-11645343D01*
X18788573Y-3754187D02*
X18891042Y-3767978D01*
X10508615Y-14642628D02*
X10491821Y-14631232D01*
X13861123Y-13347810D02*
X13815413Y-13364855D01*
X8919368Y-3734881D02*
X8942585Y-3732540D01*
X13815413Y-13364855D02*
X10607520Y-14648948D01*
X10607520Y-14648948D02*
X10587298Y-14654978D01*
X8827526Y-11518249D02*
X8827386Y-3847743D01*
X22516832Y-4383558D02*
X22528388Y-4399781D01*
X22486187Y-4358147D02*
X22502662Y-4369560D01*
X8878175Y-3752216D02*
X8897744Y-3741594D01*
X10587298Y-14654978D02*
X10566831Y-14657198D01*
X18554438Y-3735332D02*
X18671653Y-3742925D01*
X10566831Y-14657198D02*
X10546585Y-14655768D01*
X10546585Y-14655768D02*
X10527025Y-14650858D01*
X10527025Y-14650858D02*
X10508615Y-14642628D01*
X22390100Y-13970000D02*
X20720050Y-13970000D01*
X13907514Y-13332988D02*
X13861123Y-13347810D01*
X9117494Y-12265341D02*
X9112979Y-12256691D01*
X22460260Y-13964290D02*
X22438519Y-13968150D01*
X22526748Y-13914743D02*
X22513957Y-13931425D01*
X17740630Y-13291591D02*
X14195611Y-13291591D01*
X14195611Y-13291591D02*
X14146840Y-13292750D01*
X22537028Y-4417867D02*
X22542438Y-4437457D01*
X8827386Y-3847743D02*
X8829726Y-3824526D01*
X18891042Y-3767978D02*
X22447544Y-4344515D01*
X14098263Y-13296230D02*
X14049961Y-13302010D01*
X8829726Y-3824526D02*
X8836438Y-3802901D01*
X10464939Y-14599593D02*
X9117494Y-12265341D01*
X22542438Y-4437457D02*
X22544318Y-4458190D01*
X22467711Y-4349678D02*
X22486187Y-4358147D01*
X14146840Y-13292750D02*
X14098263Y-13296230D01*
X22513957Y-13931425D02*
X22498359Y-13945518D01*
X14049961Y-13302010D02*
X14002014Y-13310070D01*
X13954505Y-13320402D02*
X13907514Y-13332988D01*
X22542388Y-13875257D02*
X22536348Y-13895883D01*
X17789298Y-13292391D02*
X17740630Y-13291591D01*
X18116501Y-13342648D02*
X18070569Y-13330724D01*
X22536348Y-13895883D02*
X22526748Y-13914743D01*
X8847059Y-3783333D02*
X8861126Y-3766283D01*
X8870010Y-11736911D02*
X8858833Y-11706887D01*
X22447544Y-4344515D02*
X22467711Y-4349678D01*
X22528388Y-4399781D02*
X22537028Y-4417867D01*
X18070569Y-13330724D02*
X18024299Y-13320371D01*
X18024299Y-13320371D02*
X17977732Y-13311601D01*
X22480333Y-13956610D02*
X22460260Y-13964290D01*
X17977732Y-13311601D02*
X17930908Y-13304411D01*
X8858833Y-11706887D02*
X8849332Y-11676341D01*
X8835422Y-11613964D02*
X8831044Y-11582276D01*
X18451081Y-3732548D02*
X18554438Y-3735332D01*
X17930908Y-13304411D02*
X17883867Y-13298811D01*
X22544318Y-4458190D02*
X22543770Y-13854430D01*
X17883867Y-13298811D02*
X17836650Y-13294801D01*
X14002014Y-13310070D02*
X13954505Y-13320402D01*
X22498359Y-13945518D02*
X22480333Y-13956610D01*
X8836438Y-3802901D02*
X8847059Y-3783333D01*
X17836650Y-13294801D02*
X17789298Y-13292391D01*
X10491821Y-14631232D02*
X10477107Y-14616833D01*
X10477107Y-14616833D02*
X10464939Y-14599593D01*
X8861126Y-3766283D02*
X8878175Y-3752216D01*
X8841523Y-11645343D02*
X8835422Y-11613964D01*
X8882848Y-11766343D02*
X8870010Y-11736911D01*
X20720050Y-13970000D02*
X20640012Y-13967520D01*
X20640012Y-13967520D02*
X20559491Y-13959310D01*
X20559491Y-13959310D02*
X20479710Y-13945670D01*
X9112979Y-12256691D02*
X8882848Y-11766343D01*
X20479710Y-13945670D02*
X20400945Y-13926640D01*
X4967668Y3822800D02*
X4967668Y3822800D01*
D11*
X8890000Y-8505000D02*
X9010000Y-8625000D01*
X9010000Y-8505000D02*
X8890000Y-8625000D01*
X8890000Y-8680000D02*
X9010000Y-8800000D01*
X9010000Y-8680000D02*
X8890000Y-8800000D01*
X9590000Y-8505000D02*
X9710000Y-8625000D01*
X9710000Y-8505000D02*
X9590000Y-8625000D01*
X9590000Y-8680000D02*
X9710000Y-8800000D01*
X9710000Y-8680000D02*
X9590000Y-8800000D01*
X10427000Y-12567059D02*
G75*
G03*
X10427000Y-12567059I-85000J0D01*
G01*
X10935000Y-13446941D02*
G75*
G03*
X10935000Y-13446941I-85000J0D01*
G01*
X11627000Y-5000000D02*
G75*
G03*
X11627000Y-5000000I-85000J0D01*
G01*
X11627000Y-6910000D02*
G75*
G03*
X11627000Y-6910000I-85000J0D01*
G01*
X11627000Y-8810000D02*
G75*
G03*
X11627000Y-8810000I-85000J0D01*
G01*
X11627000Y-10710000D02*
G75*
G03*
X11627000Y-10710000I-85000J0D01*
G01*
X12382310Y-12773480D02*
G75*
G03*
X12382310Y-12773480I-85000J0D01*
G01*
X12643000Y-5000000D02*
G75*
G03*
X12643000Y-5000000I-85000J0D01*
G01*
X12643000Y-6910000D02*
G75*
G03*
X12643000Y-6910000I-85000J0D01*
G01*
X12643000Y-8810000D02*
G75*
G03*
X12643000Y-8810000I-85000J0D01*
G01*
X12643000Y-10710000D02*
G75*
G03*
X12643000Y-10710000I-85000J0D01*
G01*
X13363690Y-12510520D02*
G75*
G03*
X13363690Y-12510520I-85000J0D01*
G01*
X13527000Y-4760000D02*
G75*
G03*
X13527000Y-4760000I-85000J0D01*
G01*
X13527000Y-6670000D02*
G75*
G03*
X13527000Y-6670000I-85000J0D01*
G01*
X13527000Y-8570000D02*
G75*
G03*
X13527000Y-8570000I-85000J0D01*
G01*
X13527000Y-10480000D02*
G75*
G03*
X13527000Y-10480000I-85000J0D01*
G01*
X14477000Y-12375000D02*
G75*
G03*
X14477000Y-12375000I-85000J0D01*
G01*
X14543000Y-4760000D02*
G75*
G03*
X14543000Y-4760000I-85000J0D01*
G01*
X14543000Y-6670000D02*
G75*
G03*
X14543000Y-6670000I-85000J0D01*
G01*
X14543000Y-8570000D02*
G75*
G03*
X14543000Y-8570000I-85000J0D01*
G01*
X14543000Y-10480000D02*
G75*
G03*
X14543000Y-10480000I-85000J0D01*
G01*
X15437000Y-4621000D02*
G75*
G03*
X15437000Y-4621000I-85000J0D01*
G01*
X15437000Y-6530000D02*
G75*
G03*
X15437000Y-6530000I-85000J0D01*
G01*
X15437000Y-8440000D02*
G75*
G03*
X15437000Y-8440000I-85000J0D01*
G01*
X15437000Y-10340000D02*
G75*
G03*
X15437000Y-10340000I-85000J0D01*
G01*
X15493000Y-12375000D02*
G75*
G03*
X15493000Y-12375000I-85000J0D01*
G01*
X16387000Y-12375000D02*
G75*
G03*
X16387000Y-12375000I-85000J0D01*
G01*
X16453000Y-4621000D02*
G75*
G03*
X16453000Y-4621000I-85000J0D01*
G01*
X16453000Y-6530000D02*
G75*
G03*
X16453000Y-6530000I-85000J0D01*
G01*
X16453000Y-8440000D02*
G75*
G03*
X16453000Y-8440000I-85000J0D01*
G01*
X16453000Y-10340000D02*
G75*
G03*
X16453000Y-10340000I-85000J0D01*
G01*
X17337000Y-4760000D02*
G75*
G03*
X17337000Y-4760000I-85000J0D01*
G01*
X17337000Y-6660000D02*
G75*
G03*
X17337000Y-6660000I-85000J0D01*
G01*
X17337000Y-8570000D02*
G75*
G03*
X17337000Y-8570000I-85000J0D01*
G01*
X17337000Y-10480000D02*
G75*
G03*
X17337000Y-10480000I-85000J0D01*
G01*
X17403000Y-12375000D02*
G75*
G03*
X17403000Y-12375000I-85000J0D01*
G01*
X18353000Y-4760000D02*
G75*
G03*
X18353000Y-4760000I-85000J0D01*
G01*
X18353000Y-6660000D02*
G75*
G03*
X18353000Y-6660000I-85000J0D01*
G01*
X18353000Y-8570000D02*
G75*
G03*
X18353000Y-8570000I-85000J0D01*
G01*
X18353000Y-10480000D02*
G75*
G03*
X18353000Y-10480000I-85000J0D01*
G01*
X19247000Y-5240000D02*
G75*
G03*
X19247000Y-5240000I-85000J0D01*
G01*
X19247000Y-7130000D02*
G75*
G03*
X19247000Y-7130000I-85000J0D01*
G01*
X19247000Y-9050000D02*
G75*
G03*
X19247000Y-9050000I-85000J0D01*
G01*
X19247000Y-10950000D02*
G75*
G03*
X19247000Y-10950000I-85000J0D01*
G01*
X20263000Y-5240000D02*
G75*
G03*
X20263000Y-5240000I-85000J0D01*
G01*
X20263000Y-7130000D02*
G75*
G03*
X20263000Y-7130000I-85000J0D01*
G01*
X20263000Y-9050000D02*
G75*
G03*
X20263000Y-9050000I-85000J0D01*
G01*
X20263000Y-10950000D02*
G75*
G03*
X20263000Y-10950000I-85000J0D01*
G01*
X21147000Y-5390000D02*
G75*
G03*
X21147000Y-5390000I-85000J0D01*
G01*
X21147000Y-7280000D02*
G75*
G03*
X21147000Y-7280000I-85000J0D01*
G01*
X21147000Y-9200000D02*
G75*
G03*
X21147000Y-9200000I-85000J0D01*
G01*
X21151760Y-13007340D02*
G75*
G03*
X21151760Y-13007340I-85000J0D01*
G01*
X21152000Y-11100000D02*
G75*
G03*
X21152000Y-11100000I-85000J0D01*
G01*
X22163000Y-5390000D02*
G75*
G03*
X22163000Y-5390000I-85000J0D01*
G01*
X22163000Y-7280000D02*
G75*
G03*
X22163000Y-7280000I-85000J0D01*
G01*
X22163000Y-9200000D02*
G75*
G03*
X22163000Y-9200000I-85000J0D01*
G01*
X22167760Y-13007340D02*
G75*
G03*
X22167760Y-13007340I-85000J0D01*
G01*
X22168000Y-11100000D02*
G75*
G03*
X22168000Y-11100000I-85000J0D01*
G01*
X10321000Y-12435686D02*
X10321000Y-12625686D01*
X10226000Y-12530686D02*
X10416000Y-12530686D01*
X10871000Y-13388314D02*
X10871000Y-13578314D01*
X10776000Y-13483314D02*
X10966000Y-13483314D01*
X11500000Y-4905000D02*
X11500000Y-5095000D01*
X11405000Y-5000000D02*
X11595000Y-5000000D01*
X11500000Y-6815000D02*
X11500000Y-7005000D01*
X11405000Y-6910000D02*
X11595000Y-6910000D01*
X11500000Y-8715000D02*
X11500000Y-8905000D01*
X11405000Y-8810000D02*
X11595000Y-8810000D01*
X11500000Y-10615000D02*
X11500000Y-10805000D01*
X11405000Y-10710000D02*
X11595000Y-10710000D01*
X12256741Y-12689350D02*
X12256741Y-12879350D01*
X12161741Y-12784350D02*
X12351741Y-12784350D01*
X12600000Y-4905000D02*
X12600000Y-5095000D01*
X12505000Y-5000000D02*
X12695000Y-5000000D01*
X12600000Y-6815000D02*
X12600000Y-7005000D01*
X12505000Y-6910000D02*
X12695000Y-6910000D01*
X12600000Y-8715000D02*
X12600000Y-8905000D01*
X12505000Y-8810000D02*
X12695000Y-8810000D01*
X12600000Y-10615000D02*
X12600000Y-10805000D01*
X12505000Y-10710000D02*
X12695000Y-10710000D01*
X13319259Y-12404649D02*
X13319259Y-12594649D01*
X13224259Y-12499649D02*
X13414259Y-12499649D01*
X13400000Y-4665000D02*
X13400000Y-4855000D01*
X13305000Y-4760000D02*
X13495000Y-4760000D01*
X13400000Y-6575000D02*
X13400000Y-6765000D01*
X13305000Y-6670000D02*
X13495000Y-6670000D01*
X13400000Y-8475000D02*
X13400000Y-8665000D01*
X13305000Y-8570000D02*
X13495000Y-8570000D01*
X13400000Y-10385000D02*
X13400000Y-10575000D01*
X13305000Y-10480000D02*
X13495000Y-10480000D01*
X14350000Y-12280000D02*
X14350000Y-12470000D01*
X14255000Y-12375000D02*
X14445000Y-12375000D01*
X14500000Y-4665000D02*
X14500000Y-4855000D01*
X14405000Y-4760000D02*
X14595000Y-4760000D01*
X14500000Y-6575000D02*
X14500000Y-6765000D01*
X14405000Y-6670000D02*
X14595000Y-6670000D01*
X14500000Y-8475000D02*
X14500000Y-8665000D01*
X14405000Y-8570000D02*
X14595000Y-8570000D01*
X14500000Y-10385000D02*
X14500000Y-10575000D01*
X14405000Y-10480000D02*
X14595000Y-10480000D01*
X15310000Y-4526000D02*
X15310000Y-4716000D01*
X15215000Y-4621000D02*
X15405000Y-4621000D01*
X15310000Y-6435000D02*
X15310000Y-6625000D01*
X15215000Y-6530000D02*
X15405000Y-6530000D01*
X15310000Y-8345000D02*
X15310000Y-8535000D01*
X15215000Y-8440000D02*
X15405000Y-8440000D01*
X15310000Y-10245000D02*
X15310000Y-10435000D01*
X15215000Y-10340000D02*
X15405000Y-10340000D01*
X15450000Y-12280000D02*
X15450000Y-12470000D01*
X15355000Y-12375000D02*
X15545000Y-12375000D01*
X16260000Y-12280000D02*
X16260000Y-12470000D01*
X16165000Y-12375000D02*
X16355000Y-12375000D01*
X16410000Y-4526000D02*
X16410000Y-4716000D01*
X16315000Y-4621000D02*
X16505000Y-4621000D01*
X16410000Y-6435000D02*
X16410000Y-6625000D01*
X16315000Y-6530000D02*
X16505000Y-6530000D01*
X16410000Y-8345000D02*
X16410000Y-8535000D01*
X16315000Y-8440000D02*
X16505000Y-8440000D01*
X16410000Y-10245000D02*
X16410000Y-10435000D01*
X16315000Y-10340000D02*
X16505000Y-10340000D01*
X17210000Y-4665000D02*
X17210000Y-4855000D01*
X17115000Y-4760000D02*
X17305000Y-4760000D01*
X17210000Y-6565000D02*
X17210000Y-6755000D01*
X17115000Y-6660000D02*
X17305000Y-6660000D01*
X17210000Y-8475000D02*
X17210000Y-8665000D01*
X17115000Y-8570000D02*
X17305000Y-8570000D01*
X17210000Y-10385000D02*
X17210000Y-10575000D01*
X17115000Y-10480000D02*
X17305000Y-10480000D01*
X17360000Y-12280000D02*
X17360000Y-12470000D01*
X17265000Y-12375000D02*
X17455000Y-12375000D01*
X18310000Y-4665000D02*
X18310000Y-4855000D01*
X18215000Y-4760000D02*
X18405000Y-4760000D01*
X18310000Y-6565000D02*
X18310000Y-6755000D01*
X18215000Y-6660000D02*
X18405000Y-6660000D01*
X18310000Y-8475000D02*
X18310000Y-8665000D01*
X18215000Y-8570000D02*
X18405000Y-8570000D01*
X18310000Y-10385000D02*
X18310000Y-10575000D01*
X18215000Y-10480000D02*
X18405000Y-10480000D01*
X19120000Y-5145000D02*
X19120000Y-5335000D01*
X19025000Y-5240000D02*
X19215000Y-5240000D01*
X19120000Y-7035000D02*
X19120000Y-7225000D01*
X19025000Y-7130000D02*
X19215000Y-7130000D01*
X19120000Y-8955000D02*
X19120000Y-9145000D01*
X19025000Y-9050000D02*
X19215000Y-9050000D01*
X19120000Y-10855000D02*
X19120000Y-11045000D01*
X19025000Y-10950000D02*
X19215000Y-10950000D01*
X20220000Y-5145000D02*
X20220000Y-5335000D01*
X20125000Y-5240000D02*
X20315000Y-5240000D01*
X20220000Y-7035000D02*
X20220000Y-7225000D01*
X20125000Y-7130000D02*
X20315000Y-7130000D01*
X20220000Y-8955000D02*
X20220000Y-9145000D01*
X20125000Y-9050000D02*
X20315000Y-9050000D01*
X20220000Y-10855000D02*
X20220000Y-11045000D01*
X20125000Y-10950000D02*
X20315000Y-10950000D01*
X21020000Y-5295000D02*
X21020000Y-5485000D01*
X20925000Y-5390000D02*
X21115000Y-5390000D01*
X21020000Y-7185000D02*
X21020000Y-7375000D01*
X20925000Y-7280000D02*
X21115000Y-7280000D01*
X21020000Y-9105000D02*
X21020000Y-9295000D01*
X20925000Y-9200000D02*
X21115000Y-9200000D01*
X21024760Y-12912340D02*
X21024760Y-13102340D01*
X20929760Y-13007340D02*
X21119760Y-13007340D01*
X21025000Y-11005000D02*
X21025000Y-11195000D01*
X20930000Y-11100000D02*
X21120000Y-11100000D01*
X22120000Y-5295000D02*
X22120000Y-5485000D01*
X22025000Y-5390000D02*
X22215000Y-5390000D01*
X22120000Y-7185000D02*
X22120000Y-7375000D01*
X22025000Y-7280000D02*
X22215000Y-7280000D01*
X22120000Y-9105000D02*
X22120000Y-9295000D01*
X22025000Y-9200000D02*
X22215000Y-9200000D01*
X22124760Y-12912340D02*
X22124760Y-13102340D01*
X22029760Y-13007340D02*
X22219760Y-13007340D01*
X22125000Y-11005000D02*
X22125000Y-11195000D01*
X22030000Y-11100000D02*
X22220000Y-11100000D01*
X10131638Y-12865054D02*
X10131638Y-12652920D01*
X9919504Y-12652920D01*
X9919504Y-12865054D01*
X10131638Y-12865054D01*
X10191112Y-13408067D02*
X10191112Y-13195933D01*
X9978978Y-13195933D01*
X9978978Y-13408067D01*
X10191112Y-13408067D01*
X10631638Y-13731080D02*
X10631638Y-13518946D01*
X10419504Y-13518946D01*
X10419504Y-13731080D01*
X10631638Y-13731080D01*
X10731538Y-12656111D02*
X10731538Y-12443977D01*
X10519404Y-12443977D01*
X10519404Y-12656111D01*
X10731538Y-12656111D01*
X11015008Y-12639096D02*
X11015008Y-12426962D01*
X10802874Y-12426962D01*
X10802874Y-12639096D01*
X11015008Y-12639096D01*
X11112538Y-13316023D02*
X11112538Y-13103889D01*
X10900404Y-13103889D01*
X10900404Y-13316023D01*
X11112538Y-13316023D01*
X11269008Y-13079037D02*
X11269008Y-12866903D01*
X11056874Y-12866903D01*
X11056874Y-13079037D01*
X11269008Y-13079037D01*
X11656067Y-5476067D02*
X11656067Y-5263933D01*
X11443933Y-5263933D01*
X11443933Y-5476067D01*
X11656067Y-5476067D01*
X11656067Y-7386067D02*
X11656067Y-7173933D01*
X11443933Y-7173933D01*
X11443933Y-7386067D01*
X11656067Y-7386067D01*
X11656067Y-9286067D02*
X11656067Y-9073933D01*
X11443933Y-9073933D01*
X11443933Y-9286067D01*
X11656067Y-9286067D01*
X11656067Y-11186067D02*
X11656067Y-10973933D01*
X11443933Y-10973933D01*
X11443933Y-11186067D01*
X11656067Y-11186067D01*
X11775067Y-4852067D02*
X11775067Y-4639933D01*
X11562933Y-4639933D01*
X11562933Y-4852067D01*
X11775067Y-4852067D01*
X11775067Y-6762067D02*
X11775067Y-6549933D01*
X11562933Y-6549933D01*
X11562933Y-6762067D01*
X11775067Y-6762067D01*
X11775067Y-8662067D02*
X11775067Y-8449933D01*
X11562933Y-8449933D01*
X11562933Y-8662067D01*
X11775067Y-8662067D01*
X11775067Y-10562067D02*
X11775067Y-10349933D01*
X11562933Y-10349933D01*
X11562933Y-10562067D01*
X11775067Y-10562067D01*
X11902067Y-4598067D02*
X11902067Y-4385933D01*
X11689933Y-4385933D01*
X11689933Y-4598067D01*
X11902067Y-4598067D01*
X11902067Y-6508067D02*
X11902067Y-6295933D01*
X11689933Y-6295933D01*
X11689933Y-6508067D01*
X11902067Y-6508067D01*
X11902067Y-8408067D02*
X11902067Y-8195933D01*
X11689933Y-8195933D01*
X11689933Y-8408067D01*
X11902067Y-8408067D01*
X11902067Y-10308067D02*
X11902067Y-10095933D01*
X11689933Y-10095933D01*
X11689933Y-10308067D01*
X11902067Y-10308067D01*
X12156067Y-5696067D02*
X12156067Y-5483933D01*
X11943933Y-5483933D01*
X11943933Y-5696067D01*
X12156067Y-5696067D01*
X12156067Y-7606067D02*
X12156067Y-7393933D01*
X11943933Y-7393933D01*
X11943933Y-7606067D01*
X12156067Y-7606067D01*
X12156067Y-9506067D02*
X12156067Y-9293933D01*
X11943933Y-9293933D01*
X11943933Y-9506067D01*
X12156067Y-9506067D01*
X12156067Y-11406067D02*
X12156067Y-11193933D01*
X11943933Y-11193933D01*
X11943933Y-11406067D01*
X12156067Y-11406067D01*
X12410067Y-4598067D02*
X12410067Y-4385933D01*
X12197933Y-4385933D01*
X12197933Y-4598067D01*
X12410067Y-4598067D01*
X12410067Y-6508067D02*
X12410067Y-6295933D01*
X12197933Y-6295933D01*
X12197933Y-6508067D01*
X12410067Y-6508067D01*
X12410067Y-8408067D02*
X12410067Y-8195933D01*
X12197933Y-8195933D01*
X12197933Y-8408067D01*
X12410067Y-8408067D01*
X12410067Y-10308067D02*
X12410067Y-10095933D01*
X12197933Y-10095933D01*
X12197933Y-10308067D01*
X12410067Y-10308067D01*
X12460309Y-12601332D02*
X12460309Y-12389198D01*
X12248175Y-12389198D01*
X12248175Y-12601332D01*
X12460309Y-12601332D01*
X12506867Y-13234869D02*
X12506867Y-13022735D01*
X12294733Y-13022735D01*
X12294733Y-13234869D01*
X12506867Y-13234869D01*
X12517242Y-12323117D02*
X12517242Y-12110983D01*
X12305108Y-12110983D01*
X12305108Y-12323117D01*
X12517242Y-12323117D01*
X12537067Y-4852067D02*
X12537067Y-4639933D01*
X12324933Y-4639933D01*
X12324933Y-4852067D01*
X12537067Y-4852067D01*
X12537067Y-6762067D02*
X12537067Y-6549933D01*
X12324933Y-6549933D01*
X12324933Y-6762067D01*
X12537067Y-6762067D01*
X12537067Y-8662067D02*
X12537067Y-8449933D01*
X12324933Y-8449933D01*
X12324933Y-8662067D01*
X12537067Y-8662067D01*
X12537067Y-10562067D02*
X12537067Y-10349933D01*
X12324933Y-10349933D01*
X12324933Y-10562067D01*
X12537067Y-10562067D01*
X12656067Y-5476067D02*
X12656067Y-5263933D01*
X12443933Y-5263933D01*
X12443933Y-5476067D01*
X12656067Y-5476067D01*
X12656067Y-7386067D02*
X12656067Y-7173933D01*
X12443933Y-7173933D01*
X12443933Y-7386067D01*
X12656067Y-7386067D01*
X12656067Y-9286067D02*
X12656067Y-9073933D01*
X12443933Y-9073933D01*
X12443933Y-9286067D01*
X12656067Y-9286067D01*
X12656067Y-11186067D02*
X12656067Y-10973933D01*
X12443933Y-10973933D01*
X12443933Y-11186067D01*
X12656067Y-11186067D01*
X13007932Y-12191637D02*
X13007932Y-11979503D01*
X12795798Y-11979503D01*
X12795798Y-12191637D01*
X13007932Y-12191637D01*
X13046770Y-13317963D02*
X13046770Y-13105829D01*
X12834636Y-13105829D01*
X12834636Y-13317963D01*
X13046770Y-13317963D01*
X13196345Y-12404112D02*
X13196345Y-12191978D01*
X12984211Y-12191978D01*
X12984211Y-12404112D01*
X13196345Y-12404112D01*
X13472793Y-12976050D02*
X13472793Y-12763916D01*
X13260659Y-12763916D01*
X13260659Y-12976050D01*
X13472793Y-12976050D01*
X13556067Y-5236067D02*
X13556067Y-5023933D01*
X13343933Y-5023933D01*
X13343933Y-5236067D01*
X13556067Y-5236067D01*
X13556067Y-7146067D02*
X13556067Y-6933933D01*
X13343933Y-6933933D01*
X13343933Y-7146067D01*
X13556067Y-7146067D01*
X13556067Y-9046067D02*
X13556067Y-8833933D01*
X13343933Y-8833933D01*
X13343933Y-9046067D01*
X13556067Y-9046067D01*
X13556067Y-10956067D02*
X13556067Y-10743933D01*
X13343933Y-10743933D01*
X13343933Y-10956067D01*
X13556067Y-10956067D01*
X13675067Y-4612067D02*
X13675067Y-4399933D01*
X13462933Y-4399933D01*
X13462933Y-4612067D01*
X13675067Y-4612067D01*
X13675067Y-6522067D02*
X13675067Y-6309933D01*
X13462933Y-6309933D01*
X13462933Y-6522067D01*
X13675067Y-6522067D01*
X13675067Y-8422067D02*
X13675067Y-8209933D01*
X13462933Y-8209933D01*
X13462933Y-8422067D01*
X13675067Y-8422067D01*
X13675067Y-10332067D02*
X13675067Y-10119933D01*
X13462933Y-10119933D01*
X13462933Y-10332067D01*
X13675067Y-10332067D01*
X13802067Y-4358067D02*
X13802067Y-4145933D01*
X13589933Y-4145933D01*
X13589933Y-4358067D01*
X13802067Y-4358067D01*
X13802067Y-6268067D02*
X13802067Y-6055933D01*
X13589933Y-6055933D01*
X13589933Y-6268067D01*
X13802067Y-6268067D01*
X13802067Y-8168067D02*
X13802067Y-7955933D01*
X13589933Y-7955933D01*
X13589933Y-8168067D01*
X13802067Y-8168067D01*
X13802067Y-10078067D02*
X13802067Y-9865933D01*
X13589933Y-9865933D01*
X13589933Y-10078067D01*
X13802067Y-10078067D01*
X14056067Y-5456067D02*
X14056067Y-5243933D01*
X13843933Y-5243933D01*
X13843933Y-5456067D01*
X14056067Y-5456067D01*
X14056067Y-7366067D02*
X14056067Y-7153933D01*
X13843933Y-7153933D01*
X13843933Y-7366067D01*
X14056067Y-7366067D01*
X14056067Y-9266067D02*
X14056067Y-9053933D01*
X13843933Y-9053933D01*
X13843933Y-9266067D01*
X14056067Y-9266067D01*
X14056067Y-11176067D02*
X14056067Y-10963933D01*
X13843933Y-10963933D01*
X13843933Y-11176067D01*
X14056067Y-11176067D01*
X14310067Y-4358067D02*
X14310067Y-4145933D01*
X14097933Y-4145933D01*
X14097933Y-4358067D01*
X14310067Y-4358067D01*
X14310067Y-6268067D02*
X14310067Y-6055933D01*
X14097933Y-6055933D01*
X14097933Y-6268067D01*
X14310067Y-6268067D01*
X14310067Y-8168067D02*
X14310067Y-7955933D01*
X14097933Y-7955933D01*
X14097933Y-8168067D01*
X14310067Y-8168067D01*
X14310067Y-10078067D02*
X14310067Y-9865933D01*
X14097933Y-9865933D01*
X14097933Y-10078067D01*
X14310067Y-10078067D01*
X14437067Y-4612067D02*
X14437067Y-4399933D01*
X14224933Y-4399933D01*
X14224933Y-4612067D01*
X14437067Y-4612067D01*
X14437067Y-6522067D02*
X14437067Y-6309933D01*
X14224933Y-6309933D01*
X14224933Y-6522067D01*
X14437067Y-6522067D01*
X14437067Y-8422067D02*
X14437067Y-8209933D01*
X14224933Y-8209933D01*
X14224933Y-8422067D01*
X14437067Y-8422067D01*
X14437067Y-10332067D02*
X14437067Y-10119933D01*
X14224933Y-10119933D01*
X14224933Y-10332067D01*
X14437067Y-10332067D01*
X14506067Y-12851067D02*
X14506067Y-12638933D01*
X14293933Y-12638933D01*
X14293933Y-12851067D01*
X14506067Y-12851067D01*
X14556067Y-5236067D02*
X14556067Y-5023933D01*
X14343933Y-5023933D01*
X14343933Y-5236067D01*
X14556067Y-5236067D01*
X14556067Y-7146067D02*
X14556067Y-6933933D01*
X14343933Y-6933933D01*
X14343933Y-7146067D01*
X14556067Y-7146067D01*
X14556067Y-9046067D02*
X14556067Y-8833933D01*
X14343933Y-8833933D01*
X14343933Y-9046067D01*
X14556067Y-9046067D01*
X14556067Y-10956067D02*
X14556067Y-10743933D01*
X14343933Y-10743933D01*
X14343933Y-10956067D01*
X14556067Y-10956067D01*
X14625067Y-12227067D02*
X14625067Y-12014933D01*
X14412933Y-12014933D01*
X14412933Y-12227067D01*
X14625067Y-12227067D01*
X14752067Y-11973067D02*
X14752067Y-11760933D01*
X14539933Y-11760933D01*
X14539933Y-11973067D01*
X14752067Y-11973067D01*
X15006067Y-13071067D02*
X15006067Y-12858933D01*
X14793933Y-12858933D01*
X14793933Y-13071067D01*
X15006067Y-13071067D01*
X15260067Y-11973067D02*
X15260067Y-11760933D01*
X15047933Y-11760933D01*
X15047933Y-11973067D01*
X15260067Y-11973067D01*
X15387067Y-12227067D02*
X15387067Y-12014933D01*
X15174933Y-12014933D01*
X15174933Y-12227067D01*
X15387067Y-12227067D01*
X15466067Y-5097067D02*
X15466067Y-4884933D01*
X15253933Y-4884933D01*
X15253933Y-5097067D01*
X15466067Y-5097067D01*
X15466067Y-7006067D02*
X15466067Y-6793933D01*
X15253933Y-6793933D01*
X15253933Y-7006067D01*
X15466067Y-7006067D01*
X15466067Y-8916067D02*
X15466067Y-8703933D01*
X15253933Y-8703933D01*
X15253933Y-8916067D01*
X15466067Y-8916067D01*
X15466067Y-10816067D02*
X15466067Y-10603933D01*
X15253933Y-10603933D01*
X15253933Y-10816067D01*
X15466067Y-10816067D01*
X15506067Y-12851067D02*
X15506067Y-12638933D01*
X15293933Y-12638933D01*
X15293933Y-12851067D01*
X15506067Y-12851067D01*
X15585067Y-4473067D02*
X15585067Y-4260933D01*
X15372933Y-4260933D01*
X15372933Y-4473067D01*
X15585067Y-4473067D01*
X15585067Y-6382067D02*
X15585067Y-6169933D01*
X15372933Y-6169933D01*
X15372933Y-6382067D01*
X15585067Y-6382067D01*
X15585067Y-8292067D02*
X15585067Y-8079933D01*
X15372933Y-8079933D01*
X15372933Y-8292067D01*
X15585067Y-8292067D01*
X15585067Y-10192067D02*
X15585067Y-9979933D01*
X15372933Y-9979933D01*
X15372933Y-10192067D01*
X15585067Y-10192067D01*
X15712067Y-4219067D02*
X15712067Y-4006933D01*
X15499933Y-4006933D01*
X15499933Y-4219067D01*
X15712067Y-4219067D01*
X15712067Y-6128067D02*
X15712067Y-5915933D01*
X15499933Y-5915933D01*
X15499933Y-6128067D01*
X15712067Y-6128067D01*
X15712067Y-8038067D02*
X15712067Y-7825933D01*
X15499933Y-7825933D01*
X15499933Y-8038067D01*
X15712067Y-8038067D01*
X15712067Y-9938067D02*
X15712067Y-9725933D01*
X15499933Y-9725933D01*
X15499933Y-9938067D01*
X15712067Y-9938067D01*
X15966067Y-5317067D02*
X15966067Y-5104933D01*
X15753933Y-5104933D01*
X15753933Y-5317067D01*
X15966067Y-5317067D01*
X15966067Y-7226067D02*
X15966067Y-7013933D01*
X15753933Y-7013933D01*
X15753933Y-7226067D01*
X15966067Y-7226067D01*
X15966067Y-9136067D02*
X15966067Y-8923933D01*
X15753933Y-8923933D01*
X15753933Y-9136067D01*
X15966067Y-9136067D01*
X15966067Y-11036067D02*
X15966067Y-10823933D01*
X15753933Y-10823933D01*
X15753933Y-11036067D01*
X15966067Y-11036067D01*
X16220067Y-4219067D02*
X16220067Y-4006933D01*
X16007933Y-4006933D01*
X16007933Y-4219067D01*
X16220067Y-4219067D01*
X16220067Y-6128067D02*
X16220067Y-5915933D01*
X16007933Y-5915933D01*
X16007933Y-6128067D01*
X16220067Y-6128067D01*
X16220067Y-8038067D02*
X16220067Y-7825933D01*
X16007933Y-7825933D01*
X16007933Y-8038067D01*
X16220067Y-8038067D01*
X16220067Y-9938067D02*
X16220067Y-9725933D01*
X16007933Y-9725933D01*
X16007933Y-9938067D01*
X16220067Y-9938067D01*
X16347067Y-4473067D02*
X16347067Y-4260933D01*
X16134933Y-4260933D01*
X16134933Y-4473067D01*
X16347067Y-4473067D01*
X16347067Y-6382067D02*
X16347067Y-6169933D01*
X16134933Y-6169933D01*
X16134933Y-6382067D01*
X16347067Y-6382067D01*
X16347067Y-8292067D02*
X16347067Y-8079933D01*
X16134933Y-8079933D01*
X16134933Y-8292067D01*
X16347067Y-8292067D01*
X16347067Y-10192067D02*
X16347067Y-9979933D01*
X16134933Y-9979933D01*
X16134933Y-10192067D01*
X16347067Y-10192067D01*
X16416067Y-12851067D02*
X16416067Y-12638933D01*
X16203933Y-12638933D01*
X16203933Y-12851067D01*
X16416067Y-12851067D01*
X16466067Y-5097067D02*
X16466067Y-4884933D01*
X16253933Y-4884933D01*
X16253933Y-5097067D01*
X16466067Y-5097067D01*
X16466067Y-7006067D02*
X16466067Y-6793933D01*
X16253933Y-6793933D01*
X16253933Y-7006067D01*
X16466067Y-7006067D01*
X16466067Y-8916067D02*
X16466067Y-8703933D01*
X16253933Y-8703933D01*
X16253933Y-8916067D01*
X16466067Y-8916067D01*
X16466067Y-10816067D02*
X16466067Y-10603933D01*
X16253933Y-10603933D01*
X16253933Y-10816067D01*
X16466067Y-10816067D01*
X16535067Y-12227067D02*
X16535067Y-12014933D01*
X16322933Y-12014933D01*
X16322933Y-12227067D01*
X16535067Y-12227067D01*
X16662067Y-11973067D02*
X16662067Y-11760933D01*
X16449933Y-11760933D01*
X16449933Y-11973067D01*
X16662067Y-11973067D01*
X16916067Y-13071067D02*
X16916067Y-12858933D01*
X16703933Y-12858933D01*
X16703933Y-13071067D01*
X16916067Y-13071067D01*
X17170067Y-11973067D02*
X17170067Y-11760933D01*
X16957933Y-11760933D01*
X16957933Y-11973067D01*
X17170067Y-11973067D01*
X17297067Y-12227067D02*
X17297067Y-12014933D01*
X17084933Y-12014933D01*
X17084933Y-12227067D01*
X17297067Y-12227067D01*
X17366067Y-5236067D02*
X17366067Y-5023933D01*
X17153933Y-5023933D01*
X17153933Y-5236067D01*
X17366067Y-5236067D01*
X17366067Y-7136067D02*
X17366067Y-6923933D01*
X17153933Y-6923933D01*
X17153933Y-7136067D01*
X17366067Y-7136067D01*
X17366067Y-9046067D02*
X17366067Y-8833933D01*
X17153933Y-8833933D01*
X17153933Y-9046067D01*
X17366067Y-9046067D01*
X17366067Y-10956067D02*
X17366067Y-10743933D01*
X17153933Y-10743933D01*
X17153933Y-10956067D01*
X17366067Y-10956067D01*
X17416067Y-12851067D02*
X17416067Y-12638933D01*
X17203933Y-12638933D01*
X17203933Y-12851067D01*
X17416067Y-12851067D01*
X17485067Y-4612067D02*
X17485067Y-4399933D01*
X17272933Y-4399933D01*
X17272933Y-4612067D01*
X17485067Y-4612067D01*
X17485067Y-6512067D02*
X17485067Y-6299933D01*
X17272933Y-6299933D01*
X17272933Y-6512067D01*
X17485067Y-6512067D01*
X17485067Y-8422067D02*
X17485067Y-8209933D01*
X17272933Y-8209933D01*
X17272933Y-8422067D01*
X17485067Y-8422067D01*
X17485067Y-10332067D02*
X17485067Y-10119933D01*
X17272933Y-10119933D01*
X17272933Y-10332067D01*
X17485067Y-10332067D01*
X17612067Y-4358067D02*
X17612067Y-4145933D01*
X17399933Y-4145933D01*
X17399933Y-4358067D01*
X17612067Y-4358067D01*
X17612067Y-6258067D02*
X17612067Y-6045933D01*
X17399933Y-6045933D01*
X17399933Y-6258067D01*
X17612067Y-6258067D01*
X17612067Y-8168067D02*
X17612067Y-7955933D01*
X17399933Y-7955933D01*
X17399933Y-8168067D01*
X17612067Y-8168067D01*
X17612067Y-10078067D02*
X17612067Y-9865933D01*
X17399933Y-9865933D01*
X17399933Y-10078067D01*
X17612067Y-10078067D01*
X17866067Y-5456067D02*
X17866067Y-5243933D01*
X17653933Y-5243933D01*
X17653933Y-5456067D01*
X17866067Y-5456067D01*
X17866067Y-7356067D02*
X17866067Y-7143933D01*
X17653933Y-7143933D01*
X17653933Y-7356067D01*
X17866067Y-7356067D01*
X17866067Y-9266067D02*
X17866067Y-9053933D01*
X17653933Y-9053933D01*
X17653933Y-9266067D01*
X17866067Y-9266067D01*
X17866067Y-11176067D02*
X17866067Y-10963933D01*
X17653933Y-10963933D01*
X17653933Y-11176067D01*
X17866067Y-11176067D01*
X18120067Y-4358067D02*
X18120067Y-4145933D01*
X17907933Y-4145933D01*
X17907933Y-4358067D01*
X18120067Y-4358067D01*
X18120067Y-6258067D02*
X18120067Y-6045933D01*
X17907933Y-6045933D01*
X17907933Y-6258067D01*
X18120067Y-6258067D01*
X18120067Y-8168067D02*
X18120067Y-7955933D01*
X17907933Y-7955933D01*
X17907933Y-8168067D01*
X18120067Y-8168067D01*
X18120067Y-10078067D02*
X18120067Y-9865933D01*
X17907933Y-9865933D01*
X17907933Y-10078067D01*
X18120067Y-10078067D01*
X18247067Y-4612067D02*
X18247067Y-4399933D01*
X18034933Y-4399933D01*
X18034933Y-4612067D01*
X18247067Y-4612067D01*
X18247067Y-6512067D02*
X18247067Y-6299933D01*
X18034933Y-6299933D01*
X18034933Y-6512067D01*
X18247067Y-6512067D01*
X18247067Y-8422067D02*
X18247067Y-8209933D01*
X18034933Y-8209933D01*
X18034933Y-8422067D01*
X18247067Y-8422067D01*
X18247067Y-10332067D02*
X18247067Y-10119933D01*
X18034933Y-10119933D01*
X18034933Y-10332067D01*
X18247067Y-10332067D01*
X18366067Y-5236067D02*
X18366067Y-5023933D01*
X18153933Y-5023933D01*
X18153933Y-5236067D01*
X18366067Y-5236067D01*
X18366067Y-7136067D02*
X18366067Y-6923933D01*
X18153933Y-6923933D01*
X18153933Y-7136067D01*
X18366067Y-7136067D01*
X18366067Y-9046067D02*
X18366067Y-8833933D01*
X18153933Y-8833933D01*
X18153933Y-9046067D01*
X18366067Y-9046067D01*
X18366067Y-10956067D02*
X18366067Y-10743933D01*
X18153933Y-10743933D01*
X18153933Y-10956067D01*
X18366067Y-10956067D01*
X19276067Y-5716067D02*
X19276067Y-5503933D01*
X19063933Y-5503933D01*
X19063933Y-5716067D01*
X19276067Y-5716067D01*
X19276067Y-7606067D02*
X19276067Y-7393933D01*
X19063933Y-7393933D01*
X19063933Y-7606067D01*
X19276067Y-7606067D01*
X19276067Y-9526067D02*
X19276067Y-9313933D01*
X19063933Y-9313933D01*
X19063933Y-9526067D01*
X19276067Y-9526067D01*
X19276067Y-11426067D02*
X19276067Y-11213933D01*
X19063933Y-11213933D01*
X19063933Y-11426067D01*
X19276067Y-11426067D01*
X19395067Y-5092067D02*
X19395067Y-4879933D01*
X19182933Y-4879933D01*
X19182933Y-5092067D01*
X19395067Y-5092067D01*
X19395067Y-6982067D02*
X19395067Y-6769933D01*
X19182933Y-6769933D01*
X19182933Y-6982067D01*
X19395067Y-6982067D01*
X19395067Y-8902067D02*
X19395067Y-8689933D01*
X19182933Y-8689933D01*
X19182933Y-8902067D01*
X19395067Y-8902067D01*
X19395067Y-10802067D02*
X19395067Y-10589933D01*
X19182933Y-10589933D01*
X19182933Y-10802067D01*
X19395067Y-10802067D01*
X19522067Y-4838067D02*
X19522067Y-4625933D01*
X19309933Y-4625933D01*
X19309933Y-4838067D01*
X19522067Y-4838067D01*
X19522067Y-6728067D02*
X19522067Y-6515933D01*
X19309933Y-6515933D01*
X19309933Y-6728067D01*
X19522067Y-6728067D01*
X19522067Y-8648067D02*
X19522067Y-8435933D01*
X19309933Y-8435933D01*
X19309933Y-8648067D01*
X19522067Y-8648067D01*
X19522067Y-10548067D02*
X19522067Y-10335933D01*
X19309933Y-10335933D01*
X19309933Y-10548067D01*
X19522067Y-10548067D01*
X19776067Y-5936067D02*
X19776067Y-5723933D01*
X19563933Y-5723933D01*
X19563933Y-5936067D01*
X19776067Y-5936067D01*
X19776067Y-7826067D02*
X19776067Y-7613933D01*
X19563933Y-7613933D01*
X19563933Y-7826067D01*
X19776067Y-7826067D01*
X19776067Y-9746067D02*
X19776067Y-9533933D01*
X19563933Y-9533933D01*
X19563933Y-9746067D01*
X19776067Y-9746067D01*
X19776067Y-11646067D02*
X19776067Y-11433933D01*
X19563933Y-11433933D01*
X19563933Y-11646067D01*
X19776067Y-11646067D01*
X20030067Y-4838067D02*
X20030067Y-4625933D01*
X19817933Y-4625933D01*
X19817933Y-4838067D01*
X20030067Y-4838067D01*
X20030067Y-6728067D02*
X20030067Y-6515933D01*
X19817933Y-6515933D01*
X19817933Y-6728067D01*
X20030067Y-6728067D01*
X20030067Y-8648067D02*
X20030067Y-8435933D01*
X19817933Y-8435933D01*
X19817933Y-8648067D01*
X20030067Y-8648067D01*
X20030067Y-10548067D02*
X20030067Y-10335933D01*
X19817933Y-10335933D01*
X19817933Y-10548067D01*
X20030067Y-10548067D01*
X20157067Y-5092067D02*
X20157067Y-4879933D01*
X19944933Y-4879933D01*
X19944933Y-5092067D01*
X20157067Y-5092067D01*
X20157067Y-6982067D02*
X20157067Y-6769933D01*
X19944933Y-6769933D01*
X19944933Y-6982067D01*
X20157067Y-6982067D01*
X20157067Y-8902067D02*
X20157067Y-8689933D01*
X19944933Y-8689933D01*
X19944933Y-8902067D01*
X20157067Y-8902067D01*
X20157067Y-10802067D02*
X20157067Y-10589933D01*
X19944933Y-10589933D01*
X19944933Y-10802067D01*
X20157067Y-10802067D01*
X20276067Y-5716067D02*
X20276067Y-5503933D01*
X20063933Y-5503933D01*
X20063933Y-5716067D01*
X20276067Y-5716067D01*
X20276067Y-7606067D02*
X20276067Y-7393933D01*
X20063933Y-7393933D01*
X20063933Y-7606067D01*
X20276067Y-7606067D01*
X20276067Y-9526067D02*
X20276067Y-9313933D01*
X20063933Y-9313933D01*
X20063933Y-9526067D01*
X20276067Y-9526067D01*
X20276067Y-11426067D02*
X20276067Y-11213933D01*
X20063933Y-11213933D01*
X20063933Y-11426067D01*
X20276067Y-11426067D01*
X21176067Y-5866067D02*
X21176067Y-5653933D01*
X20963933Y-5653933D01*
X20963933Y-5866067D01*
X21176067Y-5866067D01*
X21176067Y-7756067D02*
X21176067Y-7543933D01*
X20963933Y-7543933D01*
X20963933Y-7756067D01*
X21176067Y-7756067D01*
X21176067Y-9676067D02*
X21176067Y-9463933D01*
X20963933Y-9463933D01*
X20963933Y-9676067D01*
X21176067Y-9676067D01*
X21180827Y-13483407D02*
X21180827Y-13271273D01*
X20968693Y-13271273D01*
X20968693Y-13483407D01*
X21180827Y-13483407D01*
X21181067Y-11576067D02*
X21181067Y-11363933D01*
X20968933Y-11363933D01*
X20968933Y-11576067D01*
X21181067Y-11576067D01*
X21295067Y-5242067D02*
X21295067Y-5029933D01*
X21082933Y-5029933D01*
X21082933Y-5242067D01*
X21295067Y-5242067D01*
X21295067Y-7132067D02*
X21295067Y-6919933D01*
X21082933Y-6919933D01*
X21082933Y-7132067D01*
X21295067Y-7132067D01*
X21295067Y-9052067D02*
X21295067Y-8839933D01*
X21082933Y-8839933D01*
X21082933Y-9052067D01*
X21295067Y-9052067D01*
X21299827Y-12859407D02*
X21299827Y-12647273D01*
X21087693Y-12647273D01*
X21087693Y-12859407D01*
X21299827Y-12859407D01*
X21300067Y-10952067D02*
X21300067Y-10739933D01*
X21087933Y-10739933D01*
X21087933Y-10952067D01*
X21300067Y-10952067D01*
X21422067Y-4988067D02*
X21422067Y-4775933D01*
X21209933Y-4775933D01*
X21209933Y-4988067D01*
X21422067Y-4988067D01*
X21422067Y-6878067D02*
X21422067Y-6665933D01*
X21209933Y-6665933D01*
X21209933Y-6878067D01*
X21422067Y-6878067D01*
X21422067Y-8798067D02*
X21422067Y-8585933D01*
X21209933Y-8585933D01*
X21209933Y-8798067D01*
X21422067Y-8798067D01*
X21426827Y-12605407D02*
X21426827Y-12393273D01*
X21214693Y-12393273D01*
X21214693Y-12605407D01*
X21426827Y-12605407D01*
X21427067Y-10698067D02*
X21427067Y-10485933D01*
X21214933Y-10485933D01*
X21214933Y-10698067D01*
X21427067Y-10698067D01*
X21676067Y-6086067D02*
X21676067Y-5873933D01*
X21463933Y-5873933D01*
X21463933Y-6086067D01*
X21676067Y-6086067D01*
X21676067Y-7976067D02*
X21676067Y-7763933D01*
X21463933Y-7763933D01*
X21463933Y-7976067D01*
X21676067Y-7976067D01*
X21676067Y-9896067D02*
X21676067Y-9683933D01*
X21463933Y-9683933D01*
X21463933Y-9896067D01*
X21676067Y-9896067D01*
X21680827Y-13703407D02*
X21680827Y-13491273D01*
X21468693Y-13491273D01*
X21468693Y-13703407D01*
X21680827Y-13703407D01*
X21681067Y-11796067D02*
X21681067Y-11583933D01*
X21468933Y-11583933D01*
X21468933Y-11796067D01*
X21681067Y-11796067D01*
X21930067Y-4988067D02*
X21930067Y-4775933D01*
X21717933Y-4775933D01*
X21717933Y-4988067D01*
X21930067Y-4988067D01*
X21930067Y-6878067D02*
X21930067Y-6665933D01*
X21717933Y-6665933D01*
X21717933Y-6878067D01*
X21930067Y-6878067D01*
X21930067Y-8798067D02*
X21930067Y-8585933D01*
X21717933Y-8585933D01*
X21717933Y-8798067D01*
X21930067Y-8798067D01*
X21934827Y-12605407D02*
X21934827Y-12393273D01*
X21722693Y-12393273D01*
X21722693Y-12605407D01*
X21934827Y-12605407D01*
X21935067Y-10698067D02*
X21935067Y-10485933D01*
X21722933Y-10485933D01*
X21722933Y-10698067D01*
X21935067Y-10698067D01*
X22057067Y-5242067D02*
X22057067Y-5029933D01*
X21844933Y-5029933D01*
X21844933Y-5242067D01*
X22057067Y-5242067D01*
X22057067Y-7132067D02*
X22057067Y-6919933D01*
X21844933Y-6919933D01*
X21844933Y-7132067D01*
X22057067Y-7132067D01*
X22057067Y-9052067D02*
X22057067Y-8839933D01*
X21844933Y-8839933D01*
X21844933Y-9052067D01*
X22057067Y-9052067D01*
X22061827Y-12859407D02*
X22061827Y-12647273D01*
X21849693Y-12647273D01*
X21849693Y-12859407D01*
X22061827Y-12859407D01*
X22062067Y-10952067D02*
X22062067Y-10739933D01*
X21849933Y-10739933D01*
X21849933Y-10952067D01*
X22062067Y-10952067D01*
X22176067Y-5866067D02*
X22176067Y-5653933D01*
X21963933Y-5653933D01*
X21963933Y-5866067D01*
X22176067Y-5866067D01*
X22176067Y-7756067D02*
X22176067Y-7543933D01*
X21963933Y-7543933D01*
X21963933Y-7756067D01*
X22176067Y-7756067D01*
X22176067Y-9676067D02*
X22176067Y-9463933D01*
X21963933Y-9463933D01*
X21963933Y-9676067D01*
X22176067Y-9676067D01*
X22180827Y-13483407D02*
X22180827Y-13271273D01*
X21968693Y-13271273D01*
X21968693Y-13483407D01*
X22180827Y-13483407D01*
X22181067Y-11576067D02*
X22181067Y-11363933D01*
X21968933Y-11363933D01*
X21968933Y-11576067D01*
X22181067Y-11576067D01*
X10596000Y-13207000D02*
X10796000Y-13007000D01*
X10596000Y-12807000D01*
X10396000Y-13007000D01*
X10596000Y-13207000D01*
X12050000Y-5200000D02*
X12250000Y-5000000D01*
X12050000Y-4800000D01*
X11850000Y-5000000D01*
X12050000Y-5200000D01*
X12050000Y-7110000D02*
X12250000Y-6910000D01*
X12050000Y-6710000D01*
X11850000Y-6910000D01*
X12050000Y-7110000D01*
X12050000Y-9010000D02*
X12250000Y-8810000D01*
X12050000Y-8610000D01*
X11850000Y-8810000D01*
X12050000Y-9010000D01*
X12050000Y-10910000D02*
X12250000Y-10710000D01*
X12050000Y-10510000D01*
X11850000Y-10710000D01*
X12050000Y-10910000D01*
X12788000Y-12842000D02*
X12988000Y-12642000D01*
X12788000Y-12442000D01*
X12588000Y-12642000D01*
X12788000Y-12842000D01*
X13950000Y-4960000D02*
X14150000Y-4760000D01*
X13950000Y-4560000D01*
X13750000Y-4760000D01*
X13950000Y-4960000D01*
X13950000Y-6870000D02*
X14150000Y-6670000D01*
X13950000Y-6470000D01*
X13750000Y-6670000D01*
X13950000Y-6870000D01*
X13950000Y-8770000D02*
X14150000Y-8570000D01*
X13950000Y-8370000D01*
X13750000Y-8570000D01*
X13950000Y-8770000D01*
X13950000Y-10680000D02*
X14150000Y-10480000D01*
X13950000Y-10280000D01*
X13750000Y-10480000D01*
X13950000Y-10680000D01*
X14900000Y-12575000D02*
X15100000Y-12375000D01*
X14900000Y-12175000D01*
X14700000Y-12375000D01*
X14900000Y-12575000D01*
X15860000Y-4821000D02*
X16060000Y-4621000D01*
X15860000Y-4421000D01*
X15660000Y-4621000D01*
X15860000Y-4821000D01*
X15860000Y-6730000D02*
X16060000Y-6530000D01*
X15860000Y-6330000D01*
X15660000Y-6530000D01*
X15860000Y-6730000D01*
X15860000Y-8640000D02*
X16060000Y-8440000D01*
X15860000Y-8240000D01*
X15660000Y-8440000D01*
X15860000Y-8640000D01*
X15860000Y-10540000D02*
X16060000Y-10340000D01*
X15860000Y-10140000D01*
X15660000Y-10340000D01*
X15860000Y-10540000D01*
X16810000Y-12575000D02*
X17010000Y-12375000D01*
X16810000Y-12175000D01*
X16610000Y-12375000D01*
X16810000Y-12575000D01*
X17760000Y-4960000D02*
X17960000Y-4760000D01*
X17760000Y-4560000D01*
X17560000Y-4760000D01*
X17760000Y-4960000D01*
X17760000Y-6860000D02*
X17960000Y-6660000D01*
X17760000Y-6460000D01*
X17560000Y-6660000D01*
X17760000Y-6860000D01*
X17760000Y-8770000D02*
X17960000Y-8570000D01*
X17760000Y-8370000D01*
X17560000Y-8570000D01*
X17760000Y-8770000D01*
X17760000Y-10680000D02*
X17960000Y-10480000D01*
X17760000Y-10280000D01*
X17560000Y-10480000D01*
X17760000Y-10680000D01*
X19670000Y-5440000D02*
X19870000Y-5240000D01*
X19670000Y-5040000D01*
X19470000Y-5240000D01*
X19670000Y-5440000D01*
X19670000Y-7330000D02*
X19870000Y-7130000D01*
X19670000Y-6930000D01*
X19470000Y-7130000D01*
X19670000Y-7330000D01*
X19670000Y-9250000D02*
X19870000Y-9050000D01*
X19670000Y-8850000D01*
X19470000Y-9050000D01*
X19670000Y-9250000D01*
X19670000Y-11150000D02*
X19870000Y-10950000D01*
X19670000Y-10750000D01*
X19470000Y-10950000D01*
X19670000Y-11150000D01*
X21570000Y-5590000D02*
X21770000Y-5390000D01*
X21570000Y-5190000D01*
X21370000Y-5390000D01*
X21570000Y-5590000D01*
X21570000Y-7480000D02*
X21770000Y-7280000D01*
X21570000Y-7080000D01*
X21370000Y-7280000D01*
X21570000Y-7480000D01*
X21570000Y-9400000D02*
X21770000Y-9200000D01*
X21570000Y-9000000D01*
X21370000Y-9200000D01*
X21570000Y-9400000D01*
X21574760Y-13207340D02*
X21774760Y-13007340D01*
X21574760Y-12807340D01*
X21374760Y-13007340D01*
X21574760Y-13207340D01*
X21575000Y-11300000D02*
X21775000Y-11100000D01*
X21575000Y-10900000D01*
X21375000Y-11100000D01*
X21575000Y-11300000D01*
D12*
X5249096Y-15127912D02*
X5249096Y-14827912D01*
X5320525Y-14827912D01*
X5363382Y-14842198D01*
X5391954Y-14870769D01*
X5406239Y-14899341D01*
X5420525Y-14956484D01*
X5420525Y-14999341D01*
X5406239Y-15056484D01*
X5391954Y-15085055D01*
X5363382Y-15113627D01*
X5320525Y-15127912D01*
X5249096Y-15127912D01*
X5549096Y-15127912D02*
X5549096Y-14927912D01*
X5549096Y-14985055D02*
X5563382Y-14956484D01*
X5577668Y-14942198D01*
X5606239Y-14927912D01*
X5634811Y-14927912D01*
X5734811Y-15127912D02*
X5734811Y-14927912D01*
X5734811Y-14827912D02*
X5720525Y-14842198D01*
X5734811Y-14856484D01*
X5749096Y-14842198D01*
X5734811Y-14827912D01*
X5734811Y-14856484D01*
X5920525Y-15127912D02*
X5891953Y-15113627D01*
X5877668Y-15085055D01*
X5877668Y-14827912D01*
X6077668Y-15127912D02*
X6049096Y-15113627D01*
X6034811Y-15085055D01*
X6034811Y-14827912D01*
X6420525Y-15127912D02*
X6420525Y-14827912D01*
X6520525Y-15042198D01*
X6620525Y-14827912D01*
X6620525Y-15127912D01*
X6891953Y-15127912D02*
X6891953Y-14970769D01*
X6877668Y-14942198D01*
X6849096Y-14927912D01*
X6791953Y-14927912D01*
X6763382Y-14942198D01*
X6891953Y-15113627D02*
X6863382Y-15127912D01*
X6791953Y-15127912D01*
X6763382Y-15113627D01*
X6749096Y-15085055D01*
X6749096Y-15056484D01*
X6763382Y-15027912D01*
X6791953Y-15013627D01*
X6863382Y-15013627D01*
X6891953Y-14999341D01*
X7034811Y-14927912D02*
X7034811Y-15227912D01*
X7034811Y-14942198D02*
X7063382Y-14927912D01*
X7120525Y-14927912D01*
X7149096Y-14942198D01*
X7163382Y-14956484D01*
X7177668Y-14985055D01*
X7177668Y-15070769D01*
X7163382Y-15099341D01*
X7149096Y-15113627D01*
X7120525Y-15127912D01*
X7063382Y-15127912D01*
X7034811Y-15113627D01*
X7306239Y-15099341D02*
X7320525Y-15113627D01*
X7306239Y-15127912D01*
X7291953Y-15113627D01*
X7306239Y-15099341D01*
X7306239Y-15127912D01*
X7306239Y-14942198D02*
X7320525Y-14956484D01*
X7306239Y-14970769D01*
X7291953Y-14956484D01*
X7306239Y-14942198D01*
X7306239Y-14970769D01*
X4842668Y-15562198D02*
X4962668Y-15682198D01*
X4962668Y-15562198D02*
X4842668Y-15682198D01*
X5406239Y-15757912D02*
X5234811Y-15757912D01*
X5320525Y-15757912D02*
X5320525Y-15457912D01*
X5291954Y-15500769D01*
X5263382Y-15529341D01*
X5234811Y-15543627D01*
X5534811Y-15729341D02*
X5549096Y-15743627D01*
X5534811Y-15757912D01*
X5520525Y-15743627D01*
X5534811Y-15729341D01*
X5534811Y-15757912D01*
X5663382Y-15486484D02*
X5677668Y-15472198D01*
X5706239Y-15457912D01*
X5777668Y-15457912D01*
X5806239Y-15472198D01*
X5820525Y-15486484D01*
X5834811Y-15515055D01*
X5834811Y-15543627D01*
X5820525Y-15586484D01*
X5649096Y-15757912D01*
X5834811Y-15757912D01*
X6020525Y-15457912D02*
X6049096Y-15457912D01*
X6077668Y-15472198D01*
X6091953Y-15486484D01*
X6106239Y-15515055D01*
X6120525Y-15572198D01*
X6120525Y-15643627D01*
X6106239Y-15700769D01*
X6091953Y-15729341D01*
X6077668Y-15743627D01*
X6049096Y-15757912D01*
X6020525Y-15757912D01*
X5991953Y-15743627D01*
X5977668Y-15729341D01*
X5963382Y-15700769D01*
X5949096Y-15643627D01*
X5949096Y-15572198D01*
X5963382Y-15515055D01*
X5977668Y-15486484D01*
X5991953Y-15472198D01*
X6020525Y-15457912D01*
X6306239Y-15457912D02*
X6334811Y-15457912D01*
X6363382Y-15472198D01*
X6377668Y-15486484D01*
X6391953Y-15515055D01*
X6406239Y-15572198D01*
X6406239Y-15643627D01*
X6391953Y-15700769D01*
X6377668Y-15729341D01*
X6363382Y-15743627D01*
X6334811Y-15757912D01*
X6306239Y-15757912D01*
X6277668Y-15743627D01*
X6263382Y-15729341D01*
X6249096Y-15700769D01*
X6234811Y-15643627D01*
X6234811Y-15572198D01*
X6249096Y-15515055D01*
X6263382Y-15486484D01*
X6277668Y-15472198D01*
X6306239Y-15457912D01*
X6534811Y-15757912D02*
X6534811Y-15557912D01*
X6534811Y-15586484D02*
X6549096Y-15572198D01*
X6577668Y-15557912D01*
X6620525Y-15557912D01*
X6649096Y-15572198D01*
X6663382Y-15600769D01*
X6663382Y-15757912D01*
X6663382Y-15600769D02*
X6677668Y-15572198D01*
X6706239Y-15557912D01*
X6749096Y-15557912D01*
X6777668Y-15572198D01*
X6791953Y-15600769D01*
X6791953Y-15757912D01*
X6934811Y-15757912D02*
X6934811Y-15557912D01*
X6934811Y-15586484D02*
X6949096Y-15572198D01*
X6977668Y-15557912D01*
X7020525Y-15557912D01*
X7049096Y-15572198D01*
X7063382Y-15600769D01*
X7063382Y-15757912D01*
X7063382Y-15600769D02*
X7077668Y-15572198D01*
X7106239Y-15557912D01*
X7149096Y-15557912D01*
X7177668Y-15572198D01*
X7191953Y-15600769D01*
X7191953Y-15757912D01*
X7777668Y-15443627D02*
X7520525Y-15829341D01*
X8163382Y-15457912D02*
X8191953Y-15457912D01*
X8220525Y-15472198D01*
X8234811Y-15486484D01*
X8249096Y-15515055D01*
X8263382Y-15572198D01*
X8263382Y-15643627D01*
X8249096Y-15700769D01*
X8234811Y-15729341D01*
X8220525Y-15743627D01*
X8191953Y-15757912D01*
X8163382Y-15757912D01*
X8134811Y-15743627D01*
X8120525Y-15729341D01*
X8106239Y-15700769D01*
X8091953Y-15643627D01*
X8091953Y-15572198D01*
X8106239Y-15515055D01*
X8120525Y-15486484D01*
X8134811Y-15472198D01*
X8163382Y-15457912D01*
X8391954Y-15729341D02*
X8406239Y-15743627D01*
X8391954Y-15757912D01*
X8377668Y-15743627D01*
X8391954Y-15729341D01*
X8391954Y-15757912D01*
X8591954Y-15457912D02*
X8620525Y-15457912D01*
X8649096Y-15472198D01*
X8663382Y-15486484D01*
X8677668Y-15515055D01*
X8691954Y-15572198D01*
X8691954Y-15643627D01*
X8677668Y-15700769D01*
X8663382Y-15729341D01*
X8649096Y-15743627D01*
X8620525Y-15757912D01*
X8591954Y-15757912D01*
X8563382Y-15743627D01*
X8549096Y-15729341D01*
X8534811Y-15700769D01*
X8520525Y-15643627D01*
X8520525Y-15572198D01*
X8534811Y-15515055D01*
X8549096Y-15486484D01*
X8563382Y-15472198D01*
X8591954Y-15457912D01*
X8949096Y-15557912D02*
X8949096Y-15757912D01*
X8877668Y-15443627D02*
X8806239Y-15657912D01*
X8991954Y-15657912D01*
X9077668Y-15457912D02*
X9277668Y-15457912D01*
X9149096Y-15757912D01*
X9377668Y-15486484D02*
X9391954Y-15472198D01*
X9420525Y-15457912D01*
X9491954Y-15457912D01*
X9520525Y-15472198D01*
X9534811Y-15486484D01*
X9549096Y-15515055D01*
X9549096Y-15543627D01*
X9534811Y-15586484D01*
X9363382Y-15757912D01*
X9549096Y-15757912D01*
X9663382Y-15457912D02*
X9663382Y-15515055D01*
X9777668Y-15457912D02*
X9777668Y-15515055D01*
X10220525Y-15872198D02*
X10206239Y-15857912D01*
X10177668Y-15815055D01*
X10163382Y-15786484D01*
X10149096Y-15743627D01*
X10134811Y-15672198D01*
X10134811Y-15615055D01*
X10149096Y-15543627D01*
X10163382Y-15500769D01*
X10177668Y-15472198D01*
X10206239Y-15429341D01*
X10220525Y-15415055D01*
X10463382Y-15557912D02*
X10463382Y-15757912D01*
X10391954Y-15443627D02*
X10320525Y-15657912D01*
X10506239Y-15657912D01*
X10849096Y-15757912D02*
X10849096Y-15457912D01*
X10977668Y-15757912D02*
X10977668Y-15600769D01*
X10963382Y-15572198D01*
X10934811Y-15557912D01*
X10891954Y-15557912D01*
X10863382Y-15572198D01*
X10849096Y-15586484D01*
X11163382Y-15757912D02*
X11134811Y-15743627D01*
X11120525Y-15729341D01*
X11106239Y-15700769D01*
X11106239Y-15615055D01*
X11120525Y-15586484D01*
X11134811Y-15572198D01*
X11163382Y-15557912D01*
X11206239Y-15557912D01*
X11234811Y-15572198D01*
X11249096Y-15586484D01*
X11263382Y-15615055D01*
X11263382Y-15700769D01*
X11249096Y-15729341D01*
X11234811Y-15743627D01*
X11206239Y-15757912D01*
X11163382Y-15757912D01*
X11434811Y-15757912D02*
X11406239Y-15743627D01*
X11391953Y-15715055D01*
X11391953Y-15457912D01*
X11663382Y-15743627D02*
X11634811Y-15757912D01*
X11577668Y-15757912D01*
X11549096Y-15743627D01*
X11534811Y-15715055D01*
X11534811Y-15600769D01*
X11549096Y-15572198D01*
X11577668Y-15557912D01*
X11634811Y-15557912D01*
X11663382Y-15572198D01*
X11677668Y-15600769D01*
X11677668Y-15629341D01*
X11534811Y-15657912D01*
X11791953Y-15743627D02*
X11820525Y-15757912D01*
X11877668Y-15757912D01*
X11906239Y-15743627D01*
X11920525Y-15715055D01*
X11920525Y-15700769D01*
X11906239Y-15672198D01*
X11877668Y-15657912D01*
X11834811Y-15657912D01*
X11806239Y-15643627D01*
X11791953Y-15615055D01*
X11791953Y-15600769D01*
X11806239Y-15572198D01*
X11834811Y-15557912D01*
X11877668Y-15557912D01*
X11906239Y-15572198D01*
X12020525Y-15872198D02*
X12034811Y-15857912D01*
X12063382Y-15815055D01*
X12077668Y-15786484D01*
X12091953Y-15743627D01*
X12106239Y-15672198D01*
X12106239Y-15615055D01*
X12091953Y-15543627D01*
X12077668Y-15500769D01*
X12063382Y-15472198D01*
X12034811Y-15429341D01*
X12020525Y-15415055D01*
X12563382Y-15872198D02*
X12549096Y-15857912D01*
X12520525Y-15815055D01*
X12506239Y-15786484D01*
X12491953Y-15743627D01*
X12477668Y-15672198D01*
X12477668Y-15615055D01*
X12491953Y-15543627D01*
X12506239Y-15500769D01*
X12520525Y-15472198D01*
X12549096Y-15429341D01*
X12563382Y-15415055D01*
X12677668Y-15557912D02*
X12677668Y-15757912D01*
X12677668Y-15586484D02*
X12691953Y-15572198D01*
X12720525Y-15557912D01*
X12763382Y-15557912D01*
X12791953Y-15572198D01*
X12806239Y-15600769D01*
X12806239Y-15757912D01*
X12991953Y-15757912D02*
X12963382Y-15743627D01*
X12949096Y-15729341D01*
X12934811Y-15700769D01*
X12934811Y-15615055D01*
X12949096Y-15586484D01*
X12963382Y-15572198D01*
X12991953Y-15557912D01*
X13034811Y-15557912D01*
X13063382Y-15572198D01*
X13077668Y-15586484D01*
X13091953Y-15615055D01*
X13091953Y-15700769D01*
X13077668Y-15729341D01*
X13063382Y-15743627D01*
X13034811Y-15757912D01*
X12991953Y-15757912D01*
X13177668Y-15557912D02*
X13291953Y-15557912D01*
X13220525Y-15457912D02*
X13220525Y-15715055D01*
X13234811Y-15743627D01*
X13263382Y-15757912D01*
X13291953Y-15757912D01*
X13620525Y-15557912D02*
X13620525Y-15857912D01*
X13620525Y-15572198D02*
X13649096Y-15557912D01*
X13706239Y-15557912D01*
X13734811Y-15572198D01*
X13749096Y-15586484D01*
X13763382Y-15615055D01*
X13763382Y-15700769D01*
X13749096Y-15729341D01*
X13734811Y-15743627D01*
X13706239Y-15757912D01*
X13649096Y-15757912D01*
X13620525Y-15743627D01*
X13934811Y-15757912D02*
X13906239Y-15743627D01*
X13891953Y-15715055D01*
X13891953Y-15457912D01*
X14177668Y-15757912D02*
X14177668Y-15600769D01*
X14163382Y-15572198D01*
X14134811Y-15557912D01*
X14077668Y-15557912D01*
X14049096Y-15572198D01*
X14177668Y-15743627D02*
X14149096Y-15757912D01*
X14077668Y-15757912D01*
X14049096Y-15743627D01*
X14034811Y-15715055D01*
X14034811Y-15686484D01*
X14049096Y-15657912D01*
X14077668Y-15643627D01*
X14149096Y-15643627D01*
X14177668Y-15629341D01*
X14277668Y-15557912D02*
X14391953Y-15557912D01*
X14320525Y-15457912D02*
X14320525Y-15715055D01*
X14334811Y-15743627D01*
X14363382Y-15757912D01*
X14391953Y-15757912D01*
X14606239Y-15743627D02*
X14577668Y-15757912D01*
X14520525Y-15757912D01*
X14491953Y-15743627D01*
X14477668Y-15715055D01*
X14477668Y-15600769D01*
X14491953Y-15572198D01*
X14520525Y-15557912D01*
X14577668Y-15557912D01*
X14606239Y-15572198D01*
X14620525Y-15600769D01*
X14620525Y-15629341D01*
X14477668Y-15657912D01*
X14877668Y-15757912D02*
X14877668Y-15457912D01*
X14877668Y-15743627D02*
X14849096Y-15757912D01*
X14791953Y-15757912D01*
X14763382Y-15743627D01*
X14749096Y-15729341D01*
X14734811Y-15700769D01*
X14734811Y-15615055D01*
X14749096Y-15586484D01*
X14763382Y-15572198D01*
X14791953Y-15557912D01*
X14849096Y-15557912D01*
X14877668Y-15572198D01*
X14991953Y-15872198D02*
X15006239Y-15857912D01*
X15034811Y-15815055D01*
X15049096Y-15786484D01*
X15063382Y-15743627D01*
X15077668Y-15672198D01*
X15077668Y-15615055D01*
X15063382Y-15543627D01*
X15049096Y-15500769D01*
X15034811Y-15472198D01*
X15006239Y-15429341D01*
X14991953Y-15415055D01*
X4962668Y-16018198D02*
G75*
G03*
X4962668Y-16018198I-85000J0D01*
G01*
X5406239Y-16153912D02*
X5234811Y-16153912D01*
X5320525Y-16153912D02*
X5320525Y-15853912D01*
X5291954Y-15896769D01*
X5263382Y-15925341D01*
X5234811Y-15939627D01*
X5534811Y-16125341D02*
X5549096Y-16139627D01*
X5534811Y-16153912D01*
X5520525Y-16139627D01*
X5534811Y-16125341D01*
X5534811Y-16153912D01*
X5649096Y-15853912D02*
X5849096Y-15853912D01*
X5720525Y-16153912D01*
X6020525Y-15853912D02*
X6049096Y-15853912D01*
X6077668Y-15868198D01*
X6091953Y-15882484D01*
X6106239Y-15911055D01*
X6120525Y-15968198D01*
X6120525Y-16039627D01*
X6106239Y-16096769D01*
X6091953Y-16125341D01*
X6077668Y-16139627D01*
X6049096Y-16153912D01*
X6020525Y-16153912D01*
X5991953Y-16139627D01*
X5977668Y-16125341D01*
X5963382Y-16096769D01*
X5949096Y-16039627D01*
X5949096Y-15968198D01*
X5963382Y-15911055D01*
X5977668Y-15882484D01*
X5991953Y-15868198D01*
X6020525Y-15853912D01*
X6306239Y-15853912D02*
X6334811Y-15853912D01*
X6363382Y-15868198D01*
X6377668Y-15882484D01*
X6391953Y-15911055D01*
X6406239Y-15968198D01*
X6406239Y-16039627D01*
X6391953Y-16096769D01*
X6377668Y-16125341D01*
X6363382Y-16139627D01*
X6334811Y-16153912D01*
X6306239Y-16153912D01*
X6277668Y-16139627D01*
X6263382Y-16125341D01*
X6249096Y-16096769D01*
X6234811Y-16039627D01*
X6234811Y-15968198D01*
X6249096Y-15911055D01*
X6263382Y-15882484D01*
X6277668Y-15868198D01*
X6306239Y-15853912D01*
X6534811Y-16153912D02*
X6534811Y-15953912D01*
X6534811Y-15982484D02*
X6549096Y-15968198D01*
X6577668Y-15953912D01*
X6620525Y-15953912D01*
X6649096Y-15968198D01*
X6663382Y-15996769D01*
X6663382Y-16153912D01*
X6663382Y-15996769D02*
X6677668Y-15968198D01*
X6706239Y-15953912D01*
X6749096Y-15953912D01*
X6777668Y-15968198D01*
X6791953Y-15996769D01*
X6791953Y-16153912D01*
X6934811Y-16153912D02*
X6934811Y-15953912D01*
X6934811Y-15982484D02*
X6949096Y-15968198D01*
X6977668Y-15953912D01*
X7020525Y-15953912D01*
X7049096Y-15968198D01*
X7063382Y-15996769D01*
X7063382Y-16153912D01*
X7063382Y-15996769D02*
X7077668Y-15968198D01*
X7106239Y-15953912D01*
X7149096Y-15953912D01*
X7177668Y-15968198D01*
X7191953Y-15996769D01*
X7191953Y-16153912D01*
X7777668Y-15839627D02*
X7520525Y-16225341D01*
X8163382Y-15853912D02*
X8191953Y-15853912D01*
X8220525Y-15868198D01*
X8234811Y-15882484D01*
X8249096Y-15911055D01*
X8263382Y-15968198D01*
X8263382Y-16039627D01*
X8249096Y-16096769D01*
X8234811Y-16125341D01*
X8220525Y-16139627D01*
X8191953Y-16153912D01*
X8163382Y-16153912D01*
X8134811Y-16139627D01*
X8120525Y-16125341D01*
X8106239Y-16096769D01*
X8091953Y-16039627D01*
X8091953Y-15968198D01*
X8106239Y-15911055D01*
X8120525Y-15882484D01*
X8134811Y-15868198D01*
X8163382Y-15853912D01*
X8391954Y-16125341D02*
X8406239Y-16139627D01*
X8391954Y-16153912D01*
X8377668Y-16139627D01*
X8391954Y-16125341D01*
X8391954Y-16153912D01*
X8591954Y-15853912D02*
X8620525Y-15853912D01*
X8649096Y-15868198D01*
X8663382Y-15882484D01*
X8677668Y-15911055D01*
X8691954Y-15968198D01*
X8691954Y-16039627D01*
X8677668Y-16096769D01*
X8663382Y-16125341D01*
X8649096Y-16139627D01*
X8620525Y-16153912D01*
X8591954Y-16153912D01*
X8563382Y-16139627D01*
X8549096Y-16125341D01*
X8534811Y-16096769D01*
X8520525Y-16039627D01*
X8520525Y-15968198D01*
X8534811Y-15911055D01*
X8549096Y-15882484D01*
X8563382Y-15868198D01*
X8591954Y-15853912D01*
X8949096Y-15853912D02*
X8891954Y-15853912D01*
X8863382Y-15868198D01*
X8849096Y-15882484D01*
X8820525Y-15925341D01*
X8806239Y-15982484D01*
X8806239Y-16096769D01*
X8820525Y-16125341D01*
X8834811Y-16139627D01*
X8863382Y-16153912D01*
X8920525Y-16153912D01*
X8949096Y-16139627D01*
X8963382Y-16125341D01*
X8977668Y-16096769D01*
X8977668Y-16025341D01*
X8963382Y-15996769D01*
X8949096Y-15982484D01*
X8920525Y-15968198D01*
X8863382Y-15968198D01*
X8834811Y-15982484D01*
X8820525Y-15996769D01*
X8806239Y-16025341D01*
X9234811Y-15853912D02*
X9177668Y-15853912D01*
X9149096Y-15868198D01*
X9134811Y-15882484D01*
X9106239Y-15925341D01*
X9091954Y-15982484D01*
X9091954Y-16096769D01*
X9106239Y-16125341D01*
X9120525Y-16139627D01*
X9149096Y-16153912D01*
X9206239Y-16153912D01*
X9234811Y-16139627D01*
X9249096Y-16125341D01*
X9263382Y-16096769D01*
X9263382Y-16025341D01*
X9249096Y-15996769D01*
X9234811Y-15982484D01*
X9206239Y-15968198D01*
X9149096Y-15968198D01*
X9120525Y-15982484D01*
X9106239Y-15996769D01*
X9091954Y-16025341D01*
X9406239Y-16153912D02*
X9463382Y-16153912D01*
X9491954Y-16139627D01*
X9506239Y-16125341D01*
X9534811Y-16082484D01*
X9549096Y-16025341D01*
X9549096Y-15911055D01*
X9534811Y-15882484D01*
X9520525Y-15868198D01*
X9491954Y-15853912D01*
X9434811Y-15853912D01*
X9406239Y-15868198D01*
X9391954Y-15882484D01*
X9377668Y-15911055D01*
X9377668Y-15982484D01*
X9391954Y-16011055D01*
X9406239Y-16025341D01*
X9434811Y-16039627D01*
X9491954Y-16039627D01*
X9520525Y-16025341D01*
X9534811Y-16011055D01*
X9549096Y-15982484D01*
X9663382Y-15853912D02*
X9663382Y-15911055D01*
X9777668Y-15853912D02*
X9777668Y-15911055D01*
X10220525Y-16268198D02*
X10206239Y-16253912D01*
X10177668Y-16211055D01*
X10163382Y-16182484D01*
X10149096Y-16139627D01*
X10134811Y-16068198D01*
X10134811Y-16011055D01*
X10149096Y-15939627D01*
X10163382Y-15896769D01*
X10177668Y-15868198D01*
X10206239Y-15825341D01*
X10220525Y-15811055D01*
X10477668Y-15853912D02*
X10334811Y-15853912D01*
X10320525Y-15996769D01*
X10334811Y-15982484D01*
X10363382Y-15968198D01*
X10434811Y-15968198D01*
X10463382Y-15982484D01*
X10477668Y-15996769D01*
X10491954Y-16025341D01*
X10491954Y-16096769D01*
X10477668Y-16125341D01*
X10463382Y-16139627D01*
X10434811Y-16153912D01*
X10363382Y-16153912D01*
X10334811Y-16139627D01*
X10320525Y-16125341D01*
X10663382Y-15982484D02*
X10634811Y-15968198D01*
X10620525Y-15953912D01*
X10606239Y-15925341D01*
X10606239Y-15911055D01*
X10620525Y-15882484D01*
X10634811Y-15868198D01*
X10663382Y-15853912D01*
X10720525Y-15853912D01*
X10749096Y-15868198D01*
X10763382Y-15882484D01*
X10777668Y-15911055D01*
X10777668Y-15925341D01*
X10763382Y-15953912D01*
X10749096Y-15968198D01*
X10720525Y-15982484D01*
X10663382Y-15982484D01*
X10634811Y-15996769D01*
X10620525Y-16011055D01*
X10606239Y-16039627D01*
X10606239Y-16096769D01*
X10620525Y-16125341D01*
X10634811Y-16139627D01*
X10663382Y-16153912D01*
X10720525Y-16153912D01*
X10749096Y-16139627D01*
X10763382Y-16125341D01*
X10777668Y-16096769D01*
X10777668Y-16039627D01*
X10763382Y-16011055D01*
X10749096Y-15996769D01*
X10720525Y-15982484D01*
X11134811Y-16153912D02*
X11134811Y-15853912D01*
X11263382Y-16153912D02*
X11263382Y-15996769D01*
X11249096Y-15968198D01*
X11220525Y-15953912D01*
X11177668Y-15953912D01*
X11149096Y-15968198D01*
X11134811Y-15982484D01*
X11449096Y-16153912D02*
X11420525Y-16139627D01*
X11406239Y-16125341D01*
X11391953Y-16096769D01*
X11391953Y-16011055D01*
X11406239Y-15982484D01*
X11420525Y-15968198D01*
X11449096Y-15953912D01*
X11491953Y-15953912D01*
X11520525Y-15968198D01*
X11534811Y-15982484D01*
X11549096Y-16011055D01*
X11549096Y-16096769D01*
X11534811Y-16125341D01*
X11520525Y-16139627D01*
X11491953Y-16153912D01*
X11449096Y-16153912D01*
X11720525Y-16153912D02*
X11691953Y-16139627D01*
X11677668Y-16111055D01*
X11677668Y-15853912D01*
X11949096Y-16139627D02*
X11920525Y-16153912D01*
X11863382Y-16153912D01*
X11834811Y-16139627D01*
X11820525Y-16111055D01*
X11820525Y-15996769D01*
X11834811Y-15968198D01*
X11863382Y-15953912D01*
X11920525Y-15953912D01*
X11949096Y-15968198D01*
X11963382Y-15996769D01*
X11963382Y-16025341D01*
X11820525Y-16053912D01*
X12077668Y-16139627D02*
X12106239Y-16153912D01*
X12163382Y-16153912D01*
X12191953Y-16139627D01*
X12206239Y-16111055D01*
X12206239Y-16096769D01*
X12191953Y-16068198D01*
X12163382Y-16053912D01*
X12120525Y-16053912D01*
X12091953Y-16039627D01*
X12077668Y-16011055D01*
X12077668Y-15996769D01*
X12091953Y-15968198D01*
X12120525Y-15953912D01*
X12163382Y-15953912D01*
X12191953Y-15968198D01*
X12306239Y-16268198D02*
X12320525Y-16253912D01*
X12349096Y-16211055D01*
X12363382Y-16182484D01*
X12377668Y-16139627D01*
X12391953Y-16068198D01*
X12391953Y-16011055D01*
X12377668Y-15939627D01*
X12363382Y-15896769D01*
X12349096Y-15868198D01*
X12320525Y-15825341D01*
X12306239Y-15811055D01*
X12849096Y-16268198D02*
X12834811Y-16253912D01*
X12806239Y-16211055D01*
X12791953Y-16182484D01*
X12777668Y-16139627D01*
X12763382Y-16068198D01*
X12763382Y-16011055D01*
X12777668Y-15939627D01*
X12791953Y-15896769D01*
X12806239Y-15868198D01*
X12834811Y-15825341D01*
X12849096Y-15811055D01*
X12963382Y-15953912D02*
X12963382Y-16153912D01*
X12963382Y-15982484D02*
X12977668Y-15968198D01*
X13006239Y-15953912D01*
X13049096Y-15953912D01*
X13077668Y-15968198D01*
X13091953Y-15996769D01*
X13091953Y-16153912D01*
X13277668Y-16153912D02*
X13249096Y-16139627D01*
X13234811Y-16125341D01*
X13220525Y-16096769D01*
X13220525Y-16011055D01*
X13234811Y-15982484D01*
X13249096Y-15968198D01*
X13277668Y-15953912D01*
X13320525Y-15953912D01*
X13349096Y-15968198D01*
X13363382Y-15982484D01*
X13377668Y-16011055D01*
X13377668Y-16096769D01*
X13363382Y-16125341D01*
X13349096Y-16139627D01*
X13320525Y-16153912D01*
X13277668Y-16153912D01*
X13463382Y-15953912D02*
X13577668Y-15953912D01*
X13506239Y-15853912D02*
X13506239Y-16111055D01*
X13520525Y-16139627D01*
X13549096Y-16153912D01*
X13577668Y-16153912D01*
X13906239Y-15953912D02*
X13906239Y-16253912D01*
X13906239Y-15968198D02*
X13934811Y-15953912D01*
X13991953Y-15953912D01*
X14020525Y-15968198D01*
X14034811Y-15982484D01*
X14049096Y-16011055D01*
X14049096Y-16096769D01*
X14034811Y-16125341D01*
X14020525Y-16139627D01*
X13991953Y-16153912D01*
X13934811Y-16153912D01*
X13906239Y-16139627D01*
X14220525Y-16153912D02*
X14191953Y-16139627D01*
X14177668Y-16111055D01*
X14177668Y-15853912D01*
X14463382Y-16153912D02*
X14463382Y-15996769D01*
X14449096Y-15968198D01*
X14420525Y-15953912D01*
X14363382Y-15953912D01*
X14334811Y-15968198D01*
X14463382Y-16139627D02*
X14434811Y-16153912D01*
X14363382Y-16153912D01*
X14334811Y-16139627D01*
X14320525Y-16111055D01*
X14320525Y-16082484D01*
X14334811Y-16053912D01*
X14363382Y-16039627D01*
X14434811Y-16039627D01*
X14463382Y-16025341D01*
X14563382Y-15953912D02*
X14677668Y-15953912D01*
X14606239Y-15853912D02*
X14606239Y-16111055D01*
X14620525Y-16139627D01*
X14649096Y-16153912D01*
X14677668Y-16153912D01*
X14891953Y-16139627D02*
X14863382Y-16153912D01*
X14806239Y-16153912D01*
X14777668Y-16139627D01*
X14763382Y-16111055D01*
X14763382Y-15996769D01*
X14777668Y-15968198D01*
X14806239Y-15953912D01*
X14863382Y-15953912D01*
X14891953Y-15968198D01*
X14906239Y-15996769D01*
X14906239Y-16025341D01*
X14763382Y-16053912D01*
X15163382Y-16153912D02*
X15163382Y-15853912D01*
X15163382Y-16139627D02*
X15134811Y-16153912D01*
X15077668Y-16153912D01*
X15049096Y-16139627D01*
X15034811Y-16125341D01*
X15020525Y-16096769D01*
X15020525Y-16011055D01*
X15034811Y-15982484D01*
X15049096Y-15968198D01*
X15077668Y-15953912D01*
X15134811Y-15953912D01*
X15163382Y-15968198D01*
X15277668Y-16268198D02*
X15291953Y-16253912D01*
X15320525Y-16211055D01*
X15334811Y-16182484D01*
X15349096Y-16139627D01*
X15363382Y-16068198D01*
X15363382Y-16011055D01*
X15349096Y-15939627D01*
X15334811Y-15896769D01*
X15320525Y-15868198D01*
X15291953Y-15825341D01*
X15277668Y-15811055D01*
X4867668Y-16319198D02*
X4867668Y-16509198D01*
X4772668Y-16414198D02*
X4962668Y-16414198D01*
X5406239Y-16549912D02*
X5234811Y-16549912D01*
X5320525Y-16549912D02*
X5320525Y-16249912D01*
X5291954Y-16292769D01*
X5263382Y-16321341D01*
X5234811Y-16335627D01*
X5534811Y-16521341D02*
X5549096Y-16535627D01*
X5534811Y-16549912D01*
X5520525Y-16535627D01*
X5534811Y-16521341D01*
X5534811Y-16549912D01*
X5691953Y-16549912D02*
X5749096Y-16549912D01*
X5777668Y-16535627D01*
X5791953Y-16521341D01*
X5820525Y-16478484D01*
X5834811Y-16421341D01*
X5834811Y-16307055D01*
X5820525Y-16278484D01*
X5806239Y-16264198D01*
X5777668Y-16249912D01*
X5720525Y-16249912D01*
X5691953Y-16264198D01*
X5677668Y-16278484D01*
X5663382Y-16307055D01*
X5663382Y-16378484D01*
X5677668Y-16407055D01*
X5691953Y-16421341D01*
X5720525Y-16435627D01*
X5777668Y-16435627D01*
X5806239Y-16421341D01*
X5820525Y-16407055D01*
X5834811Y-16378484D01*
X6020525Y-16249912D02*
X6049096Y-16249912D01*
X6077668Y-16264198D01*
X6091953Y-16278484D01*
X6106239Y-16307055D01*
X6120525Y-16364198D01*
X6120525Y-16435627D01*
X6106239Y-16492769D01*
X6091953Y-16521341D01*
X6077668Y-16535627D01*
X6049096Y-16549912D01*
X6020525Y-16549912D01*
X5991953Y-16535627D01*
X5977668Y-16521341D01*
X5963382Y-16492769D01*
X5949096Y-16435627D01*
X5949096Y-16364198D01*
X5963382Y-16307055D01*
X5977668Y-16278484D01*
X5991953Y-16264198D01*
X6020525Y-16249912D01*
X6306239Y-16249912D02*
X6334811Y-16249912D01*
X6363382Y-16264198D01*
X6377668Y-16278484D01*
X6391953Y-16307055D01*
X6406239Y-16364198D01*
X6406239Y-16435627D01*
X6391953Y-16492769D01*
X6377668Y-16521341D01*
X6363382Y-16535627D01*
X6334811Y-16549912D01*
X6306239Y-16549912D01*
X6277668Y-16535627D01*
X6263382Y-16521341D01*
X6249096Y-16492769D01*
X6234811Y-16435627D01*
X6234811Y-16364198D01*
X6249096Y-16307055D01*
X6263382Y-16278484D01*
X6277668Y-16264198D01*
X6306239Y-16249912D01*
X6534811Y-16549912D02*
X6534811Y-16349912D01*
X6534811Y-16378484D02*
X6549096Y-16364198D01*
X6577668Y-16349912D01*
X6620525Y-16349912D01*
X6649096Y-16364198D01*
X6663382Y-16392769D01*
X6663382Y-16549912D01*
X6663382Y-16392769D02*
X6677668Y-16364198D01*
X6706239Y-16349912D01*
X6749096Y-16349912D01*
X6777668Y-16364198D01*
X6791953Y-16392769D01*
X6791953Y-16549912D01*
X6934811Y-16549912D02*
X6934811Y-16349912D01*
X6934811Y-16378484D02*
X6949096Y-16364198D01*
X6977668Y-16349912D01*
X7020525Y-16349912D01*
X7049096Y-16364198D01*
X7063382Y-16392769D01*
X7063382Y-16549912D01*
X7063382Y-16392769D02*
X7077668Y-16364198D01*
X7106239Y-16349912D01*
X7149096Y-16349912D01*
X7177668Y-16364198D01*
X7191953Y-16392769D01*
X7191953Y-16549912D01*
X7777668Y-16235627D02*
X7520525Y-16621341D01*
X8163382Y-16249912D02*
X8191953Y-16249912D01*
X8220525Y-16264198D01*
X8234811Y-16278484D01*
X8249096Y-16307055D01*
X8263382Y-16364198D01*
X8263382Y-16435627D01*
X8249096Y-16492769D01*
X8234811Y-16521341D01*
X8220525Y-16535627D01*
X8191953Y-16549912D01*
X8163382Y-16549912D01*
X8134811Y-16535627D01*
X8120525Y-16521341D01*
X8106239Y-16492769D01*
X8091953Y-16435627D01*
X8091953Y-16364198D01*
X8106239Y-16307055D01*
X8120525Y-16278484D01*
X8134811Y-16264198D01*
X8163382Y-16249912D01*
X8391954Y-16521341D02*
X8406239Y-16535627D01*
X8391954Y-16549912D01*
X8377668Y-16535627D01*
X8391954Y-16521341D01*
X8391954Y-16549912D01*
X8591954Y-16249912D02*
X8620525Y-16249912D01*
X8649096Y-16264198D01*
X8663382Y-16278484D01*
X8677668Y-16307055D01*
X8691954Y-16364198D01*
X8691954Y-16435627D01*
X8677668Y-16492769D01*
X8663382Y-16521341D01*
X8649096Y-16535627D01*
X8620525Y-16549912D01*
X8591954Y-16549912D01*
X8563382Y-16535627D01*
X8549096Y-16521341D01*
X8534811Y-16492769D01*
X8520525Y-16435627D01*
X8520525Y-16364198D01*
X8534811Y-16307055D01*
X8549096Y-16278484D01*
X8563382Y-16264198D01*
X8591954Y-16249912D01*
X8791954Y-16249912D02*
X8991954Y-16249912D01*
X8863382Y-16549912D01*
X9234811Y-16349912D02*
X9234811Y-16549912D01*
X9163382Y-16235627D02*
X9091954Y-16449912D01*
X9277668Y-16449912D01*
X9434811Y-16378484D02*
X9406239Y-16364198D01*
X9391954Y-16349912D01*
X9377668Y-16321341D01*
X9377668Y-16307055D01*
X9391954Y-16278484D01*
X9406239Y-16264198D01*
X9434811Y-16249912D01*
X9491954Y-16249912D01*
X9520525Y-16264198D01*
X9534811Y-16278484D01*
X9549096Y-16307055D01*
X9549096Y-16321341D01*
X9534811Y-16349912D01*
X9520525Y-16364198D01*
X9491954Y-16378484D01*
X9434811Y-16378484D01*
X9406239Y-16392769D01*
X9391954Y-16407055D01*
X9377668Y-16435627D01*
X9377668Y-16492769D01*
X9391954Y-16521341D01*
X9406239Y-16535627D01*
X9434811Y-16549912D01*
X9491954Y-16549912D01*
X9520525Y-16535627D01*
X9534811Y-16521341D01*
X9549096Y-16492769D01*
X9549096Y-16435627D01*
X9534811Y-16407055D01*
X9520525Y-16392769D01*
X9491954Y-16378484D01*
X9663382Y-16249912D02*
X9663382Y-16307055D01*
X9777668Y-16249912D02*
X9777668Y-16307055D01*
X10220525Y-16664198D02*
X10206239Y-16649912D01*
X10177668Y-16607055D01*
X10163382Y-16578484D01*
X10149096Y-16535627D01*
X10134811Y-16464198D01*
X10134811Y-16407055D01*
X10149096Y-16335627D01*
X10163382Y-16292769D01*
X10177668Y-16264198D01*
X10206239Y-16221341D01*
X10220525Y-16207055D01*
X10477668Y-16249912D02*
X10334811Y-16249912D01*
X10320525Y-16392769D01*
X10334811Y-16378484D01*
X10363382Y-16364198D01*
X10434811Y-16364198D01*
X10463382Y-16378484D01*
X10477668Y-16392769D01*
X10491954Y-16421341D01*
X10491954Y-16492769D01*
X10477668Y-16521341D01*
X10463382Y-16535627D01*
X10434811Y-16549912D01*
X10363382Y-16549912D01*
X10334811Y-16535627D01*
X10320525Y-16521341D01*
X10663382Y-16378484D02*
X10634811Y-16364198D01*
X10620525Y-16349912D01*
X10606239Y-16321341D01*
X10606239Y-16307055D01*
X10620525Y-16278484D01*
X10634811Y-16264198D01*
X10663382Y-16249912D01*
X10720525Y-16249912D01*
X10749096Y-16264198D01*
X10763382Y-16278484D01*
X10777668Y-16307055D01*
X10777668Y-16321341D01*
X10763382Y-16349912D01*
X10749096Y-16364198D01*
X10720525Y-16378484D01*
X10663382Y-16378484D01*
X10634811Y-16392769D01*
X10620525Y-16407055D01*
X10606239Y-16435627D01*
X10606239Y-16492769D01*
X10620525Y-16521341D01*
X10634811Y-16535627D01*
X10663382Y-16549912D01*
X10720525Y-16549912D01*
X10749096Y-16535627D01*
X10763382Y-16521341D01*
X10777668Y-16492769D01*
X10777668Y-16435627D01*
X10763382Y-16407055D01*
X10749096Y-16392769D01*
X10720525Y-16378484D01*
X11134811Y-16549912D02*
X11134811Y-16249912D01*
X11263382Y-16549912D02*
X11263382Y-16392769D01*
X11249096Y-16364198D01*
X11220525Y-16349912D01*
X11177668Y-16349912D01*
X11149096Y-16364198D01*
X11134811Y-16378484D01*
X11449096Y-16549912D02*
X11420525Y-16535627D01*
X11406239Y-16521341D01*
X11391953Y-16492769D01*
X11391953Y-16407055D01*
X11406239Y-16378484D01*
X11420525Y-16364198D01*
X11449096Y-16349912D01*
X11491953Y-16349912D01*
X11520525Y-16364198D01*
X11534811Y-16378484D01*
X11549096Y-16407055D01*
X11549096Y-16492769D01*
X11534811Y-16521341D01*
X11520525Y-16535627D01*
X11491953Y-16549912D01*
X11449096Y-16549912D01*
X11720525Y-16549912D02*
X11691953Y-16535627D01*
X11677668Y-16507055D01*
X11677668Y-16249912D01*
X11949096Y-16535627D02*
X11920525Y-16549912D01*
X11863382Y-16549912D01*
X11834811Y-16535627D01*
X11820525Y-16507055D01*
X11820525Y-16392769D01*
X11834811Y-16364198D01*
X11863382Y-16349912D01*
X11920525Y-16349912D01*
X11949096Y-16364198D01*
X11963382Y-16392769D01*
X11963382Y-16421341D01*
X11820525Y-16449912D01*
X12077668Y-16535627D02*
X12106239Y-16549912D01*
X12163382Y-16549912D01*
X12191953Y-16535627D01*
X12206239Y-16507055D01*
X12206239Y-16492769D01*
X12191953Y-16464198D01*
X12163382Y-16449912D01*
X12120525Y-16449912D01*
X12091953Y-16435627D01*
X12077668Y-16407055D01*
X12077668Y-16392769D01*
X12091953Y-16364198D01*
X12120525Y-16349912D01*
X12163382Y-16349912D01*
X12191953Y-16364198D01*
X12306239Y-16664198D02*
X12320525Y-16649912D01*
X12349096Y-16607055D01*
X12363382Y-16578484D01*
X12377668Y-16535627D01*
X12391953Y-16464198D01*
X12391953Y-16407055D01*
X12377668Y-16335627D01*
X12363382Y-16292769D01*
X12349096Y-16264198D01*
X12320525Y-16221341D01*
X12306239Y-16207055D01*
X12849096Y-16664198D02*
X12834811Y-16649912D01*
X12806239Y-16607055D01*
X12791953Y-16578484D01*
X12777668Y-16535627D01*
X12763382Y-16464198D01*
X12763382Y-16407055D01*
X12777668Y-16335627D01*
X12791953Y-16292769D01*
X12806239Y-16264198D01*
X12834811Y-16221341D01*
X12849096Y-16207055D01*
X12963382Y-16349912D02*
X12963382Y-16549912D01*
X12963382Y-16378484D02*
X12977668Y-16364198D01*
X13006239Y-16349912D01*
X13049096Y-16349912D01*
X13077668Y-16364198D01*
X13091953Y-16392769D01*
X13091953Y-16549912D01*
X13277668Y-16549912D02*
X13249096Y-16535627D01*
X13234811Y-16521341D01*
X13220525Y-16492769D01*
X13220525Y-16407055D01*
X13234811Y-16378484D01*
X13249096Y-16364198D01*
X13277668Y-16349912D01*
X13320525Y-16349912D01*
X13349096Y-16364198D01*
X13363382Y-16378484D01*
X13377668Y-16407055D01*
X13377668Y-16492769D01*
X13363382Y-16521341D01*
X13349096Y-16535627D01*
X13320525Y-16549912D01*
X13277668Y-16549912D01*
X13463382Y-16349912D02*
X13577668Y-16349912D01*
X13506239Y-16249912D02*
X13506239Y-16507055D01*
X13520525Y-16535627D01*
X13549096Y-16549912D01*
X13577668Y-16549912D01*
X13906239Y-16349912D02*
X13906239Y-16649912D01*
X13906239Y-16364198D02*
X13934811Y-16349912D01*
X13991953Y-16349912D01*
X14020525Y-16364198D01*
X14034811Y-16378484D01*
X14049096Y-16407055D01*
X14049096Y-16492769D01*
X14034811Y-16521341D01*
X14020525Y-16535627D01*
X13991953Y-16549912D01*
X13934811Y-16549912D01*
X13906239Y-16535627D01*
X14220525Y-16549912D02*
X14191953Y-16535627D01*
X14177668Y-16507055D01*
X14177668Y-16249912D01*
X14463382Y-16549912D02*
X14463382Y-16392769D01*
X14449096Y-16364198D01*
X14420525Y-16349912D01*
X14363382Y-16349912D01*
X14334811Y-16364198D01*
X14463382Y-16535627D02*
X14434811Y-16549912D01*
X14363382Y-16549912D01*
X14334811Y-16535627D01*
X14320525Y-16507055D01*
X14320525Y-16478484D01*
X14334811Y-16449912D01*
X14363382Y-16435627D01*
X14434811Y-16435627D01*
X14463382Y-16421341D01*
X14563382Y-16349912D02*
X14677668Y-16349912D01*
X14606239Y-16249912D02*
X14606239Y-16507055D01*
X14620525Y-16535627D01*
X14649096Y-16549912D01*
X14677668Y-16549912D01*
X14891953Y-16535627D02*
X14863382Y-16549912D01*
X14806239Y-16549912D01*
X14777668Y-16535627D01*
X14763382Y-16507055D01*
X14763382Y-16392769D01*
X14777668Y-16364198D01*
X14806239Y-16349912D01*
X14863382Y-16349912D01*
X14891953Y-16364198D01*
X14906239Y-16392769D01*
X14906239Y-16421341D01*
X14763382Y-16449912D01*
X15163382Y-16549912D02*
X15163382Y-16249912D01*
X15163382Y-16535627D02*
X15134811Y-16549912D01*
X15077668Y-16549912D01*
X15049096Y-16535627D01*
X15034811Y-16521341D01*
X15020525Y-16492769D01*
X15020525Y-16407055D01*
X15034811Y-16378484D01*
X15049096Y-16364198D01*
X15077668Y-16349912D01*
X15134811Y-16349912D01*
X15163382Y-16364198D01*
X15277668Y-16664198D02*
X15291953Y-16649912D01*
X15320525Y-16607055D01*
X15334811Y-16578484D01*
X15349096Y-16535627D01*
X15363382Y-16464198D01*
X15363382Y-16407055D01*
X15349096Y-16335627D01*
X15334811Y-16292769D01*
X15320525Y-16264198D01*
X15291953Y-16221341D01*
X15277668Y-16207055D01*
X4918735Y-16916265D02*
X4918735Y-16704131D01*
X4706601Y-16704131D01*
X4706601Y-16916265D01*
X4918735Y-16916265D01*
X5220525Y-16645912D02*
X5406239Y-16645912D01*
X5306239Y-16760198D01*
X5349096Y-16760198D01*
X5377668Y-16774484D01*
X5391954Y-16788770D01*
X5406239Y-16817341D01*
X5406239Y-16888770D01*
X5391954Y-16917341D01*
X5377668Y-16931627D01*
X5349096Y-16945912D01*
X5263382Y-16945912D01*
X5234811Y-16931627D01*
X5220525Y-16917341D01*
X5534811Y-16917341D02*
X5549096Y-16931627D01*
X5534811Y-16945912D01*
X5520525Y-16931627D01*
X5534811Y-16917341D01*
X5534811Y-16945912D01*
X5734811Y-16645912D02*
X5763382Y-16645912D01*
X5791953Y-16660198D01*
X5806239Y-16674484D01*
X5820525Y-16703055D01*
X5834811Y-16760198D01*
X5834811Y-16831627D01*
X5820525Y-16888770D01*
X5806239Y-16917341D01*
X5791953Y-16931627D01*
X5763382Y-16945912D01*
X5734811Y-16945912D01*
X5706239Y-16931627D01*
X5691953Y-16917341D01*
X5677668Y-16888770D01*
X5663382Y-16831627D01*
X5663382Y-16760198D01*
X5677668Y-16703055D01*
X5691953Y-16674484D01*
X5706239Y-16660198D01*
X5734811Y-16645912D01*
X6020525Y-16645912D02*
X6049096Y-16645912D01*
X6077668Y-16660198D01*
X6091953Y-16674484D01*
X6106239Y-16703055D01*
X6120525Y-16760198D01*
X6120525Y-16831627D01*
X6106239Y-16888770D01*
X6091953Y-16917341D01*
X6077668Y-16931627D01*
X6049096Y-16945912D01*
X6020525Y-16945912D01*
X5991953Y-16931627D01*
X5977668Y-16917341D01*
X5963382Y-16888770D01*
X5949096Y-16831627D01*
X5949096Y-16760198D01*
X5963382Y-16703055D01*
X5977668Y-16674484D01*
X5991953Y-16660198D01*
X6020525Y-16645912D01*
X6306239Y-16645912D02*
X6334811Y-16645912D01*
X6363382Y-16660198D01*
X6377668Y-16674484D01*
X6391953Y-16703055D01*
X6406239Y-16760198D01*
X6406239Y-16831627D01*
X6391953Y-16888770D01*
X6377668Y-16917341D01*
X6363382Y-16931627D01*
X6334811Y-16945912D01*
X6306239Y-16945912D01*
X6277668Y-16931627D01*
X6263382Y-16917341D01*
X6249096Y-16888770D01*
X6234811Y-16831627D01*
X6234811Y-16760198D01*
X6249096Y-16703055D01*
X6263382Y-16674484D01*
X6277668Y-16660198D01*
X6306239Y-16645912D01*
X6534811Y-16945912D02*
X6534811Y-16745912D01*
X6534811Y-16774484D02*
X6549096Y-16760198D01*
X6577668Y-16745912D01*
X6620525Y-16745912D01*
X6649096Y-16760198D01*
X6663382Y-16788770D01*
X6663382Y-16945912D01*
X6663382Y-16788770D02*
X6677668Y-16760198D01*
X6706239Y-16745912D01*
X6749096Y-16745912D01*
X6777668Y-16760198D01*
X6791953Y-16788770D01*
X6791953Y-16945912D01*
X6934811Y-16945912D02*
X6934811Y-16745912D01*
X6934811Y-16774484D02*
X6949096Y-16760198D01*
X6977668Y-16745912D01*
X7020525Y-16745912D01*
X7049096Y-16760198D01*
X7063382Y-16788770D01*
X7063382Y-16945912D01*
X7063382Y-16788770D02*
X7077668Y-16760198D01*
X7106239Y-16745912D01*
X7149096Y-16745912D01*
X7177668Y-16760198D01*
X7191953Y-16788770D01*
X7191953Y-16945912D01*
X7777668Y-16631627D02*
X7520525Y-17017341D01*
X8163382Y-16645912D02*
X8191953Y-16645912D01*
X8220525Y-16660198D01*
X8234811Y-16674484D01*
X8249096Y-16703055D01*
X8263382Y-16760198D01*
X8263382Y-16831627D01*
X8249096Y-16888770D01*
X8234811Y-16917341D01*
X8220525Y-16931627D01*
X8191953Y-16945912D01*
X8163382Y-16945912D01*
X8134811Y-16931627D01*
X8120525Y-16917341D01*
X8106239Y-16888770D01*
X8091953Y-16831627D01*
X8091953Y-16760198D01*
X8106239Y-16703055D01*
X8120525Y-16674484D01*
X8134811Y-16660198D01*
X8163382Y-16645912D01*
X8391954Y-16917341D02*
X8406239Y-16931627D01*
X8391954Y-16945912D01*
X8377668Y-16931627D01*
X8391954Y-16917341D01*
X8391954Y-16945912D01*
X8691954Y-16945912D02*
X8520525Y-16945912D01*
X8606239Y-16945912D02*
X8606239Y-16645912D01*
X8577668Y-16688769D01*
X8549096Y-16717341D01*
X8520525Y-16731627D01*
X8977668Y-16945912D02*
X8806239Y-16945912D01*
X8891954Y-16945912D02*
X8891954Y-16645912D01*
X8863382Y-16688769D01*
X8834811Y-16717341D01*
X8806239Y-16731627D01*
X9149096Y-16774484D02*
X9120525Y-16760198D01*
X9106239Y-16745912D01*
X9091954Y-16717341D01*
X9091954Y-16703055D01*
X9106239Y-16674484D01*
X9120525Y-16660198D01*
X9149096Y-16645912D01*
X9206239Y-16645912D01*
X9234811Y-16660198D01*
X9249096Y-16674484D01*
X9263382Y-16703055D01*
X9263382Y-16717341D01*
X9249096Y-16745912D01*
X9234811Y-16760198D01*
X9206239Y-16774484D01*
X9149096Y-16774484D01*
X9120525Y-16788770D01*
X9106239Y-16803055D01*
X9091954Y-16831627D01*
X9091954Y-16888770D01*
X9106239Y-16917341D01*
X9120525Y-16931627D01*
X9149096Y-16945912D01*
X9206239Y-16945912D01*
X9234811Y-16931627D01*
X9249096Y-16917341D01*
X9263382Y-16888770D01*
X9263382Y-16831627D01*
X9249096Y-16803055D01*
X9234811Y-16788770D01*
X9206239Y-16774484D01*
X9549096Y-16945912D02*
X9377668Y-16945912D01*
X9463382Y-16945912D02*
X9463382Y-16645912D01*
X9434811Y-16688769D01*
X9406239Y-16717341D01*
X9377668Y-16731627D01*
X9663382Y-16645912D02*
X9663382Y-16703055D01*
X9777668Y-16645912D02*
X9777668Y-16703055D01*
X10220525Y-17060198D02*
X10206239Y-17045912D01*
X10177668Y-17003055D01*
X10163382Y-16974484D01*
X10149096Y-16931627D01*
X10134811Y-16860198D01*
X10134811Y-16803055D01*
X10149096Y-16731627D01*
X10163382Y-16688769D01*
X10177668Y-16660198D01*
X10206239Y-16617341D01*
X10220525Y-16603055D01*
X10320525Y-16674484D02*
X10334811Y-16660198D01*
X10363382Y-16645912D01*
X10434811Y-16645912D01*
X10463382Y-16660198D01*
X10477668Y-16674484D01*
X10491954Y-16703055D01*
X10491954Y-16731627D01*
X10477668Y-16774484D01*
X10306239Y-16945912D01*
X10491954Y-16945912D01*
X10677668Y-16645912D02*
X10706239Y-16645912D01*
X10734811Y-16660198D01*
X10749096Y-16674484D01*
X10763382Y-16703055D01*
X10777668Y-16760198D01*
X10777668Y-16831627D01*
X10763382Y-16888770D01*
X10749096Y-16917341D01*
X10734811Y-16931627D01*
X10706239Y-16945912D01*
X10677668Y-16945912D01*
X10649096Y-16931627D01*
X10634811Y-16917341D01*
X10620525Y-16888770D01*
X10606239Y-16831627D01*
X10606239Y-16760198D01*
X10620525Y-16703055D01*
X10634811Y-16674484D01*
X10649096Y-16660198D01*
X10677668Y-16645912D01*
X10877668Y-16645912D02*
X11063382Y-16645912D01*
X10963382Y-16760198D01*
X11006239Y-16760198D01*
X11034811Y-16774484D01*
X11049096Y-16788770D01*
X11063382Y-16817341D01*
X11063382Y-16888770D01*
X11049096Y-16917341D01*
X11034811Y-16931627D01*
X11006239Y-16945912D01*
X10920525Y-16945912D01*
X10891954Y-16931627D01*
X10877668Y-16917341D01*
X11420525Y-16945912D02*
X11420525Y-16645912D01*
X11549096Y-16945912D02*
X11549096Y-16788770D01*
X11534811Y-16760198D01*
X11506239Y-16745912D01*
X11463382Y-16745912D01*
X11434811Y-16760198D01*
X11420525Y-16774484D01*
X11734811Y-16945912D02*
X11706239Y-16931627D01*
X11691953Y-16917341D01*
X11677668Y-16888770D01*
X11677668Y-16803055D01*
X11691953Y-16774484D01*
X11706239Y-16760198D01*
X11734811Y-16745912D01*
X11777668Y-16745912D01*
X11806239Y-16760198D01*
X11820525Y-16774484D01*
X11834811Y-16803055D01*
X11834811Y-16888770D01*
X11820525Y-16917341D01*
X11806239Y-16931627D01*
X11777668Y-16945912D01*
X11734811Y-16945912D01*
X12006239Y-16945912D02*
X11977668Y-16931627D01*
X11963382Y-16903055D01*
X11963382Y-16645912D01*
X12234811Y-16931627D02*
X12206239Y-16945912D01*
X12149096Y-16945912D01*
X12120525Y-16931627D01*
X12106239Y-16903055D01*
X12106239Y-16788770D01*
X12120525Y-16760198D01*
X12149096Y-16745912D01*
X12206239Y-16745912D01*
X12234811Y-16760198D01*
X12249096Y-16788770D01*
X12249096Y-16817341D01*
X12106239Y-16845912D01*
X12363382Y-16931627D02*
X12391953Y-16945912D01*
X12449096Y-16945912D01*
X12477668Y-16931627D01*
X12491953Y-16903055D01*
X12491953Y-16888770D01*
X12477668Y-16860198D01*
X12449096Y-16845912D01*
X12406239Y-16845912D01*
X12377668Y-16831627D01*
X12363382Y-16803055D01*
X12363382Y-16788770D01*
X12377668Y-16760198D01*
X12406239Y-16745912D01*
X12449096Y-16745912D01*
X12477668Y-16760198D01*
X12591953Y-17060198D02*
X12606239Y-17045912D01*
X12634811Y-17003055D01*
X12649096Y-16974484D01*
X12663382Y-16931627D01*
X12677668Y-16860198D01*
X12677668Y-16803055D01*
X12663382Y-16731627D01*
X12649096Y-16688769D01*
X12634811Y-16660198D01*
X12606239Y-16617341D01*
X12591953Y-16603055D01*
X13134811Y-17060198D02*
X13120525Y-17045912D01*
X13091953Y-17003055D01*
X13077668Y-16974484D01*
X13063382Y-16931627D01*
X13049096Y-16860198D01*
X13049096Y-16803055D01*
X13063382Y-16731627D01*
X13077668Y-16688769D01*
X13091953Y-16660198D01*
X13120525Y-16617341D01*
X13134811Y-16603055D01*
X13249096Y-16745912D02*
X13249096Y-16945912D01*
X13249096Y-16774484D02*
X13263382Y-16760198D01*
X13291953Y-16745912D01*
X13334811Y-16745912D01*
X13363382Y-16760198D01*
X13377668Y-16788770D01*
X13377668Y-16945912D01*
X13563382Y-16945912D02*
X13534811Y-16931627D01*
X13520525Y-16917341D01*
X13506239Y-16888770D01*
X13506239Y-16803055D01*
X13520525Y-16774484D01*
X13534811Y-16760198D01*
X13563382Y-16745912D01*
X13606239Y-16745912D01*
X13634811Y-16760198D01*
X13649096Y-16774484D01*
X13663382Y-16803055D01*
X13663382Y-16888770D01*
X13649096Y-16917341D01*
X13634811Y-16931627D01*
X13606239Y-16945912D01*
X13563382Y-16945912D01*
X13749096Y-16745912D02*
X13863382Y-16745912D01*
X13791953Y-16645912D02*
X13791953Y-16903055D01*
X13806239Y-16931627D01*
X13834811Y-16945912D01*
X13863382Y-16945912D01*
X14191953Y-16745912D02*
X14191953Y-17045912D01*
X14191953Y-16760198D02*
X14220525Y-16745912D01*
X14277668Y-16745912D01*
X14306239Y-16760198D01*
X14320525Y-16774484D01*
X14334811Y-16803055D01*
X14334811Y-16888770D01*
X14320525Y-16917341D01*
X14306239Y-16931627D01*
X14277668Y-16945912D01*
X14220525Y-16945912D01*
X14191953Y-16931627D01*
X14506239Y-16945912D02*
X14477668Y-16931627D01*
X14463382Y-16903055D01*
X14463382Y-16645912D01*
X14749096Y-16945912D02*
X14749096Y-16788770D01*
X14734811Y-16760198D01*
X14706239Y-16745912D01*
X14649096Y-16745912D01*
X14620525Y-16760198D01*
X14749096Y-16931627D02*
X14720525Y-16945912D01*
X14649096Y-16945912D01*
X14620525Y-16931627D01*
X14606239Y-16903055D01*
X14606239Y-16874484D01*
X14620525Y-16845912D01*
X14649096Y-16831627D01*
X14720525Y-16831627D01*
X14749096Y-16817341D01*
X14849096Y-16745912D02*
X14963382Y-16745912D01*
X14891953Y-16645912D02*
X14891953Y-16903055D01*
X14906239Y-16931627D01*
X14934811Y-16945912D01*
X14963382Y-16945912D01*
X15177668Y-16931627D02*
X15149096Y-16945912D01*
X15091953Y-16945912D01*
X15063382Y-16931627D01*
X15049096Y-16903055D01*
X15049096Y-16788770D01*
X15063382Y-16760198D01*
X15091953Y-16745912D01*
X15149096Y-16745912D01*
X15177668Y-16760198D01*
X15191953Y-16788770D01*
X15191953Y-16817341D01*
X15049096Y-16845912D01*
X15449096Y-16945912D02*
X15449096Y-16645912D01*
X15449096Y-16931627D02*
X15420525Y-16945912D01*
X15363382Y-16945912D01*
X15334811Y-16931627D01*
X15320525Y-16917341D01*
X15306239Y-16888770D01*
X15306239Y-16803055D01*
X15320525Y-16774484D01*
X15334811Y-16760198D01*
X15363382Y-16745912D01*
X15420525Y-16745912D01*
X15449096Y-16760198D01*
X15563382Y-17060198D02*
X15577668Y-17045912D01*
X15606239Y-17003055D01*
X15620525Y-16974484D01*
X15634811Y-16931627D01*
X15649096Y-16860198D01*
X15649096Y-16803055D01*
X15634811Y-16731627D01*
X15620525Y-16688769D01*
X15606239Y-16660198D01*
X15577668Y-16617341D01*
X15563382Y-16603055D01*
X4762668Y-17440198D02*
X4962668Y-17240198D01*
X4762668Y-17040198D01*
X4562668Y-17240198D01*
X4762668Y-17440198D01*
X5377668Y-17175912D02*
X5377668Y-17375912D01*
X5306239Y-17061627D02*
X5234811Y-17275912D01*
X5420525Y-17275912D01*
X5534811Y-17347341D02*
X5549096Y-17361627D01*
X5534811Y-17375912D01*
X5520525Y-17361627D01*
X5534811Y-17347341D01*
X5534811Y-17375912D01*
X5734811Y-17075912D02*
X5763382Y-17075912D01*
X5791953Y-17090198D01*
X5806239Y-17104484D01*
X5820525Y-17133055D01*
X5834811Y-17190198D01*
X5834811Y-17261627D01*
X5820525Y-17318770D01*
X5806239Y-17347341D01*
X5791953Y-17361627D01*
X5763382Y-17375912D01*
X5734811Y-17375912D01*
X5706239Y-17361627D01*
X5691953Y-17347341D01*
X5677668Y-17318770D01*
X5663382Y-17261627D01*
X5663382Y-17190198D01*
X5677668Y-17133055D01*
X5691953Y-17104484D01*
X5706239Y-17090198D01*
X5734811Y-17075912D01*
X6020525Y-17075912D02*
X6049096Y-17075912D01*
X6077668Y-17090198D01*
X6091953Y-17104484D01*
X6106239Y-17133055D01*
X6120525Y-17190198D01*
X6120525Y-17261627D01*
X6106239Y-17318770D01*
X6091953Y-17347341D01*
X6077668Y-17361627D01*
X6049096Y-17375912D01*
X6020525Y-17375912D01*
X5991953Y-17361627D01*
X5977668Y-17347341D01*
X5963382Y-17318770D01*
X5949096Y-17261627D01*
X5949096Y-17190198D01*
X5963382Y-17133055D01*
X5977668Y-17104484D01*
X5991953Y-17090198D01*
X6020525Y-17075912D01*
X6306239Y-17075912D02*
X6334811Y-17075912D01*
X6363382Y-17090198D01*
X6377668Y-17104484D01*
X6391953Y-17133055D01*
X6406239Y-17190198D01*
X6406239Y-17261627D01*
X6391953Y-17318770D01*
X6377668Y-17347341D01*
X6363382Y-17361627D01*
X6334811Y-17375912D01*
X6306239Y-17375912D01*
X6277668Y-17361627D01*
X6263382Y-17347341D01*
X6249096Y-17318770D01*
X6234811Y-17261627D01*
X6234811Y-17190198D01*
X6249096Y-17133055D01*
X6263382Y-17104484D01*
X6277668Y-17090198D01*
X6306239Y-17075912D01*
X6534811Y-17375912D02*
X6534811Y-17175912D01*
X6534811Y-17204484D02*
X6549096Y-17190198D01*
X6577668Y-17175912D01*
X6620525Y-17175912D01*
X6649096Y-17190198D01*
X6663382Y-17218770D01*
X6663382Y-17375912D01*
X6663382Y-17218770D02*
X6677668Y-17190198D01*
X6706239Y-17175912D01*
X6749096Y-17175912D01*
X6777668Y-17190198D01*
X6791953Y-17218770D01*
X6791953Y-17375912D01*
X6934811Y-17375912D02*
X6934811Y-17175912D01*
X6934811Y-17204484D02*
X6949096Y-17190198D01*
X6977668Y-17175912D01*
X7020525Y-17175912D01*
X7049096Y-17190198D01*
X7063382Y-17218770D01*
X7063382Y-17375912D01*
X7063382Y-17218770D02*
X7077668Y-17190198D01*
X7106239Y-17175912D01*
X7149096Y-17175912D01*
X7177668Y-17190198D01*
X7191953Y-17218770D01*
X7191953Y-17375912D01*
X7777668Y-17061627D02*
X7520525Y-17447341D01*
X8163382Y-17075912D02*
X8191953Y-17075912D01*
X8220525Y-17090198D01*
X8234811Y-17104484D01*
X8249096Y-17133055D01*
X8263382Y-17190198D01*
X8263382Y-17261627D01*
X8249096Y-17318770D01*
X8234811Y-17347341D01*
X8220525Y-17361627D01*
X8191953Y-17375912D01*
X8163382Y-17375912D01*
X8134811Y-17361627D01*
X8120525Y-17347341D01*
X8106239Y-17318770D01*
X8091953Y-17261627D01*
X8091953Y-17190198D01*
X8106239Y-17133055D01*
X8120525Y-17104484D01*
X8134811Y-17090198D01*
X8163382Y-17075912D01*
X8391954Y-17347341D02*
X8406239Y-17361627D01*
X8391954Y-17375912D01*
X8377668Y-17361627D01*
X8391954Y-17347341D01*
X8391954Y-17375912D01*
X8691954Y-17375912D02*
X8520525Y-17375912D01*
X8606239Y-17375912D02*
X8606239Y-17075912D01*
X8577668Y-17118770D01*
X8549096Y-17147341D01*
X8520525Y-17161627D01*
X8963382Y-17075912D02*
X8820525Y-17075912D01*
X8806239Y-17218770D01*
X8820525Y-17204484D01*
X8849096Y-17190198D01*
X8920525Y-17190198D01*
X8949096Y-17204484D01*
X8963382Y-17218770D01*
X8977668Y-17247341D01*
X8977668Y-17318770D01*
X8963382Y-17347341D01*
X8949096Y-17361627D01*
X8920525Y-17375912D01*
X8849096Y-17375912D01*
X8820525Y-17361627D01*
X8806239Y-17347341D01*
X9077668Y-17075912D02*
X9277668Y-17075912D01*
X9149096Y-17375912D01*
X9534811Y-17075912D02*
X9391954Y-17075912D01*
X9377668Y-17218770D01*
X9391954Y-17204484D01*
X9420525Y-17190198D01*
X9491954Y-17190198D01*
X9520525Y-17204484D01*
X9534811Y-17218770D01*
X9549096Y-17247341D01*
X9549096Y-17318770D01*
X9534811Y-17347341D01*
X9520525Y-17361627D01*
X9491954Y-17375912D01*
X9420525Y-17375912D01*
X9391954Y-17361627D01*
X9377668Y-17347341D01*
X9663382Y-17075912D02*
X9663382Y-17133055D01*
X9777668Y-17075912D02*
X9777668Y-17133055D01*
X10220525Y-17490198D02*
X10206239Y-17475912D01*
X10177668Y-17433055D01*
X10163382Y-17404484D01*
X10149096Y-17361627D01*
X10134811Y-17290198D01*
X10134811Y-17233055D01*
X10149096Y-17161627D01*
X10163382Y-17118770D01*
X10177668Y-17090198D01*
X10206239Y-17047341D01*
X10220525Y-17033055D01*
X10320525Y-17104484D02*
X10334811Y-17090198D01*
X10363382Y-17075912D01*
X10434811Y-17075912D01*
X10463382Y-17090198D01*
X10477668Y-17104484D01*
X10491954Y-17133055D01*
X10491954Y-17161627D01*
X10477668Y-17204484D01*
X10306239Y-17375912D01*
X10491954Y-17375912D01*
X10634811Y-17375912D02*
X10691954Y-17375912D01*
X10720525Y-17361627D01*
X10734811Y-17347341D01*
X10763382Y-17304484D01*
X10777668Y-17247341D01*
X10777668Y-17133055D01*
X10763382Y-17104484D01*
X10749096Y-17090198D01*
X10720525Y-17075912D01*
X10663382Y-17075912D01*
X10634811Y-17090198D01*
X10620525Y-17104484D01*
X10606239Y-17133055D01*
X10606239Y-17204484D01*
X10620525Y-17233055D01*
X10634811Y-17247341D01*
X10663382Y-17261627D01*
X10720525Y-17261627D01*
X10749096Y-17247341D01*
X10763382Y-17233055D01*
X10777668Y-17204484D01*
X11134811Y-17375912D02*
X11134811Y-17075912D01*
X11263382Y-17375912D02*
X11263382Y-17218770D01*
X11249096Y-17190198D01*
X11220525Y-17175912D01*
X11177668Y-17175912D01*
X11149096Y-17190198D01*
X11134811Y-17204484D01*
X11449096Y-17375912D02*
X11420525Y-17361627D01*
X11406239Y-17347341D01*
X11391953Y-17318770D01*
X11391953Y-17233055D01*
X11406239Y-17204484D01*
X11420525Y-17190198D01*
X11449096Y-17175912D01*
X11491953Y-17175912D01*
X11520525Y-17190198D01*
X11534811Y-17204484D01*
X11549096Y-17233055D01*
X11549096Y-17318770D01*
X11534811Y-17347341D01*
X11520525Y-17361627D01*
X11491953Y-17375912D01*
X11449096Y-17375912D01*
X11720525Y-17375912D02*
X11691953Y-17361627D01*
X11677668Y-17333055D01*
X11677668Y-17075912D01*
X11949096Y-17361627D02*
X11920525Y-17375912D01*
X11863382Y-17375912D01*
X11834811Y-17361627D01*
X11820525Y-17333055D01*
X11820525Y-17218770D01*
X11834811Y-17190198D01*
X11863382Y-17175912D01*
X11920525Y-17175912D01*
X11949096Y-17190198D01*
X11963382Y-17218770D01*
X11963382Y-17247341D01*
X11820525Y-17275912D01*
X12077668Y-17361627D02*
X12106239Y-17375912D01*
X12163382Y-17375912D01*
X12191953Y-17361627D01*
X12206239Y-17333055D01*
X12206239Y-17318770D01*
X12191953Y-17290198D01*
X12163382Y-17275912D01*
X12120525Y-17275912D01*
X12091953Y-17261627D01*
X12077668Y-17233055D01*
X12077668Y-17218770D01*
X12091953Y-17190198D01*
X12120525Y-17175912D01*
X12163382Y-17175912D01*
X12191953Y-17190198D01*
X12306239Y-17490198D02*
X12320525Y-17475912D01*
X12349096Y-17433055D01*
X12363382Y-17404484D01*
X12377668Y-17361627D01*
X12391953Y-17290198D01*
X12391953Y-17233055D01*
X12377668Y-17161627D01*
X12363382Y-17118770D01*
X12349096Y-17090198D01*
X12320525Y-17047341D01*
X12306239Y-17033055D01*
X12849096Y-17490198D02*
X12834811Y-17475912D01*
X12806239Y-17433055D01*
X12791953Y-17404484D01*
X12777668Y-17361627D01*
X12763382Y-17290198D01*
X12763382Y-17233055D01*
X12777668Y-17161627D01*
X12791953Y-17118770D01*
X12806239Y-17090198D01*
X12834811Y-17047341D01*
X12849096Y-17033055D01*
X12963382Y-17175912D02*
X12963382Y-17375912D01*
X12963382Y-17204484D02*
X12977668Y-17190198D01*
X13006239Y-17175912D01*
X13049096Y-17175912D01*
X13077668Y-17190198D01*
X13091953Y-17218770D01*
X13091953Y-17375912D01*
X13277668Y-17375912D02*
X13249096Y-17361627D01*
X13234811Y-17347341D01*
X13220525Y-17318770D01*
X13220525Y-17233055D01*
X13234811Y-17204484D01*
X13249096Y-17190198D01*
X13277668Y-17175912D01*
X13320525Y-17175912D01*
X13349096Y-17190198D01*
X13363382Y-17204484D01*
X13377668Y-17233055D01*
X13377668Y-17318770D01*
X13363382Y-17347341D01*
X13349096Y-17361627D01*
X13320525Y-17375912D01*
X13277668Y-17375912D01*
X13463382Y-17175912D02*
X13577668Y-17175912D01*
X13506239Y-17075912D02*
X13506239Y-17333055D01*
X13520525Y-17361627D01*
X13549096Y-17375912D01*
X13577668Y-17375912D01*
X13906239Y-17175912D02*
X13906239Y-17475912D01*
X13906239Y-17190198D02*
X13934811Y-17175912D01*
X13991953Y-17175912D01*
X14020525Y-17190198D01*
X14034811Y-17204484D01*
X14049096Y-17233055D01*
X14049096Y-17318770D01*
X14034811Y-17347341D01*
X14020525Y-17361627D01*
X13991953Y-17375912D01*
X13934811Y-17375912D01*
X13906239Y-17361627D01*
X14220525Y-17375912D02*
X14191953Y-17361627D01*
X14177668Y-17333055D01*
X14177668Y-17075912D01*
X14463382Y-17375912D02*
X14463382Y-17218770D01*
X14449096Y-17190198D01*
X14420525Y-17175912D01*
X14363382Y-17175912D01*
X14334811Y-17190198D01*
X14463382Y-17361627D02*
X14434811Y-17375912D01*
X14363382Y-17375912D01*
X14334811Y-17361627D01*
X14320525Y-17333055D01*
X14320525Y-17304484D01*
X14334811Y-17275912D01*
X14363382Y-17261627D01*
X14434811Y-17261627D01*
X14463382Y-17247341D01*
X14563382Y-17175912D02*
X14677668Y-17175912D01*
X14606239Y-17075912D02*
X14606239Y-17333055D01*
X14620525Y-17361627D01*
X14649096Y-17375912D01*
X14677668Y-17375912D01*
X14891953Y-17361627D02*
X14863382Y-17375912D01*
X14806239Y-17375912D01*
X14777668Y-17361627D01*
X14763382Y-17333055D01*
X14763382Y-17218770D01*
X14777668Y-17190198D01*
X14806239Y-17175912D01*
X14863382Y-17175912D01*
X14891953Y-17190198D01*
X14906239Y-17218770D01*
X14906239Y-17247341D01*
X14763382Y-17275912D01*
X15163382Y-17375912D02*
X15163382Y-17075912D01*
X15163382Y-17361627D02*
X15134811Y-17375912D01*
X15077668Y-17375912D01*
X15049096Y-17361627D01*
X15034811Y-17347341D01*
X15020525Y-17318770D01*
X15020525Y-17233055D01*
X15034811Y-17204484D01*
X15049096Y-17190198D01*
X15077668Y-17175912D01*
X15134811Y-17175912D01*
X15163382Y-17190198D01*
X15277668Y-17490198D02*
X15291953Y-17475912D01*
X15320525Y-17433055D01*
X15334811Y-17404484D01*
X15349096Y-17361627D01*
X15363382Y-17290198D01*
X15363382Y-17233055D01*
X15349096Y-17161627D01*
X15334811Y-17118770D01*
X15320525Y-17090198D01*
X15291953Y-17047341D01*
X15277668Y-17033055D01*
M02*
