G04 #@! TF.GenerationSoftware,KiCad,Pcbnew,(5.1.12-1-10_14)*
G04 #@! TF.CreationDate,2021-12-17T11:34:48+00:00*
G04 #@! TF.ProjectId,SofleKeyboard,536f666c-654b-4657-9962-6f6172642e6b,rev?*
G04 #@! TF.SameCoordinates,Original*
G04 #@! TF.FileFunction,Profile,NP*
%FSLAX46Y46*%
G04 Gerber Fmt 4.6, Leading zero omitted, Abs format (unit mm)*
G04 Created by KiCad (PCBNEW (5.1.12-1-10_14)) date 2021-12-17 11:34:48*
%MOMM*%
%LPD*%
G01*
G04 APERTURE LIST*
G04 #@! TA.AperFunction,Profile*
%ADD10C,0.100000*%
G04 #@! TD*
G04 APERTURE END LIST*
D10*
X204009451Y-139266400D02*
X181165009Y-133426480D01*
X224129600Y-139700000D02*
X223901000Y-139700000D01*
X224385191Y-139681504D02*
X224129600Y-139700000D01*
X225026621Y-43695600D02*
X225168321Y-43835582D01*
X89425853Y-37325405D02*
X184510807Y-37325485D01*
X88284057Y-115503472D02*
X88275257Y-115182495D01*
X88310437Y-115822758D02*
X88284057Y-115503472D01*
X186716531Y-37429255D02*
X187885731Y-37541870D01*
X225437700Y-138544300D02*
X225423881Y-138752566D01*
X88977436Y-37415945D02*
X89193680Y-37348815D01*
X88493317Y-116763407D02*
X88415227Y-116453429D01*
X187885731Y-37541870D02*
X188910421Y-37679776D01*
X105086149Y-146426280D02*
X104918207Y-146312320D01*
X138611230Y-133478101D02*
X138154128Y-133648551D01*
X89193680Y-37348815D02*
X89425853Y-37325405D01*
X138154128Y-133648551D02*
X106075202Y-146489480D01*
X106075202Y-146489480D02*
X105872976Y-146549780D01*
X88275257Y-115182495D02*
X88273857Y-38477435D01*
X225168321Y-43835582D02*
X225283881Y-43997807D01*
X224861871Y-43581466D02*
X225026621Y-43695600D01*
X88781752Y-37522160D02*
X88977436Y-37415945D01*
X105872976Y-146549780D02*
X105668308Y-146571980D01*
X185544381Y-37353325D02*
X186716531Y-37429255D01*
X105668308Y-146571980D02*
X105465848Y-146557680D01*
X105465848Y-146557680D02*
X105270246Y-146508580D01*
X105270246Y-146508580D02*
X105086149Y-146426280D01*
X223901000Y-139700000D02*
X207200500Y-139700000D01*
X139075140Y-133329881D02*
X138611230Y-133478101D01*
X91174935Y-122653408D02*
X91129785Y-122566908D01*
X224602601Y-139642904D02*
X224385191Y-139681504D01*
X225267481Y-139147435D02*
X225139571Y-139314255D01*
X177406300Y-132915912D02*
X141956108Y-132915912D01*
X141956108Y-132915912D02*
X141468402Y-132927502D01*
X225370281Y-44178672D02*
X225424381Y-44374571D01*
X88273857Y-38477435D02*
X88297257Y-38245261D01*
X188910421Y-37679776D02*
X224475441Y-43445146D01*
X140982629Y-132962302D02*
X140499606Y-133020102D01*
X88297257Y-38245261D02*
X88364377Y-38029014D01*
X104649386Y-145995930D02*
X91174935Y-122653408D01*
X225424381Y-44374571D02*
X225443181Y-44581902D01*
X224677111Y-43496776D02*
X224861871Y-43581466D01*
X141468402Y-132927502D02*
X140982629Y-132962302D01*
X225139571Y-139314255D02*
X224983591Y-139455185D01*
X140499606Y-133020102D02*
X140020141Y-133100702D01*
X139545048Y-133204021D02*
X139075140Y-133329881D01*
X225423881Y-138752566D02*
X225363481Y-138958835D01*
X177892978Y-132923912D02*
X177406300Y-132915912D01*
X181165009Y-133426480D02*
X180705689Y-133307240D01*
X225363481Y-138958835D02*
X225267481Y-139147435D01*
X88470590Y-37833327D02*
X88611259Y-37662831D01*
X88700100Y-117369113D02*
X88588327Y-117068869D01*
X224475441Y-43445146D02*
X224677111Y-43496776D01*
X225283881Y-43997807D02*
X225370281Y-44178672D01*
X180705689Y-133307240D02*
X180242991Y-133203712D01*
X180242991Y-133203712D02*
X179777319Y-133116012D01*
X224803331Y-139566104D02*
X224602601Y-139642904D01*
X179777319Y-133116012D02*
X179309078Y-133044112D01*
X88588327Y-117068869D02*
X88493317Y-116763407D01*
X88354217Y-116139644D02*
X88310437Y-115822758D01*
X184510807Y-37325485D02*
X185544381Y-37353325D01*
X179309078Y-133044112D02*
X178838670Y-132988112D01*
X225443181Y-44581902D02*
X225437700Y-138544300D01*
X178838670Y-132988112D02*
X178366503Y-132948012D01*
X140020141Y-133100702D02*
X139545048Y-133204021D01*
X224983591Y-139455185D02*
X224803331Y-139566104D01*
X88364377Y-38029014D02*
X88470590Y-37833327D01*
X178366503Y-132948012D02*
X177892978Y-132923912D01*
X104918207Y-146312320D02*
X104771070Y-146168330D01*
X104771070Y-146168330D02*
X104649386Y-145995930D01*
X88611259Y-37662831D02*
X88781752Y-37522160D01*
X88415227Y-116453429D02*
X88354217Y-116139644D01*
X88828479Y-117663430D02*
X88700100Y-117369113D01*
X207200500Y-139700000D02*
X206400120Y-139675200D01*
X206400120Y-139675200D02*
X205594911Y-139593100D01*
X205594911Y-139593100D02*
X204797100Y-139456700D01*
X91129785Y-122566908D02*
X88828479Y-117663430D01*
X204797100Y-139456700D02*
X204009451Y-139266400D01*
X49676679Y38227998D02*
X49676679Y38227998D01*
M02*
