<?xml version="1.0" standalone="no"?>
 <!DOCTYPE svg PUBLIC "-//W3C//DTD SVG 1.1//EN" 
 "http://www.w3.org/Graphics/SVG/1.1/DTD/svg11.dtd"> 
<svg
  xmlns:svg="http://www.w3.org/2000/svg"
  xmlns="http://www.w3.org/2000/svg"
  xmlns:xlink="http://www.w3.org/1999/xlink"
  version="1.1"
  width="14.798040cm" height="11.508740cm" viewBox="0 0 58260 45310">
<title>SVG Picture created as SofleKeyboardTopPlate-brd.svg date 2022/01/01 15:07:14 </title>
  <desc>Picture generated by PCBNEW </desc>
<g style="fill:#000000; fill-opacity:1;stroke:#000000; stroke-opacity:1;
stroke-linecap:round; stroke-linejoin:round;"
 transform="translate(0 0) scale(1 1)">
</g>
<g style="fill:#000000; fill-opacity:0.0; 
stroke:#000000; stroke-width:-0.000393701; stroke-opacity:1; 
stroke-linecap:round; stroke-linejoin:round;">
</g>
<g style="fill:#000000; fill-opacity:0.0; 
stroke:#000000; stroke-width:59.0551; stroke-opacity:1; 
stroke-linecap:round; stroke-linejoin:round;">
<path d="M56590 34411
L56590 39922
" />
</g>
<g style="fill:#000000; fill-opacity:0.0; 
stroke:#000000; stroke-width:39.3701; stroke-opacity:1; 
stroke-linecap:round; stroke-linejoin:round;">
<path d="M50062 40968
L42735 39291
" />
</g>
<g style="fill:#000000; fill-opacity:0.0; 
stroke:#000000; stroke-width:59.0551; stroke-opacity:1; 
stroke-linecap:round; stroke-linejoin:round;">
<path d="M56590 39922
L51078 39922
" />
<path d="M51078 34411
L56590 34411
" />
<path d="M51078 39922
L51078 34411
" />
</g>
<g style="fill:#000000; fill-opacity:0.0; 
stroke:#000000; stroke-width:39.3701; stroke-opacity:1; 
stroke-linecap:round; stroke-linejoin:round;">
<path d="M57673 4087
L57674 40744
" />
<path d="M57448.4 40968.4 A224.009 224.009 0.0 0 0 57674.4 40744.5" />
<path d="M57448 40968
L50062 40968
" />
</g>
<g style="fill:#000000; fill-opacity:0.0; 
stroke:#000000; stroke-width:59.0551; stroke-opacity:1; 
stroke-linecap:round; stroke-linejoin:round;">
<path d="M13011 927
L13168 887
" />
<path d="M12893 966
L13011 927
" />
<path d="M12814 1005
L12893 966
" />
<path d="M12735 1084
L12814 1005
" />
<path d="M12656 1202
L12735 1084
" />
<path d="M12617 1338
L12656 1202
" />
<path d="M12223.7 24470.5 A393.701 393.701 0.0 0 0 12617.4 24076.8" />
<path d="M4076.08 24470.5 A393.701 393.701 0.0 0 0 3682.38 24864.2" />
<path d="M3226 38046
L8000 35290
" />
<path d="M5982 42819
L3226 38046
" />
<path d="M8000 35290
L10756 40063
" />
<path d="M10756 40063
L5982 42819
" />
<path d="M13267 40461
L11840 35137
" />
<path d="M18591 39035
L13267 40461
" />
<path d="M11840 35137
L17164 33711
" />
<path d="M17164 33711
L18591 39035
" />
<path d="M56593 4409
L56593 9921
" />
<path d="M51081 4409
L56593 4409
" />
<path d="M56593 9921
L51081 9921
" />
<path d="M51081 9921
L51081 4409
" />
<path d="M56593 11850
L56593 17362
" />
<path d="M51081 11850
L56593 11850
" />
<path d="M56593 17362
L51081 17362
" />
<path d="M51081 17362
L51081 11850
" />
<path d="M56593 19409
L56593 24921
" />
<path d="M51081 19409
L56593 19409
" />
<path d="M56593 24921
L51081 24921
" />
<path d="M51081 24921
L51081 19409
" />
<path d="M56613 26889
L56613 32401
" />
<path d="M51101 26889
L56613 26889
" />
<path d="M56613 32401
L51101 32401
" />
<path d="M51101 32401
L51101 26889
" />
<path d="M49113 26889
L49113 32401
" />
<path d="M43601 26889
L49113 26889
" />
<path d="M49113 32401
L43601 32401
" />
<path d="M43601 32401
L43601 26889
" />
<path d="M49113 19409
L49113 24921
" />
<path d="M43601 19409
L49113 19409
" />
<path d="M49113 24921
L43601 24921
" />
<path d="M43601 24921
L43601 19409
" />
<path d="M49113 11850
L49113 17362
" />
<path d="M43601 11850
L49113 11850
" />
<path d="M49113 17362
L43601 17362
" />
<path d="M43601 17362
L43601 11850
" />
<path d="M49113 4409
L49113 9921
" />
<path d="M43601 4409
L49113 4409
" />
<path d="M49113 9921
L43601 9921
" />
<path d="M43601 9921
L43601 4409
" />
<path d="M41593 25000
L41593 30511
" />
<path d="M36081 25000
L41593 25000
" />
<path d="M41593 30511
L36081 30511
" />
<path d="M36081 30511
L36081 25000
" />
<path d="M41593 17480
L41593 22992
" />
<path d="M36081 17480
L41593 17480
" />
<path d="M41593 22992
L36081 22992
" />
<path d="M36081 22992
L36081 17480
" />
<path d="M41593 9976
L41593 15488
" />
<path d="M36081 9976
L41593 9976
" />
<path d="M41593 15488
L36081 15488
" />
<path d="M36081 15488
L36081 9976
" />
<path d="M41593 2496
L41593 8007
" />
<path d="M36081 2496
L41593 2496
" />
<path d="M41593 8007
L36081 8007
" />
<path d="M36081 8007
L36081 2496
" />
<path d="M34113 31531
L34113 37043
" />
<path d="M28601 31531
L34113 31531
" />
<path d="M34113 37043
L28601 37043
" />
<path d="M28601 37043
L28601 31531
" />
<path d="M34113 24011
L34113 29523
" />
<path d="M28601 24011
L34113 24011
" />
<path d="M34113 29523
L28601 29523
" />
<path d="M28601 29523
L28601 24011
" />
<path d="M34113 16531
L34113 22043
" />
<path d="M28601 16531
L34113 16531
" />
<path d="M34113 22043
L28601 22043
" />
<path d="M28601 22043
L28601 16531
" />
<path d="M34113 9011
L34113 14523
" />
<path d="M28601 9011
L34113 9011
" />
<path d="M34113 14523
L28601 14523
" />
<path d="M28601 14523
L28601 9011
" />
<path d="M34113 1496
L34113 7007
" />
<path d="M28601 1496
L34113 1496
" />
<path d="M34113 7007
L28601 7007
" />
<path d="M28601 7007
L28601 1496
" />
<path d="M26593 32480
L26593 37992
" />
<path d="M21081 32480
L26593 32480
" />
<path d="M26593 37992
L21081 37992
" />
<path d="M21081 37992
L21081 32480
" />
<path d="M26593 25000
L26593 30511
" />
<path d="M21081 25000
L26593 25000
" />
<path d="M26593 30511
L21081 30511
" />
<path d="M21081 30511
L21081 25000
" />
<path d="M26593 17480
L26593 22992
" />
<path d="M21081 17480
L26593 17480
" />
<path d="M26593 22992
L21081 22992
" />
<path d="M21081 22992
L21081 17480
" />
<path d="M26593 10000
L26593 15511
" />
<path d="M21081 10000
L26593 10000
" />
<path d="M26593 15511
L21081 15511
" />
<path d="M21081 15511
L21081 10000
" />
<path d="M26593 2480
L26593 7992
" />
<path d="M21081 2480
L26593 2480
" />
<path d="M26593 7992
L21081 7992
" />
<path d="M21081 7992
L21081 2480
" />
<path d="M19113 25944
L19113 31456
" />
<path d="M13601 25944
L19113 25944
" />
<path d="M19113 31456
L13601 31456
" />
<path d="M13601 31456
L13601 25944
" />
<path d="M19113 18464
L19113 23976
" />
<path d="M13601 18464
L19113 18464
" />
<path d="M19113 23976
L13601 23976
" />
<path d="M13601 23976
L13601 18464
" />
<path d="M19113 10984
L19113 16496
" />
<path d="M13601 10984
L19113 10984
" />
<path d="M19113 16496
L13601 16496
" />
<path d="M13601 16496
L13601 10984
" />
<path d="M19113 3464
L19113 8976
" />
<path d="M13601 3464
L19113 3464
" />
<path d="M19113 8976
L13601 8976
" />
<path d="M13601 8976
L13601 3464
" />
<path d="M12617 24076
L12617 1338
" />
<path d="M4076 24470
L12223 24470
" />
</g>
<g style="fill:#000000; fill-opacity:0.0; 
stroke:#000000; stroke-width:39.3701; stroke-opacity:1; 
stroke-linecap:round; stroke-linejoin:round;">
<path d="M57444 3693
L57509 3738
" />
<path d="M3670 31574
L3682 24864
" />
<path d="M57565 3793
L57611 3857
" />
<path d="M27578 314
L36219 314
" />
<path d="M57509 3738
L57565 3793
" />
<path d="M23308 39291
L5885 44311
" />
<path d="M1239 36496
L1278 36299
" />
<path d="M1318 37086
L1259 36889
" />
<path d="M23308 39291
L42735 39291
" />
<path d="M27578 314
L13168 887
" />
<path d="M57645 3928
L57666 4005
" />
<path d="M1278 36299
L3562 32066
" />
<path d="M57666 4005
L57673 4087
" />
<path d="M57292 3639
L57372 3660
" />
<path d="M5353 44094
L5491 44212
" />
<path d="M1239 36653
L1239 36496
" />
<path d="M3641 31830
L3562 32066
" />
<path d="M57372 3660
L57444 3693
" />
<path d="M5491 44212
L5668 44271
" />
<path d="M1259 36889
L1239 36653
" />
<path d="M5668 44271
L5885 44311
" />
<path d="M3670 31574
L3641 31830
" />
<path d="M36219 314
L57292 3639
" />
<path d="M5353 44094
L1318 37086
" />
<path d="M57611 3857
L57645 3928
" />
</g>
<g style="fill:#000000; fill-opacity:0.0; 
stroke:#000000; stroke-width:19.685; stroke-opacity:1; 
stroke-linecap:round; stroke-linejoin:round;">
<path d="M10594 26325
L10594 26758
" />
<path d="M10594 29180
L10594 29613
" />
<path d="M11224 30971
L11381 30971
" />
<path d="M11224 25499
L11381 25499
" />
<path d="M11007 26030
L11007 25715
" />
<path d="M10928 29829
L10810 29829
" />
<path d="M10928 28963
L10810 28963
" />
<path d="M11007 28884
L11007 27054
" />
<path d="M10928 26975
L10810 26975
" />
<path d="M10928 26109
L10810 26109
" />
<path d="M11007 30754
L11007 29908
" />
<path d="M11598 30754
L11598 25715
" />
<path d="M11007.6 29908.5 A78.7402 78.7402 0.0 0 0 10928.8 29829.7" />
<path d="M10928.8 28963.6 A78.7402 78.7402 0.0 0 0 11007.6 28884.8" />
<path d="M11007.6 27054.1 A78.7402 78.7402 0.0 0 0 10928.8 26975.4" />
<path d="M10928.8 26109.3 A78.7402 78.7402 0.0 0 0 11007.6 26030.5" />
<path d="M10594.2 29613.2 A153.745 153.745 0.0 1 0 10810.7 29829.7" />
<path d="M10810.7 28963.6 A153.745 153.745 0.0 1 0 10594.2 29180.1" />
<path d="M10594.2 26758.9 A153.745 153.745 0.0 1 0 10810.7 26975.4" />
<path d="M10810.7 26109.3 A153.745 153.745 0.0 1 0 10594.2 26325.8" />
<path d="M11224.1 25499 A153.745 153.745 0.0 1 0 11007.6 25715.6" />
<path d="M11598.1 25715.6 A153.745 153.745 0.0 1 0 11381.6 25499" />
<path d="M11381.6 30971.5 A153.745 153.745 0.0 1 0 11598.1 30754.9" />
<path d="M11007.6 30754.9 A153.745 153.745 0.0 1 0 11224.1 30971.4" />
<g >
</g>
<g >
</g>
<g >
</g>
<g >
</g>
<g >
</g>
<g >
</g>
<g >
</g>
<g >
</g>
<g >
</g>
<g >
</g>
<g >
</g>
<g >
</g>
</g> 
</svg>
