<?xml version="1.0" standalone="no"?>
 <!DOCTYPE svg PUBLIC "-//W3C//DTD SVG 1.1//EN" 
 "http://www.w3.org/Graphics/SVG/1.1/DTD/svg11.dtd"> 
<svg
  xmlns:svg="http://www.w3.org/2000/svg"
  xmlns="http://www.w3.org/2000/svg"
  xmlns:xlink="http://www.w3.org/1999/xlink"
  version="1.1"
  width="18.003520cm" height="19.161760cm" viewBox="0 0 180035200 191617600">
<title>SVG Picture created as SofleKeyboard_case_lower-Edge_Cuts.svg date 2022/01/19 10:28:12 </title>
  <desc>Picture generated by PCBNEW </desc>
<g style="fill:#000000; fill-opacity:1.000000;stroke:#000000; stroke-opacity:1.000000;
stroke-linecap:round; stroke-linejoin:round;"
 transform="translate(0 0) scale(1 1)">
</g>
<g style="fill:#000000; fill-opacity:0.0; 
stroke:#000000; stroke-width:0.000000; stroke-opacity:1; 
stroke-linecap:round; stroke-linejoin:round;">
</g>
<g style="fill:#000000; fill-opacity:0.0; 
stroke:#000000; stroke-width:100000.000000; stroke-opacity:1; 
stroke-linecap:round; stroke-linejoin:round;">
<path d="M178676306 184702764
L178447706 184702764
" />
<path d="M158556157 184269164
L135711715 178429244
" />
<path d="M59464913 191315084
L59317776 191171094
" />
<path d="M42857143 160825522
L42830763 160506236
" />
<circle cx="59546706.000000" cy="159802764.000000" r="1117600.000000" /> 
<path d="M132439684 177926676
L131953006 177918676
" />
<path d="M179830587 89000571
L179916987 89181436
" />
<path d="M95046312 178022866
L94566847 178103466
" />
<path d="M42911083 83031778
L43017296 82836091
" />
<path d="M94566847 178103466
L94091754 178206785
" />
<path d="M59632855 191429044
L59464913 191315084
" />
<circle cx="84146706.000000" cy="142602764.000000" r="1117600.000000" /> 
<path d="M60215014 191574744
L60012554 191560444
" />
<path d="M160141617 184595864
L159343806 184459464
" />
<path d="M96015108 177930266
L95529335 177965066
" />
<path d="M94091754 178206785
L93621846 178332645
" />
<path d="M42820563 83480199
L42843963 83248025
" />
<path d="M43740386 82351579
L43972559 82328169
" />
<path d="M132913209 177950776
L132439684 177926676
" />
<path d="M43135033 162071633
L43040023 161766171
" />
<path d="M42821963 160185259
L42820563 83480199
" />
<path d="M179970587 183755330
L179910187 183961599
" />
<path d="M179971087 89377335
L179989887 89584666
" />
<path d="M179910187 183961599
L179814187 184150199
" />
<path d="M96502814 177918676
L96015108 177930266
" />
<circle cx="84146706.000000" cy="104602764.000000" r="1117600.000000" /> 
<path d="M133385376 177990876
L132913209 177950776
" />
<circle cx="160346706.000000" cy="145002764.000000" r="1117600.000000" /> 
<path d="M43524142 82418709
L43740386 82351579
" />
<path d="M42843963 83248025
L42911083 83031778
" />
<path d="M161747206 184702764
L160946826 184677964
" />
<path d="M179350037 184568868
L179149307 184645668
" />
<path d="M134789697 178206476
L134324025 178118776
" />
<path d="M92700834 178651315
L60621908 191492244
" />
<path d="M59317776 191171094
L59196092 190998694
" />
<path d="M179984406 183547064
L179970587 183755330
" />
<path d="M142432437 82544634
L143457127 82682540
" />
<path d="M42830763 160506236
L42821963 160185259
" />
<path d="M143457127 82682540
L179022147 88447910
" />
<circle cx="160346706.000000" cy="106802764.000000" r="1117600.000000" /> 
<path d="M45676491 167569672
L43375185 162666194
" />
<path d="M179916987 89181436
L179971087 89377335
" />
<path d="M135252395 178310004
L134789697 178206476
" />
<path d="M60621908 191492244
L60419682 191552544
" />
<path d="M133855784 178046876
L133385376 177990876
" />
<path d="M60012554 191560444
L59816952 191511344
" />
<path d="M135711715 178429244
L135252395 178310004
" />
<path d="M179814187 184150199
L179686277 184317019
" />
<path d="M43040023 161766171
L42961933 161456193
" />
<path d="M42961933 161456193
L42900923 161142408
" />
<path d="M43375185 162666194
L43246806 162371877
" />
</g>
<g style="fill:#000000; fill-opacity:1.0; 
stroke:#000000; stroke-width:1.000000; stroke-opacity:1; 
stroke-linecap:round; stroke-linejoin:round;">
<circle cx="4223385.000000" cy="6774766.000000" r="50000.000000" /> 
</g>
<g style="fill:#000000; fill-opacity:1.0; 
stroke:#000000; stroke-width:100000.000000; stroke-opacity:1; 
stroke-linecap:round; stroke-linejoin:round;">
</g>
<g style="fill:#000000; fill-opacity:0.0; 
stroke:#000000; stroke-width:100000.000000; stroke-opacity:1; 
stroke-linecap:round; stroke-linejoin:round;">
<path d="M179530297 184457949
L179350037 184568868
" />
<path d="M141263237 82432019
L142432437 82544634
" />
<path d="M43972559 82328169
L139057513 82328249
" />
<path d="M178931897 184684268
L178676306 184702764
" />
<path d="M134324025 178118776
L133855784 178046876
" />
<path d="M159343806 184459464
L158556157 184269164
" />
<path d="M179408577 88584230
L179573327 88698364
" />
<path d="M95529335 177965066
L95046312 178022866
" />
<path d="M45721641 167656172
L45676491 167569672
" />
<path d="M43246806 162371877
L43135033 162071633
" />
<path d="M140091087 82356089
L141263237 82432019
" />
<path d="M59816952 191511344
L59632855 191429044
" />
<path d="M178447706 184702764
L161747206 184702764
" />
<path d="M179686277 184317019
L179530297 184457949
" />
<path d="M139057513 82328249
L140091087 82356089
" />
<path d="M179573327 88698364
L179715027 88838346
" />
<path d="M43157965 82665595
L43328458 82524924
" />
<path d="M131953006 177918676
L96502814 177918676
" />
<path d="M179223817 88499540
L179408577 88584230
" />
<path d="M179149307 184645668
L178931897 184684268
" />
<path d="M160946826 184677964
L160141617 184595864
" />
<path d="M43017296 82836091
L43157965 82665595
" />
<path d="M43328458 82524924
L43524142 82418709
" />
<path d="M179989887 89584666
L179984406 183547064
" />
<path d="M93621846 178332645
L93157936 178480865
" />
<path d="M179715027 88838346
L179830587 89000571
" />
<path d="M59196092 190998694
L45721641 167656172
" />
<path d="M60419682 191552544
L60215014 191574744
" />
<path d="M93157936 178480865
L92700834 178651315
" />
<path d="M42900923 161142408
L42857143 160825522
" />
<path d="M179022147 88447910
L179223817 88499540
" />
<g >
</g>
<g >
</g>
<g >
</g>
</g> 
</svg>
