<?xml version="1.0" standalone="no"?>
 <!DOCTYPE svg PUBLIC "-//W3C//DTD SVG 1.1//EN" 
 "http://www.w3.org/Graphics/SVG/1.1/DTD/svg11.dtd"> 
<svg
  xmlns:svg="http://www.w3.org/2000/svg"
  xmlns="http://www.w3.org/2000/svg"
  xmlns:xlink="http://www.w3.org/1999/xlink"
  version="1.1"
  width="18.003520cm" height="19.161760cm" viewBox="0 0 180035200 191617600">
<title>SVG Picture created as SofleKeyboard_case_upper-Edge_Cuts.svg date 2022/01/19 10:26:25 </title>
  <desc>Picture generated by PCBNEW </desc>
<g style="fill:#000000; fill-opacity:1.000000;stroke:#000000; stroke-opacity:1.000000;
stroke-linecap:round; stroke-linejoin:round;"
 transform="translate(0 0) scale(1 1)">
</g>
<g style="fill:#000000; fill-opacity:0.0; 
stroke:#000000; stroke-width:0.000000; stroke-opacity:1; 
stroke-linecap:round; stroke-linejoin:round;">
</g>
<g style="fill:#000000; fill-opacity:0.0; 
stroke:#000000; stroke-width:100000.000000; stroke-opacity:1; 
stroke-linecap:round; stroke-linejoin:round;">
<path d="M178676306 184702764
L178447706 184702764
" />
<path d="M158556157 184269164
L135711715 178429244
" />
<path d="M59464913 191315084
L59317776 191171094
" />
<path d="M42857143 160825522
L42830763 160506236
" />
</g>
<g style="fill:#000000; fill-opacity:0.0; 
stroke:#000000; stroke-width:150000.000000; stroke-opacity:1; 
stroke-linecap:round; stroke-linejoin:round;">
<path d="M163246706 130002764
L177242106 130002764
" />
<path d="M177242106 130002764
L177242106 143998164
" />
<path d="M177242106 143998164
L163246706 143998164
" />
<path d="M163246706 143998164
L163246706 130002764
" />
<path d="M48246706 143402764
L60846706 143402764
" />
<path d="M60846706 143402764
L60846706 155602764
" />
<path d="M60846706 155602764
L48246706 155602764
" />
<path d="M48246706 155602764
L48246706 143402764
" />
<circle cx="59546706.000000" cy="159802764.000000" r="1117600.000000" /> 
</g>
<g style="fill:#000000; fill-opacity:0.0; 
stroke:#000000; stroke-width:100000.000000; stroke-opacity:1; 
stroke-linecap:round; stroke-linejoin:round;">
<path d="M66557874 82353299
L66807153 82328169
" />
<path d="M132439684 177926676
L131953006 177918676
" />
<path d="M179830587 89000571
L179916987 89181436
" />
<path d="M95046312 178022866
L94566847 178103466
" />
<path d="M94566847 178103466
L94091754 178206785
" />
<path d="M42913765 142153932
L43020256 141958243
" />
<path d="M59632855 191429044
L59464913 191315084
" />
</g>
<g style="fill:#000000; fill-opacity:0.0; 
stroke:#000000; stroke-width:150000.000000; stroke-opacity:1; 
stroke-linecap:round; stroke-linejoin:round;">
<circle cx="84146706.000000" cy="142602764.000000" r="1117600.000000" /> 
</g>
<g style="fill:#000000; fill-opacity:0.0; 
stroke:#000000; stroke-width:100000.000000; stroke-opacity:1; 
stroke-linecap:round; stroke-linejoin:round;">
<path d="M65667455 83083612
L65781496 82873507
" />
<path d="M60215014 191574744
L60012554 191560444
" />
<path d="M160141617 184595864
L159343806 184459464
" />
<path d="M64906453 141368616
L65091533 141269806
" />
<path d="M96015108 177930266
L95529335 177965066
" />
<path d="M94091754 178206785
L93621846 178332645
" />
<path d="M65549405 140585923
L65570255 140375161
" />
<path d="M132913209 177950776
L132439684 177926676
" />
<path d="M65091533 141269806
L65255309 141135520
" />
</g>
<g style="fill:#000000; fill-opacity:0.0; 
stroke:#000000; stroke-width:150000.000000; stroke-opacity:1; 
stroke-linecap:round; stroke-linejoin:round;">
<path d="M50944528 172510586
L63064900 165512886
" />
<path d="M63064900 165512886
L70062599 177633258
" />
<path d="M70062599 177633258
L57942228 184630958
" />
<path d="M57942228 184630958
L50944528 172510586
" />
<path d="M125146706 142802764
L139142106 142802764
" />
<path d="M139142106 142802764
L139142106 156798164
" />
<path d="M139142106 156798164
L125146706 156798164
" />
<path d="M125146706 156798164
L125146706 142802764
" />
</g>
<g style="fill:#000000; fill-opacity:0.0; 
stroke:#000000; stroke-width:100000.000000; stroke-opacity:1; 
stroke-linecap:round; stroke-linejoin:round;">
<path d="M43135033 162071633
L43040023 161766171
" />
</g>
<g style="fill:#000000; fill-opacity:0.0; 
stroke:#000000; stroke-width:150000.000000; stroke-opacity:1; 
stroke-linecap:round; stroke-linejoin:round;">
<path d="M68046706 88002764
L82042106 88002764
" />
<path d="M82042106 88002764
L82042106 101998164
" />
<path d="M82042106 101998164
L68046706 101998164
" />
<path d="M68046706 101998164
L68046706 88002764
" />
</g>
<g style="fill:#000000; fill-opacity:0.0; 
stroke:#000000; stroke-width:100000.000000; stroke-opacity:1; 
stroke-linecap:round; stroke-linejoin:round;">
<path d="M64494950 141450466
L64705712 141429616
" />
<path d="M42821963 160185259
L42822559 142602468
" />
<path d="M179970587 183755330
L179910187 183961599
" />
<path d="M179971087 89377335
L179989887 89584666
" />
</g>
<g style="fill:#000000; fill-opacity:0.0; 
stroke:#000000; stroke-width:150000.000000; stroke-opacity:1; 
stroke-linecap:round; stroke-linejoin:round;">
<path d="M144246706 128502764
L158242106 128502764
" />
<path d="M158242106 128502764
L158242106 142498164
" />
<path d="M158242106 142498164
L144246706 142498164
" />
<path d="M144246706 142498164
L144246706 128502764
" />
</g>
<g style="fill:#000000; fill-opacity:0.0; 
stroke:#000000; stroke-width:100000.000000; stroke-opacity:1; 
stroke-linecap:round; stroke-linejoin:round;">
<path d="M179910187 183961599
L179814187 184150199
" />
</g>
<g style="fill:#000000; fill-opacity:0.0; 
stroke:#000000; stroke-width:150000.000000; stroke-opacity:1; 
stroke-linecap:round; stroke-linejoin:round;">
<path d="M87046706 85602764
L101042106 85602764
" />
<path d="M101042106 85602764
L101042106 99598164
" />
<path d="M101042106 99598164
L87046706 99598164
" />
<path d="M87046706 99598164
L87046706 85602764
" />
</g>
<g style="fill:#000000; fill-opacity:0.0; 
stroke:#000000; stroke-width:100000.000000; stroke-opacity:1; 
stroke-linecap:round; stroke-linejoin:round;">
<path d="M96502814 177918676
L96015108 177930266
" />
</g>
<g style="fill:#000000; fill-opacity:0.0; 
stroke:#000000; stroke-width:150000.000000; stroke-opacity:1; 
stroke-linecap:round; stroke-linejoin:round;">
<circle cx="84146706.000000" cy="104602764.000000" r="1117600.000000" /> 
<path d="M144246706 109302764
L158242106 109302764
" />
<path d="M158242106 109302764
L158242106 123298164
" />
<path d="M158242106 123298164
L144246706 123298164
" />
<path d="M144246706 123298164
L144246706 109302764
" />
</g>
<g style="fill:#000000; fill-opacity:0.0; 
stroke:#000000; stroke-width:100000.000000; stroke-opacity:1; 
stroke-linecap:round; stroke-linejoin:round;">
<path d="M133385376 177990876
L132913209 177950776
" />
</g>
<g style="fill:#000000; fill-opacity:0.0; 
stroke:#000000; stroke-width:150000.000000; stroke-opacity:1; 
stroke-linecap:round; stroke-linejoin:round;">
<circle cx="160346706.000000" cy="145002764.000000" r="1117600.000000" /> 
</g>
<g style="fill:#000000; fill-opacity:0.0; 
stroke:#000000; stroke-width:100000.000000; stroke-opacity:1; 
stroke-linecap:round; stroke-linejoin:round;">
<path d="M65781496 82873507
L65932533 82690448
" />
</g>
<g style="fill:#000000; fill-opacity:0.0; 
stroke:#000000; stroke-width:150000.000000; stroke-opacity:1; 
stroke-linecap:round; stroke-linejoin:round;">
<path d="M87046706 142802764
L101042106 142802764
" />
<path d="M101042106 142802764
L101042106 156798164
" />
<path d="M101042106 156798164
L87046706 156798164
" />
<path d="M87046706 156798164
L87046706 142802764
" />
</g>
<g style="fill:#000000; fill-opacity:0.0; 
stroke:#000000; stroke-width:100000.000000; stroke-opacity:1; 
stroke-linecap:round; stroke-linejoin:round;">
<path d="M161747206 184702764
L160946826 184677964
" />
<path d="M179350037 184568868
L179149307 184645668
" />
<path d="M134789697 178206476
L134324025 178118776
" />
<path d="M92700834 178651315
L60621908 191492244
" />
<path d="M59317776 191171094
L59196092 190998694
" />
<path d="M43744114 141473856
L43976406 141450466
" />
<path d="M179984406 183547064
L179970587 183755330
" />
<path d="M142432437 82544634
L143457127 82682540
" />
<path d="M42830763 160506236
L42821963 160185259
" />
<path d="M42846323 142370214
L42913765 142153932
" />
<path d="M143457127 82682540
L179022147 88447910
" />
</g>
<g style="fill:#000000; fill-opacity:0.0; 
stroke:#000000; stroke-width:150000.000000; stroke-opacity:1; 
stroke-linecap:round; stroke-linejoin:round;">
<circle cx="160346706.000000" cy="106802764.000000" r="1117600.000000" /> 
</g>
<g style="fill:#000000; fill-opacity:0.0; 
stroke:#000000; stroke-width:100000.000000; stroke-opacity:1; 
stroke-linecap:round; stroke-linejoin:round;">
<path d="M45676491 167569672
L43375185 162666194
" />
<path d="M42822559 142602468
L42846323 142370214
" />
<path d="M179916987 89181436
L179971087 89377335
" />
<path d="M135252395 178310004
L134789697 178206476
" />
<path d="M60621908 191492244
L60419682 191552544
" />
<path d="M65932533 82690448
L66115590 82539411
" />
<path d="M133855784 178046876
L133385376 177990876
" />
<path d="M60012554 191560444
L59816952 191511344
" />
<path d="M135711715 178429244
L135252395 178310004
" />
</g>
<g style="fill:#000000; fill-opacity:0.0; 
stroke:#000000; stroke-width:150000.000000; stroke-opacity:1; 
stroke-linecap:round; stroke-linejoin:round;">
<path d="M73853492 166473017
L87372010 162850741
" />
<path d="M87372010 162850741
L90994286 176369259
" />
<path d="M90994286 176369259
L77475768 179991535
" />
<path d="M77475768 179991535
L73853492 166473017
" />
</g>
<g style="fill:#000000; fill-opacity:0.0; 
stroke:#000000; stroke-width:100000.000000; stroke-opacity:1; 
stroke-linecap:round; stroke-linejoin:round;">
<path d="M179814187 184150199
L179686277 184317019
" />
<path d="M65595385 83315791
L65667455 83083612
" />
<path d="M43040023 161766171
L42961933 161456193
" />
<path d="M42961933 161456193
L42900923 161142408
" />
</g>
<g style="fill:#000000; fill-opacity:0.0; 
stroke:#000000; stroke-width:150000.000000; stroke-opacity:1; 
stroke-linecap:round; stroke-linejoin:round;">
<path d="M144246706 147502764
L158242106 147502764
" />
<path d="M158242106 147502764
L158242106 161498164
" />
<path d="M158242106 161498164
L144246706 161498164
" />
<path d="M144246706 161498164
L144246706 147502764
" />
</g>
<g style="fill:#000000; fill-opacity:0.0; 
stroke:#000000; stroke-width:100000.000000; stroke-opacity:1; 
stroke-linecap:round; stroke-linejoin:round;">
<path d="M43375185 162666194
L43246806 162371877
" />
</g>
<g style="fill:#000000; fill-opacity:0.0; 
stroke:#000000; stroke-width:150000.000000; stroke-opacity:1; 
stroke-linecap:round; stroke-linejoin:round;">
<path d="M106146706 141402764
L120142106 141402764
" />
<path d="M120142106 141402764
L120142106 155398164
" />
<path d="M120142106 155398164
L106146706 155398164
" />
<path d="M106146706 155398164
L106146706 141402764
" />
</g>
<g style="fill:#000000; fill-opacity:1.0; 
stroke:#000000; stroke-width:1.000000; stroke-opacity:1; 
stroke-linecap:round; stroke-linejoin:round;">
<circle cx="4223385.000000" cy="6774766.000000" r="50000.000000" /> 
</g>
<g style="fill:#000000; fill-opacity:1.0; 
stroke:#000000; stroke-width:100000.000000; stroke-opacity:1; 
stroke-linecap:round; stroke-linejoin:round;">
</g>
<g style="fill:#000000; fill-opacity:0.0; 
stroke:#000000; stroke-width:100000.000000; stroke-opacity:1; 
stroke-linecap:round; stroke-linejoin:round;">
<path d="M179530297 184457949
L179350037 184568868
" />
<path d="M141263237 82432019
L142432437 82544634
" />
<path d="M66807153 82328169
L139057513 82328249
" />
<path d="M178931897 184684268
L178676306 184702764
" />
<path d="M134324025 178118776
L133855784 178046876
" />
<path d="M65255309 141135520
L65389595 140971744
" />
</g>
<g style="fill:#000000; fill-opacity:0.0; 
stroke:#000000; stroke-width:150000.000000; stroke-opacity:1; 
stroke-linecap:round; stroke-linejoin:round;">
<path d="M106146706 103302764
L120142106 103302764
" />
<path d="M120142106 103302764
L120142106 117298164
" />
<path d="M120142106 117298164
L106146706 117298164
" />
<path d="M106146706 117298164
L106146706 103302764
" />
</g>
<g style="fill:#000000; fill-opacity:0.0; 
stroke:#000000; stroke-width:100000.000000; stroke-opacity:1; 
stroke-linecap:round; stroke-linejoin:round;">
<path d="M159343806 184459464
L158556157 184269164
" />
<path d="M179408577 88584230
L179573327 88698364
" />
<path d="M95529335 177965066
L95046312 178022866
" />
</g>
<g style="fill:#000000; fill-opacity:0.0; 
stroke:#000000; stroke-width:150000.000000; stroke-opacity:1; 
stroke-linecap:round; stroke-linejoin:round;">
<path d="M125146706 85602764
L139142106 85602764
" />
<path d="M139142106 85602764
L139142106 99598164
" />
<path d="M139142106 99598164
L125146706 99598164
" />
<path d="M125146706 99598164
L125146706 85602764
" />
</g>
<g style="fill:#000000; fill-opacity:0.0; 
stroke:#000000; stroke-width:100000.000000; stroke-opacity:1; 
stroke-linecap:round; stroke-linejoin:round;">
<path d="M64705712 141429616
L64906453 141368616
" />
</g>
<g style="fill:#000000; fill-opacity:0.0; 
stroke:#000000; stroke-width:150000.000000; stroke-opacity:1; 
stroke-linecap:round; stroke-linejoin:round;">
<path d="M125146706 104602764
L139142106 104602764
" />
<path d="M139142106 104602764
L139142106 118598164
" />
<path d="M139142106 118598164
L125146706 118598164
" />
<path d="M125146706 118598164
L125146706 104602764
" />
</g>
<g style="fill:#000000; fill-opacity:0.0; 
stroke:#000000; stroke-width:100000.000000; stroke-opacity:1; 
stroke-linecap:round; stroke-linejoin:round;">
<path d="M45721641 167656172
L45676491 167569672
" />
<path d="M43527724 141540956
L43744114 141473856
" />
</g>
<g style="fill:#000000; fill-opacity:0.0; 
stroke:#000000; stroke-width:150000.000000; stroke-opacity:1; 
stroke-linecap:round; stroke-linejoin:round;">
<path d="M115646706 161752764
L129642106 161752764
" />
<path d="M129642106 161752764
L129642106 175748164
" />
<path d="M129642106 175748164
L115646706 175748164
" />
<path d="M115646706 175748164
L115646706 161752764
" />
<path d="M144246706 90402764
L158242106 90402764
" />
<path d="M158242106 90402764
L158242106 104398164
" />
<path d="M158242106 104398164
L144246706 104398164
" />
<path d="M144246706 104398164
L144246706 90402764
" />
</g>
<g style="fill:#000000; fill-opacity:0.0; 
stroke:#000000; stroke-width:100000.000000; stroke-opacity:1; 
stroke-linecap:round; stroke-linejoin:round;">
<path d="M66325696 82425369
L66557874 82353299
" />
<path d="M43246806 162371877
L43135033 162071633
" />
<path d="M140091087 82356089
L141263237 82432019
" />
<path d="M43976406 141450466
L64494950 141450466
" />
</g>
<g style="fill:#000000; fill-opacity:0.0; 
stroke:#000000; stroke-width:150000.000000; stroke-opacity:1; 
stroke-linecap:round; stroke-linejoin:round;">
<path d="M163246706 91902764
L177242106 91902764
" />
<path d="M177242106 91902764
L177242106 105898164
" />
<path d="M177242106 105898164
L163246706 105898164
" />
<path d="M163246706 105898164
L163246706 91902764
" />
<path d="M96546706 161752764
L110542106 161752764
" />
<path d="M110542106 161752764
L110542106 175748164
" />
<path d="M110542106 175748164
L96546706 175748164
" />
<path d="M96546706 175748164
L96546706 161752764
" />
</g>
<g style="fill:#000000; fill-opacity:0.0; 
stroke:#000000; stroke-width:100000.000000; stroke-opacity:1; 
stroke-linecap:round; stroke-linejoin:round;">
<path d="M65570255 140375161
L65570255 83565070
" />
</g>
<g style="fill:#000000; fill-opacity:0.0; 
stroke:#000000; stroke-width:150000.000000; stroke-opacity:1; 
stroke-linecap:round; stroke-linejoin:round;">
<path d="M68046706 145102764
L82042106 145102764
" />
<path d="M82042106 145102764
L82042106 159098164
" />
<path d="M82042106 159098164
L68046706 159098164
" />
<path d="M68046706 159098164
L68046706 145102764
" />
<path d="M163294306 168076165
L177289706 168076165
" />
<path d="M177289706 168076165
L177289706 182071565
" />
<path d="M177289706 182071565
L163294306 182071565
" />
<path d="M163294306 182071565
L163294306 168076165
" />
</g>
<g style="fill:#000000; fill-opacity:0.0; 
stroke:#000000; stroke-width:100000.000000; stroke-opacity:1; 
stroke-linecap:round; stroke-linejoin:round;">
<path d="M59816952 191511344
L59632855 191429044
" />
</g>
<g style="fill:#000000; fill-opacity:0.0; 
stroke:#000000; stroke-width:150000.000000; stroke-opacity:1; 
stroke-linecap:round; stroke-linejoin:round;">
<path d="M163296706 149002764
L177292106 149002764
" />
<path d="M177292106 149002764
L177292106 162998164
" />
<path d="M177292106 162998164
L163296706 162998164
" />
<path d="M163296706 162998164
L163296706 149002764
" />
<path d="M87046706 123702764
L101042106 123702764
" />
<path d="M101042106 123702764
L101042106 137698164
" />
<path d="M101042106 137698164
L87046706 137698164
" />
<path d="M87046706 137698164
L87046706 123702764
" />
</g>
<g style="fill:#000000; fill-opacity:0.0; 
stroke:#000000; stroke-width:100000.000000; stroke-opacity:1; 
stroke-linecap:round; stroke-linejoin:round;">
<path d="M66115590 82539411
L66325696 82425369
" />
<path d="M178447706 184702764
L161747206 184702764
" />
</g>
<g style="fill:#000000; fill-opacity:0.0; 
stroke:#000000; stroke-width:150000.000000; stroke-opacity:1; 
stroke-linecap:round; stroke-linejoin:round;">
<path d="M87046706 104702764
L101042106 104702764
" />
<path d="M101042106 104702764
L101042106 118698164
" />
<path d="M101042106 118698164
L87046706 118698164
" />
<path d="M87046706 118698164
L87046706 104702764
" />
</g>
<g style="fill:#000000; fill-opacity:0.0; 
stroke:#000000; stroke-width:100000.000000; stroke-opacity:1; 
stroke-linecap:round; stroke-linejoin:round;">
<path d="M179686277 184317019
L179530297 184457949
" />
<path d="M139057513 82328249
L140091087 82356089
" />
</g>
<g style="fill:#000000; fill-opacity:0.0; 
stroke:#000000; stroke-width:150000.000000; stroke-opacity:1; 
stroke-linecap:round; stroke-linejoin:round;">
<path d="M163246706 110802764
L177242106 110802764
" />
<path d="M177242106 110802764
L177242106 124798164
" />
<path d="M177242106 124798164
L163246706 124798164
" />
<path d="M163246706 124798164
L163246706 110802764
" />
</g>
<g style="fill:#000000; fill-opacity:0.0; 
stroke:#000000; stroke-width:100000.000000; stroke-opacity:1; 
stroke-linecap:round; stroke-linejoin:round;">
<path d="M43331865 141647133
L43527724 141540956
" />
<path d="M179573327 88698364
L179715027 88838346
" />
<path d="M131953006 177918676
L96502814 177918676
" />
<path d="M65389595 140971744
L65488405 140786664
" />
<path d="M65570255 83565070
L65595385 83315791
" />
<path d="M43020256 141958243
L43161166 141787769
" />
<path d="M179223817 88499540
L179408577 88584230
" />
<path d="M179149307 184645668
L178931897 184684268
" />
<path d="M160946826 184677964
L160141617 184595864
" />
</g>
<g style="fill:#000000; fill-opacity:0.0; 
stroke:#000000; stroke-width:150000.000000; stroke-opacity:1; 
stroke-linecap:round; stroke-linejoin:round;">
<path d="M125146706 123702764
L139142106 123702764
" />
<path d="M139142106 123702764
L139142106 137698164
" />
<path d="M139142106 137698164
L125146706 137698164
" />
<path d="M125146706 137698164
L125146706 123702764
" />
<path d="M68046706 126102764
L82042106 126102764
" />
<path d="M82042106 126102764
L82042106 140098164
" />
<path d="M82042106 140098164
L68046706 140098164
" />
<path d="M68046706 140098164
L68046706 126102764
" />
</g>
<g style="fill:#000000; fill-opacity:0.0; 
stroke:#000000; stroke-width:100000.000000; stroke-opacity:1; 
stroke-linecap:round; stroke-linejoin:round;">
<path d="M43161166 141787769
L43331865 141647133
" />
<path d="M179989887 89584666
L179984406 183547064
" />
<path d="M93621846 178332645
L93157936 178480865
" />
<path d="M179715027 88838346
L179830587 89000571
" />
<path d="M59196092 190998694
L45721641 167656172
" />
<path d="M60419682 191552544
L60215014 191574744
" />
</g>
<g style="fill:#000000; fill-opacity:0.0; 
stroke:#000000; stroke-width:150000.000000; stroke-opacity:1; 
stroke-linecap:round; stroke-linejoin:round;">
<path d="M68046706 107102764
L82042106 107102764
" />
<path d="M82042106 107102764
L82042106 121098164
" />
<path d="M82042106 121098164
L68046706 121098164
" />
<path d="M68046706 121098164
L68046706 107102764
" />
</g>
<g style="fill:#000000; fill-opacity:0.0; 
stroke:#000000; stroke-width:100000.000000; stroke-opacity:1; 
stroke-linecap:round; stroke-linejoin:round;">
<path d="M93157936 178480865
L92700834 178651315
" />
<path d="M42900923 161142408
L42857143 160825522
" />
<path d="M65488405 140786664
L65549405 140585923
" />
</g>
<g style="fill:#000000; fill-opacity:0.0; 
stroke:#000000; stroke-width:150000.000000; stroke-opacity:1; 
stroke-linecap:round; stroke-linejoin:round;">
<path d="M106146706 122402764
L120142106 122402764
" />
<path d="M120142106 122402764
L120142106 136398164
" />
<path d="M120142106 136398164
L106146706 136398164
" />
<path d="M106146706 136398164
L106146706 122402764
" />
<path d="M106146706 84212764
L120142106 84212764
" />
<path d="M120142106 84212764
L120142106 98208164
" />
<path d="M120142106 98208164
L106146706 98208164
" />
<path d="M106146706 98208164
L106146706 84212764
" />
</g>
<g style="fill:#000000; fill-opacity:0.0; 
stroke:#000000; stroke-width:100000.000000; stroke-opacity:1; 
stroke-linecap:round; stroke-linejoin:round;">
<path d="M179022147 88447910
L179223817 88499540
" />
<g >
</g>
<g >
</g>
<g >
</g>
</g> 
</svg>
