G04 #@! TF.GenerationSoftware,KiCad,Pcbnew,(6.0.2-0)*
G04 #@! TF.CreationDate,2022-03-06T07:47:00+00:00*
G04 #@! TF.ProjectId,SofleKeyboardBottomPlate,536f666c-654b-4657-9962-6f617264426f,rev?*
G04 #@! TF.SameCoordinates,Original*
G04 #@! TF.FileFunction,Legend,Top*
G04 #@! TF.FilePolarity,Positive*
%FSLAX46Y46*%
G04 Gerber Fmt 4.6, Leading zero omitted, Abs format (unit mm)*
G04 Created by KiCad (PCBNEW (6.0.2-0)) date 2022-03-06 07:47:00*
%MOMM*%
%LPD*%
G01*
G04 APERTURE LIST*
%ADD10C,0.200000*%
%ADD11C,0.150000*%
G04 APERTURE END LIST*
D10*
X104057380Y-46117380D02*
X104247857Y-46117380D01*
X104343095Y-46165000D01*
X104438333Y-46260238D01*
X104485952Y-46450714D01*
X104485952Y-46784047D01*
X104438333Y-46974523D01*
X104343095Y-47069761D01*
X104247857Y-47117380D01*
X104057380Y-47117380D01*
X103962142Y-47069761D01*
X103866904Y-46974523D01*
X103819285Y-46784047D01*
X103819285Y-46450714D01*
X103866904Y-46260238D01*
X103962142Y-46165000D01*
X104057380Y-46117380D01*
X104914523Y-47117380D02*
X104914523Y-46450714D01*
X104914523Y-46641190D02*
X104962142Y-46545952D01*
X105009761Y-46498333D01*
X105105000Y-46450714D01*
X105200238Y-46450714D01*
X105533571Y-47117380D02*
X105533571Y-46450714D01*
X105533571Y-46117380D02*
X105485952Y-46165000D01*
X105533571Y-46212619D01*
X105581190Y-46165000D01*
X105533571Y-46117380D01*
X105533571Y-46212619D01*
X106438333Y-46450714D02*
X106438333Y-47260238D01*
X106390714Y-47355476D01*
X106343095Y-47403095D01*
X106247857Y-47450714D01*
X106105000Y-47450714D01*
X106009761Y-47403095D01*
X106438333Y-47069761D02*
X106343095Y-47117380D01*
X106152619Y-47117380D01*
X106057380Y-47069761D01*
X106009761Y-47022142D01*
X105962142Y-46926904D01*
X105962142Y-46641190D01*
X106009761Y-46545952D01*
X106057380Y-46498333D01*
X106152619Y-46450714D01*
X106343095Y-46450714D01*
X106438333Y-46498333D01*
X106914523Y-47117380D02*
X106914523Y-46450714D01*
X106914523Y-46117380D02*
X106866904Y-46165000D01*
X106914523Y-46212619D01*
X106962142Y-46165000D01*
X106914523Y-46117380D01*
X106914523Y-46212619D01*
X107390714Y-46450714D02*
X107390714Y-47117380D01*
X107390714Y-46545952D02*
X107438333Y-46498333D01*
X107533571Y-46450714D01*
X107676428Y-46450714D01*
X107771666Y-46498333D01*
X107819285Y-46593571D01*
X107819285Y-47117380D01*
X108724047Y-47117380D02*
X108724047Y-46593571D01*
X108676428Y-46498333D01*
X108581190Y-46450714D01*
X108390714Y-46450714D01*
X108295476Y-46498333D01*
X108724047Y-47069761D02*
X108628809Y-47117380D01*
X108390714Y-47117380D01*
X108295476Y-47069761D01*
X108247857Y-46974523D01*
X108247857Y-46879285D01*
X108295476Y-46784047D01*
X108390714Y-46736428D01*
X108628809Y-46736428D01*
X108724047Y-46688809D01*
X109343095Y-47117380D02*
X109247857Y-47069761D01*
X109200238Y-46974523D01*
X109200238Y-46117380D01*
X110438333Y-47069761D02*
X110581190Y-47117380D01*
X110819285Y-47117380D01*
X110914523Y-47069761D01*
X110962142Y-47022142D01*
X111009761Y-46926904D01*
X111009761Y-46831666D01*
X110962142Y-46736428D01*
X110914523Y-46688809D01*
X110819285Y-46641190D01*
X110628809Y-46593571D01*
X110533571Y-46545952D01*
X110485952Y-46498333D01*
X110438333Y-46403095D01*
X110438333Y-46307857D01*
X110485952Y-46212619D01*
X110533571Y-46165000D01*
X110628809Y-46117380D01*
X110866904Y-46117380D01*
X111009761Y-46165000D01*
X111581190Y-47117380D02*
X111485952Y-47069761D01*
X111438333Y-47022142D01*
X111390714Y-46926904D01*
X111390714Y-46641190D01*
X111438333Y-46545952D01*
X111485952Y-46498333D01*
X111581190Y-46450714D01*
X111724047Y-46450714D01*
X111819285Y-46498333D01*
X111866904Y-46545952D01*
X111914523Y-46641190D01*
X111914523Y-46926904D01*
X111866904Y-47022142D01*
X111819285Y-47069761D01*
X111724047Y-47117380D01*
X111581190Y-47117380D01*
X112200238Y-46450714D02*
X112581190Y-46450714D01*
X112343095Y-47117380D02*
X112343095Y-46260238D01*
X112390714Y-46165000D01*
X112485952Y-46117380D01*
X112581190Y-46117380D01*
X113057380Y-47117380D02*
X112962142Y-47069761D01*
X112914523Y-46974523D01*
X112914523Y-46117380D01*
X113819285Y-47069761D02*
X113724047Y-47117380D01*
X113533571Y-47117380D01*
X113438333Y-47069761D01*
X113390714Y-46974523D01*
X113390714Y-46593571D01*
X113438333Y-46498333D01*
X113533571Y-46450714D01*
X113724047Y-46450714D01*
X113819285Y-46498333D01*
X113866904Y-46593571D01*
X113866904Y-46688809D01*
X113390714Y-46784047D01*
X115485952Y-47117380D02*
X115485952Y-46117380D01*
X115485952Y-47069761D02*
X115390714Y-47117380D01*
X115200238Y-47117380D01*
X115105000Y-47069761D01*
X115057380Y-47022142D01*
X115009761Y-46926904D01*
X115009761Y-46641190D01*
X115057380Y-46545952D01*
X115105000Y-46498333D01*
X115200238Y-46450714D01*
X115390714Y-46450714D01*
X115485952Y-46498333D01*
X116343095Y-47069761D02*
X116247857Y-47117380D01*
X116057380Y-47117380D01*
X115962142Y-47069761D01*
X115914523Y-46974523D01*
X115914523Y-46593571D01*
X115962142Y-46498333D01*
X116057380Y-46450714D01*
X116247857Y-46450714D01*
X116343095Y-46498333D01*
X116390714Y-46593571D01*
X116390714Y-46688809D01*
X115914523Y-46784047D01*
X116771666Y-47069761D02*
X116866904Y-47117380D01*
X117057380Y-47117380D01*
X117152619Y-47069761D01*
X117200238Y-46974523D01*
X117200238Y-46926904D01*
X117152619Y-46831666D01*
X117057380Y-46784047D01*
X116914523Y-46784047D01*
X116819285Y-46736428D01*
X116771666Y-46641190D01*
X116771666Y-46593571D01*
X116819285Y-46498333D01*
X116914523Y-46450714D01*
X117057380Y-46450714D01*
X117152619Y-46498333D01*
X117628809Y-47117380D02*
X117628809Y-46450714D01*
X117628809Y-46117380D02*
X117581190Y-46165000D01*
X117628809Y-46212619D01*
X117676428Y-46165000D01*
X117628809Y-46117380D01*
X117628809Y-46212619D01*
X118533571Y-46450714D02*
X118533571Y-47260238D01*
X118485952Y-47355476D01*
X118438333Y-47403095D01*
X118343095Y-47450714D01*
X118200238Y-47450714D01*
X118105000Y-47403095D01*
X118533571Y-47069761D02*
X118438333Y-47117380D01*
X118247857Y-47117380D01*
X118152619Y-47069761D01*
X118105000Y-47022142D01*
X118057380Y-46926904D01*
X118057380Y-46641190D01*
X118105000Y-46545952D01*
X118152619Y-46498333D01*
X118247857Y-46450714D01*
X118438333Y-46450714D01*
X118533571Y-46498333D01*
X119009761Y-46450714D02*
X119009761Y-47117380D01*
X119009761Y-46545952D02*
X119057380Y-46498333D01*
X119152619Y-46450714D01*
X119295476Y-46450714D01*
X119390714Y-46498333D01*
X119438333Y-46593571D01*
X119438333Y-47117380D01*
X120676428Y-47117380D02*
X120676428Y-46117380D01*
X120676428Y-46498333D02*
X120771666Y-46450714D01*
X120962142Y-46450714D01*
X121057380Y-46498333D01*
X121105000Y-46545952D01*
X121152619Y-46641190D01*
X121152619Y-46926904D01*
X121105000Y-47022142D01*
X121057380Y-47069761D01*
X120962142Y-47117380D01*
X120771666Y-47117380D01*
X120676428Y-47069761D01*
X121485952Y-46450714D02*
X121724047Y-47117380D01*
X121962142Y-46450714D02*
X121724047Y-47117380D01*
X121628809Y-47355476D01*
X121581190Y-47403095D01*
X121485952Y-47450714D01*
X123390714Y-46117380D02*
X123390714Y-46831666D01*
X123343095Y-46974523D01*
X123247857Y-47069761D01*
X123105000Y-47117380D01*
X123009761Y-47117380D01*
X124009761Y-47117380D02*
X123914523Y-47069761D01*
X123866904Y-47022142D01*
X123819285Y-46926904D01*
X123819285Y-46641190D01*
X123866904Y-46545952D01*
X123914523Y-46498333D01*
X124009761Y-46450714D01*
X124152619Y-46450714D01*
X124247857Y-46498333D01*
X124295476Y-46545952D01*
X124343095Y-46641190D01*
X124343095Y-46926904D01*
X124295476Y-47022142D01*
X124247857Y-47069761D01*
X124152619Y-47117380D01*
X124009761Y-47117380D01*
X124724047Y-47069761D02*
X124819285Y-47117380D01*
X125009761Y-47117380D01*
X125104999Y-47069761D01*
X125152619Y-46974523D01*
X125152619Y-46926904D01*
X125104999Y-46831666D01*
X125009761Y-46784047D01*
X124866904Y-46784047D01*
X124771666Y-46736428D01*
X124724047Y-46641190D01*
X124724047Y-46593571D01*
X124771666Y-46498333D01*
X124866904Y-46450714D01*
X125009761Y-46450714D01*
X125104999Y-46498333D01*
X125962142Y-47069761D02*
X125866904Y-47117380D01*
X125676428Y-47117380D01*
X125581190Y-47069761D01*
X125533571Y-46974523D01*
X125533571Y-46593571D01*
X125581190Y-46498333D01*
X125676428Y-46450714D01*
X125866904Y-46450714D01*
X125962142Y-46498333D01*
X126009761Y-46593571D01*
X126009761Y-46688809D01*
X125533571Y-46784047D01*
X126295476Y-46450714D02*
X126676428Y-46450714D01*
X126438333Y-47117380D02*
X126438333Y-46260238D01*
X126485952Y-46165000D01*
X126581190Y-46117380D01*
X126676428Y-46117380D01*
X127724047Y-46831666D02*
X128200238Y-46831666D01*
X127628809Y-47117380D02*
X127962142Y-46117380D01*
X128295476Y-47117380D01*
X129057380Y-47117380D02*
X129057380Y-46117380D01*
X129057380Y-47069761D02*
X128962142Y-47117380D01*
X128771666Y-47117380D01*
X128676428Y-47069761D01*
X128628809Y-47022142D01*
X128581190Y-46926904D01*
X128581190Y-46641190D01*
X128628809Y-46545952D01*
X128676428Y-46498333D01*
X128771666Y-46450714D01*
X128962142Y-46450714D01*
X129057380Y-46498333D01*
X129962142Y-47117380D02*
X129962142Y-46593571D01*
X129914523Y-46498333D01*
X129819285Y-46450714D01*
X129628809Y-46450714D01*
X129533571Y-46498333D01*
X129962142Y-47069761D02*
X129866904Y-47117380D01*
X129628809Y-47117380D01*
X129533571Y-47069761D01*
X129485952Y-46974523D01*
X129485952Y-46879285D01*
X129533571Y-46784047D01*
X129628809Y-46736428D01*
X129866904Y-46736428D01*
X129962142Y-46688809D01*
X130438333Y-47117380D02*
X130438333Y-46450714D01*
X130438333Y-46545952D02*
X130485952Y-46498333D01*
X130581190Y-46450714D01*
X130724047Y-46450714D01*
X130819285Y-46498333D01*
X130866904Y-46593571D01*
X130866904Y-47117380D01*
X130866904Y-46593571D02*
X130914523Y-46498333D01*
X131009761Y-46450714D01*
X131152619Y-46450714D01*
X131247857Y-46498333D01*
X131295476Y-46593571D01*
X131295476Y-47117380D01*
X132200238Y-47117380D02*
X132200238Y-46593571D01*
X132152619Y-46498333D01*
X132057380Y-46450714D01*
X131866904Y-46450714D01*
X131771666Y-46498333D01*
X132200238Y-47069761D02*
X132104999Y-47117380D01*
X131866904Y-47117380D01*
X131771666Y-47069761D01*
X131724047Y-46974523D01*
X131724047Y-46879285D01*
X131771666Y-46784047D01*
X131866904Y-46736428D01*
X132104999Y-46736428D01*
X132200238Y-46688809D01*
X133104999Y-47069761D02*
X133009761Y-47117380D01*
X132819285Y-47117380D01*
X132724047Y-47069761D01*
X132676428Y-47022142D01*
X132628809Y-46926904D01*
X132628809Y-46641190D01*
X132676428Y-46545952D01*
X132724047Y-46498333D01*
X132819285Y-46450714D01*
X133009761Y-46450714D01*
X133104999Y-46498333D01*
X133533571Y-47117380D02*
X133533571Y-46450714D01*
X133533571Y-46117380D02*
X133485952Y-46165000D01*
X133533571Y-46212619D01*
X133581190Y-46165000D01*
X133533571Y-46117380D01*
X133533571Y-46212619D01*
X134009761Y-47117380D02*
X134009761Y-46117380D01*
X134104999Y-46736428D02*
X134390714Y-47117380D01*
X134390714Y-46450714D02*
X134009761Y-46831666D01*
D11*
X103640714Y-48787380D02*
X103640714Y-47787380D01*
X104069285Y-48787380D02*
X104069285Y-48263571D01*
X104021666Y-48168333D01*
X103926428Y-48120714D01*
X103783571Y-48120714D01*
X103688333Y-48168333D01*
X103640714Y-48215952D01*
X104402619Y-48120714D02*
X104783571Y-48120714D01*
X104545476Y-47787380D02*
X104545476Y-48644523D01*
X104593095Y-48739761D01*
X104688333Y-48787380D01*
X104783571Y-48787380D01*
X104974047Y-48120714D02*
X105355000Y-48120714D01*
X105116904Y-47787380D02*
X105116904Y-48644523D01*
X105164523Y-48739761D01*
X105259761Y-48787380D01*
X105355000Y-48787380D01*
X105688333Y-48120714D02*
X105688333Y-49120714D01*
X105688333Y-48168333D02*
X105783571Y-48120714D01*
X105974047Y-48120714D01*
X106069285Y-48168333D01*
X106116904Y-48215952D01*
X106164523Y-48311190D01*
X106164523Y-48596904D01*
X106116904Y-48692142D01*
X106069285Y-48739761D01*
X105974047Y-48787380D01*
X105783571Y-48787380D01*
X105688333Y-48739761D01*
X106545476Y-48739761D02*
X106640714Y-48787380D01*
X106831190Y-48787380D01*
X106926428Y-48739761D01*
X106974047Y-48644523D01*
X106974047Y-48596904D01*
X106926428Y-48501666D01*
X106831190Y-48454047D01*
X106688333Y-48454047D01*
X106593095Y-48406428D01*
X106545476Y-48311190D01*
X106545476Y-48263571D01*
X106593095Y-48168333D01*
X106688333Y-48120714D01*
X106831190Y-48120714D01*
X106926428Y-48168333D01*
X107402619Y-48692142D02*
X107450238Y-48739761D01*
X107402619Y-48787380D01*
X107355000Y-48739761D01*
X107402619Y-48692142D01*
X107402619Y-48787380D01*
X107402619Y-48168333D02*
X107450238Y-48215952D01*
X107402619Y-48263571D01*
X107355000Y-48215952D01*
X107402619Y-48168333D01*
X107402619Y-48263571D01*
X108593095Y-47739761D02*
X107735952Y-49025476D01*
X109640714Y-47739761D02*
X108783571Y-49025476D01*
X109974047Y-48120714D02*
X109974047Y-48977857D01*
X109926428Y-49073095D01*
X109831190Y-49120714D01*
X109783571Y-49120714D01*
X109974047Y-47787380D02*
X109926428Y-47835000D01*
X109974047Y-47882619D01*
X110021666Y-47835000D01*
X109974047Y-47787380D01*
X109974047Y-47882619D01*
X110593095Y-48787380D02*
X110497857Y-48739761D01*
X110450238Y-48692142D01*
X110402619Y-48596904D01*
X110402619Y-48311190D01*
X110450238Y-48215952D01*
X110497857Y-48168333D01*
X110593095Y-48120714D01*
X110735952Y-48120714D01*
X110831190Y-48168333D01*
X110878809Y-48215952D01*
X110926428Y-48311190D01*
X110926428Y-48596904D01*
X110878809Y-48692142D01*
X110831190Y-48739761D01*
X110735952Y-48787380D01*
X110593095Y-48787380D01*
X111307380Y-48739761D02*
X111402619Y-48787380D01*
X111593095Y-48787380D01*
X111688333Y-48739761D01*
X111735952Y-48644523D01*
X111735952Y-48596904D01*
X111688333Y-48501666D01*
X111593095Y-48454047D01*
X111450238Y-48454047D01*
X111355000Y-48406428D01*
X111307380Y-48311190D01*
X111307380Y-48263571D01*
X111355000Y-48168333D01*
X111450238Y-48120714D01*
X111593095Y-48120714D01*
X111688333Y-48168333D01*
X112545476Y-48739761D02*
X112450238Y-48787380D01*
X112259761Y-48787380D01*
X112164523Y-48739761D01*
X112116904Y-48644523D01*
X112116904Y-48263571D01*
X112164523Y-48168333D01*
X112259761Y-48120714D01*
X112450238Y-48120714D01*
X112545476Y-48168333D01*
X112593095Y-48263571D01*
X112593095Y-48358809D01*
X112116904Y-48454047D01*
X112878809Y-48120714D02*
X113259761Y-48120714D01*
X113021666Y-48787380D02*
X113021666Y-47930238D01*
X113069285Y-47835000D01*
X113164523Y-47787380D01*
X113259761Y-47787380D01*
X114021666Y-48787380D02*
X114021666Y-48263571D01*
X113974047Y-48168333D01*
X113878809Y-48120714D01*
X113688333Y-48120714D01*
X113593095Y-48168333D01*
X114021666Y-48739761D02*
X113926428Y-48787380D01*
X113688333Y-48787380D01*
X113593095Y-48739761D01*
X113545476Y-48644523D01*
X113545476Y-48549285D01*
X113593095Y-48454047D01*
X113688333Y-48406428D01*
X113926428Y-48406428D01*
X114021666Y-48358809D01*
X114926428Y-48787380D02*
X114926428Y-47787380D01*
X114926428Y-48739761D02*
X114831190Y-48787380D01*
X114640714Y-48787380D01*
X114545476Y-48739761D01*
X114497857Y-48692142D01*
X114450238Y-48596904D01*
X114450238Y-48311190D01*
X114497857Y-48215952D01*
X114545476Y-48168333D01*
X114640714Y-48120714D01*
X114831190Y-48120714D01*
X114926428Y-48168333D01*
X115831190Y-48787380D02*
X115831190Y-48263571D01*
X115783571Y-48168333D01*
X115688333Y-48120714D01*
X115497857Y-48120714D01*
X115402619Y-48168333D01*
X115831190Y-48739761D02*
X115735952Y-48787380D01*
X115497857Y-48787380D01*
X115402619Y-48739761D01*
X115355000Y-48644523D01*
X115355000Y-48549285D01*
X115402619Y-48454047D01*
X115497857Y-48406428D01*
X115735952Y-48406428D01*
X115831190Y-48358809D01*
X116307380Y-48787380D02*
X116307380Y-48120714D01*
X116307380Y-48215952D02*
X116355000Y-48168333D01*
X116450238Y-48120714D01*
X116593095Y-48120714D01*
X116688333Y-48168333D01*
X116735952Y-48263571D01*
X116735952Y-48787380D01*
X116735952Y-48263571D02*
X116783571Y-48168333D01*
X116878809Y-48120714D01*
X117021666Y-48120714D01*
X117116904Y-48168333D01*
X117164523Y-48263571D01*
X117164523Y-48787380D01*
X118069285Y-48739761D02*
X117974047Y-48787380D01*
X117783571Y-48787380D01*
X117688333Y-48739761D01*
X117640714Y-48692142D01*
X117593095Y-48596904D01*
X117593095Y-48311190D01*
X117640714Y-48215952D01*
X117688333Y-48168333D01*
X117783571Y-48120714D01*
X117974047Y-48120714D01*
X118069285Y-48168333D01*
X118497857Y-48787380D02*
X118497857Y-48120714D01*
X118497857Y-47787380D02*
X118450238Y-47835000D01*
X118497857Y-47882619D01*
X118545476Y-47835000D01*
X118497857Y-47787380D01*
X118497857Y-47882619D01*
X118974047Y-48787380D02*
X118974047Y-47787380D01*
X119069285Y-48406428D02*
X119355000Y-48787380D01*
X119355000Y-48120714D02*
X118974047Y-48501666D01*
X119783571Y-48692142D02*
X119831190Y-48739761D01*
X119783571Y-48787380D01*
X119735952Y-48739761D01*
X119783571Y-48692142D01*
X119783571Y-48787380D01*
X120688333Y-48120714D02*
X120688333Y-48930238D01*
X120640714Y-49025476D01*
X120593095Y-49073095D01*
X120497857Y-49120714D01*
X120355000Y-49120714D01*
X120259761Y-49073095D01*
X120688333Y-48739761D02*
X120593095Y-48787380D01*
X120402619Y-48787380D01*
X120307380Y-48739761D01*
X120259761Y-48692142D01*
X120212142Y-48596904D01*
X120212142Y-48311190D01*
X120259761Y-48215952D01*
X120307380Y-48168333D01*
X120402619Y-48120714D01*
X120593095Y-48120714D01*
X120688333Y-48168333D01*
X121164523Y-48787380D02*
X121164523Y-48120714D01*
X121164523Y-47787380D02*
X121116904Y-47835000D01*
X121164523Y-47882619D01*
X121212142Y-47835000D01*
X121164523Y-47787380D01*
X121164523Y-47882619D01*
X121497857Y-48120714D02*
X121878809Y-48120714D01*
X121640714Y-47787380D02*
X121640714Y-48644523D01*
X121688333Y-48739761D01*
X121783571Y-48787380D01*
X121878809Y-48787380D01*
X122212142Y-48787380D02*
X122212142Y-47787380D01*
X122640714Y-48787380D02*
X122640714Y-48263571D01*
X122593095Y-48168333D01*
X122497857Y-48120714D01*
X122355000Y-48120714D01*
X122259761Y-48168333D01*
X122212142Y-48215952D01*
X123545476Y-48120714D02*
X123545476Y-48787380D01*
X123116904Y-48120714D02*
X123116904Y-48644523D01*
X123164523Y-48739761D01*
X123259761Y-48787380D01*
X123402619Y-48787380D01*
X123497857Y-48739761D01*
X123545476Y-48692142D01*
X124021666Y-48787380D02*
X124021666Y-47787380D01*
X124021666Y-48168333D02*
X124116904Y-48120714D01*
X124307380Y-48120714D01*
X124402619Y-48168333D01*
X124450238Y-48215952D01*
X124497857Y-48311190D01*
X124497857Y-48596904D01*
X124450238Y-48692142D01*
X124402619Y-48739761D01*
X124307380Y-48787380D01*
X124116904Y-48787380D01*
X124021666Y-48739761D01*
X124926428Y-48692142D02*
X124974047Y-48739761D01*
X124926428Y-48787380D01*
X124878809Y-48739761D01*
X124926428Y-48692142D01*
X124926428Y-48787380D01*
X125402619Y-48787380D02*
X125402619Y-48120714D01*
X125402619Y-47787380D02*
X125354999Y-47835000D01*
X125402619Y-47882619D01*
X125450238Y-47835000D01*
X125402619Y-47787380D01*
X125402619Y-47882619D01*
X126021666Y-48787380D02*
X125926428Y-48739761D01*
X125878809Y-48692142D01*
X125831190Y-48596904D01*
X125831190Y-48311190D01*
X125878809Y-48215952D01*
X125926428Y-48168333D01*
X126021666Y-48120714D01*
X126164523Y-48120714D01*
X126259761Y-48168333D01*
X126307380Y-48215952D01*
X126354999Y-48311190D01*
X126354999Y-48596904D01*
X126307380Y-48692142D01*
X126259761Y-48739761D01*
X126164523Y-48787380D01*
X126021666Y-48787380D01*
X127497857Y-47739761D02*
X126640714Y-49025476D01*
X127783571Y-48739761D02*
X127926428Y-48787380D01*
X128164523Y-48787380D01*
X128259761Y-48739761D01*
X128307380Y-48692142D01*
X128354999Y-48596904D01*
X128354999Y-48501666D01*
X128307380Y-48406428D01*
X128259761Y-48358809D01*
X128164523Y-48311190D01*
X127974047Y-48263571D01*
X127878809Y-48215952D01*
X127831190Y-48168333D01*
X127783571Y-48073095D01*
X127783571Y-47977857D01*
X127831190Y-47882619D01*
X127878809Y-47835000D01*
X127974047Y-47787380D01*
X128212142Y-47787380D01*
X128354999Y-47835000D01*
X128926428Y-48787380D02*
X128831190Y-48739761D01*
X128783571Y-48692142D01*
X128735952Y-48596904D01*
X128735952Y-48311190D01*
X128783571Y-48215952D01*
X128831190Y-48168333D01*
X128926428Y-48120714D01*
X129069285Y-48120714D01*
X129164523Y-48168333D01*
X129212142Y-48215952D01*
X129259761Y-48311190D01*
X129259761Y-48596904D01*
X129212142Y-48692142D01*
X129164523Y-48739761D01*
X129069285Y-48787380D01*
X128926428Y-48787380D01*
X129545476Y-48120714D02*
X129926428Y-48120714D01*
X129688333Y-48787380D02*
X129688333Y-47930238D01*
X129735952Y-47835000D01*
X129831190Y-47787380D01*
X129926428Y-47787380D01*
X130402619Y-48787380D02*
X130307380Y-48739761D01*
X130259761Y-48644523D01*
X130259761Y-47787380D01*
X131164523Y-48739761D02*
X131069285Y-48787380D01*
X130878809Y-48787380D01*
X130783571Y-48739761D01*
X130735952Y-48644523D01*
X130735952Y-48263571D01*
X130783571Y-48168333D01*
X130878809Y-48120714D01*
X131069285Y-48120714D01*
X131164523Y-48168333D01*
X131212142Y-48263571D01*
X131212142Y-48358809D01*
X130735952Y-48454047D01*
X131640714Y-48787380D02*
X131640714Y-47787380D01*
X132212142Y-48787380D02*
X131783571Y-48215952D01*
X132212142Y-47787380D02*
X131640714Y-48358809D01*
X133021666Y-48739761D02*
X132926428Y-48787380D01*
X132735952Y-48787380D01*
X132640714Y-48739761D01*
X132593095Y-48644523D01*
X132593095Y-48263571D01*
X132640714Y-48168333D01*
X132735952Y-48120714D01*
X132926428Y-48120714D01*
X133021666Y-48168333D01*
X133069285Y-48263571D01*
X133069285Y-48358809D01*
X132593095Y-48454047D01*
X133402619Y-48120714D02*
X133640714Y-48787380D01*
X133878809Y-48120714D02*
X133640714Y-48787380D01*
X133545476Y-49025476D01*
X133497857Y-49073095D01*
X133402619Y-49120714D01*
X134259761Y-48787380D02*
X134259761Y-47787380D01*
X134259761Y-48168333D02*
X134355000Y-48120714D01*
X134545476Y-48120714D01*
X134640714Y-48168333D01*
X134688333Y-48215952D01*
X134735952Y-48311190D01*
X134735952Y-48596904D01*
X134688333Y-48692142D01*
X134640714Y-48739761D01*
X134545476Y-48787380D01*
X134355000Y-48787380D01*
X134259761Y-48739761D01*
X135307380Y-48787380D02*
X135212142Y-48739761D01*
X135164523Y-48692142D01*
X135116904Y-48596904D01*
X135116904Y-48311190D01*
X135164523Y-48215952D01*
X135212142Y-48168333D01*
X135307380Y-48120714D01*
X135450238Y-48120714D01*
X135545476Y-48168333D01*
X135593095Y-48215952D01*
X135640714Y-48311190D01*
X135640714Y-48596904D01*
X135593095Y-48692142D01*
X135545476Y-48739761D01*
X135450238Y-48787380D01*
X135307380Y-48787380D01*
X136497857Y-48787380D02*
X136497857Y-48263571D01*
X136450238Y-48168333D01*
X136354999Y-48120714D01*
X136164523Y-48120714D01*
X136069285Y-48168333D01*
X136497857Y-48739761D02*
X136402619Y-48787380D01*
X136164523Y-48787380D01*
X136069285Y-48739761D01*
X136021666Y-48644523D01*
X136021666Y-48549285D01*
X136069285Y-48454047D01*
X136164523Y-48406428D01*
X136402619Y-48406428D01*
X136497857Y-48358809D01*
X136974047Y-48787380D02*
X136974047Y-48120714D01*
X136974047Y-48311190D02*
X137021666Y-48215952D01*
X137069285Y-48168333D01*
X137164523Y-48120714D01*
X137259761Y-48120714D01*
X138021666Y-48787380D02*
X138021666Y-47787380D01*
X138021666Y-48739761D02*
X137926428Y-48787380D01*
X137735952Y-48787380D01*
X137640714Y-48739761D01*
X137593095Y-48692142D01*
X137545476Y-48596904D01*
X137545476Y-48311190D01*
X137593095Y-48215952D01*
X137640714Y-48168333D01*
X137735952Y-48120714D01*
X137926428Y-48120714D01*
X138021666Y-48168333D01*
X139212142Y-47739761D02*
X138354999Y-49025476D01*
M02*
